<svg width="211" height="167" viewBox="0 0 211 167" fill="none" xmlns="http://www.w3.org/2000/svg">
<path d="M83.8787 26.2963L38.9151 129.405C37.5562 132.52 37.0356 135.936 37.405 139.314C37.7745 142.692 39.0211 145.914 41.0209 148.66C43.0207 151.406 45.7039 153.58 48.8035 154.966C51.9032 156.351 55.3112 156.9 58.6884 156.557C89.9333 153.384 136.742 148.556 169.175 145.197C185.271 143.53 193.319 124.825 183.414 111.99L114.511 22.5158C112.605 20.0524 110.092 18.1274 107.218 16.9297C104.345 15.7319 101.21 15.3026 98.1205 15.6839C95.0314 16.0651 92.0943 17.2438 89.5975 19.1044C87.1007 20.9649 85.13 23.4433 83.8787 26.2963Z" fill="#318FFF"/>
<g opacity="0.5">
<path opacity="0.5" d="M86.2188 33.2252C86.2863 32.8703 86.4118 32.529 86.5902 32.215C86.7388 31.8927 86.906 31.4775 87.1598 31.0127L88.1379 29.4757C88.5465 28.9117 89.1037 28.3539 89.667 27.6908C90.3522 27.0377 91.087 26.4389 91.8648 25.8997C93.8234 24.5327 96.064 23.6241 98.4208 23.2409C100.753 22.8138 103.151 22.9032 105.445 23.5028C107.739 24.1024 109.874 25.1976 111.7 26.7116L112.734 27.5978C113.056 27.9201 113.353 28.2734 113.669 28.6142C114.325 29.3084 114.863 30.0273 115.439 30.7586L130.972 50.5909C142.443 65.3473 156.088 82.9112 171.212 102.409L176.945 109.846C179.032 112.57 180.37 115.795 180.826 119.198C181.187 121.848 181.009 124.543 180.304 127.123C179.599 129.702 178.381 132.112 176.723 134.209C175.065 136.306 173.002 138.046 170.656 139.325C168.31 140.604 165.73 141.395 163.071 141.652L152.8 142.712L131.82 144.875L90.4471 149.101L70.7728 151.091L65.975 151.574L63.5977 151.816L61.0595 151.896C57.6955 151.792 54.4251 150.762 51.6062 148.922C48.9097 147.155 46.7097 144.727 45.2154 141.868C43.7211 139.01 42.9823 135.816 43.0691 132.591C43.1434 131.81 43.1434 131.029 43.292 130.267C43.4406 129.505 43.6015 128.755 43.7934 128.017L44.5735 125.86C44.8459 125.179 45.143 124.547 45.4278 123.89L48.808 116.242L61.1895 88.2907C68.767 71.2102 74.9392 57.4082 79.2603 47.8949L84.2934 36.9624C85.4697 34.4833 86.1507 33.188 86.2126 33.2438C86.2745 33.2996 85.7978 34.6383 84.7763 37.1917C83.7548 39.7451 82.1762 43.5132 80.189 48.3473C76.1588 57.9846 70.2404 71.8981 62.8548 89.0778C59.1403 97.6615 55.1225 107.051 50.789 117.153C49.6994 119.677 48.5933 122.243 47.4708 124.85C47.1922 125.47 46.8888 126.158 46.635 126.802L45.9788 128.637C45.8116 129.294 45.7002 129.963 45.5516 130.626C45.403 131.29 45.4402 131.977 45.3721 132.653C45.3117 135.476 45.9734 138.268 47.2942 140.762C48.615 143.257 50.5512 145.373 52.9186 146.907C55.373 148.497 58.2177 149.378 61.14 149.455L63.3563 149.374L65.7335 149.126L70.5252 148.618L90.1932 146.567L131.56 142.29L152.54 140.14L162.811 139.092C165.135 138.875 167.391 138.19 169.444 137.079C171.497 135.967 173.304 134.453 174.758 132.625C176.212 130.797 177.283 128.694 177.905 126.443C178.527 124.191 178.689 121.836 178.381 119.52C177.992 116.545 176.833 113.723 175.019 111.333L169.336 103.896L129.517 51.7374L114.288 31.6448C113.724 30.9073 113.186 30.1574 112.616 29.5377C112.331 29.2154 112.065 28.8807 111.774 28.577L110.839 27.7528C109.628 26.7283 108.27 25.8925 106.809 25.2737C104.21 24.2167 101.379 23.8619 98.6003 24.2449C96.3636 24.5365 94.2194 25.3219 92.3229 26.5442C91.5569 27.0307 90.8266 27.5713 90.1375 28.1618C89.5742 28.7816 89.0046 29.2774 88.5775 29.798C88.1503 30.3186 87.8098 30.8082 87.4941 31.2234C87.1783 31.6387 87.0174 32.0415 86.8255 32.339C86.4416 32.9401 86.2188 33.2438 86.2188 33.2252Z" fill="white"/>
</g>
<path opacity="0.5" d="M93.4 56.7884L100.111 97.8784C100.375 99.5021 101.224 100.973 102.496 102.014C103.769 103.055 105.378 103.594 107.02 103.531C108.746 103.462 110.38 102.733 111.584 101.493C112.788 100.253 113.47 98.5973 113.489 96.8682L113.96 54.8548C113.969 54.1043 113.818 53.3605 113.518 52.6728C113.218 51.9851 112.775 51.3692 112.219 50.8662C111.662 50.3632 111.005 49.9845 110.291 49.7553C109.578 49.5262 108.823 49.4519 108.078 49.5373L98.0183 50.6776C97.3069 50.758 96.6193 50.9824 95.9972 51.3372C95.3751 51.6919 94.8315 52.1695 94.3996 52.7411C93.9676 53.3127 93.6563 53.9662 93.4844 54.662C93.3126 55.3577 93.2839 56.0812 93.4 56.7884Z" fill="white"/>
<path opacity="0.5" d="M119.414 124.113C118.973 126.069 117.963 127.85 116.51 129.232C115.058 130.613 113.23 131.532 111.256 131.873C109.282 132.214 107.251 131.961 105.421 131.147C103.59 130.332 102.042 128.993 100.972 127.297C99.9021 125.602 99.3582 123.627 99.4093 121.623C99.4603 119.618 100.104 117.674 101.259 116.035C102.414 114.397 104.028 113.138 105.898 112.418C107.767 111.698 109.808 111.549 111.762 111.99C113.06 112.283 114.287 112.829 115.374 113.597C116.46 114.365 117.386 115.339 118.096 116.465C118.807 117.591 119.289 118.845 119.515 120.158C119.741 121.47 119.707 122.814 119.414 124.113Z" fill="white"/>
<path d="M36.0735 1.90261L2.5567 32.5744C1.54405 33.4996 0.791323 34.6744 0.373547 35.9816C-0.0442304 37.2888 -0.112464 38.6828 0.17565 40.0246C0.463764 41.3665 1.09816 42.6093 2.0156 43.6291C2.93305 44.649 4.10149 45.4104 5.40445 45.8373C17.4517 49.7975 35.5102 55.6976 48.0279 59.788C49.4411 60.2517 50.9524 60.3287 52.4053 60.0109C53.8581 59.6931 55.1997 58.9922 56.2909 57.9807C57.3821 56.9692 58.1833 55.684 58.6113 54.2582C59.0394 52.8325 59.0789 51.318 58.7256 49.8719L47.9598 5.54059C47.6605 4.32284 47.0505 3.20374 46.1896 2.29275C45.3287 1.38175 44.2463 0.710079 43.0483 0.343424C41.8504 -0.0232301 40.5779 -0.0723074 39.3553 0.200996C38.1327 0.4743 37.0019 1.06063 36.0735 1.90261Z" fill="#318FFF"/>
<g opacity="0.5">
<path opacity="0.5" d="M35.7578 4.84036C35.7207 4.80317 36.0426 4.26398 36.996 3.63803C37.7303 3.18979 38.5458 2.89117 39.3957 2.75928C40.2456 2.6274 41.1132 2.66487 41.9486 2.86953C43.2088 3.15967 44.3665 3.78735 45.2978 4.68542C46.3533 5.77809 47.075 7.14996 47.3779 8.63947C48.1393 11.5523 49.006 14.8371 49.9656 18.4874L56.5031 44.164L57.4193 47.8826C57.7755 49.3532 57.7414 50.8915 57.3203 52.3448C56.9922 53.4804 56.4384 54.538 55.692 55.4541C54.9456 56.3701 54.022 57.1257 52.9766 57.6756C51.9313 58.2255 50.7857 58.5583 49.6088 58.654C48.4318 58.7497 47.2476 58.6063 46.1273 58.2325L42.1591 56.9434L34.0553 54.2661L18.1203 49.0229L10.5428 46.5067L8.68556 45.8869L7.76933 45.577L6.73547 45.1556C5.39399 44.5039 4.25849 43.4936 3.45436 42.2366C2.68546 41.0385 2.23621 39.6631 2.14951 38.2418C2.0628 36.8204 2.34154 35.4005 2.9591 34.1177C3.26691 33.509 3.64283 32.9372 4.07963 32.4134L4.77919 31.6945L5.39826 31.0747L7.93029 28.856L17.136 20.6442C22.7758 15.6427 27.3693 11.6267 30.5885 8.86878C33.8077 6.11086 35.6402 4.68542 35.7578 4.82177C35.8754 4.95811 34.2782 6.68104 31.2695 9.61869C28.2608 12.5563 23.8406 16.8079 18.3803 22.0139L9.39131 30.4488L6.915 32.7605L6.29593 33.343L5.79447 33.8822C5.48945 34.2652 5.22783 34.6809 5.01444 35.1217C4.58929 36.0461 4.406 37.0635 4.4818 38.0783C4.55761 39.0931 4.89003 40.0719 5.44779 40.9227C6.02608 41.7991 6.83331 42.5 7.78171 42.9493L8.5246 43.2406L9.44084 43.5381L11.2981 44.1578L18.9003 46.6368L34.8663 51.787L42.9577 54.4396L46.9136 55.7473C47.7096 56.0182 48.5521 56.1255 49.3905 56.0626C50.229 55.9998 51.0461 55.7681 51.793 55.3815C52.5398 54.995 53.2011 54.4614 53.737 53.8129C54.273 53.1643 54.6726 52.4142 54.912 51.6073C55.2261 50.5689 55.2624 49.4662 55.0173 48.4093L54.1506 44.7342C51.9033 35.0288 49.8789 26.284 48.1703 18.9151C47.3531 15.2399 46.6102 11.9118 45.954 8.99893C45.777 7.72856 45.2374 6.53635 44.4001 5.56547C43.6693 4.77848 42.745 4.19722 41.7195 3.87973C40.2527 3.41972 38.669 3.5078 37.2622 4.12764C36.284 4.53668 35.8383 4.93952 35.7578 4.84036Z" fill="white"/>
</g>
<path opacity="0.5" d="M34.5567 14.7192L30.2974 30.9816C30.1312 31.6243 30.2049 32.3056 30.5046 32.8978C30.8044 33.4899 31.3096 33.9523 31.9256 34.1982C32.5737 34.4541 33.2951 34.4522 33.9419 34.193C34.5888 33.9337 35.1121 33.4367 35.4048 32.8037L42.4561 17.3779C42.5826 17.1031 42.6491 16.8044 42.6514 16.5018C42.6536 16.1991 42.5915 15.8995 42.4691 15.6228C42.3467 15.3461 42.1668 15.0986 41.9415 14.8968C41.7162 14.6951 41.4505 14.5437 41.1622 14.4527L37.262 13.2132C36.9857 13.1267 36.6947 13.0973 36.4067 13.1269C36.1187 13.1565 35.8397 13.2443 35.5866 13.3852C35.3336 13.5261 35.1118 13.7169 34.9348 13.9463C34.7577 14.1756 34.6291 14.4385 34.5567 14.7192Z" fill="white"/>
<path opacity="0.5" d="M33.1266 43.8231C32.6442 44.474 31.9797 44.967 31.2172 45.2398C30.4548 45.5125 29.6287 45.5526 28.8434 45.3552C28.0582 45.1577 27.3491 44.7314 26.8059 44.1304C26.2627 43.5293 25.9098 42.7804 25.7919 41.9785C25.674 41.1766 25.7964 40.3577 26.1435 39.6255C26.4907 38.8932 27.047 38.2805 27.7422 37.8649C28.4373 37.4493 29.2399 37.2495 30.0485 37.2907C30.8571 37.3319 31.6354 37.6124 32.2847 38.0965C33.1541 38.7448 33.731 39.7118 33.8889 40.7855C34.0467 41.8591 33.7726 42.9516 33.1266 43.8231Z" fill="white"/>
<path d="M164.526 11.4156L156.93 46.0725C156.701 47.1195 156.749 48.2083 157.071 49.2307C157.392 50.2531 157.975 51.1734 158.762 51.9003C159.549 52.6272 160.512 53.1353 161.556 53.3742C162.599 53.613 163.687 53.5742 164.712 53.2617C174.183 50.3612 188.366 45.9919 198.197 42.9613C199.309 42.6214 200.31 41.9896 201.096 41.1317C201.881 40.2738 202.423 39.221 202.665 38.0827C202.907 36.9443 202.84 35.7618 202.472 34.658C202.103 33.5542 201.446 32.5693 200.568 31.8057L173.769 8.35401C173.028 7.70646 172.132 7.2634 171.169 7.06855C170.205 6.87371 169.207 6.93383 168.274 7.24297C167.341 7.55211 166.504 8.09959 165.847 8.83135C165.189 9.56311 164.734 10.4538 164.526 11.4156Z" fill="#318FFF"/>
<g opacity="0.5">
<path opacity="0.5" d="M165.665 13.4177C165.609 13.4177 165.547 12.9157 165.875 12.0543C166.138 11.4205 166.525 10.8458 167.013 10.3637C167.501 9.88159 168.08 9.50186 168.717 9.24676C169.66 8.85655 170.691 8.72809 171.701 8.8749C172.895 9.09294 174.002 9.65012 174.889 10.4801L180.999 15.5683L196.755 28.9861L199.002 30.9197C199.928 31.7293 200.626 32.7678 201.026 33.9317C201.344 34.8406 201.474 35.8044 201.409 36.765C201.344 37.7257 201.085 38.6632 200.649 39.5209C200.212 40.3787 199.606 41.139 198.868 41.7559C198.129 42.3728 197.274 42.8336 196.352 43.1103L193.257 44.0772L186.899 46.0356L174.357 49.8657L168.383 51.6692L166.928 52.1092L166.203 52.3261L165.318 52.5245C164.119 52.7195 162.89 52.5801 161.765 52.1216C160.696 51.6846 159.757 50.9805 159.037 50.0767C158.317 49.1729 157.841 48.0995 157.654 46.959C157.575 46.409 157.559 45.8518 157.604 45.2981L157.728 44.4986L157.883 43.8293C158.081 42.9554 158.285 42.1001 158.502 41.2511C159.301 37.8858 160.044 34.7498 160.725 31.8679C162.099 26.1414 163.257 21.5118 164.117 18.3262C164.978 15.1407 165.535 13.3681 165.708 13.4363C165.881 13.5045 165.665 15.2956 165.089 18.5431C164.513 21.7907 163.653 26.4822 162.507 32.2646C161.926 35.165 161.269 38.3258 160.601 41.7159L160.068 44.3065L159.938 44.9262L159.864 45.4654C159.844 45.8281 159.865 46.1919 159.926 46.55C160.065 47.2875 160.389 47.9776 160.868 48.5554C161.347 49.1332 161.964 49.5798 162.662 49.8533C163.381 50.1326 164.163 50.2077 164.922 50.0702L165.46 49.9277L166.179 49.6984L167.627 49.2459L173.583 47.3867L186.113 43.507L192.471 41.5547L195.566 40.6065C196.374 40.3709 197.102 39.9187 197.671 39.2988C198.22 38.6875 198.598 37.9424 198.767 37.1384C198.937 36.3344 198.892 35.4999 198.637 34.7188C198.384 33.9588 197.938 33.2776 197.343 32.7418L195.176 30.7957L179.792 16.9627L173.936 11.577C173.346 10.9014 172.572 10.4117 171.71 10.1675C170.847 9.92327 169.932 9.93497 169.076 10.2012C167.95 10.5527 166.984 11.2927 166.352 12.2898C165.906 12.9901 165.782 13.4425 165.665 13.4177Z" fill="white"/>
</g>
<path opacity="0.5" d="M169.336 20.2661L173.93 32.5745C174.111 33.0587 174.463 33.4602 174.918 33.7042C175.374 33.9482 175.903 34.018 176.406 33.9008C176.939 33.772 177.402 33.4425 177.698 32.9807C177.994 32.5189 178.102 31.9605 177.997 31.4217L175.57 18.4068C175.526 18.1743 175.433 17.9538 175.298 17.7599C175.162 17.5659 174.987 17.4029 174.784 17.2817C174.581 17.1604 174.355 17.0837 174.12 17.0565C173.885 17.0293 173.647 17.0523 173.422 17.1239L170.413 18.0907C170.196 18.1576 169.995 18.268 169.823 18.4152C169.65 18.5623 169.509 18.7432 169.408 18.9467C169.307 19.1502 169.249 19.3722 169.236 19.599C169.224 19.8258 169.258 20.0528 169.336 20.2661Z" fill="white"/>
<path opacity="0.5" d="M181.513 39.4912C181.497 40.1242 181.293 40.7381 180.928 41.2551C180.563 41.7722 180.053 42.1691 179.462 42.3955C178.872 42.622 178.227 42.6679 177.61 42.5273C176.994 42.3867 176.433 42.066 175.998 41.6058C175.564 41.1457 175.275 40.5668 175.17 39.9424C175.065 39.3181 175.147 38.6765 175.406 38.0989C175.665 37.5213 176.089 37.0337 176.626 36.6979C177.162 36.3621 177.785 36.1933 178.418 36.2127C179.261 36.2418 180.058 36.6023 180.638 37.2159C181.217 37.8296 181.531 38.647 181.513 39.4912Z" fill="white"/>
<path d="M22.4537 164.887C22.0142 164.58 21.6185 164.215 21.2774 163.802C20.8321 163.363 20.4184 162.893 20.0393 162.395C19.5005 161.762 18.9962 161.1 18.5287 160.412C17.2882 158.635 16.2146 156.747 15.3219 154.772C13.1168 149.917 11.9809 144.643 11.9913 139.309C11.9983 137.14 12.2055 134.976 12.6104 132.845C12.7466 131.934 12.9942 131.128 13.1675 130.416C13.3146 129.807 13.5007 129.209 13.7247 128.625C13.857 128.105 14.0656 127.608 14.3438 127.15C14.4985 127.199 13.7247 129.35 13.2109 132.951C12.9012 135.053 12.7625 137.178 12.7961 139.303C12.8634 141.902 13.1596 144.491 13.6814 147.038C14.2506 149.583 15.0462 152.072 16.0586 154.475C16.9047 156.425 17.9046 158.305 19.0488 160.096C21.0174 163.127 22.5899 164.775 22.4537 164.887Z" fill="#263238"/>
<path d="M37.0269 166.994C36.512 166.757 36.031 166.453 35.5968 166.089C35.0481 165.713 34.5268 165.299 34.0368 164.849C33.3587 164.288 32.7119 163.69 32.0991 163.058C30.483 161.429 29.0315 159.643 27.7655 157.728C24.6497 153.015 22.6469 147.652 21.909 142.048C21.6138 139.772 21.5412 137.472 21.6924 135.182C21.7409 134.303 21.838 133.428 21.9833 132.56C22.0606 131.899 22.1848 131.245 22.3548 130.602C22.4467 130.042 22.609 129.496 22.8377 128.978C23.011 129.015 22.4353 131.364 22.3114 135.213C22.2468 137.461 22.3794 139.711 22.7077 141.937C23.5157 147.403 25.4693 152.637 28.4403 157.295C29.6479 159.191 31.0215 160.977 32.5448 162.631C35.1635 165.463 37.1321 166.857 37.0269 166.994Z" fill="#263238"/>
<path d="M192.551 149.169C192.403 149.095 193.709 146.759 195.182 142.742C196.039 140.389 196.738 137.981 197.275 135.535C198.583 129.534 198.878 123.356 198.148 117.258C197.85 114.771 197.385 112.307 196.755 109.883C195.671 105.743 194.6 103.295 194.755 103.233C195.102 103.756 195.387 104.317 195.603 104.906C196.294 106.47 196.878 108.079 197.349 109.722C198.073 112.156 198.607 114.642 198.946 117.159C199.774 123.345 199.472 129.63 198.055 135.708C197.479 138.181 196.711 140.606 195.758 142.959C195.131 144.549 194.397 146.093 193.56 147.583C193.293 148.152 192.953 148.685 192.551 149.169Z" fill="#263238"/>
<path d="M205.973 145.724C205.831 145.649 206.877 143.74 207.991 140.45C208.641 138.525 209.146 136.555 209.502 134.556C210.371 129.651 210.335 124.629 209.397 119.737C209.01 117.744 208.476 115.782 207.799 113.868C206.635 110.596 205.564 108.706 205.707 108.625C206.056 109.003 206.346 109.431 206.567 109.896C207.267 111.099 207.873 112.355 208.381 113.651C209.149 115.573 209.752 117.558 210.183 119.582C210.685 122.07 210.958 124.599 211 127.137C211 129.676 210.762 132.21 210.288 134.704C209.89 136.736 209.316 138.728 208.573 140.66C208.084 141.963 207.496 143.227 206.815 144.441C206.603 144.91 206.319 145.343 205.973 145.724Z" fill="#263238"/>
</svg>
