<svg width="381" height="220" viewBox="0 0 381 220" fill="none" xmlns="http://www.w3.org/2000/svg">
<g clip-path="url(#clip0_210_3877)">
<path d="M341.642 0.125H59V166.218H341.642V0.125Z" fill="white"/>
<path d="M183.657 69.358C185.822 69.358 187.525 69.8754 188.767 70.9102C190.009 71.945 190.63 73.3699 190.63 75.1848C190.63 76.9997 190.009 78.4246 188.767 79.4594C187.525 80.4942 185.822 81.0116 183.657 81.0116H179.525V86.0742H177.137V69.358H183.657ZM183.585 78.934C185.097 78.934 186.252 78.6156 187.048 77.9788C187.844 77.3261 188.242 76.3947 188.242 75.1848C188.242 73.9749 187.844 73.0515 187.048 72.4147C186.252 71.7619 185.097 71.4356 183.585 71.4356H179.525V78.934H183.585ZM198.654 73.2982C200.405 73.2982 201.743 73.7281 202.666 74.5878C203.605 75.4475 204.075 76.7291 204.075 78.4325V86.0742H201.902V84.4026C201.52 84.9916 200.971 85.4454 200.254 85.7638C199.554 86.0663 198.718 86.2175 197.747 86.2175C196.33 86.2175 195.192 85.8752 194.332 85.1906C193.488 84.5061 193.066 83.6066 193.066 82.4922C193.066 81.3778 193.472 80.4862 194.284 79.8176C195.096 79.133 196.386 78.7907 198.153 78.7907H201.783V78.337C201.783 77.3499 201.496 76.5937 200.923 76.0684C200.35 75.543 199.506 75.2803 198.392 75.2803C197.643 75.2803 196.911 75.4077 196.195 75.6624C195.478 75.9012 194.873 76.2276 194.38 76.6415L193.424 74.9221C194.077 74.3967 194.857 73.9987 195.765 73.7281C196.672 73.4415 197.635 73.2982 198.654 73.2982ZM198.129 84.4504C199.004 84.4504 199.761 84.2593 200.397 83.8772C201.034 83.4792 201.496 82.922 201.783 82.2056V80.4385H198.248C196.306 80.4385 195.335 81.0912 195.335 82.3966C195.335 83.0335 195.582 83.5349 196.075 83.9011C196.569 84.2673 197.253 84.4504 198.129 84.4504ZM210.873 75.543C211.271 74.8107 211.86 74.2535 212.64 73.8714C213.42 73.4893 214.367 73.2982 215.482 73.2982V75.5191C215.354 75.5032 215.179 75.4952 214.956 75.4952C213.715 75.4952 212.735 75.8694 212.019 76.6176C211.319 77.3499 210.968 78.4007 210.968 79.7698V86.0742H208.676V73.4176H210.873V75.543ZM223.251 73.2982C225.002 73.2982 226.339 73.7281 227.263 74.5878C228.202 75.4475 228.672 76.7291 228.672 78.4325V86.0742H226.499V84.4026C226.117 84.9916 225.567 85.4454 224.851 85.7638C224.15 86.0663 223.315 86.2175 222.344 86.2175C220.927 86.2175 219.788 85.8752 218.929 85.1906C218.085 84.5061 217.663 83.6066 217.663 82.4922C217.663 81.3778 218.069 80.4862 218.881 79.8176C219.693 79.133 220.982 78.7907 222.749 78.7907H226.379V78.337C226.379 77.3499 226.093 76.5937 225.52 76.0684C224.946 75.543 224.103 75.2803 222.988 75.2803C222.24 75.2803 221.508 75.4077 220.791 75.6624C220.075 75.9012 219.47 76.2276 218.976 76.6415L218.021 74.9221C218.674 74.3967 219.454 73.9987 220.361 73.7281C221.269 73.4415 222.232 73.2982 223.251 73.2982ZM222.726 84.4504C223.601 84.4504 224.357 84.2593 224.994 83.8772C225.631 83.4792 226.093 82.922 226.379 82.2056V80.4385H222.845C220.903 80.4385 219.932 81.0912 219.932 82.3966C219.932 83.0335 220.178 83.5349 220.672 83.9011C221.165 84.2673 221.85 84.4504 222.726 84.4504ZM240.031 73.2982C241.639 73.2982 242.912 73.7679 243.851 74.7072C244.807 75.6306 245.284 76.9917 245.284 78.7907V86.0742H242.992V79.0534C242.992 77.8275 242.697 76.9042 242.108 76.2833C241.519 75.6624 240.675 75.352 239.577 75.352C238.335 75.352 237.356 75.7181 236.64 76.4504C235.923 77.1669 235.565 78.2017 235.565 79.5549V86.0742H233.272V73.4176H235.469V75.3281C235.931 74.6753 236.552 74.1739 237.332 73.8236C238.128 73.4734 239.028 73.2982 240.031 73.2982ZM255.376 86.2175C254.118 86.2175 252.988 85.9389 251.985 85.3817C250.982 84.8245 250.194 84.0603 249.621 83.0892C249.064 82.1021 248.785 80.9877 248.785 79.7459C248.785 78.5042 249.064 77.3977 249.621 76.4266C250.194 75.4395 250.982 74.6753 251.985 74.1341C252.988 73.5769 254.118 73.2982 255.376 73.2982C256.634 73.2982 257.756 73.5769 258.743 74.1341C259.746 74.6753 260.526 75.4395 261.083 76.4266C261.656 77.3977 261.943 78.5042 261.943 79.7459C261.943 80.9877 261.656 82.1021 261.083 83.0892C260.526 84.0603 259.746 84.8245 258.743 85.3817C257.756 85.9389 256.634 86.2175 255.376 86.2175ZM255.376 84.2116C256.188 84.2116 256.912 84.0285 257.549 83.6623C258.202 83.2802 258.711 82.7549 259.077 82.0862C259.444 81.4016 259.627 80.6215 259.627 79.7459C259.627 78.8703 259.444 78.0982 259.077 77.4295C258.711 76.745 258.202 76.2196 257.549 75.8534C256.912 75.4873 256.188 75.3042 255.376 75.3042C254.564 75.3042 253.832 75.4873 253.179 75.8534C252.542 76.2196 252.033 76.745 251.651 77.4295C251.284 78.0982 251.101 78.8703 251.101 79.7459C251.101 80.6215 251.284 81.4016 251.651 82.0862C252.033 82.7549 252.542 83.2802 253.179 83.6623C253.832 84.0285 254.564 84.2116 255.376 84.2116ZM265.472 73.4176H267.764V86.0742H265.472V73.4176ZM266.618 70.9819C266.172 70.9819 265.798 70.8386 265.496 70.552C265.209 70.2654 265.066 69.9152 265.066 69.5013C265.066 69.0873 265.209 68.7371 265.496 68.4505C265.798 68.1481 266.172 67.9968 266.618 67.9968C267.064 67.9968 267.43 68.1401 267.716 68.4267C268.019 68.6973 268.17 69.0396 268.17 69.4535C268.17 69.8834 268.019 70.2495 267.716 70.552C267.43 70.8386 267.064 70.9819 266.618 70.9819ZM284.44 68.355V86.0742H282.243V84.0683C281.733 84.7688 281.089 85.3021 280.309 85.6683C279.528 86.0344 278.669 86.2175 277.729 86.2175C276.504 86.2175 275.405 85.9469 274.434 85.4056C273.463 84.8643 272.699 84.1081 272.141 83.1369C271.6 82.1499 271.33 81.0196 271.33 79.7459C271.33 78.4723 271.6 77.3499 272.141 76.3788C272.699 75.4077 273.463 74.6515 274.434 74.1102C275.405 73.5689 276.504 73.2982 277.729 73.2982C278.637 73.2982 279.473 73.4734 280.237 73.8236C281.001 74.1579 281.638 74.6594 282.147 75.3281V68.355H284.44ZM277.92 84.2116C278.716 84.2116 279.441 84.0285 280.094 83.6623C280.746 83.2802 281.256 82.7549 281.622 82.0862C281.988 81.4016 282.171 80.6215 282.171 79.7459C282.171 78.8703 281.988 78.0982 281.622 77.4295C281.256 76.745 280.746 76.2196 280.094 75.8534C279.441 75.4873 278.716 75.3042 277.92 75.3042C277.109 75.3042 276.376 75.4873 275.723 75.8534C275.087 76.2196 274.577 76.745 274.195 77.4295C273.829 78.0982 273.646 78.8703 273.646 79.7459C273.646 80.6215 273.829 81.4016 274.195 82.0862C274.577 82.7549 275.087 83.2802 275.723 83.6623C276.376 84.0285 277.109 84.2116 277.92 84.2116Z" fill="black"/>
<path fill-rule="evenodd" clip-rule="evenodd" d="M142.002 60.0811C142.002 60.0811 146.816 64.2147 156.203 64.4026C156.245 69.1365 155.998 74.0722 154.815 78.663C152.976 85.7693 147.927 88.5317 142.008 90.5761C136.088 88.5317 131.039 85.7693 129.201 78.663C128.006 74.0722 127.759 69.1365 127.801 64.4026C137.188 64.2147 142.002 60.0811 142.002 60.0811ZM142.001 61.3487C142.001 61.3487 146.412 65.1375 155.021 65.3114C155.06 69.6526 154.834 74.1761 153.767 78.3855C152.068 84.9029 147.439 87.4325 142.013 89.3086C136.575 87.4325 131.937 84.9029 130.258 78.3855C129.169 74.1761 128.942 69.6526 128.982 65.3114C137.588 65.1375 142.001 61.3487 142.001 61.3487Z" fill="#002C73" fill-opacity="0.5"/>
<path d="M138.993 74.9164V72.112C139.017 71.3634 139.33 70.6532 139.867 70.1319C140.403 69.6105 141.121 69.319 141.869 69.319C142.617 69.319 143.335 69.6105 143.871 70.1319C144.408 70.6532 144.721 71.3634 144.745 72.112V74.9164H146.161V72.112C146.132 70.9905 145.668 69.9245 144.866 69.1413C144.064 68.3582 142.989 67.9199 141.869 67.9199C140.749 67.9199 139.674 68.3582 138.872 69.1413C138.07 69.9245 137.606 70.9905 137.577 72.112V74.9164H138.993Z" fill="#002C73"/>
<path fill-rule="evenodd" clip-rule="evenodd" d="M141.16 79.1506H141.829L141.84 79.145V79.1533H142.329C142.357 79.1503 142.384 79.1411 142.409 79.1263C142.434 79.1116 142.455 79.0916 142.471 79.0678C142.487 79.044 142.497 79.017 142.502 78.9886C142.506 78.9603 142.504 78.9313 142.496 78.9037L142.012 76.548C142.232 76.4636 142.416 76.3052 142.532 76.0999C142.648 75.8945 142.688 75.6552 142.647 75.4229C142.606 75.1907 142.486 74.98 142.307 74.827C142.127 74.6741 141.901 74.5885 141.665 74.5849V74.5817C141.659 74.5827 141.653 74.5838 141.647 74.585C141.425 74.6234 141.223 74.7343 141.071 74.9003C140.919 75.0664 140.827 75.2782 140.808 75.5027C140.789 75.7271 140.845 75.9515 140.967 76.1407C141.089 76.3298 141.27 76.4731 141.482 76.5481L140.992 78.901C140.984 78.9286 140.982 78.9576 140.987 78.9859C140.991 79.0143 141.002 79.0413 141.018 79.0651C141.034 79.0889 141.055 79.1089 141.079 79.1236C141.104 79.1384 141.132 79.1476 141.16 79.1506ZM141.848 73.0621V73.0566H136.178C136.11 73.0566 136.044 73.0837 135.995 73.132C135.946 73.1803 135.919 73.246 135.918 73.3146V80.5416C135.919 80.6103 135.946 80.6759 135.995 80.7242C136.044 80.7725 136.11 80.7996 136.178 80.7996H141.665V80.8079H147.313C147.382 80.8079 147.447 80.7808 147.496 80.7325C147.545 80.6842 147.573 80.6186 147.573 80.5499V73.3201C147.573 73.2515 147.545 73.1858 147.496 73.1375C147.447 73.0892 147.382 73.0621 147.313 73.0621H141.848Z" fill="#002C73"/>
<path fill-rule="evenodd" clip-rule="evenodd" d="M141.863 56.1172C141.863 56.1172 147.974 61.3655 159.893 61.604C159.946 67.6143 159.633 73.8809 158.13 79.7096C155.795 88.7321 149.385 92.2393 141.87 94.835C134.354 92.2393 127.944 88.7321 125.609 79.7096C124.092 73.8809 123.779 67.6143 123.833 61.604C135.751 61.3655 141.863 56.1172 141.863 56.1172ZM141.863 57.7268C141.863 57.7268 147.463 62.5371 158.393 62.7579C158.443 68.2696 158.155 74.0129 156.801 79.3573C154.644 87.6321 148.767 90.8438 141.877 93.2258C134.973 90.8438 129.085 87.6321 126.953 79.3573C125.57 74.0129 125.282 68.2696 125.332 62.7579C136.259 62.5371 141.863 57.7268 141.863 57.7268Z" fill="#002C73" fill-opacity="0.35"/>
<path fill-rule="evenodd" clip-rule="evenodd" d="M141.583 51.4355C141.583 51.4355 149.267 58.0346 164.253 58.3346C164.32 65.8917 163.927 73.7712 162.037 81.1C159.101 92.4447 151.041 96.8545 141.591 100.118C132.142 96.8545 124.082 92.4447 121.146 81.1C119.238 73.7712 118.845 65.8917 118.912 58.3346C133.898 58.0346 141.583 51.4355 141.583 51.4355ZM141.582 53.4592C141.582 53.4592 148.624 59.5076 162.367 59.7852C162.43 66.7156 162.068 73.9369 160.366 80.6569C157.654 91.0614 150.264 95.0996 141.6 98.0947C132.919 95.0996 125.516 91.0614 122.835 80.6569C121.097 73.9369 120.735 66.7156 120.798 59.7852C134.537 59.5076 141.582 53.4592 141.582 53.4592Z" fill="#002C73" fill-opacity="0.2"/>
<path fill-rule="evenodd" clip-rule="evenodd" d="M141.376 47C141.376 47 150.743 55.0435 169.009 55.4091C169.09 64.6203 168.611 74.2244 166.307 83.1574C162.729 96.9851 152.905 102.36 141.387 106.338C129.869 102.36 120.045 96.9851 116.467 83.1574C114.141 74.2244 113.662 64.6203 113.744 55.4091C132.009 55.0435 141.376 47 141.376 47ZM141.375 49.4666C141.375 49.4666 149.958 56.8388 166.71 57.1771C166.786 65.6244 166.345 74.4264 164.27 82.6172C160.964 95.299 151.957 100.221 141.397 103.872C130.816 100.221 121.792 95.299 118.525 82.6172C116.406 74.4264 115.965 65.6244 116.041 57.1771C132.787 56.8388 141.375 49.4666 141.375 49.4666Z" fill="#002C73" fill-opacity="0.1"/>
<path d="M341.787 0.166992H59.1455V18.2217H341.787V0.166992Z" fill="#263238"/>
<path d="M222.88 151.264L223.268 151.228C223.654 151.217 224.038 151.181 224.419 151.12C225.896 150.926 227.317 150.433 228.595 149.67C230.584 148.515 232.177 146.784 233.163 144.706C234.15 142.628 234.484 140.299 234.121 138.027C233.759 135.754 232.717 133.645 231.133 131.977C229.549 130.309 227.498 129.161 225.249 128.683C224.242 128.493 223.218 128.411 222.194 128.439H212.309H182.617C180.065 128.442 177.589 129.306 175.59 130.893C173.59 132.479 172.184 134.694 171.598 137.179C171.329 138.365 171.243 139.585 171.342 140.797C171.462 141.985 171.757 143.148 172.219 144.248C173.145 146.384 174.702 148.184 176.681 149.407C177.156 149.7 177.651 149.962 178.161 150.189C179.177 150.606 180.244 150.887 181.334 151.025C181.877 151.073 182.408 151.102 182.951 151.102H189.245H200.532L216.885 151.15L221.329 151.18H222.486C222.743 151.18 222.88 151.18 222.88 151.18H222.486H221.329L216.885 151.21L200.532 151.264H189.245H182.951C182.414 151.264 181.853 151.234 181.305 151.186C180.749 151.121 180.199 151.017 179.658 150.876C179.112 150.732 178.576 150.552 178.053 150.338C177.526 150.105 177.016 149.836 176.526 149.532C174.496 148.282 172.897 146.44 171.944 144.254C171.47 143.126 171.166 141.932 171.043 140.714C170.937 139.468 171.026 138.213 171.306 136.994C171.894 134.48 173.3 132.233 175.303 130.606C177.379 128.94 179.957 128.027 182.617 128.015H212.309H222.17C223.212 127.994 224.254 128.08 225.278 128.271C226.981 128.634 228.579 129.377 229.955 130.444C231.331 131.511 232.448 132.875 233.224 134.434C234 135.993 234.414 137.707 234.436 139.449C234.458 141.191 234.087 142.915 233.35 144.493C232.347 146.652 230.698 148.444 228.631 149.622C227.351 150.372 225.929 150.85 224.455 151.025C224.059 151.132 223.657 151.211 223.25 151.264H222.88Z" fill="#318FFF"/>
<path d="M189.05 136.012H190.05V143.012H189.05V136.012ZM194.936 137.662C195.609 137.662 196.142 137.858 196.536 138.252C196.936 138.638 197.136 139.208 197.136 139.962V143.012H196.176V140.072C196.176 139.558 196.052 139.172 195.806 138.912C195.559 138.652 195.206 138.522 194.746 138.522C194.226 138.522 193.816 138.675 193.516 138.982C193.216 139.282 193.066 139.715 193.066 140.282V143.012H192.106V137.712H193.026V138.512C193.219 138.238 193.479 138.028 193.806 137.882C194.139 137.735 194.516 137.662 194.936 137.662ZM200.532 143.072C200.099 143.072 199.682 143.015 199.282 142.902C198.882 142.782 198.569 142.632 198.342 142.452L198.742 141.692C198.976 141.858 199.259 141.992 199.592 142.092C199.926 142.192 200.262 142.242 200.602 142.242C201.442 142.242 201.862 142.002 201.862 141.522C201.862 141.362 201.806 141.235 201.692 141.142C201.579 141.048 201.436 140.982 201.262 140.942C201.096 140.895 200.856 140.845 200.542 140.792C200.116 140.725 199.766 140.648 199.492 140.562C199.226 140.475 198.996 140.328 198.802 140.122C198.609 139.915 198.512 139.625 198.512 139.252C198.512 138.772 198.712 138.388 199.112 138.102C199.512 137.808 200.049 137.662 200.722 137.662C201.076 137.662 201.429 137.705 201.782 137.792C202.136 137.878 202.426 137.995 202.652 138.142L202.242 138.902C201.809 138.622 201.299 138.482 200.712 138.482C200.306 138.482 199.996 138.548 199.782 138.682C199.569 138.815 199.462 138.992 199.462 139.212C199.462 139.385 199.522 139.522 199.642 139.622C199.762 139.722 199.909 139.795 200.082 139.842C200.262 139.888 200.512 139.942 200.832 140.002C201.259 140.075 201.602 140.155 201.862 140.242C202.129 140.322 202.356 140.462 202.542 140.662C202.729 140.862 202.822 141.142 202.822 141.502C202.822 141.982 202.616 142.365 202.202 142.652C201.796 142.932 201.239 143.072 200.532 143.072ZM207.102 142.702C206.962 142.822 206.789 142.915 206.582 142.982C206.375 143.042 206.162 143.072 205.942 143.072C205.409 143.072 204.995 142.928 204.702 142.642C204.409 142.355 204.262 141.945 204.262 141.412V138.502H203.362V137.712H204.262V136.552H205.222V137.712H206.742V138.502H205.222V141.372C205.222 141.658 205.292 141.878 205.432 142.032C205.579 142.185 205.785 142.262 206.052 142.262C206.345 142.262 206.595 142.178 206.802 142.012L207.102 142.702ZM210.293 137.662C211.026 137.662 211.586 137.842 211.973 138.202C212.366 138.562 212.563 139.098 212.563 139.812V143.012H211.653V142.312C211.493 142.558 211.263 142.748 210.963 142.882C210.669 143.008 210.319 143.072 209.913 143.072C209.319 143.072 208.843 142.928 208.483 142.642C208.129 142.355 207.953 141.978 207.953 141.512C207.953 141.045 208.123 140.672 208.463 140.392C208.803 140.105 209.343 139.962 210.083 139.962H211.603V139.772C211.603 139.358 211.483 139.042 211.243 138.822C211.003 138.602 210.649 138.492 210.183 138.492C209.869 138.492 209.563 138.545 209.263 138.652C208.963 138.752 208.709 138.888 208.503 139.062L208.103 138.342C208.376 138.122 208.703 137.955 209.083 137.842C209.463 137.722 209.866 137.662 210.293 137.662ZM210.073 142.332C210.439 142.332 210.756 142.252 211.023 142.092C211.289 141.925 211.483 141.692 211.603 141.392V140.652H210.123C209.309 140.652 208.903 140.925 208.903 141.472C208.903 141.738 209.006 141.948 209.213 142.102C209.419 142.255 209.706 142.332 210.073 142.332ZM214.439 135.592H215.399V143.012H214.439V135.592Z" fill="#318FFF"/>
<path d="M237.248 149.519L231.515 146.187L225.788 142.855L225.77 149.489L225.758 156.122L229.671 153.871L233.048 159.752L236.705 157.644L233.334 151.769L237.248 149.519Z" fill="#263238"/>
<path d="M70.2056 12.3468C71.9156 12.3468 73.3019 10.9594 73.3019 9.24809C73.3019 7.53674 71.9156 6.14941 70.2056 6.14941C68.4956 6.14941 67.1094 7.53674 67.1094 9.24809C67.1094 10.9594 68.4956 12.3468 70.2056 12.3468Z" fill="white"/>
<path d="M83.0206 9.22454C83.0218 9.83765 82.8412 10.4373 82.5017 10.9477C82.1622 11.4581 81.6791 11.8561 81.1134 12.0916C80.5477 12.327 79.925 12.3893 79.324 12.2704C78.723 12.1515 78.1707 11.8568 77.7371 11.4237C77.3035 10.9906 77.008 10.4385 76.8881 9.83723C76.7681 9.23598 76.8291 8.61264 77.0632 8.04608C77.2974 7.47953 77.6943 6.99523 78.2036 6.65448C78.7129 6.31372 79.3117 6.13184 79.9244 6.13184C80.7445 6.13183 81.5312 6.45748 82.1116 7.03731C82.6921 7.61713 83.019 8.40376 83.0206 9.22454Z" fill="white"/>
<path d="M89.6421 12.3468C91.3522 12.3468 92.7384 10.9594 92.7384 9.24809C92.7384 7.53674 91.3522 6.14941 89.6421 6.14941C87.9321 6.14941 86.5459 7.53674 86.5459 9.24809C86.5459 10.9594 87.9321 12.3468 89.6421 12.3468Z" fill="white"/>
<path d="M341.781 166.248C341.781 165.275 341.739 102.035 341.661 0.155229L341.781 0.274641L59.1626 0.310463L59.3177 0.155229C59.3177 58.9644 59.3177 115.123 59.3177 166.248L59.1745 166.105L341.81 166.248L59.1745 166.391H59.0254V166.248C59.0254 115.123 59.0254 58.9644 59.0254 0.155229V0H59.1984L341.816 0.0358214H341.936V0.155229C341.828 102.047 341.781 165.287 341.781 166.248Z" fill="#263238"/>
<path d="M362.178 178.846H318.544V184.846H362.178V178.846Z" fill="#263238"/>
<path d="M362.249 184.917H318.466V178.773H362.249V184.917ZM318.615 184.744H362.1V178.893H318.615V184.744Z" fill="#263238"/>
<path d="M322.589 182.846L328.871 213.856H352.108L358.181 184.846L322.589 182.846Z" fill="#263238"/>
<path d="M322.589 210.925L325.936 215.534H354.184L358.181 210.925H322.589Z" fill="#455A64"/>
<path d="M338.72 183.753C338.631 183.753 338.523 169.388 338.475 151.667C338.428 133.947 338.475 119.582 338.541 119.582C338.607 119.582 338.732 133.941 338.786 151.667C338.839 169.394 338.804 183.753 338.72 183.753Z" fill="#263238"/>
<path d="M348.438 147.799C348.414 147.915 348.374 148.028 348.319 148.133C348.218 148.378 348.092 148.688 347.931 149.065L347.645 149.733L347.358 150.551L347.018 151.489C346.905 151.817 346.81 152.181 346.696 152.551C346.185 154.315 345.786 156.11 345.503 157.925C345.165 160.141 344.938 162.373 344.823 164.612C344.665 168.685 344.78 172.764 345.169 176.821C345.312 178.38 345.449 179.639 345.557 180.511C345.601 180.909 345.636 181.243 345.664 181.514C345.68 181.631 345.68 181.749 345.664 181.866C345.624 181.757 345.598 181.642 345.587 181.526C345.545 181.263 345.485 180.929 345.42 180.529C345.276 179.663 345.103 178.403 344.936 176.845C344.479 172.778 344.331 168.683 344.495 164.594C344.606 162.344 344.839 160.102 345.193 157.877C345.501 156.058 345.934 154.263 346.487 152.504C346.607 152.133 346.708 151.769 346.833 151.441C346.959 151.112 347.084 150.802 347.197 150.509C347.311 150.217 347.412 149.948 347.508 149.697C347.603 149.447 347.728 149.232 347.824 149.035L348.265 148.127C348.311 148.012 348.369 147.902 348.438 147.799Z" fill="#263238"/>
<path d="M347.323 136.181C347.293 136.344 347.247 136.504 347.186 136.658L346.732 137.99C346.631 138.282 346.517 138.587 346.398 138.957L346.046 140.115C345.79 140.945 345.497 141.906 345.229 142.951C345.092 143.483 344.948 144.038 344.793 144.617C344.638 145.196 344.525 145.811 344.388 146.408C344.077 147.656 343.863 149.017 343.576 150.432C343.099 153.286 342.675 156.444 342.383 159.77C342.091 163.096 341.989 166.284 341.942 169.174C341.894 172.063 341.971 174.678 342.091 176.863C342.133 177.962 342.198 178.947 342.258 179.849C342.317 180.75 342.359 181.461 342.419 182.076C342.479 182.691 342.496 183.132 342.52 183.479C342.536 183.644 342.536 183.809 342.52 183.974C342.481 183.814 342.455 183.65 342.443 183.485C342.401 183.138 342.347 182.673 342.276 182.082C342.204 181.491 342.133 180.726 342.067 179.861C342.001 178.995 341.906 178.004 341.852 176.905C341.709 174.72 341.649 172.129 341.637 169.203C341.625 166.278 341.781 163.113 342.055 159.776C342.329 156.438 342.783 153.274 343.248 150.414C343.54 148.993 343.767 147.632 344.083 146.378L344.513 144.587C344.674 143.99 344.823 143.453 344.972 142.927C345.247 141.865 345.569 140.921 345.831 140.091C345.969 139.679 346.094 139.291 346.207 138.939C346.32 138.587 346.458 138.27 346.571 137.984C346.78 137.428 346.953 136.993 347.078 136.664C347.145 136.496 347.227 136.334 347.323 136.181Z" fill="#263238"/>
<path d="M335.958 186.296C335.952 186.241 335.952 186.185 335.958 186.129C335.958 185.998 335.958 185.836 335.916 185.633C335.916 185.174 335.845 184.535 335.791 183.729C335.684 182.051 335.534 179.669 335.35 176.731C334.974 170.827 334.425 162.665 333.429 153.685C332.921 149.202 332.337 144.939 331.722 141.076C331.4 139.147 331.126 137.308 330.768 135.601C330.41 133.893 330.129 132.305 329.825 130.854C329.521 129.403 329.229 128.108 328.96 126.956C328.692 125.803 328.465 124.83 328.262 124.024C328.059 123.218 327.916 122.621 327.809 122.173C327.761 121.976 327.725 121.815 327.695 121.69C327.686 121.634 327.686 121.578 327.695 121.522C327.72 121.574 327.738 121.628 327.749 121.684C327.791 121.809 327.833 121.964 327.892 122.161C328.018 122.603 328.185 123.218 328.399 123.994C328.614 124.77 328.889 125.785 329.157 126.92C329.425 128.054 329.754 129.362 330.064 130.813C330.374 132.263 330.726 133.84 331.048 135.553C331.37 137.267 331.698 139.1 332.033 141.028C332.629 144.897 333.226 149.16 333.763 153.656C334.759 162.611 335.272 170.809 335.594 176.719C335.755 179.675 335.869 182.093 335.934 183.723C335.934 184.535 335.988 185.168 336.006 185.627C336.006 185.83 336.006 185.998 336.006 186.123C335.997 186.182 335.981 186.24 335.958 186.296Z" fill="#263238"/>
<path d="M338.362 126.49C338.171 124.455 336.119 122.908 334.079 122.908C332.038 122.908 330.129 124.102 328.883 125.732C327.704 127.408 326.854 129.292 326.377 131.285C325.005 136.061 324.253 141.118 324.838 146.074C325.422 151.029 327.439 155.901 330.989 159.406C331.585 159.973 332.313 160.54 333.106 160.373C333.532 160.243 333.917 160.005 334.222 159.68C337.701 156.496 340.46 152.603 342.312 148.264C344.164 143.924 345.067 139.238 344.96 134.521C344.907 132.634 344.656 130.676 343.618 129.106C342.58 127.535 340.146 125.87 338.368 126.502" fill="#318FFF"/>
<path d="M323.114 110.185C322.155 111.92 321.197 113.657 320.238 115.397C320.166 115.522 320.077 115.659 319.94 115.665C319.803 115.671 319.677 115.54 319.594 115.409L311.987 103.73L313.741 102.733L323.114 110.185Z" fill="#318FFF"/>
<g opacity="0.2">
<path opacity="0.2" d="M323.114 110.185C322.155 111.92 321.197 113.657 320.238 115.397C320.166 115.522 320.077 115.659 319.94 115.665C319.803 115.671 319.677 115.54 319.594 115.409L311.987 103.73L313.741 102.733L323.114 110.185Z" fill="black"/>
</g>
<path d="M338.541 119.582L312.596 104.262C312.313 104.135 312.088 103.908 311.964 103.623C311.948 103.426 311.982 103.227 312.062 103.046C312.142 102.864 312.266 102.706 312.423 102.584C314.207 100.733 316.369 99.2874 318.762 98.3468C321.154 97.4062 323.721 96.9923 326.288 97.1334C328.852 97.3167 331.332 98.1226 333.515 99.4812C335.698 100.84 337.518 102.71 338.816 104.931C341.321 109.409 341.405 115.331 338.535 119.582" fill="#318FFF"/>
<path d="M316.336 99.3664C316.446 99.3342 316.561 99.3181 316.676 99.3187C316.897 99.3187 317.231 99.2709 317.654 99.2769C318.854 99.2574 320.053 99.3534 321.234 99.5635C323.004 99.859 324.729 100.383 326.364 101.122C329.194 102.393 331.708 104.275 333.725 106.634C335.741 108.993 337.211 111.77 338.028 114.764C338.352 115.936 338.568 117.135 338.672 118.347C338.701 118.598 338.713 118.852 338.708 119.105C338.693 119.317 338.625 119.522 338.511 119.702C338.588 119.268 338.602 118.826 338.553 118.388C338.4 117.201 338.155 116.027 337.819 114.878C336.736 111.057 334.604 107.617 331.664 104.949C328.725 102.281 325.097 100.492 321.192 99.7844C320.011 99.5614 318.814 99.4336 317.613 99.4023C316.807 99.3664 316.336 99.3963 316.336 99.3664Z" fill="#263238"/>
<path d="M335.027 109.009C334.612 109.255 334.172 109.455 333.714 109.606C332.891 109.928 331.734 110.346 330.439 110.758C329.145 111.17 327.963 111.493 327.104 111.707C326.645 111.851 326.17 111.941 325.69 111.976C326.123 111.767 326.577 111.605 327.045 111.493L330.35 110.46L333.643 109.397C334.089 109.218 334.553 109.088 335.027 109.009Z" fill="#263238"/>
<path d="M330.94 98.0234C331.304 99.937 331.354 101.897 331.089 103.827C330.962 102.867 330.912 101.899 330.94 100.931C330.865 99.9633 330.865 98.9912 330.94 98.0234Z" fill="#263238"/>
<path d="M312.369 103.969C312.977 103.694 313.608 103.472 314.254 103.307C315.447 102.943 317.076 102.483 318.902 102.041C320.727 101.599 322.404 101.259 323.621 101.05C324.272 100.902 324.934 100.813 325.601 100.781C324.967 100.987 324.319 101.149 323.662 101.265C322.469 101.534 320.805 101.904 318.979 102.346C317.154 102.787 315.507 103.211 314.314 103.54C313.677 103.729 313.027 103.872 312.369 103.969Z" fill="#263238"/>
<path d="M327.594 122.054C325.363 120.358 323.006 120.024 320.208 120.137C317.405 120.324 314.662 121.032 312.119 122.227C307.746 124.143 303.635 126.967 301.022 130.968C298.409 134.968 297.496 140.264 299.453 144.622C299.606 145.08 299.923 145.464 300.342 145.703C300.827 145.841 301.346 145.801 301.804 145.589C306.779 143.965 311.79 142.323 316.366 139.78C320.942 137.237 325.106 133.702 327.558 129.075C328.197 127.976 328.604 126.756 328.751 125.493C328.819 124.866 328.752 124.232 328.555 123.634C328.357 123.035 328.033 122.486 327.606 122.024" fill="#318FFF"/>
<path d="M327.642 121.547C327.528 121.606 327.408 121.654 327.284 121.69L326.24 122.048L325.482 122.305C325.214 122.401 324.921 122.526 324.605 122.645C323.973 122.902 323.245 123.153 322.475 123.529L321.282 124.084C320.859 124.281 320.435 124.52 319.988 124.747C319.087 125.195 318.198 125.762 317.202 126.335C313.032 128.921 309.324 132.186 306.231 135.995C305.533 136.891 304.858 137.721 304.304 138.563C304.023 138.975 303.707 139.363 303.48 139.757L302.776 140.891C302.305 141.608 301.959 142.306 301.625 142.897L301.172 143.727L300.831 144.444L300.342 145.435C300.287 145.551 300.223 145.662 300.151 145.769C300.182 145.645 300.226 145.525 300.283 145.411L300.718 144.396L301.04 143.662C301.166 143.399 301.321 143.118 301.476 142.814C301.792 142.217 302.126 141.506 302.585 140.784L303.277 139.625C303.522 139.225 303.808 138.831 304.089 138.431C304.638 137.584 305.312 136.736 306.004 135.834C309.087 131.976 312.812 128.679 317.017 126.09C318.001 125.493 318.926 124.956 319.839 124.52C320.286 124.293 320.715 124.06 321.145 123.869L322.38 123.326C323.156 122.968 323.895 122.729 324.534 122.484C324.856 122.371 325.13 122.251 325.428 122.162L326.198 121.935L327.26 121.63C327.383 121.587 327.512 121.559 327.642 121.547Z" fill="#263238"/>
<path d="M310.872 131.01C307.062 132.276 303.189 133.344 299.269 134.21C301.155 133.525 303.077 132.941 305.026 132.461C306.948 131.876 308.899 131.392 310.872 131.01Z" fill="#263238"/>
<path d="M309.982 142.616C309.889 142.076 309.849 141.528 309.863 140.98C309.863 139.966 309.863 138.562 309.863 137.016C309.863 135.47 309.994 134.073 310.084 133.058C310.099 132.509 310.169 131.963 310.293 131.428C310.348 131.974 310.348 132.524 310.293 133.07C310.293 134.18 310.215 135.529 310.167 137.022C310.12 138.515 310.096 139.87 310.066 140.98C310.093 141.527 310.065 142.075 309.982 142.616Z" fill="#263238"/>
<path d="M320.351 137.201C320.01 135.152 319.783 133.085 319.671 131.01C319.444 128.954 319.333 126.887 319.337 124.818C319.673 126.868 319.894 128.935 319.999 131.01C320.232 133.065 320.349 135.132 320.351 137.201Z" fill="#263238"/>
<path d="M308.008 124.443C308.573 124.394 309.141 124.382 309.708 124.407C310.764 124.407 312.214 124.437 313.813 124.473C315.411 124.509 316.861 124.55 317.911 124.598C318.48 124.599 319.048 124.637 319.611 124.712C319.044 124.753 318.474 124.764 317.905 124.747C316.855 124.747 315.405 124.747 313.801 124.682C312.196 124.616 310.752 124.598 309.702 124.556C309.135 124.556 308.569 124.518 308.008 124.443Z" fill="#263238"/>
<path d="M332.098 160.074C332.079 159.959 332.067 159.844 332.063 159.728C332.063 159.465 332.063 159.13 332.021 158.73C331.979 157.859 331.973 156.605 332.021 155.053C332.069 153.5 332.158 151.649 332.343 149.608C332.528 147.566 332.838 145.321 333.256 142.986C333.673 140.652 334.198 138.449 334.729 136.461C335.26 134.472 335.827 132.705 336.352 131.242C336.877 129.78 337.319 128.597 337.659 127.797C337.82 127.421 337.951 127.117 338.052 126.872C338.091 126.761 338.145 126.657 338.213 126.562C338.191 126.676 338.157 126.788 338.112 126.896C338.022 127.141 337.909 127.451 337.772 127.839C337.468 128.651 337.044 129.833 336.579 131.308C336.113 132.783 335.553 134.55 335.028 136.532C334.503 138.514 334.008 140.712 333.578 143.04C333.148 145.369 332.862 147.596 332.647 149.608C332.433 151.62 332.313 153.488 332.26 155.035C332.206 156.581 332.176 157.835 332.176 158.701C332.176 159.107 332.176 159.441 332.176 159.704C332.17 159.83 332.144 159.955 332.098 160.074Z" fill="#263238"/>
<path d="M333.47 143.076C333.167 143.491 332.819 143.871 332.432 144.211C331.764 144.879 330.81 145.781 329.724 146.736C328.638 147.691 327.618 148.527 326.866 149.124C326.48 149.462 326.058 149.756 325.607 150.002C325.946 149.617 326.321 149.267 326.729 148.957L329.545 146.533L332.307 144.079C332.662 143.709 333.052 143.373 333.47 143.076Z" fill="#263238"/>
<path d="M341.679 149.697C341.274 149.217 340.907 148.706 340.581 148.169L338.016 144.425L335.397 140.718C335.008 140.221 334.657 139.696 334.347 139.147C334.799 139.589 335.211 140.07 335.576 140.586C336.292 141.5 337.258 142.789 338.272 144.246C339.286 145.703 340.157 147.052 340.76 148.049C341.116 148.569 341.424 149.121 341.679 149.697Z" fill="#263238"/>
<path d="M337.378 128.878C337.426 128.95 334.699 130.789 331.287 132.98C327.875 135.171 325.077 136.896 325.029 136.825C324.981 136.753 327.708 134.914 331.12 132.717C334.532 130.52 337.33 128.806 337.378 128.878Z" fill="#263238"/>
<path d="M345.055 137.183C343.609 135.989 342.231 134.716 340.927 133.368C339.551 132.096 338.247 130.748 337.02 129.332C338.463 130.527 339.839 131.8 341.142 133.147C342.519 134.421 343.825 135.768 345.055 137.183Z" fill="#263238"/>
<path d="M347.006 137.016L349.345 136.825C351.008 136.688 352.621 136.193 354.076 135.375C354.783 134.957 355.519 134.588 356.277 134.27C359.176 133.106 362.404 133.315 365.518 133.154C370.62 132.898 375.619 131.619 380.218 129.392C380.49 129.267 380.716 129.058 380.862 128.795C381.339 127.917 380.45 127.135 379.669 126.664C375.719 124.228 371.704 121.768 367.23 120.556C362.756 119.344 357.685 119.553 353.861 122.186C349.38 125.273 347.752 131.607 346.994 136.999" fill="#318FFF"/>
<path d="M380.917 128.526C380.778 128.476 380.645 128.414 380.517 128.341L379.407 127.744C378.447 127.236 377.057 126.49 375.309 125.648C373.269 124.648 371.145 123.829 368.961 123.2C366.292 122.437 363.497 122.212 360.74 122.538C357.977 122.844 355.367 123.964 353.241 125.756C351.58 127.303 350.251 129.172 349.334 131.249C348.516 133.004 348.009 134.496 347.639 135.517L347.222 136.712C347.183 136.853 347.127 136.99 347.055 137.118C347.082 136.974 347.118 136.833 347.162 136.694L347.52 135.5C347.975 134.027 348.515 132.581 349.137 131.171C350.039 129.049 351.372 127.138 353.05 125.559C355.212 123.714 357.875 122.56 360.698 122.245C363.501 121.913 366.342 122.151 369.051 122.944C371.246 123.588 373.376 124.433 375.416 125.469C377.158 126.341 378.53 127.117 379.479 127.654L380.559 128.287C380.685 128.356 380.804 128.436 380.917 128.526Z" fill="#263238"/>
<path d="M375.29 131.547C375.243 131.619 372.182 129.637 368.448 127.117C364.713 124.597 361.76 122.502 361.76 122.436C361.76 122.37 364.868 124.347 368.603 126.86C372.337 129.374 375.338 131.475 375.29 131.547Z" fill="#263238"/>
<path d="M372.021 122.269C371.305 122.521 370.554 122.658 369.796 122.675C369.038 122.775 368.271 122.765 367.517 122.645C368.259 122.51 369.011 122.432 369.766 122.412C370.513 122.307 371.267 122.259 372.021 122.269Z" fill="#263238"/>
<path d="M358.616 120.525C358.366 121.098 358.028 121.628 357.614 122.096C357.26 122.637 356.83 123.123 356.337 123.54C356.589 122.967 356.929 122.438 357.345 121.97C357.696 121.429 358.124 120.942 358.616 120.525Z" fill="#263238"/>
<path d="M361.361 133.35C360.842 133.139 360.348 132.873 359.887 132.556C359.004 132.019 357.805 131.231 356.528 130.299C355.252 129.368 354.142 128.508 353.319 127.851C352.861 127.527 352.434 127.161 352.042 126.759C352.539 127.021 353.01 127.328 353.45 127.678L356.713 130.066C357.984 130.992 359.153 131.804 360.006 132.389C360.484 132.671 360.937 132.993 361.361 133.35Z" fill="#263238"/>
<path d="M350.455 146.975C348.218 146.378 345.557 148.557 345.086 150.826C344.615 153.095 345.474 155.405 346.47 157.495C348.594 162.173 351.752 166.307 355.705 169.585C359.702 172.773 364.713 174.815 369.826 174.791C368.884 170.403 370.077 165.836 369.552 161.358C369.087 157.429 367.305 153.774 364.496 150.99C361.688 148.206 358.018 146.458 354.088 146.032C352.663 145.882 351.01 145.656 350.443 146.975" fill="#318FFF"/>
<path d="M369.838 174.792C369.727 174.753 369.621 174.703 369.521 174.642C369.226 174.482 368.946 174.294 368.686 174.081C367.747 173.268 366.994 172.262 366.479 171.132C366.121 170.439 365.727 169.687 365.333 168.851L364.14 166.194C363.709 165.216 363.214 164.267 362.661 163.352C362.056 162.381 361.378 161.456 360.632 160.588C359.105 158.797 357.465 157.238 356.039 155.752C354.754 154.461 353.583 153.063 352.537 151.572C351.839 150.553 351.264 149.455 350.825 148.301C350.681 147.889 350.58 147.566 350.526 147.339C350.49 147.229 350.468 147.115 350.461 146.999C350.491 146.999 350.616 147.453 350.938 148.253C351.416 149.38 352.016 150.451 352.728 151.447C353.789 152.916 354.968 154.296 356.254 155.573C357.679 157.041 359.332 158.594 360.877 160.409C361.635 161.29 362.321 162.23 362.929 163.221C363.483 164.148 363.977 165.109 364.409 166.099L365.602 168.767C365.972 169.597 366.36 170.356 366.706 171.054C367.188 172.183 367.899 173.199 368.794 174.039C369.414 174.553 369.856 174.762 369.838 174.792Z" fill="#263238"/>
<path d="M358.288 171.143C358.298 170.636 358.366 170.131 358.491 169.639C358.67 168.719 358.956 167.454 359.344 166.056C359.732 164.659 360.143 163.453 360.477 162.576C360.621 162.09 360.821 161.623 361.074 161.185C360.986 161.684 360.85 162.174 360.668 162.647C360.394 163.543 360.018 164.773 359.63 166.146C359.242 167.519 358.926 168.761 358.694 169.669C358.603 170.172 358.468 170.665 358.288 171.143Z" fill="#263238"/>
<path d="M369.414 160.367C368.88 160.294 368.353 160.174 367.839 160.009C366.879 159.758 365.548 159.412 364.069 159.077C362.589 158.743 361.241 158.48 360.268 158.301C359.732 158.234 359.202 158.116 358.688 157.949C359.229 157.942 359.771 157.986 360.304 158.08C361.289 158.212 362.655 158.439 364.14 158.773C365.626 159.107 366.95 159.489 367.905 159.794C368.426 159.934 368.931 160.126 369.414 160.367Z" fill="#263238"/>
<path d="M350.001 163.501C350.022 162.913 350.102 162.329 350.24 161.757C350.436 160.689 350.753 159.226 351.17 157.62C351.588 156.014 352.029 154.587 352.363 153.56C352.521 152.993 352.735 152.443 353.002 151.918C352.904 152.498 352.76 153.069 352.572 153.626C352.274 154.664 351.868 156.103 351.451 157.697C351.033 159.292 350.687 160.748 350.437 161.805C350.335 162.381 350.189 162.948 350.001 163.501Z" fill="#263238"/>
<path d="M364.289 150.981C364.289 151.065 361.491 150.838 358.061 150.474C354.63 150.11 351.856 149.745 351.868 149.662C351.88 149.578 354.666 149.805 358.097 150.163C360.173 150.329 362.24 150.602 364.289 150.981Z" fill="#263238"/>
<path d="M362.249 184.821C362.249 184.905 352.447 184.977 340.36 184.977C328.274 184.977 318.466 184.905 318.466 184.821C318.466 184.738 328.268 184.66 340.36 184.66C352.453 184.66 362.249 184.744 362.249 184.821Z" fill="#455A64"/>
<path d="M355.431 197.443C355.431 197.527 348.826 197.599 340.683 197.599C332.54 197.599 325.93 197.527 325.93 197.443C325.93 197.36 332.528 197.282 340.683 197.282C348.838 197.282 355.431 197.354 355.431 197.443Z" fill="#455A64"/>
<path d="M355.198 199.246C355.198 199.33 348.707 199.401 340.707 199.401C332.707 199.401 326.21 199.33 326.21 199.246C326.21 199.162 332.701 199.091 340.707 199.091C348.713 199.091 355.198 199.162 355.198 199.246Z" fill="#455A64"/>
<path d="M355.687 195.957C355.687 196.041 348.856 196.112 340.432 196.112C332.009 196.112 325.178 196.041 325.178 195.957C325.178 195.873 332.003 195.802 340.432 195.802C348.862 195.802 355.687 195.867 355.687 195.957Z" fill="#455A64"/>
<path d="M379.008 215.534C379.008 215.618 297.563 215.689 197.11 215.689C96.6582 215.689 15.2012 215.618 15.2012 215.534C15.2012 215.451 96.6284 215.379 197.11 215.379C297.592 215.379 379.008 215.451 379.008 215.534Z" fill="#263238"/>
<path d="M96.9628 116.74C96.9628 116.74 104.903 118.705 106.234 135.087C107.015 144.67 107.94 154.438 107.94 154.438L125.402 158.563L128.474 168.116L105.601 172.618C99.2715 172.618 92.3154 167.149 92.4765 160.814L92.208 138.771L96.9628 116.74Z" fill="#318FFF"/>
<path d="M55.0227 116.878L51.479 141.488C50.9668 145.048 51.2211 148.675 52.2247 152.128L56.5977 167.126C56.5977 167.126 50.6617 174.738 55.5596 177.682C56.5261 178.279 82.7756 179.473 82.7756 179.473L95.5007 178.595L97.2009 142.145L96.9623 116.759C96.9623 116.759 88.1269 113.541 84.6668 113.177C78.2404 112.757 71.7919 112.811 65.3734 113.338L55.0227 116.878Z" fill="#318FFF"/>
<path d="M95.6859 141.901C95.3785 141.832 95.061 141.819 94.7492 141.865C94.1309 141.867 93.5258 141.685 93.0114 141.342C92.4971 140.998 92.0968 140.509 91.8618 139.936C91.7053 140.552 91.4251 141.129 91.0385 141.632C90.8421 141.881 90.5765 142.067 90.2751 142.166C89.9737 142.264 89.6499 142.272 89.3442 142.187C88.7059 141.942 88.4076 141.232 87.9423 140.742C87.64 140.473 87.278 140.279 86.8863 140.177C86.4946 140.076 86.0842 140.068 85.6892 140.156C85.2941 140.245 84.9256 140.425 84.6141 140.684C84.3026 140.943 84.0569 141.272 83.8974 141.644C83.6588 142.354 83.5097 143.387 82.758 143.375C81.8989 143.375 81.9108 141.978 81.2427 141.441C80.5745 140.904 79.5543 141.441 78.9697 142.116C78.385 142.79 77.7765 143.59 76.8936 143.572C76.0107 143.554 75.4678 142.778 75.2291 141.996C74.9905 141.214 74.9905 140.372 74.7041 139.608C74.4178 138.844 73.7019 138.127 72.9144 138.253C71.9122 138.408 71.5423 139.614 71.2798 140.587C71.0173 141.56 70.2894 142.719 69.3111 142.468C67.9091 142.11 68.4759 139.626 67.2409 138.886C66.3699 138.36 65.2304 139.112 64.7651 140.02C64.2998 140.927 64.1685 142.002 63.6256 142.856C63.0828 143.71 61.6808 144.145 61.0842 143.369C60.8635 143.101 60.774 142.73 60.5354 142.48C60.2822 142.282 59.9732 142.168 59.652 142.155C59.3309 142.142 59.0138 142.231 58.7456 142.408C58.149 142.719 57.6956 143.208 57.0991 143.465C56.5025 143.722 55.1602 143.465 54.8619 142.868L53.0722 146.038C52.7798 146.701 51.9923 147.525 52.4756 147.799C52.5908 147.859 52.7175 147.892 52.8469 147.898C52.9763 147.904 53.1055 147.881 53.2255 147.833C53.3456 147.784 53.4537 147.71 53.5425 147.616C53.6314 147.521 53.6988 147.409 53.7403 147.286C54.0868 147.487 54.4868 147.577 54.886 147.543C55.2852 147.509 55.6642 147.352 55.9715 147.095C56.4011 146.689 56.8067 146.014 57.3735 146.169C57.6658 146.247 57.8508 146.528 58.0536 146.767C58.4278 147.149 58.9262 147.385 59.4589 147.432C59.9916 147.479 60.5236 147.334 60.9589 147.023C61.3858 146.628 61.7845 146.203 62.1521 145.752C62.3377 145.53 62.5833 145.366 62.8594 145.28C63.1356 145.194 63.4306 145.19 63.7092 145.268C64.3415 145.537 64.4728 146.378 64.4131 147.059C64.3535 147.74 64.2103 148.504 64.5861 149.077C65.0813 149.829 66.2267 149.841 67.0142 149.399C67.743 148.89 68.4028 148.288 68.977 147.608C69.6213 146.981 70.4863 146.414 71.3633 146.617C72.3894 146.826 73.153 147.973 74.209 147.847C74.9308 147.758 75.4797 147.077 76.2075 147.035C76.9354 146.993 77.6214 147.746 78.391 147.984C80.1271 148.528 81.702 146.355 83.5156 146.522C85.1741 146.677 86.4985 148.755 88.0735 148.176C89.4516 147.668 89.4635 145.572 90.6746 144.743C91.4024 144.235 92.3748 144.325 93.2578 144.432C94.1407 144.54 95.1132 144.623 95.841 144.116C96.5688 143.608 96.5509 142.199 95.6859 141.901Z" fill="white"/>
<path d="M97.0455 140.456C96.9509 140.253 96.9275 140.025 96.9791 139.807C97.0307 139.589 97.1544 139.396 97.33 139.257C97.5055 139.119 97.7227 139.044 97.9462 139.045C98.1696 139.046 98.3863 139.122 98.5609 139.262C98.7374 139.438 98.8753 139.649 98.9657 139.881C99.0561 140.113 99.097 140.362 99.0858 140.611C99.0579 141.108 99.1394 141.606 99.3245 142.068C99.375 142.18 99.4483 142.28 99.5395 142.363C99.6308 142.445 99.7381 142.507 99.8547 142.546C99.9713 142.585 100.095 142.599 100.217 142.587C100.339 142.576 100.458 142.539 100.565 142.48C100.876 142.235 100.888 141.787 100.929 141.393C100.971 140.999 101.168 140.539 101.562 140.522C101.955 140.504 102.2 140.945 102.272 141.334C102.343 141.722 102.367 142.169 102.677 142.414C103.113 142.283 103.208 141.728 103.304 141.28C103.399 140.832 103.823 140.325 104.216 140.545C104.413 140.653 104.485 140.898 104.586 141.101C104.688 141.304 104.902 141.501 105.111 141.417C105.463 141.286 105.278 140.611 105.63 140.474C105.863 140.39 106.078 140.635 106.227 140.85C106.498 141.22 106.666 141.654 106.716 142.11C106.733 142.337 106.666 142.562 106.527 142.743C106.389 142.924 106.188 143.047 105.964 143.089C105.697 143.058 105.434 142.994 105.183 142.898C104.899 142.867 104.611 142.92 104.356 143.049C104.101 143.178 103.889 143.379 103.745 143.626C103.465 144.121 103.287 144.667 103.22 145.232C103.042 145.073 102.835 144.952 102.609 144.874C102.384 144.797 102.145 144.765 101.907 144.781C101.669 144.797 101.437 144.861 101.224 144.968C101.011 145.075 100.822 145.224 100.667 145.405C100.166 146.062 100.034 147.155 99.223 147.322C98.9514 147.343 98.6808 147.27 98.4561 147.116C98.2315 146.962 98.0663 146.735 97.9881 146.474C97.8598 145.942 97.8598 145.388 97.9881 144.856L96.8785 145.77L96.6279 144.313" fill="white"/>
<g opacity="0.3">
<path opacity="0.3" d="M53.651 174.678L67.6766 170.344L76.5955 169.526C76.5955 169.526 79.1429 173.974 81.4099 173.765C82.7506 173.64 84.0497 173.233 85.2221 172.571C85.2221 172.571 86.0811 177.252 88.3481 176.905C90.6151 176.559 89.4518 162.576 89.4518 162.576L65.7914 157.8L51.7539 161.46L53.651 174.678Z" fill="black"/>
</g>
<path d="M55.0227 116.878C55.0227 116.878 47.7205 119.439 44.9763 123.553C41.355 129.004 31.1237 144.67 26.3272 156.934C24.8238 160.773 26.0766 166.672 28.2959 170.141C29.7426 172.4 31.8788 174.132 34.3872 175.079C36.8957 176.027 39.6425 176.139 42.2201 175.401L67.8074 168.176L70.1937 153.781L47.9055 154.713L54.1517 144.462L55.0227 116.878Z" fill="#318FFF"/>
<path d="M35.0848 139.626C35.2253 139.464 35.4005 139.335 35.5975 139.251C35.7944 139.166 36.0079 139.127 36.222 139.137C36.4361 139.147 36.6452 139.205 36.8336 139.307C37.0221 139.409 37.185 139.553 37.3101 139.727C37.7038 140.324 37.7038 141.387 38.4257 141.518C38.9507 141.62 39.3683 141.112 39.7203 140.7C40.0723 140.288 40.7046 139.918 41.0984 140.288C41.4921 140.658 41.2714 141.363 41.695 141.638C42.1185 141.912 42.56 141.5 42.8225 141.124C43.085 140.748 43.4191 140.288 43.8486 140.33C44.7793 140.414 44.5824 142.336 45.519 142.354C45.9963 142.354 46.2827 141.811 46.7122 141.632C47.3088 141.393 47.9054 141.835 48.3647 142.229C48.6858 142.477 48.9554 142.785 49.1582 143.136C49.2569 143.315 49.3011 143.519 49.2852 143.723C49.2693 143.927 49.194 144.121 49.0687 144.283C48.657 144.73 47.9173 144.545 47.3863 144.247C46.8554 143.948 46.2827 143.566 45.692 143.715C44.6958 143.966 44.3318 145.608 43.3057 145.506C42.3751 145.399 42.1126 143.883 41.1938 143.781C40.2751 143.68 39.5174 145.232 38.6166 144.862C38.199 144.695 38.02 144.169 37.6382 143.936C37.4413 143.847 37.2257 143.806 37.0098 143.817C36.7938 143.829 36.5837 143.892 36.3973 144.002C36.029 144.229 35.6441 144.429 35.2459 144.599C35.0429 144.684 34.8182 144.703 34.6039 144.652C34.3896 144.602 34.1967 144.485 34.0528 144.318C33.8082 143.96 34.1005 143.333 34.5241 143.429L33.5039 143.262V142.45" fill="white"/>
<path d="M96.879 131.136C96.9334 131.515 96.9593 131.899 96.9565 132.282C96.9565 133.022 97.0042 134.073 97.0102 135.417C97.0102 138.067 96.9804 141.721 96.7954 145.757C96.6105 149.793 96.2824 153.447 96.0378 156.086C95.9065 157.4 95.7872 158.475 95.6918 159.203C95.9244 169.532 95.5367 160.337 95.5128 160.337C95.4976 159.953 95.5115 159.568 95.5546 159.185C95.6142 158.391 95.6918 157.334 95.7872 156.062C95.9841 153.424 96.2347 149.782 96.4196 145.751C96.6045 141.721 96.694 138.067 96.7358 135.423C96.7358 134.145 96.7775 133.088 96.7954 132.288C96.79 131.902 96.818 131.517 96.879 131.136Z" fill="#263238"/>
<path d="M98.2929 117.528C98.3824 117.594 97.3682 118.919 96.6642 120.818C95.9603 122.717 95.8231 124.4 95.7097 124.37C95.6216 123.112 95.8364 121.851 96.3361 120.693C96.7238 119.495 97.3952 118.41 98.2929 117.528Z" fill="#263238"/>
<path d="M57.7315 130.264C57.6778 130.264 57.6241 129.601 57.3795 128.562C57.0526 127.214 56.5279 125.923 55.8225 124.729C55.1099 123.54 54.2276 122.462 53.2035 121.529C52.41 120.818 51.8492 120.454 51.8791 120.406C52.0312 120.454 52.1744 120.526 52.3026 120.621C52.6698 120.842 53.0189 121.091 53.3466 121.368C55.5499 123.19 57.0515 125.723 57.5943 128.532C57.674 128.952 57.7258 129.377 57.7494 129.804C57.7681 129.957 57.7621 130.112 57.7315 130.264Z" fill="#263238"/>
<path d="M47.6129 154.838C46.2165 155.302 44.8548 155.864 43.5382 156.522C42.2745 157.275 41.0645 158.114 39.917 159.035C40.1639 158.672 40.4635 158.348 40.8059 158.074C41.5969 157.369 42.4655 156.756 43.3951 156.247C44.3211 155.735 45.3043 155.334 46.3243 155.053C46.7383 154.908 47.1742 154.835 47.6129 154.838Z" fill="#263238"/>
<path d="M58.2266 135.906C58.1451 136.175 58.0372 136.435 57.9045 136.682C57.6837 137.178 57.3437 137.877 56.9141 138.742C56.0551 140.468 54.8201 142.832 53.3764 145.393C51.9327 147.955 50.5486 150.241 49.5165 151.865C48.9975 152.683 48.568 153.334 48.2637 153.782C48.1212 154.022 47.9553 154.248 47.7686 154.456C47.8768 154.198 48.0086 153.95 48.1623 153.716L49.3555 151.752C50.3398 150.098 51.694 147.805 53.1378 145.244C54.5815 142.683 55.8403 140.342 56.7471 138.641C57.1826 137.835 57.5465 137.16 57.8269 136.629C57.9386 136.377 58.0724 136.135 58.2266 135.906Z" fill="#263238"/>
<path d="M39.917 175.831L40.0542 175.777L40.4658 175.651L42.0468 175.186L47.9291 173.526L67.7654 168.027L67.658 168.153C67.8787 166.779 68.1173 165.335 68.356 163.866C68.9526 160.313 69.5133 156.898 70.0324 153.758L70.1696 153.931C64.6643 153.821 59.1571 154.02 53.6741 154.528L48.9015 154.928L47.6308 155.029H47.3027H47.1893H47.3027L47.6248 154.982L48.8955 154.838C49.9992 154.713 51.61 154.546 53.6682 154.349C59.1571 153.777 64.6756 153.538 70.1934 153.632H70.3605L70.3307 153.8C69.8176 156.94 69.2568 160.367 68.6781 163.908C68.4335 165.376 68.1949 166.821 67.9682 168.194V168.296H67.8727L48.0066 173.669L42.1005 175.246L40.5016 175.651L40.09 175.753C40.0365 175.787 39.9782 175.814 39.917 175.831Z" fill="#263238"/>
<path d="M81.8334 201.301C81.8334 201.301 107.826 208.501 108.87 208.871C110.433 209.421 110.171 215.164 107.737 215.075C106.586 215.033 87.7694 215.773 85.389 215.624C83.0087 215.475 75.8438 212.639 75.8438 212.639L81.8334 201.301Z" fill="#318FFF"/>
<path d="M92.6608 211.23C92.792 211.23 92.965 209.868 93.8062 208.436C94.6474 207.003 95.7272 206.143 95.6437 206.047C95.5601 205.952 94.3073 206.68 93.4304 208.227C92.5534 209.773 92.5534 211.242 92.6608 211.23Z" fill="#263238"/>
<path d="M89.9521 209.999C90.0774 209.999 90.3399 208.805 91.0319 207.432C91.724 206.059 92.5413 205.122 92.4458 205.044C92.3504 204.966 91.3601 205.808 90.6561 207.247C89.9521 208.686 89.8388 209.994 89.9521 209.999Z" fill="#263238"/>
<path d="M87.4049 209.319C87.5362 209.319 87.4407 208.011 88.0015 206.567C88.5623 205.122 89.5109 204.232 89.4214 204.137C89.3319 204.041 88.2282 204.841 87.5958 206.411C86.9635 207.982 87.3333 209.355 87.4049 209.319Z" fill="#263238"/>
<path d="M87.8702 205.957C88.0997 205.34 88.1953 204.68 88.1506 204.023C88.1447 203.306 88.0546 202.593 87.8821 201.897C87.7809 201.492 87.6534 201.093 87.5003 200.703C87.4149 200.46 87.2716 200.24 87.0827 200.064C86.9521 199.965 86.7904 199.915 86.6265 199.924C86.4626 199.933 86.3071 199.999 86.1879 200.112C85.9903 200.309 85.8679 200.569 85.8418 200.847C85.8153 201.074 85.8033 201.304 85.806 201.533C85.8122 201.962 85.8662 202.388 85.9671 202.805C86.1418 203.503 86.4108 204.174 86.7665 204.799C87.0646 205.39 87.4691 205.92 87.9597 206.363C88.0194 206.322 87.5839 205.713 87.0648 204.656C86.7616 204.041 86.5333 203.391 86.3847 202.721C86.2995 202.329 86.2575 201.929 86.2594 201.527C86.2594 201.127 86.2594 200.626 86.4981 200.435C86.5447 200.39 86.6066 200.365 86.6711 200.365C86.7355 200.365 86.7975 200.39 86.8441 200.435C86.9728 200.561 87.069 200.717 87.1245 200.888C87.2795 201.262 87.411 201.645 87.5182 202.035C87.7014 202.7 87.8174 203.382 87.8642 204.071C87.9299 205.211 87.7986 205.945 87.8702 205.957Z" fill="#263238"/>
<path d="M87.8343 205.694C87.3046 205.473 86.7304 205.379 86.1579 205.42C85.5364 205.419 84.9173 205.495 84.3144 205.646C83.9436 205.727 83.5861 205.859 83.2525 206.04C83.0345 206.145 82.8575 206.319 82.7494 206.535C82.6413 206.751 82.6085 206.997 82.656 207.235C82.7134 207.459 82.8309 207.664 82.9959 207.827C83.1609 207.99 83.3672 208.105 83.5926 208.16C83.9741 208.259 84.3744 208.259 84.7559 208.16C85.3711 208.006 85.9467 207.723 86.4442 207.33C86.9118 207.009 87.3162 206.604 87.6374 206.136C87.1552 206.416 86.6927 206.73 86.2533 207.073C85.769 207.403 85.2264 207.638 84.6545 207.766C84.3387 207.841 84.0098 207.841 83.694 207.766C83.5458 207.73 83.4096 207.656 83.2987 207.551C83.1878 207.447 83.1061 207.315 83.0616 207.169C83.0365 207.023 83.0603 206.873 83.1294 206.742C83.1985 206.612 83.3089 206.508 83.4434 206.446C83.7424 206.283 84.0612 206.158 84.392 206.076C84.9623 205.913 85.5482 205.811 86.14 205.772C87.19 205.64 87.8283 205.76 87.8343 205.694Z" fill="#263238"/>
<path d="M96.6521 211.51C96.7833 211.51 96.6521 210.382 97.1651 209.164C97.6782 207.946 98.5194 207.224 98.4418 207.122C98.3642 207.021 97.3083 207.636 96.7654 208.997C96.2225 210.358 96.5506 211.552 96.6521 211.51Z" fill="#263238"/>
<path d="M78.5156 212.711C78.8363 212.899 79.1738 213.057 79.5238 213.182C80.4663 213.548 81.4331 213.847 82.4173 214.078C85.6739 214.793 89.0054 215.11 92.3384 215.021C96.2341 214.979 99.742 214.8 102.289 214.699L105.302 214.538C105.673 214.536 106.043 214.496 106.406 214.418C106.038 214.367 105.667 214.351 105.296 214.37H102.283L92.3384 214.567C89.0339 214.651 85.73 214.38 82.4829 213.761C79.9951 213.266 78.5455 212.627 78.5156 212.711Z" fill="#263238"/>
<path d="M77.7461 213.301C77.7819 213.361 78.4918 212.943 79.6969 212.418C81.2267 211.69 82.9299 211.406 84.6127 211.6C86.5755 211.898 87.9596 213.218 88.8664 214.131C89.3299 214.676 89.8302 215.189 90.3638 215.666C90.0221 215.029 89.5946 214.442 89.0931 213.922C88.5813 213.321 88.0029 212.78 87.3689 212.31C86.5777 211.721 85.6572 211.33 84.6843 211.17C82.9193 210.956 81.1314 211.294 79.5657 212.137C78.9034 212.43 78.2898 212.823 77.7461 213.301Z" fill="#263238"/>
<g opacity="0.3">
<path opacity="0.3" d="M81.8334 201.301C81.8334 201.301 107.826 208.501 108.87 208.871C110.433 209.421 110.171 215.164 107.737 215.075C106.586 215.033 87.7694 215.773 85.389 215.624C83.0087 215.475 75.8438 212.639 75.8438 212.639L81.8334 201.301Z" fill="black"/>
</g>
<path d="M55.5597 177.682L50.2919 188.518C50.2919 188.518 22.1154 179.968 15.0161 180.338C7.9168 180.709 2.1061 183.58 0.698175 189.348C-0.709754 195.115 -0.870831 203.08 7.4097 208.609C15.6902 214.137 56.908 217.182 56.908 217.182H73.1946L99.82 182.058L95.5306 178.577L55.5597 177.682Z" fill="#263238"/>
<path d="M64.4249 201.462C64.2462 201.476 64.0667 201.476 63.888 201.462C63.536 201.432 63.017 201.462 62.3607 201.342C60.4888 201.129 58.6399 200.747 56.8364 200.202C54.1755 199.392 51.5824 198.374 49.0809 197.157C46.2292 195.814 43.1926 194.172 40.0009 192.44C37.0159 190.804 33.945 189.329 30.8016 188.022C28.236 186.96 25.5697 186.16 22.8433 185.634C21.0051 185.283 19.1363 185.119 17.2652 185.145C16.603 185.145 16.0721 185.198 15.744 185.204C15.5654 185.221 15.3856 185.221 15.207 185.204C15.3817 185.164 15.5592 185.138 15.738 185.127C16.084 185.127 16.5971 185.007 17.2652 185.001C19.1485 184.925 21.0346 185.051 22.891 185.377C25.6328 185.878 28.3143 186.667 30.8911 187.73C34.0551 189.02 37.1424 190.492 40.1381 192.136C43.3298 193.849 46.3604 195.509 49.1882 196.865C51.6798 198.092 54.2604 199.13 56.908 199.969C58.6951 200.53 60.5246 200.945 62.3786 201.211C63.0289 201.324 63.5718 201.348 63.8939 201.396C64.0725 201.402 64.2502 201.424 64.4249 201.462Z" fill="#455A64"/>
<path d="M83.6762 214.316C88.9082 212.262 117.681 203.097 127.871 191.312C136.354 181.502 122.86 172.72 122.86 172.72C122.86 172.72 113.398 172.421 110.242 172.72C107.086 173.018 61.9189 203.569 61.9189 203.569C61.9189 203.569 69.8057 218.961 69.6089 219.552L83.6762 214.316Z" fill="#263238"/>
<path d="M97.8454 180.159C97.8454 180.159 97.8096 180.195 97.7261 180.255L97.3443 180.511L95.8707 181.479L90.4001 184.959L72.2999 196.351L62.4622 202.489L62.5279 202.286L67.6823 214.698C68.2789 216.203 68.786 217.409 69.132 218.281L69.5079 219.236C69.5567 219.343 69.5928 219.455 69.6152 219.57C69.5526 219.47 69.4987 219.364 69.4542 219.254C69.3468 219.021 69.2096 218.711 69.0366 218.322L67.4974 214.794C66.1968 211.737 64.3653 207.45 62.2236 202.429L62.1699 202.304L62.2892 202.226L72.1089 196.065L90.2688 184.744L95.7932 181.353L97.3085 180.446L97.7082 180.219L97.8454 180.159Z" fill="#455A64"/>
<path d="M58.1012 193.742C57.6325 193.645 57.1817 193.476 56.7649 193.241C55.7259 192.739 54.7371 192.139 53.8118 191.45C52.882 190.771 52.0172 190.008 51.2286 189.169C50.8762 188.842 50.5782 188.461 50.3457 188.04C50.4292 187.969 51.867 189.599 54.0206 191.163C56.1743 192.727 58.1311 193.641 58.1012 193.742Z" fill="#455A64"/>
<path d="M73.7552 180.971C73.8286 181.565 73.8526 182.164 73.8268 182.762C73.8268 183.872 73.8864 185.407 74.0356 187.09C74.1847 188.774 74.4233 190.297 74.6321 191.389C74.7654 191.978 74.8512 192.577 74.8887 193.18C74.6509 192.624 74.4826 192.04 74.3875 191.443C74.0662 190.023 73.839 188.583 73.7074 187.132C73.5796 185.681 73.5437 184.223 73.6001 182.768C73.5863 182.165 73.6383 181.562 73.7552 180.971Z" fill="#455A64"/>
<path d="M77.126 180.6C77.126 180.6 77.2573 180.565 77.478 180.648C77.7867 180.773 78.0479 180.992 78.2237 181.275C78.365 181.486 78.4575 181.725 78.4947 181.976C78.5318 182.227 78.5126 182.483 78.4385 182.726C78.3283 183.026 78.1295 183.286 77.8685 183.47C77.6074 183.655 77.2964 183.755 76.9769 183.759C76.6583 183.789 76.3383 183.718 76.0621 183.556C75.786 183.394 75.5675 183.15 75.4377 182.857C75.3532 182.616 75.327 182.358 75.3613 182.105C75.3955 181.852 75.4891 181.61 75.6346 181.4C75.8168 181.113 76.0964 180.901 76.4221 180.803C76.6547 180.75 76.786 180.803 76.786 180.803C76.3974 180.921 76.0646 181.175 75.8493 181.52C75.7426 181.698 75.6771 181.897 75.6575 182.104C75.6378 182.311 75.6647 182.519 75.736 182.714C75.8484 182.938 76.0261 183.122 76.2455 183.243C76.465 183.363 76.7159 183.414 76.9649 183.389C77.22 183.393 77.4705 183.32 77.6835 183.179C77.8964 183.039 78.0619 182.837 78.1581 182.601C78.2192 182.403 78.2396 182.196 78.218 181.991C78.1965 181.785 78.1335 181.587 78.0328 181.406C77.8147 181.056 77.4998 180.776 77.126 180.6Z" fill="#455A64"/>
<path d="M63.2017 179.46C63.3177 179.619 63.4008 179.8 63.4463 179.991C63.6118 180.506 63.6924 181.045 63.6849 181.585C63.6762 182.394 63.4974 183.191 63.1599 183.926C62.7601 184.842 62.1078 185.625 61.2795 186.183C60.4512 186.741 59.481 187.052 58.4827 187.078C57.6677 187.119 56.8536 186.983 56.0964 186.678C55.5921 186.486 55.1242 186.209 54.7123 185.86C54.5531 185.742 54.4159 185.596 54.3066 185.43C54.8882 185.843 55.5171 186.183 56.1799 186.445C56.9063 186.694 57.6746 186.798 58.4409 186.75C59.3789 186.708 60.2869 186.407 61.0641 185.88C61.8414 185.353 62.4574 184.621 62.8437 183.765C63.1751 183.072 63.3677 182.322 63.4105 181.556C63.428 180.851 63.3578 180.147 63.2017 179.46Z" fill="#455A64"/>
<path d="M90.0538 184.822C89.6909 184.883 89.3181 184.831 88.9859 184.673C88.1426 184.378 87.4204 183.812 86.9316 183.064C86.4429 182.315 86.215 181.426 86.2834 180.535C86.2794 180.168 86.3808 179.807 86.5757 179.496C86.5799 179.845 86.5659 180.194 86.534 180.541C86.5336 181.368 86.7737 182.176 87.225 182.869C87.6763 183.561 88.3193 184.107 89.0754 184.44C89.66 184.708 90.0597 184.744 90.0538 184.822Z" fill="#455A64"/>
<path d="M125.557 159.274C125.557 159.274 131.761 154.659 132.841 154.462C133.921 154.265 142.165 155.304 142.661 155.799C143.156 156.295 150.81 162.068 149.33 162.564C147.851 163.06 142.559 158.952 142.559 158.952H141.569C141.569 158.952 146.21 162.373 146.938 163.543C147.624 164.612 146.67 165.639 145.793 165.066C144.916 164.492 140.96 161.37 140.608 161.412C140.256 161.453 144.784 165.072 145.148 165.675C145.655 166.481 145.059 167.818 144.17 167.281C143.645 166.958 139.529 163.274 139.529 163.274C139.529 163.274 142.547 166.678 142.726 167.185C143.013 168.021 142.13 168.606 141.414 168.003C140.919 167.591 138.914 164.946 138.246 164.391C138.246 164.391 137.446 164.218 136.074 165.31C134.702 166.403 128.265 167.633 128.265 167.633L125.557 159.274Z" fill="#FFBE9D"/>
<path d="M127.43 160.349C127.609 160.699 127.894 160.985 128.244 161.166C128.593 161.347 128.991 161.414 129.381 161.358C130.168 161.304 130.914 160.994 131.689 160.886C134.016 160.564 136.331 162.122 138.639 161.686C138.962 161.627 139.343 161.453 139.349 161.125C139.355 160.797 139.045 160.623 138.753 160.492L131.755 157.083" fill="#FFBE9D"/>
<path d="M131.773 157.083C132.049 157.142 132.316 157.239 132.567 157.37C133.068 157.585 133.76 157.907 134.661 158.313L137.745 159.764L138.634 160.188C138.902 160.343 139.326 160.426 139.541 160.922C139.576 161.048 139.574 161.182 139.535 161.307C139.496 161.432 139.421 161.543 139.32 161.627C139.145 161.762 138.94 161.854 138.723 161.895C138.346 161.965 137.962 161.993 137.578 161.979C136.033 161.913 134.702 161.382 133.467 161.155C132.891 161.038 132.299 161.008 131.714 161.065C131.171 161.131 130.664 161.292 130.18 161.388C129.798 161.507 129.394 161.54 128.997 161.485C128.6 161.431 128.22 161.289 127.883 161.071C127.418 160.707 127.394 160.343 127.412 160.349C127.43 160.355 127.537 160.647 128.009 160.946C128.334 161.118 128.691 161.22 129.057 161.247C129.424 161.273 129.792 161.224 130.139 161.101C130.604 160.988 131.105 160.809 131.696 160.719C132.317 160.637 132.947 160.653 133.563 160.767C134.858 160.964 136.194 161.495 137.62 161.555C137.962 161.562 138.304 161.53 138.64 161.459C138.956 161.4 139.189 161.209 139.117 161.053C139.045 160.898 138.741 160.713 138.443 160.57L137.56 160.128L134.517 158.594C133.658 158.152 132.96 157.788 132.483 157.525C132.229 157.408 131.99 157.26 131.773 157.083Z" fill="#EB996E"/>
<path d="M149.3 162.576C148.699 162.578 148.103 162.454 147.552 162.212C146.932 161.993 146.333 161.717 145.763 161.388C145.166 160.982 144.51 160.522 143.824 160.039L142.38 159L142.475 159.042C140.024 158.707 138.258 158.403 138.27 158.301C138.282 158.2 140.059 158.343 142.529 158.618H142.583L142.631 158.653L144.074 159.668L145.977 161.03C146.51 161.368 147.068 161.664 147.648 161.913C148.662 162.343 149.318 162.51 149.3 162.576Z" fill="#EB996E"/>
<path d="M63.5059 205.641C63.5059 205.641 37.5129 212.841 36.4689 213.205C34.8999 213.76 35.1684 219.498 37.6024 219.409C38.7538 219.367 57.57 220.113 59.9444 219.964C62.3187 219.815 68.7201 217.283 68.7201 217.283L63.5059 205.641Z" fill="#318FFF"/>
<path d="M52.6779 215.564C52.5466 215.564 52.3736 214.208 51.5325 212.77C50.6913 211.331 49.6115 210.483 49.695 210.381C49.7785 210.28 51.0313 211.014 51.9083 212.561C52.7853 214.107 52.7853 215.576 52.6779 215.564Z" fill="#263238"/>
<path d="M55.3863 214.333C55.261 214.333 54.9985 213.139 54.3065 211.766C53.6145 210.393 52.7971 209.456 52.8866 209.378C52.9761 209.3 53.9784 210.148 54.6764 211.581C55.3744 213.014 55.4997 214.327 55.3863 214.333Z" fill="#263238"/>
<path d="M57.9286 213.653C57.7973 213.653 57.8987 212.345 57.332 210.907C56.7652 209.468 55.8286 208.566 55.9181 208.471C56.0076 208.375 57.1112 209.175 57.7377 210.745C58.3641 212.316 58.0359 213.689 57.9286 213.653Z" fill="#263238"/>
<path d="M57.4692 210.292C57.2388 209.674 57.1432 209.015 57.1888 208.357C57.1951 207.643 57.2832 206.932 57.4513 206.238C57.554 205.832 57.6836 205.433 57.8391 205.044C57.9187 204.799 58.063 204.58 58.2567 204.411C58.3866 204.311 58.5479 204.26 58.7118 204.267C58.8757 204.275 59.0316 204.341 59.1516 204.453C59.3491 204.65 59.4715 204.909 59.4976 205.187C59.5121 205.416 59.5121 205.645 59.4976 205.874C59.493 206.304 59.441 206.732 59.3425 207.151C59.165 207.847 58.894 208.516 58.5371 209.14C58.2517 209.73 57.8569 210.261 57.3738 210.704C57.3141 210.662 57.7496 210.059 58.2686 208.996C58.5718 208.381 58.8002 207.732 58.9487 207.062C59.031 206.669 59.073 206.269 59.074 205.868C59.074 205.468 59.074 204.966 58.8354 204.775C58.7875 204.733 58.726 204.71 58.6624 204.71C58.5987 204.71 58.5372 204.733 58.4894 204.775C58.3607 204.903 58.2628 205.058 58.203 205.229C58.047 205.604 57.9155 205.989 57.8093 206.381C57.6302 207.045 57.5163 207.725 57.4692 208.411C57.4215 209.546 57.5408 210.28 57.4692 210.292Z" fill="#263238"/>
<path d="M57.5049 210.029C58.0348 209.809 58.6091 209.717 59.1813 209.761C59.8045 209.757 60.4257 209.831 61.0307 209.981C61.4007 210.064 61.7579 210.197 62.0926 210.375C62.3093 210.481 62.4851 210.656 62.5929 210.871C62.7007 211.087 62.7346 211.333 62.6892 211.57C62.6298 211.794 62.5117 211.999 62.3471 212.162C62.1825 212.326 61.9772 212.443 61.7525 212.501C61.3612 212.602 60.9507 212.602 60.5594 212.501C59.9432 212.35 59.3671 212.067 58.871 211.671C58.4042 211.349 57.9999 210.944 57.6779 210.477C58.1635 210.752 58.6263 211.065 59.062 211.414C59.5451 211.741 60.0855 211.974 60.6548 212.101C60.9719 212.182 61.3042 212.182 61.6213 212.101C61.7695 212.065 61.9057 211.991 62.0166 211.886C62.1275 211.782 62.2092 211.65 62.2537 211.504C62.2798 211.357 62.2558 211.205 62.1855 211.073C62.1152 210.941 62.0026 210.836 61.8659 210.775C61.5694 210.611 61.2525 210.486 60.9233 210.405C60.3523 210.245 59.7667 210.143 59.1753 210.101C58.1492 209.993 57.5049 210.101 57.5049 210.029Z" fill="#263238"/>
<path d="M48.6812 215.844C48.5559 215.844 48.6812 214.716 48.1681 213.498C47.655 212.28 46.8139 211.564 46.8974 211.462C46.9809 211.361 48.0309 211.97 48.5738 213.331C49.1167 214.692 48.7885 215.892 48.6812 215.844Z" fill="#263238"/>
<path d="M66.8232 217.044C66.5058 217.239 66.1676 217.397 65.815 217.516C64.8725 217.883 63.9058 218.184 62.9216 218.417C59.6653 219.136 56.3339 219.457 53.0004 219.373C49.1048 219.331 45.5909 219.152 43.0495 219.05L40.0666 218.889C39.6957 218.89 39.3257 218.852 38.9629 218.776C39.33 218.72 39.7018 218.702 40.0725 218.722H43.0554L53.0004 218.913C56.3106 219 59.6206 218.731 62.8738 218.113C65.3377 217.582 66.7934 216.984 66.8232 217.044Z" fill="#263238"/>
<path d="M67.5923 217.636C66.9272 217.375 66.2761 217.08 65.6415 216.752C64.1109 216.027 62.4084 215.744 60.7256 215.934C58.7629 216.239 57.3788 217.552 56.472 218.466C56.0085 219.011 55.5082 219.524 54.9746 220C55.3179 219.365 55.7454 218.778 56.2453 218.257C56.7587 217.657 57.3369 217.117 57.9694 216.645C58.7607 216.056 59.6812 215.665 60.6541 215.504C62.4197 215.293 64.2075 215.633 65.7727 216.478C66.4353 216.768 67.0491 217.158 67.5923 217.636Z" fill="#263238"/>
<path d="M41.51 218.776C41.4683 218.74 41.689 218.4 41.8918 217.791C42.1667 217.006 42.232 216.163 42.0813 215.345C41.9306 214.527 41.5692 213.763 41.0328 213.128C40.6271 212.638 40.293 212.393 40.3288 212.346C40.6729 212.462 40.9798 212.668 41.2177 212.943C41.836 213.582 42.2512 214.39 42.4109 215.265C42.5714 216.142 42.4654 217.047 42.1066 217.862C41.8441 218.489 41.5458 218.776 41.51 218.776Z" fill="#263238"/>
<path d="M90.4183 161.095C88.2349 160.426 89.2252 158.008 85.2042 156.671C82.2213 155.674 78.9998 153.811 70.1764 154.814L68.1719 166.994L76.6493 164.737L79.0953 170.206C79.2147 170.473 79.3864 170.714 79.6004 170.914C79.8143 171.114 80.0661 171.268 80.3408 171.369C80.6155 171.47 80.9077 171.514 81.1999 171.5C81.4922 171.486 81.7786 171.414 82.0424 171.287L86.3437 169.227C86.3437 169.227 87.5369 175.144 87.9187 175.376C88.1189 175.504 88.3512 175.573 88.5888 175.575C88.8264 175.577 89.0597 175.512 89.2621 175.388C89.4644 175.263 89.6276 175.084 89.7329 174.871C89.8382 174.657 89.8814 174.419 89.8576 174.182C89.6905 173.388 89.261 163.113 89.261 163.113C89.261 163.113 92.5183 164.039 92.3155 162.737C92.2916 162.761 92.6018 161.764 90.4183 161.095Z" fill="#FFBE9D"/>
<path d="M81.2601 171.813C81.3418 171.585 81.4354 171.362 81.5405 171.144C81.7375 170.602 81.8109 170.023 81.7553 169.448C81.6963 168.876 81.5086 168.325 81.2064 167.836C80.9738 167.46 80.7709 167.239 80.8008 167.239C81.0222 167.359 81.2092 167.534 81.3437 167.747C81.7028 168.243 81.9232 168.826 81.982 169.436C82.0518 170.049 81.9506 170.669 81.6897 171.228C81.4868 171.61 81.278 171.831 81.2601 171.813Z" fill="#EB996E"/>
<path d="M83.9566 170.343C84.1196 169.669 84.138 168.967 84.0105 168.285C83.883 167.602 83.6125 166.955 83.2168 166.385C83.2168 166.385 83.4256 166.516 83.6583 166.839C83.9532 167.259 84.1564 167.737 84.2548 168.242C84.348 168.746 84.3358 169.264 84.219 169.764C84.178 169.975 84.0881 170.173 83.9566 170.343Z" fill="#EB996E"/>
<path d="M85.8477 165.639C85.8477 165.639 86.0087 165.776 86.1519 166.069C86.3343 166.455 86.4358 166.875 86.4501 167.302C86.4645 167.729 86.3914 168.154 86.2354 168.552C86.1102 168.857 85.9849 169.012 85.961 169C86.1136 168.449 86.1997 167.882 86.2175 167.31C86.1652 166.74 86.041 166.178 85.8477 165.639Z" fill="#EB996E"/>
<path d="M113.953 178.666L70.1816 177.58C69.9632 177.575 69.7553 177.485 69.6025 177.329C69.4498 177.172 69.3642 176.962 69.3643 176.744C69.3635 176.634 69.3843 176.525 69.4256 176.423C69.4668 176.322 69.5277 176.229 69.6047 176.151C69.6817 176.073 69.7733 176.011 69.8744 175.968C69.9754 175.925 70.0838 175.903 70.1935 175.902L94.3371 175.597L103.882 146.02C104.038 145.535 104.346 145.113 104.762 144.819C105.177 144.525 105.677 144.375 106.185 144.39L142.815 145.405C143.188 145.422 143.551 145.527 143.876 145.71C144.201 145.893 144.478 146.15 144.686 146.46C144.893 146.77 145.025 147.125 145.072 147.495C145.118 147.865 145.076 148.241 144.951 148.593L133.437 179.156L113.947 178.666" fill="#455A64"/>
<path d="M123.511 160.928C123.081 160.134 121.267 159.871 120.396 160.528C119.838 160.846 119.429 161.372 119.257 161.991C119.137 162.481 119.199 162.999 119.432 163.447C119.664 163.895 120.052 164.243 120.522 164.427C120.999 164.536 121.498 164.502 121.957 164.329C122.415 164.156 122.812 163.851 123.099 163.454C123.4 163.115 123.598 162.698 123.671 162.251C123.744 161.804 123.688 161.345 123.511 160.928Z" fill="white"/>
<path d="M88.0913 71.4188C88.5566 70.786 89.5947 71.3651 89.9287 72.0815C90.2628 72.798 90.4179 73.7055 91.1219 74.0458C92.0526 74.4936 93.4784 73.6876 94.0571 74.5473C94.4985 75.2041 93.8483 76.0997 94.0571 76.8699C94.3912 78.249 96.7655 77.9147 97.4397 79.1625C97.8454 79.9088 97.4397 80.8044 97.1056 81.5865C96.7715 82.3687 96.6641 83.4553 97.38 83.8971C98.0959 84.3389 99.1698 83.8314 99.7663 84.4046C100.554 85.1808 99.3726 86.5002 99.6172 87.5749C99.7962 88.369 100.679 88.769 101.473 88.9302C102.266 89.0914 103.149 89.2287 103.674 89.8497C104.831 91.2169 103.137 93.3245 103.608 95.0559C103.895 96.1008 104.98 96.9844 104.724 98.0412C104.402 99.3845 102.212 99.5696 101.902 100.919C101.634 102.065 102.94 103.379 102.218 104.31C101.496 105.242 99.9573 104.37 98.961 104.907C97.8155 105.558 98.0303 107.707 96.7476 108.024C96.1511 108.161 95.5545 107.821 94.9937 107.904C93.5798 108.113 93.204 110.561 91.7722 110.466C90.937 110.412 90.2807 109.421 89.4694 109.624C88.658 109.827 88.5506 110.961 87.8646 111.415C86.7907 112.102 85.5439 110.675 84.2851 110.621C83.4916 110.585 82.7221 111.099 81.9405 110.955C81.574 110.851 81.245 110.643 80.9924 110.358C80.7398 110.072 80.574 109.72 80.5147 109.343C80.4105 108.589 80.4286 107.823 80.5684 107.074C81.0302 102.898 80.3087 98.6748 78.4863 94.8888" fill="#263238"/>
<path d="M84.0467 116.084L83.9274 109.546C83.9274 109.546 90.4182 108.585 91.9096 100.154C92.6494 95.975 92.5718 89.0672 92.3093 83.4371C92.017 77.2098 85.2697 70.6722 80.2167 71.114L65.2246 76.4874V79.2159L65.678 116.388C65.7063 118.806 66.6861 121.116 68.4048 122.816C70.1236 124.516 72.4428 125.469 74.8594 125.469C76.0821 125.469 77.2926 125.225 78.4199 124.751C79.5472 124.278 80.5686 123.583 81.4242 122.709C82.2799 121.835 82.9526 120.799 83.4029 119.661C83.8533 118.523 84.0721 117.307 84.0467 116.084Z" fill="#FFBE9D"/>
<path d="M89.7203 89.2941C89.7188 89.5766 89.6068 89.8473 89.4083 90.0482C89.2098 90.249 88.9406 90.3641 88.6584 90.3688C88.5203 90.3768 88.3819 90.3573 88.2514 90.3114C88.1209 90.2655 88.0008 90.1941 87.8981 90.1013C87.7954 90.0085 87.7122 89.8963 87.6532 89.771C87.5943 89.6458 87.5608 89.5101 87.5547 89.3717C87.5562 89.0892 87.6682 88.8186 87.8667 88.6177C88.0652 88.4168 88.3344 88.3017 88.6166 88.297C88.7549 88.2882 88.8936 88.3071 89.0244 88.3527C89.1553 88.3983 89.2757 88.4697 89.3786 88.5626C89.4814 88.6556 89.5646 88.7682 89.6233 88.8938C89.682 89.0194 89.715 89.1555 89.7203 89.2941Z" fill="#263238"/>
<path d="M90.7515 86.9959C90.6143 87.1332 89.8029 86.5123 88.6396 86.4944C87.4762 86.4765 86.6052 87.0437 86.4859 86.9004C86.3666 86.7571 86.5635 86.5839 86.9393 86.3033C87.4513 85.9638 88.0555 85.7908 88.6694 85.8078C89.2776 85.8223 89.8651 86.0316 90.3458 86.4048C90.6978 86.6735 90.8171 86.9302 90.7515 86.9959Z" fill="#263238"/>
<path d="M78.9819 88.9894C78.9804 89.2719 78.8684 89.5426 78.6699 89.7435C78.4714 89.9443 78.2022 90.0594 77.92 90.0641C77.782 90.073 77.6436 90.054 77.5131 90.0083C77.3826 89.9627 77.2626 89.8912 77.1602 89.7982C77.0578 89.7052 76.9751 89.5925 76.9171 89.4669C76.859 89.3413 76.8268 89.2054 76.8223 89.067C76.8238 88.7846 76.9358 88.5139 77.1343 88.313C77.3327 88.1121 77.6019 87.997 77.8842 87.9924C78.0222 87.9835 78.1605 88.0025 78.291 88.0481C78.4216 88.0938 78.5416 88.1653 78.644 88.2583C78.7464 88.3513 78.829 88.4639 78.8871 88.5895C78.9451 88.7151 78.9774 88.8511 78.9819 88.9894Z" fill="#263238"/>
<path d="M79.2915 87.0075C79.1543 87.1448 78.3429 86.5239 77.1796 86.506C76.0163 86.4881 75.1453 87.0553 75.026 86.912C74.9066 86.7687 75.1035 86.5955 75.4794 86.3149C75.9906 85.9733 76.5949 85.7982 77.2094 85.8134C77.8171 85.8309 78.4038 86.0398 78.8858 86.4105C79.2378 86.6911 79.3571 86.9478 79.2915 87.0075Z" fill="#263238"/>
<path d="M83.3666 95.7364C83.9829 95.5511 84.6206 95.4467 85.2638 95.426C85.5621 95.426 85.8603 95.3483 85.9021 95.1453C85.9301 94.837 85.8657 94.5273 85.7172 94.2558C85.4487 93.5333 85.1743 92.7691 84.876 91.975C83.7127 88.7211 82.8774 86.0523 83.0087 86.0046C83.1399 85.9568 84.2018 88.5599 85.3532 91.8079L86.1586 94.1065C86.3424 94.4764 86.3889 94.8996 86.2899 95.3006C86.2451 95.405 86.1773 95.4979 86.0916 95.5724C86.0058 95.6468 85.9043 95.7009 85.7947 95.7305C85.6287 95.7709 85.4585 95.7909 85.2876 95.7902C84.6476 95.852 84.0023 95.834 83.3666 95.7364Z" fill="#263238"/>
<path d="M83.9274 109.552C79.9492 109.54 76.0524 108.424 72.6699 106.328C72.6699 106.328 75.4977 112.233 83.9632 111.594L83.9274 109.552Z" fill="#EB996E"/>
<path d="M82.8239 98.5362C82.6066 98.254 82.3214 98.0314 81.9948 97.8894C81.6682 97.7474 81.311 97.6906 80.9566 97.7243C80.699 97.7423 80.4478 97.8125 80.2181 97.9305C79.9884 98.0485 79.785 98.2119 79.6203 98.4109C79.4584 98.6004 79.3598 98.8359 79.3384 99.0843C79.317 99.3327 79.3738 99.5816 79.5009 99.796C79.6848 100.008 79.9275 100.161 80.1982 100.236C80.469 100.31 80.7558 100.303 81.0222 100.214C81.5761 100.029 82.0873 99.7344 82.5256 99.3482C82.6602 99.2583 82.7758 99.1427 82.8656 99.0079C82.9095 98.9448 82.9331 98.8698 82.9331 98.793C82.9331 98.7161 82.9095 98.6411 82.8656 98.578" fill="#B0B0B0"/>
<path d="M79.9242 96.4828C80.1151 96.4828 80.0912 97.7365 81.1591 98.656C82.227 99.5754 83.5454 99.456 83.5812 99.6352C83.5812 99.7187 83.277 99.874 82.7102 99.8799C81.9673 99.8783 81.2489 99.614 80.6818 99.1336C80.14 98.6732 79.7978 98.0204 79.7273 97.3126C79.6915 96.7813 79.8347 96.4708 79.9242 96.4828Z" fill="#263238"/>
<path d="M79.6736 82.4401C79.5543 82.7566 78.3909 82.5894 77.0188 82.7267C75.6467 82.864 74.537 83.2222 74.364 82.9357C74.2805 82.7983 74.4833 82.4998 74.9606 82.2013C75.5628 81.8372 76.2398 81.6147 76.9404 81.5506C77.6411 81.4865 78.3472 81.5824 79.0054 81.8311C79.4767 82.052 79.7273 82.2909 79.6736 82.4401Z" fill="#263238"/>
<path d="M90.3818 83.6103C90.173 83.873 89.3736 83.5804 88.4072 83.5506C87.4407 83.5207 86.6174 83.6998 86.4384 83.4192C86.3609 83.2819 86.4921 83.0192 86.8561 82.7744C87.3408 82.4823 87.9014 82.341 88.4666 82.3686C89.0317 82.3963 89.5759 82.5916 90.0299 82.9297C90.3699 83.2103 90.4773 83.4849 90.3818 83.6103Z" fill="#263238"/>
<path d="M87.6979 72.7201C87.6979 72.8157 87.4115 72.8992 87.0536 72.8992C86.6956 72.8992 86.4033 72.8157 86.4033 72.7201C86.4033 72.6246 86.6897 72.541 87.0536 72.541C87.4175 72.541 87.6979 72.6246 87.6979 72.7201Z" fill="#263238"/>
<path d="M87.1484 74.3503C89.3259 70.0276 84.3743 66.4095 82.0178 65.2274C80.8418 64.6182 79.5343 64.3072 78.2101 64.3218C76.886 64.3364 75.5857 64.676 74.4233 65.311C73.3853 65.908 72.4785 66.8215 71.3151 67.1021C68.6186 67.7827 65.7133 65.0244 63.2076 66.2304C61.1434 67.2155 60.8213 70.3082 58.7273 71.2755C57.731 71.7471 56.5677 71.5979 55.4759 71.7113C54.3842 71.8247 53.1433 72.4278 53.0061 73.5024C52.845 74.6965 54.1277 75.9981 53.4834 77.0429C52.6899 78.3266 50.3334 77.1325 49.3073 78.237C48.2812 79.3416 49.4743 81.3835 48.317 82.1835C47.4639 82.7806 46.0321 82.0641 45.4057 82.8821C44.7793 83.7 46.0022 84.8583 46.1096 85.9569C46.217 87.0554 45.179 87.945 44.2722 88.6316C43.3654 89.3182 42.4168 90.4228 42.8523 91.4497C43.3594 92.6438 45.34 92.7632 45.6801 94.0289C46.0201 95.2947 44.2841 96.7634 45.0835 97.862C45.6085 98.5904 46.8136 98.3814 47.4698 98.9844C48.5795 99.9815 47.2312 101.904 47.7801 103.295C48.5317 105.218 51.8249 104.376 53.0896 106.006C53.7876 106.913 53.6862 108.394 54.6825 108.991C55.6788 109.588 56.9734 108.663 58.1427 108.8C60.0457 109.021 61.221 111.916 63.0525 111.349C63.9891 111.063 64.6812 109.881 65.6357 110.113C66.459 110.316 66.7811 111.493 67.6163 111.624C68.7498 111.803 69.066 110.149 69.7402 109.236C70.647 108 72.6217 107.934 73.4569 106.656C74.2086 105.504 73.6657 103.97 73.0035 102.764C72.3413 101.558 71.5538 100.238 71.8759 98.9008C72.2458 97.3784 73.9938 96.0589 73.3793 94.62C72.7111 93.0498 69.77 93.211 69.5672 91.5094C69.3703 89.9033 72.0609 88.9958 71.7566 87.4077C71.5538 86.339 70.0922 85.921 69.8177 84.8702C69.4956 83.6761 70.9751 82.6074 70.9572 81.3417C70.9572 80.5357 70.3308 79.8909 69.8893 79.2102C69.4478 78.5296 69.2092 77.5206 69.8237 77.0011C70.808 76.1653 72.2816 77.6878 73.5106 77.3176C74.3756 77.0609 74.7037 76.0399 74.9901 75.1921C74.9901 75.1921 77.269 71.7352 81.3437 72.2069C85.4183 72.6785 87.1484 74.3503 87.1484 74.3503Z" fill="#263238"/>
<path d="M87.2087 72.7918C87.3976 73.0056 87.5328 73.2614 87.603 73.538C87.6731 73.8146 87.6762 74.1039 87.612 74.382C87.5478 74.66 87.4182 74.9187 87.2339 75.1364C87.0495 75.3542 86.8159 75.5247 86.5524 75.6338C85.5382 75.992 84.4644 75.3532 83.5695 74.7561C82.6747 74.1591 81.5591 73.562 80.5866 73.98C78.7969 74.7561 79.2861 78.0458 77.4426 78.7563C76.685 79.0489 75.8498 78.7563 75.0563 78.5832C74.2629 78.4101 73.2666 78.4399 72.837 79.1205C72.2405 80.034 73.0458 81.5087 72.2405 82.2371C71.9123 82.5476 71.3933 82.6073 71.095 82.9476C70.6118 83.4909 70.9936 84.3745 71.5246 84.8761C72.0555 85.3776 72.7535 85.7657 73.016 86.4463C73.4336 87.5329 72.5209 88.6614 71.5902 89.3659C70.6595 90.0704 69.5439 90.7689 69.3411 91.9212C69.0189 93.7661 71.3098 95.5513 70.5342 97.2588C70.2664 97.7164 69.8426 98.0618 69.3406 98.2318C68.8387 98.4018 68.2924 98.3849 67.8019 98.1842C66.8297 97.7429 66.0454 96.9707 65.5886 96.005C63.4707 92.2018 64.0673 87.5568 64.7713 83.276C65.2306 80.4699 65.7676 77.5682 67.4082 75.2457C69.0488 72.9232 71.8169 71.3231 74.6029 70.3499C76.7117 69.5265 78.982 69.2016 81.2369 69.4006C82.361 69.5074 83.4484 69.8575 84.4239 70.4266C85.3994 70.9956 86.2397 71.7701 86.8865 72.6963" fill="#263238"/>
<path d="M62.9514 111.123C62.9089 111.163 62.858 111.194 62.8023 111.212C62.7199 111.24 62.6324 111.25 62.5458 111.241C62.4592 111.232 62.3757 111.204 62.3012 111.159C62.059 111.015 61.8752 110.791 61.7821 110.526C61.716 110.355 61.6955 110.17 61.7225 109.988C61.7632 109.787 61.8489 109.597 61.973 109.433C62.2676 109.063 62.6377 108.759 63.0588 108.543C63.541 108.301 63.9739 107.971 64.3355 107.57C64.523 107.349 64.6321 107.072 64.6457 106.782C64.6345 106.476 64.5187 106.183 64.3176 105.952C64.0914 105.697 63.8483 105.458 63.5898 105.236C63.2983 104.996 63.0588 104.7 62.8858 104.364C62.799 104.173 62.7627 103.963 62.7805 103.754C62.7983 103.545 62.8695 103.344 62.9872 103.17C63.247 102.841 63.5746 102.572 63.9477 102.382C64.2997 102.179 64.6756 102 65.0096 101.785C65.3567 101.582 65.6114 101.253 65.7196 100.865C65.7523 100.665 65.7333 100.459 65.6644 100.268C65.5955 100.077 65.4789 99.9064 65.3258 99.7729C64.999 99.4569 64.6544 99.1599 64.2937 98.8833C63.8958 98.5876 63.5696 98.206 63.3392 97.7668C63.2369 97.522 63.1918 97.2571 63.2073 96.9922C63.2228 96.7273 63.2985 96.4695 63.4287 96.2383C63.6817 95.7769 64.0245 95.3709 64.4369 95.0442C64.8366 94.7099 65.2662 94.4472 65.6301 94.1069C66.0197 93.8 66.3255 93.3995 66.519 92.9426C66.5955 92.7099 66.6186 92.4629 66.5866 92.22C66.5546 91.9771 66.4683 91.7445 66.334 91.5396C66.0425 91.0964 65.7089 90.6825 65.3378 90.3037C64.9217 89.9036 64.6138 89.4044 64.4429 88.8529C64.3835 88.5499 64.4062 88.2366 64.5085 87.9453C64.6244 87.663 64.8017 87.4101 65.0275 87.205C65.4756 86.8436 65.957 86.5257 66.4653 86.2557C66.9593 86.0246 67.3743 85.6529 67.6585 85.187C67.7595 84.9524 67.8004 84.6963 67.7774 84.4419C67.7545 84.1875 67.6685 83.9429 67.5272 83.7302C67.238 83.2738 66.9086 82.8442 66.5428 82.4465C66.1663 82.02 65.9 81.5074 65.7673 80.9539C65.7085 80.6629 65.7312 80.3612 65.8329 80.0822C65.9494 79.8086 66.1446 79.5758 66.3937 79.4135C66.8807 79.1629 67.4211 79.0338 67.9687 79.0374C68.4671 79.0348 68.9635 78.9747 69.4482 78.8583C69.6694 78.8041 69.8729 78.6938 70.039 78.538C70.2052 78.3821 70.3284 78.1861 70.3968 77.9687C70.534 77.5269 70.522 77.0313 70.6473 76.5417C70.7046 76.2879 70.8164 76.0495 70.9751 75.8433C71.1338 75.6371 71.3354 75.4679 71.5661 75.3477C72.4609 74.87 73.4453 75.0073 74.2924 75.0312C74.71 75.0508 75.1281 75.0086 75.5333 74.9058C75.9157 74.7899 76.2721 74.6014 76.5833 74.3506C77.1629 73.8366 77.7051 73.2819 78.206 72.6908C78.677 72.1383 79.2636 71.696 79.9241 71.3952C80.5246 71.1498 81.176 71.0555 81.8213 71.1206C82.3367 71.167 82.8367 71.3212 83.2888 71.5732C83.741 71.8252 84.1353 72.1693 84.4462 72.5833C84.847 73.1055 85.106 73.7225 85.1979 74.3745C85.2269 74.5984 85.2269 74.8252 85.1979 75.0491C85.1979 75.0491 85.1979 74.8163 85.1144 74.3864C84.9955 73.7613 84.7251 73.1749 84.3269 72.6789C84.0207 72.288 83.6367 71.9652 83.1992 71.7309C82.7617 71.4965 82.2802 71.3558 81.7855 71.3176C81.1746 71.2687 80.5609 71.3669 79.9957 71.6042C79.3683 71.9015 78.8127 72.3313 78.3671 72.8639C77.863 73.4671 77.3167 74.0338 76.7324 74.5595C76.3994 74.8307 76.0163 75.0336 75.6049 75.1566C75.175 75.2696 74.7306 75.3179 74.2865 75.2999C73.4155 75.2999 72.4967 75.1685 71.6913 75.5984C71.4973 75.6987 71.3277 75.8406 71.1947 76.014C71.0616 76.1873 70.9685 76.3879 70.9218 76.6014C70.8084 77.0433 70.8203 77.5388 70.6652 78.0403C70.5863 78.3024 70.441 78.5397 70.2434 78.729C70.0459 78.9184 69.8028 79.0534 69.5377 79.121C69.0325 79.2498 68.5138 79.318 67.9925 79.324C67.4945 79.3216 67.0025 79.4339 66.5548 79.6524C66.3607 79.7829 66.2093 79.9677 66.1193 80.1837C66.0308 80.4078 66.0121 80.6534 66.0656 80.8883C66.1951 81.3898 66.4403 81.854 66.7815 82.2436C67.1602 82.6526 67.4998 83.0964 67.7957 83.569C67.9432 83.8275 68.0423 84.1107 68.088 84.4049C68.1229 84.7134 68.0713 85.0256 67.9388 85.3064C67.6378 85.8219 67.1917 86.2372 66.6562 86.5005C66.163 86.7646 65.6956 87.0745 65.2602 87.4259C65.0697 87.5889 64.9188 87.793 64.8187 88.023C64.7366 88.2587 64.716 88.5115 64.7591 88.7573C64.9237 89.2552 65.2062 89.7058 65.5824 90.0708C65.9663 90.465 66.3119 90.8948 66.6144 91.3545C66.7706 91.597 66.8705 91.8714 66.9066 92.1577C66.9428 92.4439 66.9143 92.7346 66.8232 93.0083C66.6125 93.5164 66.2757 93.9623 65.8448 94.3039C65.4451 94.6502 65.0037 94.9009 64.6517 95.2353C64.2728 95.5317 63.9547 95.8987 63.7151 96.316C63.6017 96.5072 63.5346 96.7223 63.519 96.9442C63.5035 97.166 63.54 97.3884 63.6256 97.5936C63.8359 97.9949 64.1335 98.3438 64.4966 98.6146C64.865 98.8995 65.2175 99.2045 65.5525 99.5281C65.7296 99.6956 65.863 99.904 65.941 100.135C66.019 100.366 66.0393 100.613 66 100.854C65.8795 101.307 65.586 101.695 65.1826 101.934C64.8187 102.179 64.4429 102.358 64.0969 102.531C63.7522 102.697 63.4486 102.938 63.208 103.236C63.1104 103.377 63.0505 103.542 63.0338 103.713C63.0171 103.884 63.0442 104.057 63.1125 104.215C63.4108 104.854 64.079 105.224 64.5025 105.773C64.7303 106.04 64.857 106.378 64.8605 106.728C64.8401 107.056 64.7145 107.368 64.5025 107.618C64.1223 108.031 63.6667 108.367 63.1602 108.609C62.7533 108.813 62.392 109.097 62.0983 109.445C61.9803 109.578 61.8998 109.74 61.8651 109.914C61.8305 110.088 61.8431 110.268 61.9015 110.436C61.9804 110.683 62.1428 110.894 62.3608 111.033C62.4283 111.076 62.5037 111.105 62.5826 111.119C62.6615 111.132 62.7423 111.129 62.8202 111.111C62.8739 111.153 62.9455 111.117 62.9514 111.123Z" fill="#455A64"/>
<path d="M48.6808 103.731C48.6808 103.731 48.7465 103.731 48.8658 103.683C48.9479 103.643 49.0196 103.584 49.0755 103.511C49.1314 103.439 49.1698 103.355 49.1879 103.265C49.2577 102.971 49.2283 102.663 49.1044 102.387C48.8825 102.034 48.6352 101.696 48.3646 101.378C48.205 101.169 48.1023 100.922 48.0664 100.662C48.0511 100.515 48.066 100.367 48.1101 100.226C48.1542 100.086 48.2266 99.9555 48.3229 99.8439C48.6987 99.3662 49.3132 99.1035 49.695 98.5781C49.7888 98.4467 49.852 98.2958 49.8799 98.1367C49.9078 97.9776 49.8996 97.8143 49.8561 97.6587C49.7436 97.3161 49.5607 97.0009 49.3192 96.7333C49.0865 96.4407 48.818 96.1362 48.5854 95.8079C48.3134 95.4584 48.1682 95.0268 48.1737 94.5839C48.1954 94.3502 48.2715 94.1248 48.3958 93.9257C48.5201 93.7267 48.6892 93.5595 48.8896 93.4376C49.2893 93.1887 49.7327 93.0185 50.1961 92.9361C50.6674 92.8525 51.1328 92.8166 51.5921 92.7092C52.0399 92.632 52.4549 92.4243 52.7853 92.1121C52.9345 91.9299 53.0435 91.7181 53.1052 91.4907C53.1669 91.2633 53.1799 91.0254 53.1433 90.7927C53.0617 90.2826 52.9339 89.7809 52.7614 89.2941C52.5653 88.7716 52.4721 88.2161 52.487 87.6582C52.5059 87.3556 52.6056 87.0636 52.7755 86.8126C52.9455 86.5616 53.1796 86.3609 53.4535 86.2312C54.5273 85.6819 55.7861 85.9327 56.7287 85.2998C56.9548 85.1557 57.1332 84.948 57.2418 84.7028C57.3333 84.4479 57.3478 84.1718 57.2835 83.9087C57.0996 83.3429 56.8598 82.7969 56.5676 82.2788C56.4226 81.9858 56.3355 81.6675 56.3111 81.3414C56.3023 81.1666 56.3289 80.9919 56.3894 80.8277C56.4499 80.6635 56.543 80.5133 56.6631 80.3861C57.1795 79.9829 57.8006 79.7363 58.4528 79.6756C59.0494 79.5562 59.7056 79.3592 59.8428 78.798C59.9801 78.2367 59.6102 77.6039 59.6519 76.9232C59.6814 76.2485 59.9119 75.598 60.3138 75.0553C60.7156 74.5127 61.2705 74.1028 61.907 73.8783C63.2135 73.4544 64.4842 74.0574 65.6177 73.7768C65.8938 73.7356 66.1549 73.6253 66.377 73.4563C66.5992 73.2872 66.7751 73.0648 66.8885 72.8096C67.0045 72.2403 67.0467 71.6583 67.0137 71.0781C67.0272 70.76 67.1195 70.4502 67.2822 70.1766C67.4594 69.9042 67.7184 69.6951 68.022 69.5796C68.6039 69.3927 69.2297 69.3927 69.8117 69.5796C70.3665 69.7229 70.8796 69.9378 71.3986 70.0333C71.9027 70.1478 72.4302 70.0954 72.902 69.8841C73.8327 69.4542 74.5008 68.6243 75.2883 67.9974C76.0406 67.4156 76.9117 67.007 77.8398 66.8006C78.7678 66.5942 79.7299 66.5951 80.6575 66.8033C82.1956 67.0969 83.5718 67.9471 84.5234 69.1915C85.2365 70.1198 85.7191 71.2043 85.9313 72.3558C86.0679 73.0781 86.0941 73.8169 86.0089 74.547C85.9836 74.802 85.9336 75.0539 85.8597 75.2993C85.8597 75.2993 85.9074 75.0366 85.9432 74.541C86.002 73.818 85.9579 73.0903 85.812 72.3797C85.5839 71.2554 85.0956 70.2002 84.3862 69.2989C83.3392 67.9876 81.821 67.1385 80.1564 66.9331C78.4918 66.7278 76.813 67.1827 75.4792 68.2004C74.7156 68.7974 74.0534 69.6572 73.0332 70.1348C72.5142 70.3717 71.9332 70.4365 71.3747 70.3199C70.814 70.2124 70.2949 69.9975 69.764 69.8602C69.2477 69.6959 68.6933 69.6959 68.1771 69.8602C67.933 69.9465 67.7236 70.11 67.5805 70.3259C67.4468 70.5589 67.373 70.8215 67.3657 71.0901C67.3998 71.6909 67.3517 72.2935 67.2225 72.8812C67.0942 73.1839 66.8911 73.449 66.6323 73.6517C66.3735 73.8543 66.0675 73.9877 65.743 74.0395C64.4663 74.338 63.2076 73.741 62.0562 74.141C61.4802 74.3468 60.9785 74.7196 60.6151 75.212C60.2517 75.7043 60.0431 76.2938 60.0159 76.9053C60.0121 77.2159 60.0523 77.5255 60.1352 77.8248C60.2395 78.1549 60.26 78.5057 60.1948 78.8457C60.1453 79.0208 60.0591 79.1833 59.9418 79.3223C59.8245 79.4613 59.6789 79.5736 59.5147 79.6517C59.2137 79.7889 58.8972 79.8891 58.5721 79.9503C57.9783 79.9914 57.4079 80.1983 56.9256 80.5473C56.8342 80.6457 56.7635 80.7613 56.7174 80.8874C56.6713 81.0135 56.6508 81.1476 56.6571 81.2817C56.6807 81.5688 56.7597 81.8486 56.8898 82.1056C57.1867 82.6446 57.4324 83.2103 57.6236 83.7953C57.6974 84.1191 57.6746 84.4575 57.5579 84.7684C57.4357 85.0651 57.228 85.3186 56.9614 85.4968C56.4401 85.8019 55.857 85.9855 55.2551 86.0342C54.7043 86.0775 54.1642 86.2106 53.6563 86.4282C53.4268 86.5373 53.2303 86.7052 53.0867 86.9149C52.9431 87.1247 52.8577 87.3688 52.839 87.6223C52.825 88.1456 52.9121 88.6666 53.0955 89.1567C53.2701 89.6597 53.3999 90.1772 53.4833 90.7031C53.521 90.9732 53.5017 91.2483 53.4267 91.5105C53.3517 91.7727 53.2226 92.0163 53.0478 92.2256C52.6767 92.5914 52.2016 92.8333 51.6876 92.9181C51.2103 93.0256 50.7271 93.0614 50.2856 93.1391C49.8522 93.2086 49.4366 93.3627 49.0626 93.5928C48.8886 93.6943 48.7407 93.8351 48.6308 94.0042C48.521 94.1732 48.4523 94.3656 48.4303 94.566C48.4294 94.9583 48.5572 95.3401 48.7942 95.6526C49.0209 95.981 49.2834 96.2497 49.516 96.578C49.7706 96.8675 49.9616 97.2072 50.0768 97.5751C50.1241 97.7568 50.131 97.9467 50.097 98.1313C50.063 98.316 49.9889 98.4909 49.88 98.6438C49.4445 99.211 48.824 99.4618 48.478 99.8976C48.3928 99.9953 48.3278 100.109 48.2869 100.232C48.2459 100.355 48.2298 100.485 48.2394 100.614C48.2709 100.854 48.3633 101.082 48.5078 101.277C48.7759 101.603 49.0173 101.951 49.2297 102.316C49.3533 102.611 49.3743 102.939 49.2893 103.247C49.2676 103.344 49.2218 103.435 49.1561 103.51C49.0905 103.585 49.007 103.642 48.9135 103.677C48.8459 103.725 48.7624 103.744 48.6808 103.731Z" fill="#455A64"/>
<path d="M98.3166 104.143C98.4215 104.221 98.5448 104.271 98.6745 104.287C98.8627 104.277 99.0447 104.216 99.2012 104.111C99.3578 104.006 99.4829 103.86 99.5634 103.69C99.814 103.266 99.6708 102.633 99.5992 101.898C99.5699 101.504 99.6227 101.107 99.7543 100.734C99.9061 100.344 100.036 99.9452 100.142 99.5401C100.2 99.3284 100.198 99.105 100.137 98.8944C100.076 98.6838 99.9578 98.494 99.7961 98.346C99.3958 98.0582 98.9411 97.855 98.4597 97.7489C97.8934 97.6406 97.3661 97.383 96.9325 97.0026C96.8274 96.8776 96.751 96.7309 96.7088 96.5731C96.6665 96.4153 96.6594 96.2501 96.6879 96.0892C96.7592 95.7728 96.9184 95.483 97.1473 95.2533C97.547 94.7995 98.0839 94.4353 98.2808 93.904C98.3509 93.6263 98.3152 93.3324 98.1807 93.0797C98.0461 92.8269 97.8223 92.6333 97.5529 92.5367C97.022 92.2322 96.3598 92.1785 95.6976 91.8859C95.3577 91.7447 95.0643 91.511 94.8504 91.2113C94.6408 90.8997 94.5344 90.53 94.5462 90.1545C94.5888 89.447 94.7929 88.7587 95.1428 88.1424C95.4594 87.5855 95.6831 86.9804 95.805 86.3513C95.8378 86.0538 95.801 85.7527 95.6975 85.4719C95.5939 85.191 95.4265 84.9382 95.2084 84.7333C94.7967 84.2975 94.2777 83.9572 93.8362 83.5392C93.3781 83.1351 93.0518 82.6026 92.8996 82.0108C92.775 81.4628 92.7248 80.9005 92.7505 80.339C92.8502 79.369 92.7795 78.389 92.5417 77.4434C92.2842 76.6878 91.8338 76.0127 91.2352 75.485C90.7874 75.0776 90.2673 74.7577 89.7019 74.5417C89.2112 74.3697 88.6995 74.2653 88.1807 74.2312C88.3175 74.2172 88.4555 74.2172 88.5923 74.2312C88.9825 74.2518 89.3679 74.3262 89.7377 74.4522C90.4272 74.6891 91.0553 75.0767 91.5764 75.5869C92.0975 76.0971 92.4986 76.717 92.7505 77.4016C93.014 78.3732 93.1009 79.3844 93.007 80.3868C92.9875 80.9247 93.0397 81.4628 93.1621 81.9869C93.3064 82.5276 93.6099 83.0123 94.0331 83.378C94.4567 83.778 94.9757 84.1124 95.4231 84.5721C95.6689 84.8097 95.8565 85.1009 95.9714 85.4229C96.0863 85.745 96.1253 86.0893 96.0854 86.4289C95.9123 87.8141 94.8385 88.8708 94.8504 90.2082C94.8425 90.5233 94.9298 90.8333 95.101 91.0978C95.2814 91.3507 95.5296 91.5473 95.8169 91.665C96.4135 91.9337 97.0876 91.9874 97.6961 92.3337C98.0069 92.4913 98.2689 92.7308 98.4538 93.0263C98.5482 93.1805 98.6063 93.3541 98.6239 93.534C98.6415 93.714 98.618 93.8956 98.5552 94.0652C98.2495 94.6143 97.845 95.1021 97.362 95.504C97.1712 95.6955 97.0352 95.9347 96.9683 96.1966C96.9459 96.3181 96.9503 96.4431 96.9812 96.5627C97.0121 96.6824 97.0688 96.7938 97.1473 96.8892C97.5469 97.2269 98.0248 97.4589 98.5373 97.5639C99.0559 97.6857 99.5422 97.9178 99.9631 98.2445C100.156 98.4231 100.295 98.6529 100.363 98.9072C100.42 99.1507 100.42 99.404 100.363 99.6476C100.252 100.066 100.114 100.477 99.9512 100.877C99.8167 101.225 99.7597 101.598 99.7841 101.97C99.8259 102.663 99.9691 103.337 99.6708 103.821C99.5782 104.005 99.4355 104.158 99.2591 104.264C99.0827 104.37 98.88 104.423 98.6745 104.418C98.5961 104.407 98.5218 104.377 98.459 104.328C98.3962 104.28 98.3471 104.216 98.3166 104.143Z" fill="#455A64"/>
<g opacity="0.3">
<path opacity="0.3" d="M57.0575 138.229V154.158L52.9351 154.486L51.4258 148.772L57.0575 138.229Z" fill="black"/>
</g>
</g>
<defs>
<clipPath id="clip0_210_3877">
<rect width="381" height="220" fill="white"/>
</clipPath>
</defs>
</svg>
