<svg width="13" height="21" viewBox="0 0 13 21" fill="none" xmlns="http://www.w3.org/2000/svg">
<path d="M7.83097 10.4999L1.19347 17.1374C0.844254 17.4887 0.648238 17.9639 0.648238 18.4593C0.648238 18.9546 0.844254 19.4298 1.19347 19.7811C1.36778 19.9569 1.57516 20.0964 1.80364 20.1916C2.03213 20.2868 2.2772 20.3358 2.52472 20.3358C2.77225 20.3358 3.01732 20.2868 3.24581 20.1916C3.47429 20.0964 3.68167 19.9569 3.85597 19.7811L11.806 11.8311C11.9817 11.6568 12.1212 11.4495 12.2164 11.221C12.3116 10.9925 12.3606 10.7474 12.3606 10.4999C12.3606 10.2524 12.3116 10.0073 12.2164 9.77881C12.1212 9.55032 11.9817 9.34295 11.806 9.16864L3.85598 1.12489C3.68078 0.951112 3.473 0.813628 3.24455 0.720319C3.01611 0.627011 2.77149 0.579711 2.52473 0.581138C2.27796 0.579711 2.03335 0.627011 1.8049 0.720319C1.57646 0.813628 1.36868 0.951112 1.19348 1.12489C0.844255 1.47619 0.64824 1.95142 0.64824 2.44676C0.64824 2.94211 0.844255 3.41733 1.19348 3.76864L7.83097 10.4999Z" fill="#318FFF"/>
</svg>
