<svg width="13" height="21" viewBox="0 0 13 21" fill="none" xmlns="http://www.w3.org/2000/svg">
<path d="M5.16903 10.5001L11.8065 3.86261C12.1557 3.5113 12.3518 3.03608 12.3518 2.54073C12.3518 2.04539 12.1557 1.57016 11.8065 1.21886C11.6322 1.04312 11.4248 0.903629 11.1964 0.808438C10.9679 0.713247 10.7228 0.664238 10.4753 0.664238C10.2278 0.664238 9.98268 0.713247 9.75419 0.808438C9.52571 0.903629 9.31833 1.04312 9.14403 1.21886L1.19403 9.16886C1.01829 9.34316 0.878796 9.55054 0.783605 9.77903C0.688414 10.0075 0.639404 10.2526 0.639404 10.5001C0.639404 10.7476 0.688414 10.9927 0.783605 11.2212C0.878796 11.4497 1.01829 11.6571 1.19403 11.8314L9.14403 19.8751C9.31923 20.0489 9.52701 20.1864 9.75545 20.2797C9.9839 20.373 10.2285 20.4203 10.4753 20.4189C10.722 20.4203 10.9667 20.373 11.1951 20.2797C11.4235 20.1864 11.6313 20.0489 11.8065 19.8751C12.1557 19.5238 12.3518 19.0486 12.3518 18.5532C12.3518 18.0579 12.1557 17.5827 11.8065 17.2314L5.16903 10.5001Z" fill="#D8D8D8"/>
</svg>
