<svg width="306" height="225" viewBox="0 0 306 225" fill="none" xmlns="http://www.w3.org/2000/svg">
<g clip-path="url(#clip0_330_4432)">
<path d="M270.613 135.193C252.245 120.07 227.636 119.917 204.517 104.556C175.876 85.5327 145.707 51.1349 104.781 65.6415C82.11 73.6811 75.9156 102.036 75.0234 106.553C74.8459 107.449 74.659 108.335 74.4441 109.222C72.6409 116.636 69.6932 141.114 41.3841 161.579C8.92673 185.045 18.7135 214.109 29.6774 224.309H254.095C300.076 189.001 293.971 154.431 270.613 135.193Z" fill="#C6D8E8"/>
<path d="M72.0806 71.9875C71.3892 68.8046 69.7754 65.8953 67.4404 63.6219C65.1054 61.3485 62.1524 59.8116 58.9491 59.2026C50.7087 57.5509 37.2969 58.5587 22.7919 74.7031C-0.943797 101.117 18.4148 119.03 34.1389 116.002C48.2608 113.3 76.4064 92.8772 72.0806 71.9875Z" fill="#C6D8E8"/>
<path d="M280.423 142.136H303.099C303.868 142.136 304.606 142.442 305.15 142.985C305.694 143.528 306 144.265 306 145.034V166.152C306 166.921 305.694 167.658 305.15 168.201C304.606 168.744 303.868 169.05 303.099 169.05H281.348C280.334 169.05 279.361 168.647 278.643 167.93C277.926 167.214 277.522 166.242 277.522 165.228V145.029C277.524 144.261 277.83 143.526 278.374 142.983C278.918 142.441 279.655 142.136 280.423 142.136Z" fill="#318FFF"/>
<path d="M286.365 150.022C285.293 151.093 284.562 152.457 284.266 153.942C283.97 155.428 284.121 156.968 284.701 158.367C285.282 159.766 286.264 160.962 287.525 161.804C288.786 162.646 290.268 163.095 291.784 163.095C293.301 163.095 294.783 162.646 296.044 161.804C297.304 160.962 298.287 159.766 298.867 158.367C299.447 156.968 299.599 155.428 299.303 153.942C299.006 152.457 298.276 151.093 297.203 150.022C295.762 148.594 293.814 147.792 291.784 147.792C289.754 147.792 287.806 148.594 286.365 150.022ZM297.185 151.128H294.741C294.493 150.337 294.181 149.568 293.807 148.827C295.131 149.24 296.3 150.042 297.161 151.128H297.185ZM288.967 154.991C288.969 153.991 289.091 152.995 289.332 152.024H294.232C294.475 152.994 294.598 153.991 294.597 154.991H288.967ZM294.573 155.887C294.5 156.892 294.323 157.886 294.045 158.855H289.528C289.252 157.886 289.077 156.892 289.005 155.887H294.573ZM291.77 148.529C292.132 148.531 292.492 148.559 292.849 148.613C293.303 149.412 293.676 150.254 293.961 151.128H289.575C289.862 150.255 290.235 149.413 290.687 148.613C291.042 148.559 291.401 148.531 291.761 148.529H291.77ZM289.762 148.827C289.388 149.568 289.076 150.337 288.827 151.128H286.365C287.237 150.038 288.417 149.236 289.752 148.827H289.762ZM285.749 152.028H288.552C288.309 152.999 288.177 153.995 288.159 154.996H284.866C284.928 153.952 285.23 152.937 285.749 152.028ZM285.749 158.859C285.23 157.951 284.926 156.936 284.861 155.892H288.169C288.219 156.895 288.376 157.889 288.636 158.859H285.749ZM286.356 159.751H288.897C289.155 160.549 289.468 161.328 289.832 162.084C288.463 161.679 287.253 160.862 286.365 159.746L286.356 159.751ZM291.761 162.35C291.458 162.348 291.155 162.328 290.855 162.289C290.439 161.468 290.08 160.62 289.78 159.751H293.737C293.437 160.619 293.08 161.467 292.667 162.289C292.367 162.326 292.064 162.345 291.761 162.345V162.35ZM293.676 162.079C294.04 161.323 294.353 160.544 294.611 159.746H297.152C296.261 160.861 295.047 161.674 293.676 162.074V162.079ZM297.768 158.859H294.886C295.142 157.888 295.298 156.894 295.353 155.892H298.661C298.594 156.934 298.288 157.948 297.768 158.855V158.859ZM298.661 154.996H295.363C295.346 153.995 295.216 153 294.975 152.028H297.778C298.296 152.935 298.598 153.949 298.661 154.991V154.996Z" fill="white"/>
<path d="M71.735 43.7627H57.5804C55.2094 43.7627 53.2874 45.6825 53.2874 48.0508V61.1342C53.2874 63.5025 55.2094 65.4223 57.5804 65.4223H71.735C74.106 65.4223 76.0281 63.5025 76.0281 61.1342V48.0508C76.0281 45.6825 74.106 43.7627 71.735 43.7627Z" fill="#318FFF"/>
<path d="M61.1682 51.2703L68.1466 57.9147" stroke="white" stroke-width="1.4293" stroke-linecap="round" stroke-linejoin="round"/>
<path d="M68.1466 51.2703L61.1682 57.9147" stroke="white" stroke-width="1.4293" stroke-linecap="round" stroke-linejoin="round"/>
<path d="M268.581 71.726C275.297 71.726 280.741 66.2883 280.741 59.5804C280.741 52.8726 275.297 47.4348 268.581 47.4348C261.866 47.4348 256.421 52.8726 256.421 59.5804C256.421 66.2883 261.866 71.726 268.581 71.726Z" fill="#1F0C07"/>
<path d="M265.004 62.9071C265.209 63.066 265.345 63.2986 265.382 63.5557L265.438 64.3069C265.464 64.5305 265.558 64.7405 265.709 64.9077C265.86 65.075 266.059 65.1912 266.279 65.2401C267.785 65.618 269.361 65.618 270.866 65.2401C271.092 65.1845 271.295 65.062 271.449 64.8887C271.603 64.7155 271.701 64.4996 271.73 64.2696L271.782 63.5184C271.79 63.3882 271.828 63.2616 271.893 63.149C271.959 63.0363 272.051 62.9407 272.16 62.8698C272.834 62.3292 273.37 61.6377 273.727 60.8514C274.083 60.0651 274.249 59.2061 274.211 58.3438C274.211 54.611 271.73 53.1692 268.605 53.1692C265.48 53.1692 262.999 54.625 262.999 58.3438C262.953 60.4108 263.766 61.9739 265.004 62.9071ZM270.992 58.2411C271.172 58.2433 271.348 58.2848 271.51 58.3627C271.671 58.4405 271.813 58.5529 271.927 58.6917C272.04 58.8306 272.121 58.9926 272.165 59.1663C272.208 59.34 272.213 59.5212 272.179 59.6969C272.071 60.3968 271.712 60.9334 270.67 60.8261C269.628 60.7188 269.376 60.0702 269.483 59.3703C269.493 59.191 269.542 59.0159 269.627 58.8575C269.711 58.699 269.83 58.5611 269.974 58.4534C270.118 58.3457 270.283 58.2709 270.459 58.2342C270.635 58.1976 270.817 58.1999 270.992 58.2411ZM267.722 62.6598L268.316 61.26C268.34 61.2019 268.382 61.1523 268.434 61.1175C268.487 61.0826 268.549 61.0641 268.612 61.0641C268.675 61.0641 268.737 61.0826 268.79 61.1175C268.843 61.1523 268.884 61.2019 268.909 61.26L269.502 62.6598C269.521 62.7237 269.526 62.7909 269.516 62.8568C269.507 62.9227 269.484 62.9859 269.448 63.042C269.412 63.0981 269.364 63.1459 269.309 63.1822C269.253 63.2185 269.19 63.2425 269.124 63.2524H268.147C267.755 63.2664 267.54 62.9398 267.704 62.6738L267.722 62.6598ZM266.139 58.2411C266.313 58.2048 266.494 58.206 266.668 58.2447C266.842 58.2834 267.006 58.3586 267.148 58.4654C267.291 58.5722 267.409 58.7082 267.496 58.8642C267.582 59.0202 267.633 59.1927 267.648 59.3703C267.755 60.0702 267.484 60.7188 266.461 60.8261C265.438 60.9334 265.06 60.3968 264.952 59.6969C264.912 59.5205 264.912 59.3371 264.953 59.1608C264.994 58.9845 265.075 58.8199 265.189 58.6795C265.304 58.5391 265.449 58.4267 265.613 58.3507C265.778 58.2747 265.958 58.2373 266.139 58.2411Z" fill="white"/>
<path d="M24.2216 132.813H3.62039C1.6209 132.813 0 134.432 0 136.43V154.506C0 156.503 1.6209 158.122 3.62039 158.122H24.2216C26.2211 158.122 27.842 156.503 27.842 154.506V136.43C27.842 134.432 26.2211 132.813 24.2216 132.813Z" fill="#1F0C07"/>
<path d="M9.66971 149.611C9.9183 149.795 10.0858 150.067 10.1369 150.372L10.2023 151.258C10.2258 151.532 10.3372 151.79 10.5199 151.996C10.7026 152.201 10.9467 152.341 11.216 152.397C12.9849 152.845 14.8379 152.845 16.6068 152.397C16.8722 152.333 17.1117 152.189 17.2936 151.986C17.4755 151.783 17.5912 151.529 17.6252 151.258L17.686 150.372C17.6972 150.217 17.7455 150.067 17.8268 149.935C17.9081 149.802 18.02 149.691 18.1531 149.611C19.6153 148.468 20.5636 146.695 20.5636 144.287C20.5636 139.915 17.6486 138.221 13.9675 138.221C10.2863 138.221 7.36667 139.934 7.36667 144.287C7.25923 146.695 8.20754 148.533 9.66971 149.611ZM16.7143 144.161C16.9255 144.162 17.1339 144.21 17.3246 144.3C17.5153 144.391 17.6836 144.522 17.8175 144.686C17.9514 144.849 18.0475 145.039 18.0991 145.244C18.1506 145.449 18.1563 145.662 18.1157 145.869C17.9896 146.695 17.5458 147.329 16.3406 147.203C15.1353 147.078 14.8177 146.317 14.9391 145.491C14.9506 145.28 15.0083 145.074 15.108 144.888C15.2077 144.702 15.347 144.539 15.5162 144.413C15.6854 144.286 15.8804 144.198 16.0874 144.154C16.2943 144.111 16.5083 144.113 16.7143 144.161ZM12.8416 149.355L13.5517 147.707C13.5801 147.638 13.6286 147.578 13.691 147.536C13.7534 147.495 13.8269 147.472 13.9021 147.472C13.9772 147.472 14.0507 147.495 14.1131 147.536C14.1755 147.578 14.224 147.638 14.2524 147.707L14.9531 149.355C14.9807 149.43 14.9905 149.51 14.982 149.59C14.9734 149.669 14.9467 149.746 14.9038 149.814C14.8609 149.881 14.803 149.938 14.7346 149.98C14.6662 150.022 14.5892 150.047 14.5094 150.054H13.3508C12.907 150.054 12.6501 149.695 12.8416 149.355ZM11.0011 144.161C11.2066 144.118 11.419 144.119 11.6241 144.165C11.8291 144.21 12.0221 144.299 12.1901 144.425C12.3581 144.551 12.4973 144.711 12.5984 144.895C12.6995 145.079 12.7601 145.282 12.7762 145.491C12.907 146.317 12.5894 147.078 11.3748 147.203C10.1602 147.329 9.72109 146.695 9.59496 145.869C9.46883 145.043 9.86124 144.287 11.0011 144.161Z" fill="white"/>
<path d="M196.519 42.601C196.466 42.268 196.314 41.9584 196.084 41.7115C195.854 41.4646 195.556 41.2915 195.227 41.2141C194.898 41.1367 194.554 41.1586 194.238 41.2769C193.922 41.3953 193.648 41.6047 193.451 41.8788C193.254 42.1528 193.143 42.4791 193.132 42.8162C193.121 43.1533 193.21 43.4861 193.389 43.7724C193.568 44.0587 193.827 44.2856 194.135 44.4243C194.443 44.563 194.785 44.6072 195.118 44.5514C195.562 44.4771 195.959 44.2302 196.221 43.8648C196.484 43.4994 196.591 43.0451 196.519 42.601Z" fill="white"/>
<path d="M9.44547 175.475C9.39179 175.142 9.24032 174.832 9.01028 174.585C8.78024 174.338 8.48197 174.165 8.15331 174.088C7.82465 174.01 7.48039 174.032 7.16418 174.15C6.84797 174.269 6.57406 174.478 6.37718 174.752C6.18029 175.026 6.06931 175.353 6.05828 175.69C6.04726 176.027 6.1367 176.36 6.31526 176.646C6.49383 176.932 6.75347 177.159 7.06127 177.298C7.36908 177.436 7.71117 177.481 8.04419 177.425C8.48824 177.351 8.88481 177.104 9.14734 176.738C9.40987 176.373 9.51705 175.919 9.44547 175.475Z" fill="white"/>
<path d="M31.5739 45.7363C31.5202 45.4033 31.3687 45.0937 31.1387 44.8468C30.9087 44.5998 30.6104 44.4267 30.2817 44.3494C29.9531 44.272 29.6088 44.2939 29.2926 44.4122C28.9764 44.5305 28.7025 44.74 28.5056 45.014C28.3087 45.2881 28.1977 45.6143 28.1867 45.9515C28.1757 46.2886 28.2651 46.6214 28.4437 46.9077C28.6222 47.194 28.8819 47.4208 29.1897 47.5595C29.4975 47.6982 29.8396 47.7425 30.1726 47.6867C30.6167 47.6123 31.0132 47.3655 31.2758 47.0001C31.5383 46.6347 31.6455 46.1804 31.5739 45.7363Z" fill="white"/>
<path d="M132.712 47.4396H99.974C99.7109 47.4396 99.4586 47.3355 99.2721 47.1502C99.0856 46.9648 98.9802 46.7132 98.979 46.4504C98.979 46.1868 99.0838 45.934 99.2704 45.7476C99.457 45.5613 99.7101 45.4565 99.974 45.4565H132.698C132.828 45.4565 132.957 45.4823 133.078 45.5323C133.198 45.5823 133.308 45.6556 133.4 45.7479C133.492 45.8403 133.564 45.9499 133.614 46.0704C133.663 46.191 133.689 46.3201 133.688 46.4504C133.688 46.7103 133.586 46.9599 133.403 47.145C133.22 47.3301 132.972 47.4359 132.712 47.4396Z" fill="#7BCCA9"/>
<path d="M28.7993 197.405H10.8188C10.6874 197.406 10.557 197.381 10.4352 197.332C10.3134 197.282 10.2026 197.209 10.1092 197.117C10.0158 197.025 9.94167 196.915 9.89108 196.793C9.84049 196.672 9.81445 196.542 9.81445 196.411C9.81444 196.28 9.84051 196.15 9.89116 196.029C9.9418 195.908 10.016 195.799 10.1095 195.706C10.2029 195.614 10.3137 195.542 10.4355 195.493C10.5573 195.444 10.6876 195.42 10.8188 195.422H28.7993C29.062 195.422 29.3139 195.526 29.4996 195.711C29.6853 195.897 29.7897 196.149 29.7897 196.411C29.7903 196.541 29.7651 196.67 29.7156 196.791C29.6661 196.911 29.5933 197.021 29.5013 197.113C29.4092 197.206 29.2998 197.279 29.1794 197.329C29.0589 197.379 28.9298 197.405 28.7993 197.405Z" fill="#318FFF"/>
<path d="M301.249 64.6755H298.32C297.551 64.6755 296.928 65.2981 296.928 66.066V68.8143C296.928 69.5822 297.551 70.2048 298.32 70.2048H301.249C302.017 70.2048 302.641 69.5822 302.641 68.8143V66.066C302.641 65.2981 302.017 64.6755 301.249 64.6755Z" fill="#7BCCA9"/>
<path d="M6.9832 65.6978H4.05453C3.28579 65.6978 2.6626 66.3203 2.6626 67.0882V69.8365C2.6626 70.6044 3.28579 71.227 4.05453 71.227H6.9832C7.75195 71.227 8.37514 70.6044 8.37514 69.8365V67.0882C8.37514 66.3203 7.75195 65.6978 6.9832 65.6978Z" fill="#318FFF"/>
<path d="M270.669 85.3648C270.661 85.9731 270.473 86.5654 270.128 87.0671C269.784 87.5689 269.298 87.9577 268.733 88.1845C268.168 88.4114 267.548 88.4662 266.952 88.3422C266.356 88.2181 265.81 87.9206 265.382 87.4872C264.955 87.0538 264.665 86.5037 264.55 85.9063C264.435 85.3089 264.499 84.6908 264.735 84.1298C264.97 83.5687 265.367 83.0898 265.874 82.7533C266.382 82.4168 266.977 82.2377 267.586 82.2385C267.994 82.2416 268.397 82.3249 268.773 82.4836C269.149 82.6424 269.49 82.8735 269.776 83.1638C270.062 83.4541 270.288 83.7979 270.442 84.1755C270.595 84.5532 270.672 84.9573 270.669 85.3648V85.3648Z" stroke="white" stroke-width="0.45308" stroke-linecap="round" stroke-linejoin="round"/>
<path d="M10.496 118.685C10.4868 119.312 10.2922 119.923 9.93662 120.44C9.58104 120.957 9.08036 121.357 8.49752 121.591C7.91469 121.825 7.27569 121.881 6.66086 121.753C6.04603 121.625 5.48279 121.319 5.04194 120.872C4.60109 120.425 4.3023 119.858 4.18313 119.242C4.06395 118.626 4.1297 117.988 4.37212 117.41C4.61454 116.831 5.02281 116.337 5.54562 115.989C6.06842 115.641 6.68243 115.456 7.31047 115.456C7.73188 115.459 8.14856 115.545 8.53671 115.709C8.92487 115.873 9.2769 116.111 9.57271 116.411C9.86852 116.711 10.1023 117.066 10.2607 117.456C10.4192 117.846 10.4991 118.264 10.496 118.685Z" stroke="white" stroke-width="0.45308" stroke-linecap="round" stroke-linejoin="round"/>
<path d="M181.631 58.4746H206.488" stroke="white" stroke-width="0.45308" stroke-linecap="round" stroke-linejoin="round"/>
<path d="M2.37305 90.8191H18.6438" stroke="white" stroke-width="0.45308" stroke-linecap="round" stroke-linejoin="round"/>
<path d="M282.698 182.884H298.39" stroke="white" stroke-width="0.45308" stroke-linecap="round" stroke-linejoin="round"/>
<path d="M247.672 77.7358H53.4091C50.9013 77.7358 48.8684 79.7664 48.8684 82.2712V196.64C48.8684 199.144 50.9013 201.175 53.4091 201.175H247.672C250.18 201.175 252.213 199.144 252.213 196.64V82.2712C252.213 79.7664 250.18 77.7358 247.672 77.7358Z" fill="#318FFF"/>
<path d="M247.284 82.0518H53.8013V196.864H247.284V82.0518Z" fill="white"/>
<path d="M131.782 197.312L128.175 220.572H174.717L171.298 197.312H131.782Z" fill="#318FFF"/>
<path d="M179.198 220.572H123.691V224.309H179.198V220.572Z" fill="#4471D8"/>
<path d="M131.184 201.175H171.868L172.396 204.782L130.956 202.65L131.184 201.175Z" fill="#4471D8"/>
<path d="M230.868 99.9041H167.934C166.559 99.9041 165.444 101.018 165.444 102.391V176.972C165.444 178.346 166.559 179.459 167.934 179.459H230.868C232.243 179.459 233.358 178.346 233.358 176.972V102.391C233.358 101.018 232.243 99.9041 230.868 99.9041Z" fill="#DBE6F1"/>
<path d="M209.787 124.83V118.727C209.787 116.38 208.855 114.128 207.195 112.466C205.536 110.804 203.284 109.868 200.934 109.861V109.861C199.299 109.86 197.696 110.312 196.302 111.166C194.909 112.02 193.779 113.244 193.039 114.7" stroke="#FFFFFC" stroke-width="1.95712" stroke-miterlimit="10"/>
<path d="M188.321 122.245H213.08C213.623 122.245 214.145 122.461 214.53 122.845C214.914 123.229 215.13 123.75 215.13 124.293V139.574C215.13 142.619 213.92 145.538 211.764 147.691C209.609 149.843 206.686 151.053 203.638 151.053H197.757C194.709 151.053 191.786 149.843 189.631 147.691C187.476 145.538 186.265 142.619 186.265 139.574V124.317C186.262 124.045 186.313 123.776 186.415 123.524C186.517 123.273 186.668 123.044 186.859 122.851C187.05 122.659 187.278 122.506 187.529 122.402C187.78 122.298 188.049 122.244 188.321 122.245Z" fill="#EBAE5C"/>
<path d="M203.965 132.683C203.966 133.348 203.769 133.999 203.399 134.553C203.03 135.107 202.504 135.539 201.889 135.794C201.274 136.05 200.596 136.117 199.943 135.988C199.289 135.858 198.689 135.538 198.217 135.068C197.746 134.598 197.425 133.998 197.294 133.345C197.164 132.693 197.23 132.016 197.485 131.401C197.74 130.786 198.172 130.26 198.725 129.891C199.279 129.521 199.931 129.323 200.597 129.323C201.489 129.323 202.345 129.677 202.977 130.307C203.608 130.937 203.963 131.791 203.965 132.683Z" fill="black"/>
<path d="M199.602 135.021L196.884 142.808H204.492L201.582 135.021H199.602Z" fill="black"/>
<path d="M217.284 168.727H182.626C181.377 168.727 180.18 168.232 179.297 167.35C178.414 166.468 177.917 165.272 177.917 164.024C177.917 163.407 178.039 162.795 178.276 162.225C178.513 161.655 178.86 161.136 179.297 160.7C179.734 160.264 180.253 159.918 180.825 159.682C181.396 159.446 182.008 159.325 182.626 159.325H217.284C217.902 159.325 218.514 159.446 219.086 159.682C219.657 159.918 220.176 160.264 220.613 160.7C221.051 161.136 221.398 161.655 221.634 162.225C221.871 162.795 221.993 163.407 221.993 164.024C221.993 165.272 221.497 166.468 220.614 167.35C219.731 168.232 218.533 168.727 217.284 168.727Z" fill="white"/>
<path d="M190.913 162.373L189.797 163.838V163.861L191.572 163.628V164.426L189.797 164.216V164.239L190.927 165.639L190.185 166.059L189.479 164.416H189.456L188.695 166.073L188.027 165.648L189.143 164.216V164.192L187.401 164.416V163.618L189.129 163.842L188.027 162.41L188.741 161.999L189.47 163.628H189.493L190.208 161.985L190.913 162.373Z" fill="black"/>
<path d="M198.351 162.373L197.234 163.838V163.861L199.009 163.628V164.426L197.234 164.216V164.239L198.365 165.639L197.622 166.059L196.917 164.416L196.155 166.073L195.487 165.648L196.604 164.216V164.192L194.861 164.416V163.618L196.59 163.842L195.487 162.41L196.202 161.999L196.931 163.628H196.954L197.669 161.985L198.351 162.373Z" fill="black"/>
<path d="M205.787 162.373L204.671 163.838V163.861L206.446 163.628V164.426L204.671 164.216V164.239L205.801 165.639L205.058 166.059L204.353 164.416H204.33L203.568 166.073L202.9 165.648L204.017 164.216V164.192L202.274 164.416V163.618L204.003 163.842L202.9 162.41L203.615 161.999L204.344 163.628H204.367L205.082 161.985L205.787 162.373Z" fill="black"/>
<path d="M213.224 162.373L212.112 163.838V163.861L213.882 163.628V164.426L212.112 164.216V164.239L213.238 165.639L212.495 166.059L211.79 164.416H211.766L211.005 166.073L210.337 165.648L211.453 164.216V164.192L209.711 164.416V163.618L211.439 163.842L210.337 162.41L211.052 161.999L211.78 163.628H211.804L212.523 161.985L213.224 162.373Z" fill="black"/>
<path d="M168.851 80.4969C171.229 72.8049 166.914 64.6437 159.212 62.2685C151.511 59.8933 143.341 64.2035 140.963 71.8955C138.585 79.5876 142.9 87.7487 150.601 90.1239C158.302 92.4991 166.473 88.189 168.851 80.4969Z" fill="#1F0C07"/>
<path d="M156.797 81.7907C156.797 84.2683 153.032 84.2683 153.032 81.7907C153.032 79.313 156.797 79.2897 156.797 81.7907ZM156.573 69.1411L156.498 78.4031H153.322C153.322 74.899 153.256 72.6686 153.256 69.1411H156.573Z" fill="white"/>
<path d="M154.822 99.0361H67.489C66.6066 99.0361 65.8914 99.7506 65.8914 100.632V146.139C65.8914 147.021 66.6066 147.735 67.489 147.735H154.822C155.704 147.735 156.42 147.021 156.42 146.139V100.632C156.42 99.7506 155.704 99.0361 154.822 99.0361Z" fill="#DBE6F1"/>
<path d="M139.63 119.809L122.99 106.759L105.86 119.809H139.63Z" fill="#1F0C07"/>
<path d="M139.63 119.809H106.351V137.479H139.63V119.809Z" fill="#CC8938"/>
<path d="M134.113 106.259H111.438V135.702H134.113V106.259Z" fill="white"/>
<path d="M105.86 119.805V141.296H131.315L110.718 121.051C109.908 120.252 108.816 119.804 107.677 119.805H105.86Z" fill="#EDBA76"/>
<path d="M139.63 119.805V141.296H114.171L134.758 121.036C135.568 120.238 136.661 119.79 137.799 119.791L139.63 119.805Z" fill="#EBAE5C"/>
<path d="M115.1 110.51H130.88" stroke="#DBE6F1" stroke-width="0.485776" stroke-linecap="round" stroke-linejoin="round"/>
<path d="M115.1 113.93H130.88" stroke="#DBE6F1" stroke-width="0.485776" stroke-linecap="round" stroke-linejoin="round"/>
<path d="M115.1 117.345H130.88" stroke="#DBE6F1" stroke-width="0.485776" stroke-linecap="round" stroke-linejoin="round"/>
<path d="M115.1 120.766H122.387" stroke="#DBE6F1" stroke-width="0.485776" stroke-linecap="round" stroke-linejoin="round"/>
<path d="M153.963 155.14H68.3719C67.0019 155.14 65.8914 156.249 65.8914 157.618V176.762C65.8914 178.131 67.0019 179.24 68.3719 179.24H153.963C155.333 179.24 156.443 178.131 156.443 176.762V157.618C156.443 156.249 155.333 155.14 153.963 155.14Z" fill="#DBE6F1"/>
<path d="M108.761 172.596C108.081 172.596 107.409 172.462 106.781 172.202C106.154 171.942 105.584 171.561 105.104 171.081C104.624 170.601 104.244 170.031 103.985 169.404C103.726 168.776 103.593 168.104 103.594 167.426C103.603 166.062 104.151 164.758 105.119 163.796C106.086 162.835 107.396 162.294 108.761 162.293C110.126 162.294 111.435 162.835 112.403 163.796C113.371 164.758 113.919 166.062 113.927 167.426C113.929 168.104 113.796 168.776 113.537 169.404C113.278 170.031 112.897 170.601 112.417 171.081C111.937 171.561 111.367 171.942 110.74 172.202C110.113 172.462 109.44 172.596 108.761 172.596Z" fill="#318FFF"/>
<path d="M119.389 167.626H148.478" stroke="white" stroke-width="0.667942" stroke-linecap="round" stroke-linejoin="round"/>
<path d="M119.389 163.828H137.697" stroke="white" stroke-width="0.667942" stroke-linecap="round" stroke-linejoin="round"/>
<path d="M119.389 171.499H124.92" stroke="white" stroke-width="0.667942" stroke-linecap="round" stroke-linejoin="round"/>
<path d="M77.2383 213.656L83.3486 214.711L92.514 221.85L75.1829 218.649L77.2383 213.656Z" fill="#101010"/>
<path d="M74.7297 220.922L75.1829 218.649L92.514 221.85L92.0609 224.123L74.7297 220.922Z" fill="white"/>
<path d="M85.8987 206.294L79.6763 205.22L77.2378 213.657L83.4649 214.73L85.8987 206.294Z" fill="#EBAE89"/>
<path d="M84.1384 157.716L94.1821 182.824C94.6589 183.944 94.7749 185.185 94.5137 186.374L87.1702 210.955L76.6454 208.734L82.9051 185.819L69.1897 157.683L84.1384 157.716Z" fill="#1F0C07"/>
<path d="M62.2891 216.554L68.4881 216.489L78.8027 221.85L61.1726 221.836L62.2891 216.554Z" fill="#101010"/>
<path d="M61.1406 224.155L61.1733 221.836L78.8035 221.85L78.7661 224.169L61.1406 224.155Z" fill="white"/>
<path d="M69.4732 207.745L63.1581 207.815L62.2893 216.554L68.6091 216.484L69.4732 207.745Z" fill="#EBAE89"/>
<path d="M65.1486 157.263C65.1486 157.263 63.5416 161.892 64.0274 169.329L61.061 211.953H71.6466L75.0848 180.663L76.617 157.198L65.1486 157.263Z" fill="#1F0C07"/>
<path d="M73.0053 122.166C72.1781 122.249 71.4061 122.618 70.822 123.209C70.238 123.8 69.8786 124.576 69.8057 125.404C69.8057 125.404 72.8791 124.032 73.0053 122.166Z" fill="#39405F"/>
<path d="M73.4025 122.25C72.7984 121.679 72.0138 121.336 71.184 121.282C70.3542 121.227 69.5314 121.464 68.8577 121.951C68.8577 121.951 71.9451 123.383 73.4025 122.25Z" fill="#39405F"/>
<path d="M80.1953 119.833C80.2715 120.173 80.4473 120.484 80.7003 120.725C80.9533 120.966 81.2721 121.126 81.6165 121.186C81.9608 121.246 82.3152 121.202 82.6347 121.06C82.9541 120.919 83.2243 120.685 83.411 120.39C83.5977 120.095 83.6925 119.751 83.6835 119.402C83.6744 119.053 83.5618 118.715 83.36 118.43C83.1582 118.145 82.8763 117.926 82.5499 117.801C82.2235 117.676 81.8673 117.651 81.5265 117.728C81.0711 117.832 80.6754 118.111 80.4259 118.506C80.1764 118.9 80.0935 119.377 80.1953 119.833Z" fill="#D78D67"/>
<path d="M77.4856 123.78L77.3314 130.48L71.7964 130.326L73.3985 118.993L77.4856 123.78Z" fill="#EBAE89"/>
<path d="M79.929 111.938C81.7135 112.176 82.5824 114.061 82.7599 115.755C82.9608 117.705 83.0075 120.337 82.4002 121.821C81.4659 124.112 79.3357 125.843 76.3273 125.026C76.3273 125.026 73.0572 124.597 72.5621 119.287C71.9454 112.997 76.1498 111.434 79.929 111.938Z" fill="#EBAE89"/>
<path d="M73.3184 119.688L71.8843 115.488C72.4589 114.191 73.3278 114.387 73.3278 114.387C73.3278 114.303 74.5097 113.711 74.491 113.622C78.3029 109.768 81.9139 113.267 81.9139 113.267C81.9139 113.267 80.5125 109.744 74.6358 110.211C70.5062 110.538 68.3573 113.781 68.5302 116.473C68.7404 119.678 70.8332 120.565 72.884 122.651L73.3184 119.688Z" fill="#1F0C07"/>
<path d="M73.9587 114.173C74.3657 113.657 74.9113 113.268 75.5317 113.05C76.1521 112.833 76.8216 112.797 77.4619 112.946C79.2743 113.37 82.2123 113.785 80.6569 112.143C80.6569 112.143 79.2322 110.603 76.1681 111.121C73.104 111.639 73.9587 114.173 73.9587 114.173Z" fill="#1F0C07"/>
<path d="M73.594 119.991C73.594 119.991 75.5931 116.132 73.6734 112.787L71.4033 114.117L71.819 118.535L73.594 119.991Z" fill="#1F0C07"/>
<path d="M70.221 120.066C70.3084 120.438 70.504 120.776 70.7831 121.037C71.0622 121.298 71.4124 121.471 71.7896 121.533C72.1668 121.596 72.5542 121.546 72.9029 121.39C73.2517 121.233 73.5463 120.977 73.7497 120.653C73.953 120.33 74.0561 119.953 74.0458 119.572C74.0356 119.19 73.9125 118.819 73.6921 118.507C73.4717 118.195 73.1638 117.955 72.8071 117.817C72.4505 117.68 72.061 117.65 71.6877 117.733C71.4373 117.789 71.2004 117.893 70.9908 118.041C70.7811 118.189 70.603 118.377 70.4665 118.594C70.3301 118.811 70.2382 119.052 70.196 119.305C70.1539 119.558 70.1624 119.817 70.221 120.066Z" fill="#EBAE89"/>
<path d="M71.2825 119.011C71.4805 118.966 71.6861 118.965 71.8848 119.007C72.0835 119.049 72.2706 119.134 72.4332 119.256C72.5958 119.377 72.73 119.533 72.8265 119.711C72.923 119.89 72.9795 120.087 72.992 120.29" stroke="#1D0006" stroke-width="0.144799" stroke-linecap="round" stroke-linejoin="round"/>
<path d="M81.7175 118.26C81.7318 118.339 81.7689 118.411 81.8242 118.468C81.8795 118.525 81.9505 118.564 82.0283 118.581C82.106 118.598 82.1869 118.591 82.2608 118.562C82.3347 118.532 82.3982 118.482 82.4433 118.416C82.4885 118.351 82.5132 118.274 82.5144 118.194C82.5155 118.115 82.4931 118.037 82.4499 117.97C82.4067 117.903 82.3447 117.851 82.2717 117.819C82.1987 117.788 82.118 117.779 82.0398 117.793C81.9364 117.815 81.8451 117.875 81.7851 117.962C81.7251 118.049 81.7009 118.156 81.7175 118.26Z" fill="#1F0C07"/>
<path d="M78.3124 118.26C78.3267 118.339 78.3638 118.411 78.4191 118.468C78.4744 118.525 78.5455 118.564 78.6232 118.581C78.7009 118.598 78.7818 118.591 78.8557 118.562C78.9296 118.532 78.9931 118.482 79.0382 118.416C79.0834 118.351 79.1081 118.274 79.1093 118.194C79.1104 118.115 79.088 118.037 79.0448 117.97C79.0016 117.903 78.9396 117.851 78.8666 117.819C78.7936 117.788 78.7129 117.779 78.6347 117.793C78.5301 117.813 78.4374 117.873 78.377 117.96C78.3166 118.048 78.2933 118.156 78.3124 118.26Z" fill="#1F0C07"/>
<path d="M80.7744 118.755L81.377 120.047C81.3838 120.077 81.3846 120.107 81.3792 120.137C81.3739 120.167 81.3626 120.195 81.3461 120.22C81.3295 120.246 81.3079 120.267 81.2827 120.284C81.2576 120.301 81.2292 120.312 81.1995 120.318L80.7744 120.402" stroke="#1D0006" stroke-width="0.144799" stroke-linecap="round" stroke-linejoin="round"/>
<path d="M81.1574 116.137C81.1877 116.211 81.2331 116.277 81.2908 116.332C81.3484 116.386 81.4169 116.428 81.4918 116.455C81.5667 116.481 81.6464 116.491 81.7256 116.485C81.8048 116.478 81.8818 116.455 81.9515 116.417C82.2423 116.237 82.5567 116.097 82.8856 116.002C82.9243 115.993 82.9607 115.977 82.9926 115.954C83.0246 115.93 83.0513 115.901 83.071 115.866C83.0908 115.832 83.1032 115.794 83.1075 115.755C83.1118 115.715 83.1078 115.676 83.0958 115.638C83.0811 115.564 83.0487 115.495 83.0016 115.437C82.9544 115.378 82.8938 115.332 82.8249 115.302C82.6258 115.207 82.408 115.158 82.1873 115.158C81.9667 115.158 81.7489 115.207 81.5498 115.302C80.9192 115.633 81.1574 116.137 81.1574 116.137Z" fill="#1F0C07"/>
<path d="M79.4658 116.16C79.4658 116.16 79.3116 116.767 78.597 116.459C78.0703 116.261 77.5237 116.12 76.9668 116.039C76.8702 116.023 76.7824 115.973 76.7184 115.899C76.6544 115.825 76.6184 115.731 76.6165 115.633C76.6152 115.556 76.6372 115.48 76.6797 115.415C76.7221 115.35 76.7831 115.299 76.8547 115.269C77.4722 115.055 78.1426 115.047 78.7651 115.246C79.6152 115.633 79.4658 116.16 79.4658 116.16Z" fill="#1F0C07"/>
<path d="M73.0901 121.311L81.0783 119.576L82.8114 119.991C82.622 122.536 81.8208 124.998 80.4757 127.167C80.4757 127.167 75.8976 126.416 73.0901 121.311Z" fill="#39405F"/>
<path d="M73.0895 121.312L71.4453 121.615L72.884 122.642L76.1676 122.548L73.0895 121.312Z" fill="#39405F"/>
<path d="M74.6367 129.818L82.9052 130.877C84.3861 131.073 85.1008 133.448 85.0121 134.353L84.1385 157.716L65.0369 157.669L63.2477 134.885C63.0094 133.019 64.1306 130.839 65.8217 130.797L74.6367 129.818Z" fill="#39405F"/>
<path d="M83.5633 131.134C83.5633 131.134 89.7663 132.748 89.3273 148.015L81.709 148.379L82.4377 132.547L83.5633 131.134Z" fill="#39405F"/>
<path d="M70.175 131.134L70.6422 128.306C70.6899 128.1 70.8107 127.917 70.9825 127.793C71.1542 127.669 71.3652 127.611 71.5765 127.629L77.8596 127.793C78.077 127.785 78.2891 127.861 78.4518 128.005C78.6145 128.149 78.7153 128.351 78.7332 128.567L79.2797 131.474L70.175 131.134Z" fill="#39405F"/>
<path d="M64.0408 146.508L68.0905 139.756L67.5253 146.508H64.0408Z" fill="#1D1F30"/>
<path d="M84.5581 146.508V139.481L86.0201 146.508H84.5581Z" fill="#1D1F30"/>
<path d="M93.5554 146.508H41.1648C39.4543 146.508 38.0676 147.893 38.0676 149.602V179.068C38.0676 180.776 39.4543 182.161 41.1648 182.161H93.5554C95.2659 182.161 96.6525 180.776 96.6525 179.068V149.602C96.6525 147.893 95.2659 146.508 93.5554 146.508Z" fill="#7BCCA9"/>
<path d="M85.9174 157.105C87.5555 157.105 88.8835 155.778 88.8835 154.142C88.8835 152.505 87.5555 151.179 85.9174 151.179C84.2794 151.179 82.9514 152.505 82.9514 154.142C82.9514 155.778 84.2794 157.105 85.9174 157.105Z" fill="#39405F"/>
<path d="M91.8543 154.141C91.8543 154.728 91.68 155.302 91.3536 155.79C91.0272 156.278 90.5632 156.658 90.0204 156.883C89.4776 157.108 88.8803 157.166 88.304 157.052C87.7277 156.937 87.1984 156.655 86.7829 156.24C86.3675 155.825 86.0845 155.296 85.9699 154.72C85.8553 154.145 85.9141 153.548 86.139 153.006C86.3638 152.464 86.7446 152 87.2331 151.674C87.7216 151.348 88.296 151.174 88.8836 151.174C89.2738 151.173 89.6604 151.25 90.0211 151.398C90.3818 151.547 90.7096 151.766 90.9855 152.042C91.2615 152.317 91.4803 152.645 91.6294 153.005C91.7785 153.365 91.8549 153.752 91.8543 154.141Z" fill="white"/>
<path d="M75.6398 153.288H43.145V154.809H75.6398V153.288Z" fill="white"/>
<path d="M53.9875 170.557H43.145V172.078H53.9875V170.557Z" fill="#39405F"/>
<path d="M66.6015 170.557H55.759V172.078H66.6015V170.557Z" fill="#39405F"/>
<path d="M91.8556 170.557H68.4702V172.078H91.8556V170.557Z" fill="#39405F"/>
<path d="M62.4195 174.831H43.145V176.352H62.4195V174.831Z" fill="#39405F"/>
<path d="M70.0102 174.831H64.0781V176.352H70.0102V174.831Z" fill="#39405F"/>
<path d="M52.1376 159.148H44.2008C43.6177 159.148 43.145 159.621 43.145 160.203V164.622C43.145 165.204 43.6177 165.676 44.2008 165.676H52.1376C52.7207 165.676 53.1934 165.204 53.1934 164.622V160.203C53.1934 159.621 52.7207 159.148 52.1376 159.148Z" fill="white"/>
<path d="M48.1913 164.16H42.0156V160.702H48.1913C48.6348 160.725 49.0525 160.917 49.3583 161.239C49.664 161.561 49.8345 161.987 49.8345 162.431C49.8345 162.874 49.664 163.301 49.3583 163.623C49.0525 163.944 48.6348 164.137 48.1913 164.16ZM42.4314 163.744H48.1913C48.5395 163.744 48.8733 163.606 49.1195 163.36C49.3657 163.114 49.504 162.781 49.504 162.433C49.504 162.085 49.3657 161.752 49.1195 161.506C48.8733 161.26 48.5395 161.122 48.1913 161.122H42.4314V163.744Z" fill="#7BCCA9"/>
<path d="M53.9782 162.2H49.7136V162.62H53.9782V162.2Z" fill="#7BCCA9"/>
<path d="M70.8569 135.193C70.8569 135.193 66.3396 142.584 61.7896 150.311C61.2056 151.3 58.356 152.149 57.2068 152.201C54.8991 152.303 53.7079 149.91 54.404 147.819C54.404 147.819 58.7391 136.994 62.0371 132.813C62.7098 131.959 65.3445 130.06 67.3626 131.134L70.8569 135.193Z" fill="#39405F"/>
<path d="M59.5468 167.006L59.4815 163.287L55.2729 163.45L55.3477 166.927L59.5468 167.006Z" fill="#EBAE89"/>
<path d="M57.5195 165.947C57.5195 165.947 59.4862 165.013 60.7522 167.44L62.7703 171.173C62.8109 171.251 62.8344 171.337 62.8392 171.425C62.8441 171.514 62.8301 171.602 62.7984 171.684C62.7666 171.767 62.7177 171.842 62.6549 171.904C62.592 171.966 62.5167 172.014 62.4339 172.045C62.3165 172.088 62.1887 172.096 62.0671 172.066C61.9455 172.036 61.8357 171.97 61.7519 171.877L60.2524 170.291L60.9531 175.759C60.97 175.856 60.9657 175.955 60.9405 176.05C60.9154 176.144 60.8699 176.232 60.8072 176.308C60.7446 176.383 60.6663 176.444 60.5777 176.487C60.4892 176.529 60.3925 176.551 60.2944 176.553C60.1376 176.554 59.9851 176.501 59.8626 176.404C59.7401 176.306 59.655 176.169 59.6217 176.016L58.9116 172.358L58.7248 172.33L58.921 176.212C58.9165 176.308 58.891 176.402 58.8463 176.487C58.8016 176.572 58.7387 176.647 58.6621 176.705C58.5855 176.763 58.497 176.804 58.4029 176.824C58.3088 176.845 58.2114 176.844 58.1175 176.823C57.9706 176.788 57.8403 176.703 57.7485 176.584C57.6566 176.464 57.6088 176.316 57.613 176.165L57.2159 172.311L56.9917 172.25L56.7721 175.708C56.7721 176.581 56.305 176.641 56.02 176.571C55.7444 176.511 55.679 175.815 55.721 175.535V171.849L55.5155 171.784L55.1885 175.05C55.1666 175.117 55.1296 175.179 55.0804 175.23C55.0311 175.281 54.9709 175.32 54.9043 175.344C54.8376 175.369 54.7663 175.377 54.6958 175.37C54.6252 175.363 54.5573 175.339 54.4971 175.302C54.4078 175.248 54.3391 175.166 54.3018 175.069C54.2646 174.972 54.261 174.865 54.2916 174.765L54.5345 170.986C54.5345 170.986 54.03 167.169 55.7771 166.437L57.5195 165.947Z" fill="#EBAE89"/>
<path d="M61.9157 149.719L61.1029 164.16L53.4417 164.207L53.9508 149.611C53.9535 149.269 54.0086 148.929 54.1143 148.603C54.2637 148.179 54.4981 147.789 54.8032 147.457C55.1083 147.126 55.4777 146.86 55.8889 146.676C56.3001 146.492 56.7446 146.393 57.1953 146.386C57.6459 146.379 58.0933 146.463 58.5102 146.634C59.907 147.199 62.1353 148.221 61.9157 149.719Z" fill="#39405F"/>
<path d="M250.302 148.477C250.302 148.477 252.637 151.417 254.506 158.682C254.58 158.98 254.594 159.29 254.548 159.593C254.502 159.897 254.396 160.189 254.237 160.451C254.077 160.714 253.868 160.943 253.62 161.124C253.372 161.306 253.09 161.437 252.792 161.509L240.935 164.258C240.573 164.343 240.195 164.34 239.834 164.25C239.472 164.16 239.138 163.985 238.858 163.739C238.578 163.493 238.361 163.184 238.225 162.838C238.089 162.491 238.038 162.118 238.077 161.747C238.291 160.044 238.077 157.791 237.609 154.907L250.302 148.477Z" fill="#1F0907"/>
<path d="M246.971 157.124C247.808 157.151 248.61 157.469 249.236 158.024C249.863 158.578 250.277 159.334 250.405 160.161C250.405 160.161 247.205 158.981 246.971 157.124Z" fill="#39405F"/>
<path d="M246.948 157.399C247.516 156.784 248.28 156.387 249.11 156.276C249.94 156.164 250.782 156.345 251.493 156.787C251.493 156.787 248.527 158.439 246.948 157.399Z" fill="#39405F"/>
<path d="M243.43 145.841C243.43 145.841 236.175 146.606 237.179 152.621L237.927 156.727L245.177 156.699L243.43 145.841Z" fill="#1F0907"/>
<path d="M251.662 151.421C252.372 155.08 249.158 155.593 245.318 156.335C241.478 157.077 238.479 157.772 237.769 154.114C237.457 152.271 237.873 150.379 238.928 148.836C239.984 147.293 241.598 146.219 243.431 145.841C245.261 145.515 247.145 145.916 248.683 146.958C250.221 148.001 251.29 149.603 251.662 151.421Z" fill="#1F0907"/>
<path d="M241.052 156.386C241.015 156.746 240.872 157.087 240.641 157.365C240.41 157.644 240.102 157.848 239.755 157.952C239.408 158.055 239.038 158.054 238.692 157.947C238.346 157.841 238.039 157.634 237.81 157.354C237.582 157.073 237.442 156.731 237.408 156.371C237.373 156.011 237.447 155.649 237.619 155.331C237.791 155.012 238.054 154.752 238.374 154.583C238.694 154.413 239.057 154.343 239.417 154.38C239.656 154.404 239.888 154.475 240.1 154.59C240.312 154.704 240.499 154.858 240.65 155.045C240.802 155.231 240.916 155.445 240.985 155.675C241.054 155.906 241.076 156.147 241.052 156.386Z" fill="#B96462"/>
<path d="M244.089 159.61L245.859 167.837L250.992 166.208L246.644 155.21L244.089 159.61Z" fill="#EBAE89"/>
<path d="M239.025 149.546C238.553 150.236 238.243 151.024 238.119 151.851C238.119 153.633 238.152 156.321 239.053 158.019C240.212 160.226 242.071 161.892 244.897 160.679C244.897 160.679 248.345 159.559 248.233 154.688C248.06 146.933 242.099 145.496 239.025 149.546Z" fill="#EBAE89"/>
<path d="M240.763 155.85L240.613 157.049L241.449 157.235" stroke="#1D0006" stroke-width="0.144799" stroke-linecap="round" stroke-linejoin="round"/>
<path d="M243.337 154.361C243.331 154.462 243.292 154.558 243.227 154.635C243.162 154.712 243.074 154.766 242.975 154.789C242.877 154.811 242.774 154.801 242.682 154.761C242.589 154.72 242.513 154.65 242.463 154.562C242.469 154.461 242.508 154.365 242.573 154.288C242.638 154.211 242.727 154.158 242.825 154.135C242.923 154.112 243.026 154.122 243.119 154.163C243.211 154.204 243.287 154.273 243.337 154.361Z" fill="#210907"/>
<path d="M239.814 155.028C239.832 155.108 239.826 155.192 239.797 155.269C239.768 155.346 239.716 155.412 239.649 155.459C239.582 155.507 239.503 155.533 239.421 155.536C239.339 155.538 239.258 155.516 239.188 155.473C239.118 155.429 239.063 155.366 239.03 155.291C238.996 155.216 238.985 155.133 238.999 155.052C239.012 154.971 239.049 154.896 239.105 154.836C239.162 154.776 239.234 154.734 239.314 154.715C239.368 154.703 239.423 154.701 239.477 154.71C239.531 154.719 239.583 154.739 239.629 154.768C239.676 154.797 239.716 154.835 239.748 154.88C239.779 154.924 239.802 154.975 239.814 155.028Z" fill="#210907"/>
<path d="M239.842 153.648C239.842 153.648 239.94 154.054 239.314 154.031C238.962 153.996 238.607 153.996 238.254 154.031C238.18 154.043 238.104 154.034 238.035 154.005C237.965 153.976 237.905 153.928 237.862 153.867C237.833 153.824 237.821 153.771 237.828 153.719C237.836 153.667 237.863 153.62 237.904 153.587C238.219 153.338 238.615 153.217 239.016 153.246C239.758 153.279 239.842 153.648 239.842 153.648Z" fill="#210907"/>
<path d="M241.81 153.129C241.81 153.129 241.81 153.563 242.566 153.251C243.102 153.046 243.651 152.879 244.21 152.751C244.302 152.732 244.388 152.692 244.461 152.633C244.534 152.575 244.592 152.5 244.631 152.416C244.641 152.391 244.645 152.363 244.644 152.337C244.642 152.31 244.634 152.283 244.62 152.26C244.607 152.237 244.588 152.217 244.566 152.201C244.543 152.186 244.518 152.177 244.491 152.173C243.877 152.09 243.253 152.161 242.674 152.378C241.786 152.742 241.81 153.129 241.81 153.129Z" fill="#210907"/>
<path d="M246.556 150.017L246.92 154.818L250.545 150.591L246.556 150.017Z" fill="#1F0907"/>
<path d="M239.88 148.123C239.88 148.123 243.36 151.893 248.662 152.345C248.662 152.345 250.662 151.771 247.812 148.696C244.962 145.622 239.88 148.123 239.88 148.123Z" fill="#1F0907"/>
<path d="M250.773 154.977C250.733 155.366 250.579 155.735 250.329 156.036C250.08 156.338 249.746 156.559 249.371 156.671C248.996 156.783 248.596 156.782 248.221 156.667C247.847 156.552 247.515 156.329 247.268 156.025C247.02 155.722 246.869 155.352 246.831 154.963C246.794 154.574 246.874 154.182 247.059 153.837C247.245 153.493 247.529 153.211 247.875 153.028C248.221 152.845 248.613 152.768 249.003 152.807C249.262 152.833 249.513 152.91 249.742 153.034C249.971 153.157 250.174 153.324 250.338 153.526C250.503 153.727 250.626 153.959 250.7 154.208C250.775 154.457 250.8 154.718 250.773 154.977Z" fill="#EBAE89"/>
<path d="M249.433 154.156C249.239 154.124 249.04 154.138 248.852 154.196C248.665 154.254 248.493 154.355 248.351 154.491C248.208 154.626 248.1 154.793 248.033 154.978C247.966 155.163 247.944 155.36 247.966 155.556" stroke="#1D0006" stroke-width="0.144799" stroke-linecap="round" stroke-linejoin="round"/>
<path d="M248.569 156.857L248.065 156.61L240.59 156.54L238.815 157.567C238.815 157.567 238.708 160.987 243.15 163.086C243.174 163.086 247.967 161.36 248.569 156.857Z" fill="#39405F"/>
<path d="M267.591 210.264L269.306 216.26L277.453 224.659L272.37 207.665L267.591 210.264Z" fill="#101010"/>
<path d="M274.598 206.966L272.37 207.666L277.452 224.659L279.68 223.959L274.598 206.966Z" fill="white"/>
<path d="M260.999 218.299L259.252 212.191L267.591 210.264L269.338 216.372L260.999 218.299Z" fill="#EBAE89"/>
<path d="M246.738 190.434C246.541 191.008 242.594 210.88 241.169 218.369C241.022 219.147 241.057 219.948 241.272 220.71C241.486 221.472 241.874 222.174 242.405 222.761C242.936 223.348 243.596 223.805 244.333 224.095C245.07 224.386 245.864 224.502 246.653 224.435L266.409 219.638L263.765 210.418L254.133 212.177L259.196 197.843L246.738 190.434Z" fill="#1F0C07"/>
<path d="M231.485 216.648L225.244 216.54L214.827 221.878L232.578 221.972L231.485 216.648Z" fill="#101010"/>
<path d="M232.597 224.309L232.578 221.971L214.827 221.878L214.846 224.211L232.597 224.309Z" fill="white"/>
<path d="M223.843 207.731L230.205 207.843L231.485 216.647L225.123 216.54L223.843 207.731Z" fill="#EBAE89"/>
<path d="M262.219 188.297C262.219 188.297 240.076 184.849 226.445 182.53C225.457 182.362 224.444 182.432 223.489 182.734C222.534 183.037 221.665 183.563 220.956 184.269C220.246 184.974 219.715 185.84 219.408 186.792C219.101 187.744 219.026 188.756 219.19 189.743L223.861 213.073H235.269L233.018 195.044L252.325 200.751C260.079 202.178 263.461 196.322 262.723 191.512L262.219 188.297Z" fill="#1F0C07"/>
<path d="M225.273 162.723C224.446 161.799 223.504 160.986 222.47 160.301L220.134 158.752C219.624 158.375 219.026 158.135 218.396 158.057L213.215 158.034C213.035 157.999 212.849 158.038 212.697 158.142C212.546 158.245 212.441 158.404 212.407 158.584C212.373 158.764 212.412 158.95 212.516 159.102C212.619 159.253 212.778 159.357 212.959 159.391L217.317 159.811L218.48 160.712C218.391 160.642 218.289 160.591 218.18 160.562C218.07 160.533 217.956 160.526 217.844 160.543C217.732 160.56 217.625 160.599 217.528 160.658C217.432 160.718 217.349 160.796 217.284 160.889C217.202 161.035 217.167 161.203 217.184 161.37C217.2 161.537 217.268 161.695 217.378 161.822L220.615 164.473C220.948 164.791 221.358 165.018 221.806 165.13C222.253 165.242 222.722 165.236 223.166 165.112L224.787 167.692L227.776 165.569L225.273 162.723Z" fill="#EBAE89"/>
<path d="M229.243 179.165L222.367 167.673L227.748 163.086L236.703 174.943C236.999 175.48 237.175 176.074 237.221 176.685C237.266 177.296 237.18 177.91 236.968 178.485C236.756 179.06 236.423 179.583 235.991 180.018C235.56 180.453 235.039 180.791 234.466 181.009C233.518 181.367 232.473 181.378 231.517 181.041C230.561 180.704 229.756 180.039 229.243 179.165Z" fill="#39405F"/>
<path d="M231.382 173.328L251.404 164.776L255.066 173.198L234.699 181.233C234.13 181.463 233.518 181.568 232.905 181.542C232.292 181.516 231.691 181.358 231.144 181.081C230.597 180.803 230.116 180.411 229.733 179.932C229.35 179.453 229.074 178.897 228.925 178.302C228.679 177.317 228.791 176.276 229.241 175.366C229.691 174.455 230.45 173.733 231.382 173.328Z" fill="#39405F"/>
<path d="M240.245 179.054L246.107 176.739L243.701 171.033L240.245 179.054Z" fill="#1D1F30"/>
<path d="M264.191 183.556L252.419 170.958C251.602 170.083 251.164 168.921 251.202 167.725C251.24 166.529 251.749 165.397 252.62 164.575C253.063 164.154 253.587 163.826 254.159 163.613C254.732 163.399 255.343 163.303 255.954 163.331C256.564 163.359 257.163 163.51 257.714 163.775C258.265 164.04 258.757 164.414 259.16 164.873L270.535 177.77C270.944 178.227 271.25 178.767 271.433 179.352C271.616 179.937 271.671 180.555 271.595 181.163C271.519 181.771 271.313 182.356 270.991 182.878C270.67 183.401 270.24 183.848 269.731 184.191C268.883 184.76 267.86 185.009 266.844 184.893C265.829 184.776 264.888 184.303 264.191 183.556Z" fill="#39405F"/>
<path d="M284.731 198.161H249.456C246.812 198.161 244.668 200.302 244.668 202.944V202.948C244.668 205.59 246.812 207.731 249.456 207.731H284.731C287.375 207.731 289.519 205.59 289.519 202.948V202.944C289.519 200.302 287.375 198.161 284.731 198.161Z" fill="white"/>
<path d="M257.893 201.264L256.758 202.757L258.565 202.514V203.354L256.758 203.135V203.163L257.907 204.595L257.155 205.024L256.435 203.354L255.655 205.038L254.978 204.604L256.113 203.149V203.125L254.343 203.354V202.537L256.099 202.766V202.743L254.978 201.287L255.707 200.867L256.445 202.528H256.468L257.197 200.853L257.893 201.264Z" fill="black"/>
<path d="M265.461 201.264L264.326 202.757L266.134 202.514V203.354L264.326 203.135V203.163L265.475 204.595L264.723 205.024L264.004 203.354L263.224 205.038L262.546 204.604L263.681 203.149V203.125L261.911 203.354V202.537L263.667 202.766V202.743L262.546 201.287L263.275 200.867L264.013 202.528H264.041L264.77 200.853L265.461 201.264Z" fill="black"/>
<path d="M273.028 201.264L271.893 202.757L273.701 202.514V203.354L271.893 203.135V203.163L273.042 204.595L272.29 205.024L271.571 203.354H271.547L270.767 205.038L270.09 204.604L271.225 203.149V203.125L269.455 203.354V202.537L271.211 202.766V202.743L270.09 201.287L270.819 200.867L271.557 202.528H271.585L272.313 200.853L273.028 201.264Z" fill="black"/>
<path d="M280.596 201.264L279.461 202.757L281.268 202.514V203.354L279.461 203.135V203.163L280.61 204.595L279.858 205.024L279.138 203.354L278.363 205.038L277.681 204.604L278.816 203.149V203.125L277.022 203.354V202.537L278.779 202.766V202.743L277.658 201.287L278.386 200.867L279.124 202.528H279.152L279.881 200.853L280.596 201.264Z" fill="black"/>
<path d="M264.409 197.778C264.343 197.986 264.355 198.212 264.444 198.412C264.533 198.612 264.693 198.772 264.892 198.862C265.092 198.952 265.318 198.966 265.527 198.9C265.736 198.834 265.914 198.694 266.026 198.506L266.245 198.137C266.713 198.403 267.39 199.145 266.713 201.595C266.66 201.77 266.672 201.959 266.746 202.126C266.82 202.294 266.95 202.43 267.115 202.511C267.28 202.591 267.467 202.611 267.645 202.566C267.823 202.522 267.979 202.415 268.086 202.267C268.095 202.255 268.103 202.243 268.109 202.229C268.152 202.367 268.233 202.49 268.342 202.584C268.45 202.679 268.583 202.742 268.726 202.765C268.868 202.789 269.014 202.773 269.148 202.719C269.281 202.664 269.397 202.574 269.483 202.458C269.494 202.406 269.526 202.361 269.572 202.332C269.617 202.304 269.671 202.295 269.723 202.306C269.775 202.318 269.821 202.35 269.849 202.395C269.878 202.44 269.887 202.495 269.875 202.547C270.028 202.591 270.191 202.587 270.342 202.535C270.492 202.484 270.623 202.386 270.716 202.257C270.771 202.185 270.812 202.102 270.837 202.015L270.861 201.921H270.898C271.052 201.966 271.215 201.961 271.367 201.91C271.518 201.858 271.649 201.761 271.744 201.632C271.797 201.559 271.837 201.477 271.86 201.39C272.041 200.781 272.155 200.156 272.202 199.523V199.5C272.22 199.243 272.22 198.986 272.202 198.73C272.155 197.573 271.949 195.375 271.062 193.705L265.339 194.997L264.409 197.778Z" fill="#EBAE89"/>
<path d="M266.227 198.142L263.695 198.161L263.887 199.537H266.227V198.142Z" fill="white"/>
<path d="M271.571 180.113L272.076 194.265L263.854 195.198L263.008 180.859C262.963 180.248 263.049 179.634 263.262 179.058C263.474 178.483 263.808 177.96 264.24 177.524C264.672 177.089 265.193 176.751 265.767 176.533C266.341 176.316 266.955 176.224 267.568 176.263C268.584 176.326 269.545 176.748 270.278 177.453C271.012 178.158 271.47 179.101 271.571 180.113Z" fill="#39405F"/>
<path d="M246.793 166.493L243.309 174.103L246.803 185.852L262.219 188.288L258.636 169.792C258.243 165.853 253.651 163.814 253.651 163.814L246.793 166.493Z" fill="#39405F"/>
<path d="M260.541 179.646L256.725 175.559L261.765 185.95L260.541 179.646Z" fill="#1D1F30"/>
<path d="M244.477 169.567C244.477 169.567 240.324 175.75 244.865 180.038C248.387 183.36 250.541 178.05 250.541 178.05L249.345 174.112L244.477 169.567Z" fill="#39405F"/>
<path d="M244.884 169.437L244.487 166.423C244.459 166.195 244.508 165.964 244.625 165.766C244.743 165.569 244.922 165.416 245.136 165.331L250.004 163.394C250.197 163.317 250.409 163.3 250.612 163.345C250.816 163.39 251.001 163.495 251.143 163.646L253.012 165.615L244.884 169.437Z" fill="#39405F"/>
<path d="M283.843 91.6499L287.258 96.8152L297.479 102.344L287.594 87.7678L283.843 91.6499Z" fill="#101010"/>
<path d="M289.496 86.4377L287.594 87.7676L297.479 102.344L299.381 101.014L289.496 86.4377Z" fill="white"/>
<path d="M280.559 102.526L277.079 97.2631L283.843 91.6499L287.323 96.9178L280.559 102.526Z" fill="#EBAE89"/>
<path d="M242.725 98.327L244.594 96.5866L266.12 104.225L278.798 94.0203L284.843 101.169L272.286 111.667C268.278 114.91 267.531 114.957 264.242 114.434L258.954 111.518L253.502 110.403L242.725 98.327Z" fill="#1F0C07"/>
<path d="M291.032 111.294L291.523 117.462L297.796 127.238L296.194 109.708L291.032 111.294Z" fill="#101010"/>
<path d="M298.502 109.46L296.194 109.707L297.796 127.237L300.104 126.995L298.502 109.46Z" fill="white"/>
<path d="M282.895 119.231L282.395 112.941L291.033 111.294L291.533 117.583L282.895 119.231Z" fill="#EBAE89"/>
<path d="M244.112 94.6361L240.075 106.376L259.14 121.699L259.196 121.736C261.636 123.368 264.541 124.164 267.474 124.004L287.299 120.332L286.547 110.841L267.077 113.767L252.913 102.102C252.913 102.102 249.46 94.5754 244.112 94.6361Z" fill="#1F0C07"/>
<path d="M208.529 72.44C208.529 72.44 203.251 71.8101 202.882 77.4793C202.709 80.1343 205.736 81.0628 208.72 80.1436L208.529 72.44Z" fill="#1F0C07"/>
<path d="M215.444 84.9683L220.797 89.1677L224.007 84.1145L215.972 79.5791L215.444 84.9683Z" fill="#EBAE89"/>
<path d="M206.605 75.8086C206.605 75.8086 204.573 77.9083 206.605 80.9179C206.605 80.9179 207.357 82.0751 209.534 85.1733C210.688 86.8064 213.229 88.1455 215.168 86.5264C216.102 85.7426 216.751 84.4127 217.163 82.9756L217.574 80.7266C218.111 74.9174 211.094 71.4412 206.904 75.5053L206.605 75.8086Z" fill="#EBAE89"/>
<path d="M208.399 83.0178L208.735 85.4721C208.735 85.6914 208.955 85.8967 209.17 85.7708L210.356 85.1782L208.399 83.0178Z" fill="#EBAE89"/>
<path d="M214.243 79.7047C214.243 79.7047 212.094 79.7981 211.193 77.0311C211.193 77.0311 206.988 79.7374 204.952 77.5724C204.952 77.5724 204.531 73.401 209.581 72.0898C214.631 70.7787 215.584 75.2954 215.584 75.2954L214.243 79.7047Z" fill="#1F0C07"/>
<path d="M216.158 79.4203C216.158 79.4203 215.121 81.3614 218.209 80.8435C218.137 80.2846 218.165 79.7172 218.293 79.1684C218.503 78.1605 219.396 67.8486 208.53 72.44L211.534 73.7511L216.158 79.4203Z" fill="#1F0C07"/>
<path d="M216.718 77.3718C216.958 77.6439 217.11 77.9807 217.158 78.3397C217.205 78.6987 217.145 79.0636 216.984 79.3883C216.824 79.7129 216.571 79.9827 216.256 80.1635C215.942 80.3442 215.582 80.4277 215.22 80.4035C214.858 80.3793 214.512 80.2484 214.225 80.0274C213.938 79.8064 213.723 79.5053 213.607 79.1622C213.492 78.819 213.48 78.4493 213.575 78.0998C213.67 77.7504 213.867 77.4369 214.14 77.1991C214.321 77.0412 214.531 76.9205 214.758 76.8437C214.985 76.7669 215.226 76.7356 215.465 76.7516C215.705 76.7677 215.938 76.8307 216.154 76.9371C216.369 77.0435 216.561 77.1912 216.718 77.3718Z" fill="#EBAE89"/>
<path d="M215.191 79.6766C215.043 79.3961 214.984 79.0777 215.02 78.763C215.057 78.4482 215.188 78.1519 215.396 77.9128" stroke="black" stroke-width="0.163482" stroke-linecap="round" stroke-linejoin="round"/>
<path d="M209.637 82.2106C209.663 82.2541 209.681 82.3025 209.688 82.3528C209.696 82.4031 209.694 82.4545 209.682 82.5039C209.67 82.5534 209.648 82.5999 209.618 82.641C209.587 82.682 209.55 82.7167 209.506 82.7431C209.417 82.7966 209.311 82.8129 209.21 82.7884C209.11 82.7639 209.023 82.7006 208.969 82.6123C208.916 82.5237 208.9 82.4176 208.925 82.3173C208.95 82.217 209.013 82.1307 209.102 82.0775C209.191 82.0242 209.297 82.0083 209.397 82.0333C209.497 82.0582 209.583 82.122 209.637 82.2106Z" fill="#1F0C07"/>
<path d="M207.11 82.0008C207.11 82.0008 207.614 82.3368 207.927 81.6602C208.18 81.1811 208.484 80.7306 208.833 80.3164C208.893 80.245 208.926 80.155 208.926 80.0621C208.926 79.9691 208.893 79.8791 208.833 79.8078C208.786 79.7503 208.722 79.7087 208.65 79.6887C208.578 79.6687 208.502 79.6711 208.432 79.6958C207.846 79.937 207.355 80.3609 207.03 80.9043C206.652 81.7022 207.11 82.0008 207.11 82.0008Z" fill="#1F0C07"/>
<path d="M218.345 78.7717L208.637 84.7349C208.637 84.7349 207.441 87.7025 214.308 89.6949L218.209 80.8294L218.345 78.7717Z" fill="#39405F"/>
<path d="M217.396 80.0551C218.154 79.7955 218.979 79.8088 219.728 80.0925C220.477 80.3763 221.103 80.9127 221.497 81.6089C221.497 81.6089 218.232 81.6369 217.396 80.0551Z" fill="#39405F"/>
<path d="M218.12 80.05C218.17 79.2514 218.497 78.4952 219.046 77.9118C219.594 77.3284 220.329 76.9542 221.123 76.8538C221.123 76.8538 219.904 79.8773 218.12 80.05Z" fill="#39405F"/>
<path d="M241.767 -18L241.767 94.4082" stroke="#1F0C07" stroke-width="0.462422" stroke-linecap="round" stroke-linejoin="round"/>
<path d="M219.489 108.797L203.629 111.849L202.891 108.587L219.783 101.887L219.489 108.797Z" fill="#EBAE89"/>
<path d="M203.214 108.294C203.214 108.294 196.954 107.58 197.571 110.729C198.187 113.879 200.939 117.528 206.031 110.608L203.214 108.294Z" fill="#EBAE89"/>
<path d="M199.299 108.994C199.299 108.994 198.435 105.914 204.227 108.368L204.549 110.263L202.965 111.387L199.299 108.994Z" fill="#EBAE89"/>
<path d="M229.425 90.9826C229.425 90.9826 225.025 101.495 221.433 107.51C221.128 108.012 220.67 108.403 220.125 108.625C219.581 108.847 218.98 108.888 218.41 108.741C218.034 108.648 217.682 108.476 217.377 108.238C217.071 107.999 216.82 107.699 216.638 107.357C216.457 107.015 216.349 106.639 216.323 106.253C216.297 105.867 216.352 105.479 216.486 105.116L222.984 87.1985L229.425 90.9826Z" fill="#EBAE89"/>
<path d="M226.973 83.6337C226.973 83.6337 234.475 89.6295 229.052 99.3908L218.036 97.0858C218.036 97.0858 220.367 80.1388 226.973 83.6337Z" fill="#39405F"/>
<path d="M221.063 89.3354L223.334 83.7922C223.334 83.7922 228.145 80.26 236.633 86.6665C243.785 92.0604 247.378 95.5599 247.378 95.5599L240.37 106.679C221.124 93.5488 221.063 89.3354 221.063 89.3354Z" fill="#39405F"/>
<path d="M228.822 98.159L232.41 100.94L230.125 90.3108L228.822 98.159Z" fill="#1D1F30"/>
<path d="M242.454 91.062C242.454 91.062 244.565 97.0858 239.123 105.811" stroke="#1F0C07" stroke-width="0.462422" stroke-linecap="round" stroke-linejoin="round"/>
<path d="M6.0874 224.309H301.268" stroke="#39405F" stroke-width="0.462422" stroke-miterlimit="10"/>
</g>
<defs>
<clipPath id="clip0_330_4432">
<rect width="306" height="225" fill="white"/>
</clipPath>
</defs>
</svg>
