<svg width="20" height="20" viewBox="0 0 20 20" fill="none" xmlns="http://www.w3.org/2000/svg">
<g clip-path="url(#clip0_265_1551)">
<path d="M18.6592 4.98038C17.7649 3.44836 16.5519 2.23536 15.0199 1.34115C13.4875 0.44699 11.8148 0 10.0003 0C8.18602 0 6.51294 0.44699 4.9807 1.34115C3.44854 2.23523 2.23554 3.44822 1.34129 4.98038C0.44699 6.51262 0 8.18588 0 10C0 11.8142 0.447127 13.4872 1.34115 15.0196C2.23536 16.5513 3.44836 17.7646 4.98052 18.6589C6.51276 19.553 8.18588 20 10.0001 20C11.8143 20 13.4877 19.553 15.0198 18.6589C16.5519 17.7649 17.7648 16.5516 18.659 15.0196C19.553 13.4872 20 11.814 20 10C20 8.18588 19.553 6.51239 18.6592 4.98038ZM11.6671 16.2369C11.6671 16.3586 11.6278 16.4604 11.5497 16.5428C11.4717 16.6252 11.3762 16.6664 11.2632 16.6664H8.76313C8.65039 16.6664 8.55046 16.623 8.46372 16.5363C8.37688 16.4495 8.33356 16.3496 8.33356 16.237V13.7632C8.33356 13.6501 8.37688 13.5503 8.46372 13.4635C8.55051 13.3767 8.65039 13.3335 8.76313 13.3335H11.2632C11.3762 13.3335 11.472 13.3748 11.5497 13.4569C11.6278 13.5398 11.6671 13.6414 11.6671 13.7632V16.2369ZM11.6409 11.7579C11.6321 11.8447 11.5867 11.9207 11.5045 11.9858C11.4218 12.0507 11.32 12.0831 11.1986 12.0831H8.78953C8.66795 12.0831 8.56378 12.0507 8.47699 11.9858C8.39016 11.9207 8.34669 11.8447 8.34669 11.7579L8.12536 3.67179C8.12536 3.56744 8.16869 3.4895 8.25543 3.43737C8.34236 3.368 8.44653 3.3332 8.56802 3.3332H11.433C11.5546 3.3332 11.6586 3.36787 11.7454 3.43737C11.8322 3.4895 11.8753 3.56762 11.8753 3.67179L11.6409 11.7579Z" fill="#686868"/>
</g>
<defs>
<clipPath id="clip0_265_1551">
<rect width="20" height="20" fill="white"/>
</clipPath>
</defs>
</svg>
