<svg width="20" height="20" viewBox="0 0 20 20" fill="none" xmlns="http://www.w3.org/2000/svg">
<path d="M9.19063 18.2781L5.1 8.75H1.09375L9.19063 18.2781Z" fill="#FFAD31"/>
<path d="M14.0937 8.125L11.1781 3.75H8.82187L5.90625 8.125H14.0937Z" fill="#FFAD31"/>
<path d="M14.2188 8.75H5.78125L10 18.5812L14.2188 8.75Z" fill="#FFAD31"/>
<path d="M14.9002 8.75L10.8096 18.2781L18.9064 8.75H14.9002Z" fill="#FFAD31"/>
<path d="M5.15645 8.125L8.07207 3.75H4.59082C4.5431 3.75011 4.49603 3.76116 4.45324 3.78228C4.41044 3.80341 4.37306 3.83406 4.34395 3.87188L1.10645 8.125H5.15645ZM14.8439 8.125H18.9064L15.6564 3.87188C15.6273 3.83406 15.5899 3.80341 15.5472 3.78228C15.5044 3.76116 15.4573 3.75011 15.4096 3.75H11.9283L14.8439 8.125Z" fill="#FFAD31"/>
</svg>
