<svg width="19" height="18" viewBox="0 0 19 18" fill="none" xmlns="http://www.w3.org/2000/svg">
<path d="M17.2932 4.48234C16.4884 3.10353 15.3967 2.01183 14.0179 1.20704C12.6388 0.402291 11.1333 0 9.50027 0C7.86742 0 6.36165 0.402291 4.98263 1.20704C3.60369 2.0117 2.51199 3.1034 1.70716 4.48234C0.902291 5.86136 0.5 7.3673 0.5 9.00002C0.5 10.6327 0.902414 12.1385 1.70704 13.5176C2.51183 14.8961 3.60352 15.9881 4.98246 16.793C6.36148 17.5977 7.86729 18 9.5001 18C11.1329 18 12.6389 17.5977 14.0178 16.793C15.3967 15.9884 16.4883 14.8964 17.2931 13.5176C18.0977 12.1385 18.5 10.6326 18.5 9.00002C18.5 7.3673 18.0977 5.86116 17.2932 4.48234ZM11.0004 14.6132C11.0004 14.7228 10.965 14.8143 10.8948 14.8885C10.8245 14.9627 10.7385 14.9998 10.6369 14.9998H8.38681C8.28535 14.9998 8.19542 14.9607 8.11735 14.8826C8.0392 14.8045 8.0002 14.7146 8.0002 14.6133V12.3868C8.0002 12.2851 8.0392 12.1952 8.11735 12.1171C8.19546 12.0391 8.28535 12.0001 8.38681 12.0001H10.6369C10.7386 12.0001 10.8248 12.0373 10.8948 12.1112C10.965 12.1858 11.0004 12.2773 11.0004 12.3868V14.6132ZM10.9768 10.5821C10.9689 10.6602 10.928 10.7286 10.854 10.7872C10.7796 10.8457 10.688 10.8748 10.5787 10.8748H8.41058C8.30115 10.8748 8.2074 10.8457 8.12929 10.7872C8.05114 10.7286 8.01202 10.6602 8.01202 10.5821L7.81283 3.30461C7.81283 3.2107 7.85182 3.14055 7.92989 3.09363C8.00812 3.0312 8.10187 2.99988 8.21122 2.99988H10.7897C10.8991 2.99988 10.9928 3.03108 11.0709 3.09363C11.149 3.14055 11.1878 3.21086 11.1878 3.30461L10.9768 10.5821Z" fill="#D8D8D8"/>
</svg>
