<svg width="40" height="40" viewBox="0 0 40 40" fill="none" xmlns="http://www.w3.org/2000/svg">
<path d="M29.9366 8.49219H10.0634C8.73782 8.49378 7.46697 9.02107 6.52964 9.95841C5.5923 10.8957 5.065 12.1666 5.06342 13.4922V26.5078C5.065 27.8334 5.5923 29.1042 6.52964 30.0416C7.46697 30.9789 8.73782 31.5062 10.0634 31.5078H29.9366C31.2622 31.5062 32.5331 30.9789 33.4704 30.0416C34.4077 29.1042 34.935 27.8334 34.9366 26.5078V13.4922C34.935 12.1666 34.4077 10.8957 33.4704 9.95841C32.5331 9.02107 31.2622 8.49378 29.9366 8.49219ZM10.0634 10.4922H29.9366C30.732 10.493 31.4946 10.8094 32.057 11.3718C32.6194 11.9342 32.9358 12.6968 32.9366 13.4922V14.8038H7.06342V13.4922C7.06426 12.6968 7.38061 11.9342 7.94303 11.3718C8.50546 10.8094 9.26803 10.493 10.0634 10.4922ZM29.9366 29.5078H10.0634C9.26803 29.5069 8.50546 29.1906 7.94303 28.6282C7.38061 28.0658 7.06426 27.3032 7.06342 26.5078V16.8038H32.9366V26.5078C32.9358 27.3032 32.6194 28.0658 32.057 28.6282C31.4946 29.1906 30.732 29.5069 29.9366 29.5078ZM30.2032 24.831C30.2032 25.0962 30.0979 25.3506 29.9103 25.5381C29.7228 25.7256 29.4684 25.831 29.2032 25.831H26.8056C26.5404 25.831 26.286 25.7256 26.0985 25.5381C25.911 25.3506 25.8056 25.0962 25.8056 24.831C25.8056 24.5658 25.911 24.3114 26.0985 24.1239C26.286 23.9363 26.5404 23.831 26.8056 23.831H29.2032C29.4684 23.831 29.7228 23.9363 29.9103 24.1239C30.0979 24.3114 30.2032 24.5658 30.2032 24.831Z" fill="#318FFF"/>
</svg>
