<svg width="40" height="40" viewBox="0 0 40 40" fill="none" xmlns="http://www.w3.org/2000/svg">
<path d="M29.9367 8.49219H10.0635C8.73788 8.49378 7.46703 9.02107 6.5297 9.95841C5.59236 10.8957 5.06506 12.1666 5.06348 13.4922V26.5078C5.06506 27.8334 5.59236 29.1042 6.5297 30.0416C7.46703 30.9789 8.73788 31.5062 10.0635 31.5078H29.9367C31.2623 31.5062 32.5331 30.9789 33.4705 30.0416C34.4078 29.1042 34.9351 27.8334 34.9367 26.5078V13.4922C34.9351 12.1666 34.4078 10.8957 33.4705 9.95841C32.5331 9.02107 31.2623 8.49378 29.9367 8.49219ZM10.0635 10.4922H29.9367C30.7321 10.493 31.4946 10.8094 32.0571 11.3718C32.6195 11.9342 32.9358 12.6968 32.9367 13.4922V14.8038H7.06348V13.4922C7.06432 12.6968 7.38067 11.9342 7.94309 11.3718C8.50552 10.8094 9.26809 10.493 10.0635 10.4922ZM29.9367 29.5078H10.0635C9.26809 29.5069 8.50552 29.1906 7.94309 28.6282C7.38067 28.0658 7.06432 27.3032 7.06348 26.5078V16.8038H32.9367V26.5078C32.9358 27.3032 32.6195 28.0658 32.0571 28.6282C31.4946 29.1906 30.7321 29.5069 29.9367 29.5078ZM30.2033 24.831C30.2033 25.0962 30.0979 25.3506 29.9104 25.5381C29.7228 25.7256 29.4685 25.831 29.2033 25.831H26.8057C26.5405 25.831 26.2861 25.7256 26.0986 25.5381C25.911 25.3506 25.8057 25.0962 25.8057 24.831C25.8057 24.5658 25.911 24.3114 26.0986 24.1239C26.2861 23.9363 26.5405 23.831 26.8057 23.831H29.2033C29.4685 23.831 29.7228 23.9363 29.9104 24.1239C30.0979 24.3114 30.2033 24.5658 30.2033 24.831Z" fill="#B0B0B0"/>
</svg>
