<svg width="30" height="30" viewBox="0 0 30 30" fill="none" xmlns="http://www.w3.org/2000/svg">
<path d="M5.17239 8.27593C6.60071 8.27593 7.7586 7.11804 7.7586 5.68972C7.7586 4.2614 6.60071 3.10352 5.17239 3.10352C3.74407 3.10352 2.58618 4.2614 2.58618 5.68972C2.58618 7.11804 3.74407 8.27593 5.17239 8.27593Z" fill="#B0B0B0"/>
<path d="M12.9308 6.20703H27.4135" stroke="#B0B0B0" stroke-width="2.13793" stroke-miterlimit="10" stroke-linecap="round" stroke-linejoin="round"/>
<path d="M5.17239 17.5865C6.60071 17.5865 7.7586 16.4286 7.7586 15.0003C7.7586 13.5719 6.60071 12.4141 5.17239 12.4141C3.74407 12.4141 2.58618 13.5719 2.58618 15.0003C2.58618 16.4286 3.74407 17.5865 5.17239 17.5865Z" fill="#B0B0B0"/>
<path d="M12.9308 15.5176H27.4135" stroke="#B0B0B0" stroke-width="2.13793" stroke-miterlimit="10" stroke-linecap="round" stroke-linejoin="round"/>
<path d="M5.17239 26.897C6.60071 26.897 7.7586 25.7391 7.7586 24.3108C7.7586 22.8825 6.60071 21.7246 5.17239 21.7246C3.74407 21.7246 2.58618 22.8825 2.58618 24.3108C2.58618 25.7391 3.74407 26.897 5.17239 26.897Z" fill="#B0B0B0"/>
<path d="M12.9308 24.8271H27.4135" stroke="#B0B0B0" stroke-width="2.13793" stroke-miterlimit="10" stroke-linecap="round" stroke-linejoin="round"/>
</svg>
