<svg width="30" height="30" viewBox="0 0 30 30" fill="none" xmlns="http://www.w3.org/2000/svg">
<path d="M5.17214 8.27593C6.60047 8.27593 7.75835 7.11804 7.75835 5.68972C7.75835 4.2614 6.60047 3.10352 5.17214 3.10352C3.74382 3.10352 2.58594 4.2614 2.58594 5.68972C2.58594 7.11804 3.74382 8.27593 5.17214 8.27593Z" fill="#318FFF"/>
<path d="M12.9307 6.20691H27.4134" stroke="#318FFF" stroke-width="2.13793" stroke-miterlimit="10" stroke-linecap="round" stroke-linejoin="round"/>
<path d="M5.17214 17.5862C6.60047 17.5862 7.75835 16.4283 7.75835 15C7.75835 13.5717 6.60047 12.4138 5.17214 12.4138C3.74382 12.4138 2.58594 13.5717 2.58594 15C2.58594 16.4283 3.74382 17.5862 5.17214 17.5862Z" fill="#318FFF"/>
<path d="M12.9307 15.5172H27.4134" stroke="#318FFF" stroke-width="2.13793" stroke-miterlimit="10" stroke-linecap="round" stroke-linejoin="round"/>
<path d="M5.17214 26.8965C6.60047 26.8965 7.75835 25.7387 7.75835 24.3103C7.75835 22.882 6.60047 21.7241 5.17214 21.7241C3.74382 21.7241 2.58594 22.882 2.58594 24.3103C2.58594 25.7387 3.74382 26.8965 5.17214 26.8965Z" fill="#318FFF"/>
<path d="M12.9307 24.8275H27.4134" stroke="#318FFF" stroke-width="2.13793" stroke-miterlimit="10" stroke-linecap="round" stroke-linejoin="round"/>
</svg>
