<svg width="122" height="181" viewBox="0 0 122 181" fill="none" xmlns="http://www.w3.org/2000/svg">
<path d="M4.88 2.44595C4.88 3.7968 3.78758 4.89189 2.44 4.89189C1.09243 4.89189 0 3.7968 0 2.44595C0 1.09509 1.09243 0 2.44 0C3.78758 0 4.88 1.09509 4.88 2.44595Z" fill="#FAC53F"/>
<path d="M34.16 2.44595C34.16 3.7968 33.0676 4.89189 31.72 4.89189C30.3724 4.89189 29.28 3.7968 29.28 2.44595C29.28 1.09509 30.3724 0 31.72 0C33.0676 0 34.16 1.09509 34.16 2.44595Z" fill="#FAC53F"/>
<path d="M63.44 2.44595C63.44 3.7968 62.3476 4.89189 61 4.89189C59.6524 4.89189 58.56 3.7968 58.56 2.44595C58.56 1.09509 59.6524 0 61 0C62.3476 0 63.44 1.09509 63.44 2.44595Z" fill="#FAC53F"/>
<path d="M92.72 2.44595C92.72 3.7968 91.6276 4.89189 90.28 4.89189C88.9324 4.89189 87.84 3.7968 87.84 2.44595C87.84 1.09509 88.9324 0 90.28 0C91.6276 0 92.72 1.09509 92.72 2.44595Z" fill="#FAC53F"/>
<path d="M122 2.44595C122 3.7968 120.908 4.89189 119.56 4.89189C118.212 4.89189 117.12 3.7968 117.12 2.44595C117.12 1.09509 118.212 0 119.56 0C120.908 0 122 1.09509 122 2.44595Z" fill="#FAC53F"/>
<path d="M4.88 31.7973C4.88 33.1482 3.78758 34.2432 2.44 34.2432C1.09243 34.2432 0 33.1482 0 31.7973C0 30.4464 1.09243 29.3514 2.44 29.3514C3.78758 29.3514 4.88 30.4464 4.88 31.7973Z" fill="#FAC53F"/>
<path d="M34.16 31.7973C34.16 33.1482 33.0676 34.2432 31.72 34.2432C30.3724 34.2432 29.28 33.1482 29.28 31.7973C29.28 30.4464 30.3724 29.3514 31.72 29.3514C33.0676 29.3514 34.16 30.4464 34.16 31.7973Z" fill="#FAC53F"/>
<path d="M63.44 31.7973C63.44 33.1482 62.3476 34.2432 61 34.2432C59.6524 34.2432 58.56 33.1482 58.56 31.7973C58.56 30.4464 59.6524 29.3514 61 29.3514C62.3476 29.3514 63.44 30.4464 63.44 31.7973Z" fill="#FAC53F"/>
<path d="M92.72 31.7973C92.72 33.1482 91.6276 34.2432 90.28 34.2432C88.9324 34.2432 87.84 33.1482 87.84 31.7973C87.84 30.4464 88.9324 29.3514 90.28 29.3514C91.6276 29.3514 92.72 30.4464 92.72 31.7973Z" fill="#FAC53F"/>
<path d="M122 31.7973C122 33.1482 120.908 34.2432 119.56 34.2432C118.212 34.2432 117.12 33.1482 117.12 31.7973C117.12 30.4464 118.212 29.3514 119.56 29.3514C120.908 29.3514 122 30.4464 122 31.7973Z" fill="#FAC53F"/>
<path d="M4.88 61.1487C4.88 62.4995 3.78758 63.5946 2.44 63.5946C1.09243 63.5946 0 62.4995 0 61.1487C0 59.7978 1.09243 58.7027 2.44 58.7027C3.78758 58.7027 4.88 59.7978 4.88 61.1487Z" fill="#FAC53F"/>
<path d="M34.16 61.1487C34.16 62.4995 33.0676 63.5946 31.72 63.5946C30.3724 63.5946 29.28 62.4995 29.28 61.1487C29.28 59.7978 30.3724 58.7027 31.72 58.7027C33.0676 58.7027 34.16 59.7978 34.16 61.1487Z" fill="#FAC53F"/>
<path d="M63.44 61.1487C63.44 62.4995 62.3476 63.5946 61 63.5946C59.6524 63.5946 58.56 62.4995 58.56 61.1487C58.56 59.7978 59.6524 58.7027 61 58.7027C62.3476 58.7027 63.44 59.7978 63.44 61.1487Z" fill="#FAC53F"/>
<path d="M92.72 61.1487C92.72 62.4995 91.6276 63.5946 90.28 63.5946C88.9324 63.5946 87.84 62.4995 87.84 61.1487C87.84 59.7978 88.9324 58.7027 90.28 58.7027C91.6276 58.7027 92.72 59.7978 92.72 61.1487Z" fill="#FAC53F"/>
<path d="M122 61.1487C122 62.4995 120.908 63.5946 119.56 63.5946C118.212 63.5946 117.12 62.4995 117.12 61.1487C117.12 59.7978 118.212 58.7027 119.56 58.7027C120.908 58.7027 122 59.7978 122 61.1487Z" fill="#FAC53F"/>
<path d="M4.88 90.5C4.88 91.8509 3.78758 92.9459 2.44 92.9459C1.09243 92.9459 0 91.8509 0 90.5C0 89.1491 1.09243 88.0541 2.44 88.0541C3.78758 88.0541 4.88 89.1491 4.88 90.5Z" fill="#FAC53F"/>
<path d="M34.16 90.5C34.16 91.8509 33.0676 92.9459 31.72 92.9459C30.3724 92.9459 29.28 91.8509 29.28 90.5C29.28 89.1491 30.3724 88.0541 31.72 88.0541C33.0676 88.0541 34.16 89.1491 34.16 90.5Z" fill="#FAC53F"/>
<path d="M63.44 90.5C63.44 91.8509 62.3476 92.9459 61 92.9459C59.6524 92.9459 58.56 91.8509 58.56 90.5C58.56 89.1491 59.6524 88.0541 61 88.0541C62.3476 88.0541 63.44 89.1491 63.44 90.5Z" fill="#FAC53F"/>
<path d="M92.72 90.5C92.72 91.8509 91.6276 92.9459 90.28 92.9459C88.9324 92.9459 87.84 91.8509 87.84 90.5C87.84 89.1491 88.9324 88.0541 90.28 88.0541C91.6276 88.0541 92.72 89.1491 92.72 90.5Z" fill="#FAC53F"/>
<path d="M122 90.5C122 91.8509 120.908 92.9459 119.56 92.9459C118.212 92.9459 117.12 91.8509 117.12 90.5C117.12 89.1491 118.212 88.0541 119.56 88.0541C120.908 88.0541 122 89.1491 122 90.5Z" fill="#FAC53F"/>
<path d="M4.88 119.851C4.88 121.202 3.78758 122.297 2.44 122.297C1.09243 122.297 0 121.202 0 119.851C0 118.5 1.09243 117.405 2.44 117.405C3.78758 117.405 4.88 118.5 4.88 119.851Z" fill="#FAC53F"/>
<path d="M34.16 119.851C34.16 121.202 33.0676 122.297 31.72 122.297C30.3724 122.297 29.28 121.202 29.28 119.851C29.28 118.5 30.3724 117.405 31.72 117.405C33.0676 117.405 34.16 118.5 34.16 119.851Z" fill="#FAC53F"/>
<path d="M63.44 119.851C63.44 121.202 62.3476 122.297 61 122.297C59.6524 122.297 58.56 121.202 58.56 119.851C58.56 118.5 59.6524 117.405 61 117.405C62.3476 117.405 63.44 118.5 63.44 119.851Z" fill="#FAC53F"/>
<path d="M92.72 119.851C92.72 121.202 91.6276 122.297 90.28 122.297C88.9324 122.297 87.84 121.202 87.84 119.851C87.84 118.5 88.9324 117.405 90.28 117.405C91.6276 117.405 92.72 118.5 92.72 119.851Z" fill="#FAC53F"/>
<path d="M122 119.851C122 121.202 120.908 122.297 119.56 122.297C118.212 122.297 117.12 121.202 117.12 119.851C117.12 118.5 118.212 117.405 119.56 117.405C120.908 117.405 122 118.5 122 119.851Z" fill="#FAC53F"/>
<path d="M4.88 149.203C4.88 150.554 3.78758 151.649 2.44 151.649C1.09243 151.649 0 150.554 0 149.203C0 147.852 1.09243 146.757 2.44 146.757C3.78758 146.757 4.88 147.852 4.88 149.203Z" fill="#FAC53F"/>
<path d="M34.16 149.203C34.16 150.554 33.0676 151.649 31.72 151.649C30.3724 151.649 29.28 150.554 29.28 149.203C29.28 147.852 30.3724 146.757 31.72 146.757C33.0676 146.757 34.16 147.852 34.16 149.203Z" fill="#FAC53F"/>
<path d="M63.44 149.203C63.44 150.554 62.3476 151.649 61 151.649C59.6524 151.649 58.56 150.554 58.56 149.203C58.56 147.852 59.6524 146.757 61 146.757C62.3476 146.757 63.44 147.852 63.44 149.203Z" fill="#FAC53F"/>
<path d="M92.72 149.203C92.72 150.554 91.6276 151.649 90.28 151.649C88.9324 151.649 87.84 150.554 87.84 149.203C87.84 147.852 88.9324 146.757 90.28 146.757C91.6276 146.757 92.72 147.852 92.72 149.203Z" fill="#FAC53F"/>
<path d="M122 149.203C122 150.554 120.908 151.649 119.56 151.649C118.212 151.649 117.12 150.554 117.12 149.203C117.12 147.852 118.212 146.757 119.56 146.757C120.908 146.757 122 147.852 122 149.203Z" fill="#FAC53F"/>
<path d="M4.88 178.554C4.88 179.905 3.78758 181 2.44 181C1.09243 181 0 179.905 0 178.554C0 177.203 1.09243 176.108 2.44 176.108C3.78758 176.108 4.88 177.203 4.88 178.554Z" fill="#FAC53F"/>
<path d="M34.16 178.554C34.16 179.905 33.0676 181 31.72 181C30.3724 181 29.28 179.905 29.28 178.554C29.28 177.203 30.3724 176.108 31.72 176.108C33.0676 176.108 34.16 177.203 34.16 178.554Z" fill="#FAC53F"/>
<path d="M63.44 178.554C63.44 179.905 62.3476 181 61 181C59.6524 181 58.56 179.905 58.56 178.554C58.56 177.203 59.6524 176.108 61 176.108C62.3476 176.108 63.44 177.203 63.44 178.554Z" fill="#FAC53F"/>
<path d="M92.72 178.554C92.72 179.905 91.6276 181 90.28 181C88.9324 181 87.84 179.905 87.84 178.554C87.84 177.203 88.9324 176.108 90.28 176.108C91.6276 176.108 92.72 177.203 92.72 178.554Z" fill="#FAC53F"/>
<path d="M122 178.554C122 179.905 120.908 181 119.56 181C118.212 181 117.12 179.905 117.12 178.554C117.12 177.203 118.212 176.108 119.56 176.108C120.908 176.108 122 177.203 122 178.554Z" fill="#FAC53F"/>
</svg>
