<svg width="52" height="76" viewBox="0 0 52 76" fill="none" xmlns="http://www.w3.org/2000/svg">
<g opacity="0.3">
<path d="M4 2C4 3.10457 3.10457 4 2 4C0.89543 4 0 3.10457 0 2C0 0.89543 0.89543 0 2 0C3.10457 0 4 0.89543 4 2Z" fill="white"/>
<path d="M4 26C4 27.1046 3.10457 28 2 28C0.89543 28 0 27.1046 0 26C0 24.8954 0.89543 24 2 24C3.10457 24 4 24.8954 4 26Z" fill="white"/>
<path d="M28 26C28 27.1046 27.1046 28 26 28C24.8954 28 24 27.1046 24 26C24 24.8954 24.8954 24 26 24C27.1046 24 28 24.8954 28 26Z" fill="white"/>
<path d="M52 26C52 27.1046 51.1046 28 50 28C48.8954 28 48 27.1046 48 26C48 24.8954 48.8954 24 50 24C51.1046 24 52 24.8954 52 26Z" fill="white"/>
<path d="M4 50C4 51.1046 3.10457 52 2 52C0.89543 52 0 51.1046 0 50C0 48.8954 0.89543 48 2 48C3.10457 48 4 48.8954 4 50Z" fill="white"/>
<path d="M28 50C28 51.1046 27.1046 52 26 52C24.8954 52 24 51.1046 24 50C24 48.8954 24.8954 48 26 48C27.1046 48 28 48.8954 28 50Z" fill="white"/>
<path d="M52 50C52 51.1046 51.1046 52 50 52C48.8954 52 48 51.1046 48 50C48 48.8954 48.8954 48 50 48C51.1046 48 52 48.8954 52 50Z" fill="white"/>
<path d="M28 74C28 75.1046 27.1046 76 26 76C24.8954 76 24 75.1046 24 74C24 72.8954 24.8954 72 26 72C27.1046 72 28 72.8954 28 74Z" fill="white"/>
<path d="M52 74C52 75.1046 51.1046 76 50 76C48.8954 76 48 75.1046 48 74C48 72.8954 48.8954 72 50 72C51.1046 72 52 72.8954 52 74Z" fill="white"/>
</g>
</svg>
