<svg width="525" height="506" viewBox="0 0 525 506" fill="none" xmlns="http://www.w3.org/2000/svg">
<mask id="mask0_628_3918" style="mask-type:alpha" maskUnits="userSpaceOnUse" x="0" y="0" width="525" height="506">
<rect width="525" height="506" fill="#D9D9D9"/>
</mask>
<g mask="url(#mask0_628_3918)">
<circle cy="511" r="150" fill="#318FFF"/>
<circle cy="511" r="234" stroke="#318FFF" stroke-width="2"/>
<circle cy="511" r="319" stroke="#318FFF" stroke-width="2"/>
<circle cy="511" r="404" stroke="#318FFF" stroke-width="2"/>
<circle cy="511" r="489" stroke="#318FFF" stroke-width="2"/>
<circle cx="476" cy="398" r="6" fill="#318FFF"/>
<circle cx="285.165" cy="371.039" r="6" fill="#318FFF"/>
<circle cx="402" cy="471.46" r="6" fill="#318FFF"/>
<circle cx="85.9998" cy="293" r="3.27273" fill="#318FFF"/>
<circle opacity="0.34" cx="476" cy="398" r="11" fill="#318FFF"/>
<circle opacity="0.34" cx="285.165" cy="371.039" r="11" fill="#318FFF"/>
<circle opacity="0.34" cx="402" cy="471.46" r="11" fill="#318FFF"/>
<circle opacity="0.34" cx="86" cy="293" r="6" fill="#318FFF"/>
<circle cx="13.9999" cy="107" r="4.90909" fill="#318FFF"/>
<circle opacity="0.34" cx="14" cy="107" r="9" fill="#318FFF"/>
<path d="M496.13 400.12C495.577 400.12 495.04 400.047 494.52 399.9C494.007 399.747 493.593 399.55 493.28 399.31L493.83 398.09C494.13 398.31 494.487 398.487 494.9 398.62C495.313 398.753 495.727 398.82 496.14 398.82C496.6 398.82 496.94 398.753 497.16 398.62C497.38 398.48 497.49 398.297 497.49 398.07C497.49 397.903 497.423 397.767 497.29 397.66C497.163 397.547 496.997 397.457 496.79 397.39C496.59 397.323 496.317 397.25 495.97 397.17C495.437 397.043 495 396.917 494.66 396.79C494.32 396.663 494.027 396.46 493.78 396.18C493.54 395.9 493.42 395.527 493.42 395.06C493.42 394.653 493.53 394.287 493.75 393.96C493.97 393.627 494.3 393.363 494.74 393.17C495.187 392.977 495.73 392.88 496.37 392.88C496.817 392.88 497.253 392.933 497.68 393.04C498.107 393.147 498.48 393.3 498.8 393.5L498.3 394.73C497.653 394.363 497.007 394.18 496.36 394.18C495.907 394.18 495.57 394.253 495.35 394.4C495.137 394.547 495.03 394.74 495.03 394.98C495.03 395.22 495.153 395.4 495.4 395.52C495.653 395.633 496.037 395.747 496.55 395.86C497.083 395.987 497.52 396.113 497.86 396.24C498.2 396.367 498.49 396.567 498.73 396.84C498.977 397.113 499.1 397.483 499.1 397.95C499.1 398.35 498.987 398.717 498.76 399.05C498.54 399.377 498.207 399.637 497.76 399.83C497.313 400.023 496.77 400.12 496.13 400.12ZM503.657 400.12C502.944 400.12 502.297 399.967 501.717 399.66C501.144 399.347 500.69 398.917 500.357 398.37C500.03 397.817 499.867 397.193 499.867 396.5C499.867 395.807 500.03 395.187 500.357 394.64C500.69 394.087 501.144 393.657 501.717 393.35C502.297 393.037 502.947 392.88 503.667 392.88C504.274 392.88 504.82 392.987 505.307 393.2C505.8 393.413 506.214 393.72 506.547 394.12L505.507 395.08C505.034 394.533 504.447 394.26 503.747 394.26C503.314 394.26 502.927 394.357 502.587 394.55C502.247 394.737 501.98 395 501.787 395.34C501.6 395.68 501.507 396.067 501.507 396.5C501.507 396.933 501.6 397.32 501.787 397.66C501.98 398 502.247 398.267 502.587 398.46C502.927 398.647 503.314 398.74 503.747 398.74C504.447 398.74 505.034 398.463 505.507 397.91L506.547 398.87C506.214 399.277 505.8 399.587 505.307 399.8C504.814 400.013 504.264 400.12 503.657 400.12ZM512.214 398.5H508.964L508.344 400H506.684L509.804 393H511.404L514.534 400H512.834L512.214 398.5ZM511.704 397.27L510.594 394.59L509.484 397.27H511.704ZM521.73 400L521.72 395.8L519.66 399.26H518.93L516.88 395.89V400H515.36V393H516.7L519.32 397.35L521.9 393H523.23L523.25 400H521.73Z" fill="#318FFF"/>
<path d="M305.45 366.3V368.15H308.69V369.45H305.45V372H303.83V365H309.12V366.3H305.45ZM310.317 365H311.937V372H310.317V365ZM315.998 372.12C315.445 372.12 314.908 372.047 314.388 371.9C313.875 371.747 313.461 371.55 313.148 371.31L313.698 370.09C313.998 370.31 314.355 370.487 314.768 370.62C315.181 370.753 315.595 370.82 316.008 370.82C316.468 370.82 316.808 370.753 317.028 370.62C317.248 370.48 317.358 370.297 317.358 370.07C317.358 369.903 317.291 369.767 317.158 369.66C317.031 369.547 316.865 369.457 316.658 369.39C316.458 369.323 316.185 369.25 315.838 369.17C315.305 369.043 314.868 368.917 314.528 368.79C314.188 368.663 313.895 368.46 313.648 368.18C313.408 367.9 313.288 367.527 313.288 367.06C313.288 366.653 313.398 366.287 313.618 365.96C313.838 365.627 314.168 365.363 314.608 365.17C315.055 364.977 315.598 364.88 316.238 364.88C316.685 364.88 317.121 364.933 317.548 365.04C317.975 365.147 318.348 365.3 318.668 365.5L318.168 366.73C317.521 366.363 316.875 366.18 316.228 366.18C315.775 366.18 315.438 366.253 315.218 366.4C315.005 366.547 314.898 366.74 314.898 366.98C314.898 367.22 315.021 367.4 315.268 367.52C315.521 367.633 315.905 367.747 316.418 367.86C316.951 367.987 317.388 368.113 317.728 368.24C318.068 368.367 318.358 368.567 318.598 368.84C318.845 369.113 318.968 369.483 318.968 369.95C318.968 370.35 318.855 370.717 318.628 371.05C318.408 371.377 318.075 371.637 317.628 371.83C317.181 372.023 316.638 372.12 315.998 372.12ZM326.595 365V372H324.975V369.13H321.795V372H320.175V365H321.795V367.76H324.975V365H326.595ZM328.351 365H329.971V372H328.351V365ZM338.152 365V372H336.822L333.332 367.75V372H331.732V365H333.072L336.552 369.25V365H338.152ZM344.639 368.39H346.119V371.23C345.739 371.517 345.299 371.737 344.799 371.89C344.299 372.043 343.795 372.12 343.289 372.12C342.562 372.12 341.909 371.967 341.329 371.66C340.749 371.347 340.292 370.917 339.959 370.37C339.632 369.817 339.469 369.193 339.469 368.5C339.469 367.807 339.632 367.187 339.959 366.64C340.292 366.087 340.752 365.657 341.339 365.35C341.925 365.037 342.585 364.88 343.319 364.88C343.932 364.88 344.489 364.983 344.989 365.19C345.489 365.397 345.909 365.697 346.249 366.09L345.209 367.05C344.709 366.523 344.105 366.26 343.399 366.26C342.952 366.26 342.555 366.353 342.209 366.54C341.862 366.727 341.592 366.99 341.399 367.33C341.205 367.67 341.109 368.06 341.109 368.5C341.109 368.933 341.205 369.32 341.399 369.66C341.592 370 341.859 370.267 342.199 370.46C342.545 370.647 342.939 370.74 343.379 370.74C343.845 370.74 344.265 370.64 344.639 370.44V368.39Z" fill="#318FFF"/>
<path d="M424.2 474L424.19 469.8L422.13 473.26H421.4L419.35 469.89V474H417.83V467H419.17L421.79 471.35L424.37 467H425.7L425.72 474H424.2ZM431.991 472.5H428.741L428.121 474H426.461L429.581 467H431.181L434.311 474H432.611L431.991 472.5ZM431.481 471.27L430.371 468.59L429.261 471.27H431.481ZM435.037 467H436.657V472.68H440.167V474H435.037V467ZM451.164 467L448.874 474H447.134L445.594 469.26L444.004 474H442.274L439.974 467H441.654L443.234 471.92L444.884 467H446.384L447.984 471.96L449.614 467H451.164ZM456.444 472.5H453.194L452.574 474H450.914L454.034 467H455.634L458.764 474H457.064L456.444 472.5ZM455.934 471.27L454.824 468.59L453.714 471.27H455.934ZM463.95 474L462.6 472.05H462.52H461.11V474H459.49V467H462.52C463.14 467 463.677 467.103 464.13 467.31C464.59 467.517 464.943 467.81 465.19 468.19C465.437 468.57 465.56 469.02 465.56 469.54C465.56 470.06 465.433 470.51 465.18 470.89C464.933 471.263 464.58 471.55 464.12 471.75L465.69 474H463.95ZM463.92 469.54C463.92 469.147 463.793 468.847 463.54 468.64C463.287 468.427 462.917 468.32 462.43 468.32H461.11V470.76H462.43C462.917 470.76 463.287 470.653 463.54 470.44C463.793 470.227 463.92 469.927 463.92 469.54ZM472.264 472.7V474H466.844V467H472.134V468.3H468.454V469.82H471.704V471.08H468.454V472.7H472.264Z" fill="#318FFF"/>
</g>
</svg>
