<svg width="490" height="506" viewBox="0 0 490 506" fill="none" xmlns="http://www.w3.org/2000/svg">
<mask id="mask0_628_3695" style="mask-type:alpha" maskUnits="userSpaceOnUse" x="0" y="0" width="490" height="506">
<rect width="490" height="506" fill="#D9D9D9"/>
</mask>
<g mask="url(#mask0_628_3695)">
<circle cy="511" r="150" fill="#318FFF"/>
<circle cy="511" r="234" stroke="#318FFF" stroke-width="2"/>
<circle cy="511" r="319" stroke="#318FFF" stroke-width="2"/>
<circle cy="511" r="404" stroke="#318FFF" stroke-width="2"/>
<circle cy="511" r="489" stroke="#318FFF" stroke-width="2"/>
<circle cx="45" cy="24" r="6" fill="#318FFF"/>
<circle cx="165" cy="142" r="6" fill="#318FFF"/>
<circle cx="67" cy="199" r="6" fill="#318FFF"/>
<circle cx="159" cy="339" r="3.27273" fill="#318FFF"/>
<circle opacity="0.34" cx="45" cy="24" r="11" fill="#318FFF"/>
<circle opacity="0.34" cx="165" cy="142" r="11" fill="#318FFF"/>
<circle opacity="0.34" cx="67" cy="199" r="11" fill="#318FFF"/>
<circle opacity="0.34" cx="159" cy="339" r="6" fill="#318FFF"/>
<circle cx="317" cy="479" r="4.90909" fill="#318FFF"/>
<circle opacity="0.34" cx="317" cy="479" r="9" fill="#318FFF"/>
<path d="M32.13 8.12C31.5767 8.12 31.04 8.04667 30.52 7.9C30.0067 7.74667 29.5933 7.55 29.28 7.31L29.83 6.09C30.13 6.31 30.4867 6.48667 30.9 6.62C31.3133 6.75333 31.7267 6.82 32.14 6.82C32.6 6.82 32.94 6.75333 33.16 6.62C33.38 6.48 33.49 6.29667 33.49 6.07C33.49 5.90333 33.4233 5.76667 33.29 5.66C33.1633 5.54667 32.9967 5.45667 32.79 5.39C32.59 5.32333 32.3167 5.25 31.97 5.17C31.4367 5.04333 31 4.91667 30.66 4.79C30.32 4.66333 30.0267 4.46 29.78 4.18C29.54 3.9 29.42 3.52667 29.42 3.06C29.42 2.65333 29.53 2.28667 29.75 1.96C29.97 1.62667 30.3 1.36333 30.74 1.17C31.1867 0.976666 31.73 0.88 32.37 0.88C32.8167 0.88 33.2533 0.933333 33.68 1.04C34.1067 1.14667 34.48 1.3 34.8 1.5L34.3 2.73C33.6533 2.36333 33.0067 2.18 32.36 2.18C31.9067 2.18 31.57 2.25333 31.35 2.4C31.1367 2.54667 31.03 2.74 31.03 2.98C31.03 3.22 31.1533 3.4 31.4 3.52C31.6533 3.63333 32.0367 3.74667 32.55 3.86C33.0833 3.98667 33.52 4.11333 33.86 4.24C34.2 4.36667 34.49 4.56667 34.73 4.84C34.9767 5.11333 35.1 5.48333 35.1 5.95C35.1 6.35 34.9867 6.71667 34.76 7.05C34.54 7.37667 34.2067 7.63667 33.76 7.83C33.3133 8.02333 32.77 8.12 32.13 8.12ZM39.657 8.12C38.9436 8.12 38.297 7.96667 37.717 7.66C37.1436 7.34667 36.6903 6.91667 36.357 6.37C36.0303 5.81667 35.867 5.19333 35.867 4.5C35.867 3.80667 36.0303 3.18667 36.357 2.64C36.6903 2.08667 37.1436 1.65667 37.717 1.35C38.297 1.03667 38.947 0.88 39.667 0.88C40.2736 0.88 40.8203 0.986667 41.307 1.2C41.8003 1.41333 42.2136 1.72 42.547 2.12L41.507 3.08C41.0336 2.53333 40.447 2.26 39.747 2.26C39.3136 2.26 38.927 2.35667 38.587 2.55C38.247 2.73667 37.9803 3 37.787 3.34C37.6003 3.68 37.507 4.06667 37.507 4.5C37.507 4.93333 37.6003 5.32 37.787 5.66C37.9803 6 38.247 6.26667 38.587 6.46C38.927 6.64667 39.3136 6.74 39.747 6.74C40.447 6.74 41.0336 6.46333 41.507 5.91L42.547 6.87C42.2136 7.27667 41.8003 7.58667 41.307 7.8C40.8136 8.01333 40.2636 8.12 39.657 8.12ZM48.2142 6.5H44.9642L44.3442 8H42.6842L45.8042 1H47.4042L50.5342 8H48.8342L48.2142 6.5ZM47.7042 5.27L46.5942 2.59L45.4842 5.27H47.7042ZM57.7305 8L57.7205 3.8L55.6605 7.26H54.9305L52.8805 3.89V8H51.3605V1H52.7005L55.3205 5.35L57.9005 1H59.2305L59.2505 8H57.7305Z" fill="#318FFF"/>
<path d="M145.553 119.375L145.465 121.222L148.701 121.376L148.639 122.675L145.403 122.521L145.282 125.068L143.664 124.991L143.996 117.999L149.28 118.25L149.218 119.549L145.553 119.375ZM150.475 118.307L152.094 118.384L151.762 125.376L150.143 125.299L150.475 118.307ZM155.813 125.688C155.26 125.662 154.727 125.563 154.215 125.392C153.709 125.215 153.306 124.999 153.004 124.744L153.611 123.552C153.901 123.785 154.249 123.979 154.655 124.132C155.062 124.284 155.471 124.371 155.884 124.39C156.344 124.412 156.686 124.362 156.913 124.239C157.139 124.109 157.258 123.932 157.268 123.705C157.276 123.539 157.216 123.399 157.088 123.286C156.967 123.167 156.805 123.069 156.601 122.993C156.405 122.917 156.135 122.83 155.793 122.734C155.266 122.582 154.836 122.435 154.502 122.292C154.169 122.15 153.885 121.933 153.652 121.641C153.426 121.35 153.323 120.972 153.346 120.505C153.365 120.099 153.492 119.738 153.727 119.422C153.963 119.1 154.305 118.852 154.754 118.68C155.209 118.508 155.756 118.437 156.396 118.468C156.842 118.489 157.275 118.563 157.697 118.69C158.118 118.817 158.483 118.987 158.794 119.202L158.236 120.407C157.607 120.01 156.97 119.797 156.324 119.766C155.871 119.744 155.531 119.802 155.305 119.938C155.085 120.074 154.969 120.262 154.958 120.502C154.946 120.742 155.061 120.927 155.302 121.059C155.549 121.184 155.927 121.315 156.434 121.453C156.961 121.605 157.391 121.752 157.725 121.895C158.058 122.037 158.338 122.251 158.565 122.535C158.799 122.82 158.904 123.195 158.882 123.662C158.863 124.061 158.733 124.422 158.49 124.744C158.255 125.06 157.91 125.304 157.454 125.476C156.999 125.648 156.452 125.719 155.813 125.688ZM166.735 119.079L166.403 126.071L164.785 125.994L164.921 123.127L161.745 122.977L161.609 125.843L159.99 125.767L160.323 118.774L161.941 118.851L161.81 121.608L164.986 121.759L165.117 119.002L166.735 119.079ZM168.489 119.162L170.108 119.239L169.776 126.231L168.157 126.154L168.489 119.162ZM178.28 119.627L177.948 126.619L176.619 126.556L173.335 122.145L173.133 126.391L171.535 126.315L171.867 119.323L173.205 119.386L176.48 123.796L176.682 119.551L178.28 119.627ZM184.598 123.321L186.076 123.391L185.941 126.228C185.548 126.496 185.098 126.695 184.592 126.825C184.085 126.954 183.578 127.007 183.072 126.983C182.347 126.948 181.701 126.764 181.136 126.43C180.572 126.09 180.136 125.639 179.829 125.077C179.529 124.509 179.395 123.878 179.428 123.186C179.461 122.493 179.654 121.882 180.006 121.351C180.365 120.814 180.845 120.406 181.446 120.128C182.047 119.843 182.713 119.718 183.446 119.752C184.058 119.781 184.61 119.911 185.099 120.141C185.589 120.371 185.994 120.691 186.315 121.1L185.231 122.01C184.756 121.46 184.166 121.168 183.46 121.135C183.014 121.113 182.613 121.188 182.258 121.358C181.903 121.528 181.621 121.778 181.412 122.109C181.202 122.439 181.087 122.824 181.067 123.263C181.046 123.696 181.124 124.087 181.301 124.436C181.478 124.785 181.732 125.064 182.062 125.273C182.4 125.476 182.788 125.588 183.228 125.609C183.694 125.631 184.118 125.551 184.501 125.369L184.598 123.321Z" fill="#318FFF"/>
<path d="M46.1904 180.906L46.4002 176.711L44.1619 180.059L43.4329 180.02L41.5621 176.548L41.347 180.652L39.8291 180.573L40.1955 173.582L41.5336 173.652L43.9224 178.133L46.7265 173.924L48.0547 173.994L47.7083 180.985L46.1904 180.906ZM54.049 179.816L50.8034 179.646L50.1058 181.111L48.4481 181.024L51.9301 174.197L53.528 174.281L56.2873 181.435L54.5896 181.346L54.049 179.816ZM53.6041 178.561L52.6358 175.826L51.3871 178.445L53.6041 178.561ZM57.3789 174.483L58.9967 174.567L58.6994 180.24L62.2046 180.423L62.1355 181.742L57.0125 181.473L57.3789 174.483ZM73.4837 175.327L70.8305 182.197L69.0928 182.106L67.803 177.292L65.9671 181.942L64.2395 181.852L62.309 174.741L63.9867 174.829L65.3071 179.825L67.2123 174.998L68.7102 175.077L70.0484 180.114L71.9358 175.246L73.4837 175.327ZM78.4686 181.096L75.223 180.925L74.5254 182.391L72.8677 182.304L76.3498 175.477L77.9476 175.561L80.7069 182.715L79.0092 182.626L78.4686 181.096ZM78.0237 179.841L77.0555 177.106L75.8067 179.724L78.0237 179.841ZM85.886 182.986L84.64 180.968L84.5601 180.964L83.152 180.89L83.0499 182.838L81.4322 182.753L81.7985 175.763L84.8244 175.921C85.4435 175.954 85.974 176.085 86.4159 176.315C86.8645 176.545 87.202 176.857 87.4284 177.249C87.6549 177.642 87.7545 178.097 87.7273 178.617C87.7001 179.136 87.55 179.579 87.2771 179.945C87.0113 180.305 86.6434 180.573 86.1736 180.748L87.6237 183.077L85.886 182.986ZM86.0895 178.531C86.1101 178.138 85.9993 177.832 85.7571 177.612C85.5153 177.386 85.1514 177.26 84.6654 177.235L83.3472 177.166L83.2195 179.602L84.5377 179.671C85.0237 179.697 85.3988 179.61 85.6629 179.41C85.9271 179.21 86.0693 178.917 86.0895 178.531ZM94.2562 182.123L94.1882 183.421L88.7756 183.138L89.142 176.147L94.4247 176.424L94.3567 177.722L90.6817 177.53L90.6022 179.048L93.8477 179.218L93.7818 180.476L90.5362 180.306L90.4514 181.924L94.2562 182.123Z" fill="#318FFF"/>
</g>
</svg>
