<svg width="550" height="483" viewBox="0 0 550 483" fill="none" xmlns="http://www.w3.org/2000/svg">
<mask id="mask0_719_22304" style="mask-type:alpha" maskUnits="userSpaceOnUse" x="0" y="0" width="550" height="483">
<rect width="550" height="483" fill="#D9D9D9"/>
</mask>
<g mask="url(#mask0_719_22304)">
<circle cx="61" cy="511" r="150" fill="#318FFF"/>
<circle cx="61" cy="511" r="234" stroke="#318FFF" stroke-width="2"/>
<circle cx="61" cy="511" r="319" stroke="#318FFF" stroke-width="2"/>
<circle cx="61" cy="511" r="404" stroke="#318FFF" stroke-width="2"/>
<circle cx="61" cy="511" r="489" stroke="#318FFF" stroke-width="2"/>
<circle cx="218" cy="233" r="5" fill="#318FFF"/>
<circle opacity="0.34" cx="218" cy="233" r="9" fill="#318FFF"/>
<circle cx="446" cy="392" r="5" fill="#318FFF"/>
<circle opacity="0.34" cx="446" cy="392" r="9" fill="#318FFF"/>
<circle cx="135" cy="113" r="5" fill="#318FFF"/>
<circle opacity="0.34" cx="135" cy="113" r="9" fill="#318FFF"/>
<circle cx="365" cy="127" r="5" fill="#318FFF"/>
<circle opacity="0.34" cx="365" cy="127" r="9" fill="#318FFF"/>
<circle cx="34" cy="21" r="5" fill="#318FFF"/>
<circle opacity="0.34" cx="34" cy="21" r="9" fill="#318FFF"/>
<circle cx="269" cy="404" r="6" fill="#318FFF"/>
<circle opacity="0.34" cx="269" cy="404" r="11" fill="#318FFF"/>
<path d="M223.13 408.12C222.577 408.12 222.04 408.047 221.52 407.9C221.007 407.747 220.593 407.55 220.28 407.31L220.83 406.09C221.13 406.31 221.487 406.487 221.9 406.62C222.313 406.753 222.727 406.82 223.14 406.82C223.6 406.82 223.94 406.753 224.16 406.62C224.38 406.48 224.49 406.297 224.49 406.07C224.49 405.903 224.423 405.767 224.29 405.66C224.163 405.547 223.997 405.457 223.79 405.39C223.59 405.323 223.317 405.25 222.97 405.17C222.437 405.043 222 404.917 221.66 404.79C221.32 404.663 221.027 404.46 220.78 404.18C220.54 403.9 220.42 403.527 220.42 403.06C220.42 402.653 220.53 402.287 220.75 401.96C220.97 401.627 221.3 401.363 221.74 401.17C222.187 400.977 222.73 400.88 223.37 400.88C223.817 400.88 224.253 400.933 224.68 401.04C225.107 401.147 225.48 401.3 225.8 401.5L225.3 402.73C224.653 402.363 224.007 402.18 223.36 402.18C222.907 402.18 222.57 402.253 222.35 402.4C222.137 402.547 222.03 402.74 222.03 402.98C222.03 403.22 222.153 403.4 222.4 403.52C222.653 403.633 223.037 403.747 223.55 403.86C224.083 403.987 224.52 404.113 224.86 404.24C225.2 404.367 225.49 404.567 225.73 404.84C225.977 405.113 226.1 405.483 226.1 405.95C226.1 406.35 225.987 406.717 225.76 407.05C225.54 407.377 225.207 407.637 224.76 407.83C224.313 408.023 223.77 408.12 223.13 408.12ZM230.657 408.12C229.944 408.12 229.297 407.967 228.717 407.66C228.144 407.347 227.69 406.917 227.357 406.37C227.03 405.817 226.867 405.193 226.867 404.5C226.867 403.807 227.03 403.187 227.357 402.64C227.69 402.087 228.144 401.657 228.717 401.35C229.297 401.037 229.947 400.88 230.667 400.88C231.274 400.88 231.82 400.987 232.307 401.2C232.8 401.413 233.214 401.72 233.547 402.12L232.507 403.08C232.034 402.533 231.447 402.26 230.747 402.26C230.314 402.26 229.927 402.357 229.587 402.55C229.247 402.737 228.98 403 228.787 403.34C228.6 403.68 228.507 404.067 228.507 404.5C228.507 404.933 228.6 405.32 228.787 405.66C228.98 406 229.247 406.267 229.587 406.46C229.927 406.647 230.314 406.74 230.747 406.74C231.447 406.74 232.034 406.463 232.507 405.91L233.547 406.87C233.214 407.277 232.8 407.587 232.307 407.8C231.814 408.013 231.264 408.12 230.657 408.12ZM239.214 406.5H235.964L235.344 408H233.684L236.804 401H238.404L241.534 408H239.834L239.214 406.5ZM238.704 405.27L237.594 402.59L236.484 405.27H238.704ZM248.73 408L248.72 403.8L246.66 407.26H245.93L243.88 403.89V408H242.36V401H243.7L246.32 405.35L248.9 401H250.23L250.25 408H248.73Z" fill="#318FFF"/>
<circle cx="374.214" cy="451.961" r="6" fill="#318FFF"/>
<circle opacity="0.34" cx="374.214" cy="452" r="11" fill="#318FFF"/>
<path d="M316.45 450.3V452.15H319.69V453.45H316.45V456H314.83V449H320.12V450.3H316.45ZM321.317 449H322.937V456H321.317V449ZM326.998 456.12C326.445 456.12 325.908 456.047 325.388 455.9C324.875 455.747 324.461 455.55 324.148 455.31L324.698 454.09C324.998 454.31 325.355 454.487 325.768 454.62C326.181 454.753 326.595 454.82 327.008 454.82C327.468 454.82 327.808 454.753 328.028 454.62C328.248 454.48 328.358 454.297 328.358 454.07C328.358 453.903 328.291 453.767 328.158 453.66C328.031 453.547 327.865 453.457 327.658 453.39C327.458 453.323 327.185 453.25 326.838 453.17C326.305 453.043 325.868 452.917 325.528 452.79C325.188 452.663 324.895 452.46 324.648 452.18C324.408 451.9 324.288 451.527 324.288 451.06C324.288 450.653 324.398 450.287 324.618 449.96C324.838 449.627 325.168 449.363 325.608 449.17C326.055 448.977 326.598 448.88 327.238 448.88C327.685 448.88 328.121 448.933 328.548 449.04C328.975 449.147 329.348 449.3 329.668 449.5L329.168 450.73C328.521 450.363 327.875 450.18 327.228 450.18C326.775 450.18 326.438 450.253 326.218 450.4C326.005 450.547 325.898 450.74 325.898 450.98C325.898 451.22 326.021 451.4 326.268 451.52C326.521 451.633 326.905 451.747 327.418 451.86C327.951 451.987 328.388 452.113 328.728 452.24C329.068 452.367 329.358 452.567 329.598 452.84C329.845 453.113 329.968 453.483 329.968 453.95C329.968 454.35 329.855 454.717 329.628 455.05C329.408 455.377 329.075 455.637 328.628 455.83C328.181 456.023 327.638 456.12 326.998 456.12ZM337.595 449V456H335.975V453.13H332.795V456H331.175V449H332.795V451.76H335.975V449H337.595ZM339.351 449H340.971V456H339.351V449ZM349.152 449V456H347.822L344.332 451.75V456H342.732V449H344.072L347.552 453.25V449H349.152ZM355.639 452.39H357.119V455.23C356.739 455.517 356.299 455.737 355.799 455.89C355.299 456.043 354.795 456.12 354.289 456.12C353.562 456.12 352.909 455.967 352.329 455.66C351.749 455.347 351.292 454.917 350.959 454.37C350.632 453.817 350.469 453.193 350.469 452.5C350.469 451.807 350.632 451.187 350.959 450.64C351.292 450.087 351.752 449.657 352.339 449.35C352.925 449.037 353.585 448.88 354.319 448.88C354.932 448.88 355.489 448.983 355.989 449.19C356.489 449.397 356.909 449.697 357.249 450.09L356.209 451.05C355.709 450.523 355.105 450.26 354.399 450.26C353.952 450.26 353.555 450.353 353.209 450.54C352.862 450.727 352.592 450.99 352.399 451.33C352.205 451.67 352.109 452.06 352.109 452.5C352.109 452.933 352.205 453.32 352.399 453.66C352.592 454 352.859 454.267 353.199 454.46C353.545 454.647 353.939 454.74 354.379 454.74C354.845 454.74 355.265 454.64 355.639 454.44V452.39Z" fill="#318FFF"/>
<circle cx="54" cy="277.539" r="6" fill="#318FFF"/>
<circle opacity="0.34" cx="54" cy="277.539" r="11" fill="#318FFF"/>
<path d="M33.2 261L33.19 256.8L31.13 260.26H30.4L28.35 256.89V261H26.83V254H28.17L30.79 258.35L33.37 254H34.7L34.72 261H33.2ZM40.9908 259.5H37.7408L37.1208 261H35.4608L38.5808 254H40.1808L43.3108 261H41.6108L40.9908 259.5ZM40.4808 258.27L39.3708 255.59L38.2608 258.27H40.4808ZM44.037 254H45.657V259.68H49.167V261H44.037V254ZM60.1639 254L57.8739 261H56.1339L54.5939 256.26L53.0039 261H51.2739L48.9739 254H50.6539L52.2339 258.92L53.8839 254H55.3839L56.9839 258.96L58.6139 254H60.1639ZM65.4439 259.5H62.1939L61.5739 261H59.9139L63.0339 254H64.6339L67.7639 261H66.0639L65.4439 259.5ZM64.9339 258.27L63.8239 255.59L62.7139 258.27H64.9339ZM72.9502 261L71.6002 259.05H71.5202H70.1102V261H68.4902V254H71.5202C72.1402 254 72.6768 254.103 73.1302 254.31C73.5902 254.517 73.9435 254.81 74.1902 255.19C74.4368 255.57 74.5602 256.02 74.5602 256.54C74.5602 257.06 74.4335 257.51 74.1802 257.89C73.9335 258.263 73.5802 258.55 73.1202 258.75L74.6902 261H72.9502ZM72.9202 256.54C72.9202 256.147 72.7935 255.847 72.5402 255.64C72.2868 255.427 71.9168 255.32 71.4302 255.32H70.1102V257.76H71.4302C71.9168 257.76 72.2868 257.653 72.5402 257.44C72.7935 257.227 72.9202 256.927 72.9202 256.54ZM81.2637 259.7V261H75.8437V254H81.1337V255.3H77.4537V256.82H80.7037V258.08H77.4537V259.7H81.2637Z" fill="#318FFF"/>
</g>
</svg>
