<svg width="246" height="168" viewBox="0 0 246 168" fill="none" xmlns="http://www.w3.org/2000/svg">
<g clip-path="url(#clip0_418_10303)">
<path d="M184.337 140.193L181.5 161L214.198 165.453L217.035 144.646L184.337 140.193Z" fill="#EBEBEB"/>
<path d="M216.5 144C216.396 144.095 216.619 143.926 216.5 144L214.5 145L211.5 147L198.5 155C198.437 154.932 198.57 155.072 198.5 155L188.5 144L185.5 141L184.5 139C184.401 138.896 184.582 139.118 184.5 139C184.614 139.086 184.405 138.892 184.5 139L185.5 140C186.258 140.796 187.204 142.631 188.5 144L198.5 154V155L211.5 147L214.5 145L216.5 144C216.371 144.056 216.616 143.919 216.5 144Z" fill="#E0E0E0"/>
<path d="M181.5 162C181.444 161.935 184.904 159.309 188.5 156C192.096 152.691 194.444 149.935 194.5 150C194.556 150.065 192.096 152.687 188.5 156C184.904 159.313 181.556 162.061 181.5 162Z" fill="#E0E0E0"/>
<path d="M205.5 151C205.574 150.958 208.022 153.859 210.5 158C212.978 162.141 214.574 165.966 214.5 166C214.426 166.034 211.982 163.148 209.5 159C207.018 154.852 205.426 151.023 205.5 151Z" fill="#E0E0E0"/>
<path d="M149.5 31.0001L133.5 26.0001C132.966 25.8543 131.775 25.4752 131.5 25.0001C131.225 24.5249 131.356 24.5285 131.5 24.0001L138.5 2.00008C138.648 1.47259 138.019 0.2716 138.5 8.37743e-05C138.981 -0.271432 139.965 -0.142146 140.5 8.37743e-05L150.5 3.00008L156.5 14.0001L152.5 29.0001C152.427 29.2628 151.669 29.7849 151.5 30.0001C151.331 30.2153 150.739 30.8652 150.5 31.0001C150.261 31.135 150.774 30.966 150.5 31.0001C150.226 31.0342 149.766 31.0721 149.5 31.0001Z" fill="#EBEBEB"/>
<path d="M150.5 3L148.5 9C148.43 9.23928 148.465 9.75432 148.5 10C148.535 10.2457 148.365 10.7854 148.5 11C148.635 11.2146 149.286 10.8491 149.5 11C149.714 11.1509 150.24 10.9358 150.5 11L156.5 13L150.5 3Z" fill="#E0E0E0"/>
<path d="M148.5 7.99996C148.477 8.08038 146.707 7.52789 144.5 6.99996C142.293 6.47203 140.477 6.07688 140.5 5.99996C140.523 5.92305 142.293 6.46854 144.5 6.99996C146.707 7.53139 148.523 7.91256 148.5 7.99996Z" fill="white"/>
<path d="M152.5 13.0001C152.477 13.0726 150.091 12.8205 146.5 12.0001C142.909 11.1797 139.477 10.0726 139.5 10.0001C139.523 9.9276 142.909 11.1797 146.5 12.0001C150.091 12.8205 152.5 12.9276 152.5 13.0001Z" fill="white"/>
<path d="M151.5 17.0001C151.479 17.0885 148.087 16.0936 144.5 15.0001C140.913 13.9066 138.479 13.0885 138.5 13.0001C138.521 12.9116 141.909 13.9106 145.5 15.0001C149.091 16.0896 151.521 16.9076 151.5 17.0001Z" fill="white"/>
<path d="M150.5 20.0001C150.479 20.0886 147.092 19.0907 143.5 18.0001C139.908 16.9095 137.479 16.0886 137.5 16.0001C137.521 15.9116 140.908 16.9095 144.5 18.0001C148.092 19.0907 150.521 19.9116 150.5 20.0001Z" fill="white"/>
<path d="M149.5 22.9999C149.479 23.0889 146.087 22.0957 142.5 20.9999C138.913 19.9041 136.482 19.0727 136.5 18.9999C136.518 18.9271 139.913 19.9041 143.5 20.9999C147.087 22.0957 149.521 22.9069 149.5 22.9999Z" fill="white"/>
<path d="M149.5 25.0001C149.479 25.0886 146.087 24.0907 142.5 23.0001C138.913 21.9095 136.479 21.0886 136.5 21.0001C136.521 20.9116 139.909 21.9095 143.5 23.0001C147.091 24.0907 149.518 24.9116 149.5 25.0001Z" fill="white"/>
<path d="M58.5 156L42.5 163C41.9776 163.219 42.0274 163.207 41.5 163C40.9726 162.793 40.725 161.513 40.5 161L30.5 140C30.2771 139.487 30.2893 138.518 30.5 138C30.7107 137.482 31.9785 137.221 32.5 137L41.5 133L53.5 138L60.5 153C60.7178 153.514 60.7149 154.485 60.5 155C60.2851 155.515 59.0222 155.784 58.5 156Z" fill="#EBEBEB"/>
<path d="M41.5 133L43.5 139C43.6013 139.227 44.3148 138.827 44.5 139C44.6852 139.173 45.2592 139.908 45.5 140C45.7408 140.092 46.2406 140.003 46.5 140C46.7594 139.997 47.2617 140.098 47.5 140L52.5 138L41.5 133Z" fill="#E0E0E0"/>
<path d="M42.5 139C42.5324 139.075 41.4344 139.185 39.5 140C37.5656 140.815 35.5288 142.082 35.5 142C35.4712 141.918 36.5656 140.819 38.5 140C40.4344 139.181 42.4676 138.925 42.5 139Z" fill="white"/>
<path d="M48.5 141C48.5337 141.077 45.8178 141.623 42.5 143C39.1822 144.377 36.5337 146.077 36.5 146C36.4663 145.923 39.1822 144.373 42.5 143C45.8178 141.627 48.4551 140.923 48.5 141Z" fill="white"/>
<path d="M51.5 143C51.5335 143.084 49.0873 144.355 45.5 146C41.9127 147.646 38.5335 149.072 38.5 149C38.4665 148.928 41.9127 147.65 45.5 146C49.0873 144.351 51.4665 142.916 51.5 143Z" fill="white"/>
<path d="M52.5 146C52.5335 146.088 50.0873 147.346 46.5 149C42.9127 150.654 39.5335 152.105 39.5 152C39.4665 151.895 42.909 150.654 46.5 149C50.091 147.346 52.4665 145.915 52.5 146Z" fill="white"/>
<path d="M53.5 149C53.5335 149.085 51.092 150.352 47.5 152C43.908 153.648 40.5335 155.085 40.5 155C40.4665 154.916 43.908 153.648 47.5 152C51.092 150.352 53.4665 148.916 53.5 149Z" fill="white"/>
<path d="M54.5 151C54.5335 151.084 52.0873 152.352 48.5 154C44.9127 155.648 41.5335 157.084 41.5 157C41.4665 156.916 44.9127 155.648 48.5 154C52.0873 152.352 54.4665 150.924 54.5 151Z" fill="white"/>
<path d="M215.5 61L209.5 48C209.033 46.9802 208.53 46.4387 207.5 46C206.471 45.5613 205.556 45.6289 204.5 46L202.5 47L191.5 52L189.5 49C188.841 47.4834 188.912 45.5455 189.5 44C190.088 42.4545 192.001 41.6899 193.5 41C194.999 40.3101 195.948 40.4394 197.5 41C199.052 41.5606 200.784 42.5098 201.5 44H203.5C202.616 42.057 200.495 40.7467 198.5 40C196.505 39.2533 194.437 39.113 192.5 40C190.563 40.887 189.244 41.9989 188.5 44C187.756 46.0011 187.616 48.057 188.5 50L189.5 52C188.598 52.5883 187.801 53.9637 187.5 55C187.199 56.0363 188.053 57.0181 188.5 58L193.5 71C193.998 72.0836 195.384 73.5857 196.5 74C197.616 74.4143 199.418 73.4969 200.5 73L213.5 68C214.577 67.5026 216.085 65.1143 216.5 64C216.915 62.8857 215.987 62.0845 215.5 61ZM201.5 64V61C200.989 60.9318 199.868 60.3616 199.5 60C199.132 59.6384 198.579 59.5109 198.5 59C198.421 58.4891 199.258 57.4566 199.5 57C199.742 56.5434 200.034 56.2203 200.5 56C200.966 55.7797 200.995 55.8962 201.5 56C202.005 56.1038 203.158 56.6134 203.5 57C203.842 57.3866 203.457 58.4848 203.5 59C203.543 59.5152 203.773 59.5615 203.5 60L205.5 62L201.5 64Z" fill="#F5F5F5"/>
<path d="M24.5 11.0152L62.4995 11.2074C63.3841 11.2119 63.872 11.5949 64.4944 12.2175C65.1168 12.8401 65.4887 13.3465 65.4842 14.2225L65.464 18.2225L21.4646 17.9999L21.4848 14C21.4893 13.1153 21.8601 12.6274 22.4949 12.005C23.1298 11.3827 23.6066 11.0107 24.5 11.0152Z" fill="#EBEBEB"/>
<path d="M49.5 23C46.9787 20.3132 44.5 21 44.5 21C44.5 21 38.6675 20.3227 36.5 27C34.3325 33.6773 39.5 35 39.5 35C39.5 35 38.9334 36.9208 40.5 37C40.5 37 42.2235 36.8365 42.5 36C42.6132 36.2459 42.2669 36.8693 42.5 37C42.7331 37.1307 43.2363 37.0346 43.5 37C43.7575 36.9942 43.277 37.1317 43.5 37C43.723 36.8682 44.3666 36.2252 44.5 36C44.655 36.254 45.241 36.8603 45.5 37C45.759 37.1397 46.2074 37.0127 46.5 37C47.5284 36.9585 46.4779 35.5577 46.5 35C46.5 35 51.3304 34.7418 51.5 31C51.5037 30.9623 52.4194 26.105 49.5 23ZM39.5 33C39.0136 32.9851 38.8972 33.2873 38.5 33C38.1028 32.7126 37.6755 31.464 37.5 31C37.3245 30.536 37.3952 30.4858 37.5 30C37.6048 29.5142 38.1499 29.3455 38.5 29C38.8501 28.6545 39.0214 28.0899 39.5 28C39.9786 27.9101 41.0526 27.8043 41.5 28C41.9474 28.1957 42.2331 28.584 42.5 29C42.7669 29.416 42.5027 30.5025 42.5 31C42.4864 31.678 41.9773 31.529 41.5 32C41.0227 32.4709 40.1633 33.0101 39.5 33ZM43.5 35H42.5C42.4535 35.0002 42.5406 35.0232 42.5 35C42.4594 34.9768 42.5241 35.0406 42.5 35C42.4759 34.9594 42.5014 35.0475 42.5 35C42.4986 34.9525 42.4784 34.042 42.5 34V33C42.5222 32.9583 42.4601 33.0242 42.5 33C42.5399 32.9757 43.4536 33 43.5 33C43.5464 33 43.4601 32.9757 43.5 33C43.5399 33.0242 43.4778 32.9583 43.5 33L44.5 34C44.5203 34.0431 44.503 34.9522 44.5 35C44.497 35.0478 44.5256 34.9598 44.5 35C44.4744 35.0401 44.5415 34.9778 44.5 35C44.4585 35.0221 43.5468 35.0015 43.5 35ZM46.5 33C46.0136 32.9851 45.8972 33.2873 45.5 33C45.1028 32.7126 44.6755 31.464 44.5 31C44.3245 30.536 44.3952 30.4858 44.5 30C44.6048 29.5142 45.1499 29.3455 45.5 29C45.8501 28.6545 46.0214 28.0899 46.5 28C46.9786 27.9101 47.0526 27.8043 47.5 28C47.9474 28.1957 48.2331 28.584 48.5 29C48.7669 29.416 49.5027 30.5025 49.5 31C49.4942 31.3363 49.6314 30.6915 49.5 31C49.3686 31.3084 48.7369 31.7665 48.5 32C48.2631 32.2334 47.8063 32.8771 47.5 33C47.1937 33.1228 46.829 33.0065 46.5 33Z" fill="#E0E0E0"/>
<path d="M52.5 43C52.5006 42.6413 52.7323 42.2732 52.5 42C52.2677 41.7269 50.8538 42.0566 50.5 42C50.1462 41.9435 50.8057 41.8129 50.5 42C50.1943 42.1872 49.611 42.659 49.5 43L38.5 38C38.5962 37.7966 38.5012 38.2251 38.5 38C38.4988 37.775 38.5983 37.2024 38.5 37C38.4017 36.7976 37.6761 36.1399 37.5 36C37.3239 35.8602 36.7192 36.0498 36.5 36C36.2808 35.9502 36.7191 35.95 36.5 36C36.2809 36.0501 36.6759 35.8599 36.5 36C36.3241 36.1401 35.5981 36.7975 35.5 37C35.4019 37.2026 35.5009 37.775 35.5 38C35.4942 38.245 35.3879 37.7822 35.5 38C35.2724 38.0881 34.6605 37.8159 34.5 38C34.3395 38.1842 34.5564 38.7623 34.5 39C34.4436 39.2378 34.4393 39.7633 34.5 40C34.5607 40.2367 35.3362 40.8189 35.5 41C35.6638 41.1812 35.2708 41.9161 35.5 42C35.7292 42.084 36.2581 42.0326 36.5 42C36.7419 41.9675 36.3011 41.1416 36.5 41C36.6989 40.8584 37.3898 41.2181 37.5 41L48.5 45C48.4309 45.2072 48.4758 44.783 48.5 45C48.5242 45.2171 48.387 45.8132 48.5 46C48.613 46.1869 49.3191 46.878 49.5 47C49.6809 47.1221 50.2846 46.9653 50.5 47C50.7154 47.0348 50.29 47.0591 50.5 47C50.71 46.941 50.3342 47.1419 50.5 47C50.6658 46.8582 51.409 46.1985 51.5 46C51.591 45.8015 51.5007 45.2184 51.5 45C51.5021 44.7554 51.6087 45.2191 51.5 45C51.7796 44.893 52.3275 44.245 52.5 44C52.6725 43.7551 52.4932 43.2997 52.5 43Z" fill="#E0E0E0"/>
<path d="M50.5 37C50.2295 36.7561 50.8639 36.0097 50.5 36C50.1361 35.9902 48.7832 35.771 48.5 36C48.2168 36.229 48.5669 37.6418 48.5 38C48.4331 38.3582 48.3186 37.684 48.5 38L37.5 44C37.4138 43.7942 36.6641 43.151 36.5 43C36.3288 42.8445 36.7218 43.0652 36.5 43C36.2782 42.9348 36.728 42.9618 36.5 43C36.272 43.0382 35.6885 42.8661 35.5 43C35.3115 43.1339 34.6113 43.7972 34.5 44C34.3887 44.2028 34.5118 43.7689 34.5 44C34.4882 44.2311 34.4099 44.7869 34.5 45C34.5901 45.2131 35.3261 45.8475 35.5 46C35.6739 46.1524 35.2771 45.9387 35.5 46C35.4155 46.2309 35.4683 45.7561 35.5 46C35.5317 46.2439 36.3593 46.7984 36.5 47C36.6407 47.2016 36.2821 47.8863 36.5 48C36.7179 48.1137 36.2543 48 36.5 48C36.7457 48 37.2821 48.1137 37.5 48C37.7179 47.8863 38.3593 47.2016 38.5 47C38.6407 46.7984 38.4683 46.2439 38.5 46C38.5317 45.7561 38.5845 46.2309 38.5 46L49.5 41C49.6111 41.1894 50.3201 40.8741 50.5 41C50.6799 41.1259 50.2841 40.9605 50.5 41C50.7159 41.0395 51.2873 41.0541 51.5 41C51.7127 40.9458 51.3292 41.1379 51.5 41C51.6708 40.8621 52.4021 40.1966 52.5 40C52.5979 39.8034 52.4928 40.2195 52.5 40C52.5072 39.7804 52.5848 39.2026 52.5 39C52.4152 38.7974 51.6614 38.1488 51.5 38C51.32 37.8317 51.7369 38.0675 51.5 38C51.6078 37.7143 51.5716 37.2968 51.5 37C51.4284 36.7031 50.7261 37.205 50.5 37Z" fill="#E0E0E0"/>
<path d="M62.5 51H24.5C23.5856 50.9942 23.1434 49.644 22.5 49C21.8565 48.356 21.4971 47.9064 21.5 47V14C21.5048 13.0968 22.854 12.6369 23.5 12C24.146 11.3631 24.5888 11 25.5 11H63.5C63.9527 11 64.0819 11.8279 64.5 12C64.9181 12.1721 65.1804 12.6822 65.5 13C65.8196 13.3178 66.3278 12.585 66.5 13C66.6722 13.415 66.5014 14.5513 66.5 15V48C66.4942 48.9023 65.145 49.3634 64.5 50C63.855 50.6366 63.4102 50.9981 62.5 51ZM62.5 51C63.3138 51 63.9228 49.5687 64.5 49C65.0771 48.4313 65.4951 48.8067 65.5 48L66.5 15C66.5024 14.5992 65.6526 13.3712 65.5 13C65.3474 12.6288 64.7844 13.2849 64.5 13C64.2156 12.7151 64.8728 12.1553 64.5 12C64.1272 11.8447 63.9043 12.0019 63.5 12L25.5 11C24.6859 11.0009 24.077 12.4307 23.5 13C22.923 13.5693 22.5048 13.193 22.5 14L21.5 47C21.4931 47.8099 22.9281 48.4215 23.5 49C24.0719 49.5785 23.683 49.9904 24.5 50L62.5 51Z" fill="#E0E0E0"/>
<path d="M26.5 13.9999C26.4989 14.1792 26.6005 13.8515 26.5 13.9999C26.3995 14.1484 25.666 14.9323 25.5 14.9999C25.334 15.0675 25.6756 15.0359 25.5 14.9999C25.3244 14.9639 24.626 15.1274 24.5 14.9999C24.374 14.8724 24.5339 14.176 24.5 13.9999C24.4661 13.8239 24.4304 14.1651 24.5 13.9999C24.5696 13.8347 25.3504 13.0986 25.5 12.9999C25.6496 12.9012 25.3207 12.9989 25.5 12.9999C25.6191 13.0003 25.3901 12.9538 25.5 12.9999C25.6099 13.046 26.4163 12.9152 26.5 12.9999C26.5837 13.0847 26.4552 13.8895 26.5 13.9999C26.501 13.8808 26.5448 14.1103 26.5 13.9999Z" fill="white"/>
<path d="M30.5 14C30.4995 14.1793 30.6002 13.8512 30.5 14C30.3999 14.1488 29.666 14.9319 29.5 15C29.334 15.068 29.6758 15.0357 29.5 15C29.3242 14.9643 28.6263 15.1274 28.5 15C28.3737 14.8726 28.5342 14.1761 28.5 14C28.4659 13.8239 28.4305 14.1653 28.5 14C28.5695 13.8346 29.3503 13.0988 29.5 13C29.6497 12.9011 29.3206 12.9989 29.5 13C29.6189 13.0003 29.3903 12.9541 29.5 13C29.6097 13.0459 30.4163 12.9155 30.5 13C30.5837 13.0844 30.4551 13.8899 30.5 14C30.5007 13.8811 30.5449 14.1101 30.5 14Z" fill="white"/>
<path d="M34.5 14.9999C34.4985 15.2606 34.6462 14.784 34.5 14.9999C34.3538 15.2158 33.7416 15.9015 33.5 15.9999C33.2584 16.0982 32.7556 16.0523 32.5 15.9999C32.2444 15.9475 31.6834 16.1853 31.5 15.9999C31.3166 15.8144 31.5494 15.2559 31.5 14.9999C31.4506 14.7439 31.3987 14.2402 31.5 13.9999C31.6012 13.7596 32.2822 13.1435 32.5 12.9999C32.7178 12.8563 33.2391 12.9984 33.5 12.9999C33.8495 13.003 34.2543 12.7514 34.5 12.9999C34.7457 13.2484 34.501 14.6506 34.5 14.9999Z" fill="white"/>
<path d="M206.5 119C206.679 120.262 206.025 120.848 205.5 122C204.975 123.152 204.552 124.346 203.5 125C202.448 125.654 201.723 126.064 200.5 126C199.277 125.935 197.483 124.761 196.5 124C195.517 123.238 193.91 123.201 193.5 122C193.09 120.798 193.2 119.236 193.5 118C193.8 116.764 195.59 115.854 196.5 115C197.41 114.146 198.288 113.184 199.5 113C201.123 112.753 203.184 113.98 204.5 115C205.816 116.02 206.262 117.31 206.5 119Z" fill="#F5F5F5"/>
<path d="M205.5 119C205.638 119.959 204.904 122.124 204.5 123C204.096 123.876 204.31 123.503 203.5 124C202.69 124.497 201.443 125.049 200.5 125C199.557 124.951 198.257 124.579 197.5 124C196.743 123.421 195.816 122.913 195.5 122C195.184 121.087 195.269 119.94 195.5 119C195.731 118.06 196.799 117.649 197.5 117C198.201 116.351 198.566 115.14 199.5 115C200.119 114.907 200.893 114.843 201.5 115C202.107 115.157 202.998 115.616 203.5 116C204.002 116.384 204.179 117.448 204.5 118C204.821 118.552 205.41 118.364 205.5 119Z" fill="#EBEBEB"/>
<path d="M205.5 120C205.409 119.82 205.55 119.195 205.5 119C205.315 118.496 204.827 117.425 204.5 117C204.274 116.711 203.783 117.232 203.5 117C203.175 116.734 202.882 116.174 202.5 116C202.295 115.906 202.717 116.061 202.5 116C202.274 115.932 201.734 116.03 201.5 116C201.258 115.965 200.744 115.994 200.5 116C200.249 116.006 199.747 115.958 199.5 116C199.252 116.044 198.738 115.918 198.5 116C198.27 116.078 198.715 115.886 198.5 116C198.292 116.107 198.691 116.864 198.5 117C198.317 117.134 197.66 116.839 197.5 117C197.199 117.293 196.713 117.637 196.5 118C196.313 118.316 196.612 118.65 196.5 119C196.338 119.511 195.5 119.463 195.5 120C195.52 120.2 195.52 120.8 195.5 121C195.41 120.815 195.504 120.206 195.5 120C195.444 119.441 195.355 119.543 195.5 119C195.602 118.618 196.313 117.348 196.5 117C196.958 116.164 197.664 116.454 198.5 116C198.735 115.876 198.249 115.088 198.5 115C198.756 114.911 199.234 115.05 199.5 115C199.768 114.956 200.229 115.007 200.5 115C200.762 114.998 201.24 114.964 201.5 115C201.747 115.037 202.261 114.925 202.5 115C202.733 115.071 202.281 115.893 202.5 116C203.259 116.36 204.015 116.312 204.5 117C204.825 117.459 205.362 118.454 205.5 119C205.569 119.203 205.521 119.786 205.5 120Z" fill="#E0E0E0"/>
<path d="M201.5 122V123V122C200.79 122.084 200.149 122.278 199.5 122V121C200.008 121.226 200.937 121.035 201.5 121V120C200.582 119.932 198.694 120.046 198.5 119C198.364 118.222 199.269 117.314 200.5 117V116H201.5V117C202.073 116.943 201.963 116.807 202.5 117V118C202.092 117.854 201.938 117.988 201.5 118V119C202.414 119.061 203.326 118.968 203.5 120C203.632 120.764 202.724 121.675 201.5 122ZM200.5 119V118C200.093 118.15 200.461 117.757 200.5 118C200.539 118.243 200.132 118.95 200.5 119ZM201.5 121C201.454 120.743 201.86 120.064 201.5 120V121C201.539 121.232 201.883 120.861 201.5 121Z" fill="#E0E0E0"/>
<path d="M215.5 17.9999C214.352 19.6787 212.372 21.253 210.5 21.9999C208.628 22.7468 206.464 23.4369 204.5 22.9999C202.536 22.5629 200.894 21.4734 199.5 19.9999C198.106 18.5264 196.853 16.0127 196.5 13.9999C196.147 11.9871 196.694 9.87293 197.5 7.99989C198.306 6.12684 199.806 5.10122 201.5 3.99989C203.194 2.89855 204.49 1.95794 206.5 1.99989C208.51 2.04183 210.852 2.82881 212.5 3.99989C213.594 4.77463 214.781 5.85841 215.5 6.99989C216.219 8.14136 217.266 9.66557 217.5 10.9999C217.734 12.3342 217.786 13.676 217.5 14.9999C217.214 16.3238 216.262 16.8881 215.5 17.9999Z" fill="#F5F5F5"/>
<path d="M213.5 18.0001C212.623 19.2837 211.93 19.4286 210.5 20.0001C209.07 20.5716 207.001 21.3335 205.5 21.0001C203.999 20.6668 202.566 20.1259 201.5 19.0001C200.434 17.8744 199.771 16.5385 199.5 15.0001C199.229 13.4617 199.884 11.4322 200.5 10.0001C201.116 8.56807 202.206 7.8427 203.5 7.00011C204.794 6.15752 205.964 4.969 207.5 5.00011C209.036 5.03122 211.24 6.10579 212.5 7.00011C213.336 7.59189 212.95 8.12775 213.5 9.00011C214.05 9.87247 215.32 9.98009 215.5 11.0001C215.68 12.0201 215.718 13.9879 215.5 15.0001C215.282 16.0124 214.082 17.1499 213.5 18.0001Z" fill="#EBEBEB"/>
<path d="M214.5 17.9999C214.591 17.6778 215.344 17.2952 215.5 16.9999C215.843 16.1737 215.417 15.8939 215.5 14.9999C215.623 13.684 215.996 12.2202 215.5 10.9999C215.36 10.6491 214.689 10.3257 214.5 9.99993C214.307 9.65811 214.743 8.30666 214.5 7.99993C214.249 7.68212 213.795 7.27499 213.5 6.99993C213.193 6.72242 212.843 7.22921 212.5 6.99993C212.155 6.77104 210.875 7.17391 210.5 6.99993C210.139 6.8336 210.881 6.10978 210.5 5.99993C210.128 5.89619 209.883 6.04568 209.5 5.99993C209.13 5.95176 207.872 5.98723 207.5 5.99993C206.813 6.01494 207.16 5.80523 206.5 5.99993C205.924 6.17349 204.026 6.70295 203.5 6.99993C202.736 7.4371 203.098 7.34506 202.5 7.99993C202.073 8.46806 201.541 9.03038 201.5 8.99993C201.602 8.67114 202.274 8.25547 202.5 7.99993C203.052 7.25118 202.719 7.49115 203.5 6.99993C205.018 6.0433 207.727 4.80828 209.5 4.99993C209.913 5.04125 210.099 4.88928 210.5 4.99993C210.913 5.11096 211.11 5.82218 211.5 5.99993C211.905 6.18545 212.126 6.75472 212.5 6.99993C212.873 7.24974 214.168 6.69488 214.5 6.99993C214.818 7.29771 214.232 7.65426 214.5 7.99993C214.759 8.3316 215.297 8.62991 215.5 8.99993C215.7 9.35287 215.359 10.6183 215.5 10.9999C215.768 11.6994 216.427 11.2524 216.5 11.9999C216.561 12.6488 216.586 14.354 216.5 14.9999C216.379 15.9356 215.948 16.1752 215.5 16.9999C215.188 17.5632 214.533 18.0228 214.5 17.9999Z" fill="#E0E0E0"/>
<path d="M205.5 17V18L204.5 17V16C203.581 15.3786 202.923 14.9871 202.5 14L204.5 13C204.816 13.7816 204.816 14.4659 205.5 15L206.5 13C205.52 11.9857 204.478 11.4194 205.5 10C206.263 8.94982 208.704 8.12186 210.5 9V8L211.5 9L210.5 10C211.227 10.5187 212.107 11.2256 212.5 12L210.5 13C210.199 12.4125 211.02 11.4322 210.5 11L208.5 13C209.484 14 211.507 14.6022 210.5 16C209.745 17.0466 207.293 17.8674 205.5 17ZM207.5 12L209.5 10C208.852 9.76344 207.736 9.67025 207.5 10C207.264 10.3297 207.134 11.5663 207.5 12ZM207.5 16C207.748 15.6416 207.843 14.4516 207.5 14L206.5 16C207.106 16.2258 207.271 16.319 207.5 16Z" fill="#E0E0E0"/>
<path d="M208.368 167.096C208.368 167.152 169.892 167.196 122.438 167.196C74.9838 167.196 36.5 167.152 36.5 167.096C36.5 167.041 74.9543 167 122.438 167C169.921 167 208.368 167.044 208.368 167.096Z" fill="#263238"/>
<path d="M55.6356 89.565C56.1479 91.3737 56.1121 93.2937 55.5327 95.082C54.9533 96.8704 53.8563 98.4469 52.3805 99.6122C50.9047 100.777 49.1163 101.479 47.2415 101.629C45.3667 101.778 43.4896 101.369 41.8476 100.452C40.2056 99.5355 38.8724 98.1528 38.0166 96.4788C37.1608 94.8049 36.8208 92.915 37.0397 91.048C37.2585 89.1809 38.0264 87.4207 39.2461 85.9898C40.4659 84.559 42.0827 83.5217 43.8922 83.0092C45.094 82.6683 46.3512 82.5675 47.592 82.7125C48.8328 82.8576 50.0328 83.2456 51.1234 83.8545C52.2141 84.4633 53.1739 85.2811 53.9482 86.2609C54.7224 87.2408 55.2958 88.3635 55.6356 89.565Z" fill="#318FFF"/>
<g opacity="0.1">
<path opacity="0.1" d="M43.8921 83.009C42.6903 83.3491 41.5672 83.9224 40.5871 84.6963C39.6069 85.4703 38.789 86.4296 38.1798 87.5195C37.5707 88.6094 37.1824 89.8086 37.037 91.0485C36.8917 92.2885 36.9922 93.5449 37.3327 94.746C37.3327 94.746 43.8478 93.2124 44.6575 90.1857C45.4673 87.1591 43.8921 83.009 43.8921 83.009Z" fill="white"/>
</g>
<path d="M53.2765 90.0821C53.665 91.4569 53.6372 92.9161 53.1965 94.2752C52.7559 95.6343 51.9221 96.8324 50.8006 97.7182C49.6791 98.604 48.3201 99.1378 46.8952 99.2521C45.4703 99.3664 44.0435 99.0562 42.795 98.3606C41.5464 97.665 40.5321 96.6151 39.8801 95.3437C39.2282 94.0723 38.9678 92.6363 39.1319 91.2171C39.2959 89.7978 39.8771 88.459 40.802 87.3697C41.7269 86.2804 42.9541 85.4895 44.3285 85.0968C45.2435 84.8353 46.2012 84.757 47.1466 84.8661C48.092 84.9753 49.0066 85.2699 49.8378 85.7331C50.6691 86.1962 51.4007 86.8187 51.9908 87.565C52.5809 88.3113 53.0178 89.1667 53.2765 90.0821Z" fill="#318FFF"/>
<g opacity="0.2">
<path opacity="0.2" d="M53.2765 90.0821C53.665 91.4569 53.6372 92.9161 53.1965 94.2752C52.7559 95.6343 51.9221 96.8324 50.8006 97.7182C49.6791 98.604 48.3201 99.1378 46.8952 99.2521C45.4703 99.3664 44.0435 99.0562 42.795 98.3606C41.5464 97.665 40.5321 96.6151 39.8801 95.3437C39.2282 94.0723 38.9678 92.6363 39.1319 91.2171C39.2959 89.7978 39.8771 88.459 40.802 87.3697C41.7269 86.2804 42.9541 85.4895 44.3285 85.0968C45.2435 84.8353 46.2012 84.757 47.1466 84.8661C48.092 84.9753 49.0066 85.2699 49.8378 85.7331C50.6691 86.1962 51.4007 86.8187 51.9908 87.565C52.5809 88.3113 53.0178 89.1667 53.2765 90.0821Z" fill="black"/>
</g>
<path d="M53.5353 90.3151C53.9209 91.6724 53.895 93.1135 53.461 94.4561C53.0269 95.7987 52.2042 96.9825 51.0969 97.8576C49.9896 98.7328 48.6474 99.2601 47.2402 99.3727C45.833 99.4854 44.424 99.1784 43.1915 98.4905C41.9589 97.8027 40.9581 96.7649 40.3158 95.5085C39.6734 94.2521 39.4183 92.8335 39.5828 91.4322C39.7473 90.0308 40.3239 88.7097 41.2397 87.636C42.1556 86.5623 43.3695 85.7842 44.7278 85.4001C45.6291 85.1448 46.5718 85.0694 47.5021 85.1782C48.4325 85.287 49.3323 85.578 50.1502 86.0344C50.968 86.4908 51.6879 87.1037 52.2688 87.8382C52.8496 88.5727 53.28 89.4144 53.5353 90.3151Z" fill="#318FFF"/>
<g opacity="0.2">
<path opacity="0.2" d="M53.5353 90.3151C53.9209 91.6724 53.895 93.1135 53.461 94.4561C53.0269 95.7987 52.2042 96.9825 51.0969 97.8576C49.9896 98.7328 48.6474 99.2601 47.2402 99.3727C45.833 99.4854 44.424 99.1784 43.1915 98.4905C41.9589 97.8027 40.9581 96.7649 40.3158 95.5085C39.6734 94.2521 39.4183 92.8335 39.5828 91.4322C39.7473 90.0308 40.3239 88.7097 41.2397 87.636C42.1556 86.5623 43.3695 85.7842 44.7278 85.4001C45.6291 85.1448 46.5718 85.0694 47.5021 85.1782C48.4325 85.287 49.3323 85.578 50.1502 86.0344C50.968 86.4908 51.6879 87.1037 52.2688 87.8382C52.8496 88.5727 53.28 89.4144 53.5353 90.3151Z" fill="white"/>
</g>
<path d="M46.7763 91.5864L46.2771 89.831C46.6086 89.779 46.9456 89.7715 47.2791 89.8089C47.4549 89.8429 47.627 89.8936 47.7931 89.9604V89.8976L47.8855 89.1917L47.9077 89.0291L47.501 88.7889L47.3679 88.8998C46.9142 88.8054 46.446 88.8054 45.9924 88.8998L45.7373 87.9389L45.3675 87.78L45.4378 88.0239L45.0236 88.1385L45.3046 89.1215C43.9846 89.6352 43.5594 90.5997 43.8256 91.4792C44.1695 92.6877 45.3046 92.7099 46.3252 92.6692L46.8169 94.4098C46.1717 94.5373 45.5035 94.4783 44.8905 94.2398L44.7463 95.2302C45.4958 95.5029 46.31 95.544 47.0832 95.3485L47.2902 96.0876L46.9537 96.1911L47.3568 96.3241L48.0704 96.1208L47.7931 95.1489C49.1205 94.6205 49.5568 93.6707 49.3054 92.7838C48.9467 91.5532 47.8079 91.5495 46.7763 91.5864ZM46.0109 91.6049C45.4636 91.6049 45.0347 91.5162 44.9016 91.0986C44.7685 90.681 44.9682 90.3299 45.5561 90.0602L46.0109 91.6049ZM47.5121 94.177L47.0758 92.6397C47.6378 92.6397 48.0778 92.732 48.185 93.157C48.2922 93.582 48.1185 93.9035 47.5121 94.177Z" fill="#318FFF"/>
<g opacity="0.3">
<path opacity="0.3" d="M46.7763 91.5864L46.2771 89.831C46.6086 89.779 46.9456 89.7715 47.2791 89.8089C47.4549 89.8429 47.627 89.8936 47.7931 89.9604V89.8976L47.8855 89.1917L47.9077 89.0291L47.501 88.7889L47.3679 88.8998C46.9142 88.8054 46.446 88.8054 45.9924 88.8998L45.7373 87.9389L45.3675 87.78L45.4378 88.0239L45.0236 88.1385L45.3046 89.1215C43.9846 89.6352 43.5594 90.5997 43.8256 91.4792C44.1695 92.6877 45.3046 92.7099 46.3252 92.6692L46.8169 94.4098C46.1717 94.5373 45.5035 94.4783 44.8905 94.2398L44.7463 95.2302C45.4958 95.5029 46.31 95.544 47.0832 95.3485L47.2902 96.0876L46.9537 96.1911L47.3568 96.3241L48.0704 96.1208L47.7931 95.1489C49.1205 94.6205 49.5568 93.6707 49.3054 92.7838C48.9467 91.5532 47.8079 91.5495 46.7763 91.5864ZM46.0109 91.6049C45.4636 91.6049 45.0347 91.5162 44.9016 91.0986C44.7685 90.681 44.9682 90.3299 45.5561 90.0602L46.0109 91.6049ZM47.5121 94.177L47.0758 92.6397C47.6378 92.6397 48.0778 92.732 48.185 93.157C48.2922 93.582 48.1185 93.9035 47.5121 94.177Z" fill="black"/>
</g>
<path d="M47.4159 94.9602L47.6932 95.9358L46.9796 96.1353L46.706 95.1708C45.9328 95.3668 45.1186 95.3256 44.3692 95.0525L44.5134 94.0621C45.1263 94.3008 45.7945 94.3598 46.4398 94.2321L45.948 92.4915C44.9127 92.5322 43.7887 92.4915 43.4485 91.3016C43.197 90.4147 43.6186 89.4538 44.9275 88.9438L44.6465 87.9608L45.3601 87.7576L45.6337 88.7258C46.2657 88.5739 46.9258 88.584 47.5527 88.7554L47.4418 89.7347C46.9384 89.604 46.4132 89.5801 45.8999 89.6645L46.3991 91.4198C47.4307 91.3829 48.5696 91.3866 48.9134 92.595C49.1796 93.4819 48.7433 94.4465 47.4159 94.9602ZM45.6485 91.4383L45.2085 89.8899C44.6169 90.1634 44.4468 90.5477 44.554 90.932C44.6613 91.3164 45.1013 91.4457 45.6485 91.4494V91.4383ZM47.8374 92.9904C47.7154 92.5655 47.2754 92.4731 46.7282 92.4731L47.1645 94.0104C47.7561 93.748 47.941 93.3748 47.8374 93.0015V92.9904Z" fill="#318FFF"/>
<path d="M39.9099 98.656C39.9099 98.656 39.884 98.6375 39.8471 98.6006L39.677 98.4195C39.585 98.3273 39.4986 98.2299 39.4182 98.1275C39.322 98.0093 39.2074 97.8799 39.1002 97.7247L38.9227 97.4808C38.8635 97.3958 38.8081 97.3034 38.7452 97.2073C38.6195 97.0226 38.5049 96.8082 38.3755 96.5902C38.1272 96.1008 37.917 95.593 37.7469 95.0713C37.5813 94.5524 37.4576 94.021 37.3771 93.4822C37.3475 93.2309 37.3143 92.9907 37.3032 92.769C37.3032 92.6544 37.3032 92.5473 37.2847 92.4438V92.1408C37.2847 91.9523 37.2847 91.7712 37.3032 91.6271C37.3217 91.483 37.3032 91.3462 37.3364 91.2391C37.3697 91.1319 37.3623 91.058 37.3697 90.9951C37.3683 90.9668 37.3683 90.9385 37.3697 90.9102C37.3746 90.9395 37.3746 90.9695 37.3697 90.9988C37.3697 91.0617 37.3697 91.143 37.3512 91.2428C37.3377 91.3655 37.3303 91.4888 37.3291 91.6123C37.3291 91.7601 37.3106 91.9338 37.3291 92.1223C37.3291 92.2184 37.3291 92.3182 37.3291 92.4216C37.3291 92.5251 37.3291 92.6323 37.3512 92.7431C37.3512 92.9686 37.3993 93.2051 37.4289 93.4527C37.5105 93.9912 37.6341 94.5225 37.7986 95.0418C37.9697 95.5594 38.1824 96.0624 38.4346 96.5458C38.5529 96.7676 38.6639 96.9782 38.8044 97.1667C38.8635 97.2591 38.919 97.3515 38.9782 97.4402L39.1482 97.6841C39.2518 97.843 39.3664 97.9723 39.4588 98.0943C39.5513 98.2162 39.6326 98.3123 39.7029 98.3899L39.8656 98.5784L39.9099 98.656Z" fill="white"/>
<path d="M44.2472 91.8718C44.1505 91.8474 44.0615 91.7991 43.9883 91.7313C43.7962 91.5788 43.66 91.3668 43.6011 91.1286C43.5422 90.8905 43.564 90.6395 43.6629 90.415C43.6969 90.3207 43.7526 90.2358 43.8256 90.1672C43.8256 90.1672 43.7702 90.2671 43.711 90.4335C43.6296 90.6495 43.6153 90.8852 43.6701 91.1095C43.7248 91.3338 43.8461 91.5364 44.0179 91.6906C44.151 91.8126 44.2545 91.8607 44.2472 91.8718Z" fill="white"/>
<path d="M45.0457 88.7706C44.987 88.6881 44.9478 88.5932 44.9311 88.4933C44.8933 88.3995 44.8769 88.2985 44.8831 88.1975C44.9052 88.1975 44.9533 88.3158 45.0014 88.4748C45.0392 88.5686 45.0544 88.6699 45.0457 88.7706Z" fill="white"/>
<path d="M44.9053 84.7419C44.8314 84.7642 44.756 84.7815 44.6798 84.7937C44.6058 84.7937 44.5171 84.8269 44.4136 84.8565C44.31 84.8861 44.1954 84.9082 44.0697 84.9489C43.944 84.9895 43.7998 85.0302 43.6556 85.0856C43.5114 85.1411 43.3524 85.2039 43.1897 85.2704C42.8413 85.4232 42.5051 85.6024 42.1839 85.8063C41.8621 86.0117 41.5557 86.2401 41.267 86.4899C41.1339 86.6082 41.0081 86.7154 40.8972 86.8299C40.7863 86.9445 40.6865 87.0479 40.5977 87.1477C40.509 87.2475 40.4313 87.3399 40.3648 87.4212C40.2982 87.5025 40.239 87.5727 40.1947 87.6319C40.1528 87.6969 40.1045 87.7575 40.0505 87.8129C40.0505 87.8129 40.0911 87.7427 40.1725 87.6171C40.2132 87.5542 40.2649 87.4803 40.3315 87.3953C40.398 87.3103 40.4683 87.2142 40.5607 87.1145C40.653 87.0005 40.7518 86.8919 40.8565 86.7893C40.9638 86.6747 41.0895 86.5601 41.2263 86.4382C41.516 86.1847 41.8237 85.9525 42.147 85.7434C42.4751 85.5406 42.8174 85.3615 43.1712 85.2076C43.3339 85.1447 43.4929 85.0782 43.6408 85.0302C43.7887 84.9822 43.9329 84.9378 44.0623 84.9008C44.1917 84.8639 44.31 84.8417 44.4136 84.8158C44.5171 84.79 44.6095 84.7789 44.6835 84.7678C44.7563 84.7514 44.8307 84.7427 44.9053 84.7419Z" fill="white"/>
<path d="M50.0596 100.503C50.0596 100.503 50.0078 100.54 49.908 100.596C49.7676 100.672 49.6232 100.742 49.4754 100.803C48.5013 101.217 47.4449 101.402 46.388 101.343C46.2282 101.335 46.069 101.319 45.911 101.295C45.8517 101.292 45.7932 101.281 45.7372 101.261C45.7963 101.257 45.8556 101.257 45.9147 101.261C46.0256 101.261 46.1883 101.28 46.388 101.287C46.9117 101.301 47.4355 101.264 47.952 101.176C48.4665 101.083 48.9706 100.94 49.4569 100.747C49.6455 100.674 49.7934 100.611 49.8969 100.563C49.9496 100.539 50.004 100.519 50.0596 100.503Z" fill="white"/>
<path d="M178.528 36.2384C178.53 35.2267 178.298 34.2281 177.851 33.3205C177.403 32.4129 176.753 31.6207 175.949 31.0055C175.145 30.3903 174.21 29.9686 173.217 29.7733C172.224 29.5781 171.199 29.6144 170.222 29.8796C169.245 30.1448 168.342 30.6316 167.584 31.3022C166.826 31.9728 166.233 32.8092 165.852 33.7462C165.47 34.6832 165.309 35.6957 165.383 36.7048C165.456 37.7139 165.761 38.6925 166.275 39.5644L166.293 39.5866C166.545 40.0116 166.863 40.3257 167.181 40.7618L171 45.8099C171.111 45.9568 171.254 46.076 171.419 46.1581C171.583 46.2402 171.765 46.2829 171.949 46.2829C172.133 46.2829 172.314 46.2402 172.479 46.1581C172.643 46.076 172.787 45.9568 172.897 45.8099L176.654 40.8357C176.996 40.4324 177.316 40.0105 177.611 39.5718V39.5533C178.207 38.5498 178.524 37.4053 178.528 36.2384ZM171.947 39.1025C171.374 39.1017 170.815 38.9314 170.339 38.613C169.864 38.2946 169.493 37.8425 169.275 37.3136C169.056 36.7848 168.999 36.2032 169.111 35.6421C169.224 35.081 169.5 34.5658 169.905 34.1615C170.31 33.7572 170.826 33.482 171.387 33.3706C171.949 33.2593 172.531 33.3168 173.059 33.5359C173.588 33.755 174.04 34.1259 174.358 34.6017C174.676 35.0774 174.846 35.6367 174.846 36.2089C174.846 36.5892 174.771 36.9658 174.625 37.3171C174.479 37.6684 174.266 37.9875 173.996 38.2563C173.727 38.525 173.408 38.7381 173.056 38.8833C172.704 39.0285 172.327 39.103 171.947 39.1025Z" fill="#318FFF"/>
<path d="M222.158 81.4294C222.754 81.3357 223.31 81.0696 223.757 80.6637C224.204 80.2578 224.522 79.7301 224.672 79.1456C224.804 78.7695 224.857 78.3702 224.828 77.9726C224.799 77.5751 224.689 77.1878 224.503 76.8349C224.318 76.482 224.061 76.1711 223.75 75.9216C223.439 75.6721 223.08 75.4893 222.695 75.3847C222.31 75.28 221.908 75.2558 221.514 75.3135C221.119 75.3712 220.74 75.5095 220.402 75.7199C220.063 75.9302 219.771 76.2081 219.545 76.5362C219.318 76.8643 219.162 77.2355 219.085 77.6267C218.916 78.2118 218.925 78.8338 219.11 79.414C219.295 79.9941 219.648 80.5065 220.124 80.8862C215.646 80.3873 214.578 85.1138 214.578 85.1138L224.746 87.8744C224.746 87.8744 226.254 83.2143 222.158 81.4294Z" fill="#318FFF"/>
<path d="M108.989 52.7054C107.691 48.7771 106.401 44.8155 105.813 40.7208C105.225 36.6262 105.318 32.3542 106.745 28.4702C106.963 27.8789 108.812 23.9283 109.437 23.9875C109.884 24.0281 108.749 27.7126 108.974 28.1006C111.145 31.7961 111.748 36.2308 111.422 40.5028C111.067 44.6456 110.251 48.7359 108.989 52.6981" fill="#263238"/>
<path d="M132.306 75.5513C132.324 72.6282 132.35 70.3185 132.372 70.3185C132.395 70.3185 142.404 69.2652 143.021 59.3242C143.317 54.5201 143.125 44.5902 142.847 35.5989C142.703 30.9372 140.807 26.5007 137.539 23.1721C134.27 19.8435 129.867 17.8667 125.207 17.635L124.245 17.5869C113.859 17.6793 108.135 26.5449 108.516 36.9182L108.686 73.2416L115.767 81.6083C121.413 88.2787 132.313 84.2839 132.306 75.5513Z" fill="#FFBF9D"/>
<path d="M132.372 70.3183C132.372 70.3183 126.087 70.3774 119.605 65.8467C119.605 65.8467 122.404 73.2377 132.38 72.8349L132.372 70.3183Z" fill="#FF9A6C"/>
<path d="M138.703 43.8881C138.688 44.259 138.529 44.6095 138.26 44.865C137.99 45.1204 137.632 45.2605 137.261 45.2554C137.079 45.2604 136.898 45.229 136.729 45.1631C136.559 45.0973 136.405 44.9982 136.274 44.8719C136.144 44.7456 136.04 44.5945 135.969 44.4274C135.897 44.2604 135.86 44.0808 135.859 43.8992C135.875 43.529 136.034 43.1793 136.303 42.9247C136.572 42.67 136.931 42.5304 137.301 42.5355C137.483 42.5301 137.663 42.561 137.833 42.6265C138.002 42.6919 138.157 42.7906 138.287 42.9166C138.418 43.0426 138.522 43.1935 138.593 43.3604C138.664 43.5272 138.702 43.7066 138.703 43.8881Z" fill="#263238"/>
<path d="M140.514 39.6131C140.329 39.7906 139.29 38.9402 137.763 38.8736C136.236 38.8071 135.075 39.5096 134.916 39.3136C134.839 39.2286 135.035 38.9032 135.541 38.5741C136.227 38.1502 137.025 37.9463 137.83 37.9899C138.626 38.0281 139.389 38.3167 140.011 38.8145C140.463 39.1916 140.607 39.5281 140.514 39.6131Z" fill="#263238"/>
<path d="M125.092 44.3313C125.077 44.7016 124.917 45.0512 124.648 45.3059C124.379 45.5605 124.021 45.7001 123.65 45.695C123.469 45.7004 123.288 45.6695 123.118 45.6041C122.949 45.5386 122.795 45.44 122.664 45.3139C122.533 45.1879 122.429 45.037 122.358 44.8701C122.287 44.7033 122.25 44.5239 122.249 44.3424C122.263 43.9722 122.421 43.6222 122.69 43.3669C122.959 43.1115 123.316 42.971 123.687 42.9751C123.869 42.9692 124.05 42.9998 124.22 43.0653C124.39 43.1307 124.546 43.2296 124.677 43.3561C124.808 43.4826 124.912 43.6341 124.983 43.8016C125.055 43.9691 125.092 44.1493 125.092 44.3313Z" fill="#263238"/>
<path d="M126.235 39.4504C126.05 39.6242 125.011 38.7774 123.48 38.7109C121.949 38.6443 120.792 39.3506 120.636 39.1546C120.559 39.0658 120.755 38.7405 121.261 38.4151C121.946 37.9902 122.746 37.7875 123.55 37.8346C124.346 37.871 125.11 38.1598 125.732 38.6591C126.198 39.0289 126.338 39.369 126.235 39.4504Z" fill="#263238"/>
<path d="M130.405 51.508C130.405 51.4193 131.363 51.3048 132.912 51.1828C133.304 51.1606 133.678 51.1015 133.759 50.8391C133.84 50.5767 133.722 50.1333 133.556 49.6713L132.546 46.641C131.152 42.3283 130.165 38.7917 130.328 38.7363C130.49 38.6808 131.773 42.1324 133.167 46.4451C133.5 47.5057 133.822 48.5183 134.125 49.4903C134.251 49.9411 134.495 50.4548 134.251 51.0313C134.188 51.1662 134.095 51.2849 133.979 51.3783C133.863 51.4718 133.727 51.5377 133.582 51.5708C133.362 51.6174 133.137 51.6372 132.912 51.63C131.37 51.6374 130.409 51.5967 130.405 51.508Z" fill="#263238"/>
<path d="M127.714 37.9159C127.388 38.219 126.116 37.3542 124.415 36.7371C122.715 36.1199 121.195 35.8982 121.15 35.4584C121.15 35.2515 121.539 35.0149 122.26 34.9189C123.181 34.8328 124.109 34.9567 124.975 35.2813C125.841 35.6058 126.622 36.1225 127.259 36.7925C127.714 37.3284 127.854 37.7681 127.714 37.9159Z" fill="#263238"/>
<path d="M140.721 33.3297C140.47 33.6993 139.261 33.5182 137.859 33.6993C136.458 33.8804 135.312 34.2832 134.99 33.9617C134.846 33.8028 134.99 33.4295 135.456 33.0341C136.103 32.5292 136.88 32.2178 137.697 32.1361C138.507 32.0314 139.331 32.1595 140.071 32.5056C140.618 32.8124 140.829 33.145 140.721 33.3297Z" fill="#263238"/>
<path d="M108.963 44.3315C108.797 44.2502 102.226 41.97 102.104 48.7661C101.982 55.5622 108.856 54.3094 108.856 54.1062C108.856 53.9029 108.963 44.3315 108.963 44.3315Z" fill="#FFBF9D"/>
<path d="M106.83 51.4897C106.8 51.4675 106.712 51.571 106.508 51.6597C106.223 51.7729 105.906 51.7729 105.621 51.6597C104.907 51.3825 104.319 50.2295 104.308 48.9989C104.303 48.4142 104.429 47.8357 104.678 47.3064C104.746 47.0948 104.864 46.9029 105.022 46.7471C105.181 46.5913 105.375 46.4763 105.588 46.412C105.724 46.3786 105.869 46.3939 105.996 46.4553C106.122 46.5167 106.224 46.6203 106.283 46.7483C106.371 46.9405 106.323 47.0772 106.36 47.0883C106.397 47.0994 106.508 46.9775 106.456 46.6966C106.424 46.5266 106.332 46.3736 106.198 46.2642C106.012 46.1193 105.777 46.053 105.543 46.0794C105.018 46.1053 104.537 46.582 104.286 47.1142C103.984 47.6974 103.831 48.346 103.839 49.0026C103.861 50.3773 104.541 51.6745 105.521 51.959C105.703 52.0149 105.895 52.0293 106.083 52.0012C106.271 51.973 106.451 51.9031 106.608 51.7964C106.815 51.6523 106.856 51.5008 106.83 51.4897Z" fill="#FF9A6C"/>
<path d="M138.536 24.2685C139.645 23.6699 136.366 20.0704 133.666 18.8176C129.599 16.9218 123.339 15.7245 119.553 16.7629C114.99 18.012 111.193 20.2367 108.875 24.3572C106.556 28.4777 105.654 33.2856 105.746 38.0085C105.772 39.4498 105.909 40.9649 106.667 42.1808C107.606 43.6959 109.425 44.6605 109.326 46.7374C109.271 47.4962 109.519 48.2459 110.017 48.8216C111.252 50.1594 112.79 48.9251 113.5 47.6834C115.023 45.03 115.219 41.8445 115.375 38.7883C115.489 36.6153 115.597 34.398 115.005 32.3063C114.683 31.1681 114.155 30.089 113.896 28.936C113.637 27.783 113.681 26.4748 114.41 25.5398C114.578 25.3377 114.765 25.1521 114.968 24.9855C115.925 24.1645 117.084 23.613 118.325 23.3877C119.566 23.1623 120.845 23.2712 122.03 23.7031C125.857 25.0963 132.383 27.1806 134.118 25.8946C136.599 24.0468 137.198 22.8273 137.198 22.8273L138.536 24.2685Z" fill="#263238"/>
<path d="M130.853 54.7233L130.671 54.6383C129.36 54.0469 128.012 53.5371 126.637 53.112C126.43 53.0321 126.207 53.0042 125.987 53.0307C125.802 53.0954 125.637 53.2066 125.507 53.3535C125.378 53.5004 125.288 53.6781 125.247 53.8696C125.062 54.4441 125.039 55.0586 125.18 55.6454C125.322 56.2321 125.623 56.7686 126.05 57.1956C126.487 57.6068 127.038 57.8778 127.631 57.974C128.224 58.0701 128.832 57.9869 129.377 57.7351C129.916 57.4598 130.351 57.0176 130.617 56.4746C130.883 55.9317 130.965 55.3172 130.853 54.7233Z" fill="#FF9A6C"/>
<path d="M130.853 54.7232C130.879 54.7751 130.895 54.8315 130.901 54.8895C130.934 55.0524 130.949 55.2185 130.945 55.3847C130.921 56.006 130.695 56.6027 130.302 57.0846C130.032 57.4195 129.686 57.6855 129.292 57.8607C128.838 58.0584 128.34 58.1373 127.847 58.0898C127.3 58.0396 126.776 57.85 126.323 57.5391C125.841 57.1965 125.469 56.7215 125.251 56.1718C125.031 55.6274 124.954 55.036 125.025 54.4534C125.058 54.1751 125.129 53.9027 125.236 53.6441C125.336 53.3808 125.523 53.1593 125.765 53.0158C126.014 52.9068 126.295 52.9001 126.549 52.9973L127.218 53.2154C127.647 53.3595 128.043 53.4999 128.401 53.6367C129.119 53.9101 129.688 54.1577 130.076 54.3351L130.52 54.5495C130.574 54.5729 130.625 54.6027 130.672 54.6382C130.458 54.5765 130.249 54.4986 130.047 54.4053C129.647 54.2464 129.074 54.0358 128.353 53.766C127.991 53.6354 127.595 53.5024 127.166 53.3669L126.504 53.1599C126.294 53.0729 126.057 53.0729 125.846 53.1599C125.643 53.2883 125.488 53.4789 125.403 53.7032C125.306 53.9398 125.241 54.1884 125.21 54.4423C125.147 54.994 125.222 55.5527 125.428 56.0683C125.633 56.5828 125.981 57.0278 126.431 57.3507C126.856 57.6441 127.348 57.8259 127.861 57.8791C128.327 57.9266 128.797 57.858 129.23 57.6796C129.604 57.5189 129.935 57.2735 130.198 56.9626C130.584 56.5069 130.819 55.9426 130.871 55.3477C130.876 55.1393 130.87 54.9309 130.853 54.7232Z" fill="#263238"/>
<path d="M123.646 48.3336C123.617 48.3336 123.472 48.0749 123.147 47.7127C122.728 47.2384 122.2 46.8721 121.609 46.6447C121.018 46.4296 120.384 46.3574 119.76 46.4341C119.276 46.4932 118.987 46.6041 118.976 46.5745C119.208 46.4264 119.469 46.3318 119.742 46.2974C120.395 46.1726 121.07 46.2304 121.692 46.4645C122.315 46.6986 122.86 47.0998 123.269 47.6241C123.445 47.8301 123.574 48.0723 123.646 48.3336Z" fill="#FF9A6C"/>
<path d="M138.858 47.7616C138.297 47.351 137.673 47.0361 137.009 46.8298C136.326 46.6855 135.623 46.658 134.931 46.7485C135.115 46.6408 135.321 46.5775 135.534 46.5636C136.042 46.4858 136.56 46.5135 137.057 46.645C137.555 46.7717 138.021 46.9981 138.429 47.3105C138.725 47.5509 138.873 47.7468 138.858 47.7616Z" fill="#FF9A6C"/>
<path d="M143.169 33.9544C142.87 34.3239 139.446 24.952 128.605 25.8242C120.688 26.4303 114.772 32.4244 112.01 35.9573C109.895 38.6735 106.401 43.8621 106.401 43.8621C106.401 43.8621 101.624 41.035 104.249 33.9396C105.14 31.5338 110.232 23.2854 116.906 19.6637C125.835 14.8189 132.853 15.255 137.719 18.4812C142.186 21.4376 146.327 30.111 143.169 33.9544Z" fill="#455A64"/>
<path d="M117.56 12.9786C119.409 12.731 126.974 12.657 131.526 16.918L111.899 28.2965L106.837 34.0653C106.837 34.0653 102.474 24.5936 110.376 16.5743C110.376 16.5743 112.757 13.6253 117.56 12.9786Z" fill="#455A64"/>
<path d="M133.001 16.3782C132.969 16.3831 132.937 16.3831 132.905 16.3782H132.624L131.544 16.2932C131.075 16.2526 130.501 16.2452 129.832 16.2156C129.499 16.2156 129.145 16.2156 128.767 16.2156H128.183C127.983 16.2156 127.78 16.2378 127.569 16.2489C125.607 16.3346 123.666 16.6852 121.798 17.291C119.53 18.1025 117.401 19.258 115.486 20.7168C113.52 22.1094 111.702 23.698 110.058 25.4581C108.713 26.8927 107.499 28.4449 106.431 30.096C105.712 31.2095 105.075 32.3728 104.523 33.5772C104.316 33.9985 104.186 34.3422 104.086 34.5676C104.038 34.6711 104.001 34.7561 103.972 34.8263C103.96 34.8563 103.946 34.8849 103.927 34.9113C103.93 34.8792 103.939 34.8478 103.953 34.8189C103.979 34.7487 104.012 34.66 104.049 34.5529C104.138 34.3237 104.256 33.9763 104.452 33.5477C104.975 32.3256 105.593 31.1467 106.301 30.0221C107.363 28.3517 108.577 26.783 109.928 25.3362C111.572 23.5603 113.396 21.9601 115.371 20.5616C117.303 19.0933 119.451 17.9338 121.738 17.1247C123.623 16.517 125.583 16.1725 127.562 16.1011C127.773 16.1011 127.98 16.0789 128.179 16.0752H128.764C129.133 16.0752 129.503 16.0752 129.836 16.0752C130.505 16.1158 131.082 16.1306 131.552 16.1861L132.628 16.3043L132.909 16.3413C132.941 16.3475 132.973 16.36 133.001 16.3782Z" fill="#263238"/>
<path d="M109.522 39.8007C109.399 39.7624 109.283 39.705 109.178 39.6307C109.049 39.5581 108.925 39.4766 108.808 39.3868C108.641 39.2726 108.481 39.1493 108.327 39.0173C107.922 38.6855 107.55 38.3141 107.218 37.9086C106.415 36.9031 105.859 35.7235 105.595 34.4644C105.487 33.9528 105.432 33.4314 105.432 32.9086C105.428 32.7087 105.435 32.5088 105.454 32.3099C105.464 32.1599 105.482 32.0105 105.51 31.8627C105.524 31.7367 105.553 31.6127 105.595 31.4932C105.636 31.4932 105.536 32.0401 105.565 32.9159C105.589 33.4272 105.657 33.9354 105.769 34.4348C105.912 35.045 106.116 35.6393 106.379 36.2087C106.65 36.7726 106.979 37.3075 107.359 37.8051C107.671 38.2058 108.02 38.577 108.401 38.9138C109.059 39.5014 109.544 39.7675 109.522 39.8007Z" fill="#263238"/>
<path d="M112.665 34.7232C112.665 34.7232 112.554 34.6641 112.376 34.5311C112.13 34.337 111.895 34.1284 111.674 33.9065C110.189 32.4367 109.176 30.5584 108.764 28.511C108.698 28.2053 108.654 27.8953 108.631 27.5835C108.617 27.4681 108.617 27.3515 108.631 27.2361C108.668 27.2361 108.719 27.7202 108.904 28.4815C109.145 29.4748 109.512 30.4335 109.995 31.3344C110.483 32.2323 111.082 33.0654 111.777 33.8141C112.306 34.3906 112.683 34.7011 112.665 34.7232Z" fill="#263238"/>
<path d="M117.475 30.3069C117.233 29.9501 117.01 29.5799 116.81 29.1982C116.41 28.4961 115.841 27.5352 115.164 26.5042C114.487 25.4731 113.833 24.5714 113.349 23.9173C113.071 23.5795 112.814 23.2253 112.58 22.8567C112.675 22.9277 112.761 23.0109 112.835 23.1043C112.986 23.2706 113.204 23.5219 113.456 23.8434C114.123 24.6631 114.748 25.5167 115.327 26.4007C115.906 27.2834 116.441 28.1949 116.928 29.1317C117.113 29.5013 117.257 29.7858 117.349 29.9928C117.405 30.0913 117.448 30.197 117.475 30.3069Z" fill="#263238"/>
<path d="M132.735 16.3081C132.88 16.3937 133.018 16.4927 133.145 16.6037C133.303 16.7188 133.455 16.8421 133.6 16.9733C133.798 17.1471 133.987 17.3309 134.166 17.5239C134.65 18.0199 135.089 18.5578 135.478 19.1315C135.948 19.8328 136.354 20.5748 136.691 21.3488C137.007 22.1264 137.255 22.9302 137.431 23.7509C137.575 24.4187 137.664 25.0973 137.697 25.7798C137.719 26.0717 137.697 26.3378 137.697 26.5706C137.696 26.7682 137.684 26.9657 137.66 27.1619C137.652 27.3312 137.628 27.4994 137.59 27.6645C137.549 27.6645 137.63 26.9254 137.556 25.7871C137.511 25.1118 137.413 24.4409 137.264 23.7805C136.906 22.1565 136.248 20.6136 135.323 19.2313C134.947 18.6674 134.529 18.1325 134.073 17.6311C133.286 16.7774 132.709 16.3377 132.735 16.3081Z" fill="#263238"/>
<path d="M125.428 16.2234C125.551 16.3003 125.663 16.3936 125.761 16.5006C125.965 16.689 126.257 16.9662 126.608 17.3173C126.959 17.6683 127.37 18.0896 127.813 18.5737C128.308 19.0928 128.755 19.6556 129.148 20.2552C129.806 21.3835 130.239 22.6284 130.424 23.9212C130.509 24.409 130.561 24.8081 130.598 25.0816C130.626 25.2238 130.637 25.369 130.631 25.514C130.581 25.3852 130.545 25.2514 130.524 25.1148L130.302 23.947C130.081 22.6823 129.64 21.4664 128.997 20.355C128.609 19.7659 128.174 19.2097 127.695 18.692C127.259 18.2042 126.856 17.7718 126.519 17.4097L125.721 16.5523C125.613 16.4526 125.515 16.3424 125.428 16.2234Z" fill="#263238"/>
<path d="M123.735 27.0806C123.705 27.0806 123.528 26.5484 123.177 25.7022C122.267 23.4963 120.989 21.4608 119.398 19.6821C118.791 18.9985 118.381 18.6031 118.403 18.5735C118.518 18.6426 118.623 18.7257 118.717 18.8211C118.91 18.9911 119.18 19.2498 119.498 19.5824C120.331 20.4527 121.074 21.4048 121.716 22.4242C122.354 23.4431 122.889 24.5225 123.313 25.6467C123.472 26.0791 123.587 26.4302 123.654 26.6815C123.697 26.8106 123.725 26.9447 123.735 27.0806Z" fill="#263238"/>
<g opacity="0.3">
<path opacity="0.3" d="M105.861 30.6099C106.884 25.9036 109.658 21.7615 113.621 19.0219C117.584 16.2822 122.44 15.1498 127.207 15.8537C123.879 15.9387 120.267 17.428 117.475 19.2535C113.548 21.8404 110.387 24.3608 105.861 30.6099Z" fill="black"/>
</g>
<path d="M185.226 58.6414H57.6099C56.5528 58.6423 55.5393 59.0501 54.7919 59.7753C54.0444 60.5004 53.624 61.4836 53.623 62.5091V149.953C53.624 150.978 54.0444 151.962 54.7919 152.687C55.5393 153.412 56.5528 153.82 57.6099 153.821H106.584C106.584 153.821 109.699 163.167 100.042 168H145.84C145.84 168 134.936 164.373 137.74 153.821H185.223C186.279 153.82 187.292 153.412 188.039 152.686C188.786 151.961 189.206 150.978 189.206 149.953V62.5091C189.206 61.4846 188.787 60.5019 188.041 59.7768C187.295 59.0517 186.282 58.6433 185.226 58.6414Z" fill="#455A64"/>
<path d="M125.306 144.377C126.985 146.772 124.36 149.395 121.96 147.703C121.88 147.645 121.811 147.575 121.753 147.496C120.082 145.101 122.703 142.477 125.099 144.17C125.181 144.225 125.251 144.296 125.306 144.377Z" fill="#263238"/>
<path d="M59.7064 60.2263H183.126C184.108 60.2263 185.049 60.6061 185.743 61.282C186.437 61.9579 186.827 62.8747 186.827 63.8307V137.887H56.0017V63.8307C56.0017 63.357 56.0975 62.888 56.2838 62.4505C56.47 62.0129 56.7429 61.6154 57.087 61.2807C57.4311 60.9459 57.8395 60.6805 58.289 60.4996C58.7384 60.3187 59.2201 60.2258 59.7064 60.2263Z" fill="white"/>
<path d="M59.4966 60.2263H183.958C184.719 60.2263 185.448 60.5155 185.987 61.0302C186.525 61.5449 186.827 62.243 186.827 62.9709V66.5659H56.0017V63.5695C56.0012 63.1303 56.0912 62.6954 56.2667 62.2895C56.4421 61.8837 56.6996 61.515 57.0242 61.2044C57.3488 60.8939 57.7343 60.6477 58.1585 60.4798C58.5828 60.312 59.0375 60.2258 59.4966 60.2263Z" fill="#EBEBEB"/>
<path d="M60.8572 64.6059C61.3493 64.6059 61.7483 64.207 61.7483 63.7148C61.7483 63.2227 61.3493 62.8237 60.8572 62.8237C60.365 62.8237 59.9661 63.2227 59.9661 63.7148C59.9661 64.207 60.365 64.6059 60.8572 64.6059Z" fill="#E0E0E0"/>
<path d="M63.5121 64.6059C64.0042 64.6059 64.4032 64.207 64.4032 63.7148C64.4032 63.2227 64.0042 62.8237 63.5121 62.8237C63.0199 62.8237 62.621 63.2227 62.621 63.7148C62.621 64.207 63.0199 64.6059 63.5121 64.6059Z" fill="#E0E0E0"/>
<path d="M66.0374 64.6059C66.5296 64.6059 66.9285 64.207 66.9285 63.7148C66.9285 63.2227 66.5296 62.8237 66.0374 62.8237C65.5453 62.8237 65.1463 63.2227 65.1463 63.7148C65.1463 64.207 65.5453 64.6059 66.0374 64.6059Z" fill="#E0E0E0"/>
<path d="M163.276 153.545C163.276 153.586 145.724 153.619 124.083 153.619C102.441 153.619 84.8888 153.586 84.8888 153.545C84.8888 153.505 102.434 153.471 124.083 153.471C145.732 153.471 163.276 153.505 163.276 153.545Z" fill="#263238"/>
<path d="M78.8471 51.497C78.7251 50.0188 77.6306 48.7549 76.2958 48.1266C74.9248 47.5547 73.4196 47.383 71.9549 47.6314C70.4759 47.8199 69.0671 48.2486 67.6251 48.5627C64.2419 49.3018 60.5333 49.4903 57.823 51.6448C55.1127 53.7993 53.7853 56.8961 55.0498 60.1149L72.528 60.0263L78.3331 56.1053L78.8471 51.497Z" fill="#455A64"/>
<path d="M80.5628 52.2805C80.2363 51.5878 79.7676 50.9716 79.1873 50.4718C78.607 49.972 77.928 49.5999 77.1943 49.3795C75.7198 48.9497 74.1555 48.9331 72.6723 49.3314C70.1616 49.9449 67.773 51.5488 66.845 53.973C66.4595 54.9356 66.3769 55.9927 66.6083 57.0034C66.8634 58.0012 67.3145 59.0507 68.2278 59.5237C69.1411 59.9967 71.0232 60.2628 72.528 60.0263L79.9453 56.5636C80.4413 55.9802 80.7624 55.2687 80.8716 54.511C80.9809 53.7532 80.8738 52.9801 80.5628 52.2805Z" fill="#263238"/>
<path d="M64.3195 74.9598L72.6537 92.5062C73.0656 93.3719 73.7912 94.0489 74.6836 94.4001C75.576 94.7514 76.5686 94.7508 77.4605 94.3983L107.081 82.6169C107.578 82.4175 108.03 82.1198 108.409 81.7416C108.787 81.3635 109.086 80.9128 109.286 80.4164C109.487 79.9201 109.585 79.3885 109.574 78.8534C109.564 78.3184 109.445 77.7909 109.226 77.3028L101.383 59.7527C100.964 58.8182 100.199 58.082 99.2486 57.6978C98.2985 57.3135 97.2366 57.311 96.2846 57.6906L66.3347 69.8304C65.8553 70.0224 65.4202 70.3103 65.0563 70.6766C64.6924 71.0428 64.4073 71.4796 64.2186 71.9601C64.0298 72.4405 63.9414 72.9545 63.9588 73.4704C63.9761 73.9862 64.0989 74.4931 64.3195 74.9598Z" fill="#EBEBEB"/>
<path d="M64.3194 74.9601C64.3194 74.9601 64.2714 74.8604 64.1863 74.6608C64.0697 74.3591 63.9926 74.0436 63.9571 73.7221C63.8984 73.1981 63.9526 72.6676 64.1161 72.1663C64.2176 71.8461 64.3606 71.5405 64.5413 71.2572C64.7463 70.937 64.9952 70.6472 65.2808 70.3962C65.9094 69.8566 66.7968 69.6053 67.6879 69.2173L70.6459 68.0162L77.8413 65.0857C83.1768 62.9201 89.507 60.3184 96.5877 57.484C97.5519 57.1933 98.5897 57.2705 99.5002 57.7006C100.411 58.1307 101.129 58.8831 101.517 59.8122C102.33 61.6304 103.159 63.4843 104.005 65.3739L109.237 77.074C109.486 77.5746 109.632 78.1206 109.664 78.6789C109.696 79.2372 109.615 79.7963 109.426 80.3224C109.234 80.8422 108.939 81.3175 108.558 81.7191C108.176 82.1207 107.716 82.4402 107.207 82.6579L101.354 84.9824L90.2613 89.3949L80.2188 93.3824L77.9005 94.3025C77.5245 94.4682 77.1314 94.5922 76.7283 94.6721C76.3291 94.7368 75.9221 94.7368 75.5229 94.6721C74.7406 94.5578 74.0125 94.2056 73.4375 93.6632C73.1628 93.4016 72.9275 93.1016 72.7387 92.7726C72.5501 92.4437 72.4133 92.1111 72.2543 91.7859L66.4307 79.4909C65.7504 78.0348 65.2179 76.904 64.8556 76.1353L64.4526 75.2595L64.3194 74.9601C64.3194 74.9601 64.3749 75.0562 64.471 75.2521L64.8926 76.1131L66.4973 79.4391L72.3727 91.7341C72.528 92.0557 72.6722 92.3993 72.8496 92.7098C73.0335 93.0261 73.2613 93.3148 73.5263 93.5671C74.0814 94.088 74.7839 94.4248 75.5377 94.5317C75.9222 94.5944 76.3143 94.5944 76.6988 94.5317C77.0899 94.452 77.4708 94.328 77.8339 94.1621L80.1522 93.2382L90.1873 89.2323L101.28 84.7976L107.144 82.4547C107.628 82.2483 108.064 81.9451 108.426 81.5638C108.788 81.1824 109.068 80.731 109.248 80.2374C109.43 79.7345 109.507 79.1999 109.475 78.6662C109.444 78.1325 109.303 77.6109 109.063 77.1331C107.274 73.1235 105.525 69.2136 103.839 65.4331C102.996 63.5409 102.167 61.6858 101.354 59.8676C100.979 58.9827 100.291 58.2672 99.4208 57.8581C98.5509 57.4489 97.5606 57.3749 96.6395 57.6503L77.9005 65.2113L70.694 68.116L67.736 69.3023C66.8375 69.6718 65.9574 69.9305 65.3437 70.4553C65.0604 70.6988 64.8116 70.9798 64.6042 71.2905C64.4241 71.5693 64.2799 71.8698 64.1752 72.1848C64.0104 72.6782 63.9525 73.201 64.0052 73.7184C64.0492 74.1454 64.1551 74.5636 64.3194 74.9601Z" fill="#263238"/>
<path d="M90.3685 84.7641L77.3236 90.3074C77.1976 90.361 77.0622 90.3893 76.9253 90.3907C76.7883 90.392 76.6525 90.3664 76.5254 90.3153C76.3984 90.2642 76.2827 90.1885 76.1849 90.0927C76.0871 89.9968 76.0091 89.8827 75.9555 89.7567C75.9018 89.6308 75.8735 89.4955 75.8721 89.3586C75.8708 89.2218 75.8964 89.086 75.9476 88.959C75.9987 88.832 76.0744 88.7163 76.1703 88.6186C76.2662 88.5209 76.3804 88.443 76.5064 88.3894L89.5513 82.8461C89.6773 82.7924 89.8126 82.7641 89.9496 82.7627C90.0865 82.7614 90.2224 82.787 90.3495 82.8381C90.4765 82.8893 90.5922 82.9649 90.69 83.0608C90.7878 83.1566 90.8658 83.2708 90.9194 83.3967C90.9731 83.5226 91.0014 83.6579 91.0028 83.7948C91.0041 83.9317 90.9785 84.0675 90.9273 84.1944C90.8762 84.3214 90.8005 84.4371 90.7046 84.5348C90.6087 84.6326 90.4945 84.7104 90.3685 84.7641Z" fill="#455A64"/>
<path d="M104.593 76.8965C104.765 77.3 104.813 77.7452 104.731 78.1759C104.65 78.6066 104.442 79.0035 104.135 79.3165C103.828 79.6295 103.435 79.8444 103.006 79.9342C102.576 80.024 102.13 79.9847 101.723 79.8211C101.316 79.6575 100.967 79.377 100.72 79.0151C100.472 78.6532 100.338 78.2261 100.333 77.7877C100.328 77.3494 100.454 76.9195 100.693 76.5524C100.933 76.1852 101.276 75.8973 101.679 75.7251C101.948 75.6105 102.236 75.5499 102.527 75.5468C102.819 75.5436 103.109 75.598 103.379 75.7068C103.65 75.8157 103.896 75.9767 104.105 76.1809C104.313 76.385 104.479 76.6282 104.593 76.8965Z" fill="white"/>
<path d="M100.33 80.9429C101.555 80.9429 102.548 79.9502 102.548 78.7256C102.548 77.501 101.555 76.5083 100.33 76.5083C99.1043 76.5083 98.1111 77.501 98.1111 78.7256C98.1111 79.9502 99.1043 80.9429 100.33 80.9429Z" fill="#318FFF"/>
<path d="M73.0827 74.9083L70.6608 75.9393C70.4928 76.0105 70.3124 76.0478 70.13 76.0491C69.9476 76.0504 69.7667 76.0158 69.5977 75.9471C69.4287 75.8785 69.2749 75.7771 69.1452 75.649C69.0154 75.5208 68.9123 75.3683 68.8416 75.2002C68.699 74.8616 68.6968 74.4802 68.8355 74.14C68.9742 73.7997 69.2424 73.5284 69.5811 73.3857L72.0067 72.3547C72.1746 72.2835 72.355 72.2462 72.5374 72.2449C72.7199 72.2436 72.9007 72.2782 73.0697 72.3469C73.2387 72.4156 73.3925 72.5169 73.5223 72.645C73.652 72.7732 73.7552 72.9257 73.8259 73.0938C73.8968 73.2616 73.9339 73.4418 73.935 73.6241C73.936 73.8063 73.901 73.9869 73.8319 74.1555C73.7628 74.3242 73.6611 74.4775 73.5325 74.6067C73.4039 74.7359 73.251 74.8384 73.0827 74.9083Z" fill="#318FFF"/>
<path d="M99.0655 60.579L94.0909 62.6946L94.8296 64.4296L99.8042 62.314L99.0655 60.579Z" fill="#E0E0E0"/>
<path d="M75.8471 78.7701L71.6622 80.5498L72.9854 83.6579L77.1703 81.8781L75.8471 78.7701Z" fill="#E0E0E0"/>
<path d="M84.4144 75.2787L78.1712 77.9338L79.4944 81.0419L85.7376 78.3868L84.4144 75.2787Z" fill="white"/>
<path d="M92.4398 71.7131L86.1966 74.3682L87.5198 77.4762L93.763 74.8211L92.4398 71.7131Z" fill="white"/>
<path d="M101.691 67.6208L94.2301 70.7939L95.5533 73.902L103.015 70.7289L101.691 67.6208Z" fill="white"/>
<path d="M77.4715 51.002C77.4715 51.002 92.55 53.9325 93.0751 54.2466C93.6001 54.5607 100.84 59.8971 100.929 61.7818C101.017 63.6665 98.4143 72.0406 98.4143 72.0406C98.4143 72.0406 95.9037 72.3547 95.7964 67.8536L95.6929 63.3524L92.343 60.8395C92.343 60.8395 93.6963 65.7656 93.3894 67.2438C93.0825 68.722 90.5645 72.3806 89.2001 72.048C88.3873 71.8582 87.655 71.4173 87.1073 70.7878C87.1073 70.7878 85.8501 74.0805 82.3929 72.0665C82.3929 72.0665 80.0894 72.983 78.3256 72.0443C76.5619 71.1056 74.972 68.1714 74.972 68.1714C74.9522 67.9371 74.9857 67.7014 75.0699 67.4819C75.1541 67.2624 75.2868 67.0648 75.4582 66.9038C75.6296 66.7428 75.8352 66.6226 76.0596 66.5522C76.2841 66.4818 76.5215 66.4631 76.7542 66.4973C78.6399 66.6008 80.3149 67.9755 80.3149 67.9755L80.522 66.0908C80.522 66.0908 78.3256 63.3155 76.0184 61.8779C73.7111 60.4403 66.2717 58.5852 68.3867 53.4484L70.6348 52.2806L77.4715 51.002Z" fill="#263238"/>
<path d="M84.3452 63.3818C84.4255 63.4832 84.4914 63.5951 84.5412 63.7144C84.6927 64.032 84.8165 64.3622 84.9109 64.7011C85.2372 65.8301 85.2653 67.0244 84.9925 68.1674C84.7196 69.3105 84.1553 70.3635 83.3543 71.2238C83.1148 71.4833 82.8525 71.7208 82.5704 71.9333C82.4727 72.0189 82.3631 72.0898 82.245 72.1439C82.2191 72.1144 82.6776 71.8003 83.2507 71.1351C84.006 70.2729 84.54 69.24 84.8067 68.1256C85.0734 67.0111 85.0648 65.8485 84.7815 64.7381C84.5744 63.8844 84.3119 63.3966 84.3452 63.3818Z" fill="#455A64"/>
<path d="M87.8838 60.7876C87.9698 60.9005 88.0395 61.0249 88.0909 61.1572C88.1684 61.3003 88.2363 61.4485 88.2943 61.6006C88.3815 61.7971 88.458 61.9982 88.5235 62.203C88.6941 62.7357 88.8178 63.2822 88.8933 63.8364C89.0939 65.2007 89.0057 66.5919 88.6344 67.92C88.4862 68.4606 88.2881 68.9864 88.0428 69.4906C87.9545 69.6873 87.8545 69.8786 87.7433 70.0634C87.6666 70.2059 87.5801 70.343 87.4845 70.4736C87.4164 70.5945 87.3332 70.7063 87.2368 70.8062C87.2035 70.784 87.54 70.2962 87.9208 69.4351C88.1432 68.9306 88.3249 68.4091 88.4644 67.8756C88.6288 67.2209 88.7364 66.5532 88.786 65.88C88.8228 65.2056 88.8005 64.5292 88.7195 63.8586C88.6476 63.3124 88.5339 62.7725 88.3793 62.2436C88.1242 61.3308 87.8506 60.8024 87.8838 60.7876Z" fill="#455A64"/>
<path d="M91.6515 57.3619C91.6515 57.3619 91.8475 57.4727 92.0619 57.7499C92.3342 58.1159 92.5208 58.5384 92.6078 58.9862C92.6949 59.4339 92.6802 59.8955 92.5648 60.3368C92.4686 60.6731 92.3503 60.8579 92.3281 60.8468C92.5068 60.2534 92.5386 59.6256 92.4207 59.0172C92.3029 58.4089 92.0389 57.8383 91.6515 57.3545V57.3619Z" fill="#455A64"/>
<path d="M78.8618 51.4972C78.2152 51.2275 77.5423 51.0256 76.854 50.8948C76.1041 50.7807 75.3411 50.7807 74.5912 50.8948C73.6769 51.0289 72.7977 51.3403 72.0029 51.8113C71.2029 52.2765 70.5109 52.9063 69.973 53.6591C69.5317 54.2717 69.2681 54.9942 69.2113 55.747C69.1859 56.256 69.2458 56.7656 69.3887 57.2548C69.4596 57.4302 69.5177 57.6106 69.5625 57.7944C69.464 57.6305 69.3823 57.4572 69.3185 57.277C69.1425 56.7841 69.0597 56.2628 69.0745 55.7396C69.1119 54.958 69.3681 54.2025 69.814 53.5593C70.3607 52.7788 71.0711 52.1268 71.8957 51.6487C72.7124 51.1596 73.6211 50.8438 74.5653 50.7211C75.3326 50.6173 76.1116 50.6373 76.8725 50.7802C77.3824 50.8741 77.879 51.0292 78.3515 51.2422C78.4783 51.2993 78.6017 51.3635 78.7213 51.4343C78.8211 51.4639 78.8655 51.4898 78.8618 51.4972Z" fill="#455A64"/>
<g opacity="0.3">
<path opacity="0.3" d="M184.005 90.9544C185.258 95.1451 184.644 100.415 185.894 104.606C186.083 105.23 186.264 105.918 186.013 106.52C185.706 107.259 184.874 107.584 184.097 107.71C183.018 107.861 181.919 107.783 180.871 107.481C179.824 107.179 178.852 106.66 178.019 105.958C176.356 104.537 175.154 102.654 174.565 100.548C174.066 98.8739 173.896 97.0335 174.535 95.4075C175.648 92.5693 180.958 90.6107 184.005 90.9544Z" fill="black"/>
</g>
<path d="M178.207 108.523C178.207 108.523 181.568 110.74 183.014 110.951C184.459 111.161 189.621 110.038 189.621 110.038C189.621 110.038 192.191 107.802 190.486 106.464C191.022 106.193 191.52 105.851 191.965 105.448C192.882 104.587 193.075 104.14 192.135 101.978C192.135 101.978 193.574 100.13 193.43 99.1805C193.297 98.3626 192.917 97.6052 192.339 97.0112C192.339 97.0112 193.799 94.3504 191.259 93.1087C190.686 92.749 190.235 92.223 189.969 91.6009C189.7 91.0592 189.325 90.5772 188.865 90.1836C188.406 89.7899 187.872 89.4927 187.295 89.3097C186.244 89.0085 185.147 88.8947 184.056 88.9734V92.7724C184.056 92.7724 175.023 92.7724 174.117 93.493C172.139 95.0673 175.275 96.6971 175.275 96.6971C175.275 96.6971 173.311 98.6705 175.345 99.5574C175.345 99.5574 173.884 101.479 175.974 102.514C177.201 103.113 186.149 105.873 186.149 105.873L181.638 106.324C181.638 106.324 178.495 104.794 177.941 105.803C177.386 106.812 178.207 108.523 178.207 108.523Z" fill="#263238"/>
<path d="M188.087 101.612C187.914 101.608 187.743 101.584 187.576 101.542L186.201 101.291C185.044 101.076 183.439 100.788 181.664 100.507C179.889 100.226 178.273 100.001 177.105 99.8456L175.722 99.6608C175.551 99.6464 175.381 99.6155 175.216 99.5685C175.387 99.5583 175.559 99.5645 175.73 99.5869C176.059 99.6091 176.536 99.6498 177.123 99.7126C178.296 99.8308 179.915 100.034 181.694 100.315C183.472 100.596 185.077 100.91 186.23 101.158C186.807 101.283 187.273 101.387 187.591 101.468C187.76 101.502 187.926 101.55 188.087 101.612Z" fill="#455A64"/>
<path d="M189.225 97.3408C189.042 97.3375 188.859 97.3177 188.678 97.2816L187.199 97.0783C185.942 96.9119 184.204 96.7085 182.278 96.6383C180.351 96.568 178.599 96.5754 177.334 96.6383L175.837 96.7085C175.653 96.7222 175.469 96.7222 175.286 96.7085C175.464 96.6614 175.646 96.6329 175.829 96.6235C176.199 96.5828 176.695 96.5384 177.327 96.4941C178.978 96.3903 180.633 96.3755 182.285 96.4497C183.937 96.5251 185.584 96.6905 187.218 96.9452C187.846 97.045 188.349 97.1374 188.697 97.2114C188.877 97.2377 189.054 97.2811 189.225 97.3408Z" fill="#455A64"/>
<path d="M176.672 124.329C176.318 126.175 175.423 127.874 174.102 129.212C172.781 130.55 171.092 131.467 169.25 131.846C167.408 132.225 165.495 132.049 163.752 131.341C162.01 130.633 160.516 129.425 159.461 127.869C158.406 126.313 157.836 124.479 157.823 122.599C157.811 120.719 158.356 118.878 159.391 117.308C160.425 115.738 161.902 114.51 163.635 113.779C165.368 113.048 167.279 112.847 169.126 113.201C170.353 113.436 171.521 113.91 172.564 114.597C173.608 115.283 174.505 116.169 175.206 117.202C175.907 118.235 176.397 119.397 176.649 120.619C176.901 121.842 176.908 123.103 176.672 124.329Z" fill="#318FFF"/>
<g opacity="0.1">
<path opacity="0.1" d="M169.126 113.202C166.648 112.727 164.084 113.256 161.996 114.671C159.908 116.086 158.468 118.272 157.993 120.748C157.993 120.748 164.5 122.3 166.586 119.961C168.671 117.621 169.126 113.202 169.126 113.202Z" fill="white"/>
</g>
<path d="M174.302 123.726C174.036 125.133 173.358 126.428 172.354 127.449C171.351 128.469 170.066 129.169 168.664 129.46C167.262 129.75 165.805 129.618 164.479 129.081C163.152 128.543 162.014 127.623 161.211 126.439C160.407 125.255 159.973 123.858 159.964 122.427C159.955 120.996 160.371 119.595 161.16 118.4C161.948 117.206 163.074 116.272 164.394 115.718C165.714 115.163 167.169 115.013 168.575 115.286C170.452 115.65 172.108 116.743 173.182 118.325C174.255 119.906 174.658 121.849 174.302 123.726Z" fill="#318FFF"/>
<g opacity="0.2">
<path opacity="0.2" d="M174.302 123.726C174.036 125.133 173.358 126.428 172.354 127.449C171.351 128.469 170.066 129.169 168.664 129.46C167.262 129.75 165.805 129.618 164.479 129.081C163.152 128.543 162.014 127.623 161.211 126.439C160.407 125.255 159.973 123.858 159.964 122.427C159.955 120.996 160.371 119.595 161.16 118.4C161.948 117.206 163.074 116.272 164.394 115.718C165.714 115.163 167.169 115.013 168.575 115.286C170.452 115.65 172.108 116.743 173.182 118.325C174.255 119.906 174.658 121.849 174.302 123.726Z" fill="black"/>
</g>
<path d="M174.458 124.059C174.192 125.445 173.522 126.721 172.531 127.725C171.54 128.73 170.273 129.419 168.89 129.704C167.507 129.989 166.071 129.857 164.763 129.326C163.455 128.796 162.334 127.889 161.542 126.721C160.75 125.553 160.322 124.177 160.313 122.766C160.303 121.355 160.713 119.973 161.489 118.795C162.266 117.616 163.375 116.695 164.676 116.147C165.976 115.598 167.411 115.448 168.797 115.714C169.717 115.891 170.593 116.247 171.375 116.761C172.158 117.276 172.831 117.94 173.356 118.715C173.882 119.49 174.25 120.36 174.439 121.277C174.628 122.194 174.634 123.139 174.458 124.059Z" fill="#318FFF"/>
<g opacity="0.2">
<path opacity="0.2" d="M174.458 124.059C174.192 125.445 173.522 126.721 172.531 127.725C171.54 128.73 170.273 129.419 168.89 129.704C167.507 129.989 166.071 129.857 164.763 129.326C163.455 128.796 162.334 127.889 161.542 126.721C160.75 125.553 160.322 124.177 160.313 122.766C160.303 121.355 160.713 119.973 161.489 118.795C162.266 117.616 163.375 116.695 164.676 116.147C165.976 115.598 167.411 115.448 168.797 115.714C169.717 115.891 170.593 116.247 171.375 116.761C172.158 117.276 172.831 117.94 173.356 118.715C173.882 119.49 174.25 120.36 174.439 121.277C174.628 122.194 174.634 123.139 174.458 124.059Z" fill="white"/>
</g>
<path d="M167.847 122.163L168.19 120.371C168.51 120.473 168.813 120.619 169.093 120.803C169.235 120.915 169.367 121.039 169.488 121.173L169.522 121.125L169.921 120.53L170.013 120.397L169.758 119.998L169.592 120.038C169.228 119.75 168.811 119.538 168.364 119.414L168.553 118.431L168.294 118.124L168.246 118.372L167.824 118.29L167.632 119.292C166.223 119.159 165.414 119.824 165.24 120.729C165.003 121.964 165.998 122.485 166.937 122.913L166.597 124.687C165.963 124.513 165.393 124.162 164.951 123.675L164.378 124.495C164.925 125.075 165.634 125.476 166.412 125.648L166.271 126.387L165.924 126.328L166.223 126.627L166.963 126.768L167.155 125.774C168.575 125.899 169.392 125.245 169.566 124.34C169.803 123.109 168.786 122.592 167.847 122.163ZM167.155 121.834C166.671 121.587 166.323 121.317 166.416 120.892C166.508 120.467 166.819 120.234 167.469 120.256L167.155 121.834ZM167.34 124.791L167.643 123.22C168.146 123.475 168.497 123.752 168.412 124.188C168.327 124.624 168.017 124.835 167.34 124.806V124.791Z" fill="#318FFF"/>
<g opacity="0.3">
<path opacity="0.3" d="M167.847 122.163L168.19 120.371C168.51 120.473 168.813 120.619 169.093 120.803C169.235 120.915 169.367 121.039 169.488 121.173L169.522 121.125L169.921 120.53L170.013 120.397L169.758 119.998L169.592 120.038C169.228 119.75 168.811 119.538 168.364 119.414L168.553 118.431L168.294 118.124L168.246 118.372L167.824 118.29L167.632 119.292C166.223 119.159 165.414 119.824 165.24 120.729C165.003 121.964 165.998 122.485 166.937 122.913L166.597 124.687C165.963 124.513 165.393 124.162 164.951 123.675L164.378 124.495C164.925 125.075 165.634 125.476 166.412 125.648L166.271 126.387L165.924 126.328L166.223 126.627L166.963 126.768L167.155 125.774C168.575 125.899 169.392 125.245 169.566 124.34C169.803 123.109 168.786 122.592 167.847 122.163ZM167.155 121.834C166.671 121.587 166.323 121.317 166.416 120.892C166.508 120.467 166.819 120.234 167.469 120.256L167.155 121.834ZM167.34 124.791L167.643 123.22C168.146 123.475 168.497 123.752 168.412 124.188C168.327 124.624 168.017 124.835 167.34 124.806V124.791Z" fill="black"/>
</g>
<path d="M166.907 125.474L166.715 126.468L165.976 126.328L166.168 125.341C165.388 125.172 164.677 124.77 164.131 124.188L164.704 123.368C165.145 123.856 165.715 124.208 166.349 124.384L166.689 122.61C165.75 122.182 164.755 121.657 164.992 120.422C165.166 119.517 165.976 118.856 167.384 118.985L167.58 117.983L168.32 118.124L168.131 119.107C168.764 119.258 169.348 119.564 169.832 119.997L169.285 120.829C168.892 120.493 168.434 120.241 167.939 120.09L167.595 121.882C168.534 122.311 169.547 122.828 169.311 124.063C169.126 124.946 168.32 125.6 166.907 125.474ZM166.907 121.535L167.211 119.953C166.563 119.931 166.234 120.201 166.16 120.589C166.087 120.977 166.416 121.284 166.907 121.535ZM168.168 123.904C168.25 123.468 167.898 123.187 167.395 122.935L167.092 124.506C167.754 124.524 168.087 124.284 168.161 123.904H168.168Z" fill="#318FFF"/>
<path d="M158.536 125.393C158.536 125.393 158.536 125.367 158.507 125.315L158.436 125.079C158.396 124.958 158.363 124.834 158.336 124.709C158.303 124.561 158.259 124.395 158.233 124.203C158.233 124.111 158.203 124.011 158.185 123.907C158.166 123.804 158.163 123.697 158.148 123.586C158.122 123.36 158.115 123.12 158.104 122.869C158.092 122.32 158.127 121.771 158.207 121.228C158.288 120.686 158.411 120.151 158.577 119.628C158.662 119.391 158.74 119.162 158.832 118.959C158.88 118.856 158.917 118.752 158.965 118.66L159.098 118.39C159.18 118.216 159.272 118.072 159.346 117.939C159.42 117.806 159.49 117.695 159.549 117.606C159.608 117.518 159.653 117.459 159.69 117.403C159.704 117.379 159.721 117.356 159.742 117.337C159.729 117.363 159.716 117.389 159.701 117.414L159.575 117.621C159.516 117.714 159.449 117.824 159.379 117.958C159.309 118.091 159.22 118.238 159.143 118.412C159.102 118.501 159.057 118.589 159.013 118.682C158.969 118.774 158.932 118.878 158.887 118.981C158.799 119.184 158.725 119.414 158.64 119.65C158.296 120.686 158.131 121.774 158.152 122.865C158.152 123.116 158.152 123.357 158.192 123.578C158.192 123.689 158.192 123.796 158.226 123.9C158.259 124.003 158.255 124.103 158.27 124.196C158.292 124.384 158.333 124.565 158.359 124.702C158.385 124.839 158.418 124.975 158.447 125.071C158.477 125.168 158.492 125.249 158.507 125.308C158.52 125.335 158.53 125.364 158.536 125.393Z" fill="white"/>
<path d="M165.462 121.285C165.385 121.219 165.327 121.135 165.292 121.041C165.195 120.816 165.17 120.566 165.221 120.327C165.278 120.091 165.407 119.879 165.591 119.721C165.663 119.65 165.752 119.599 165.85 119.573C165.85 119.573 165.754 119.636 165.624 119.758C165.459 119.918 165.342 120.122 165.288 120.346C165.239 120.57 165.255 120.803 165.336 121.018C165.402 121.2 165.469 121.277 165.462 121.285Z" fill="white"/>
<path d="M167.569 118.867C167.547 118.867 167.569 118.73 167.569 118.571C167.578 118.47 167.61 118.373 167.662 118.286C167.678 118.385 167.67 118.487 167.639 118.582C167.647 118.745 167.588 118.874 167.569 118.867Z" fill="white"/>
<path d="M169.252 115.205C169.175 115.197 169.099 115.179 169.026 115.153C168.952 115.134 168.867 115.109 168.76 115.09C168.653 115.072 168.542 115.038 168.409 115.016C168.275 114.994 168.135 114.968 167.98 114.953C167.824 114.938 167.658 114.92 167.48 114.909C167.1 114.889 166.718 114.896 166.338 114.931C165.964 114.973 165.594 115.04 165.229 115.131C165.059 115.179 164.896 115.223 164.748 115.275C164.6 115.327 164.463 115.375 164.341 115.423C164.219 115.471 164.105 115.519 164.008 115.563C163.924 115.597 163.841 115.636 163.761 115.678C163.692 115.714 163.622 115.746 163.55 115.774C163.613 115.728 163.68 115.687 163.75 115.652C163.816 115.615 163.894 115.571 163.99 115.526C164.086 115.482 164.197 115.423 164.323 115.375C164.448 115.327 164.582 115.268 164.729 115.219C164.877 115.171 165.044 115.12 165.214 115.068C165.959 114.867 166.732 114.791 167.503 114.842C167.68 114.842 167.847 114.868 168.006 114.894C168.164 114.92 168.305 114.942 168.438 114.968C168.571 114.994 168.686 115.023 168.808 115.049C168.897 115.071 168.984 115.097 169.07 115.127C169.132 115.15 169.192 115.176 169.252 115.205Z" fill="white"/>
<path d="M166.771 131.613H166.597C166.437 131.622 166.276 131.622 166.116 131.613C165.058 131.549 164.03 131.239 163.114 130.707C162.975 130.63 162.84 130.545 162.711 130.452C162.661 130.421 162.614 130.385 162.57 130.345C162.625 130.367 162.677 130.396 162.725 130.43C162.818 130.489 162.962 130.571 163.136 130.663C163.597 130.911 164.081 131.113 164.582 131.266C165.083 131.417 165.598 131.516 166.12 131.561C166.319 131.58 166.489 131.591 166.597 131.595C166.655 131.592 166.714 131.599 166.771 131.613Z" fill="white"/>
<path d="M158.887 101.291L135.168 89.1584C134.778 88.9597 134.431 88.686 134.146 88.353C133.862 88.0199 133.647 87.6342 133.512 87.2177C133.377 86.8013 133.326 86.3624 133.362 85.9262C133.397 85.49 133.518 85.065 133.718 84.6757L150.516 51.8594C150.715 51.4694 150.989 51.1226 151.322 50.8386C151.655 50.5546 152.041 50.3392 152.458 50.2046C152.875 50.07 153.314 50.019 153.75 50.0543C154.187 50.0897 154.612 50.2108 155.001 50.4107L170.047 58.1011L175.552 76.054L163.376 99.8385C163.178 100.229 162.904 100.577 162.571 100.862C162.237 101.146 161.851 101.362 161.434 101.497C161.017 101.632 160.577 101.683 160.14 101.648C159.703 101.613 159.277 101.491 158.887 101.291Z" fill="#FAFAFA"/>
<path d="M158.887 101.291L159.024 101.343C159.156 101.402 159.292 101.453 159.431 101.494C159.972 101.656 160.546 101.678 161.098 101.557C161.543 101.46 161.963 101.272 162.331 101.005C162.7 100.738 163.009 100.397 163.239 100.005C163.746 99.0587 164.297 97.9389 164.933 96.7009C167.466 91.7267 171.097 84.6129 175.478 76.006V76.0651C173.811 70.6364 171.947 64.5794 169.961 58.1196L170.006 58.1713L161.324 53.7367L156.783 51.4159L155.63 50.8283C155.257 50.6181 154.869 50.4365 154.469 50.2851C154.064 50.1558 153.637 50.1078 153.213 50.144C152.789 50.1801 152.376 50.2997 151.999 50.4957C151.468 50.7657 151.024 51.1809 150.72 51.6931C150.427 52.2104 150.161 52.7648 149.884 53.2969L148.242 56.5268L145.036 62.7834L138.976 74.6091L136.151 80.1154C135.695 81.0097 135.245 81.8892 134.802 82.754L134.14 84.0437C133.906 84.451 133.71 84.8791 133.556 85.3224C133.37 85.9732 133.393 86.6656 133.62 87.3029C133.847 87.9403 134.268 88.4908 134.824 88.8775C135.197 89.1079 135.582 89.3176 135.977 89.5057L140.451 91.8007L153.966 98.7224L157.63 100.618L158.584 101.113L158.902 101.291L158.573 101.132L157.615 100.651L153.918 98.8037L140.389 91.9226L135.911 89.6388C135.51 89.4472 135.118 89.235 134.739 89.0031C134.358 88.7411 134.035 88.4026 133.792 88.009C133.54 87.6063 133.375 87.1553 133.307 86.685C133.24 86.2146 133.272 85.7354 133.4 85.278C133.556 84.8239 133.756 84.3858 133.996 83.9698L134.654 82.6801L136.003 80.0378L138.806 74.513C140.736 70.7435 142.759 66.7856 144.859 62.6873L148.061 56.427L149.699 53.2267C149.98 52.6909 150.235 52.1513 150.538 51.6118C150.863 51.0695 151.333 50.6291 151.895 50.3405C152.705 49.9244 153.645 49.8447 154.513 50.1188C154.923 50.2751 155.321 50.4603 155.704 50.6731L156.857 51.2644L161.409 53.5704L170.087 58.005L170.124 58.0235V58.0605C172.102 64.5239 173.955 70.5846 175.615 76.0134V76.0466V76.0762C171.207 84.6572 167.554 91.7637 165.007 96.7268C164.363 97.9648 163.809 99.0735 163.291 100.027C163.054 100.425 162.737 100.769 162.361 101.038C161.984 101.307 161.555 101.495 161.102 101.59C160.542 101.707 159.961 101.677 159.416 101.501C159.276 101.462 159.141 101.407 159.013 101.339L158.887 101.291Z" fill="#263238"/>
<path d="M163.52 65.9428C163.461 66.061 160.954 64.9006 157.926 63.3559C154.898 61.8112 152.487 60.4549 152.546 60.3367C152.605 60.2184 155.112 61.3788 158.144 62.9235C161.176 64.4683 163.58 65.8245 163.52 65.9428Z" fill="#263238"/>
<path d="M167.935 74.79C167.876 74.9083 163.783 72.9422 158.795 70.3886C153.807 67.835 149.814 65.6731 149.873 65.5549C149.932 65.4366 154.029 67.4026 159.017 69.9563C164.005 72.5099 168.017 74.6717 167.935 74.79Z" fill="#263238"/>
<path d="M167.333 79.9823C167.27 80.1005 162.814 77.9423 157.379 75.1781C151.944 72.4138 147.58 70.0487 147.643 69.9304C147.706 69.8122 152.158 71.9667 157.597 74.7346C163.036 77.5026 167.392 79.864 167.333 79.9823Z" fill="#263238"/>
<path d="M165.225 84.0954C165.166 84.2174 160.707 82.0592 155.271 79.2912C149.836 76.5233 145.462 74.1471 145.536 74.0288C145.61 73.9106 150.054 76.0687 155.493 78.833C160.932 81.5973 165.288 83.9772 165.225 84.0954Z" fill="#263238"/>
<path d="M163.121 88.2121C163.058 88.3303 158.603 86.1721 153.167 83.4079C147.732 80.6436 143.369 78.2785 143.432 78.1565C143.495 78.0346 147.946 80.1965 153.385 82.9607C158.825 85.725 163.18 88.0938 163.121 88.2121Z" fill="#263238"/>
<path d="M161.014 92.3253C160.954 92.4435 156.495 90.2854 151.06 87.5211C145.624 84.7568 141.265 82.3917 141.324 82.2734C141.383 82.1552 145.843 84.3097 151.282 87.0776C156.721 89.8456 161.076 92.207 161.014 92.3253Z" fill="#263238"/>
<path d="M169.865 57.9827L165.136 67.2215C164.951 67.5837 164.839 67.979 164.806 68.3845C164.774 68.7901 164.821 69.1982 164.947 69.5853C165.072 69.9724 165.273 70.3311 165.537 70.6407C165.801 70.9504 166.123 71.205 166.486 71.3901L175.36 75.9356L169.865 57.9827Z" fill="#E0E0E0"/>
<path d="M126.253 82.1777H114.598L113.556 80.2338C113.202 79.6014 112.685 79.0763 112.057 78.7139C111.43 78.3516 110.716 78.1655 109.991 78.1754H98.6028C96.5728 78.1754 94.9311 79.7165 94.9311 81.616V82.9427V117.884C94.9311 120.038 96.7984 121.786 99.102 121.786L145.376 121.764C147.68 121.764 149.547 120.013 149.544 117.858V84.8496C149.544 84.4993 149.474 84.1526 149.34 83.829C149.206 83.5055 149.009 83.2116 148.761 82.9642C148.514 82.7167 148.219 82.5205 147.895 82.3868C147.571 82.2532 147.224 82.1846 146.874 82.1851L126.253 82.1777Z" fill="#318FFF"/>
<path d="M137.434 94.9458H109.895V106.528H137.434V94.9458Z" fill="white"/>
<path d="M133.193 100.046C133.193 100.149 128.956 100.234 123.735 100.234C118.514 100.234 114.273 100.156 114.273 100.053C114.273 99.9494 118.507 99.8681 123.731 99.8644C128.956 99.8607 133.193 99.942 133.193 100.046Z" fill="#263238"/>
<path d="M133.193 102.514C133.193 102.614 128.959 102.699 123.735 102.703C118.51 102.706 114.273 102.625 114.273 102.522C114.273 102.418 118.507 102.333 123.735 102.333C128.963 102.333 133.193 102.411 133.193 102.514Z" fill="#263238"/>
<path d="M151.037 143.132C149.944 144.467 148.479 145.449 146.828 145.952C145.177 146.455 143.413 146.458 141.76 145.96C140.107 145.462 138.639 144.485 137.542 143.153C136.444 141.821 135.767 140.193 135.594 138.477C135.422 136.76 135.763 135.03 136.575 133.507C137.386 131.984 138.631 130.735 140.152 129.919C141.673 129.103 143.402 128.756 145.12 128.922C146.839 129.088 148.469 129.759 149.806 130.851C151.597 132.317 152.733 134.434 152.964 136.737C153.195 139.039 152.502 141.339 151.037 143.132Z" fill="white"/>
<path d="M151.037 143.132C151.058 143.087 151.084 143.046 151.115 143.01L151.352 142.67C151.407 142.596 151.466 142.514 151.529 142.422C151.592 142.33 151.648 142.219 151.718 142.104C151.878 141.843 152.021 141.572 152.143 141.291C152.498 140.531 152.737 139.723 152.853 138.893C153.147 136.902 152.737 134.871 151.694 133.15C150.652 131.429 149.041 130.124 147.14 129.462C146.752 129.327 146.356 129.217 145.953 129.133C145.539 129.056 145.121 129.008 144.7 128.989C144.272 128.97 143.844 128.978 143.417 129.015C142.982 129.066 142.551 129.146 142.126 129.255C141.254 129.473 140.422 129.831 139.664 130.315C138.085 131.307 136.875 132.788 136.218 134.532C135.893 135.37 135.706 136.255 135.667 137.152C135.645 137.589 135.651 138.028 135.685 138.464C135.736 138.89 135.814 139.312 135.918 139.728C136.019 140.136 136.148 140.536 136.307 140.925C136.467 141.307 136.653 141.678 136.865 142.034C137.655 143.361 138.784 144.454 140.137 145.201C141.215 145.791 142.406 146.145 143.631 146.241C144.856 146.337 146.087 146.173 147.244 145.759C148.038 145.482 148.786 145.087 149.462 144.588C149.713 144.412 149.951 144.219 150.176 144.011C150.272 143.922 150.368 143.841 150.45 143.763L150.657 143.542C150.779 143.416 150.871 143.316 150.941 143.239C151.012 143.161 151.041 143.139 151.045 143.143C151.018 143.182 150.989 143.219 150.956 143.253L150.686 143.568L150.483 143.797C150.405 143.878 150.309 143.959 150.213 144.052C149.993 144.268 149.757 144.467 149.507 144.647C148.834 145.164 148.086 145.574 147.288 145.863C145.367 146.57 143.26 146.583 141.33 145.901C139.4 145.219 137.769 143.883 136.721 142.126C136.504 141.77 136.313 141.4 136.148 141.018C135.985 140.62 135.852 140.211 135.748 139.794C135.64 139.37 135.559 138.939 135.508 138.505C135.471 138.06 135.463 137.613 135.486 137.167C135.525 136.248 135.715 135.342 136.048 134.484C136.72 132.701 137.959 131.187 139.575 130.175C140.35 129.682 141.199 129.316 142.089 129.092C142.524 128.983 142.965 128.903 143.409 128.852C143.846 128.815 144.285 128.808 144.722 128.83C145.15 128.847 145.577 128.897 145.998 128.978C146.41 129.062 146.815 129.175 147.211 129.318C148.685 129.841 149.995 130.745 151.008 131.938C151.806 132.896 152.392 134.013 152.727 135.214C153.061 136.416 153.137 137.675 152.949 138.908C152.828 139.746 152.578 140.561 152.21 141.324C152.083 141.605 151.935 141.876 151.766 142.134C151.696 142.248 151.633 142.355 151.57 142.448L151.385 142.692L151.13 143.024C151.101 143.062 151.07 143.097 151.037 143.132Z" fill="#263238"/>
<path d="M149.758 138.845C149.819 138.907 149.863 138.984 149.885 139.069C149.907 139.154 149.906 139.242 149.883 139.326C149.86 139.411 149.815 139.487 149.753 139.549C149.69 139.61 149.613 139.654 149.529 139.676L145.147 141.014L140.755 142.193C140.662 142.187 140.572 142.162 140.49 142.119C140.408 142.077 140.336 142.018 140.277 141.946C140.219 141.874 140.176 141.791 140.151 141.702C140.127 141.613 140.121 141.52 140.133 141.428L141.306 137.034L142.504 132.655C142.526 132.57 142.57 132.493 142.632 132.43C142.694 132.368 142.771 132.323 142.856 132.3C142.941 132.278 143.03 132.277 143.115 132.3C143.2 132.323 143.277 132.367 143.339 132.429L146.556 135.641L149.758 138.845Z" fill="#E0E0E0"/>
<path d="M100.792 137.141C101.561 136.656 102.172 135.956 102.547 135.128C102.922 134.299 103.046 133.379 102.903 132.481C102.533 129.938 100.315 128.154 97.9225 128.497C95.5302 128.841 93.9032 131.176 94.2693 133.715C94.3859 134.625 94.7695 135.48 95.3716 136.171C95.9737 136.863 96.7674 137.361 97.6525 137.603C91.1597 139.587 92.5315 146.757 92.5315 146.757L108.246 144.506C108.246 144.506 107.525 137.16 100.792 137.141Z" fill="#318FFF"/>
<path d="M55.7767 108.084L27.3974 113.865C26.555 114.037 26.0113 114.859 26.183 115.7L29.8789 133.824C30.0506 134.666 30.8726 135.209 31.715 135.038L60.0943 129.257C60.9367 129.085 61.4804 128.264 61.3087 127.422L57.6129 109.298C57.4412 108.456 56.6191 107.913 55.7767 108.084Z" fill="#EBEBEB"/>
<path d="M60.0907 129.261C60.0907 129.261 60.1832 129.261 60.3459 129.173C60.5905 129.073 60.8057 128.913 60.9708 128.707C61.1038 128.542 61.2007 128.351 61.2555 128.146C61.3103 127.941 61.3216 127.727 61.2887 127.517C61.1889 127.018 61.0669 126.442 60.919 125.795C60.3828 123.208 59.6064 119.446 58.6487 114.812C58.4121 113.651 58.1606 112.436 57.9092 111.172C57.7761 110.541 57.6417 109.897 57.5062 109.239C57.4242 108.922 57.2393 108.641 56.9803 108.44C56.7213 108.24 56.4029 108.131 56.0752 108.13C55.7313 108.167 55.3904 108.228 55.0547 108.311L54.0046 108.526L51.8564 108.965L47.3823 109.875L27.4157 113.94C27.2076 113.985 27.0117 114.074 26.8413 114.201C26.6709 114.329 26.5301 114.492 26.4285 114.679C26.3257 114.863 26.2651 115.067 26.251 115.277C26.2451 115.492 26.27 115.706 26.3249 115.913C26.5061 116.789 26.6947 117.657 26.8574 118.518C27.2099 120.243 27.555 121.94 27.8927 123.611L29.8524 133.241L29.967 133.814C30.0055 133.993 30.077 134.164 30.1778 134.317C30.3812 134.622 30.6909 134.841 31.0467 134.93C31.2211 134.971 31.401 134.982 31.5791 134.964C31.7566 134.938 31.9489 134.89 32.1301 134.856L33.2393 134.635L37.4693 133.777L45.0677 132.244L56.0678 130.026L59.0591 129.435L59.8393 129.287L60.1055 129.243L59.843 129.306L59.0702 129.472L56.0826 130.1L45.0936 132.369L37.4841 133.944L33.2541 134.812L32.1448 135.037C31.9563 135.071 31.7751 135.115 31.5828 135.145C31.3826 135.169 31.1795 135.157 30.9838 135.108C30.5874 135.007 30.2423 134.764 30.0151 134.424C29.8995 134.253 29.8191 134.061 29.7784 133.859L29.6601 133.286L27.6893 123.677L26.6503 118.585C26.4778 117.72 26.3003 116.858 26.1179 115.998C26.0596 115.773 26.0335 115.54 26.0402 115.307C26.0578 115.07 26.1258 114.839 26.2399 114.631C26.3543 114.421 26.5127 114.239 26.7042 114.097C26.8957 113.955 27.1157 113.856 27.3492 113.807L47.3158 109.742L51.8009 108.832L53.9492 108.396L54.9992 108.186L55.5169 108.079C55.6928 108.037 55.8724 108.012 56.053 108.005C56.4155 108.005 56.7674 108.126 57.0538 108.348C57.3402 108.57 57.5448 108.881 57.6356 109.232C57.7687 109.889 57.9006 110.536 58.0312 111.172C58.2864 112.439 58.5341 113.655 58.7707 114.815C59.7025 119.453 60.4605 123.208 60.9892 125.81C61.1187 126.46 61.237 127.033 61.3294 127.539C61.38 127.891 61.309 128.249 61.1281 128.555C60.9473 128.861 60.6674 129.096 60.3348 129.221C60.2553 129.244 60.1734 129.257 60.0907 129.261Z" fill="#263238"/>
<path d="M26.1993 114.997L44.3985 123.777L56.2195 108.06" fill="#EBEBEB"/>
<path d="M56.2195 108.06C56.2195 108.06 56.2195 108.093 56.1677 108.149L55.9976 108.389L55.3247 109.317L52.8177 112.698L44.4761 123.836L44.4281 123.899L44.3578 123.862L44.1175 123.748L31.4276 117.598L27.5932 115.714L26.5542 115.192L26.288 115.052C26.2288 115.019 26.1956 115 26.1993 114.997L26.2954 115.034L26.5727 115.155L27.6265 115.643L31.4867 117.473L44.1988 123.574L44.4392 123.688L44.3208 123.718L52.7105 112.631C53.7828 111.227 54.6517 110.085 55.2655 109.287L55.9643 108.382L56.1529 108.152C56.1732 108.12 56.1955 108.09 56.2195 108.06Z" fill="#263238"/>
<path d="M37.7022 120.617C37.7466 120.643 36.2232 123.851 34.2561 127.787C32.289 131.722 30.6843 134.897 30.64 134.871C30.5956 134.845 32.119 131.637 34.0823 127.702C36.0457 123.766 37.6542 120.591 37.7022 120.617Z" fill="#263238"/>
<path d="M48.181 118.744C48.2106 118.699 51.1834 120.872 54.818 123.596C58.4527 126.32 61.37 128.559 61.3368 128.6C61.3035 128.64 58.3344 126.471 54.6997 123.748C51.065 121.024 48.1477 118.792 48.181 118.744Z" fill="#263238"/>
</g>
<defs>
<clipPath id="clip0_418_10303">
<rect width="245" height="168" fill="white" transform="translate(0.5)"/>
</clipPath>
</defs>
</svg>
