<svg width="286" height="317" viewBox="0 0 286 317" fill="none" xmlns="http://www.w3.org/2000/svg">
<g clip-path="url(#clip0_418_19997)">
<path d="M21 148V157" stroke="#263238" stroke-width="0.639451" stroke-miterlimit="10"/>
<path d="M25 152H16" stroke="#263238" stroke-width="0.639451" stroke-miterlimit="10"/>
<path d="M232 230V236" stroke="#263238" stroke-width="0.639451" stroke-miterlimit="10"/>
<path d="M235 233H229" stroke="#263238" stroke-width="0.639451" stroke-miterlimit="10"/>
<path d="M262 37V43" stroke="#263238" stroke-width="0.639451" stroke-miterlimit="10"/>
<path d="M265 40H259" stroke="#263238" stroke-width="0.639451" stroke-miterlimit="10"/>
<path d="M185 270V276" stroke="#263238" stroke-width="0.639451" stroke-miterlimit="10"/>
<path d="M188 273H182" stroke="#263238" stroke-width="0.639451" stroke-miterlimit="10"/>
<path d="M259 258V272" stroke="#263238" stroke-width="0.639451" stroke-miterlimit="10"/>
<path d="M266 264H252" stroke="#263238" stroke-width="0.639451" stroke-miterlimit="10"/>
<path d="M46 58V72" stroke="#263238" stroke-width="0.639451" stroke-miterlimit="10"/>
<path d="M53 65H39" stroke="#263238" stroke-width="0.639451" stroke-miterlimit="10"/>
<path d="M24 104C24 104.494 24.2747 104.589 24 105C23.7253 105.411 22.4568 105.811 22 106C21.5431 106.189 21.4849 106.096 21 106C20.515 105.904 20.3496 105.35 20 105C19.6503 104.65 19.0964 104.485 19 104C18.9035 103.515 18.8107 103.457 19 103C19.1892 102.543 19.5888 101.275 20 101C20.4111 100.725 21.5055 101 22 101C22.663 101 22.5311 101.531 23 102C23.4688 102.469 24 103.337 24 104V104Z" stroke="#263238" stroke-width="0.639451" stroke-miterlimit="10"/>
<path d="M271 249C271 249.297 271.165 249.753 271 250C270.835 250.247 270.274 250.886 270 251C269.726 251.114 269.291 251.058 269 251C268.709 250.942 268.21 251.21 268 251C267.79 250.79 268.058 250.291 268 250C267.942 249.709 267.887 249.274 268 249C268.114 248.726 268.753 248.165 269 248C269.247 247.835 268.703 248 269 248C269.398 248 270.719 247.719 271 248C271.281 248.281 271 248.602 271 249V249Z" stroke="#263238" stroke-width="0.639451" stroke-miterlimit="10"/>
<path d="M208 260C208.001 260.297 208.164 260.753 208 261C207.836 261.248 207.274 261.886 207 262C206.726 262.114 206.291 262.057 206 262C205.709 261.943 205.21 262.21 205 262C204.79 261.791 205.058 261.291 205 261C204.942 260.709 204.887 260.275 205 260C205.113 259.726 205.753 259.165 206 259C206.247 258.835 205.703 259 206 259C206.197 258.999 206.818 258.925 207 259C207.182 259.075 207.861 258.861 208 259C208.139 259.139 207.925 259.818 208 260C208.075 260.182 208 259.803 208 260V260Z" stroke="#263238" stroke-width="0.639451" stroke-miterlimit="10"/>
<path d="M30.4977 115.989C31.736 113.215 29.8288 110.22 27.0531 108.986C24.2773 107.752 21.6841 108.747 20.4458 111.521C19.2076 114.295 19.7933 117.797 22.569 119.031C25.3448 120.264 29.2595 118.763 30.4977 115.989Z" stroke="#263238" stroke-width="0.639451" stroke-miterlimit="10"/>
<path d="M280 163C283.038 163 285 160.038 285 157C285 153.962 283.038 152 280 152C276.962 152 274 153.962 274 157C274 160.038 276.962 163 280 163Z" stroke="#263238" stroke-width="0.639451" stroke-miterlimit="10"/>
<path d="M106.856 45.6455C107.553 42.6889 106.321 39.3572 103.364 38.6635C100.407 37.9698 96.8433 40.1767 96.1467 43.1333C95.4501 46.0899 97.8841 48.6766 100.841 49.3703C103.799 50.064 106.159 48.6021 106.856 45.6455Z" stroke="#263238" stroke-width="0.639451" stroke-miterlimit="10"/>
<path d="M97 75C62.5321 75 34 102.444 34 136V170H52V136C52 112.007 71.3544 92 96 92C120.646 92 141 112.007 141 136V170H159V136C159 102.444 131.462 75 97 75Z" stroke="#263238" stroke-width="0.639451" stroke-miterlimit="10"/>
<path d="M163 263V170H76L163 263ZM70 170H27V282H163V269L70 170ZM101 229L104 255H85L87 229C84.6634 227.791 83.3711 226.238 82 224C80.6289 221.762 80.01 219.622 80 217C80.0805 213.144 81.2321 208.699 84 206C86.7679 203.301 90.1257 202 94 202C97.8743 202 102.232 203.301 105 206C107.768 208.699 108.919 213.144 109 217C108.99 219.621 108.37 221.762 107 224C105.63 226.238 103.335 227.789 101 229V229Z" stroke="#263238" stroke-width="0.639451" stroke-miterlimit="10"/>
<path d="M102 229L105 255H85L88 229C85.6328 227.781 83.3891 226.256 82 224C80.6109 221.744 80.0102 219.643 80 217C80.0816 213.113 82.1958 208.721 85 206C87.8042 203.279 91.0749 202 95 202C98.9251 202 102.196 203.279 105 206C107.804 208.721 109.918 213.113 110 217C109.99 219.642 109.388 221.744 108 224C106.612 226.256 104.366 227.78 102 229Z" stroke="#263238" stroke-width="0.639451" stroke-miterlimit="10"/>
<path d="M102 229L105 255H85L88 229C85.6328 227.781 83.3891 226.256 82 224C80.6109 221.744 80.0102 219.643 80 217C80.0816 213.113 82.1958 208.721 85 206C87.8042 203.279 91.0749 202 95 202C98.9251 202 102.196 203.279 105 206C107.804 208.721 109.918 213.113 110 217C109.99 219.642 109.388 221.744 108 224C106.612 226.256 104.366 227.78 102 229Z" stroke="#263238" stroke-width="0.639451" stroke-miterlimit="10"/>
<path d="M246 14.9999C243.363 14.4644 239.148 17.7239 238 19.9999C237.901 20.194 236.951 23.9932 237 23.9999C237.05 24.0066 242.033 23.7965 244 22.9999C245.675 22.3305 247.46 20.968 248 18.9999C248.139 18.5443 248.045 18.477 248 17.9999C247.955 17.5228 248.221 17.4163 248 16.9999C247.78 16.5835 247.358 16.2838 247 15.9999C246.642 15.716 246.434 15.1024 246 14.9999Z" fill="#263238"/>
<path d="M201 60.9999C201.18 62.5675 201.744 63.4773 202 64.9999C202.135 65.6424 201.834 66.396 202 66.9999C202.167 67.6038 202.846 68.3831 203 68.9999C203.352 70.2848 203.641 71.8306 204 72.9999C204.18 73.5845 203.821 73.4281 204 73.9999C203.558 73.094 203.083 72.122 203 71.9999C201.642 69.9312 197.665 66.229 195 66.9999C194.56 67.1355 194.347 67.6963 194 67.9999C193.654 68.3035 193.193 68.581 193 68.9999C192.807 69.4188 193.006 70.5386 193 70.9999C192.994 71.4612 192.818 71.5763 193 71.9999C193.711 73.8245 196.226 74.4988 198 74.9999C199.967 75.5524 204.475 75.0834 205 74.9999C205.308 75.9507 205.693 77.1005 206 77.9999H207C206.654 77.0619 206.346 75.9764 206 74.9999C206.481 74.7943 210.501 73.4583 212 71.9999C213.188 72.7349 214.731 73.4169 216 73.9999C215.603 75.4133 215.327 76.7086 215 77.9999C214.997 78.0384 214.997 77.9614 215 77.9999H216C216.25 76.9013 216.699 76.182 217 74.9999C217.532 75.1027 222.027 75.4882 224 74.9999C225.794 74.5502 228.231 73.8052 229 71.9999C229.195 71.5813 228.993 70.4616 229 69.9999C229.007 69.5382 229.182 69.4243 229 68.9999C228.819 68.5755 228.338 68.3131 228 67.9999C227.662 67.6867 227.436 67.1474 227 66.9999C224.355 66.1711 220.429 68.9697 219 70.9999C218.91 71.1284 217.442 73.1454 217 73.9999C217.199 73.229 217.75 72.7966 218 71.9999C218.308 70.8499 218.629 69.1692 219 67.9999C219.205 67.4024 218.763 66.6167 219 65.9999C219.237 65.3831 219.776 65.6102 220 64.9999C220.352 64.1197 220.597 62.8865 221 61.9999C222.147 62.3854 226.219 63.1734 228 62.9999C229.781 62.8264 231.969 62.6703 233 60.9999C233.256 60.6163 232.922 59.4547 233 58.9999C233.078 58.5451 233.114 58.4471 233 57.9999C232.887 57.5527 233.285 57.362 233 56.9999C232.715 56.6379 232.408 56.2141 232 55.9999C229.508 54.7857 224.71 57.2139 223 58.9999C222.943 59.0577 222.378 59.5052 222 59.9999C222.417 59.1454 223.558 57.8544 224 56.9999C225.281 54.5778 226.61 52.4412 228 49.9999C228.288 49.4924 228.712 48.5075 229 47.9999C229.967 48.3276 233.136 50.1734 235 49.9999C236.864 49.8264 238.969 48.6703 240 46.9999C240.257 46.6144 240.924 46.457 241 45.9999C241.077 45.5428 241.117 45.4484 241 44.9999C240.883 44.5514 240.29 43.3611 240 42.9999C239.71 42.6387 239.412 43.2104 239 42.9999C236.515 41.7792 231.717 44.2139 230 45.9999C229.943 46.0642 229.429 46.4345 229 46.9999C229.737 45.6636 231.334 44.3555 232 42.9999C233.152 40.6926 234.168 37.4414 235 34.9999C235.34 35.1156 238.925 37.1926 241 36.9999C242.839 36.8264 244.969 35.6639 246 33.9999C246.256 33.6159 246.923 33.455 247 32.9999C247.077 32.5448 247.114 32.4471 247 31.9999C246.886 31.5527 246.286 30.3617 246 29.9999C245.714 29.6381 245.408 30.2135 245 29.9999C242.515 28.7857 238.71 31.2075 237 32.9999C236.878 33.122 235.468 34.3575 235 34.9999C235.008 34.9711 234.987 35.0266 235 34.9999C235.767 32.5737 235.672 30.5237 236 27.9999C236.305 25.7463 236.96 23.2739 237 20.9999C237.058 18.8927 237.096 16.7088 237 14.9999C236.949 14.0748 237.071 13.803 237 12.9999C237.045 12.9999 237.955 9.21192 238 8.99991C238.532 6.57785 238.39 1.40689 236 -9.00179e-05C235.595 -0.215778 234.458 0.0324852 234 -9.00179e-05C233.543 -0.0326652 233.432 -0.156215 233 -9.00179e-05C232.569 0.156035 232.331 0.681864 232 0.99991C231.669 1.31796 231.175 1.5745 231 1.99991C230.193 3.77952 231.123 6.37449 232 7.99991C232.878 9.62533 236.231 11.4088 237 11.9999C237.058 12.8223 236.968 14.0234 237 14.9999C237.045 16.7024 237.077 18.8991 237 20.9999C237 21.5588 237.039 22.4153 237 22.9999C236.866 22.0041 236.032 20.1348 236 19.9999C235.36 17.6035 232.767 13.1348 230 12.9999C229.541 12.9892 229.424 13.8219 229 13.9999C228.576 14.1779 228.315 13.6642 228 13.9999C227.685 14.3356 227.151 15.5647 227 15.9999C226.849 16.4352 226.961 16.5407 227 16.9999C227.096 18.9273 228.469 20.9591 230 21.9999C231.531 23.0407 235.135 23.8457 236 23.9999C235.898 25.2848 236.231 26.6315 236 27.9999C235.623 30.4849 234.808 32.6203 234 34.9999C233.949 35.1413 234.051 34.865 234 34.9999C234 34.4988 234.032 32.1926 234 31.9999C233.629 29.5521 231.697 24.4432 229 23.9999C228.544 23.9384 227.442 24.8697 227 24.9999C226.559 25.1301 226.351 24.7005 226 24.9999C225.65 25.2993 225.199 25.5833 225 25.9999C224.802 26.4165 225.012 27.5384 225 27.9999C224.885 29.9273 226.591 31.7664 228 32.9999C229.621 34.3876 233.834 34.9485 234 34.9999C233.129 37.3473 232.169 39.7864 231 41.9999C230.142 43.6446 228.955 45.3745 228 46.9999C228 46.3575 228.026 44.2055 228 43.9999C227.629 41.5457 225.735 36.4432 223 35.9999C222.544 35.9394 221.441 35.8692 221 35.9999C220.559 36.1306 220.35 36.7006 220 36.9999C219.65 37.2992 219.198 37.5838 219 37.9999C218.802 38.416 219.012 39.539 219 39.9999C218.885 41.9273 220.597 43.7664 222 44.9999C223.582 46.3491 227.635 46.865 228 46.9999C227.565 47.7387 227.417 49.2675 227 49.9999C225.559 52.4091 224.358 54.5778 223 56.9999C222.526 57.8351 221.442 58.1583 221 58.9999C221 58.0169 221.019 56.1541 221 55.9999C220.629 53.5457 218.703 49.4432 216 48.9999C215.544 48.9394 215.441 48.8692 215 48.9999C214.559 49.1306 213.35 49.7006 213 49.9999C212.65 50.2992 212.198 50.5838 212 50.9999C211.802 51.416 212.012 51.539 212 51.9999C211.885 53.9273 213.597 55.7728 215 56.9999C216.403 58.227 219.975 59.698 221 59.9999C220.283 61.4069 219.609 62.5801 219 63.9999C218.757 64.6424 218.205 65.3896 218 65.9999C217.795 66.6102 218.205 67.4024 218 67.9999C217.603 69.2463 216.346 69.8242 216 70.9999C215.827 71.591 216.167 72.4217 216 72.9999C216.128 71.9977 216 70.1669 216 69.9999C216 67.52 214.633 62.8544 212 61.9999C211.559 61.87 211.456 61.9384 211 61.9999C210.544 62.0614 210.392 62.7575 210 62.9999C209.609 63.2423 209.259 62.6187 209 62.9999C208.741 63.3811 208.082 64.5459 208 64.9999C207.95 65.2366 208.005 64.758 208 64.9999C206.815 66.8315 206.142 69.8211 206 71.9999C206 72.1541 205.898 74.0362 206 74.9999C205.744 74.2418 205.25 72.7837 205 71.9999C204.622 70.8692 204.359 70.1692 204 68.9999C203.84 68.3575 204.16 67.6231 204 66.9999C203.84 66.3767 203.147 65.6359 203 64.9999C202.808 64.0748 203.154 62.9379 203 61.9999C204.172 61.6915 207.604 61.1306 209 59.9999C210.397 58.8692 212.058 56.9594 212 54.9999C211.998 54.5361 211.191 53.4222 211 52.9999C210.809 52.5776 211.347 52.3069 211 51.9999C210.654 51.6929 209.442 52.1378 209 51.9999C208.559 51.862 208.459 51.9446 208 51.9999C205.252 52.3597 203.449 56.5586 203 58.9999C203 59.0834 203.039 59.3767 203 59.9999C202.878 59.0555 202.09 57.97 202 56.9999C201.744 54.263 202.212 51.8203 202 48.9999C201.962 48.4153 201.039 47.5781 201 46.9999C201.987 46.7365 206.533 46.182 208 44.9999C209.467 43.8178 210.058 41.9594 210 39.9999C210.002 39.5383 210.186 38.4222 210 37.9999C209.814 37.5777 209.342 37.3096 209 36.9999C208.659 36.6903 208.438 36.1433 208 35.9999C207.563 35.8565 207.458 35.9521 207 35.9999C204.258 36.3597 201.449 41.5586 201 43.9999C201 44.0834 201.051 44.2996 201 44.9999C200.878 43.4837 201.186 41.4647 201 39.9999C200.692 37.4271 199.643 35.5098 199 32.9999C199.352 32.91 204.379 31.3105 206 29.9999C207.441 28.8435 209.051 26.9594 209 24.9999C209.01 24.5358 208.181 24.4272 208 23.9999C207.819 23.5727 208.34 23.3155 208 22.9999C207.661 22.6844 206.439 22.1484 206 21.9999C205.562 21.8514 205.461 21.9554 205 21.9999C202.258 22.3597 200.449 26.5586 200 28.9999C199.968 29.1734 199.026 31.184 199 31.9999C198.308 29.5499 198.119 27.2859 197 24.9999C196.017 22.9528 194.219 20.9154 193 18.9999C191.892 17.2075 191.012 16.3812 190 14.9999C189.449 14.2547 189.493 13.6231 189 12.9999C189.051 12.9999 188.077 9.19907 188 8.99991C187.116 6.68064 183.761 2.84572 181 2.99991C180.541 3.03748 180.404 2.77776 180 2.99991C179.596 3.22206 179.278 3.63187 179 3.99991C178.722 4.36795 178.104 4.55008 178 4.99991C177.896 5.44974 177.912 6.54664 178 6.99991C178.301 8.92728 180.373 10.1262 182 10.9999C183.627 11.8737 187.033 12.9357 188 12.9999C188.5 13.6424 189.436 14.2033 190 14.9999C190.974 16.4005 191.937 17.1946 193 18.9999C193.288 19.4818 193.712 20.4924 194 20.9999C193.36 20.2418 192.103 19.0899 192 18.9999C190.149 17.3552 185.37 15.5865 183 16.9999C182.611 17.2465 182.256 17.6161 182 17.9999C181.745 18.3837 182.078 18.5451 182 18.9999C181.922 19.4547 181.887 19.5526 182 19.9999C182.113 20.4472 182.716 21.6373 183 21.9999C184.16 23.5739 186.155 23.9742 188 23.9999C189.845 24.0256 193.225 22.379 194 21.9999C194.641 23.1371 195.436 23.7343 196 24.9999C197.051 27.2756 198.368 29.5736 199 31.9999C199.032 32.1348 198.962 32.8586 199 32.9999C198.738 32.5695 197.128 30.1413 197 29.9999C195.341 28.1561 190.524 25.8563 188 26.9999C187.586 27.2018 187.296 27.6466 187 27.9999C186.704 28.3532 187.127 28.5564 187 28.9999C186.873 29.4434 186.936 29.543 187 29.9999C187.064 30.4568 186.756 31.6088 187 31.9999C187.974 33.696 190.162 33.775 192 33.9999C194.108 34.2569 198.834 33.0577 199 32.9999C199.563 35.4424 199.757 37.5049 200 39.9999C200.192 41.8438 199.898 44.1175 200 45.9999C199.641 45.4538 198.122 43.1413 198 42.9999C196.341 41.1625 192.524 38.8563 190 39.9999C189.586 40.2012 189.297 40.6469 189 40.9999C188.704 41.353 188.128 41.5563 188 41.9999C187.873 42.4435 187.936 42.5427 188 42.9999C188.064 43.4571 188.756 44.6084 189 44.9999C189.98 46.696 192.168 46.775 194 46.9999C196.063 47.2569 199.635 46.1156 200 45.9999C200.045 46.8544 200.962 48.139 201 48.9999C201.128 51.801 200.808 54.263 201 56.9999C201.071 57.9636 200.904 59.0812 201 59.9999C200.443 59.1904 200.103 58.1156 200 57.9999C198.341 56.1625 193.524 52.8563 191 53.9999C190.586 54.201 190.297 54.6467 190 54.9999C189.704 55.3531 189.127 55.5561 189 55.9999C188.873 56.4437 188.935 57.5428 189 57.9999C189.065 58.457 189.755 58.609 190 58.9999C190.98 60.696 193.162 61.775 195 61.9999C196.839 62.2248 199.982 61.3083 201 60.9999Z" fill="#263238"/>
<path d="M195 21C195 21 198.713 18.7362 200 17C201.093 15.5173 202.582 12.8502 202 11C201.88 10.5604 201.293 10.3534 201 10C200.707 9.64664 200.414 9.20567 200 9C199.586 8.79433 199.464 9.02221 199 9C198.536 8.97779 197.433 8.83489 197 9C194.413 10.0582 193.787 15.5605 194 18C194.019 18.2154 194.955 21.0253 195 21Z" fill="#263238"/>
<path d="M76.0001 216C73.1227 215.467 69.2472 218.727 68.0001 221C67.8897 221.192 66.9482 224.993 67.0001 225C67.0521 225.006 71.8567 224.796 74.0001 224C75.8253 223.319 78.4155 221.958 79.0001 220C79.1534 219.544 79.0476 219.478 79.0001 219C78.9526 218.522 79.2402 218.418 79.0001 218C78.7601 217.582 78.3913 217.285 78.0001 217C77.609 216.715 76.4748 216.103 76.0001 216Z" fill="#263238"/>
<path d="M30.0001 264C30.1861 265.627 30.7114 267.418 31.0001 269C31.1412 269.679 31.8268 270.353 32.0001 271C32.1733 271.647 31.8461 272.359 32.0001 273C32.3722 274.313 32.6216 275.815 33.0001 277C33.1861 277.608 33.814 277.404 34.0001 278C33.5382 277.058 32.0642 276.141 32.0001 276C30.5823 273.854 26.7843 270.225 24.0001 271C23.541 271.141 23.3615 271.684 23.0001 272C22.6386 272.316 22.201 272.564 22.0001 273C21.7991 273.436 22.0056 273.52 22.0001 274C21.9945 274.48 21.8092 275.56 22.0001 276C22.7442 277.922 25.1396 278.475 27.0001 279C29.0466 279.57 33.474 279.083 34.0001 279C34.3208 279.986 34.6921 281.071 35.0001 282H37.0001C36.6408 281.035 36.3636 280.046 36.0001 279C36.5069 278.789 39.4411 277.518 41.0001 276C42.2411 276.761 43.6772 277.392 45.0001 278C44.5831 279.467 44.3401 280.655 44.0001 282C44.0001 282.038 44.0001 281.962 44.0001 282H46.0001C46.2631 280.86 46.6857 279.223 47.0001 278C47.5582 278.102 51.96 279.512 54.0001 279C55.8669 278.532 58.2046 276.877 59.0001 275C59.2034 274.566 58.9915 274.479 59.0001 274C59.0087 273.521 59.1877 273.441 59.0001 273C58.8125 272.559 58.3513 271.326 58.0001 271C57.6488 270.673 57.4541 271.155 57.0001 271C54.2415 270.142 49.4692 272.893 48.0001 275C47.9038 275.141 47.462 277.11 47.0001 278C47.2054 277.199 47.7691 275.826 48.0001 275C48.3208 273.802 48.6408 273.211 49.0001 272V270C49.2054 269.359 49.7627 268.628 50.0001 268C50.3722 267.084 50.5766 265.922 51.0001 265C52.1997 265.397 56.1396 267.166 58.0001 267C59.8605 266.833 61.9287 265.729 63.0001 264C63.2674 263.6 63.92 263.474 64.0001 263C64.0802 262.526 64.1212 261.465 64.0001 261C63.8789 260.535 63.3013 260.375 63.0001 260C62.6988 259.625 62.4286 259.219 62.0001 259C59.4339 257.719 54.79 260.149 53.0001 262C52.9423 262.064 52.3914 262.481 52.0001 263C52.4427 262.11 53.5189 261.89 54.0001 261C55.3473 258.483 56.5566 255.536 58.0001 253C58.3016 252.475 58.705 251.532 59.0001 251C60.0137 251.346 63.0498 253.179 65.0001 253C66.9503 252.821 69.9287 251.729 71.0001 250C71.2664 249.6 70.9205 249.474 71.0001 249C71.0796 248.526 71.1212 247.465 71.0001 247C70.879 246.535 71.3007 246.375 71.0001 246C70.6994 245.625 70.4279 245.22 70.0001 245C67.4339 243.719 62.79 246.149 61.0001 248C60.9359 248.064 60.4427 248.417 60.0001 249C60.7699 247.61 61.3008 246.409 62.0001 245C63.2084 242.595 64.1192 240.543 65.0001 238C65.3529 238.122 69.8317 239.199 72.0001 239C73.9247 238.821 75.9223 238.736 77.0001 237C77.2653 236.6 77.9211 235.473 78.0001 235C78.079 234.527 78.1211 234.464 78.0001 234C77.879 233.536 77.3001 233.374 77.0001 233C76.7 232.625 76.4269 232.22 76.0001 232C73.4018 230.719 68.7835 233.149 67.0001 235C66.8718 235.128 65.494 237.315 65.0001 238C65.0146 237.972 64.9933 237.031 65.0001 237C65.8038 234.482 66.6599 232.621 67.0001 230C67.3174 227.664 66.9585 225.357 67.0001 223C67.0642 220.809 67.0963 218.774 67.0001 217C66.9487 216.039 67.0706 214.82 67.0001 214C67.045 214 67.9552 211.218 68.0001 211C68.5582 208.483 68.4956 202.473 66.0001 201C65.5789 200.769 65.479 201.039 65.0001 201C64.5212 200.961 63.4534 200.841 63.0001 201C62.5467 201.159 62.3491 201.67 62.0001 202C61.651 202.33 61.1841 202.557 61.0001 203C60.1532 204.851 61.0891 207.303 62.0001 209C62.911 210.697 66.1981 213.379 67.0001 214C67.0578 214.852 66.968 215.994 67.0001 217C67.045 218.774 67.077 220.822 67.0001 223C67.0001 223.583 67.0386 223.391 67.0001 224C66.8589 222.962 67.0386 222.109 67.0001 222C66.3585 219.508 62.887 215.134 60.0001 215C59.52 214.99 59.4426 214.814 59.0001 215C58.5575 215.186 58.3285 215.65 58.0001 216C57.6716 216.35 57.1576 216.547 57.0001 217C56.8425 217.453 56.9595 218.522 57.0001 219C57.1027 221.03 58.4026 222.911 60.0001 224C61.5975 225.089 66.0827 225.865 67.0001 226C66.8846 227.339 66.2374 228.578 66.0001 230C65.604 232.582 65.8419 234.527 65.0001 237C64.9487 237.141 64.0514 237.859 64.0001 238C64.0001 237.475 64.0321 234.199 64.0001 234C63.6087 231.438 61.8549 226.442 59.0001 226C58.5259 225.94 57.4579 226.863 57.0001 227C56.5422 227.137 56.3628 226.689 56.0001 227C55.6374 227.311 55.2052 227.569 55.0001 228C54.7949 228.431 55.0124 229.523 55.0001 230C54.8782 232.03 56.5309 233.751 58.0001 235C59.6873 236.441 63.8333 237.949 64.0001 238C63.0875 240.439 62.2237 242.7 61.0001 245C60.1083 246.71 58.9944 248.283 58.0001 250C58.0001 249.321 58.0321 247.192 58.0001 247C57.6151 244.438 55.8549 239.448 53.0001 239C52.5259 238.94 51.4579 238.863 51.0001 239C50.5422 239.137 50.3628 239.689 50.0001 240C49.6374 240.311 49.2052 240.569 49.0001 241C48.7949 241.431 49.0124 241.523 49.0001 242C48.8782 244.03 50.5309 245.751 52.0001 247C53.6488 248.409 57.6151 249.891 58.0001 250C57.5446 250.769 57.4556 252.238 57.0001 253C55.4989 255.504 54.4179 257.489 53.0001 260C52.5061 260.871 51.4556 262.129 51.0001 263C51.0001 261.982 51.0257 260.16 51.0001 260C50.6151 257.438 47.8549 252.448 45.0001 252C44.5261 251.941 44.4575 251.862 44.0001 252C43.5427 252.137 43.3625 252.689 43.0001 253C42.6376 253.311 42.2056 253.569 42.0001 254C41.7946 254.431 42.0134 254.523 42.0001 255C41.8846 257.03 43.5309 259.751 45.0001 261C46.4692 262.249 49.9351 262.686 51.0001 263C50.2559 264.46 49.6352 266.52 49.0001 268C48.7435 268.64 48.2118 269.359 48.0001 270L47.0001 271C46.5831 272.281 46.3593 273.783 46.0001 275C45.814 275.64 46.1733 276.398 46.0001 277C46.1348 275.956 46.0001 274.154 46.0001 274C46.0001 271.438 44.7523 266.884 42.0001 266C41.5398 265.865 40.4756 265.936 40.0001 266C39.5246 266.064 39.4081 265.748 39.0001 266C38.592 266.252 38.2696 266.604 38.0001 267C37.7305 267.396 37.0842 267.528 37.0001 268C36.9445 268.248 37.0042 268.746 37.0001 269C35.762 270.9 35.1501 272.738 35.0001 275C35.0001 275.166 34.8974 278.001 35.0001 279C34.7306 278.219 35.2631 276.82 35.0001 276C34.6087 274.828 33.3722 274.211 33.0001 273C32.8333 272.359 33.1733 271.64 33.0001 271C32.8268 270.359 32.1476 269.64 32.0001 269C31.8012 268.033 32.154 267.006 32.0001 266C33.219 265.68 36.5438 264.166 38.0001 263C39.4564 261.834 41.0578 260.037 41.0001 258C41.0026 257.52 41.1935 257.439 41.0001 257C40.8066 256.561 40.356 256.322 40.0001 256C39.6442 255.678 39.4566 255.149 39.0001 255C38.5436 254.851 37.4778 254.95 37.0001 255C34.1324 255.378 32.4684 259.463 32.0001 262C32.0001 262.077 32.045 262.359 32.0001 263C31.8782 262.014 31.0963 260.999 31.0001 260C30.737 257.156 31.1989 254.895 31.0001 252C30.9616 251.391 31.0386 250.608 31.0001 250C32.0265 249.731 35.486 248.223 37.0001 247C38.5141 245.777 40.0578 244.037 40.0001 242C40.0016 241.521 40.1939 241.438 40.0001 241C39.8063 240.561 39.3557 240.322 39.0001 240C38.6444 239.678 38.4561 239.15 38.0001 239C37.544 238.85 36.4776 238.951 36.0001 239C33.1324 239.378 30.462 243.463 30.0001 246C30.0001 246.09 30.045 247.27 30.0001 248C29.8718 246.424 30.1989 244.556 30.0001 243C29.685 240.326 28.6761 237.606 28.0001 235C28.3657 234.91 33.3064 234.332 35.0001 233C36.5077 231.796 38.0642 229.037 38.0001 227C38.0025 226.521 38.1931 226.438 38.0001 226C37.807 225.561 37.3552 225.322 37.0001 225C36.6449 224.678 36.4558 224.15 36.0001 224C35.5444 223.85 34.4773 223.951 34.0001 224C31.1324 224.378 29.462 229.463 29.0001 232C28.9616 232.179 28.0257 234.18 28.0001 235C28.0001 234.968 28.0001 235.026 28.0001 235C27.2778 232.454 26.1644 229.377 25.0001 227C23.9662 224.821 23.2865 223.04 22.0001 221C20.8453 219.136 20.0522 217.435 19.0001 216C18.4291 215.225 17.5069 214.647 17.0001 214C17.0578 214 16.0835 210.205 16.0001 210C15.0763 207.592 11.887 203.84 9.00006 204C8.5217 204.04 8.42078 203.769 8.00006 204C7.57935 204.231 7.2904 204.618 7.00006 205C6.70973 205.382 6.10984 206.533 6.00006 207C5.89029 207.467 5.91029 207.529 6.00006 208C6.32083 210.011 8.29999 212.097 10.0001 213C11.7001 213.903 15.9864 213.942 17.0001 214C17.5197 214.679 17.4099 215.18 18.0001 216C19.0137 217.454 20.8902 219.117 22.0001 221C22.3016 221.5 22.6985 222.468 23.0001 223C22.3136 222.212 21.1027 221.07 21.0001 221C19.0755 219.29 14.4892 216.527 12.0001 218C11.5937 218.255 11.267 218.601 11.0001 219C10.7331 219.398 10.0812 220.527 10.0001 221C9.91897 221.472 9.88126 221.535 10.0001 222C10.1189 222.464 10.702 222.624 11.0001 223C12.2126 224.64 14.0755 225.974 16.0001 226C17.9247 226.026 22.1597 224.365 23.0001 224C23.6416 225.179 24.4099 225.687 25.0001 227C26.0957 229.371 27.3371 232.474 28.0001 235C28.0001 235.147 27.968 234.853 28.0001 235C27.7242 234.558 26.1348 232.147 26.0001 232C24.2679 230.078 19.6368 227.815 17.0001 229C16.5684 229.21 16.3089 229.633 16.0001 230C15.6913 230.367 15.1325 230.539 15.0001 231C14.8676 231.461 14.9333 231.525 15.0001 232C15.0668 232.475 14.7456 233.593 15.0001 234C16.0265 235.761 19.0819 236.737 21.0001 237C23.2005 237.269 27.814 235.064 28.0001 235C28.5948 237.531 28.7403 240.413 29.0001 243C29.1989 244.922 29.891 247.021 30.0001 249C29.628 248.423 27.1412 246.147 27.0001 246C25.2679 244.078 21.6368 241.809 19.0001 243C18.5679 243.208 17.3094 242.633 17.0001 243C16.6907 243.366 17.1327 244.539 17.0001 245C16.8675 245.461 16.9328 245.525 17.0001 246C17.0673 246.475 16.7447 246.594 17.0001 247C18.0201 248.761 21.0883 249.731 23.0001 250C25.1556 250.263 29.6216 249.141 30.0001 249C30.045 249.89 29.9616 251.11 30.0001 252C30.1348 254.908 29.7948 257.124 30.0001 260C30.0706 260.993 29.8974 262.02 30.0001 263C29.4163 262.161 29.1091 261.115 29.0001 261C27.2679 259.078 22.6368 255.815 20.0001 257C19.5621 257.206 19.3146 257.633 19.0001 258C18.6856 258.367 18.1354 259.536 18.0001 260C17.8648 260.464 17.9322 260.521 18.0001 261C18.0679 261.478 17.7411 261.592 18.0001 262C19.0201 263.768 22.0883 264.763 24.0001 265C25.9118 265.237 28.9415 264.32 30.0001 264Z" fill="#263238"/>
<path d="M24.0001 224C24.0001 224 27.7039 221.884 29.0001 220C30.0978 218.399 31.5769 216.016 31.0001 214C30.88 213.523 30.2927 212.383 30.0001 212C29.7075 211.617 29.4144 211.223 29.0001 211C28.5858 210.777 28.464 211.024 28.0001 211C27.5361 210.976 26.433 210.821 26.0001 211C23.4201 212.153 22.7892 217.358 23.0001 220C23.0063 220.237 23.9567 224.026 24.0001 224Z" fill="#263238"/>
<path d="M127 53H279V232C279 233.589 278.13 234.876 277 236C275.87 237.124 274.598 238 273 238H133C131.402 238 130.13 237.124 129 236C127.87 234.876 127 233.589 127 232V53Z" fill="#263238" stroke="#263238" stroke-width="0.639451" stroke-linecap="round" stroke-linejoin="round"/>
<path d="M124 50H276V229C276 230.589 275.13 231.876 274 233C272.87 234.124 271.598 235 270 235H130C128.402 235 127.13 234.124 126 233C124.87 231.876 124 230.589 124 229V50Z" fill="white" stroke="#263238" stroke-width="0.639451" stroke-miterlimit="10"/>
<path d="M270 50V235C271.505 235 272.936 234.043 274 233C275.064 231.957 276 230.476 276 229V50H270Z" fill="white" stroke="#263238" stroke-width="0.639451" stroke-miterlimit="10"/>
<path d="M276 99H270V137H276V99Z" fill="white" stroke="#263238" stroke-width="0.639451" stroke-miterlimit="10"/>
<path d="M276 50H124V63H276V50Z" fill="#263238" stroke="#263238" stroke-width="0.639451" stroke-miterlimit="10"/>
<path d="M259 56.9999C259.001 56.6041 259.219 56.3297 259 55.9999C258.781 55.6701 258.365 55.1523 258 54.9999C257.635 54.8475 257.388 54.9235 257 54.9999C256.612 55.0763 256.28 55.7205 256 55.9999C255.72 56.2794 255.078 56.6118 255 56.9999C254.922 57.3881 254.849 57.6341 255 57.9999C255.151 58.3658 255.671 58.7799 256 58.9999C256.329 59.22 256.604 58.9999 257 58.9999C257.529 58.9999 257.625 58.3735 258 57.9999C258.375 57.6263 258.998 57.5292 259 56.9999Z" fill="white" stroke="#263238" stroke-width="0.639451" stroke-miterlimit="10"/>
<path d="M263 59C264.105 59 265 58.1046 265 57C265 55.8954 264.105 55 263 55C261.895 55 261 55.8954 261 57C261 58.1046 261.895 59 263 59Z" fill="white" stroke="#263238" stroke-width="0.639451" stroke-miterlimit="10"/>
<path d="M269 59C270.105 59 271 58.1046 271 57C271 55.8954 270.105 55 269 55C267.895 55 267 55.8954 267 57C267 58.1046 267.895 59 269 59Z" fill="white" stroke="#263238" stroke-width="0.639451" stroke-miterlimit="10"/>
<path d="M193 196C179.155 187.706 167.661 177.497 160 166C154.13 157.189 152.313 151.238 152 150V148V89L200 69L247 89V148V150C246.699 151.219 244.877 157.17 239 166C231.326 177.484 219.864 187.7 206 196L200 200L193 196Z" fill="#CFCFCF" stroke="white" stroke-width="0.639451" stroke-linecap="round" stroke-linejoin="round"/>
<path d="M196 191C164.745 172.175 158.237 148.963 158 148V94L199 76L240 94V148C239.763 148.963 233.249 172.175 202 191L199 193L196 191Z" fill="white"/>
<path d="M200 84L165 98V147C165 147 170.689 168.366 200 186C229.311 168.347 234 147 234 147V98L200 84Z" fill="#318FFF"/>
<path d="M216.403 141.945C225.985 132.392 225.985 117.608 216.403 108.055C206.821 98.5009 191.286 97.7948 181.704 107.348C172.122 116.902 172.122 133.098 181.704 142.652C191.286 152.205 206.821 151.499 216.403 141.945Z" fill="white"/>
<path d="M208.867 117.893C210.143 112.804 207.413 108.256 202.322 106.988C197.231 105.719 191.707 108.211 190.431 113.3C189.156 118.389 192.612 124.149 197.703 125.418C202.794 126.686 207.592 122.983 208.867 117.893Z" fill="#263238"/>
<path d="M199 150C205.332 150.009 211.419 147.392 216 143C215.505 138.819 213.133 134.796 210 132C206.867 129.204 203.191 128 199 128C194.809 128 191.133 129.204 188 132C184.867 134.796 182.495 138.819 182 143C186.579 147.391 192.67 150.007 199 150Z" fill="#263238"/>
<path opacity="0.19" d="M206 196C219.99 187.705 231.258 177.498 239 166C244.939 157.188 246.683 151.238 247 150V148V89L199 69V200L206 196Z" fill="black"/>
<path d="M142 224V208H146C146.809 207.962 147.287 208.62 148 209C148.576 209.356 149.756 209.373 150 210C150.284 210.765 150.022 211.185 150 212C150.018 212.754 150.314 214.312 150 215C149.727 215.599 148.574 215.668 148 216C147.326 216.356 146.764 217.027 146 217H144V224H142ZM144 215H145C145.521 215.018 146.505 215.163 147 215C147.179 214.934 146.862 214.131 147 214C147.138 213.869 147.926 214.174 148 214C148.18 213.511 148.021 212.52 148 212C148.017 211.409 148.13 211.577 148 211C147.953 210.815 147.123 210.147 147 210C146.877 209.853 147.175 210.081 147 210C146.461 209.814 145.57 209.972 145 210H144V215Z" fill="#263238"/>
<path d="M151 224V208H154C154.877 207.973 156.175 207.692 157 208C157.649 208.253 157.672 209.372 158 210C158.356 210.765 159.034 211.153 159 212C159.007 212.569 159.136 213.448 159 214C158.888 214.473 158.302 214.625 158 215C157.706 215.355 157.433 215.858 157 216L159 224H157L155 216H153V224H151ZM153 215H154C154.511 215.016 155.518 215.173 156 215C156.375 214.853 155.831 214.373 156 214C156.204 213.494 157.026 212.546 157 212C157.06 211.287 156.385 210.597 156 210C155.667 209.588 154.987 210 154 210H153V215Z" fill="#263238"/>
<path d="M162 224V208H164V224H162Z" fill="#263238"/>
<path d="M170 224L166 208H168L171 220L173 208H175L171 224H170Z" fill="#263238"/>
<path d="M175 224L178 208H181L184 224H182L181 220H178L177 224H175ZM178 218H181L179 211L178 218Z" fill="#263238"/>
<path d="M189 224C188.106 224.058 187.745 223.508 187 223C186.397 222.523 185.199 221.752 185 221C184.761 220.144 184.99 219.89 185 219V213C184.985 212.066 184.756 210.9 185 210C185.197 209.264 186.397 209.45 187 209C187.759 208.529 188.114 207.94 189 208C189.795 207.957 190.305 208.602 191 209C191.572 209.358 192.771 209.356 193 210C193.264 210.777 193.019 212.178 193 213V214H191V213C191.003 212.487 191.061 211.509 191 211C190.971 210.609 190.27 210.277 190 210C189.639 209.717 189.453 209.956 189 210C188.524 209.958 188.379 209.702 188 210C187.701 210.301 187.049 210.574 187 211C186.913 211.559 186.995 212.433 187 213V219C186.979 219.637 186.852 220.38 187 221C187.08 221.393 187.683 221.763 188 222C188.356 222.209 188.59 222.019 189 222C189.222 222.02 189.788 222.068 190 222C190.212 221.932 189.83 222.146 190 222C190.268 221.697 190.963 221.406 191 221C191.072 220.462 191.006 219.542 191 219V218H193V219C193.014 219.855 193.243 221.182 193 222C192.807 222.685 191.564 222.58 191 223C190.29 223.428 189.822 224.066 189 224Z" fill="#263238"/>
<path d="M197 224V218L194 208H196L199 216L201 208H203L200 218V224H197Z" fill="#263238"/>
<path d="M209 224V208H213C213.809 207.96 214.288 208.618 215 209C215.58 209.353 216.756 209.371 217 210C217.284 210.765 217.022 211.185 217 212C217.018 212.754 217.314 214.312 217 215C216.723 215.597 215.571 215.665 215 216C214.326 216.355 213.764 217.026 213 217H211V224H209ZM211 215H212C212.521 215.018 213.505 215.163 214 215C214.179 214.933 213.862 214.131 214 214C214.138 213.869 214.926 214.174 215 214C215.178 213.511 215.023 212.519 215 212C215.021 211.409 215.133 211.576 215 211C214.957 210.814 214.122 210.147 214 210C213.878 209.852 214.176 210.078 214 210C213.46 209.815 212.57 209.972 212 210H211V215Z" fill="#263238"/>
<path d="M222 224C221.072 224.04 220.799 223.453 220 223C219.33 222.582 218.246 222.727 218 222C217.697 221.13 217.982 219.916 218 219V213C217.978 212.095 217.689 210.855 218 210C218.261 209.295 219.339 209.4 220 209C220.808 208.571 222.077 207.955 223 208C223.925 207.951 224.197 208.559 225 209C225.652 209.404 226.738 209.301 227 210C227.308 210.853 227.023 212.098 227 213V219C227.02 219.908 227.305 221.14 227 222C226.742 222.719 225.657 222.57 225 223C224.199 223.458 222.933 224.05 222 224ZM222 222C222.491 222.033 223.595 222.266 224 222C224.321 221.741 224.913 221.392 225 221C225.113 220.5 225.007 219.512 225 219V213C225.008 212.494 225.114 211.494 225 211C224.913 210.618 224.32 210.244 224 210C223.577 209.776 222.484 210 222 210C221.516 210 221.423 209.776 221 210C220.663 210.234 220.089 210.611 220 211C219.886 211.494 219.992 212.494 220 213V219C219.993 219.512 219.887 220.5 220 221C220.089 221.399 220.661 221.751 221 222C221.405 222.266 221.509 222.033 222 222Z" fill="#263238"/>
<path d="M229 224V208H231V222H235V224H229Z" fill="#263238"/>
<path d="M237 224V208H239V224H237Z" fill="#263238"/>
<path d="M246 224C245.106 224.058 244.745 223.508 244 223C243.397 222.523 242.199 221.752 242 221C241.758 220.145 241.987 219.89 242 219V213C241.982 212.066 241.753 210.899 242 210C242.197 209.264 243.397 209.45 244 209C244.759 208.529 245.114 207.94 246 208C246.795 207.957 247.306 208.602 248 209C248.572 209.358 249.771 209.356 250 210C250.264 210.777 250.019 212.178 250 213V214H248V213C248.003 212.487 248.061 211.509 248 211C247.971 210.609 247.271 210.277 247 210C246.639 209.717 246.453 209.956 246 210C245.524 209.958 245.379 209.702 245 210C244.701 210.301 244.05 210.574 244 211C243.913 211.559 243.995 212.433 244 213V219C243.979 219.637 243.852 220.38 244 221C244.08 221.393 244.683 221.763 245 222C245.356 222.209 245.59 222.019 246 222C246.222 222.02 246.788 222.068 247 222C247.212 221.932 246.83 222.146 247 222C247.268 221.697 247.963 221.406 248 221C248.072 220.462 248.006 219.542 248 219V218H250V219C250.014 219.855 250.244 221.182 250 222C249.809 222.687 248.569 222.584 248 223C247.293 223.429 246.82 224.067 246 224Z" fill="#263238"/>
<path d="M254 224V218L251 208H253L256 216L258 208H260L257 218V224H254Z" fill="#263238"/>
<path d="M0 282H285.955" stroke="#263238" stroke-width="0.639451" stroke-miterlimit="10"/>
<path d="M115.627 195.064C116.216 195.098 116.796 194.913 117.256 194.546C117.717 194.179 118.026 193.654 118.123 193.074C118.221 192.493 118.1 191.897 117.785 191.4C117.47 190.902 116.982 190.539 116.415 190.379C116.769 189.99 116.991 189.499 117.047 188.976C117.103 188.454 116.992 187.926 116.728 187.472C116.464 187.017 116.062 186.658 115.58 186.446C115.098 186.235 114.561 186.183 114.047 186.297C114.002 185.784 113.825 185.292 113.532 184.869C113.239 184.445 112.842 184.105 112.378 183.882C111.914 183.658 111.399 183.559 110.885 183.594C110.371 183.629 109.875 183.796 109.446 184.081C108.846 183.636 108.115 183.406 107.368 183.427C106.622 183.447 105.904 183.718 105.33 184.194C104.825 184.124 104.311 184.219 103.863 184.463C103.416 184.707 103.059 185.089 102.845 185.551C102.632 186.014 102.572 186.533 102.677 187.031C102.781 187.53 103.042 187.982 103.423 188.321" fill="#263238"/>
<path d="M115.989 195.385C115.67 192.856 114.409 190.54 112.456 188.898C110.504 187.257 108.003 186.411 105.454 186.529L104.929 186.554C99.2878 187.148 96.638 192.264 97.3908 197.884L99.0897 216.684L99.5355 221.112L112.358 219.598L112.116 214.804C112.116 214.804 117.514 213.706 117.326 208.268C117.237 205.646 116.613 200.254 115.989 195.385Z" fill="#EBAE89"/>
<path d="M112.16 214.794C109.635 214.913 107.128 214.305 104.939 213.042C104.939 213.042 106.796 216.872 112.2 216.13L112.16 214.794Z" fill="#AA6550"/>
<path d="M114.791 200.383C114.802 200.584 114.734 200.782 114.602 200.934C114.47 201.087 114.284 201.182 114.083 201.199C113.984 201.212 113.884 201.204 113.788 201.178C113.692 201.151 113.603 201.105 113.525 201.043C113.447 200.982 113.382 200.905 113.335 200.818C113.287 200.731 113.257 200.635 113.246 200.536C113.235 200.334 113.304 200.135 113.437 199.983C113.57 199.83 113.757 199.736 113.959 199.719C114.057 199.706 114.158 199.713 114.253 199.74C114.349 199.766 114.438 199.812 114.516 199.874C114.594 199.936 114.658 200.013 114.705 200.1C114.752 200.188 114.781 200.284 114.791 200.383Z" fill="#263238"/>
<path d="M114.944 198.096C114.85 198.2 114.246 197.795 113.409 197.834C112.572 197.874 111.977 198.329 111.883 198.225C111.789 198.121 111.928 197.992 112.185 197.79C112.535 197.521 112.959 197.367 113.399 197.349C113.834 197.327 114.264 197.445 114.627 197.686C114.895 197.869 114.989 198.047 114.944 198.096Z" fill="#263238"/>
<path d="M107.183 200.773C107.193 200.975 107.124 201.173 106.991 201.325C106.858 201.478 106.671 201.572 106.47 201.59C106.371 201.603 106.271 201.595 106.176 201.568C106.08 201.542 105.99 201.496 105.913 201.434C105.835 201.372 105.77 201.296 105.722 201.209C105.674 201.122 105.644 201.026 105.634 200.927C105.624 200.725 105.693 200.527 105.826 200.375C105.958 200.223 106.145 200.128 106.346 200.11C106.445 200.098 106.545 200.105 106.641 200.132C106.737 200.159 106.826 200.204 106.904 200.266C106.982 200.328 107.047 200.404 107.095 200.492C107.142 200.579 107.173 200.675 107.183 200.773Z" fill="#263238"/>
<path d="M106.737 198.636C106.643 198.74 106.034 198.334 105.202 198.373C104.37 198.413 103.77 198.868 103.676 198.764C103.582 198.66 103.721 198.532 103.978 198.324C104.329 198.059 104.753 197.908 105.192 197.889C105.627 197.867 106.057 197.985 106.42 198.225C106.688 198.403 106.782 198.586 106.737 198.636Z" fill="#263238"/>
<path d="M110.06 204.682C110.494 204.526 110.944 204.423 111.402 204.375C111.615 204.345 111.818 204.291 111.848 204.147C111.854 203.925 111.793 203.707 111.675 203.519C111.447 203.024 111.214 202.485 110.967 201.926C109.976 199.655 109.258 197.785 109.352 197.745C109.446 197.706 110.342 199.516 111.298 201.787L111.982 203.39C112.126 203.642 112.179 203.936 112.13 204.221C112.104 204.298 112.059 204.368 112.001 204.424C111.942 204.481 111.871 204.523 111.794 204.548C111.677 204.588 111.555 204.611 111.432 204.617C110.98 204.698 110.518 204.72 110.06 204.682Z" fill="#263238"/>
<path d="M106.916 195.994C106.817 196.212 106.089 195.994 105.207 196.029C104.325 196.063 103.587 196.222 103.493 196.029C103.454 195.925 103.602 195.732 103.914 195.534C104.313 195.31 104.764 195.194 105.222 195.197C105.676 195.189 106.125 195.304 106.519 195.529C106.822 195.697 106.96 195.89 106.916 195.994Z" fill="#263238"/>
<path d="M114.825 194.653C114.656 194.851 113.958 194.683 113.126 194.713C112.294 194.742 111.601 194.916 111.432 194.713C111.353 194.619 111.432 194.426 111.754 194.218C112.166 193.973 112.637 193.843 113.116 193.842C113.593 193.824 114.067 193.933 114.488 194.159C114.79 194.366 114.894 194.554 114.825 194.653Z" fill="#263238"/>
<path d="M115.35 192.916C115.35 192.916 113.755 189.582 112.076 188.865C110.041 187.999 109.288 190.215 107.371 189.775C105.454 189.335 103.508 188.503 101.641 190.057C99.6001 191.754 100.65 192.832 100.625 195.247C100.551 205.043 98.8967 207.892 98.1488 203.311C98.0696 202.816 96.663 202.475 96.346 200.343C95.9448 197.592 95.6823 194.242 96.2073 192.253C96.6531 190.576 97.5396 189.394 99.1791 188.053C101.755 185.946 105.42 185.728 107.926 185.866C110.432 186.005 115.375 188.647 115.35 192.916Z" fill="#263238"/>
<path d="M98.5101 203.148C98.4929 202.949 98.4359 202.756 98.3425 202.58C98.2491 202.404 98.1212 202.249 97.9663 202.123C97.8115 201.997 97.6329 201.904 97.4413 201.849C97.2497 201.794 97.0489 201.778 96.8509 201.802C95.8603 201.945 94.7409 202.574 94.9044 204.661C95.1966 208.372 98.8667 207.313 98.8667 207.204C98.8667 207.096 98.6488 204.696 98.5101 203.148Z" fill="#EBAE89"/>
<path d="M97.9405 205.874C97.9405 205.874 97.881 205.923 97.777 205.983C97.7021 206.024 97.6196 206.05 97.5345 206.058C97.4493 206.067 97.3634 206.058 97.2817 206.032C97.0304 205.899 96.8191 205.701 96.6694 205.46C96.5197 205.218 96.437 204.941 96.4298 204.657C96.3962 204.339 96.4334 204.018 96.5388 203.717C96.5642 203.598 96.618 203.488 96.6956 203.395C96.7733 203.302 96.8725 203.229 96.9846 203.183C97.0576 203.157 97.1371 203.158 97.2094 203.185C97.2818 203.213 97.3424 203.264 97.3808 203.331C97.4402 203.43 97.4204 203.504 97.4402 203.509C97.4601 203.514 97.5145 203.44 97.4749 203.291C97.4471 203.201 97.3895 203.122 97.3115 203.069C97.2023 203.001 97.0708 202.977 96.945 203.004C96.7955 203.048 96.6595 203.128 96.5495 203.238C96.4395 203.348 96.3592 203.483 96.3159 203.633C96.1838 203.966 96.1345 204.326 96.1723 204.682C96.2565 205.429 96.6924 206.097 97.2421 206.21C97.3441 206.231 97.4495 206.23 97.5506 206.205C97.6517 206.18 97.746 206.133 97.8266 206.067C97.9454 205.963 97.9553 205.879 97.9405 205.874Z" fill="#AA6550"/>
<path d="M98.2282 195.93C98.7016 196.278 99.2551 196.503 99.8379 196.583C100.129 196.613 100.421 196.537 100.661 196.368C100.9 196.2 101.07 195.951 101.14 195.667C101.175 195.405 101.096 195.108 101.254 194.901C101.413 194.693 101.824 194.713 102.141 194.732C102.686 194.749 103.221 194.577 103.655 194.247C104.088 193.916 104.395 193.446 104.523 192.917C104.698 193.094 104.933 193.199 105.182 193.211C105.431 193.223 105.675 193.141 105.866 192.981C106.236 192.651 106.56 192.271 106.826 191.853C106.961 191.643 107.146 191.47 107.363 191.348C107.581 191.227 107.825 191.16 108.075 191.155C108.341 191.23 108.615 191.277 108.892 191.294C109.387 191.23 109.59 190.646 109.64 190.156C109.689 189.666 109.719 189.102 110.135 188.82C110.551 188.538 111.012 188.677 111.467 188.721C111.923 188.766 112.493 188.632 112.587 188.192C112.601 188.073 112.591 187.952 112.557 187.837C112.523 187.722 112.466 187.616 112.388 187.524C112.065 187.09 111.605 186.777 111.082 186.637C110.559 186.496 110.004 186.535 109.506 186.747C109.293 186.138 108.905 185.605 108.389 185.216C107.874 184.827 107.254 184.6 106.609 184.562C105.965 184.524 105.323 184.679 104.766 185.005C104.208 185.331 103.76 185.815 103.478 186.396C103.066 186.054 102.576 185.817 102.052 185.705C101.527 185.593 100.984 185.611 100.467 185.755C99.9511 185.9 99.4776 186.167 99.0876 186.535C98.6975 186.902 98.4026 187.359 98.2282 187.865C97.7693 187.774 97.2935 187.818 96.8592 187.992C96.4249 188.166 96.0509 188.463 95.7828 188.846C95.5148 189.229 95.3644 189.682 95.3501 190.149C95.3358 190.617 95.4581 191.078 95.7022 191.477C95.3647 191.664 95.0804 191.934 94.8759 192.261C94.6715 192.588 94.5536 192.962 94.5333 193.347C94.5333 194.119 95.3406 194.831 96.0737 194.614C95.9403 194.923 95.9294 195.272 96.0431 195.589C96.1569 195.906 96.3869 196.168 96.6867 196.323C96.9865 196.477 97.3338 196.512 97.6585 196.421C97.9832 196.33 98.2611 196.119 98.4362 195.831" fill="#263238"/>
<path d="M109.837 187.845C109.841 187.868 109.841 187.892 109.837 187.915C109.843 187.981 109.843 188.047 109.837 188.113C109.802 188.367 109.723 188.612 109.604 188.84C109.415 189.202 109.146 189.517 108.817 189.76C108.388 190.081 107.867 190.255 107.331 190.255L107.391 190.166C107.519 190.499 107.51 190.869 107.366 191.195C107.216 191.538 107.016 191.856 106.771 192.14C106.655 192.301 106.522 192.45 106.375 192.585C106.109 192.78 105.782 192.874 105.453 192.851C105.123 192.827 104.813 192.687 104.577 192.456L104.716 192.412C104.682 192.8 104.567 193.176 104.378 193.517C104.19 193.858 103.932 194.156 103.621 194.391C103.282 194.668 102.861 194.828 102.423 194.846C102.008 194.846 101.596 194.776 101.204 194.638L101.303 194.589C101.134 195.049 100.849 195.457 100.476 195.776C100.307 195.935 100.105 196.055 99.884 196.127C99.663 196.199 99.4289 196.221 99.1984 196.192C98.8036 196.126 98.4367 195.946 98.1429 195.674C97.849 195.402 97.6409 195.051 97.5442 194.663L97.6333 194.698C97.2519 194.924 96.8039 195.011 96.3654 194.945C96.0371 194.902 95.7242 194.78 95.4541 194.589C95.2837 194.473 95.136 194.327 95.0182 194.158C94.978 194.099 94.9432 194.036 94.9142 193.97C95.0732 194.19 95.2673 194.382 95.4887 194.539C95.7561 194.711 96.0594 194.82 96.3753 194.856C96.7919 194.908 97.214 194.82 97.5739 194.604L97.6383 194.559V194.638C97.7344 194.999 97.9327 195.325 98.2095 195.576C98.4862 195.827 98.8296 195.992 99.1984 196.053C99.4086 196.079 99.6219 196.057 99.8225 195.99C100.023 195.922 100.206 195.81 100.357 195.662C100.706 195.358 100.973 194.972 101.135 194.539V194.465L101.209 194.49C101.582 194.62 101.974 194.687 102.368 194.688C102.776 194.67 103.167 194.521 103.483 194.262C103.775 194.039 104.018 193.758 104.195 193.436C104.373 193.114 104.481 192.758 104.513 192.392V192.214L104.637 192.348C104.776 192.485 104.947 192.586 105.134 192.643C105.321 192.699 105.519 192.71 105.711 192.674C105.892 192.646 106.062 192.573 106.207 192.461C106.346 192.336 106.472 192.197 106.583 192.046C106.819 191.773 107.014 191.468 107.163 191.14C107.298 190.848 107.312 190.513 107.202 190.21L107.168 190.121H107.262C107.78 190.125 108.285 189.962 108.703 189.656C109.024 189.429 109.289 189.133 109.481 188.79C109.652 188.498 109.772 188.178 109.837 187.845Z" fill="#455A64"/>
<path d="M111.011 207.418C111.011 207.452 110.818 207.581 110.442 207.665C109.946 207.76 109.434 207.734 108.949 207.59C108.465 207.446 108.022 207.189 107.658 206.839C107.386 206.567 107.287 206.344 107.317 206.344C107.346 206.344 107.98 207.012 109.04 207.333C110.1 207.655 110.987 207.309 111.011 207.418Z" fill="#263238"/>
<path d="M123.265 268.211L90.3328 268.661C90.3328 268.661 81.1204 264.812 78.5894 264.703C76.0585 264.595 71.0363 264.921 68.7134 268.661C66.3112 272.525 65.9744 279.333 73.379 284.285C80.5855 289.104 113.542 293.562 118.059 293.151L126.39 281.985C126.39 281.985 126.474 272.832 126.39 272.397C126.306 271.961 124.904 268.038 124.904 268.038L123.265 268.211Z" fill="#263238"/>
<path d="M104.983 283.004L85.3153 290.302L94.2652 314.786C96.5534 313.797 96.6178 299.405 96.6178 299.405L109.411 295.249L104.983 283.004Z" fill="#318FFF"/>
<g opacity="0.6">
<path opacity="0.6" d="M94.9247 291.449C94.7672 291.239 94.5374 291.094 94.2796 291.043C94.0217 290.992 93.754 291.038 93.528 291.172C93.3141 291.323 93.1658 291.55 93.1133 291.807C93.0609 292.063 93.1082 292.33 93.2457 292.553C93.4146 292.775 93.66 292.927 93.9344 292.979C94.2088 293.031 94.4928 292.98 94.7316 292.835C94.9452 292.655 95.0791 292.398 95.1041 292.12C95.1292 291.842 95.0433 291.565 94.8653 291.35" fill="white"/>
</g>
<path d="M85.3159 290.306L87.2971 289.569L95.1672 313.366C95.1672 313.366 95.088 314.633 94.2757 314.786L85.3159 290.306Z" fill="#263238"/>
<path d="M96.9054 299.756C96.7816 299.795 96.5092 299.222 95.9149 298.766C95.3205 298.311 94.6965 298.188 94.7014 298.064C94.7064 297.94 95.4691 297.861 96.1873 298.415C96.9055 298.969 97.0243 299.741 96.9054 299.756Z" fill="#263238"/>
<path d="M96.7818 302.715C96.6728 302.784 96.2865 302.339 95.6278 302.121C94.969 301.903 94.3945 301.977 94.3549 301.854C94.3152 301.73 94.9641 301.408 95.7763 301.7C96.5886 301.992 96.8957 302.67 96.7818 302.715Z" fill="#263238"/>
<path d="M94.2355 305.297C94.1711 305.198 94.7308 304.803 95.4787 304.882C96.2266 304.961 96.7119 305.411 96.6277 305.5C96.5435 305.589 96.0681 305.367 95.4391 305.322C94.81 305.278 94.2652 305.411 94.2355 305.297Z" fill="#263238"/>
<path d="M99.7138 298.485C99.585 298.485 99.5504 297.866 99.2581 297.208C98.9659 296.55 98.5598 296.1 98.639 296.001C98.7183 295.902 99.3275 296.253 99.6643 297.035C100.001 297.817 99.8277 298.509 99.7138 298.485Z" fill="#263238"/>
<path d="M102.408 296.857C102.151 296.496 101.998 296.072 101.967 295.63C101.882 295.159 101.856 294.678 101.888 294.2C101.91 293.918 101.949 293.637 102.007 293.359C102.029 293.187 102.081 293.02 102.16 292.865C102.216 292.755 102.306 292.667 102.418 292.615C102.529 292.563 102.654 292.55 102.774 292.578C102.88 292.606 102.978 292.659 103.059 292.733C103.14 292.807 103.202 292.9 103.24 293.003C103.3 293.162 103.336 293.329 103.349 293.498C103.373 293.784 103.373 294.072 103.349 294.359C103.314 294.84 103.203 295.312 103.022 295.759C102.7 296.521 102.324 296.877 102.289 296.842C102.254 296.808 102.502 296.392 102.725 295.655C102.852 295.225 102.925 294.782 102.943 294.334C102.949 294.073 102.935 293.811 102.898 293.552C102.898 293.27 102.794 293.057 102.655 293.023C102.601 293.023 102.581 293.023 102.527 293.102C102.473 293.211 102.436 293.328 102.418 293.448C102.355 293.705 102.31 293.967 102.284 294.23C102.232 294.68 102.224 295.134 102.259 295.586C102.339 296.005 102.389 296.43 102.408 296.857Z" fill="#263238"/>
<path d="M102.19 296.748C102.155 296.714 102.497 296.318 103.255 295.991C103.971 295.693 104.756 295.595 105.523 295.709C105.709 295.716 105.891 295.77 106.05 295.867C106.208 295.964 106.339 296.101 106.43 296.263C106.467 296.374 106.471 296.492 106.443 296.605C106.415 296.718 106.356 296.821 106.271 296.902C106.151 297.017 106.017 297.115 105.87 297.193C105.611 297.335 105.332 297.437 105.043 297.495C104.558 297.596 104.057 297.575 103.582 297.436C102.77 297.188 102.448 296.743 102.482 296.718C102.866 296.875 103.258 297.012 103.656 297.129C104.086 297.213 104.529 297.201 104.954 297.094C105.199 297.035 105.434 296.94 105.652 296.812C105.9 296.684 106.073 296.506 106.014 296.422C105.947 296.336 105.862 296.267 105.765 296.218C105.669 296.17 105.562 296.143 105.454 296.14C105.197 296.094 104.937 296.073 104.676 296.075C104.231 296.084 103.789 296.156 103.364 296.288C102.621 296.516 102.22 296.808 102.19 296.748Z" fill="#263238"/>
<path d="M115.835 282.509L133.453 290.672L123.398 312.624C121.358 311.535 122.343 298.252 122.343 298.252L110.843 293.487L115.835 282.509Z" fill="#318FFF"/>
<g opacity="0.6">
<path opacity="0.6" d="M124.479 291.019C124.641 290.839 124.864 290.724 125.105 290.697C125.346 290.669 125.588 290.731 125.787 290.871C125.974 291.024 126.096 291.243 126.126 291.484C126.157 291.724 126.094 291.967 125.95 292.162C125.778 292.354 125.542 292.475 125.286 292.504C125.03 292.532 124.773 292.465 124.563 292.315C124.388 292.131 124.29 291.887 124.29 291.632C124.29 291.378 124.388 291.134 124.563 290.95" fill="white"/>
</g>
<path d="M133.453 290.663L131.675 289.841L122.68 311.239C122.68 311.239 122.68 312.411 123.398 312.614L133.453 290.663Z" fill="#263238"/>
<path d="M122.071 298.549C122.18 298.593 122.472 298.079 123.061 297.713C123.651 297.346 124.225 297.267 124.23 297.149C124.235 297.03 123.537 296.906 122.838 297.366C122.14 297.826 121.962 298.524 122.071 298.549Z" fill="#263238"/>
<path d="M121.967 301.309C122.062 301.383 122.463 301.003 123.077 300.844C123.691 300.686 124.226 300.805 124.271 300.696C124.315 300.587 123.741 300.241 122.973 300.448C122.205 300.656 121.868 301.235 121.967 301.309Z" fill="#263238"/>
<path d="M124.127 303.857C124.196 303.768 123.73 303.363 123.017 303.363C122.304 303.363 121.838 303.763 121.908 303.857C121.977 303.951 122.433 303.783 122.993 303.783C123.552 303.783 124.067 303.956 124.127 303.857Z" fill="#263238"/>
<path d="M119.57 297.174C119.689 297.174 119.763 296.61 120.065 296.026C120.368 295.442 120.789 295.036 120.724 294.957C120.66 294.878 120.065 295.135 119.704 295.833C119.342 296.53 119.461 297.184 119.57 297.174Z" fill="#263238"/>
<path d="M117.203 295.457C117.465 295.14 117.636 294.759 117.698 294.353C117.811 293.925 117.869 293.485 117.871 293.042C117.876 292.779 117.861 292.516 117.827 292.256C117.813 292.101 117.778 291.95 117.723 291.805C117.681 291.699 117.603 291.609 117.503 291.554C117.403 291.498 117.286 291.478 117.173 291.499C117.073 291.517 116.979 291.559 116.899 291.621C116.819 291.683 116.755 291.763 116.712 291.855C116.646 291.994 116.601 292.143 116.579 292.295C116.531 292.555 116.505 292.818 116.499 293.082C116.497 293.53 116.566 293.976 116.702 294.403C116.94 295.125 117.262 295.486 117.302 295.457C117.341 295.427 117.138 295.026 116.985 294.329C116.898 293.922 116.863 293.507 116.881 293.092C116.891 292.85 116.923 292.61 116.975 292.374C117.019 292.112 117.109 291.914 117.237 291.904C117.287 291.904 117.307 291.904 117.351 291.984C117.393 292.09 117.419 292.201 117.431 292.315C117.465 292.567 117.485 292.81 117.495 293.047C117.507 293.464 117.48 293.882 117.416 294.294C117.316 294.676 117.245 295.064 117.203 295.457Z" fill="#263238"/>
<path d="M117.421 295.372C117.455 295.343 117.168 294.952 116.49 294.596C116.091 294.392 115.66 294.257 115.217 294.195C114.952 294.167 114.684 294.167 114.419 294.195C114.247 294.187 114.076 294.223 113.922 294.301C113.768 294.379 113.637 294.496 113.543 294.64C113.499 294.74 113.486 294.85 113.503 294.957C113.521 295.064 113.569 295.163 113.642 295.244C113.744 295.359 113.862 295.459 113.993 295.541C114.612 295.94 115.363 296.079 116.084 295.927C116.851 295.758 117.183 295.372 117.153 295.348C117.124 295.323 116.737 295.565 116.039 295.645C115.636 295.686 115.23 295.642 114.845 295.516C114.621 295.443 114.41 295.338 114.216 295.204C113.998 295.066 113.85 294.893 113.914 294.813C113.984 294.741 114.068 294.684 114.161 294.647C114.254 294.609 114.354 294.592 114.454 294.596C114.693 294.573 114.933 294.573 115.172 294.596C115.583 294.636 115.986 294.733 116.371 294.883C117.049 295.14 117.376 295.437 117.421 295.372Z" fill="#263238"/>
<path d="M124.904 268.038C124.904 268.038 139.129 262.735 144.364 263.422C147.291 263.803 151.868 266.035 152.215 269.785C152.561 273.535 151.65 278.542 146.588 280.986C141.526 283.43 121.328 292.479 116.529 293.874C111.73 295.269 99.7634 298.534 99.7634 298.534L95.2216 285.592C95.2216 285.592 120.021 277.018 121.328 276.078C122.636 275.138 125.954 273.812 125.954 273.812L124.904 268.038Z" fill="#263238"/>
<path d="M75.4447 269.8L75.5438 269.775L75.8261 269.686C76.0787 269.612 76.4501 269.503 76.9355 269.389C77.5221 269.245 78.1178 269.141 78.7185 269.077C79.5142 269.003 80.3151 269.003 81.1108 269.077C82.0763 269.157 83.0308 269.338 83.9587 269.617C84.4691 269.772 84.966 269.969 85.4446 270.205L86.9899 270.957C89.1196 271.947 91.497 273.015 94.0279 274.015C99.0947 276.043 103.958 276.983 107.426 277.79C109.169 278.176 110.576 278.492 111.546 278.72L112.661 278.987L112.953 279.051H113.052L112.958 279.017L112.671 278.937C112.413 278.868 112.042 278.764 111.556 278.646C110.566 278.398 109.189 278.062 107.45 277.656C103.983 276.84 99.1344 275.865 94.0775 273.842C91.5515 272.852 89.1741 271.808 87.0493 270.799L85.4991 270.052C85.008 269.815 84.4977 269.619 83.9736 269.468C83.0376 269.19 82.0746 269.013 81.1009 268.939C80.2986 268.864 79.4911 268.864 78.6888 268.939C78.0853 269.006 77.4876 269.119 76.9008 269.275C76.4055 269.399 76.0489 269.518 75.8013 269.602L75.519 269.706L75.4447 269.8Z" fill="#455A64"/>
<path d="M76.2129 267.924C76.2129 267.949 76.6438 267.875 77.3422 267.801C78.2483 267.701 79.1609 267.675 80.0712 267.721C80.9823 267.768 81.8882 267.887 82.7804 268.078C83.4639 268.221 83.8849 268.345 83.8899 268.32C83.801 268.27 83.7062 268.232 83.6076 268.206C83.4194 268.142 83.147 268.058 82.8052 267.974C81.9128 267.749 81.0003 267.613 80.0811 267.568C79.1613 267.521 78.2391 267.562 77.3273 267.692C76.9806 267.741 76.6983 267.796 76.5051 267.84C76.4045 267.855 76.3063 267.884 76.2129 267.924Z" fill="#455A64"/>
<path d="M130.887 271.798C130.887 271.798 131.298 271.511 131.981 271.091C132.869 270.544 133.812 270.093 134.795 269.745C135.78 269.4 136.8 269.16 137.836 269.028C138.628 268.929 139.128 268.919 139.128 268.894C139.012 268.879 138.894 268.879 138.777 268.894C138.458 268.893 138.139 268.908 137.821 268.939C136.772 269.042 135.74 269.27 134.745 269.616C133.75 269.968 132.802 270.44 131.922 271.021C131.654 271.194 131.396 271.383 131.149 271.586C131.054 271.646 130.966 271.718 130.887 271.798Z" fill="#455A64"/>
<path d="M123.75 291.098L123.641 291.138L123.315 291.276C123.032 291.39 122.616 291.588 122.061 291.8C120.952 292.236 119.318 292.839 117.217 293.527C113.012 294.902 106.975 296.649 99.7486 298.475L99.8328 298.519L95.4347 286.329L95.3901 286.423L100.838 284.191L130.967 271.823C132.19 270.527 133.319 269.384 134.374 268.464C135.27 267.67 136.228 266.949 137.237 266.306C137.878 265.908 138.54 265.544 139.218 265.213L139.748 264.971L139.927 264.882C139.864 264.903 139.803 264.928 139.743 264.956L139.208 265.188C138.527 265.506 137.865 265.865 137.227 266.262C136.212 266.898 135.248 267.613 134.345 268.399C133.28 269.319 132.141 270.457 130.907 271.754L100.759 284.092L95.3108 286.329L95.2415 286.358L95.2663 286.423C96.8363 290.757 98.3272 294.878 99.6744 298.613V298.672H99.7338C106.96 296.842 112.998 295.076 117.193 293.68C119.288 292.983 120.922 292.364 122.027 291.914C122.581 291.692 123.017 291.489 123.275 291.37L123.597 291.222L123.75 291.098Z" fill="#455A64"/>
<path d="M88.5992 222.765C88.5992 222.765 84.5032 225.12 83.6711 227.89C83.1758 229.567 79.3472 251.074 78.7182 255.314C78.0892 259.554 79.3918 262.695 81.1947 264.105C82.9975 265.515 88.4952 267.385 88.4952 267.385L96.2465 269.884L98.4604 264.259L91.1104 253.711L91.8236 246.606L88.5992 222.765Z" fill="#318FFF"/>
<path d="M96.6478 219.049L99.7136 217.293C99.7136 217.293 102.517 220.568 106.341 220.167C108.711 219.852 110.879 218.667 112.423 216.843L123.814 219.158C124.577 219.311 125.974 219.796 127.306 221.701C128.792 223.823 135.845 233.238 135.845 233.238H140.823C141.491 233.238 142.147 233.419 142.719 233.764C143.292 234.108 143.76 234.602 144.072 235.192C144.914 236.795 145.924 238.943 145.825 239.833C145.662 241.317 145.949 245.458 143.933 246.76C143.294 247.17 141.006 248.392 139.228 248.308C136.608 248.184 133.567 246.824 131.798 245.597C130.313 244.563 126.846 240.976 125.528 239.576V239.601L124.676 269.468L94.7904 268.617L88.5993 222.779C88.5993 222.779 96.3456 219.049 96.6478 219.049Z" fill="#318FFF"/>
<path d="M125.633 227.049C125.588 227.049 125.514 230.749 125.459 235.316C125.405 239.882 125.395 243.588 125.435 243.588C125.474 243.588 125.558 239.887 125.613 235.321C125.667 230.754 125.672 227.049 125.633 227.049Z" fill="#263238"/>
<path d="M84.9789 251.192C84.9789 251.192 85.2315 251.232 85.6822 251.321C86.3196 251.448 86.9408 251.645 87.5346 251.91C88.4174 252.302 89.249 252.8 90.011 253.394C90.9412 254.12 91.8093 254.923 92.6063 255.793C93.4632 256.713 94.2457 257.629 94.9788 258.435C95.6214 259.16 96.3008 259.852 97.0144 260.508C97.4953 260.951 98.0067 261.359 98.5449 261.73C98.7281 261.864 98.8866 261.953 98.9906 262.022C99.0422 262.057 99.0969 262.087 99.1541 262.111L99.0055 261.992C98.9114 261.918 98.7578 261.824 98.5795 261.681C98.0606 261.292 97.5645 260.874 97.0936 260.429C96.4894 259.87 95.8109 259.157 95.0877 258.341C94.3646 257.525 93.6019 256.615 92.7252 255.689C91.9236 254.813 91.0469 254.009 90.1051 253.285C89.3357 252.687 88.4936 252.188 87.599 251.801C86.9954 251.539 86.3615 251.355 85.7119 251.252C85.5364 251.222 85.3595 251.203 85.1819 251.192H84.9789Z" fill="#263238"/>
<path d="M84.3003 249.169C84.3003 249.198 84.7559 249.263 85.4691 249.46C87.3302 249.978 89.0193 250.983 90.3626 252.37C90.8579 252.904 91.1452 253.275 91.1699 253.255C91.1238 253.158 91.0656 253.066 90.9966 252.983C90.8257 252.743 90.6405 252.513 90.4418 252.295C89.1212 250.843 87.3965 249.818 85.489 249.352C85.2036 249.281 84.9141 249.228 84.6222 249.193C84.5161 249.173 84.4082 249.165 84.3003 249.169Z" fill="#263238"/>
<g opacity="0.3">
<path opacity="0.3" d="M139.922 243.919C138.342 244.35 136.455 242.074 135.003 240.654C134.255 239.912 133.478 239.12 133.205 238.106C133.01 237.254 133.096 236.362 133.453 235.563C133.719 234.842 134.072 234.156 134.503 233.52C134.369 234.747 134.067 236.627 134.503 238.166C134.908 239.404 135.602 240.529 136.529 241.446C137.445 242.475 138.51 243.553 139.941 243.919" fill="black"/>
</g>
<path d="M133.161 242.628C133.191 242.628 133.007 242.109 132.859 241.248C132.773 240.747 132.723 240.241 132.71 239.734C132.687 238.487 132.883 237.247 133.29 236.068C133.453 235.586 133.653 235.118 133.889 234.668C134.295 233.901 134.627 233.47 134.602 233.451C134.509 233.538 134.426 233.636 134.355 233.743C134.264 233.86 134.18 233.982 134.102 234.109C134.008 234.257 133.894 234.42 133.79 234.603C133.54 235.052 133.326 235.521 133.151 236.004C132.93 236.597 132.765 237.21 132.656 237.834C132.564 238.46 132.525 239.092 132.542 239.724C132.561 240.237 132.62 240.749 132.72 241.253C132.756 241.448 132.802 241.641 132.859 241.832C132.894 241.976 132.937 242.118 132.988 242.257C133.032 242.387 133.09 242.511 133.161 242.628Z" fill="#263238"/>
<path d="M111.19 217.995C111.19 218.035 111.522 218.238 111.888 218.569C112.254 218.901 112.497 219.218 112.537 219.193C112.408 218.911 112.221 218.659 111.989 218.453C111.758 218.246 111.485 218.091 111.19 217.995Z" fill="#263238"/>
<path d="M108.08 219.801C108.05 219.831 108.347 220.157 108.575 220.633C108.802 221.108 108.911 221.538 108.956 221.529C108.95 221.192 108.867 220.86 108.712 220.561C108.558 220.261 108.336 220.001 108.065 219.801H108.08Z" fill="#263238"/>
<path d="M102.755 221.657C102.9 221.373 103.014 221.074 103.096 220.766C103.229 220.477 103.332 220.175 103.403 219.865C103.194 220.114 103.04 220.404 102.953 220.717C102.819 221.012 102.752 221.333 102.755 221.657Z" fill="#263238"/>
<path d="M99.3276 220.053C99.3771 220.053 99.491 219.558 99.8229 218.994C100.155 218.43 100.566 218.094 100.531 218.059C100.174 218.256 99.8824 218.553 99.6941 218.915C99.464 219.251 99.3367 219.646 99.3276 220.053Z" fill="#263238"/>
<path d="M89.4912 229.725C89.4466 229.725 89.9568 233.812 90.6205 238.838C91.2842 243.865 91.8587 247.937 91.9033 247.927C91.9479 247.917 91.4377 243.845 90.774 238.819C90.1103 233.792 89.5308 229.72 89.4912 229.725Z" fill="#263238"/>
<path d="M134.275 236.33C134.258 236.472 134.258 236.614 134.275 236.756C134.285 236.922 134.307 237.087 134.339 237.251C134.339 237.345 134.374 237.448 134.389 237.557L134.473 237.894C134.622 238.444 134.819 238.981 135.063 239.497C135.373 240.123 135.742 240.719 136.162 241.278C136.592 241.825 137.082 242.323 137.623 242.762C138.075 243.125 138.575 243.423 139.109 243.648C139.218 243.692 139.327 243.742 139.431 243.776L139.728 243.86L139.991 243.934L140.214 243.964C140.353 243.987 140.493 243.998 140.635 243.999C140.126 243.897 139.628 243.746 139.149 243.549C138.64 243.312 138.164 243.011 137.732 242.653C137.206 242.21 136.727 241.713 136.306 241.169C135.889 240.619 135.523 240.033 135.211 239.418C134.962 238.914 134.758 238.389 134.602 237.849C134.464 237.35 134.354 236.842 134.275 236.33Z" fill="#263238"/>
<g opacity="0.3">
<path opacity="0.3" d="M90.4523 270.472C89.1843 269.859 88.8971 268.221 88.7683 266.821C88.3886 262.715 88.0088 258.612 87.6291 254.512C87.4508 252.582 87.3666 250.381 88.7287 249C89.9718 247.744 91.948 247.665 93.7212 247.67C104.657 247.704 114.31 248.021 125.246 248.051L124.692 267.172L90.4523 270.472Z" fill="black"/>
</g>
<path d="M129.961 251.014L128.797 273.174C128.773 273.588 128.59 273.977 128.287 274.261C127.984 274.544 127.583 274.701 127.167 274.697L91.8285 274.762C91.4123 274.763 91.0114 274.605 90.7089 274.32C90.4064 274.034 90.2256 273.643 90.204 273.228L88.8519 251.459C88.8073 250.554 89.4512 249.352 90.3724 249.332H128.302C128.523 249.326 128.744 249.365 128.95 249.448C129.156 249.53 129.342 249.654 129.498 249.812C129.654 249.97 129.775 250.158 129.855 250.365C129.934 250.572 129.971 250.793 129.961 251.014Z" fill="#E0E0E0"/>
<path d="M129.961 251.014C129.961 251.014 129.961 250.984 129.961 250.93C129.961 250.875 129.961 250.791 129.961 250.682C129.914 250.359 129.767 250.058 129.54 249.822C129.377 249.644 129.175 249.505 128.951 249.416C128.678 249.319 128.388 249.279 128.099 249.297H125.949L112.255 249.272H91.9477H90.5064C90.2487 249.26 89.9934 249.326 89.7734 249.46C89.5599 249.597 89.3763 249.775 89.2335 249.985C88.9478 250.407 88.7943 250.905 88.7927 251.415C88.8224 251.909 88.8472 252.404 88.8769 252.899C88.9991 254.878 89.1246 256.911 89.2533 258.999C89.5109 263.145 89.7783 267.439 90.0508 271.838L90.1003 272.659C90.109 272.937 90.1322 273.214 90.1696 273.49C90.2257 273.772 90.3529 274.035 90.5393 274.254C90.7256 274.473 90.9649 274.641 91.2345 274.742C91.5 274.834 91.7814 274.871 92.0616 274.851H94.4935H100.838H112.834L123.686 274.821H126.801C127.004 274.821 127.207 274.821 127.415 274.821C127.824 274.763 128.197 274.558 128.466 274.245C128.734 273.931 128.878 273.531 128.872 273.119C128.891 272.733 128.911 272.352 128.931 271.976C128.971 271.219 129.005 270.492 129.045 269.76C129.337 263.996 129.575 259.33 129.738 256.1C129.818 254.492 129.877 253.24 129.917 252.389C129.917 251.964 129.951 251.642 129.961 251.4C129.971 251.157 129.961 251.073 129.961 251.073C129.961 251.073 129.961 251.182 129.936 251.4C129.912 251.617 129.902 251.944 129.877 252.365C129.827 253.22 129.758 254.467 129.669 256.08C129.491 259.306 129.238 263.996 128.926 269.735C128.886 270.457 128.847 271.194 128.807 271.951C128.787 272.327 128.768 272.708 128.748 273.094C128.752 273.475 128.62 273.845 128.376 274.138C128.125 274.436 127.772 274.63 127.386 274.682C127.186 274.692 126.986 274.692 126.786 274.682H123.671H112.819H100.823H94.4786H92.0468C91.7924 274.703 91.5364 274.673 91.2939 274.593C91.0449 274.504 90.823 274.353 90.6495 274.154C90.476 273.955 90.3568 273.714 90.3034 273.455C90.2588 273.203 90.2588 272.916 90.239 272.649L90.1845 271.823C89.9121 267.429 89.6496 263.135 89.392 258.989C89.2632 256.915 89.1361 254.879 89.0107 252.884L88.9215 251.4C88.9232 250.92 89.068 250.451 89.3375 250.054C89.4545 249.853 89.6231 249.686 89.8259 249.571C90.0287 249.456 90.2585 249.398 90.4916 249.401H91.9378H112.245H125.939H128.089C128.373 249.377 128.658 249.414 128.926 249.51C129.148 249.593 129.347 249.725 129.51 249.896C129.735 250.128 129.884 250.423 129.936 250.742C129.966 250.9 129.927 251.014 129.961 251.014Z" fill="#263238"/>
<path d="M107.064 261.824C107.062 262.237 107.183 262.642 107.412 262.986C107.641 263.331 107.967 263.599 108.35 263.757C108.732 263.916 109.153 263.957 109.559 263.876C109.964 263.795 110.337 263.594 110.628 263.301C110.92 263.008 111.118 262.634 111.196 262.228C111.275 261.822 111.23 261.402 111.069 261.022C110.908 260.641 110.636 260.317 110.29 260.091C109.944 259.864 109.538 259.746 109.124 259.751C108.577 259.756 108.053 259.977 107.668 260.365C107.282 260.753 107.065 261.277 107.064 261.824Z" fill="white"/>
<path d="M107.064 261.824C107.064 261.824 107.064 261.636 107.158 261.329C107.232 261.056 107.361 260.801 107.539 260.58C107.717 260.359 107.938 260.178 108.19 260.048C108.442 259.917 108.718 259.841 109 259.823C109.283 259.805 109.567 259.846 109.833 259.944C110.205 260.08 110.528 260.325 110.759 260.647C111.015 260.989 111.153 261.404 111.153 261.831C111.153 262.259 111.015 262.674 110.759 263.016C110.528 263.338 110.205 263.582 109.833 263.719C109.567 263.815 109.284 263.855 109.001 263.836C108.719 263.818 108.443 263.741 108.192 263.611C107.941 263.481 107.719 263.3 107.541 263.08C107.363 262.86 107.233 262.606 107.158 262.334C107.074 262.017 107.079 261.839 107.064 261.839C107.057 261.883 107.057 261.928 107.064 261.972C107.066 262.101 107.081 262.228 107.109 262.353C107.216 262.821 107.482 263.237 107.862 263.531C108.123 263.739 108.43 263.879 108.758 263.941C109.135 264.014 109.525 263.985 109.887 263.857C110.285 263.713 110.63 263.452 110.878 263.11C111.151 262.742 111.298 262.295 111.298 261.836C111.298 261.378 111.151 260.931 110.878 260.562C110.63 260.22 110.285 259.96 109.887 259.815C109.525 259.688 109.135 259.659 108.758 259.731C108.359 259.81 107.99 260.002 107.698 260.284C107.405 260.567 107.201 260.928 107.109 261.324C107.081 261.449 107.066 261.577 107.064 261.705C107.059 261.745 107.059 261.785 107.064 261.824Z" fill="#263238"/>
<path d="M128.767 253.468C128.728 253.468 128.554 257.189 128.381 261.785C128.208 266.381 128.104 270.106 128.143 270.106C128.183 270.106 128.361 266.386 128.534 261.79C128.708 257.194 128.812 253.468 128.767 253.468Z" fill="#263238"/>
<path d="M139.392 224.551C139.6 224.377 138.694 220.894 138.694 220.894C138.694 220.894 141.091 216.986 141.17 215.729C141.249 214.473 140.224 211.885 140.224 211.885L133.344 210.119C133.344 210.119 131.135 214.215 130.695 215.665C130.254 217.115 131.413 222.032 131.413 222.032L132.577 224.551C132.577 224.551 136.118 227.326 139.392 224.551Z" fill="#EBAE89"/>
<path d="M141.14 216.481C141.412 215.988 141.655 215.479 141.868 214.957C142.299 213.923 142.834 212.914 141.868 212.335C141.716 212.236 141.545 212.171 141.365 212.143C141.186 212.115 141.003 212.125 140.828 212.172C140.828 212.172 140.976 211.306 140.461 210.98C140.311 210.885 140.139 210.827 139.962 210.812C139.784 210.796 139.606 210.823 139.441 210.891C139.441 210.891 139.604 209.664 138.857 209.144C138.575 208.961 138.247 208.858 137.911 208.849C137.574 208.839 137.242 208.923 136.95 209.09C136.95 209.09 137.544 203.732 137.594 203.445C137.782 202.406 137.395 201.466 136.36 201.738C135.979 201.832 135.766 202.233 135.32 203.979C134.874 205.726 134.156 208.704 134.156 208.704C134.156 208.704 132.948 210.802 132.378 211.94C131.809 213.077 130.679 215.665 130.585 216.353C130.343 218.124 131.383 220.474 131.383 220.474L138.693 220.894C138.693 220.894 140.862 216.991 141.14 216.481Z" fill="#EBAE89"/>
<path d="M140.685 212.405C140.478 212.653 140.289 212.916 140.12 213.191L139.54 214.072C139.421 214.246 139.317 214.43 139.228 214.621C139.126 214.838 139.095 215.082 139.139 215.319C139.162 215.442 139.217 215.556 139.299 215.651C139.381 215.746 139.486 215.817 139.605 215.858C139.825 215.914 140.058 215.886 140.259 215.779C140.433 215.694 140.598 215.592 140.754 215.477L141.15 215.18C141.388 214.997 141.571 214.839 141.695 214.725C141.819 214.611 141.883 214.542 141.878 214.532C141.873 214.522 141.571 214.75 141.086 215.096C140.808 215.303 140.515 215.488 140.209 215.65C140.039 215.737 139.844 215.76 139.659 215.714C139.566 215.682 139.484 215.624 139.421 215.548C139.359 215.473 139.318 215.381 139.303 215.284C139.263 215.08 139.289 214.869 139.377 214.68C139.459 214.495 139.557 214.316 139.669 214.146L140.209 213.246C140.39 212.979 140.549 212.697 140.685 212.405Z" fill="#AA6550"/>
<path d="M134.692 213.042C134.756 212.659 134.729 212.266 134.612 211.895C134.546 211.511 134.39 211.148 134.157 210.836C134.117 210.836 134.32 211.331 134.464 211.929C134.607 212.528 134.647 213.042 134.692 213.042Z" fill="#AA6550"/>
<path d="M131.794 214.606C132.467 213.955 133.315 213.513 134.236 213.335C135.154 213.158 136.094 213.121 137.024 213.226C137.767 213.295 138.614 213.483 138.956 214.151C139.096 214.514 139.099 214.915 138.964 215.279C138.829 215.644 138.565 215.946 138.223 216.13C137.53 216.474 136.748 216.593 135.984 216.471C135.225 216.346 134.453 216.315 133.686 216.377" fill="#EBAE89"/>
<path d="M133.685 216.358C133.685 216.358 133.893 216.358 134.26 216.358C134.786 216.378 135.31 216.428 135.83 216.506C136.193 216.549 136.559 216.564 136.925 216.55C137.353 216.535 137.773 216.429 138.158 216.239C138.588 216.016 138.916 215.637 139.074 215.18C139.157 214.935 139.174 214.672 139.124 214.418C139.065 214.157 138.924 213.921 138.722 213.745C138.318 213.429 137.828 213.238 137.316 213.196C136.855 213.145 136.392 213.117 135.929 213.112C135.139 213.099 134.352 213.22 133.601 213.468C133.098 213.636 132.627 213.889 132.209 214.215C132.096 214.306 131.989 214.404 131.887 214.507C131.853 214.542 131.821 214.58 131.793 214.621C131.793 214.621 131.942 214.482 132.244 214.265C132.668 213.96 133.138 213.724 133.636 213.567C134.377 213.343 135.15 213.238 135.924 213.255C136.383 213.261 136.841 213.291 137.296 213.345C137.776 213.378 138.235 213.55 138.618 213.839C138.797 213.995 138.922 214.202 138.975 214.433C139.02 214.659 139.004 214.893 138.93 215.111C138.789 215.536 138.489 215.89 138.093 216.1C137.728 216.285 137.328 216.389 136.92 216.407C136.56 216.429 136.198 216.421 135.84 216.382C135.316 216.315 134.788 216.28 134.26 216.278C134.117 216.286 133.975 216.301 133.834 216.323C133.783 216.326 133.733 216.338 133.685 216.358Z" fill="#AA6550"/>
<path d="M140.63 212.489C139.862 213.656 139.183 214.938 138.535 216.175C138.38 216.553 138.127 216.883 137.802 217.129C137.524 217.298 136.836 216.991 136.529 216.882L138.639 212.083" fill="#EBAE89"/>
<path d="M138.639 212.083C138.565 212.196 138.502 212.315 138.45 212.439L137.985 213.429C137.594 214.285 137.059 215.477 136.459 216.833L136.425 216.907L136.504 216.936C136.732 217.016 136.999 217.119 137.242 217.189C137.347 217.216 137.455 217.231 137.564 217.233C137.621 217.24 137.68 217.24 137.737 217.233C137.794 217.215 137.847 217.188 137.896 217.154C138.065 217.03 138.209 216.876 138.322 216.699C138.54 216.358 138.693 216.016 138.861 215.709C139.193 215.071 139.5 214.497 139.763 214.022C140.025 213.547 140.258 213.166 140.402 212.904C140.488 212.773 140.564 212.636 140.63 212.494C140.527 212.613 140.434 212.74 140.352 212.875C140.179 213.127 139.941 213.498 139.669 213.968C139.396 214.438 139.074 215.007 138.738 215.645C138.564 215.957 138.401 216.308 138.198 216.635C138.095 216.795 137.962 216.935 137.806 217.045C137.678 217.154 137.47 217.115 137.277 217.07C137.031 217.002 136.79 216.921 136.553 216.828L136.598 216.931C137.192 215.571 137.712 214.369 138.084 213.503C138.257 213.087 138.396 212.741 138.51 212.479C138.565 212.351 138.609 212.219 138.639 212.083Z" fill="#AA6550"/>
<path d="M139.208 210.658L137.172 215.759C137.049 216.129 136.863 216.476 136.623 216.783C136.502 216.936 136.345 217.057 136.166 217.135C135.987 217.213 135.792 217.245 135.597 217.228C135.337 217.16 135.108 217.007 134.944 216.794C134.781 216.581 134.694 216.319 134.696 216.051C134.71 215.513 134.84 214.985 135.077 214.502C135.694 212.951 136.191 211.355 136.563 209.728" fill="#EBAE89"/>
<path d="M136.538 209.728C136.514 209.778 136.496 209.832 136.484 209.886C136.454 210.005 136.415 210.153 136.365 210.337C136.261 210.727 136.108 211.291 135.87 211.984C135.632 212.677 135.374 213.493 135.028 214.384C134.811 214.845 134.668 215.338 134.602 215.843C134.579 216.121 134.632 216.399 134.755 216.649C134.879 216.921 135.1 217.136 135.374 217.253C135.513 217.304 135.661 217.324 135.808 217.312C135.955 217.3 136.098 217.256 136.226 217.184C136.474 217.049 136.682 216.853 136.831 216.615C137.073 216.171 137.278 215.707 137.445 215.23L138.376 212.86L139.005 211.267C139.069 211.089 139.119 210.945 139.163 210.831C139.185 210.781 139.2 210.727 139.208 210.673C139.177 210.717 139.152 210.766 139.134 210.816L138.946 211.247L138.287 212.83C138.014 213.508 137.687 214.314 137.326 215.19C137.161 215.66 136.957 216.115 136.717 216.55C136.582 216.76 136.394 216.931 136.172 217.045C136.062 217.108 135.941 217.146 135.815 217.157C135.689 217.168 135.563 217.152 135.444 217.11C135.208 217.007 135.019 216.82 134.914 216.585C134.804 216.356 134.754 216.102 134.77 215.848C134.835 215.358 134.974 214.881 135.181 214.433C135.523 213.538 135.791 212.711 135.994 212.014C136.197 211.316 136.335 210.747 136.424 210.351C136.464 210.153 136.499 209.995 136.514 209.891C136.528 209.838 136.536 209.783 136.538 209.728Z" fill="#AA6550"/>
<path d="M139.045 222.646C139.045 222.646 143.711 236.375 143.894 237.048C144.077 237.721 142.973 242.628 140.947 243.791C138.921 244.954 135.003 240.115 134.508 238.349C134.013 236.583 134.508 233.57 134.508 233.57L131.363 221.74" fill="#EBAE89"/>
<path d="M134.503 220.484C134.652 220.504 134.804 220.485 134.944 220.429C135.288 220.321 135.604 220.138 135.87 219.895C136.136 219.651 136.346 219.352 136.484 219.019C136.551 218.884 136.583 218.735 136.578 218.584C136.405 219.041 136.127 219.451 135.767 219.78C135.407 220.11 134.974 220.351 134.503 220.484Z" fill="#AA6550"/>
</g>
<defs>
<clipPath id="clip0_418_19997">
<rect width="286" height="317" fill="white"/>
</clipPath>
</defs>
</svg>
