<svg width="304" height="145" viewBox="0 0 304 145" fill="none" xmlns="http://www.w3.org/2000/svg">
<g clip-path="url(#clip0_418_10473)">
<path d="M265.5 0H232.5V42L265.5 43V0Z" fill="#E0E0E0"/>
<path d="M262.5 2H234.5V41L262.5 42V2Z" fill="#FAFAFA"/>
<path d="M258.5 10L239.5 9V36H258.5V10Z" fill="#E0E0E0"/>
<path d="M239.5 36L258.5 23L239.5 9V36Z" fill="#EBEBEB"/>
<path d="M50.5 20H9.5V145H50.5V20Z" fill="#EBEBEB"/>
<path d="M82.5 21H50.5V145H82.5V21Z" fill="#F5F5F5"/>
<path d="M46.5 40H12.5V49H46.5V40Z" fill="#E0E0E0"/>
<path d="M15.5 41H12.5V49H15.5V41Z" fill="#F5F5F5"/>
<path d="M17.5 43C17.5 43.1459 17.5811 43.8787 17.5 44C17.4189 44.1213 16.6348 43.9441 16.5 44C16.3652 44.0558 16.6431 44.0284 16.5 44C16.3569 43.9715 15.6032 44.1031 15.5 44C15.3968 43.8968 15.5285 43.1431 15.5 43C15.4715 42.8569 15.4442 43.1347 15.5 43C15.5558 42.8652 15.3787 42.081 15.5 42C15.6213 41.9189 16.3541 42 16.5 42C16.6956 42 17.3617 41.8616 17.5 42C17.6383 42.1383 17.5 42.8043 17.5 43Z" fill="#FAFAFA"/>
<path d="M17.5 45C17.5 45.1872 17.6324 45.8676 17.5 46C17.3676 46.1324 16.6872 46 16.5 46C16.3128 46 15.6324 46.1324 15.5 46C15.3676 45.8676 15.5 45.1872 15.5 45C15.5 44.8128 15.3676 44.1324 15.5 44C15.6324 43.8676 16.3128 44 16.5 44C16.6872 44 17.3676 43.8676 17.5 44C17.6324 44.1324 17.5 44.8128 17.5 45Z" fill="#FAFAFA"/>
<path d="M22.5 42H19.5V48H22.5V42Z" fill="#F5F5F5"/>
<path d="M25.5 42H22.5V48H25.5V42Z" fill="#F5F5F5"/>
<path d="M28.5 42H25.5V48H28.5V42Z" fill="#F5F5F5"/>
<path d="M30.5 42H27.5V48H30.5V42Z" fill="#F5F5F5"/>
<path d="M33.5 42H30.5V48H33.5V42Z" fill="#F5F5F5"/>
<path d="M36.5 42H33.5V48H36.5V42Z" fill="#F5F5F5"/>
<path d="M39.5 42H36.5V48H39.5V42Z" fill="#F5F5F5"/>
<path d="M41.5 42H38.5V48H41.5V42Z" fill="#F5F5F5"/>
<path d="M44.5 42H41.5V48H44.5V42Z" fill="#F5F5F5"/>
<path d="M47.5 42H44.5V48H47.5V42Z" fill="#F5F5F5"/>
<path d="M46.5 55H12.5V64H46.5V55Z" fill="#E0E0E0"/>
<path d="M15.5 56H12.5V64H15.5V56Z" fill="#F5F5F5"/>
<path d="M17.5 59C17.5 59.1872 17.6324 59.8676 17.5 60C17.3676 60.1324 16.6872 60 16.5 60C16.3128 60 15.6324 60.1324 15.5 60C15.3676 59.8676 15.5 59.1872 15.5 59C15.5 58.8128 15.3676 58.1324 15.5 58C15.6324 57.8676 16.3128 58 16.5 58C16.6872 58 17.3676 57.8676 17.5 58C17.6324 58.1324 17.5 58.8128 17.5 59Z" fill="#FAFAFA"/>
<path d="M17.5 61C17.5 61.1459 17.5811 61.8787 17.5 62C17.4189 62.1213 16.6348 61.9441 16.5 62C16.3652 62.0558 16.6431 62.0284 16.5 62C16.3569 61.9715 15.6032 62.1031 15.5 62C15.3968 61.8968 15.5285 61.1431 15.5 61C15.4715 60.8569 15.4442 61.1347 15.5 61C15.5558 60.8652 15.3787 60.081 15.5 60C15.6213 59.9189 16.3541 60 16.5 60C16.6956 60 17.3617 59.8616 17.5 60C17.6383 60.1383 17.5 60.8043 17.5 61Z" fill="#FAFAFA"/>
<path d="M22.5 58H19.5V64H22.5V58Z" fill="#F5F5F5"/>
<path d="M25.5 58H22.5V64H25.5V58Z" fill="#F5F5F5"/>
<path d="M28.5 58H25.5V64H28.5V58Z" fill="#F5F5F5"/>
<path d="M30.5 58H27.5V64H30.5V58Z" fill="#F5F5F5"/>
<path d="M33.5 58H30.5V64H33.5V58Z" fill="#F5F5F5"/>
<path d="M36.5 58H33.5V64H36.5V58Z" fill="#F5F5F5"/>
<path d="M39.5 58H36.5V64H39.5V58Z" fill="#F5F5F5"/>
<path d="M41.5 58H38.5V64H41.5V58Z" fill="#F5F5F5"/>
<path d="M44.5 58H41.5V64H44.5V58Z" fill="#F5F5F5"/>
<path d="M47.5 58H44.5V64H47.5V58Z" fill="#F5F5F5"/>
<path d="M46.5 72H12.5V81H46.5V72Z" fill="#E0E0E0"/>
<path d="M15.5 73H12.5V81H15.5V73Z" fill="#F5F5F5"/>
<path d="M17.5 73C17.5 73.1459 17.5811 73.8787 17.5 74C17.4189 74.1213 16.6348 73.9441 16.5 74C16.3652 74.0558 16.6431 74.0284 16.5 74C16.3569 73.9715 15.6032 74.1031 15.5 74C15.3968 73.8968 15.5285 73.1431 15.5 73C15.4715 72.8569 15.4442 73.1347 15.5 73C15.5558 72.8652 15.3787 72.081 15.5 72C15.6213 71.9189 16.3541 72 16.5 72C16.6956 72 17.3617 71.8616 17.5 72C17.6383 72.1383 17.5 72.8043 17.5 73Z" fill="#FAFAFA"/>
<path d="M17.5 77C17.5 77.1459 17.5811 77.8787 17.5 78C17.4189 78.1213 16.6348 77.9441 16.5 78C16.3652 78.0558 16.6431 78.0284 16.5 78C16.3569 77.9715 15.6032 78.1031 15.5 78C15.3968 77.8968 15.5285 77.1431 15.5 77C15.4715 76.8569 15.4442 77.1347 15.5 77C15.5558 76.8652 15.3787 76.081 15.5 76C15.6213 75.9189 16.3541 76 16.5 76C16.6956 76 17.3617 75.8616 17.5 76C17.6383 76.1383 17.5 76.8043 17.5 77Z" fill="#FAFAFA"/>
<path d="M22.5 73H19.5V79H22.5V73Z" fill="#F5F5F5"/>
<path d="M25.5 73H22.5V79H25.5V73Z" fill="#F5F5F5"/>
<path d="M28.5 73H25.5V79H28.5V73Z" fill="#F5F5F5"/>
<path d="M30.5 73H27.5V79H30.5V73Z" fill="#F5F5F5"/>
<path d="M33.5 73H30.5V79H33.5V73Z" fill="#F5F5F5"/>
<path d="M36.5 73H33.5V79H36.5V73Z" fill="#F5F5F5"/>
<path d="M39.5 73H36.5V79H39.5V73Z" fill="#F5F5F5"/>
<path d="M41.5 73H38.5V79H41.5V73Z" fill="#F5F5F5"/>
<path d="M44.5 73H41.5V79H44.5V73Z" fill="#F5F5F5"/>
<path d="M47.5 73H44.5V79H47.5V73Z" fill="#F5F5F5"/>
<path d="M46.5 86H12.5V95H46.5V86Z" fill="#E0E0E0"/>
<path d="M15.5 88H12.5V96H15.5V88Z" fill="#F5F5F5"/>
<path d="M17.5 90C17.5 90.1459 17.5811 90.8787 17.5 91C17.4189 91.1213 16.6348 90.9441 16.5 91C16.3652 91.0558 16.6431 91.0284 16.5 91C16.3569 90.9715 15.6032 91.1031 15.5 91C15.3968 90.8968 15.5285 90.1431 15.5 90C15.4715 89.8569 15.4442 90.1347 15.5 90C15.5558 89.8652 15.3787 89.081 15.5 89C15.6213 88.9189 16.3541 89 16.5 89C16.6956 89 17.3617 88.8616 17.5 89C17.6383 89.1383 17.5 89.8043 17.5 90Z" fill="#FAFAFA"/>
<path d="M17.5 92C17.5 92.1872 17.6324 92.8676 17.5 93C17.3676 93.1324 16.6872 93 16.5 93C16.3128 93 15.6324 93.1324 15.5 93C15.3676 92.8676 15.5 92.1872 15.5 92C15.5 91.8128 15.3676 91.1324 15.5 91C15.6324 90.8676 16.3128 91 16.5 91C16.6872 91 17.3676 90.8676 17.5 91C17.6324 91.1324 17.5 91.8128 17.5 92Z" fill="#FAFAFA"/>
<path d="M22.5 89H19.5V95H22.5V89Z" fill="#F5F5F5"/>
<path d="M25.5 89H22.5V95H25.5V89Z" fill="#F5F5F5"/>
<path d="M28.5 89H25.5V95H28.5V89Z" fill="#F5F5F5"/>
<path d="M30.5 89H27.5V95H30.5V89Z" fill="#F5F5F5"/>
<path d="M33.5 89H30.5V95H33.5V89Z" fill="#F5F5F5"/>
<path d="M36.5 89H33.5V95H36.5V89Z" fill="#F5F5F5"/>
<path d="M39.5 89H36.5V95H39.5V89Z" fill="#F5F5F5"/>
<path d="M41.5 89H38.5V95H41.5V89Z" fill="#F5F5F5"/>
<path d="M44.5 89H41.5V95H44.5V89Z" fill="#F5F5F5"/>
<path d="M47.5 89H44.5V95H47.5V89Z" fill="#F5F5F5"/>
<path d="M46.5 102H12.5V111H46.5V102Z" fill="#E0E0E0"/>
<path d="M15.5 104H12.5V112H15.5V104Z" fill="#F5F5F5"/>
<path d="M17.5 105C17.5 105.187 17.6324 105.868 17.5 106C17.3676 106.132 16.6872 106 16.5 106C16.3128 106 15.6324 106.132 15.5 106C15.3676 105.868 15.5 105.187 15.5 105C15.5 104.813 15.3676 104.132 15.5 104C15.6324 103.868 16.3128 104 16.5 104C16.6872 104 17.3676 103.868 17.5 104C17.6324 104.132 17.5 104.813 17.5 105Z" fill="#FAFAFA"/>
<path d="M17.5 108C17.5 108.146 17.5811 108.879 17.5 109C17.4189 109.121 16.6348 108.944 16.5 109C16.3652 109.056 16.6431 109.028 16.5 109C16.3569 108.971 15.6032 109.103 15.5 109C15.3968 108.897 15.5285 108.143 15.5 108C15.4715 107.857 15.4442 108.135 15.5 108C15.5558 107.865 15.3787 107.081 15.5 107C15.6213 106.919 16.3541 107 16.5 107C16.6956 107 17.3617 106.862 17.5 107C17.6383 107.138 17.5 107.804 17.5 108Z" fill="#FAFAFA"/>
<path d="M22.5 104H19.5V110H22.5V104Z" fill="#F5F5F5"/>
<path d="M25.5 104H22.5V110H25.5V104Z" fill="#F5F5F5"/>
<path d="M28.5 104H25.5V110H28.5V104Z" fill="#F5F5F5"/>
<path d="M30.5 104H27.5V110H30.5V104Z" fill="#F5F5F5"/>
<path d="M33.5 104H30.5V110H33.5V104Z" fill="#F5F5F5"/>
<path d="M36.5 104H33.5V110H36.5V104Z" fill="#F5F5F5"/>
<path d="M39.5 104H36.5V110H39.5V104Z" fill="#F5F5F5"/>
<path d="M41.5 104H38.5V110H41.5V104Z" fill="#F5F5F5"/>
<path d="M44.5 104H41.5V110H44.5V104Z" fill="#F5F5F5"/>
<path d="M47.5 104H44.5V110H47.5V104Z" fill="#F5F5F5"/>
<path d="M46.5 118H12.5V127H46.5V118Z" fill="#E0E0E0"/>
<path d="M15.5 119H12.5V127H15.5V119Z" fill="#F5F5F5"/>
<path d="M17.5 121C17.4976 121.155 17.588 121.872 17.5 122C17.412 122.128 16.6442 121.942 16.5 122C16.3558 122.058 16.652 122.032 16.5 122C16.348 121.968 15.609 122.111 15.5 122C15.391 121.889 15.5294 121.153 15.5 121C15.4706 120.847 15.44 121.143 15.5 121C15.56 120.856 15.3707 120.086 15.5 120C15.6293 119.914 16.3447 120 16.5 120C16.6045 120 16.4036 119.96 16.5 120C16.5964 120.04 17.4267 119.925 17.5 120C17.5733 120.075 17.4611 120.903 17.5 121C17.5016 120.895 17.5389 121.097 17.5 121Z" fill="#FAFAFA"/>
<path d="M17.5 124C17.5 124.146 17.5811 124.879 17.5 125C17.4189 125.121 16.6348 124.944 16.5 125C16.3652 125.056 16.6431 125.028 16.5 125C16.3569 124.971 15.6032 125.103 15.5 125C15.3968 124.897 15.5285 124.143 15.5 124C15.4715 123.857 15.4442 124.135 15.5 124C15.5558 123.865 15.3787 123.081 15.5 123C15.6213 122.919 16.3541 123 16.5 123C16.6956 123 17.3617 122.862 17.5 123C17.6383 123.138 17.5 123.804 17.5 124Z" fill="#FAFAFA"/>
<path d="M22.5 120H19.5V126H22.5V120Z" fill="#F5F5F5"/>
<path d="M25.5 120H22.5V126H25.5V120Z" fill="#F5F5F5"/>
<path d="M28.5 120H25.5V126H28.5V120Z" fill="#F5F5F5"/>
<path d="M30.5 120H27.5V126H30.5V120Z" fill="#F5F5F5"/>
<path d="M33.5 120H30.5V126H33.5V120Z" fill="#F5F5F5"/>
<path d="M36.5 120H33.5V126H36.5V120Z" fill="#F5F5F5"/>
<path d="M39.5 120H36.5V126H39.5V120Z" fill="#F5F5F5"/>
<path d="M41.5 120H38.5V126H41.5V120Z" fill="#F5F5F5"/>
<path d="M44.5 120H41.5V126H44.5V120Z" fill="#F5F5F5"/>
<path d="M47.5 120H44.5V126H47.5V120Z" fill="#F5F5F5"/>
<path d="M46.5 134H12.5V143H46.5V134Z" fill="#E0E0E0"/>
<path d="M15.5 136H12.5V144H15.5V136Z" fill="#F5F5F5"/>
<path d="M17.5 136C17.5 136.146 17.5811 136.879 17.5 137C17.4189 137.121 16.6348 136.944 16.5 137C16.3652 137.056 16.6431 137.028 16.5 137C16.3569 136.971 15.6032 137.103 15.5 137C15.3968 136.897 15.5285 136.143 15.5 136C15.4715 135.857 15.4442 136.135 15.5 136C15.5558 135.865 15.3787 135.081 15.5 135C15.6213 134.919 16.3541 135 16.5 135C16.6956 135 17.3617 134.862 17.5 135C17.6383 135.138 17.5 135.804 17.5 136Z" fill="#FAFAFA"/>
<path d="M17.5 139C17.5 139.156 17.5866 139.87 17.5 140C17.4134 140.129 16.6439 139.94 16.5 140C16.356 140.06 16.6528 140.03 16.5 140C16.3472 139.97 15.6102 140.11 15.5 140C15.3898 139.89 15.5304 139.153 15.5 139C15.4696 138.847 15.4404 139.144 15.5 139C15.5596 138.856 15.3704 138.086 15.5 138C15.6295 137.913 16.3442 138 16.5 138C16.6037 137.999 16.404 137.961 16.5 138C16.5959 138.039 17.4267 137.927 17.5 138C17.5733 138.073 17.4607 138.904 17.5 139C17.5008 138.896 17.5393 139.096 17.5 139Z" fill="#FAFAFA"/>
<path d="M22.5 136H19.5V142H22.5V136Z" fill="#F5F5F5"/>
<path d="M25.5 136H22.5V142H25.5V136Z" fill="#F5F5F5"/>
<path d="M28.5 136H25.5V142H28.5V136Z" fill="#F5F5F5"/>
<path d="M30.5 136H27.5V142H30.5V136Z" fill="#F5F5F5"/>
<path d="M33.5 136H30.5V142H33.5V136Z" fill="#F5F5F5"/>
<path d="M36.5 136H33.5V142H36.5V136Z" fill="#F5F5F5"/>
<path d="M39.5 136H36.5V142H39.5V136Z" fill="#F5F5F5"/>
<path d="M41.5 136H38.5V142H41.5V136Z" fill="#F5F5F5"/>
<path d="M44.5 136H41.5V142H44.5V136Z" fill="#F5F5F5"/>
<path d="M47.5 136H44.5V142H47.5V136Z" fill="#F5F5F5"/>
<path d="M33.5 40C33.4809 39.8957 33.5032 40.1062 33.5 40C33.5 39.7942 33.5096 38.4015 33.5 38C33.4904 37.5985 33.5431 37.5571 33.5 37C33.4815 36.3757 32.6407 35.607 32.5 35C32.3033 34.2814 31.9119 34.6103 31.5 34C31.0308 33.2943 31.2593 32.3263 30.5 32C29.6418 31.6697 28.413 31.0489 27.5 31H24.5C20.4346 30.6286 16.1672 30.0552 13.5 30C12.164 29.9699 12.2709 29.9749 11.5 30H9.49999C9.39979 30.0126 9.60019 30.0126 9.49999 30C9.59951 29.9799 9.39871 30.0033 9.49999 30H11.5C12.2518 29.9649 12.164 29.995 13.5 30C16.1767 30 20.4346 30.6286 24.5 31H27.5C28.4353 31.0504 29.6234 31.6546 30.5 32C31.2957 32.3497 31.0144 33.2524 31.5 34C31.9216 34.6416 33.3101 34.2468 33.5 35C33.6323 35.6213 33.4954 36.3634 33.5 37C33.5 37.5571 33.5 38.6085 33.5 39C33.5 39.3915 33.5 39.7641 33.5 40C33.5165 39.9124 33.5006 40.0893 33.5 40Z" fill="#E0E0E0"/>
<path d="M23.5 39.9999C23.4898 39.9018 23.4898 40.098 23.5 39.9999C23.5 39.7748 23.5 38.3501 23.5 37.9999C23.5 37.6497 23.5444 37.5152 23.5 36.9999C23.472 36.4192 22.7616 36.5173 22.5 35.9999C22.1163 35.419 21.1536 35.2236 20.5 34.9999C19.7592 34.7064 20.2839 33.8635 19.5 33.9999C19.0799 34.0693 18.8742 34.7944 18.5 34.9999C18.1115 35.2005 16.7209 35.619 16.5 35.9999C16.3907 36.1906 16.5 36.7794 16.5 36.9999C16.5 37.2204 16.3907 36.8092 16.5 36.9999C16.6114 37.2001 17.3191 36.8613 17.5 36.9999C17.6809 37.1385 18.2796 36.9459 18.5 36.9999C18.719 37.0496 19.2843 37.0629 19.5 36.9999C19.7157 36.937 19.3406 37.16 19.5 36.9999C19.8194 36.6831 19.4627 37.4512 19.5 36.9999C19.5288 36.5607 19.7673 35.3469 19.5 34.9999C19.2587 34.6504 18.872 34.1996 18.5 33.9999C18.1231 33.8173 17.9163 34.0356 17.5 33.9999C17.1001 33.9399 15.8752 33.0449 15.5 32.9999C14.7446 32.9149 14.127 33.0299 13.5 32.9999C12.2064 32.9499 11.2258 33.0049 10.5 32.9999H9.5C9.40325 33.0118 9.59674 33.0118 9.5 32.9999C9.59373 32.9767 9.4035 33 9.5 32.9999H10.5C11.2258 32.9699 12.2015 32.9699 13.5 32.9999C14.1517 32.9999 14.7396 32.9249 15.5 32.9999C15.8851 33.0399 17.0951 32.9449 17.5 32.9999C17.7024 33.0349 18.2877 33.9599 18.5 33.9999C18.7186 34.0415 18.3029 33.8955 18.5 33.9999C18.9069 34.2082 19.232 34.6262 19.5 34.9999C19.8001 35.3936 19.5296 36.5033 19.5 36.9999C19.4636 37.5174 19.8703 36.6417 19.5 36.9999C19.3088 37.1922 19.7589 36.9247 19.5 36.9999C19.2411 37.0751 18.7627 37.0604 18.5 36.9999C18.2494 36.9372 17.7069 37.1563 17.5 36.9999C17.2931 36.8435 16.6307 37.2254 16.5 36.9999C16.3733 36.7706 16.5 37.2627 16.5 36.9999C16.5 36.7371 16.3733 36.2292 16.5 35.9999C16.7419 35.571 17.0654 35.2238 17.5 34.9999C17.9 34.7861 19.0533 34.071 19.5 33.9999C20.3321 33.8575 19.7183 33.6776 20.5 33.9999C21.1937 34.2458 22.1065 35.3709 22.5 35.9999C22.7655 36.5436 23.4859 36.3935 23.5 36.9999C23.5 37.5252 23.5 37.6547 23.5 37.9999C23.5 38.3451 23.5346 39.7748 23.5 39.9999C23.5292 39.9024 23.4964 40.1017 23.5 39.9999Z" fill="#E0E0E0"/>
<path d="M36.5 39C36.4672 38.9005 36.5156 39.103 36.5 39C36.4612 38.8002 36.5872 37.3769 36.5 37C36.2625 35.9332 34.9487 36.0053 34.5 35C33.8687 33.5023 33.851 31.9944 32.5 31C31.6837 30.4473 30.5017 30.0958 29.5 30C28.4176 29.889 27.5889 29.9979 26.5 30C21.9959 29.9228 16.4495 29.109 13.5 29C12.0471 28.95 12.3233 29.0545 11.5 29H9.49999C9.38891 28.9949 9.60794 29.0251 9.49999 29C9.61123 28.9922 9.38876 28.9922 9.49999 29H11.5C12.3233 29.0272 12.0228 28.9727 13.5 29C16.4495 29.0681 21.991 28.9182 26.5 29C27.6004 28.9971 28.4068 29.8821 29.5 30C30.5408 30.1025 31.657 30.4185 32.5 31C33.2492 31.534 32.9658 31.2735 33.5 32C33.9503 32.6324 35.1968 34.2948 35.5 35C35.9417 36.0245 36.2977 35.9113 36.5 37C36.5726 37.3814 36.4758 38.7956 36.5 39C36.5109 38.9034 36.5077 39.0968 36.5 39Z" fill="#E0E0E0"/>
<path d="M46.5 21H12.5V26H46.5V21Z" fill="#E0E0E0"/>
<path d="M37.5 24H19.5V27H37.5V24Z" fill="#F5F5F5"/>
<path d="M303.5 144H302.5H300.5H291.5H259.5L152.5 145C110.668 145.078 71.9098 145.09 44.5 145C30.7951 144.961 20.1641 145.086 12.5 145C8.64625 144.953 5.5184 144.056 3.5 144C1.4816 143.944 0.485548 144.052 0.499999 144C0.563175 144.015 0.434942 143.995 0.499999 144C0.630064 144 1.23987 143.987 1.5 144C2.01544 144.026 2.48839 143.978 3.5 144C5.51359 144.043 8.67033 143.97 12.5 144C20.1641 144.065 30.7951 144.983 44.5 145C71.9098 145.039 110.668 145.078 152.5 145L259.5 144H291.5H300.5H302.5C303.015 144.009 303.5 144 303.5 144Z" fill="#263238"/>
<path d="M231.5 37.0001C231.325 36.4064 231.013 35.3134 230.5 35.0001C229.987 34.6868 231.081 33.868 230.5 34.0001C230.086 34.183 228.948 34.956 228.5 35.0001C228.111 34.9301 227.843 34.2027 227.5 34.0001C226.639 33.6612 225.343 33.6155 224.5 34.0001C223.657 34.3847 222.848 36.1099 222.5 37.0001C221.942 36.6755 221.137 35.9473 220.5 36.0001C219.863 36.0529 219.002 36.5875 218.5 37.0001C217.998 37.4127 218.699 38.366 218.5 39.0001C218.301 39.6342 218.329 39.357 218.5 40.0001C217.899 40.1206 216.914 43.5285 216.5 44.0001C216.086 44.4717 215.563 44.3636 215.5 45.0001C215.437 45.6366 216.187 46.4501 216.5 47.0001C216.813 47.5501 216.935 47.7537 217.5 48.0001C217.246 48.4757 217.511 48.4555 217.5 49.0001C217.489 49.5447 217.266 50.5134 217.5 51.0001C217.734 51.4868 218.075 52.6849 218.5 53.0001C218.925 53.3153 218.983 52.9298 219.5 53.0001C219.417 53.5873 219.26 53.4622 219.5 54.0001C219.74 54.538 220.017 54.6886 220.5 55.0001C220.983 55.3116 222.932 56.0177 223.5 56.0001C224.068 55.9825 224.035 55.341 224.5 55.0001C224.631 55.5686 224.094 56.5982 224.5 57.0001C224.906 57.402 225.95 57.895 226.5 58.0001C227.05 58.1052 227.984 58.2258 228.5 58.0001C229.016 57.7744 230.185 56.4835 230.5 56.0001C231.483 57.0471 232.47 56.9926 233.5 56.0001C234.53 55.0076 234.657 54.4541 234.5 53.0001C235.108 53.1924 235.9 53.2186 236.5 53.0001C237.1 52.7816 237.138 52.5456 237.5 52.0001C237.862 51.4546 238.515 49.6635 238.5 49.0001C238.485 48.3367 237.886 48.527 237.5 48.0001C238.016 47.9443 239.099 47.3442 239.5 47.0001C239.901 46.656 240.347 46.5183 240.5 46.0001C240.641 45.4779 240.599 44.5326 240.5 44.0001C240.401 43.4675 239.818 40.4293 239.5 40.0001C238.849 39.1461 237.524 39.2166 236.5 39.0001C236.418 38.5102 236.765 39.413 236.5 39.0001C236.235 38.5872 236.903 37.2648 236.5 37.0001C236.097 36.7354 234.971 37.071 234.5 37.0001C234.029 36.9292 232.958 36.8649 232.5 37.0001" fill="#263238"/>
<path d="M228.5 107L227.5 145H225.5V107H228.5Z" fill="#455A64"/>
<path d="M234.5 107L242.5 147H244.5L237.5 107H234.5Z" fill="#455A64"/>
<path d="M218.5 107L208.5 147H205.5L215.5 107H218.5Z" fill="#455A64"/>
<path d="M243.5 65.0001C243.5 65.0001 253.461 63.8181 252.5 75.0001C251.539 86.1822 251.069 98.1196 247.5 102C243.931 105.881 208.521 106.172 205.5 103C202.479 99.8278 210.854 100 212.5 100C214.146 100 224.203 100.689 227.5 92.0001C230.797 83.3109 229.497 64.4355 243.5 65.0001Z" fill="#455A64"/>
<path d="M243.5 65C243.5 65 250.174 66.1418 249.5 74C248.826 81.8582 247.022 96.4891 243.5 100C239.978 103.511 225.947 103.481 218.5 103C209.849 102.436 205.5 102 205.5 102C205.5 102 203.018 101.324 203.5 102C203.982 102.676 209.047 106.447 229.5 106C249.953 105.553 247.652 102.419 248.5 99C249.348 95.5815 251.748 78.0118 251.5 74C251.252 69.9882 249.233 65.6954 243.5 65Z" fill="#455A64"/>
<path d="M199.5 144V140H208.5V146L207.5 147C205.246 147.134 195.017 147.385 193.5 147C191.812 146.578 199.5 144 199.5 144Z" fill="#318FFF"/>
<g opacity="0.4">
<path opacity="0.4" d="M204.5 146C204.615 145.133 204.946 144.552 205.5 144C206.043 143.453 206.8 142.95 207.5 143V146H204.5Z" fill="black"/>
</g>
<path d="M199.5 145C199.474 145 198.635 145.126 198.5 145C198.404 144.93 198.534 144.089 198.5 144C198.526 144 199.365 143.878 199.5 144C199.635 144.123 199.526 145 199.5 145Z" fill="#263238"/>
<path d="M199.5 145C199.5 145 198.619 145.123 198.5 145C198.381 144.878 198.484 144.018 198.5 144C198.516 143.982 199.381 143.878 199.5 144C199.619 144.123 199.512 144.982 199.5 145Z" fill="#263238"/>
<path d="M199.5 143C199.373 143.055 199.636 143.014 199.5 143C199.366 143.021 198.629 143.046 198.5 143C198.627 142.945 199.364 142.986 199.5 143C199.371 142.958 199.634 142.983 199.5 143Z" fill="#263238"/>
<path d="M199.5 143C199.386 143.101 199.64 143.003 199.5 143C199.367 143.029 198.622 143.07 198.5 143C198.629 142.973 199.369 142.998 199.5 143C199.369 143.003 199.629 142.971 199.5 143Z" fill="#263238"/>
<path d="M199.5 144C199.331 144.022 198.669 144.022 198.5 144C198.316 143.984 198.677 144.044 198.5 144C198.39 143.979 197.598 144.044 197.5 144C197.439 143.973 197.522 143.052 197.5 143C197.492 142.971 197.486 143.028 197.5 143C197.514 142.972 197.469 143.018 197.5 143C197.692 142.922 198.289 142.963 198.5 143C198.711 143.037 199.368 142.866 199.5 143C199.582 143.078 199.469 143.903 199.5 144C199.51 143.966 199.51 144.034 199.5 144C199.445 143.879 199.603 143.1 199.5 143C199.384 142.896 198.67 143.039 198.5 143C198.4 142.975 198.604 142.993 198.5 143C198.396 143.007 197.593 142.963 197.5 143C197.417 143.047 197.412 142.961 197.5 143C197.592 143.04 198.399 143.978 198.5 144C198.671 144.045 198.322 143.978 198.5 144C198.827 144.043 199.5 143.989 199.5 144Z" fill="#263238"/>
<path d="M198.5 144C198.456 143.933 198.484 144.076 198.5 144C198.509 143.917 198.445 143.069 198.5 143C198.53 142.953 198.447 143.029 198.5 143C198.553 142.971 199.437 143.004 199.5 143C199.538 143.006 199.478 142.973 199.5 143C199.522 143.027 199.507 142.967 199.5 143C199.492 143.051 199.532 142.957 199.5 143C199.453 143.07 199.567 143.943 199.5 144C199.445 144.058 198.58 143.972 198.5 144C198.4 144.1 198.5 144 198.5 144C198.558 143.94 199.456 143.068 199.5 143C199.55 142.931 199.583 143.014 199.5 143C199.417 142.986 198.553 142.937 198.5 143C198.448 143.061 198.515 143.925 198.5 144C198.497 143.928 198.488 144.071 198.5 144Z" fill="#263238"/>
<path d="M208.5 143C208.5 143 207.958 142.967 207.5 143C206.899 143.076 205.973 143.645 205.5 144C205.032 144.365 204.697 144.46 204.5 145C204.351 145.413 204.524 146 204.5 146C204.488 145.936 204.488 146.065 204.5 146C204.513 145.824 204.446 145.169 204.5 145C204.675 144.433 205.012 144.374 205.5 144C205.988 143.627 206.873 143.048 207.5 143C207.697 142.977 208.303 142.977 208.5 143C208.445 142.979 208.559 143.008 208.5 143Z" fill="#263238"/>
<path d="M206.5 141C206.598 141.997 206.541 142.999 206.5 144C206.409 143.002 206.465 142.001 206.5 141Z" fill="#263238"/>
<path d="M204.5 145C203.512 145.161 202.496 145.125 201.5 145C201.5 144.971 202.666 145 203.5 145C204.334 145 204.494 144.971 204.5 145Z" fill="#263238"/>
<path d="M204.5 145C204.5 145 204.552 145.885 204.5 146C204.448 146.115 204.528 146 204.5 146C204.472 146 204.458 145.128 204.5 145C204.481 144.982 204.542 144.872 204.5 145Z" fill="#263238"/>
<path d="M205.802 144.004C205.825 144.004 205.773 144.11 205.688 144.197C205.603 144.285 205.523 144.343 205.504 144.323C205.485 144.304 205.532 144.217 205.617 144.13C205.702 144.042 205.783 143.984 205.802 144.004Z" fill="#263238"/>
<path d="M207.483 143.447C207.483 143.476 207.365 143.476 207.247 143.524C207.129 143.573 207.044 143.636 207.025 143.617C207.006 143.597 207.067 143.481 207.214 143.428C207.36 143.374 207.487 143.423 207.483 143.447Z" fill="#263238"/>
<path d="M208.072 143.277C208.072 143.301 208.034 143.345 207.968 143.373C207.903 143.402 207.837 143.402 207.827 143.373C207.818 143.345 207.865 143.306 207.931 143.277C207.997 143.248 208.072 143.248 208.072 143.277Z" fill="#263238"/>
<path d="M218.694 143.476L218.666 139.021L226.803 138.919L226.907 145.44L226.401 145.479C224.158 145.634 214.987 146.109 213.48 145.663C211.799 145.159 218.694 143.476 218.694 143.476Z" fill="#318FFF"/>
<g opacity="0.4">
<path opacity="0.4" d="M223.955 145.411C224.067 144.705 224.428 144.066 224.97 143.617C225.501 143.172 226.175 142.947 226.859 142.986L226.892 145.319L223.955 145.411Z" fill="black"/>
</g>
<path opacity="0.4" d="M215.327 144.421C215.327 144.421 212.914 145.168 213.221 145.576C213.528 145.983 222.812 145.862 226.916 145.44V145.251L216.087 145.488C216.087 145.488 215.799 144.436 215.327 144.421Z" fill="black"/>
<path d="M216.064 145.62C215.994 145.369 215.897 145.126 215.775 144.897C215.628 144.687 215.456 144.494 215.265 144.324C215.52 144.416 215.732 144.601 215.86 144.844C216.016 145.069 216.089 145.344 216.064 145.62Z" fill="#263238"/>
<path d="M218.463 144.34C218.439 144.34 218.321 144.214 218.198 144.02C218.075 143.825 218 143.665 218.023 143.646C218.047 143.627 218.16 143.777 218.283 143.966C218.37 144.075 218.431 144.203 218.463 144.34Z" fill="#263238"/>
<path d="M219.1 143.972C219.1 143.972 218.954 143.908 218.812 143.777C218.67 143.646 218.571 143.53 218.585 143.51C218.6 143.491 218.736 143.573 218.878 143.704C219.02 143.836 219.119 143.952 219.1 143.972Z" fill="#263238"/>
<path d="M219.506 143.175C219.373 143.23 219.229 143.252 219.086 143.238C218.941 143.258 218.794 143.245 218.656 143.2C218.791 143.144 218.936 143.123 219.081 143.137C219.224 143.119 219.368 143.133 219.506 143.175Z" fill="#263238"/>
<path d="M219.643 142.618C219.505 142.719 219.34 142.771 219.171 142.768C219.011 142.796 218.846 142.774 218.699 142.705C218.855 142.678 219.013 142.665 219.171 142.667C219.327 142.638 219.485 142.621 219.643 142.618Z" fill="#263238"/>
<path d="M218.16 143.612C217.988 143.642 217.813 143.642 217.641 143.612C217.45 143.591 217.262 143.55 217.079 143.491C216.968 143.463 216.862 143.419 216.763 143.36C216.731 143.343 216.703 143.32 216.68 143.291C216.658 143.263 216.641 143.23 216.63 143.195C216.621 143.156 216.624 143.115 216.637 143.077C216.651 143.039 216.675 143.006 216.706 142.982C216.833 142.912 216.975 142.872 217.119 142.867C217.264 142.862 217.407 142.891 217.539 142.952C217.671 143.013 217.788 143.104 217.88 143.219C217.972 143.333 218.037 143.468 218.071 143.612C218.08 143.659 218.08 143.707 218.071 143.753C218.014 143.59 217.931 143.437 217.825 143.302C217.707 143.16 217.551 143.057 217.376 143.006C217.274 142.972 217.167 142.96 217.06 142.969C216.953 142.978 216.848 143.009 216.753 143.059C216.673 143.122 216.706 143.224 216.8 143.278C216.893 143.332 216.991 143.374 217.093 143.404C217.27 143.465 217.452 143.511 217.636 143.54C217.962 143.598 218.16 143.598 218.16 143.612Z" fill="#263238"/>
<path d="M218.028 143.642C217.993 143.587 217.969 143.526 217.958 143.462C217.946 143.398 217.948 143.332 217.962 143.268C217.976 143.128 218.023 142.993 218.099 142.875C218.142 142.794 218.204 142.726 218.28 142.677C218.356 142.628 218.443 142.599 218.533 142.594C218.586 142.606 218.632 142.638 218.662 142.684C218.692 142.73 218.704 142.787 218.694 142.841C218.685 142.928 218.656 143.011 218.609 143.084C218.543 143.203 218.462 143.312 218.368 143.409C218.288 143.507 218.186 143.584 218.07 143.632C218.07 143.632 218.174 143.535 218.316 143.365C218.397 143.264 218.468 143.156 218.528 143.04C218.599 142.924 218.647 142.72 218.528 142.696C218.41 142.672 218.269 142.822 218.188 142.929C218.117 143.033 218.069 143.152 218.047 143.278C218.027 143.398 218.021 143.52 218.028 143.642Z" fill="#263238"/>
<path d="M226.821 142.962C226.821 142.962 226.59 142.962 226.222 142.991C225.745 143.057 225.294 143.255 224.918 143.563C224.547 143.88 224.27 144.297 224.115 144.766C223.992 145.125 223.983 145.362 223.964 145.362C223.954 145.306 223.954 145.249 223.964 145.193C223.974 145.039 224.003 144.888 224.049 144.742C224.19 144.249 224.471 143.812 224.857 143.486C225.246 143.164 225.719 142.969 226.217 142.923C226.364 142.905 226.513 142.905 226.661 142.923C226.716 142.929 226.77 142.942 226.821 142.962Z" fill="#263238"/>
<path d="M225.938 139.491C226.029 140.631 226.058 141.776 226.023 142.919C225.926 141.78 225.897 140.635 225.938 139.491Z" fill="#263238"/>
<path d="M222.92 144.61C222.143 144.772 221.343 144.79 220.559 144.664C220.559 144.635 221.093 144.664 221.749 144.664C222.406 144.664 222.916 144.581 222.92 144.61Z" fill="#263238"/>
<path d="M224.517 144.587C224.517 144.587 224.474 144.703 224.422 144.829C224.37 144.956 224.337 145.067 224.314 145.067C224.29 145.067 224.266 144.931 224.314 144.791C224.361 144.65 224.498 144.567 224.517 144.587Z" fill="#263238"/>
<path d="M225.107 143.81C225.107 143.81 225.074 143.917 224.994 144.004C224.913 144.091 224.824 144.149 224.805 144.13C224.786 144.111 224.838 144.024 224.918 143.936C224.998 143.849 225.074 143.791 225.107 143.81Z" fill="#263238"/>
<path d="M225.962 143.447C225.962 143.476 225.849 143.476 225.73 143.524C225.612 143.573 225.527 143.636 225.504 143.617C225.48 143.597 225.546 143.481 225.697 143.428C225.849 143.374 225.971 143.423 225.962 143.447Z" fill="#263238"/>
<path d="M226.57 143.277C226.57 143.301 226.533 143.345 226.467 143.373C226.401 143.402 226.34 143.402 226.33 143.373C226.321 143.345 226.363 143.306 226.429 143.277C226.495 143.248 226.561 143.248 226.57 143.277Z" fill="#263238"/>
<path d="M202.949 51.7764C202.382 57.594 200.885 75.2407 208.739 74.625C218.009 73.9026 220.144 66.3834 220.144 66.3834L218.34 59.5962C218.34 59.5962 209.192 67.7845 208.956 66.7712C207.672 61.3657 208.012 53.9532 208.219 51.311" fill="#FFBE9D"/>
<path d="M243.964 72.5893L242.377 64.4253C241.211 57.7399 232.082 57.2794 232.082 57.2794L224.918 57.1582C224.918 57.1582 220.144 57.003 216.328 60.2221C212.512 63.4412 209.962 65.9039 209.962 65.9039L215.96 73.0208L219.506 70.5968C219.506 70.5968 218.231 72.9626 218.444 74.96C218.642 76.8991 220.626 78.3875 220.626 78.3875L221.098 90.8952L242.349 91.1328L239.501 72.5893H243.964Z" fill="#318FFF"/>
<path d="M233.957 63.9209C234.015 64.089 234.056 64.2628 234.08 64.4396L234.358 65.894C234.595 67.1642 234.906 68.8028 235.251 70.6208C235.596 72.4388 235.884 74.1501 236.073 75.367C236.167 75.9778 236.233 76.4723 236.271 76.8214C236.302 76.9989 236.313 77.1794 236.304 77.3595C236.24 77.1912 236.198 77.0153 236.177 76.8359L235.903 75.4058C235.662 74.1356 235.35 72.497 235.01 70.6741C234.67 68.8513 234.373 67.1497 234.184 65.928C234.094 65.3171 234.023 64.8226 233.985 64.4736C233.952 64.2914 233.943 64.1056 233.957 63.9209Z" fill="#263238"/>
<path d="M244.115 72.6667C242.679 72.8016 241.236 72.8502 239.794 72.8123C238.351 72.8561 236.907 72.8189 235.468 72.7007C236.904 72.5659 238.347 72.5173 239.789 72.5551C241.232 72.5113 242.676 72.5485 244.115 72.6667Z" fill="#263238"/>
<path d="M215.946 73.0205C214.894 71.8957 213.9 70.7143 212.97 69.4815C211.978 68.3019 211.048 67.0688 210.184 65.7874C211.237 66.9098 212.23 68.0896 213.159 69.3215C214.152 70.5022 215.082 71.737 215.946 73.0205Z" fill="#263238"/>
<path d="M218.463 72.7196C218.566 72.3818 218.706 72.0566 218.878 71.75L219.384 70.7125C219.642 70.346 219.767 69.8985 219.738 69.4472C219.563 68.4776 219.398 67.5565 219.299 66.9068C219.218 66.5557 219.179 66.1961 219.181 65.8354C219.315 66.1687 219.412 66.5168 219.469 66.8729C219.61 67.5225 219.804 68.4049 219.983 69.4133C220.033 69.6767 220.001 69.9493 219.894 70.1938C219.803 70.408 219.7 70.6168 219.587 70.8192L219.029 71.8372C218.875 72.1534 218.685 72.4496 218.463 72.7196Z" fill="#263238"/>
<path opacity="0.2" d="M221.036 89.3106L220.729 84.6558H241.211L241.99 88.6948L221.036 89.3106Z" fill="black"/>
<path opacity="0.2" d="M234.151 64.6577C234.245 67.5051 234.336 70.3509 234.425 73.195C234.533 74.1107 234.407 75.0394 234.061 75.8905C233.348 77.2818 231.662 77.7375 230.165 78.0527L221.036 79.9919L237.948 79.1435L234.151 64.6577Z" fill="black"/>
<path d="M244.942 79.1338C244.469 75.2118 243.969 72.6812 243.969 72.6812L235.648 72.812C235.648 72.812 236.394 77.1267 236.167 78.2806C235.964 79.2841 219.912 79.9483 215.733 80.0161C215.483 79.8271 215.119 80.147 214.789 79.861C214.504 79.6037 214.265 79.2988 214.08 78.9593C213.83 78.5441 213.636 78.0955 213.504 77.6261C213.497 77.5327 213.462 77.444 213.402 77.3731C213.343 77.3021 213.263 77.2526 213.174 77.232C213.085 77.2113 212.992 77.2206 212.908 77.2584C212.825 77.2962 212.756 77.3605 212.711 77.4419C212.545 77.8103 212.734 79.032 213.528 80.2149C214.321 81.3978 212.238 80.7821 211.478 80.5737C210.718 80.3652 208.323 79.8319 208.078 80.0307C207.714 80.3167 207.941 80.7773 208.711 80.9712C209.48 81.1651 211.738 81.902 211.615 82.3189C211.492 82.7359 207.62 81.6111 207.62 81.6111C207.62 81.6111 206.831 81.2281 206.675 81.7081C206.392 82.571 210.586 83.4485 210.992 83.5212C211.27 83.5697 211.147 84.0303 210.855 83.9624C210.562 83.8945 207.015 82.7456 206.718 83.623C206.486 84.2969 210.165 84.3745 210.774 85.0435C211.384 85.7125 207.993 84.6799 207.795 85.3344C207.724 85.5768 209.136 85.6883 211.162 85.984C213.244 86.1881 215.337 86.2642 217.428 86.2119C222.151 86.4736 238.75 86.8275 242.297 86.5706C246.439 86.27 245.102 80.4815 244.942 79.1338Z" fill="#FFBE9D"/>
<path d="M244.828 68.1729H244.951C245.036 68.1729 245.159 68.2116 245.315 68.2553C245.771 68.4049 246.208 68.6134 246.613 68.8758C247.252 69.2895 247.85 69.7669 248.398 70.3011C248.719 70.6114 249.05 70.9556 249.381 71.3434C249.734 71.7488 250.05 72.187 250.325 72.6524C250.401 72.7813 250.464 72.9177 250.514 73.0596C250.547 73.2002 250.58 73.3456 250.618 73.4911C250.684 73.7819 250.764 74.0728 250.826 74.3783C250.939 74.9891 251.057 75.6242 251.133 76.2932C251.302 77.7098 251.357 79.1383 251.298 80.5643C251.115 83.8272 250.581 87.0593 249.706 90.202C249.312 91.8501 248.812 93.4696 248.209 95.05C247.631 96.5201 246.859 97.9018 245.914 99.1563C245.476 99.7425 244.979 100.28 244.431 100.761C243.893 101.191 243.308 101.555 242.689 101.847C241.575 102.34 240.424 102.737 239.246 103.035C237.097 103.597 235.341 103.946 234.132 104.213L232.715 104.513L232.351 104.586H232.224L232.347 104.542L232.701 104.445C233.017 104.363 233.485 104.242 234.089 104.096C235.289 103.801 237.045 103.427 239.18 102.846C240.343 102.536 241.48 102.133 242.58 101.638C243.18 101.348 243.747 100.99 244.271 100.572C244.803 100.096 245.287 99.5668 245.716 98.9914C246.64 97.7506 247.396 96.3873 247.964 94.9385C248.559 93.3723 249.053 91.7673 249.442 90.1342C250.315 87.0087 250.853 83.7949 251.048 80.5497C251.112 79.1357 251.065 77.7187 250.906 76.3126C250.835 75.6533 250.727 75.0182 250.613 74.4122C250.557 74.1116 250.481 73.8207 250.415 73.5299L250.316 73.1032C250.275 72.974 250.22 72.8503 250.15 72.7348C249.873 72.2772 249.557 71.8457 249.206 71.4452C248.885 71.0574 248.559 70.7083 248.261 70.3981C247.725 69.8596 247.142 69.3728 246.519 68.9437C246.125 68.6754 245.702 68.4557 245.258 68.2892C245.113 68.2586 244.969 68.2198 244.828 68.1729Z" fill="#263238"/>
<path d="M207.908 52.7125C207.908 52.7125 208.036 52.0871 208.248 50.2885L210.199 46.3762C210.199 46.3762 209.764 45.5569 208.782 47.2924C208.681 47.5284 208.493 47.7135 208.259 47.8072C208.026 47.9008 207.765 47.8953 207.535 47.7918C207.305 47.6883 207.125 47.4953 207.034 47.2553C206.943 47.0152 206.948 46.7478 207.049 46.5119C207.111 46.2083 207.259 45.93 207.473 45.7114C207.688 45.4927 207.96 45.3433 208.256 45.2815C208.552 45.2196 208.859 45.2481 209.14 45.3633C209.421 45.4786 209.662 45.6756 209.835 45.9301C209.835 45.9301 210.459 45.9932 210.529 45.4987C210.6 45.0042 209.193 43.7631 207.998 44.1219C207.509 44.2808 207.059 44.5434 206.676 44.8927C206.676 44.8927 206.935 40.7768 206.61 40.738C206.284 40.6992 205.83 40.9561 205.585 45.4647C205.585 45.4647 205.448 41.9063 205.382 41.4506C205.316 40.9949 204.716 40.6895 204.64 41.8288C204.64 41.9597 204.413 45.455 204.413 45.455C204.413 45.455 204.026 43.1426 203.984 42.9583C203.87 42.4735 203.403 42.522 203.36 43.1668C203.323 43.6516 203.171 45.7508 203.171 45.7508L202.879 52.1986H202.841" fill="#FFBE9D"/>
<path d="M224.314 59.2961C224.267 57.1921 224.186 54.9911 224.186 54.9911C224.186 54.9911 221.164 54.6032 221.032 51.4327C220.899 48.2621 221.211 40.9659 221.211 40.9659L226.775 38.2219L231.634 43.9086L231.705 59.1894C231.708 59.6895 231.614 60.1852 231.429 60.648C231.244 61.1108 230.972 61.5316 230.629 61.8861C230.285 62.2407 229.877 62.522 229.427 62.714C228.977 62.906 228.494 63.0048 228.007 63.0048C227.041 63.005 226.114 62.6169 225.424 61.9237C224.733 61.2304 224.335 60.2872 224.314 59.2961Z" fill="#FFBE9D"/>
<path d="M221.99 46.2985C221.99 46.3769 222.013 46.4537 222.055 46.519C222.097 46.5843 222.158 46.6353 222.228 46.6655C222.299 46.6958 222.376 46.7039 222.451 46.689C222.526 46.674 222.595 46.6366 222.65 46.5815C222.704 46.5263 222.741 46.4559 222.757 46.379C222.772 46.3022 222.765 46.2223 222.736 46.1496C222.708 46.0768 222.659 46.0143 222.596 45.97C222.533 45.9257 222.458 45.9016 222.382 45.9006C222.279 45.9006 222.18 45.9424 222.107 46.0169C222.033 46.0913 221.991 46.1925 221.99 46.2985Z" fill="#263238"/>
<path d="M221.357 45.8536C221.404 45.907 221.692 45.6544 222.108 45.6398C222.523 45.6253 222.83 45.839 222.873 45.7807C222.915 45.7224 222.845 45.6593 222.712 45.5573C222.533 45.4283 222.317 45.3635 222.099 45.3727C221.878 45.3823 221.667 45.4678 221.499 45.6156C221.376 45.7273 221.334 45.8293 221.357 45.8536Z" fill="#263238"/>
<path d="M226.49 46.2985C226.49 46.3769 226.513 46.4537 226.555 46.519C226.598 46.5843 226.658 46.6353 226.728 46.6655C226.799 46.6958 226.877 46.7039 226.952 46.689C227.027 46.674 227.096 46.6366 227.15 46.5815C227.204 46.5263 227.241 46.4559 227.257 46.379C227.272 46.3022 227.265 46.2223 227.237 46.1496C227.208 46.0768 227.159 46.0143 227.096 45.97C227.033 45.9257 226.959 45.9016 226.882 45.9006C226.779 45.9006 226.68 45.9424 226.607 46.0169C226.534 46.0913 226.492 46.1925 226.49 46.2985Z" fill="#263238"/>
<path d="M225.948 45.9261C225.995 45.9747 226.283 45.7269 226.698 45.7124C227.114 45.6978 227.421 45.9115 227.463 45.8532C227.506 45.7949 227.435 45.7318 227.303 45.6298C227.123 45.5009 226.908 45.436 226.689 45.4452C226.469 45.4556 226.259 45.5392 226.089 45.6832C225.967 45.8095 225.924 45.9261 225.948 45.9261Z" fill="#263238"/>
<path d="M224.389 49.5908C224.169 49.5256 223.942 49.4898 223.714 49.4841C223.61 49.4841 223.511 49.4598 223.487 49.3774C223.479 49.2587 223.502 49.1398 223.553 49.0331C223.652 48.7471 223.752 48.4464 223.855 48.1313C224.135 47.3676 224.358 46.583 224.521 45.7844C224.188 46.525 223.909 47.29 223.685 48.0731C223.586 48.3882 223.492 48.6889 223.397 48.9749C223.328 49.1262 223.311 49.2974 223.35 49.4598C223.366 49.499 223.39 49.5339 223.421 49.5617C223.453 49.5895 223.49 49.6094 223.53 49.6198C223.588 49.6365 223.648 49.6447 223.709 49.6441C223.937 49.6563 224.166 49.6383 224.389 49.5908Z" fill="#263238"/>
<path d="M224.186 54.9911C225.62 54.9546 227.013 54.4876 228.191 53.6479C228.191 53.6479 227.247 55.956 224.238 55.7717L224.186 54.9911Z" fill="#EB996E"/>
<path d="M224.54 50.7058C224.565 50.5729 224.621 50.4483 224.704 50.3427C224.786 50.237 224.892 50.1535 225.013 50.0993C225.097 50.0596 225.189 50.0391 225.282 50.0391C225.375 50.0391 225.467 50.0596 225.551 50.0993C225.635 50.1455 225.703 50.2164 225.747 50.303C225.79 50.3895 225.808 50.4876 225.797 50.5845C225.772 50.6886 225.719 50.783 225.642 50.8555C225.566 50.9281 225.47 50.9756 225.367 50.992C225.162 51.0254 224.952 51.0122 224.753 50.9532C224.696 50.9425 224.642 50.9211 224.592 50.8901C224.568 50.8749 224.548 50.8524 224.536 50.8255C224.525 50.7986 224.521 50.7687 224.526 50.7397" fill="#EB996E"/>
<path d="M225.546 49.571C225.579 49.571 225.631 49.6875 225.617 49.8961C225.594 50.1717 225.473 50.429 225.277 50.6187C225.081 50.8084 224.824 50.9173 224.554 50.9246C224.351 50.9246 224.238 50.8664 224.243 50.8373C224.247 50.8082 224.715 50.8034 225.107 50.4346C225.499 50.0659 225.499 49.571 225.546 49.571Z" fill="#263238"/>
<path d="M216.677 64.5756C216.734 64.1203 216.868 63.6788 217.074 63.2713C217.209 62.8319 217.42 62.4211 217.697 62.0591C217.643 62.5165 217.509 62.96 217.301 63.3683C217.17 63.8078 216.958 64.2176 216.677 64.5756Z" fill="#263238"/>
<path d="M223.733 65.6326C222.767 65.3059 221.918 64.6895 221.296 63.8628C222.131 64.4283 222.95 65.0185 223.752 65.6326H223.733Z" fill="#263238"/>
<path d="M222.855 59.3733C222.208 59.7803 221.483 60.0369 220.729 60.1253C221.034 59.8907 221.383 59.7254 221.754 59.6401C222.098 59.4701 222.473 59.3791 222.855 59.3733Z" fill="#263238"/>
<path d="M222.382 72.1045C222.872 71.093 223.509 70.1643 224.271 69.3503C224.057 69.8744 223.771 70.3642 223.421 70.805C223.137 71.2869 222.787 71.7245 222.382 72.1045Z" fill="#263238"/>
<path d="M222.784 77.3164C222.289 77.0387 221.835 76.6892 221.438 76.2788C220.989 75.9285 220.59 75.5156 220.252 75.052C221.199 75.6767 222.051 76.4395 222.784 77.3164Z" fill="#263238"/>
<path d="M226.349 76.8267C226.172 76.3104 226.028 75.7823 225.92 75.246C225.729 74.7317 225.572 74.2053 225.447 73.6702C225.794 74.1082 226.032 74.6255 226.142 75.1781C226.333 75.704 226.405 76.2681 226.349 76.8267Z" fill="#263238"/>
<path d="M232.895 76.9133C232.027 77.3633 231.091 77.6601 230.127 77.7915C230.993 77.3358 231.93 77.0387 232.895 76.9133Z" fill="#263238"/>
<path d="M233.206 71.5515C232.314 72.2364 231.329 72.7836 230.283 73.1759C231.172 72.4862 232.158 71.9385 233.206 71.5515Z" fill="#263238"/>
<path d="M229.759 69.4335C229.054 68.6946 228.47 67.843 228.031 66.9121C228.736 67.651 229.32 68.5026 229.759 69.4335Z" fill="#263238"/>
<path d="M232.337 63.7705C232.337 63.7705 232.276 63.7705 232.2 63.7172L232.28 63.6833C232.269 64.185 232.206 64.684 232.092 65.1719C232.011 65.7191 231.83 66.2457 231.558 66.7235C231.597 66.179 231.696 65.6407 231.851 65.1185C231.992 64.4688 232.106 63.9112 232.186 63.6639L232.214 63.5669L232.266 63.6348C232.323 63.7124 232.347 63.7608 232.337 63.7705Z" fill="#263238"/>
<path d="M237.948 59.9848C236.82 59.9182 235.706 59.6862 234.642 59.2959C235.208 59.2855 235.773 59.359 236.319 59.5142C236.88 59.5927 237.429 59.7511 237.948 59.9848Z" fill="#263238"/>
<path d="M236.606 65.4777C236.535 65.0416 236.546 64.5954 236.639 64.1636C236.655 63.7229 236.749 63.2889 236.918 62.8835C236.99 63.3197 236.978 63.7658 236.885 64.1976C236.87 64.6383 236.775 65.0723 236.606 65.4777Z" fill="#263238"/>
<path d="M239.586 67.0916C239.615 66.6915 239.725 66.3019 239.907 65.9472C240.02 65.564 240.206 65.2078 240.455 64.8999C240.426 65.3 240.317 65.6896 240.134 66.0442C240.024 66.4283 239.837 66.7849 239.586 67.0916Z" fill="#263238"/>
<path d="M239.61 70.1655C239.071 69.9157 238.568 69.5892 238.118 69.1958C237.616 68.8796 237.161 68.4909 236.767 68.0417C237.306 68.2914 237.809 68.6179 238.259 69.0115C238.759 69.3304 239.214 69.7188 239.61 70.1655Z" fill="#263238"/>
<path d="M225.301 89.6545C224.874 89.5087 224.477 89.2835 224.13 88.9902C223.734 88.7651 223.382 88.4676 223.091 88.1125C223.517 88.2642 223.915 88.4906 224.266 88.7817C224.659 89.0071 225.009 89.3027 225.301 89.6545Z" fill="#263238"/>
<path d="M230.694 87.7048C230.434 88.2353 230.101 88.7251 229.707 89.1595C229.377 89.6438 228.981 90.0765 228.531 90.4444C228.791 89.914 229.123 89.4242 229.518 88.9898C229.847 88.5055 230.243 88.0727 230.694 87.7048Z" fill="#263238"/>
<path d="M236.295 90.3723C236.374 89.9467 236.535 89.5414 236.767 89.1795C236.932 88.779 237.171 88.4151 237.471 88.1079C237.223 88.9357 236.819 89.7052 236.281 90.3723H236.295Z" fill="#263238"/>
<path d="M234.797 90.6873C234.485 90.3838 234.232 90.0217 234.051 89.6205C233.804 89.2596 233.623 88.8554 233.518 88.4277C233.832 88.7295 234.086 89.092 234.264 89.4945C234.515 89.8531 234.696 90.2581 234.797 90.6873Z" fill="#263238"/>
<path d="M220.994 40.2192C220.714 40.3831 220.478 40.6149 220.305 40.8942C220.133 41.1736 220.029 41.492 220.004 41.8218C219.979 42.1515 220.033 42.4825 220.162 42.7859C220.29 43.0893 220.488 43.3559 220.74 43.5624C220.992 43.7688 221.289 43.9089 221.606 43.9704C221.922 44.0318 222.249 44.0128 222.556 43.915C222.864 43.8171 223.144 43.6435 223.371 43.4091C223.599 43.1747 223.767 42.8868 223.861 42.5705C223.702 42.9047 223.653 43.2831 223.723 43.648C223.793 44.013 223.977 44.3445 224.248 44.5921C224.527 44.8284 224.864 44.9815 225.222 45.0345C225.58 45.0875 225.946 45.0384 226.278 44.8927C226.609 44.7404 226.902 44.5143 227.137 44.2308C227.371 43.9473 227.541 43.6136 227.634 43.254C227.639 43.6063 227.724 43.9524 227.881 44.2654C228.039 44.5783 228.265 44.8495 228.542 45.0576C228.819 45.2658 229.139 45.4051 229.477 45.4648C229.815 45.5245 230.162 45.5029 230.491 45.4017C230.154 45.6194 229.883 45.9294 229.709 46.2967C229.535 46.664 229.464 47.074 229.505 47.4804C229.546 47.8867 229.696 48.2733 229.94 48.5965C230.183 48.9196 230.51 49.1665 230.883 49.3092C230.48 49.5685 230.184 49.9698 230.049 50.4378C229.914 50.9058 229.951 51.4081 230.151 51.8505C230.352 52.2929 230.703 52.6448 231.139 52.8401C231.574 53.0354 232.064 53.0607 232.517 52.9112C233.461 52.6106 234.023 51.6507 234.406 50.7151C235.417 48.1678 235.407 45.3137 234.378 42.7741C233.847 41.5252 233.045 40.4174 232.033 39.5352C231.021 38.653 229.827 38.0197 228.541 37.6837C227.252 37.3693 225.907 37.4051 224.636 37.7877C223.366 38.1703 222.215 38.8864 221.296 39.8653" fill="#263238"/>
<path d="M236.673 40.5101C236.673 40.5101 236.673 40.544 236.696 40.6168C236.709 40.7198 236.709 40.824 236.696 40.9271C236.646 41.3173 236.481 41.6826 236.224 41.9744C236.023 42.206 235.766 42.3796 235.48 42.4783C235.193 42.5769 234.887 42.5971 234.59 42.5369C234.207 42.4523 233.858 42.251 233.589 41.9595C233.319 41.668 233.141 41.2997 233.079 40.9028H233.305C233.254 41.2272 233.135 41.5363 232.956 41.8091C232.778 42.082 232.544 42.312 232.271 42.4835C231.978 42.6779 231.642 42.7927 231.295 42.8173C230.947 42.8419 230.599 42.7754 230.283 42.6242C229.983 42.4848 229.716 42.2798 229.502 42.0235C229.287 41.7671 229.13 41.4658 229.041 41.1404C228.99 40.9814 228.971 40.8133 228.986 40.6465C229 40.4797 229.048 40.3178 229.126 40.1707C229.218 40.0222 229.359 39.9122 229.523 39.8603C229.607 39.8335 229.696 39.8275 229.783 39.8426C229.87 39.8578 229.952 39.8937 230.023 39.9476C230.144 40.0548 230.227 40.1998 230.259 40.3601C230.291 40.5205 230.272 40.6873 230.203 40.8349C230.082 41.0887 229.896 41.3034 229.664 41.4556C229.266 41.7326 228.789 41.8657 228.309 41.8338C227.916 41.8098 227.54 41.6663 227.227 41.4217C226.993 41.2435 226.8 41.0151 226.661 40.7525C226.568 40.59 226.501 40.4132 226.462 40.2288C226.452 40.1663 226.452 40.1023 226.462 40.0397C226.543 40.2695 226.642 40.4918 226.76 40.704C226.926 40.9852 227.157 41.2205 227.431 41.3895C227.706 41.5585 228.017 41.6561 228.337 41.6738C228.775 41.6907 229.207 41.5595 229.565 41.3004C229.767 41.17 229.93 40.9856 230.037 40.7671C230.086 40.6653 230.101 40.55 230.079 40.4388C230.058 40.3276 230.002 40.2266 229.919 40.1513C229.872 40.1241 229.819 40.1069 229.765 40.1007C229.711 40.0945 229.656 40.0994 229.604 40.1152C229.551 40.131 229.503 40.1573 229.46 40.1927C229.418 40.228 229.383 40.2716 229.357 40.321C229.299 40.4411 229.264 40.5722 229.256 40.7064C229.248 40.8405 229.266 40.9749 229.31 41.1016C229.39 41.3908 229.531 41.6583 229.723 41.8854C229.914 42.1125 230.152 42.2935 230.42 42.4157C230.698 42.5501 231.006 42.61 231.313 42.5897C231.62 42.5693 231.917 42.4694 232.177 42.2993C232.422 42.1467 232.633 41.9424 232.796 41.7001C232.959 41.4577 233.069 41.1827 233.121 40.8931L233.239 40.0737L233.343 40.898C233.401 41.2475 233.557 41.5719 233.793 41.8306C234.029 42.0893 234.334 42.2709 234.67 42.3526C234.939 42.4097 235.217 42.3951 235.478 42.3102C235.74 42.2253 235.975 42.073 236.163 41.8678C236.422 41.6025 236.601 41.2656 236.678 40.898C236.673 40.6555 236.659 40.5101 236.673 40.5101Z" fill="#455A64"/>
<path d="M239.162 43.8066C239.186 43.943 239.175 44.0835 239.129 44.2139C239.032 44.5842 238.838 44.9199 238.567 45.1837C238.368 45.3844 238.129 45.539 237.867 45.6368C237.604 45.7347 237.324 45.7736 237.046 45.751C236.704 45.7209 236.374 45.6076 236.083 45.4204C235.793 45.2332 235.55 44.9775 235.374 44.6745C235.333 44.6032 235.296 44.5286 235.266 44.4515H235.497C235.371 44.7929 235.125 45.0732 234.808 45.237C234.527 45.3937 234.211 45.4707 233.891 45.46C233.352 45.4348 232.844 45.1948 232.475 44.7909C232.231 44.5388 232.034 44.243 231.894 43.9181C231.831 43.8062 231.791 43.6825 231.776 43.5544C232.006 43.9551 232.28 44.3276 232.593 44.6648C232.938 45.0127 233.398 45.2151 233.882 45.2321C234.169 45.2448 234.454 45.169 234.699 45.0143C234.944 44.8596 235.138 44.6332 235.256 44.3642L235.351 44.0927L235.483 44.3594C235.516 44.4224 235.54 44.4903 235.577 44.5533C235.735 44.8205 235.95 45.0469 236.206 45.2151C236.463 45.3832 236.753 45.4886 237.056 45.5231C237.306 45.5438 237.559 45.5115 237.797 45.4281C238.035 45.3446 238.253 45.212 238.439 45.0382C238.702 44.8059 238.904 44.5112 239.03 44.1799C239.068 44.0532 239.112 43.9286 239.162 43.8066Z" fill="#455A64"/>
<path d="M236.049 49.8037C235.914 49.9012 235.759 49.9681 235.596 49.9999C235.434 50.0316 235.266 50.0276 235.105 49.9879C234.746 49.9403 234.413 49.7694 234.16 49.503C233.85 49.1653 233.68 48.7163 233.688 48.252L233.872 48.3636L233.801 48.3975C233.388 48.6163 232.908 48.6581 232.465 48.5139C232.108 48.3967 231.8 48.1592 231.591 47.8399C231.484 47.7061 231.406 47.5503 231.363 47.383C231.32 47.2156 231.312 47.0407 231.341 46.8701C231.421 47.1791 231.554 47.4712 231.733 47.7332C231.935 48.0006 232.214 48.1958 232.531 48.2908C232.917 48.4013 233.33 48.3598 233.688 48.1745L233.749 48.1454L233.934 48.0387V48.252C233.933 48.6191 234.054 48.9754 234.277 49.262C234.501 49.5487 234.813 49.7483 235.162 49.8279C235.457 49.8678 235.757 49.8596 236.049 49.8037Z" fill="#455A64"/>
<path d="M218.67 42.1251C219.017 42.4475 219.428 42.689 219.875 42.833C220.358 42.9685 220.872 42.9327 221.334 42.7312C221.893 42.4763 222.332 42.0062 222.557 41.422C222.606 41.2864 222.644 41.1469 222.67 41.005L222.746 40.6268L222.902 40.9759C222.965 41.0874 223.062 41.1749 223.178 41.2255C223.293 41.2762 223.422 41.2873 223.544 41.2571C223.795 41.1936 224.023 41.0573 224.201 40.8644C224.523 40.5331 224.75 40.1171 224.857 39.6619C224.942 39.2373 224.953 38.8007 224.89 38.3721C224.954 38.4748 224.996 38.5906 225.013 38.7115C225.077 39.0314 225.077 39.3613 225.013 39.6813C224.922 40.179 224.693 40.639 224.352 41.005C224.149 41.2427 223.88 41.4117 223.582 41.4899C223.407 41.5315 223.224 41.5133 223.06 41.438C222.896 41.3627 222.761 41.2345 222.675 41.0729L222.907 41.0389C222.881 41.2047 222.838 41.3672 222.779 41.5238C222.659 41.8475 222.476 42.1431 222.243 42.393C222.009 42.6428 221.729 42.842 221.419 42.9785C220.909 43.1861 220.345 43.2049 219.823 43.0318C219.477 42.9228 219.162 42.7318 218.902 42.4742C218.799 42.3783 218.719 42.2586 218.67 42.1251Z" fill="#455A64"/>
<path d="M220.04 46.0999C220.068 46.0999 220.068 46.3327 219.842 46.585C219.686 46.7395 219.494 46.8499 219.285 46.9051C219.075 46.9604 218.855 46.9588 218.647 46.9004C218.247 46.7915 217.883 46.5736 217.594 46.2697C217.372 46.0513 217.258 45.8961 217.277 45.8718C217.296 45.8476 217.461 45.9543 217.702 46.1338C218.001 46.3708 218.341 46.547 218.703 46.6529C218.877 46.7008 219.06 46.7073 219.236 46.672C219.413 46.6367 219.58 46.5605 219.724 46.4492C219.941 46.2794 220.002 46.0901 220.04 46.0999Z" fill="#455A64"/>
<path d="M223.856 46.74C223.856 46.74 223.856 46.5703 223.752 46.289C223.633 45.8991 223.394 45.5591 223.072 45.3193C222.871 45.1643 222.64 45.0554 222.395 45.0001C222.149 44.9448 221.895 44.9443 221.649 44.9987C221.404 45.053 221.173 45.161 220.971 45.3152C220.77 45.4694 220.603 45.6663 220.482 45.8925C220.362 46.1187 220.29 46.3689 220.271 46.6261C220.253 46.8834 220.289 47.1417 220.376 47.3835C220.464 47.6253 220.601 47.8449 220.778 48.0276C220.956 48.2102 221.169 48.3515 221.405 48.4419C221.68 48.5448 221.976 48.577 222.267 48.5356C222.557 48.4942 222.834 48.3805 223.072 48.2043C223.392 47.9626 223.63 47.6232 223.752 47.2346C223.832 46.9485 223.832 46.7788 223.856 46.7788C223.894 46.938 223.894 47.1044 223.856 47.2637C223.763 47.6952 223.526 48.0796 223.185 48.3498C222.928 48.5579 222.624 48.6959 222.301 48.751C221.978 48.8061 221.647 48.7765 221.338 48.665C220.956 48.5267 220.624 48.2699 220.389 47.9298C220.155 47.5898 220.029 47.1834 220.029 46.7666C220.029 46.3499 220.155 45.9435 220.389 45.6035C220.624 45.2634 220.956 45.0066 221.338 44.8683C221.647 44.7557 221.978 44.725 222.301 44.7793C222.624 44.8335 222.928 44.971 223.185 45.1787C223.529 45.4557 223.765 45.8494 223.851 46.289C223.886 46.437 223.887 46.5912 223.856 46.74Z" fill="#455A64"/>
<path d="M229.102 46.7398C229.102 46.7398 229.102 46.5701 228.999 46.2888C228.881 45.898 228.642 45.5574 228.318 45.3191C228.118 45.163 227.886 45.0532 227.64 44.9972C227.395 44.9412 227.14 44.9403 226.893 44.9945C226.647 45.0488 226.415 45.1569 226.213 45.3116C226.011 45.4662 225.844 45.6637 225.724 45.8906C225.603 46.1176 225.531 46.3686 225.513 46.6265C225.495 46.8845 225.532 47.1434 225.621 47.3855C225.709 47.6276 225.847 47.8473 226.026 48.0296C226.205 48.2119 226.42 48.3524 226.656 48.4417C226.931 48.5447 227.226 48.5768 227.516 48.5354C227.806 48.494 228.081 48.3802 228.318 48.2041C228.64 47.9639 228.879 47.624 228.999 47.2344C229.079 46.9483 229.084 46.7786 229.102 46.7786C229.146 46.9372 229.146 47.1049 229.102 47.2635C229.013 47.7016 228.775 48.0931 228.432 48.369C228.176 48.5771 227.873 48.7152 227.55 48.7703C227.228 48.8254 226.898 48.7958 226.59 48.6842C226.207 48.5459 225.875 48.2891 225.641 47.949C225.406 47.609 225.28 47.2026 225.28 46.7858C225.28 46.3691 225.406 45.9627 225.641 45.6227C225.875 45.2826 226.207 45.0258 226.59 44.8875C226.897 44.7753 227.228 44.7449 227.55 44.7991C227.872 44.8534 228.175 44.9906 228.432 45.1979C228.776 45.4747 229.014 45.8682 229.102 46.3082C229.137 46.4499 229.137 46.5981 229.102 46.7398Z" fill="#455A64"/>
<path d="M225.49 46.6472C225.49 46.7198 225.116 46.7731 224.654 46.7731C224.191 46.7731 223.823 46.7198 223.823 46.6472C223.823 46.5745 224.196 46.5212 224.654 46.5212C225.112 46.5212 225.49 46.5794 225.49 46.6472Z" fill="#455A64"/>
<path d="M206.987 90.667C214.147 89.9337 221.356 89.8412 228.531 90.3906L219.407 103.81L211.19 103.844L209.443 142.4H198.581L199.62 99.0976C199.668 97.0247 200.436 95.0376 201.785 93.4944C203.134 91.9513 204.975 90.9537 206.978 90.6815L206.987 90.667Z" fill="#263238"/>
<path d="M226.991 104.872C226.991 104.872 243.27 106.006 242.864 90.9969C242.864 90.9969 216.786 86.4738 215.091 94.2548C214.543 96.7563 216.035 142.696 216.035 142.696H227.435" fill="#263238"/>
<path d="M227.152 101.546C227.248 102.827 227.177 104.115 226.939 105.377C226.85 104.096 226.921 102.808 227.152 101.546Z" fill="#455A64"/>
<path d="M226.633 89.615C226.561 89.6568 226.485 89.6909 226.406 89.7168C226.26 89.775 226.038 89.8526 225.745 89.9398C224.917 90.1678 224.076 90.3459 223.228 90.4731C221.977 90.6391 220.742 90.9116 219.535 91.2876C218.835 91.5204 218.168 91.8464 217.551 92.2572C216.898 92.7131 216.344 93.3043 215.927 93.9927C215.115 95.3348 214.709 96.8936 214.76 98.4723C214.836 99.9267 214.902 101.24 214.958 102.351C215.015 103.461 215.048 104.324 215.076 104.983C215.076 105.269 215.076 105.502 215.076 105.696C215.089 105.779 215.089 105.864 215.076 105.948C215.057 105.865 215.045 105.781 215.039 105.696C215.039 105.507 215.001 105.269 214.973 104.988C214.925 104.329 214.855 103.441 214.774 102.365C214.694 101.289 214.599 99.9412 214.524 98.4868C214.458 96.8589 214.873 95.2486 215.714 93.8667C216.146 93.1491 216.723 92.5343 217.405 92.0633C218.041 91.6366 218.731 91.2991 219.454 91.0597C220.677 90.6914 221.929 90.4335 223.195 90.2889C224.262 90.1386 225.127 89.9835 225.712 89.838C226.298 89.6926 226.624 89.5956 226.633 89.615Z" fill="#455A64"/>
<path d="M191.075 62.262L197.383 81.9375L232.251 82.5684L232.02 81.5234L219.284 81.1334L213.419 62.2476L191.075 62.262Z" fill="#455A64"/>
<path d="M205.232 72.0953C205.44 72.9285 205.083 73.7473 204.437 73.9206C203.791 74.094 203.093 73.5594 202.885 72.7262C202.678 71.893 203.035 71.0791 203.685 70.9057C204.336 70.7323 205.006 71.2669 205.232 72.0953Z" fill="white"/>
<path d="M268.699 76.3039C268.137 75.8852 267.442 75.685 266.743 75.7405C266.743 75.3649 266.743 75.1289 266.743 75.1289H256.084C256.084 75.1289 255.747 82.1641 261.139 82.4145C263.548 82.5253 264.931 81.4515 265.721 80.0839C266.117 80.1803 266.523 80.2304 266.931 80.2332C267.528 80.2553 268.117 80.0866 268.613 79.7517C268.882 79.5389 269.096 79.2638 269.235 78.95C269.375 78.6362 269.436 78.2932 269.412 77.9507C269.426 77.6402 269.369 77.3305 269.246 77.0452C269.122 76.7599 268.935 76.5064 268.699 76.3039ZM267.967 78.9138C267.514 79.2557 266.7 79.2027 266.165 79.1064C266.438 78.3619 266.613 77.5849 266.685 76.795C267.152 76.7404 267.624 76.8493 268.02 77.1032C268.136 77.2108 268.226 77.3436 268.283 77.4913C268.34 77.6391 268.362 77.7979 268.348 77.9555C268.367 78.1341 268.343 78.3148 268.276 78.4818C268.21 78.6489 268.104 78.7971 267.967 78.9138Z" fill="#318FFF"/>
<path d="M265.168 72.861C265.089 72.7921 265.021 72.7127 264.965 72.625C264.792 72.3746 264.672 72.091 264.613 71.792C264.506 71.309 264.549 70.8046 264.739 70.3474C265.036 69.7891 265.444 69.2975 265.939 68.9028C266.494 68.3915 266.872 67.7169 267.018 66.9766C267.145 66.329 267.079 65.6585 266.828 65.0482C266.577 64.4379 266.152 63.9146 265.606 63.5433C265.197 63.2836 264.752 63.0842 264.286 62.951C263.78 62.8101 263.307 62.5713 262.893 62.2479C262.691 62.0651 262.527 61.8442 262.411 61.5979C262.286 61.3372 262.251 61.0428 262.31 60.76C262.31 60.7166 262.334 60.6781 262.344 60.6444L262.469 60.7696C262.246 60.8693 262.056 61.0288 261.919 61.2304C261.782 61.4319 261.704 61.6675 261.693 61.9109C261.664 62.4011 261.773 62.8897 262.006 63.3218C262.218 63.7696 262.488 64.1837 262.671 64.6363C262.884 65.0765 262.977 65.5647 262.941 66.0521C262.88 66.5206 262.655 66.9524 262.305 67.2703C261.989 67.5636 261.628 67.8042 261.235 67.983C260.528 68.2409 259.837 68.5383 259.163 68.8739C258.628 69.1784 258.204 69.6457 257.954 70.2077C257.761 70.6311 257.663 71.091 257.664 71.556C257.677 71.9537 257.751 72.3469 257.886 72.7213C257.871 72.6999 257.859 72.6774 257.847 72.6539C257.847 72.6058 257.79 72.5383 257.756 72.4372C257.654 72.1541 257.597 71.8567 257.587 71.556C257.571 71.0782 257.662 70.6029 257.852 70.1644C258.102 69.5745 258.535 69.0801 259.086 68.7535C259.761 68.4081 260.454 68.0995 261.163 67.8289C261.539 67.6574 261.884 67.4247 262.185 67.1403C262.5 66.8499 262.703 66.4578 262.758 66.0328C262.787 65.5779 262.698 65.1231 262.498 64.7134C262.31 64.28 262.05 63.8659 261.833 63.4084C261.578 62.9435 261.459 62.4161 261.491 61.8868C261.522 61.6137 261.612 61.3508 261.756 61.1163C261.904 60.8685 262.134 60.6796 262.406 60.5818L262.585 60.5144L262.532 60.707L262.507 60.8033C262.474 61.0467 262.505 61.2947 262.598 61.5221C262.691 61.7496 262.843 61.9484 263.038 62.0987C263.433 62.4056 263.885 62.6314 264.368 62.7632C264.85 62.9035 265.309 63.1127 265.731 63.3844C266.132 63.6606 266.472 64.0163 266.729 64.4293C267.221 65.1934 267.394 66.1201 267.211 67.0103C267.05 67.7768 266.648 68.4718 266.064 68.9942C265.576 69.3794 265.17 69.8573 264.869 70.4003C264.686 70.8299 264.634 71.304 264.719 71.7631C264.783 72.1585 264.936 72.534 265.168 72.861Z" fill="#263238"/>
<path d="M278.163 82.0244H168.798V85.3711H174.648L171.535 144.518H173.207L176.32 85.3711L272.178 84.8462L274.385 144.34L276.231 144.446L273.87 85.3711H278.163V82.0244Z" fill="#263238"/>
<path d="M109.306 2.21973H62.7528V144.73H109.306V2.21973Z" fill="#EBEBEB"/>
<path d="M146.034 2.67725H109.239V144.73H146.034V2.67725Z" fill="#E0E0E0"/>
<path d="M104.82 25.0303H65.3308V36.1393H104.82V25.0303Z" fill="#263238"/>
<path d="M68.6414 26.4265H66.4295V34.9304H68.6414V26.4265Z" fill="#318FFF"/>
<path d="M71.2479 28.2136C71.2489 28.353 71.2084 28.4895 71.1317 28.6058C71.055 28.7222 70.9454 28.8131 70.8169 28.8671C70.6885 28.9211 70.5469 28.9357 70.4101 28.9091C70.2733 28.8825 70.1475 28.8159 70.0486 28.7177C69.9497 28.6195 69.8822 28.4941 69.8547 28.3575C69.8271 28.2209 69.8408 28.0792 69.8939 27.9503C69.947 27.8215 70.0372 27.7113 70.153 27.6338C70.2688 27.5563 70.405 27.5149 70.5444 27.5149C70.7301 27.5149 70.9083 27.5883 71.0402 27.7193C71.172 27.8502 71.2466 28.0279 71.2479 28.2136Z" fill="white"/>
<path d="M71.2482 31.2182C71.2482 31.3574 71.2069 31.4934 71.1296 31.6091C71.0523 31.7248 70.9424 31.815 70.8139 31.8682C70.6853 31.9215 70.5438 31.9354 70.4073 31.9083C70.2709 31.8811 70.1455 31.8141 70.0471 31.7157C69.9487 31.6173 69.8817 31.492 69.8546 31.3555C69.8274 31.219 69.8413 31.0775 69.8946 30.949C69.9478 30.8204 70.038 30.7105 70.1537 30.6332C70.2694 30.5559 70.4055 30.5146 70.5446 30.5146C70.7312 30.5146 70.9102 30.5888 71.0421 30.7207C71.174 30.8527 71.2482 31.0316 71.2482 31.2182Z" fill="white"/>
<path d="M76.2307 27.5098H74.0573V34.0394H76.2307V27.5098Z" fill="#455A64"/>
<path d="M79.368 27.5098H77.1946V34.0394H79.368V27.5098Z" fill="#455A64"/>
<path d="M82.5096 27.5098H80.3362V34.0394H82.5096V27.5098Z" fill="#455A64"/>
<path d="M85.6463 27.5098H83.473V34.0394H85.6463V27.5098Z" fill="#455A64"/>
<path d="M88.7884 27.5098H86.6151V34.0394H88.7884V27.5098Z" fill="#455A64"/>
<path d="M91.9254 27.5098H89.7521V34.0394H91.9254V27.5098Z" fill="#455A64"/>
<path d="M95.0622 27.5098H92.8889V34.0394H95.0622V27.5098Z" fill="#455A64"/>
<path d="M98.2041 27.5098H96.0307V34.0394H98.2041V27.5098Z" fill="#455A64"/>
<path d="M101.341 27.5098H99.1677V34.0394H101.341V27.5098Z" fill="#455A64"/>
<path d="M104.483 27.5098H102.31V34.0394H104.483V27.5098Z" fill="#455A64"/>
<path d="M104.82 40.9883H65.3308V52.0973H104.82V40.9883Z" fill="#263238"/>
<path d="M68.6414 42.3848H66.4295V50.8887H68.6414V42.3848Z" fill="#318FFF"/>
<path d="M71.2482 44.1765C71.2482 44.3156 71.2069 44.4517 71.1296 44.5674C71.0523 44.6831 70.9424 44.7732 70.8139 44.8265C70.6853 44.8797 70.5438 44.8937 70.4073 44.8665C70.2709 44.8394 70.1455 44.7724 70.0471 44.674C69.9487 44.5756 69.8817 44.4502 69.8546 44.3137C69.8274 44.1773 69.8413 44.0358 69.8946 43.9072C69.9478 43.7787 70.038 43.6688 70.1537 43.5915C70.2694 43.5142 70.4055 43.4729 70.5446 43.4729C70.7312 43.4729 70.9102 43.547 71.0421 43.679C71.174 43.8109 71.2482 43.9899 71.2482 44.1765Z" fill="white"/>
<path d="M71.2482 47.1811C71.2482 47.3203 71.2069 47.4563 71.1296 47.572C71.0523 47.6877 70.9424 47.7779 70.8139 47.8311C70.6853 47.8844 70.5438 47.8983 70.4073 47.8712C70.2709 47.844 70.1455 47.777 70.0471 47.6786C69.9487 47.5802 69.8817 47.4549 69.8546 47.3184C69.8274 47.1819 69.8413 47.0404 69.8946 46.9119C69.9478 46.7833 70.038 46.6734 70.1537 46.5961C70.2694 46.5188 70.4055 46.4775 70.5446 46.4775C70.7312 46.4775 70.9102 46.5517 71.0421 46.6836C71.174 46.8156 71.2482 46.9945 71.2482 47.1811Z" fill="white"/>
<path d="M76.2307 43.4729H74.0573V50.0025H76.2307V43.4729Z" fill="#455A64"/>
<path d="M79.368 43.4729H77.1946V50.0025H79.368V43.4729Z" fill="#455A64"/>
<path d="M82.5096 43.4729H80.3362V50.0025H82.5096V43.4729Z" fill="#455A64"/>
<path d="M85.6463 43.4729H83.473V50.0025H85.6463V43.4729Z" fill="#455A64"/>
<path d="M88.7884 43.4729H86.6151V50.0025H88.7884V43.4729Z" fill="#455A64"/>
<path d="M91.9254 43.4729H89.7521V50.0025H91.9254V43.4729Z" fill="#455A64"/>
<path d="M95.0622 43.4729H92.8889V50.0025H95.0622V43.4729Z" fill="#455A64"/>
<path d="M98.2041 43.4729H96.0307V50.0025H98.2041V43.4729Z" fill="#455A64"/>
<path d="M101.341 43.4729H99.1677V50.0025H101.341V43.4729Z" fill="#455A64"/>
<path d="M104.483 43.4729H102.31V50.0025H104.483V43.4729Z" fill="#455A64"/>
<path d="M104.82 57.0762H65.3308V68.1852H104.82V57.0762Z" fill="#263238"/>
<path d="M68.6414 58.4727H66.4295V66.9766H68.6414V58.4727Z" fill="#318FFF"/>
<path d="M71.2482 60.2646C71.2481 60.4046 71.2063 60.5414 71.1281 60.6574C71.0499 60.7735 70.9389 60.8636 70.8092 60.9163C70.6795 60.9689 70.5371 60.9817 70.4001 60.9529C70.2631 60.9242 70.1378 60.8552 70.0402 60.7549C69.9427 60.6546 69.8772 60.5274 69.8523 60.3897C69.8274 60.252 69.8441 60.1099 69.9003 59.9818C69.9565 59.8536 70.0497 59.7451 70.1679 59.6701C70.2861 59.5952 70.424 59.5572 70.5639 59.5611C70.7471 59.5661 70.9212 59.6424 71.049 59.7738C71.1768 59.9052 71.2482 60.0813 71.2482 60.2646Z" fill="white"/>
<path d="M71.2482 63.2692C71.2482 63.4084 71.2069 63.5444 71.1296 63.6601C71.0523 63.7758 70.9424 63.866 70.8139 63.9193C70.6853 63.9725 70.5438 63.9864 70.4073 63.9593C70.2709 63.9322 70.1455 63.8651 70.0471 63.7668C69.9487 63.6684 69.8817 63.543 69.8546 63.4065C69.8274 63.27 69.8413 63.1286 69.8946 63C69.9478 62.8714 70.038 62.7616 70.1537 62.6843C70.2694 62.6069 70.4055 62.5657 70.5446 62.5657C70.7312 62.5657 70.9102 62.6398 71.0421 62.7717C71.174 62.9037 71.2482 63.0826 71.2482 63.2692Z" fill="white"/>
<path d="M76.2307 59.561H74.0573V66.0907H76.2307V59.561Z" fill="#455A64"/>
<path d="M79.368 59.561H77.1946V66.0907H79.368V59.561Z" fill="#455A64"/>
<path d="M82.5096 59.561H80.3362V66.0907H82.5096V59.561Z" fill="#455A64"/>
<path d="M85.6463 59.561H83.473V66.0907H85.6463V59.561Z" fill="#455A64"/>
<path d="M88.7884 59.561H86.6151V66.0907H88.7884V59.561Z" fill="#455A64"/>
<path d="M91.9254 59.561H89.7521V66.0907H91.9254V59.561Z" fill="#455A64"/>
<path d="M95.0622 59.561H92.8889V66.0907H95.0622V59.561Z" fill="#455A64"/>
<path d="M98.2041 59.561H96.0307V66.0907H98.2041V59.561Z" fill="#455A64"/>
<path d="M101.341 59.561H99.1677V66.0907H101.341V59.561Z" fill="#455A64"/>
<path d="M104.483 59.561H102.31V66.0907H104.483V59.561Z" fill="#455A64"/>
<path d="M104.82 73.3909H65.3308V84.4999H104.82V73.3909Z" fill="#263238"/>
<path d="M68.6414 74.7871H66.4295V83.291H68.6414V74.7871Z" fill="#318FFF"/>
<path d="M71.2482 76.5744C71.2482 76.7136 71.2069 76.8496 71.1296 76.9653C71.0523 77.081 70.9424 77.1712 70.8139 77.2244C70.6853 77.2777 70.5438 77.2916 70.4073 77.2645C70.2709 77.2373 70.1455 77.1703 70.0471 77.0719C69.9487 76.9735 69.8817 76.8482 69.8546 76.7117C69.8274 76.5752 69.8413 76.4337 69.8946 76.3052C69.9478 76.1766 70.038 76.0667 70.1537 75.9894C70.2694 75.9121 70.4055 75.8708 70.5446 75.8708C70.7312 75.8708 70.9102 75.945 71.0421 76.0769C71.174 76.2089 71.2482 76.3878 71.2482 76.5744Z" fill="white"/>
<path d="M71.2482 79.5793C71.2482 79.7185 71.2069 79.8545 71.1296 79.9702C71.0523 80.0859 70.9424 80.1761 70.8139 80.2293C70.6853 80.2826 70.5438 80.2965 70.4073 80.2694C70.2709 80.2422 70.1455 80.1752 70.0471 80.0768C69.9487 79.9784 69.8817 79.853 69.8546 79.7166C69.8274 79.5801 69.8413 79.4386 69.8946 79.3101C69.9478 79.1815 70.038 79.0716 70.1537 78.9943C70.2694 78.917 70.4055 78.8757 70.5446 78.8757C70.7312 78.8757 70.9102 78.9499 71.0421 79.0818C71.174 79.2138 71.2482 79.3927 71.2482 79.5793Z" fill="white"/>
<path d="M76.2307 75.8708H74.0573V82.4005H76.2307V75.8708Z" fill="#455A64"/>
<path d="M79.368 75.8708H77.1946V82.4005H79.368V75.8708Z" fill="#455A64"/>
<path d="M82.5096 75.8708H80.3362V82.4005H82.5096V75.8708Z" fill="#455A64"/>
<path d="M85.6463 75.8708H83.473V82.4005H85.6463V75.8708Z" fill="#455A64"/>
<path d="M88.7884 75.8708H86.6151V82.4005H88.7884V75.8708Z" fill="#455A64"/>
<path d="M91.9254 75.8708H89.7521V82.4005H91.9254V75.8708Z" fill="#455A64"/>
<path d="M95.0622 75.8708H92.8889V82.4005H95.0622V75.8708Z" fill="#455A64"/>
<path d="M98.2041 75.8708H96.0307V82.4005H98.2041V75.8708Z" fill="#455A64"/>
<path d="M101.341 75.8708H99.1677V82.4005H101.341V75.8708Z" fill="#455A64"/>
<path d="M104.483 75.8708H102.31V82.4005H104.483V75.8708Z" fill="#455A64"/>
<path d="M104.82 92.0117H65.3308V103.121H104.82V92.0117Z" fill="#263238"/>
<path d="M68.6414 93.4082H66.4295V101.912H68.6414V93.4082Z" fill="#318FFF"/>
<path d="M71.2482 95.195C71.2482 95.3342 71.2069 95.4702 71.1296 95.5859C71.0523 95.7016 70.9424 95.7918 70.8139 95.845C70.6853 95.8983 70.5438 95.9122 70.4073 95.8851C70.2709 95.8579 70.1455 95.7909 70.0471 95.6925C69.9487 95.5941 69.8817 95.4688 69.8546 95.3323C69.8274 95.1958 69.8413 95.0543 69.8946 94.9258C69.9478 94.7972 70.038 94.6873 70.1537 94.61C70.2694 94.5327 70.4055 94.4915 70.5446 94.4915C70.7312 94.4915 70.9102 94.5656 71.0421 94.6975C71.174 94.8295 71.2482 95.0084 71.2482 95.195Z" fill="white"/>
<path d="M71.2482 98.2001C71.2482 98.3393 71.2069 98.4753 71.1296 98.591C71.0523 98.7067 70.9424 98.7969 70.8139 98.8502C70.6853 98.9034 70.5438 98.9173 70.4073 98.8902C70.2709 98.8631 70.1455 98.796 70.0471 98.6977C69.9487 98.5993 69.8817 98.4739 69.8546 98.3374C69.8274 98.2009 69.8413 98.0595 69.8946 97.9309C69.9478 97.8023 70.038 97.6925 70.1537 97.6152C70.2694 97.5379 70.4055 97.4966 70.5446 97.4966C70.7312 97.4966 70.9102 97.5707 71.0421 97.7026C71.174 97.8346 71.2482 98.0136 71.2482 98.2001Z" fill="white"/>
<path d="M76.2307 94.4915H74.0573V101.021H76.2307V94.4915Z" fill="#455A64"/>
<path d="M79.368 94.4915H77.1946V101.021H79.368V94.4915Z" fill="#455A64"/>
<path d="M82.5096 94.4915H80.3362V101.021H82.5096V94.4915Z" fill="#455A64"/>
<path d="M85.6463 94.4915H83.473V101.021H85.6463V94.4915Z" fill="#455A64"/>
<path d="M88.7884 94.4915H86.6151V101.021H88.7884V94.4915Z" fill="#455A64"/>
<path d="M91.9254 94.4915H89.7521V101.021H91.9254V94.4915Z" fill="#455A64"/>
<path d="M95.0622 94.4915H92.8889V101.021H95.0622V94.4915Z" fill="#455A64"/>
<path d="M98.2041 94.4915H96.0307V101.021H98.2041V94.4915Z" fill="#455A64"/>
<path d="M101.341 94.4915H99.1677V101.021H101.341V94.4915Z" fill="#455A64"/>
<path d="M104.483 94.4915H102.31V101.021H104.483V94.4915Z" fill="#455A64"/>
<path d="M104.82 126.942H65.3308V138.051H104.82V126.942Z" fill="#263238"/>
<path d="M68.6414 128.339H66.4295V136.843H68.6414V128.339Z" fill="#318FFF"/>
<path d="M71.2479 130.126C71.2489 130.265 71.2084 130.402 71.1317 130.518C71.055 130.634 70.9454 130.725 70.8169 130.779C70.6885 130.833 70.5469 130.848 70.4101 130.821C70.2733 130.795 70.1475 130.728 70.0486 130.63C69.9497 130.532 69.8822 130.406 69.8547 130.27C69.8271 130.133 69.8408 129.991 69.8939 129.862C69.947 129.734 70.0372 129.623 70.153 129.546C70.2688 129.468 70.405 129.427 70.5444 129.427C70.7301 129.427 70.9083 129.5 71.0402 129.631C71.172 129.762 71.2466 129.94 71.2479 130.126Z" fill="white"/>
<path d="M71.2482 133.131C71.2482 133.27 71.2069 133.406 71.1296 133.521C71.0523 133.637 70.9424 133.727 70.8139 133.781C70.6853 133.834 70.5438 133.848 70.4073 133.821C70.2709 133.793 70.1455 133.726 70.0471 133.628C69.9487 133.53 69.8817 133.404 69.8546 133.268C69.8274 133.131 69.8413 132.99 69.8946 132.861C69.9478 132.733 70.038 132.623 70.1537 132.546C70.2694 132.468 70.4055 132.427 70.5446 132.427C70.7312 132.427 70.9102 132.501 71.0421 132.633C71.174 132.765 71.2482 132.944 71.2482 133.131Z" fill="white"/>
<path d="M76.2307 129.422H74.0573V135.952H76.2307V129.422Z" fill="#455A64"/>
<path d="M79.368 129.422H77.1946V135.952H79.368V129.422Z" fill="#455A64"/>
<path d="M82.5096 129.422H80.3362V135.952H82.5096V129.422Z" fill="#455A64"/>
<path d="M85.6463 129.422H83.473V135.952H85.6463V129.422Z" fill="#455A64"/>
<path d="M88.7884 129.422H86.6151V135.952H88.7884V129.422Z" fill="#455A64"/>
<path d="M91.9254 129.422H89.7521V135.952H91.9254V129.422Z" fill="#455A64"/>
<path d="M95.0622 129.422H92.8889V135.952H95.0622V129.422Z" fill="#455A64"/>
<path d="M98.2041 129.422H96.0307V135.952H98.2041V129.422Z" fill="#455A64"/>
<path d="M101.341 129.422H99.1677V135.952H101.341V129.422Z" fill="#455A64"/>
<path d="M104.483 129.422H102.31V135.952H104.483V129.422Z" fill="#455A64"/>
<path d="M104.82 109.491H65.3308V120.6H104.82V109.491Z" fill="#263238"/>
<path d="M68.6414 110.888H66.4295V119.392H68.6414V110.888Z" fill="#318FFF"/>
<path d="M71.2479 112.675C71.2489 112.814 71.2084 112.951 71.1317 113.067C71.055 113.183 70.9454 113.274 70.8169 113.328C70.6885 113.382 70.5469 113.397 70.4101 113.37C70.2733 113.344 70.1475 113.277 70.0486 113.179C69.9497 113.081 69.8822 112.955 69.8547 112.819C69.8271 112.682 69.8408 112.54 69.8939 112.412C69.947 112.283 70.0372 112.173 70.153 112.095C70.2688 112.017 70.405 111.976 70.5444 111.976C70.7301 111.976 70.9083 112.05 71.0402 112.18C71.172 112.311 71.2466 112.489 71.2479 112.675Z" fill="white"/>
<path d="M71.2479 115.68C71.2489 115.819 71.2084 115.956 71.1317 116.072C71.055 116.188 70.9454 116.279 70.8169 116.333C70.6885 116.387 70.5469 116.402 70.4101 116.375C70.2733 116.349 70.1475 116.282 70.0486 116.184C69.9497 116.086 69.8822 115.96 69.8547 115.824C69.8271 115.687 69.8408 115.545 69.8939 115.416C69.947 115.288 70.0372 115.177 70.153 115.1C70.2688 115.022 70.405 114.981 70.5444 114.981C70.7301 114.981 70.9083 115.054 71.0402 115.185C71.172 115.316 71.2466 115.494 71.2479 115.68Z" fill="white"/>
<path d="M76.2307 111.971H74.0573V118.501H76.2307V111.971Z" fill="#455A64"/>
<path d="M79.368 111.971H77.1946V118.501H79.368V111.971Z" fill="#455A64"/>
<path d="M82.5096 111.971H80.3362V118.501H82.5096V111.971Z" fill="#455A64"/>
<path d="M85.6463 111.971H83.473V118.501H85.6463V111.971Z" fill="#455A64"/>
<path d="M88.7884 111.971H86.6151V118.501H88.7884V111.971Z" fill="#455A64"/>
<path d="M91.9254 111.971H89.7521V118.501H91.9254V111.971Z" fill="#455A64"/>
<path d="M95.0622 111.971H92.8889V118.501H95.0622V111.971Z" fill="#455A64"/>
<path d="M98.2041 111.971H96.0307V118.501H98.2041V111.971Z" fill="#455A64"/>
<path d="M101.341 111.971H99.1677V118.501H101.341V111.971Z" fill="#455A64"/>
<path d="M104.483 111.971H102.31V118.501H104.483V111.971Z" fill="#455A64"/>
<path d="M89.752 25.0302C89.7256 24.9181 89.7126 24.8034 89.7135 24.6883C89.7135 24.4619 89.6846 24.1297 89.6701 23.7011C89.6556 23.2726 89.6701 22.7381 89.6267 22.141C89.6047 21.4579 89.5144 20.7787 89.3569 20.1137C89.1326 19.3182 88.7759 18.5661 88.3016 17.889C87.7608 17.1135 87.008 16.51 86.1332 16.1506C85.1468 15.7913 84.1122 15.582 83.0637 15.5295L79.6665 15.2309C75.002 14.8312 70.776 14.5712 67.7113 14.5134C66.1789 14.4845 64.9405 14.5134 64.0828 14.5134H63.095C62.9813 14.5261 62.8665 14.5261 62.7528 14.5134C62.8659 14.4939 62.9802 14.4826 63.095 14.4797L64.0828 14.4171C64.9357 14.3834 66.1789 14.3497 67.7161 14.3593C70.7856 14.3593 75.0212 14.6001 79.6857 15.0046L83.0878 15.3031C84.1594 15.3531 85.2172 15.5658 86.2247 15.934C87.1347 16.3138 87.9148 16.9495 88.4702 17.7638C88.9511 18.4634 89.3081 19.2403 89.5255 20.0607C89.6806 20.7402 89.7614 21.4344 89.7665 22.1313C89.7665 22.7429 89.7665 23.2677 89.7665 23.6963C89.7665 24.1249 89.7665 24.4282 89.7665 24.6594C89.7736 24.7832 89.7688 24.9073 89.752 25.0302Z" fill="#263238"/>
<path d="M77.7921 25.0303C77.7706 24.9242 77.7625 24.8158 77.768 24.7077V23.7784C77.768 23.3739 77.768 22.8827 77.7198 22.3337C77.6905 21.6966 77.5263 21.0729 77.2379 20.5039C76.8099 19.8619 76.1813 19.3793 75.4502 19.1315C74.6231 18.8084 73.7234 18.7168 72.8481 18.8667C72.3785 18.9445 71.9246 19.0973 71.5036 19.3193C71.0731 19.5364 70.7124 19.8701 70.4628 20.2824C70.3406 20.4949 70.2763 20.7356 70.2763 20.9806C70.2763 21.2257 70.3406 21.4664 70.4628 21.6789C70.5884 21.9 70.7579 22.0931 70.9609 22.2463C71.1639 22.3995 71.3962 22.5095 71.6434 22.5697C71.8897 22.6235 72.1456 22.6152 72.3879 22.5454C72.6302 22.4756 72.8513 22.3466 73.0312 22.17C73.3942 21.822 73.6156 21.352 73.6528 20.8506C73.6855 20.3655 73.5379 19.8854 73.2384 19.5023C72.9706 19.1134 72.6116 18.796 72.1927 18.5778C71.7806 18.3896 71.3386 18.2755 70.8869 18.2407C70.4435 18.1781 70.0098 18.1155 69.5906 18.0722C68.7522 17.9759 67.9619 17.9229 67.2439 17.894C65.7983 17.8362 64.637 17.8603 63.8323 17.8603H62.9023C62.795 17.8717 62.6867 17.8717 62.5794 17.8603C62.6856 17.8378 62.7938 17.8265 62.9023 17.8266L63.8323 17.7832C64.637 17.7495 65.8031 17.7014 67.2487 17.7351C67.9715 17.7351 68.7666 17.7977 69.6099 17.8844C70.0339 17.9277 70.4724 17.9807 70.9206 18.0433C71.1471 18.077 71.3687 18.1059 71.6048 18.1492C71.8459 18.1982 72.0792 18.2791 72.2987 18.39C72.7524 18.624 73.1426 18.9644 73.436 19.3819C73.7751 19.8195 73.9393 20.3675 73.8965 20.9193C73.8538 21.4711 73.6071 21.9873 73.2046 22.3675C72.9969 22.5756 72.7405 22.7286 72.4586 22.8127C72.1767 22.8967 71.8783 22.9092 71.5904 22.849C71.3077 22.7814 71.042 22.6562 70.8099 22.4814C70.5777 22.3066 70.3841 22.0859 70.2411 21.833C70.1014 21.5836 70.0281 21.3025 70.0281 21.0167C70.0281 20.7309 70.1014 20.4499 70.2411 20.2005C70.5112 19.7379 70.9095 19.3633 71.388 19.1219C71.8305 18.8845 72.3091 18.7218 72.8047 18.6404C73.7213 18.4898 74.6617 18.5948 75.5224 18.9437C76.292 19.2143 76.9486 19.7348 77.3873 20.4221C77.6895 21.0202 77.8541 21.6783 77.8692 22.3482C77.9029 22.926 77.8692 23.4172 77.8692 23.8217C77.8692 24.2262 77.8402 24.5103 77.8306 24.7511C77.8256 24.8451 77.8127 24.9385 77.7921 25.0303Z" fill="#263238"/>
<path d="M92.9757 25.0303C92.936 24.9114 92.9085 24.7888 92.8938 24.6643C92.8504 24.4187 92.783 24.0624 92.6866 23.6049C92.4213 22.3169 92.0324 21.0575 91.5253 19.8441C90.8091 18.0295 89.6234 16.4375 88.0896 15.231C87.1624 14.5623 86.0756 14.1488 84.9381 14.032C83.7075 13.8988 82.4704 13.8329 81.2325 13.8346C76.1295 13.7382 71.5036 13.7575 68.1594 13.6275C66.4873 13.5697 65.1333 13.4927 64.1984 13.4252L63.1239 13.3386C62.999 13.3339 62.8748 13.3177 62.7528 13.2904C62.8778 13.2788 63.0037 13.2788 63.1287 13.2904L64.2033 13.3338C65.1381 13.3723 66.4921 13.4204 68.1642 13.4541C71.5084 13.5408 76.1295 13.4927 81.2374 13.589C82.4851 13.5863 83.732 13.6555 84.9719 13.796C86.1492 13.922 87.2727 14.3555 88.2293 15.0528C89.0704 15.6976 89.8025 16.4731 90.3977 17.3498C90.9089 18.1064 91.3416 18.9131 91.6891 19.7574C92.1871 20.9867 92.5538 22.265 92.783 23.5712C92.8649 24.0287 92.9179 24.3898 92.9468 24.6354C92.9673 24.766 92.977 24.8981 92.9757 25.0303Z" fill="#263238"/>
<path d="M104.28 3.9917H65.8753V9.56405H104.28V3.9917Z" fill="#263238"/>
<path d="M95.2262 6.77979H74.3178V9.56355H95.2262V6.77979Z" fill="#455A64"/>
<path d="M119.946 119.541C119.946 119.541 119.522 119.609 118.785 119.82C117.751 120.136 116.775 120.615 115.893 121.241C115.283 121.669 114.735 122.179 114.265 122.758C114.004 123.075 113.779 123.421 113.595 123.788C113.416 124.187 113.276 124.601 113.176 125.026C112.737 126.783 112.867 128.801 112.959 130.901C113.05 133 112.906 135.085 112.077 136.766C111.702 137.563 111.169 138.275 110.511 138.86C109.455 139.777 108.166 140.385 106.786 140.618C106.317 140.688 105.843 140.709 105.369 140.681C105.072 140.661 104.777 140.614 104.488 140.541C104.386 140.522 104.288 140.492 104.194 140.449C104.194 140.42 104.613 140.551 105.374 140.579C105.839 140.596 106.304 140.562 106.762 140.478C107.366 140.364 107.953 140.177 108.511 139.92C109.189 139.611 109.816 139.202 110.371 138.706C111.003 138.133 111.512 137.439 111.87 136.665C112.66 135.037 112.795 132.995 112.703 130.886C112.612 128.777 112.487 126.75 112.949 124.944C113.056 124.505 113.206 124.078 113.397 123.668C113.59 123.286 113.826 122.927 114.101 122.599C114.591 122.014 115.16 121.5 115.792 121.072C116.697 120.449 117.703 119.986 118.765 119.705C119.054 119.63 119.347 119.574 119.642 119.536C119.743 119.525 119.845 119.527 119.946 119.541Z" fill="#263238"/>
<path d="M105.394 138.725H102.242V142.559H105.394V138.725Z" fill="#263238"/>
<path d="M137.626 109.857H119.946V129.215H137.626V109.857Z" fill="#455A64"/>
<path d="M132.899 123.729C135.172 121.457 135.172 117.774 132.899 115.502C130.626 113.231 126.94 113.231 124.667 115.502C122.393 117.774 122.393 121.457 124.667 123.729C126.94 126.001 130.626 126.001 132.899 123.729Z" fill="#263238"/>
<path d="M131.694 119.614C131.694 120.185 131.525 120.744 131.207 121.219C130.889 121.694 130.438 122.064 129.909 122.283C129.381 122.502 128.8 122.559 128.239 122.447C127.678 122.336 127.163 122.061 126.758 121.657C126.354 121.252 126.079 120.738 125.967 120.177C125.856 119.617 125.913 119.036 126.132 118.508C126.351 117.98 126.721 117.529 127.197 117.211C127.672 116.894 128.231 116.724 128.803 116.724C129.57 116.724 130.305 117.029 130.848 117.571C131.39 118.112 131.694 118.847 131.694 119.614Z" fill="#455A64"/>
<path d="M122.336 113.402C122.634 113.402 122.876 113.161 122.876 112.862C122.876 112.564 122.634 112.323 122.336 112.323C122.038 112.323 121.796 112.564 121.796 112.862C121.796 113.161 122.038 113.402 122.336 113.402Z" fill="#263238"/>
<path d="M134.923 113.402C135.221 113.402 135.462 113.161 135.462 112.862C135.462 112.564 135.221 112.323 134.923 112.323C134.624 112.323 134.383 112.564 134.383 112.862C134.383 113.161 134.624 113.402 134.923 113.402Z" fill="#263238"/>
<path d="M135.038 127.699C135.336 127.699 135.578 127.457 135.578 127.159C135.578 126.861 135.336 126.62 135.038 126.62C134.74 126.62 134.498 126.861 134.498 127.159C134.498 127.457 134.74 127.699 135.038 127.699Z" fill="#263238"/>
<path d="M122.336 127.921C122.634 127.921 122.876 127.679 122.876 127.381C122.876 127.083 122.634 126.841 122.336 126.841C122.038 126.841 121.796 127.083 121.796 127.381C121.796 127.679 122.038 127.921 122.336 127.921Z" fill="#263238"/>
<path d="M139.052 109.857H137.626V129.215H139.052V109.857Z" fill="#263238"/>
<path d="M152.641 37.0208C152.641 37.0883 147.577 37.1461 141.327 37.1461C135.077 37.1461 130.012 37.0883 130.012 37.0208C130.012 36.9533 135.077 36.8955 141.327 36.8955C147.577 36.8955 152.641 36.9533 152.641 37.0208Z" fill="#263238"/>
<path d="M199.595 39.4233C199.522 39.4276 199.45 39.4276 199.378 39.4233H198.713H196.125L186.43 39.4618L152.964 39.5293H152.872L152.848 39.4426C152.481 38.187 152.415 36.8623 152.656 35.5765C152.898 34.2906 153.44 33.08 154.238 32.0432C155.037 31.0064 156.069 30.1727 157.251 29.6101C158.433 29.0474 159.731 28.7717 161.04 28.8055L160.915 28.9644C160.709 28.2349 160.622 27.4774 160.655 26.7204C160.696 25.4319 161.074 24.1767 161.75 23.0788C162.426 21.9809 163.377 21.0784 164.51 20.4604C165.605 19.8887 166.823 19.5933 168.058 19.6C169.294 19.6068 170.509 19.9154 171.598 20.499L171.429 20.5616C172.033 19.1596 172.921 17.8985 174.039 16.8581C175.156 15.8177 176.478 15.0209 177.92 14.5183C179.246 14.0162 180.661 13.7913 182.078 13.8575C183.494 13.9238 184.882 14.2798 186.155 14.9035C188.445 16.1171 190.246 18.0833 191.253 20.4701C192.175 22.5677 192.395 24.9069 191.88 27.1393L191.788 27.0334C193.1 26.8991 194.424 27.091 195.643 27.592C196.738 28.0297 197.725 28.7001 198.534 29.5566C198.901 29.9411 199.207 30.3796 199.44 30.8568C199.648 31.2979 199.81 31.7594 199.922 32.234C200.119 33.0581 200.229 33.9006 200.25 34.7476C200.294 35.916 200.193 37.0852 199.951 38.2291C199.886 38.5253 199.806 38.8178 199.71 39.1055C199.643 39.2981 199.604 39.3896 199.604 39.3896C199.604 39.3896 199.633 39.2837 199.691 39.0911C199.749 38.8984 199.821 38.6095 199.903 38.2195C200.123 37.0778 200.209 35.9141 200.158 34.7524C200.128 33.9129 200.012 33.0786 199.811 32.2629C199.596 31.2854 199.122 30.3839 198.438 29.653C197.642 28.8158 196.676 28.1589 195.605 27.7268C194.402 27.2419 193.097 27.0616 191.807 27.2019H191.687L191.711 27.0816C192.212 24.8852 191.987 22.5859 191.07 20.5279C190.078 18.1881 188.308 16.2626 186.059 15.0769C184.812 14.4699 183.453 14.1247 182.068 14.0626C180.682 14.0005 179.298 14.2228 178.002 14.7157C176.592 15.2108 175.301 15.9922 174.209 17.0108C173.117 18.0293 172.247 19.2629 171.656 20.6338L171.603 20.759L171.482 20.6964C170.429 20.1325 169.253 19.8347 168.058 19.8288C166.863 19.8229 165.684 20.1092 164.625 20.6627C163.539 21.2615 162.627 22.1318 161.978 23.1886C161.329 24.2454 160.966 25.4524 160.924 26.6915C160.876 27.4472 160.954 28.2056 161.156 28.9355L161.204 29.0992H161.03C159.76 29.0652 158.499 29.3315 157.351 29.8766C156.203 30.4216 155.2 31.23 154.423 32.2358C153.647 33.2416 153.119 34.4164 152.883 35.6646C152.647 36.9127 152.709 38.199 153.065 39.4185L152.949 39.3318L186.353 39.3848L196.072 39.4185H198.679H199.354L199.595 39.4233Z" fill="#263238"/>
<path d="M193.104 67.8581C193.003 67.8697 192.901 67.8697 192.8 67.8581L191.913 67.8821L188.622 67.9399L177.212 67.9833H177.057V67.8629C177.057 65.9367 177.057 63.8421 177.057 61.68C177.057 55.5885 177.086 50.0798 177.096 46.0638C177.096 44.0798 177.125 42.4715 177.134 41.3303C177.134 40.7909 177.134 40.3672 177.159 40.0446C177.159 39.9097 177.159 39.799 177.159 39.7075C177.145 39.704 177.133 39.6956 177.125 39.684C177.117 39.6723 177.114 39.6582 177.116 39.6443C177.117 39.6303 177.124 39.6175 177.135 39.6082C177.145 39.5989 177.159 39.5937 177.173 39.5938C177.187 39.5937 177.201 39.5989 177.211 39.6082C177.222 39.6175 177.229 39.6303 177.23 39.6443C177.232 39.6582 177.229 39.6723 177.221 39.684C177.213 39.6956 177.201 39.704 177.187 39.7075C177.187 39.799 177.187 39.9097 177.187 40.0446C177.187 40.3576 177.187 40.7909 177.212 41.3303C177.212 42.4715 177.236 44.0798 177.25 46.0638C177.25 50.0798 177.25 55.5885 177.289 61.68C177.289 63.8421 177.289 65.9319 177.289 67.8629L177.168 67.7425L188.579 67.7858L191.885 67.8244H192.771C192.883 67.8253 192.994 67.8366 193.104 67.8581Z" fill="#263238"/>
<path d="M188.68 6.21679L177.925 2.3645L167.271 6.17345C165.912 6.81389 164.717 7.19912 164.717 8.46556V14.7689C164.697 19.1947 165.912 23.5385 168.225 27.3129C170.528 31.1353 173.949 34.1603 178.026 35.9805C182.363 34.5648 185.635 30.7992 187.62 27.5729C189.933 23.7985 191.148 19.4547 191.128 15.0289V9.33714C191.128 7.53138 190.174 6.65017 188.68 6.21679Z" fill="#318FFF"/>
<g opacity="0.3">
<path opacity="0.3" d="M178.021 32.3063C174.792 30.851 172.087 28.443 170.268 25.4058C168.434 22.411 167.474 18.9635 167.497 15.4525V11.032C167.497 10.0304 168.099 9.10587 169.304 8.53284L177.925 5.34026V2.35474L167.271 6.16369C166.153 6.64522 164.717 7.18935 164.717 8.45579V14.7591C164.697 19.1849 165.912 23.5287 168.225 27.3031C170.528 31.1255 173.949 34.1505 178.026 35.9707L178.021 32.3063Z" fill="black"/>
</g>
<g opacity="0.4">
<path opacity="0.4" d="M178.021 35.9564C178.751 35.7166 179.459 35.4136 180.137 35.0511C181.796 34.1115 183.304 32.9264 184.608 31.5359C185.794 30.259 186.838 28.8576 187.721 27.3562C190.065 23.556 191.248 19.1543 191.123 14.6918V9.48641C191.123 6.89575 189.784 6.70314 188.666 6.21679L177.91 2.3645V5.34039L186.637 8.61483C187.837 9.17823 188.439 10.1172 188.439 11.1188V15.5393C188.455 19.041 187.494 22.4778 185.664 25.4638C183.885 28.479 181.215 30.8695 178.021 32.3064V35.9564Z" fill="black"/>
</g>
<path opacity="0.5" d="M180.778 15.1877V14.3354C180.778 13.5947 180.483 12.8843 179.959 12.3605C179.435 11.8367 178.724 11.5425 177.983 11.5425C177.242 11.5425 176.531 11.8367 176.006 12.3605C175.482 12.8843 175.188 13.5947 175.188 14.3354V15.1973C174.817 15.2527 174.478 15.4391 174.233 15.7227C173.988 16.0064 173.853 16.3684 173.853 16.7431V21.7607C173.853 21.966 173.893 22.1692 173.972 22.3588C174.051 22.5484 174.166 22.7206 174.312 22.8656C174.457 23.0105 174.63 23.1253 174.82 23.2035C175.01 23.2816 175.214 23.3215 175.419 23.3208H180.628C180.834 23.3215 181.037 23.2816 181.227 23.2035C181.417 23.1253 181.59 23.0105 181.736 22.8656C181.881 22.7206 181.997 22.5484 182.075 22.3588C182.154 22.1692 182.195 21.966 182.195 21.7607V16.7431C182.194 16.3543 182.049 15.9796 181.787 15.6921C181.525 15.4046 181.165 15.2248 180.778 15.1877ZM178.739 20.5135H177.376L177.592 19.5504C177.472 19.4769 177.372 19.3737 177.303 19.2505C177.234 19.1274 177.197 18.9886 177.197 18.8474C177.197 18.7032 177.233 18.5614 177.304 18.4356C177.374 18.3099 177.476 18.2046 177.6 18.13C177.723 18.0555 177.864 18.0142 178.008 18.0102C178.152 18.0062 178.295 18.0397 178.422 18.1074C178.55 18.175 178.657 18.2745 178.735 18.3962C178.812 18.5179 178.856 18.6575 178.864 18.8015C178.871 18.9454 178.84 19.0888 178.776 19.2175C178.711 19.3463 178.614 19.456 178.494 19.536C178.59 19.8923 178.739 20.5135 178.739 20.5135ZM180.185 15.1829H175.805V14.3354C175.805 13.7543 176.036 13.197 176.447 12.7861C176.858 12.3752 177.416 12.1444 177.997 12.1444C178.579 12.1444 179.136 12.3752 179.548 12.7861C179.959 13.197 180.19 13.7543 180.19 14.3354L180.185 15.1829Z" fill="white"/>
<path d="M169.242 15.1251C169.148 14.8434 169.092 14.5502 169.078 14.2535C168.999 13.5437 168.97 12.8293 168.991 12.1155C168.991 11.6966 169.03 11.2969 169.068 10.9358C169.086 10.6023 169.168 10.2754 169.309 9.97268C169.416 9.76616 169.584 9.59789 169.791 9.49115C169.936 9.42373 170.027 9.42855 170.027 9.43818C169.768 9.55843 169.56 9.76656 169.439 10.0257C169.323 10.3138 169.259 10.6204 169.251 10.9309C169.222 11.2921 169.203 11.6869 169.189 12.1011C169.189 12.9293 169.189 13.6805 169.222 14.2246C169.255 14.5236 169.262 14.825 169.242 15.1251Z" fill="white"/>
<path d="M169.401 17.8613C169.348 17.8613 169.299 17.6059 169.295 17.2831C169.29 16.9602 169.324 16.7 169.377 16.7C169.43 16.7 169.473 16.9602 169.483 17.2782C169.492 17.5963 169.449 17.8613 169.401 17.8613Z" fill="white"/>
</g>
<defs>
<clipPath id="clip0_418_10473">
<rect width="303" height="145" fill="white" transform="translate(0.5)"/>
</clipPath>
</defs>
</svg>
