<svg width="304" height="168" viewBox="0 0 304 168" fill="none" xmlns="http://www.w3.org/2000/svg">
<g clip-path="url(#clip0_418_9710)">
<path d="M266 109C257.098 102.68 255.651 90.5476 256 80C256.061 78.2389 256.176 76.5481 257 75C257.824 73.4519 259.45 72.2567 261 73C262.285 73.6154 263.297 75.7407 264 77C264.961 78.677 265.308 79.1004 267 80C268.103 80.5823 269.91 80.6202 271 80C272.495 79.1621 273.014 77.7516 273 76C272.981 72.7335 273.022 69.2634 273 66C273 64.2484 272.479 62.6711 273 61C273.521 59.3289 275.361 57.4639 277 57C278.639 56.5361 279.651 57.2673 280 59C280.065 59.7255 280.034 61.2723 280 62C280.051 62.7243 281.32 62.7964 282 63C282.68 63.2036 283.506 63.5113 284 63C285.779 61.2342 286.873 58.2629 288 56C289.127 53.7371 290.384 51.9268 292 50C293.616 48.0732 295.537 46.142 298 46C300.463 45.858 303.376 47.5525 304 50C304.624 52.4475 302.536 54.0022 301 56C298.71 58.9635 296.022 61.8175 293 64C292.46 64.3882 292.205 65.3514 292 66C291.623 67.1693 292.85 68.6165 294 69C295.285 69.4308 296.654 69.8248 298 70C299.346 70.1752 300.488 69.7076 301 71C301.703 72.7895 300.448 75.7691 299 77C296.097 79.4613 292.549 80.677 289 82C287.734 82.4734 287.024 83.0958 286 84C284.976 84.9042 284.385 85.7644 285 87C285.615 88.2356 286.673 89.2509 288 89C289.327 88.7491 290.734 87.4829 292 87C294.365 86.091 297.482 86.9217 299 89C299.996 90.3682 300.503 91.3667 300 93C299.423 94.6054 298.146 96.7498 297 98C293.21 102.526 288.489 106.068 283 108C277.511 109.932 271.457 111.031 266 109Z" fill="#318FFF"/>
<path d="M266 116C266.477 111.166 267.605 106.654 269 102C270.735 96.3204 272.624 90.4435 275 85L276 81C276.61 79.5963 278.334 78.3287 279 77C280.3 74.4508 281.426 71.3909 283 69C284.487 66.7074 285.588 64.9744 287 63C288.412 61.0255 289.692 59.6001 291 58C293.061 55.4593 295.563 53.1836 298 51C298.858 50.2326 299.531 49.3836 300 49L301 48C300.95 48.0622 301.062 47.9502 301 48L300 49C299.531 49.3977 298.844 50.2186 298 51C295.609 53.207 293.036 55.4631 291 58C289.71 59.6048 289.407 61.0255 288 63C286.593 64.9744 284.477 66.7074 283 69C281.445 71.3862 280.285 74.4585 279 77C278.334 78.324 277.614 79.587 277 81L276 85C273.63 90.4326 270.747 96.3371 269 102C267.593 106.63 266.521 111.19 266 116Z" fill="#263238"/>
<path d="M280 76C279.908 75.7601 280.037 75.2507 280 75C279.897 74.5332 279.141 73.859 279 73C278.712 71.2774 278.315 69.6329 278 67C277.685 64.3671 278.315 61.7086 278 60C277.848 59.1457 277.098 58.4762 277 58C276.932 57.7551 277.008 57.2517 277 57C277.117 57.2321 276.947 57.7512 277 58C277.141 58.4668 277.816 59.1457 278 60C278.38 61.7039 278.674 64.3624 279 67C279.326 69.6376 279.794 71.2074 280 73C280.103 73.8123 279.935 74.4538 280 75C280.05 75.2496 280.018 75.7471 280 76Z" fill="#263238"/>
<path d="M302 72C301.71 72.0547 301.295 71.9907 301 72C300.436 72.0481 298.999 71.8906 298 72C295.983 72.2056 294.044 73.4574 291 74C287.956 74.5425 285.961 74.5099 284 75C283.019 75.2406 281.541 75.8381 281 76C280.72 76.0918 280.293 75.9579 280 76C280.263 75.8701 280.715 76.0796 281 76C281.537 75.825 283.005 75.2537 284 75C285.947 74.4531 287.952 73.5644 291 73C293.601 72.5284 295.362 72.2192 298 72C299.013 71.9169 300.445 72.0087 301 72C301.289 71.984 301.713 71.9636 302 72Z" fill="#263238"/>
<path d="M270 101C270 101 270.087 101.186 270 101C269.913 100.815 269.146 100.342 269 100C268.68 99.2868 268.526 98.2982 268 97.0001C266.953 94.4132 265.431 91.0229 264 87.0001C262.569 82.9772 261.987 78.6059 261 76.0001L259 73.0001V72.0001C258.957 71.903 259.018 72.1051 259 72.0001C259.06 72.0849 258.963 71.9018 259 72.0001C259.101 72.2235 259.849 72.6577 260 73.0001C260.32 73.7133 260.474 74.7019 261 76.0001C262.047 78.5916 263.574 81.9724 265 86.0001C266.426 90.0277 267.013 94.3895 268 97.0001L270 100V101C269.981 100.895 270.045 101.097 270 101Z" fill="#263238"/>
<path d="M300 91.0001C299.906 91.0554 300.104 90.9709 300 91.0001H299L296 93.0001C293.29 93.9053 289.112 94.5616 285 96.0001C280.888 97.4386 276.729 99.1537 274 100C272.636 100.426 271.772 100.78 271 101H270C269.899 101.035 270.106 100.993 270 101C270.092 100.945 269.897 101.03 270 101H271L274 99.0001C276.705 98.0949 280.884 97.4386 285 96.0001C289.116 94.5616 293.271 92.8514 296 92.0001C297.36 91.5744 298.233 91.2203 299 91.0001H300C299.892 91.0048 300.103 90.9658 300 91.0001Z" fill="#263238"/>
<path d="M260 0H85C81.2172 0 78 3.21662 78 7V118C78 121.783 81.2172 125 85 125H260C263.783 125 267 121.783 267 118V7C267 3.21662 263.783 0 260 0Z" fill="#263238"/>
<path d="M70 116H275V119C275 121.232 273.571 122.422 272 124C270.429 125.578 268.222 127 266 127H79C76.7783 127 74.571 125.578 73 124C71.429 122.422 70 121.232 70 119V116Z" fill="#263238"/>
<path d="M262 5H83V111H262V5Z" fill="#455A64"/>
<path d="M154 116L157 120H191L194 116H154Z" fill="#455A64"/>
<path d="M257 9H89C88.1478 9 87 10.148 87 11V109C87 109.852 88.1478 111 89 111H257C257.852 111 259 109.852 259 109V11C259 10.148 257.852 9 257 9Z" fill="#EBEBEB"/>
<path d="M259 16H87V111H259V16Z" fill="#FAFAFA"/>
<path d="M101 12C101 12.2776 101.154 12.7692 101 13C100.846 13.2308 100.256 13.8938 100 14C99.7436 14.1062 99.2722 14.0542 99 14C98.7278 13.9459 98.1963 14.1963 98 14C97.8037 13.8038 98.0542 13.2722 98 13C97.9459 12.7278 97.8938 12.2564 98 12C98.1062 11.7436 98.7692 11.1542 99 11C99.2308 10.8458 98.7225 11 99 11C99.3722 11 100.737 10.7368 101 11C101.263 11.2632 101 11.6278 101 12Z" fill="#263238"/>
<path d="M92 13C91.999 13.2819 92.1573 12.7661 92 13C91.8427 13.2339 91.2607 13.8928 91 14C90.7393 14.1072 90.2764 14.0556 90 14C89.7236 13.9444 89.199 14.1997 89 14C88.801 13.8003 89.0546 13.2765 89 13C88.9454 12.7234 88.8919 12.2603 89 12C89.1081 11.7396 89.7655 11.1565 90 11C90.2345 10.8435 89.7181 11 90 11C90.1877 11 90.8266 10.928 91 11C91.1734 11.072 91.8675 10.867 92 11C92.1325 11.133 91.9286 11.8264 92 12C92.0714 12.1736 92.0006 12.8123 92 13Z" fill="#263238"/>
<path d="M97 13C96.999 13.2819 97.1573 12.7661 97 13C96.8427 13.2339 96.2607 13.8928 96 14C95.7393 14.1072 95.2764 14.0556 95 14C94.7236 13.9444 94.199 14.1997 94 14C93.801 13.8003 94.0546 13.2765 94 13C93.9454 12.7234 93.8919 12.2603 94 12C94.1081 11.7396 94.7655 11.1565 95 11C95.2345 10.8435 94.7181 11 95 11C95.1877 11 95.8266 10.928 96 11C96.1734 11.072 96.8675 10.867 97 11C97.1325 11.133 96.9286 11.8264 97 12C97.0714 12.1736 97.0006 12.8123 97 13Z" fill="#263238"/>
<path d="M265 116C265 116.071 223.632 116 172 116C120.368 116 78 116.071 78 116C78 115.929 120.35 116 172 116C223.65 116 265 115.948 265 116Z" fill="#455A64"/>
<path d="M138 64H99V67H138V64Z" fill="#E0E0E0"/>
<path d="M188 27H149V30H188V27Z" fill="#E0E0E0"/>
<path d="M246 37.0001C246 37.0661 224.777 37.0001 198 37.0001C171.223 37.0001 149 37.0661 149 37.0001C149 36.934 171.209 37.0001 198 37.0001C224.791 37.0001 246 36.934 246 37.0001Z" fill="#9C9C9C"/>
<path d="M246 43.0001C246 43.0661 224.777 43.0001 198 43.0001C171.223 43.0001 149 43.0661 149 43.0001C149 42.934 171.209 43.0001 198 43.0001C224.791 43.0001 246 42.934 246 43.0001Z" fill="#9C9C9C"/>
<path d="M246 48C246 48.066 224.777 48 198 48C171.223 48 149 48.066 149 48C149 47.9339 171.209 48 198 48C224.791 48 246 47.9292 246 48Z" fill="#9C9C9C"/>
<path d="M246 54C246 54.066 224.777 54 198 54C171.223 54 149 54.066 149 54C149 53.9339 171.209 54 198 54C224.791 54 246 53.9292 246 54Z" fill="#9C9C9C"/>
<path d="M246 60C246 60.066 224.777 60 198 60C171.223 60 149 60.066 149 60C149 59.9339 171.209 60 198 60C224.791 60 246 59.9292 246 60Z" fill="#9C9C9C"/>
<path d="M187 65.9999C187 66.0659 178.493 65.9999 168 65.9999C157.507 65.9999 149 66.0659 149 65.9999C149 65.9339 157.507 65.9999 168 65.9999C178.493 65.9999 187 65.9292 187 65.9999Z" fill="#E0E0E0"/>
<path d="M246 75.9999C246 76.0659 231.671 75.9999 214 75.9999C196.329 75.9999 182 76.0659 182 75.9999C182 75.9339 196.325 75.9999 214 75.9999C231.675 75.9999 246 75.9292 246 75.9999Z" fill="#9C9C9C"/>
<path d="M246 81.9999C246 82.0706 231.671 81.9999 214 81.9999C196.329 81.9999 182 82.0706 182 81.9999C182 81.9292 196.325 81.9999 214 81.9999C231.675 81.9999 246 81.9339 246 81.9999Z" fill="#9C9C9C"/>
<path d="M246 88C246 88.066 231.671 88 214 88C196.329 88 182 88.066 182 88C182 87.934 196.325 88 214 88C231.675 88 246 87.934 246 88Z" fill="#9C9C9C"/>
<path d="M246 94.9999C246 95.0659 231.671 94.9999 214 94.9999C196.329 94.9999 182 95.0659 182 94.9999C182 94.9339 196.325 94.9999 214 94.9999C231.675 94.9999 246 94.9292 246 94.9999Z" fill="#9C9C9C"/>
<path d="M139 75.9999C139 76.0706 130.768 75.9999 120 75.9999C109.232 75.9999 100 76.0706 100 75.9999C100 75.9292 109.228 75.9999 120 75.9999C130.772 75.9999 139 75.9339 139 75.9999Z" fill="#E0E0E0"/>
<path d="M139 81C139 81.066 130.768 81 120 81C109.232 81 100 81.066 100 81C100 80.934 109.228 81 120 81C130.772 81 139 80.934 139 81Z" fill="#E0E0E0"/>
<path d="M139 85.9999C139 86.0659 130.768 85.9999 120 85.9999C109.232 85.9999 100 86.0659 100 85.9999C100 85.9339 109.228 85.9999 120 85.9999C130.772 85.9999 139 85.9292 139 85.9999Z" fill="#E0E0E0"/>
<path d="M139 89.9999C139 90.0659 130.776 89.9999 120 89.9999C109.224 89.9999 100 90.0659 100 89.9999C100 89.9339 109.22 89.9999 120 89.9999C130.78 89.9999 139 89.9292 139 89.9999Z" fill="#E0E0E0"/>
<path d="M139 94.9999C139 95.0706 130.768 94.9999 120 94.9999C109.232 94.9999 100 95.0706 100 94.9999C100 94.9292 109.228 94.9999 120 94.9999C130.772 94.9999 139 94.9339 139 94.9999Z" fill="#E0E0E0"/>
<path d="M226 70H198V97H226V70Z" fill="#F5F5F5"/>
<path d="M201 95L209 81L215 90L219 85L225 95H201Z" fill="#EBEBEB"/>
<path d="M169 82C169 82.4725 169.263 83.6071 169 84C168.737 84.3929 167.437 84.8191 167 85C166.563 85.1808 166.463 85.0922 166 85C165.537 84.9078 165.334 84.3341 165 84C164.666 83.6658 164.092 83.4634 164 83C163.908 82.5365 163.819 82.4365 164 82C164.181 81.5634 164.607 80.2625 165 80C165.393 79.7375 165.527 80 166 80C166.314 79.9992 166.71 79.8802 167 80C167.29 80.1198 167.778 80.778 168 81C168.222 81.222 168.88 81.7098 169 82C169.001 81.686 169.12 82.2902 169 82Z" fill="#EBEBEB"/>
<path d="M224 96.0001C223.997 95.9619 223.997 96.0382 224 96.0001C224 95.9188 224 95.1291 224 95.0001C224 94.7085 224 94.5258 224 94.0001C224 92.9151 224.028 91.9883 224 90.0001C224 86.0141 224.024 79.8155 224 73.0001H200C199.967 73.0287 200.119 72.8758 200 73.0001V77.0001C200 78.0229 200 77.9964 200 79.0001V85.0001C200 88.8236 200 92.6736 200 96.0001H217H222H223H224H223H222H218H200C200 92.6545 200 88.8188 200 85.0001C200 83.0883 200 81.0026 200 79.0001V73.0001C199.877 73.1148 200.028 72.9714 200 73.0001H224C224 79.8441 224.009 85.9949 224 90.0001C224 91.9739 224.033 92.9247 224 94.0001C224 94.5162 224 94.7133 224 95.0001C224 95.1291 224 95.9236 224 96.0001C224.032 95.9645 223.975 96.0408 224 96.0001Z" fill="#EBEBEB"/>
<path d="M137 23H99V60H137V23Z" fill="#F5F5F5"/>
<path d="M102 56L113 38L121 49L126 43L134 56H102Z" fill="#E0E0E0"/>
<path d="M124 33C124 33.4838 123.269 34.5977 123 35C122.731 35.4023 122.447 35.8148 122 36C121.553 36.1852 121.475 36.0944 121 36C120.525 35.9056 120.342 35.3421 120 35C119.658 34.6579 119.094 34.4745 119 34C118.906 33.5255 118.815 33.447 119 33C119.185 32.553 119.598 32.2688 120 32C120.402 31.7312 121.516 31 122 31C122.649 31 122.541 31.5412 123 32C123.459 32.4588 124 32.3512 124 33Z" fill="#E0E0E0"/>
<path d="M134 56C134 56 134 56.0951 134 56C134 55.9049 134 55.1806 134 55C134 54.6102 134 53.7035 134 53C134 51.5408 134.019 49.6808 134 47C134 41.6241 134.033 34.1927 134 25H102V29C102 30.3784 102 32.6453 102 34C102 36.7046 102 38.4238 102 41C102 46.1572 102 51.5177 102 56H125H131H133H134C134.045 56.0081 133.955 56.0081 134 56H133H131H125H102C102 51.5177 102 46.1572 102 41C102 38.4238 102 35.6998 102 33V25H134C133.967 34.2355 134.019 41.5813 134 47C134 49.6618 134.009 51.5408 134 53C134 53.6987 134 54.6197 134 55C134 55.1759 134 55.8954 134 56C134.053 55.9662 133.96 56.0481 134 56Z" fill="#E0E0E0"/>
<path d="M193 50H189V40C188.998 38.1843 189.689 35.6768 189 34C188.311 32.3232 186.271 31.2826 185 30C183.729 28.7174 182.66 27.6931 181 27C179.34 26.3069 176.796 25.9981 175 26C173.204 26.0019 171.658 26.3034 170 27C168.342 27.6966 167.268 28.7148 166 30C163.438 32.5957 160.996 36.3329 161 40V50H158V40C158.004 35.3258 159.729 30.3025 163 27C166.271 23.6975 170.377 21.9962 175 22C179.623 22.0038 184.734 23.6922 188 27C191.266 30.3078 193.004 35.3258 193 40V50Z" fill="#263238"/>
<path d="M193 45H158C153.171 45 149 49.2436 149 54V87C149 91.7564 153.171 96 158 96H193C197.829 96 202 91.7564 202 87V54C202 49.2436 197.829 45 193 45Z" fill="#318FFF"/>
<g opacity="0.3">
<path opacity="0.3" d="M181 68C181.003 67.0806 180.474 66.7993 180 66C179.526 65.2006 178.826 64.4677 178 64C177.174 63.5322 176.959 63.0124 176 63C175.041 62.9876 173.839 63.5537 173 64C172.161 64.4462 171.496 65.2131 171 66C170.504 66.7868 170.022 67.0808 170 68C169.978 68.9191 170.543 70.1917 171 71C171.457 71.8082 172.184 72.5165 173 73L171 79H180C180 79 178.657 75.4186 178 73C178.747 72.5186 179.576 71.761 180 71C180.424 70.239 180.998 68.8628 181 68Z" fill="black"/>
</g>
<g opacity="0.2">
<path opacity="0.2" d="M153 80C152.509 80 151.802 74.1789 152 67C152.198 59.8211 152.509 53.9908 153 54C153.491 54.0092 154.198 59.8211 154 67C153.802 74.1789 153.491 80.0046 153 80Z" fill="white"/>
</g>
<g opacity="0.2">
<path opacity="0.2" d="M153 87.0001C152.778 87.0001 152.006 86.8301 152 86.0001C151.994 85.1701 151.778 84.0055 152 84.0001C152.222 83.9947 152.994 84.1701 153 85.0001C153.006 85.8301 153.222 86.9947 153 87.0001Z" fill="white"/>
</g>
<g opacity="0.2">
<path opacity="0.2" d="M170 79C169.738 78.9091 168.92 76.6646 170 73H171C170.508 72.4929 170.533 71.5885 170 71C169.175 70.0215 168.069 69.2997 168 68C167.944 66.9559 168.5 65.9073 169 65C169.317 64.4009 169.466 63.3994 170 63C170.377 62.7274 169.959 62.9331 170 63C170.12 63.1483 170.547 64.6079 170 66C169.657 66.8708 168.855 67.0713 169 68C169.145 68.9288 169.41 69.2873 170 70L172 72V73C170.791 76.6406 170.262 79.0862 170 79Z" fill="white"/>
</g>
<g opacity="0.2">
<path opacity="0.2" d="M191 48C191 48.2069 189.415 47.8966 186 48C182.585 48.1035 178.254 49.046 173 49C170.392 49 167.259 48.0575 165 48C162.741 47.9425 159.629 47.7759 158 48C156.707 48.1127 156.085 49.1476 155 50C154.241 50.6265 154.086 51.069 154 51C153.914 50.931 154.269 49.8334 155 49C156.077 47.8731 156.585 47.2225 158 47C158.948 46.8229 161.04 47.0027 162 47H165C167.259 47 170.392 47 173 47C178.216 47.046 182.585 46.8333 186 47C189.415 47.1667 191 47.7931 191 48Z" fill="white"/>
</g>
<path d="M13 157V158C13 158 8.45636 166.259 9 167C9.37118 167.477 10.4309 167.825 11 168C11.5691 168.175 11.435 168.189 12 168C13.5975 167.588 21 161 21 161V160L13 157Z" fill="#318FFF"/>
<g opacity="0.3">
<path opacity="0.3" d="M10 165C10 165 10.9334 164.689 12 167C12 167 13.7871 165.792 16 164C18.2129 162.208 20 161 20 161C20 161 20.0664 160.82 20 161C19.9336 161.18 20 162 20 162L16 165C16 165 12.6418 167.846 12 168C11.3582 168.154 10.8144 168.351 10 168C9.47853 167.814 9.26261 167.474 9 167C9 166.897 10 165 10 165Z" fill="black"/>
</g>
<path d="M13 168C12.966 168 13.1985 167.405 13 167C12.7435 166.473 12.4919 166.371 12 166C11.5081 165.629 10.625 165.137 10 165C9.51794 164.899 9 165.025 9 165C9.26938 164.965 9.73885 164.931 10 165C10.6621 165.109 11.4837 165.614 12 166C12.5082 166.388 12.7641 166.441 13 167C13.1096 167.219 12.9898 167.761 13 168Z" fill="#263238"/>
<path d="M21 160C20.9692 160.039 21.039 159.968 21 160H20L19 162L15 164C14.2841 164.634 13.8149 165.494 13 166C12.3141 166.417 11.8036 167.074 11 167C10.4522 166.942 9.37564 166.395 9 166C8.86569 165.866 9.07042 166.175 9 166C9.10229 166.167 8.86738 165.855 9 166C9.3807 166.348 10.4811 166.957 11 167C11.7756 167.051 12.3428 166.407 13 166C13.8046 165.497 14.2895 164.624 15 164C16.5511 162.736 17.9262 162.866 19 162L20 160H21C20.9539 160.028 21.0362 159.96 21 160Z" fill="#263238"/>
<path d="M14 163C13.6423 162.881 13.3169 163.164 13 163C12.6517 162.867 12.3075 162.173 12 162C12.3923 162.068 12.6778 161.833 13 162C13.3545 162.134 13.749 162.784 14 163Z" fill="#263238"/>
<path d="M14 163C13.6514 162.89 13.3246 163.168 13 163C12.6564 162.879 12.3138 162.185 12 162C12.3663 162.048 12.6727 161.829 13 162C13.3457 162.128 13.7159 162.766 14 163Z" fill="#263238"/>
<path d="M15 161C14.9694 161.027 14.5502 160.238 14 160C13.4498 159.762 12.9913 160.055 13 160C13.3847 159.999 13.6668 159.828 14 160C14.3577 160.141 14.7651 160.721 15 161Z" fill="#263238"/>
<path d="M16 160C16 160.035 15.5587 159.239 15 159C14.4413 158.76 13.9902 159.045 14 159C14.3769 158.991 14.6665 158.821 15 159C15.356 159.126 15.7559 159.708 16 160Z" fill="#263238"/>
<path d="M16 159C15.733 158.909 15.2075 159.163 15 159C14.7656 158.838 15.1957 158.192 15 158C14.8808 157.886 14.1 158.126 14 158C13.936 157.933 14.0351 157.079 14 157C13.9759 156.951 13.9895 157.052 14 157C14.0105 156.948 13.9578 157.04 14 157C14.0893 156.94 13.8841 157.011 14 157C14.1159 156.989 14.8955 156.958 15 157C15.1809 157.06 14.8653 156.886 15 157C15.2188 157.19 15.9328 157.747 16 158C16.0476 158.165 16.0079 158.83 16 159C16.0359 159 16 159.12 16 159C15.9641 159 16.1496 158.394 16 158C15.9194 157.771 15.2062 157.171 15 157C14.8803 156.903 15.1568 157.052 15 157C14.9329 156.968 14.0779 157 14 157C13.9221 157 14.0671 156.968 14 157C13.9043 157.077 13.9043 157.88 14 158C14.0958 158.12 14.8983 157.889 15 158C15.1836 158.192 14.7851 157.83 15 158C15.383 158.317 16.012 158.976 16 159Z" fill="#263238"/>
<path d="M16 159C16 159 15.954 159.08 16 159C16.0678 158.89 15.891 159.091 16 159C16.2571 158.777 17.6118 158.07 18 158C18.0848 157.987 17.9152 157.987 18 158C18.0508 158.009 17.9627 157.974 18 158C18.0373 158.027 17.9871 157.963 18 158C18.0041 158.063 18.0334 157.942 18 158C17.9666 158.058 18.0644 158.958 18 159C17.9035 159.082 17.1231 158.94 17 159C16.7922 159.101 17.2466 158.971 17 159C16.8341 159.02 16.1658 159.02 16 159C16 159.007 15.8851 159 16 159C16.2185 159.004 16.7843 159.026 17 159C17.228 158.962 16.8093 159.099 17 159C17.1139 158.944 17.9128 158.077 18 158C18.049 157.969 17.9731 158.043 18 158C18.0269 157.957 17.9999 158.048 18 158C18 157.923 18.1333 157.98 18 158C17.8678 158.022 17.1212 157.956 17 158C16.789 158.074 17.1629 158.877 17 159C16.8573 159.125 16.1143 158.86 16 159Z" fill="#263238"/>
<path d="M20 159C19.7356 158.938 19.2561 158.912 19 159C18.3932 159.245 18.3181 159.457 18 160C17.6802 160.543 16.9247 161.383 17 162C17.0587 162.473 17.0294 162.989 17 163C16.8392 162.778 17.0321 162.266 17 162C16.8835 161.354 16.6593 160.572 17 160C17.3339 159.42 18.339 159.225 19 159C19.1352 158.944 19.8528 158.986 20 159C19.879 158.92 20.1471 159.013 20 159Z" fill="#263238"/>
<path d="M17 163C16.7318 163.411 16.3567 163.696 16 164C15.6853 164.363 15.3872 164.751 15 165C15.2682 164.589 15.6433 164.304 16 164C16.3159 163.639 16.6139 163.251 17 163Z" fill="#263238"/>
<path d="M17 162C17.0424 162 16.9717 161.789 17 162C17.0283 162.211 17 162.976 17 163C17 163.024 17.0283 163.235 17 163C16.9717 162.765 16.9623 162.008 17 162Z" fill="#263238"/>
<path d="M17 161C17.0377 161 17.0471 161.795 17 162C16.9529 162.205 17.0377 162.008 17 162C16.9623 161.992 16.9529 161.23 17 161C16.9623 160.975 17.0471 160.77 17 161Z" fill="#263238"/>
<path d="M17.3056 160.008C17.3387 160.041 17.3056 160.13 17.2111 160.233C17.1166 160.337 17.0457 160.393 17.0126 160.375C16.9796 160.356 17.0126 160.248 17.0977 160.139C17.1828 160.031 17.282 159.979 17.3056 160.008Z" fill="#263238"/>
<path d="M18.8701 159.875C18.8701 159.912 18.7994 159.987 18.6863 160.044C18.5732 160.1 18.4648 160.11 18.4413 160.077C18.4177 160.044 18.5025 159.969 18.625 159.907C18.7475 159.846 18.8559 159.837 18.8701 159.875Z" fill="#263238"/>
<path d="M19.7994 159.766C19.7994 159.809 19.6863 159.842 19.5638 159.842C19.4413 159.842 19.3329 159.809 19.3282 159.771C19.3235 159.733 19.4272 159.696 19.5638 159.696C19.7005 159.696 19.8041 159.724 19.7994 159.766Z" fill="#263238"/>
<path d="M75.7636 40.6257C75.4711 40.9786 75.0559 44.7141 75.0559 44.7141C75.0559 44.7141 68.1448 56.4757 67.1824 56.6404C66.2201 56.805 62.0262 48.4778 62.0262 48.4778L57.7191 52.4344C57.7191 52.4344 59.9647 62.9446 66.9843 64.7465C70.2866 65.598 76.0796 55.1161 79.9385 46.3983C80.0046 46.2572 82.0001 41.5149 82.0001 41.5149L75.7636 40.6257Z" fill="#FFBF9D"/>
<path d="M81.9246 41.9242C81.9246 41.9242 81.9246 41.976 81.901 42.0418C81.7218 42.6064 80.6509 44.9305 80.3207 44.907C79.9904 44.8834 79.2262 44.3424 79.3064 44.0084C79.3866 43.6744 80.7452 41.1197 80.7452 41.1197C80.7452 41.1197 80.9811 40.7292 81.7265 40.9362C82.1888 41.068 81.9246 41.9242 81.9246 41.9242Z" fill="#FFBF9D"/>
<path d="M80.8868 40.461C80.8868 40.461 80.8868 40.5128 80.8868 40.5833C80.7075 41.1432 79.6367 43.472 79.3065 43.4438C78.9762 43.4155 78.212 42.8792 78.2969 42.5452C78.3818 42.2112 79.7122 39.6612 79.7122 39.6612C79.7122 39.6612 79.9528 39.2707 80.6934 39.4778C81.151 39.6048 80.8868 40.461 80.8868 40.461Z" fill="#FFBF9D"/>
<path d="M79.6932 39.4355C79.6932 39.4355 79.6932 39.4873 79.6932 39.5531C79.5139 40.1177 78.4431 42.4465 78.1128 42.4183C77.7826 42.3901 77.0231 41.8537 77.1033 41.5197C77.1835 41.1857 78.5186 38.6357 78.5186 38.6357C78.5186 38.6357 78.7591 38.2453 79.5045 38.4476C79.9574 38.5793 79.6932 39.4355 79.6932 39.4355Z" fill="#FFBF9D"/>
<path d="M78.4997 38.4381C78.5064 38.4771 78.5064 38.5168 78.4997 38.5558C78.3157 39.1203 77.2495 41.4491 76.9193 41.4209C76.5891 41.3927 75.8249 40.8563 75.9051 40.5223C75.9853 40.1883 77.3203 37.6336 77.3203 37.6336C77.3203 37.6336 77.5609 37.2432 78.3063 37.4502C78.7591 37.5819 78.4997 38.4381 78.4997 38.4381Z" fill="#FFBF9D"/>
<path d="M79.5989 43.317C79.8523 42.9828 80.0586 42.6155 80.2122 42.2255C80.4189 41.8667 80.5775 41.4823 80.6839 41.0823C80.4371 41.4207 80.2312 41.7871 80.0706 42.1738C79.8672 42.5342 79.7087 42.9181 79.5989 43.317Z" fill="#7C4435"/>
<path d="M78.2119 42.7192C78.5422 42.2239 78.8264 41.6995 79.061 41.1525C79.3438 40.6304 79.5791 40.0841 79.7639 39.52C79.4336 40.0153 79.1494 40.5397 78.9148 41.0867C78.632 41.6088 78.3968 42.1551 78.2119 42.7192Z" fill="#7C4435"/>
<g opacity="0.78">
<path opacity="0.78" d="M76.8581 41.9853C77.1858 41.4892 77.4684 40.9649 77.7025 40.4186C77.9877 39.8977 78.223 39.3511 78.4054 38.7861C78.0778 39.2814 77.7937 39.804 77.5563 40.3481C77.2741 40.8715 77.0404 41.4195 76.8581 41.9853Z" fill="#7C4435"/>
</g>
<path d="M75.7729 45.2503L75.3012 43.1896C75.094 42.2873 75.2445 41.34 75.721 40.5456L76.089 39.9387L80.6036 42.2158C80.6036 42.2158 79.4761 43.6789 78.3392 42.818L79.1695 44.5963L75.7729 45.2503Z" fill="#FFBF9D"/>
<path d="M78.7686 44.7564C78.7403 44.7564 78.7686 44.5165 78.7262 44.1166C78.6396 43.5624 78.3506 43.0597 77.9148 42.7052L77.4808 42.3571L78.0091 42.5264L79.1838 42.9075H79.1555C79.4111 42.9519 79.6742 42.9228 79.914 42.8237C80.1537 42.7245 80.3602 42.5594 80.5094 42.3477C80.5325 42.3157 80.5516 42.2809 80.566 42.2442L80.6273 42.3947C79.3253 41.8066 78.1554 41.2562 77.3251 40.8092C76.8679 40.5894 76.4347 40.323 76.0325 40.0142C76.5007 40.1987 76.9575 40.4108 77.4006 40.6493C78.2356 41.0539 79.4102 41.5902 80.7028 42.1642L80.8066 42.2112L80.7688 42.3194C80.7475 42.3699 80.7223 42.4187 80.6934 42.4653C80.526 42.7395 80.2671 42.946 79.9622 43.0487C79.6857 43.1396 79.3922 43.1669 79.1036 43.1286L77.9431 42.724L78.0374 42.55C78.5001 42.9434 78.7883 43.503 78.8394 44.1072C78.8738 44.326 78.8494 44.5501 78.7686 44.7564Z" fill="#7C4435"/>
<path d="M79.9574 42.7617C80.0045 42.7617 79.9196 43.0157 79.9574 43.3498C79.9708 43.4367 80.0105 43.5176 80.0712 43.5814C80.1319 43.6453 80.2107 43.6892 80.297 43.7073C80.4112 43.7039 80.5225 43.6703 80.6195 43.6099C80.7164 43.5496 80.7956 43.4647 80.849 43.3639C81.1509 42.8934 81.4528 42.4559 81.6368 42.136C81.8208 41.8161 81.9198 41.6091 81.9529 41.6185C81.9859 41.6279 81.9529 41.8631 81.7925 42.216C81.5751 42.6604 81.3276 43.0895 81.0518 43.5003C80.9735 43.634 80.86 43.7437 80.7236 43.8175C80.5872 43.8913 80.4332 43.9264 80.2781 43.919C80.1506 43.8884 80.0362 43.8181 79.9513 43.7183C79.8665 43.6185 79.8158 43.4944 79.8064 43.3639C79.7918 43.2037 79.816 43.0423 79.8772 42.8934C79.9102 42.8088 79.9432 42.757 79.9574 42.7617Z" fill="#7C4435"/>
<path d="M60.3609 72.8385C60.3609 72.8385 56.5161 63.3963 56.535 63.2175L57.5304 59.7031L57.9314 57.6707L59.2334 59.1809L65.5879 52.5568C65.7058 52.7167 62.7102 48.379 59.6768 44.1355C57.5634 41.1809 55.2754 40.5317 53.9404 40.4376C53.3851 40.268 52.8148 40.1514 52.2374 40.0895L41.3022 39.9954C38.9156 40.0181 36.6098 40.8605 34.7732 42.3806C34.2684 42.7946 30.0793 48.3508 27.2252 53.8458L36.0186 60.1736L37.4669 57.6331V57.6848C37.5896 58.5458 38.1132 61.0581 38.283 61.919C38.8161 64.5677 38.9859 67.7575 37.6886 69.9452C36.7029 72.3953 35.8618 74.9009 35.1695 77.4491H62.1535C62.1535 77.4491 61.2855 75.1109 60.3609 72.8385Z" fill="#455A64"/>
<path d="M38.6511 68.8912L37.7076 68.1478V68.0632L37.6698 68.1102L31.5701 63.208L34.1883 58.9032L27.8669 54.2974C27.8952 54.6032 22.003 63.3162 22.8003 65.0287C23.9278 67.4469 31.5843 72.2832 34.7167 74.1886C33.8637 74.2992 33.019 74.4657 32.1881 74.6873C31.3908 74.9461 33.9902 75.6282 34.6223 75.7647C34.8676 75.8117 35.3724 75.4212 35.9102 74.9037L36.0564 74.9884L36.2263 74.5932C36.802 74.002 37.3379 73.3733 37.8302 72.7114C37.9623 72.5091 37.9576 71.5917 37.9057 70.6225L38.6511 68.8912Z" fill="#FFBF9D"/>
<path d="M72.4708 159.936L72.433 159.047L63.3896 159.305L63.4698 162.241H64.0265C66.5173 162.302 76.6882 162.392 78.3346 161.879C80.1697 161.328 72.4708 159.936 72.4708 159.936Z" fill="#318FFF"/>
<g opacity="0.3">
<path opacity="0.3" d="M66.7295 162.091C66.5688 161.375 66.1381 160.748 65.5266 160.34C64.9056 159.914 64.1542 159.719 63.4037 159.79L63.4745 162.142L66.7295 162.091Z" fill="black"/>
</g>
<g opacity="0.3">
<path opacity="0.3" d="M76.2352 160.74C76.2352 160.74 78.9383 161.385 78.594 161.803C78.2496 162.222 68.0126 162.476 63.4697 162.241V162.058L75.4615 161.836C75.4615 161.836 75.7116 160.773 76.2352 160.74Z" fill="black"/>
</g>
<path d="M63.3376 162.053H63.4886H63.9603H65.5973C66.9842 162.053 68.8995 162.053 71.0035 162.002C73.1075 161.95 75.0276 161.86 76.4051 161.78L78.042 161.672L78.4855 161.639H78.6412H78.4855H78.0137L76.3768 161.714C74.9993 161.776 73.0745 161.851 70.98 161.907C68.8854 161.964 66.9559 161.978 65.5737 161.987H63.9367H63.4933L63.3376 162.053Z" fill="#263238"/>
<path d="M75.4757 161.968C75.5388 161.713 75.6339 161.466 75.7588 161.234C75.9152 161.016 76.0955 160.815 76.2966 160.637C76.0283 160.739 75.8045 160.932 75.6644 161.182C75.5818 161.294 75.5224 161.421 75.49 161.556C75.4576 161.691 75.4528 161.831 75.4757 161.968Z" fill="#263238"/>
<path d="M72.7774 160.788C72.8057 160.788 72.9283 160.656 73.051 160.458C73.1736 160.261 73.2586 160.091 73.235 160.077C73.2114 160.063 73.084 160.213 72.9614 160.407C72.8387 160.6 72.7538 160.774 72.7774 160.788Z" fill="#263238"/>
<path d="M72.0368 160.449C72.0604 160.449 72.1972 160.378 72.3481 160.242C72.4991 160.105 72.6076 159.987 72.584 159.964C72.5604 159.94 72.4283 160.034 72.2727 160.171C72.117 160.308 72.0179 160.43 72.0368 160.449Z" fill="#263238"/>
<path d="M71.5555 159.653C71.7079 159.701 71.8688 159.716 72.0273 159.696C72.1867 159.71 72.3475 159.691 72.499 159.639C72.3465 159.592 72.1857 159.578 72.0273 159.597C71.8677 159.579 71.7063 159.598 71.5555 159.653Z" fill="#263238"/>
<path d="M71.3763 159.122C71.7133 159.277 72.0979 159.294 72.4472 159.169C72.2708 159.142 72.0922 159.135 71.9141 159.145C71.7358 159.122 71.556 159.115 71.3763 159.122Z" fill="#263238"/>
<path d="M73.0605 160.049C73.2523 160.083 73.4488 160.083 73.6407 160.049C73.8492 160.021 74.0545 159.974 74.254 159.908C74.3756 159.873 74.4928 159.824 74.6031 159.762C74.6365 159.745 74.6659 159.721 74.6895 159.691C74.713 159.662 74.7302 159.628 74.7399 159.592C74.7465 159.552 74.7411 159.51 74.7243 159.472C74.7076 159.435 74.6802 159.403 74.6455 159.381C74.4229 159.285 74.1747 159.264 73.9394 159.323C73.704 159.382 73.4946 159.516 73.3435 159.705C73.2545 159.809 73.1929 159.934 73.1642 160.067C73.1642 160.157 73.1642 160.213 73.1642 160.213C73.2169 160.042 73.3017 159.882 73.4143 159.743C73.5398 159.598 73.7031 159.491 73.886 159.432C74.1123 159.355 74.359 159.364 74.5795 159.456C74.6738 159.517 74.6408 159.621 74.5417 159.677C74.4389 159.735 74.3296 159.781 74.2162 159.813C74.0246 159.883 73.8273 159.937 73.6266 159.973C73.2822 160.025 73.0605 160.035 73.0605 160.049Z" fill="#263238"/>
<path d="M73.2019 160.072C73.2365 160.017 73.2593 159.956 73.2691 159.892C73.2788 159.828 73.2752 159.763 73.2585 159.701C73.235 159.558 73.1767 159.424 73.0887 159.31C73.0372 159.232 72.9673 159.167 72.885 159.122C72.8028 159.077 72.7108 159.053 72.617 159.051C72.5893 159.056 72.5629 159.067 72.5394 159.082C72.5158 159.097 72.4956 159.117 72.4798 159.141C72.464 159.164 72.4529 159.19 72.4473 159.217C72.4417 159.245 72.4417 159.273 72.4471 159.301C72.4643 159.387 72.4996 159.469 72.5509 159.541C72.6319 159.657 72.727 159.763 72.834 159.856C72.9277 159.952 73.0446 160.024 73.1736 160.063C73.1736 160.063 73.0557 159.973 72.8906 159.804C72.7957 159.707 72.7104 159.602 72.6358 159.489C72.5556 159.381 72.4943 159.178 72.6358 159.15C72.7774 159.122 72.933 159.263 73.0227 159.366C73.1056 159.467 73.1652 159.584 73.1972 159.71C73.2124 159.83 73.214 159.952 73.2019 160.072Z" fill="#263238"/>
<path d="M63.4509 159.767C63.4509 159.767 63.7057 159.738 64.1161 159.767C64.6422 159.808 65.1482 159.986 65.5832 160.284C66.0018 160.574 66.3291 160.977 66.5267 161.446C66.673 161.799 66.6966 162.039 66.7154 162.039C66.7343 162.039 66.7154 161.978 66.7154 161.87C66.6977 161.709 66.6597 161.551 66.6022 161.399C66.4201 160.905 66.0909 160.478 65.6587 160.176C65.2076 159.866 64.6774 159.692 64.1302 159.672C63.9656 159.656 63.7996 159.656 63.6349 159.672C63.5684 159.693 63.5061 159.724 63.4509 159.767Z" fill="#263238"/>
<path d="M67.8381 161.249C68.7121 161.378 69.6016 161.362 70.4704 161.201C70.4704 161.173 69.8807 161.201 69.1543 161.23C68.4278 161.258 67.8428 161.216 67.8381 161.249Z" fill="#263238"/>
<path d="M66.0739 161.29C66.0739 161.29 66.1257 161.404 66.1918 161.526C66.2578 161.649 66.2908 161.762 66.3191 161.762C66.3474 161.762 66.3615 161.625 66.2861 161.484C66.2106 161.342 66.0927 161.267 66.0739 161.29Z" fill="#263238"/>
<path d="M65.3851 160.538C65.3851 160.562 65.4275 160.646 65.5217 160.731C65.616 160.815 65.7102 160.867 65.7338 160.848C65.7573 160.83 65.6913 160.745 65.5971 160.656C65.5029 160.566 65.4086 160.519 65.3851 160.538Z" fill="#263238"/>
<path d="M64.4227 160.213C64.4227 160.242 64.5499 160.237 64.6819 160.279C64.8138 160.322 64.9128 160.383 64.9363 160.359C64.9599 160.336 64.8798 160.228 64.7149 160.181C64.5499 160.133 64.4133 160.19 64.4227 160.213Z" fill="#263238"/>
<path d="M63.7669 160.067C63.7669 160.091 63.8093 160.133 63.8847 160.162C63.9601 160.19 64.026 160.185 64.0401 160.162C64.0543 160.138 63.993 160.096 63.9177 160.067C63.8423 160.039 63.7669 160.039 63.7669 160.067Z" fill="#263238"/>
<path d="M45.9725 17.8364C45.4436 17.3915 44.7879 17.1235 44.098 17.0703C43.4082 17.0172 42.719 17.1814 42.1278 17.54C41.5475 17.9116 41.0899 18.4809 40.4625 18.7538C39.4199 19.2242 38.1934 18.8573 37.0659 19.036C36.2332 19.1959 35.4841 19.6444 34.9514 20.3023C34.4186 20.9602 34.1366 21.785 34.1552 22.6304C34.2024 23.5337 34.5892 24.5123 34.1552 25.2979C33.7684 25.9942 32.8956 26.2389 32.2682 26.7376C31.7551 27.1845 31.4312 27.8091 31.362 28.485C31.2928 29.1609 31.4835 29.8378 31.8955 30.379C32.271 30.7345 32.6254 31.1115 32.957 31.5081C33.4004 32.1996 33.3391 33.0841 33.4523 33.8933C33.5655 34.7025 34.0325 35.6246 34.8675 35.6764C35.5327 35.7187 36.1224 35.1683 36.7828 35.2059C37.7263 35.2812 38.0896 36.3915 38.6274 37.1489C38.9738 37.6238 39.4412 37.9976 39.9811 38.2317C40.5211 38.4658 41.114 38.5516 41.6985 38.4804C42.5429 38.3674 43.3779 37.9252 44.1987 38.1322C45.2366 38.3957 45.8593 39.6048 46.916 39.7553C47.7038 39.8682 48.435 39.346 49.02 38.8144C49.605 38.2828 50.1994 37.6617 50.9825 37.5206C51.926 37.3512 52.8317 37.9205 53.78 38.0522C54.3959 38.124 55.0194 38.0144 55.5736 37.7368C56.1277 37.4592 56.5882 37.0259 56.8982 36.4903C57.4171 35.5494 57.4172 34.392 57.9031 33.4323C58.2864 32.8206 58.707 32.2329 59.1626 31.6727C59.3927 31.393 59.5549 31.064 59.6368 30.7115C59.7186 30.359 59.7178 29.9925 59.6344 29.6403C59.4645 29.1699 59.0494 28.7794 58.8465 28.3042C58.5446 27.5891 58.7664 26.7799 58.8465 26.0083C58.9267 25.2368 58.7663 24.3005 58.0587 23.9806C57.7484 23.9023 57.4441 23.8016 57.1483 23.6795C56.5963 23.3408 56.6246 22.5551 56.5774 21.9106C56.5614 21.4365 56.4313 20.9731 56.1982 20.5597C55.965 20.1462 55.6356 19.7947 55.2377 19.5347C54.4121 19.0643 53.1903 19.2995 52.7751 20.1463" fill="#263238"/>
<path d="M40.6937 26.5121C40.2679 25.7373 40.0156 24.8797 39.9539 23.9983C39.8923 23.1169 40.0229 22.2327 40.3367 21.4065C40.6506 20.5802 41.1402 19.8316 41.7718 19.2121C42.4035 18.5927 43.1623 18.117 43.9959 17.8179C45.191 17.4381 46.4486 17.2927 47.6992 17.3898C48.7715 17.3836 49.8334 17.5999 50.8174 18.0249C51.3066 18.2426 51.7367 18.5734 52.0723 18.9898C52.4078 19.4062 52.639 19.8963 52.7469 20.4196" fill="#318FFF"/>
<path d="M46.5811 45.5563C47.1626 45.6011 47.7471 45.5283 48.2996 45.3422C48.8522 45.1562 49.3613 44.8608 49.7966 44.4737C50.2318 44.0867 50.5842 43.6159 50.8326 43.0897C51.081 42.5635 51.2202 41.9927 51.242 41.4115C51.3317 39.0592 51.4118 36.6787 51.4118 36.6787C51.4118 36.6787 54.9877 36.3493 55.2472 32.8209C55.5066 29.2924 55.3887 21.1439 55.3887 21.1439C53.4285 20.1595 51.2404 19.7146 49.0503 19.8552C46.8601 19.9958 44.7472 20.7168 42.9298 21.9437L42.3779 22.3154L42.5807 41.2939C42.5928 42.3744 43.0102 43.4113 43.7506 44.2002C44.491 44.9891 45.5008 45.4729 46.5811 45.5563Z" fill="#FFBF9D"/>
<path d="M53.7045 27.3543C53.6325 27.2826 53.5834 27.1912 53.5635 27.0917C53.5436 26.9922 53.5537 26.8891 53.5926 26.7953C53.6315 26.7015 53.6974 26.6214 53.782 26.565C53.8666 26.5086 53.966 26.4785 54.0678 26.4785C54.1695 26.4785 54.269 26.5086 54.3535 26.565C54.4381 26.6214 54.504 26.7015 54.5429 26.7953C54.5818 26.8891 54.5919 26.9922 54.572 27.0917C54.5521 27.1912 54.503 27.2826 54.431 27.3543C54.3346 27.4502 54.204 27.5041 54.0678 27.5041C53.9315 27.5041 53.8009 27.4502 53.7045 27.3543Z" fill="#263238"/>
<path d="M55.082 26.7571C55.0254 26.8183 54.6905 26.531 54.2046 26.498C53.7187 26.4651 53.3507 26.6959 53.2988 26.6299C53.2469 26.564 53.3365 26.4933 53.4969 26.385C53.7131 26.2495 53.967 26.1865 54.2216 26.2051C54.4761 26.2237 54.7181 26.3231 54.9122 26.4886C55.0679 26.6205 55.1103 26.7336 55.082 26.7571Z" fill="#263238"/>
<path d="M49.0814 26.6906C49.1416 26.727 49.1937 26.7754 49.2344 26.8327C49.2751 26.89 49.3036 26.9551 49.3181 27.0238C49.3325 27.0926 49.3327 27.1635 49.3185 27.2323C49.3043 27.3012 49.2761 27.3663 49.2356 27.4238C49.1952 27.4813 49.1433 27.5299 49.0832 27.5665C49.0231 27.6032 48.9561 27.6272 48.8863 27.6369C48.8166 27.6467 48.7456 27.6421 48.6777 27.6233C48.6098 27.6046 48.5465 27.5722 48.4917 27.528C48.4314 27.4916 48.3794 27.4432 48.3386 27.3859C48.2979 27.3286 48.2694 27.2635 48.255 27.1948C48.2405 27.126 48.2404 27.055 48.2545 26.9862C48.2687 26.9174 48.2969 26.8522 48.3374 26.7948C48.3779 26.7373 48.4298 26.6887 48.4899 26.652C48.55 26.6154 48.617 26.5914 48.6867 26.5816C48.7565 26.5719 48.8275 26.5765 48.8954 26.5952C48.9633 26.614 49.0266 26.6464 49.0814 26.6906Z" fill="#263238"/>
<path d="M49.7655 26.8702C49.65 26.7611 49.5103 26.6808 49.3578 26.6357C49.2054 26.5907 49.0444 26.5823 48.888 26.6112C48.4163 26.5688 48.0294 26.809 47.9776 26.7431C47.9257 26.6771 48.0153 26.6065 48.1804 26.4981C48.3964 26.3603 48.6512 26.2958 48.9069 26.3144C49.1643 26.3335 49.4089 26.4342 49.6051 26.6017C49.7466 26.7336 49.7938 26.8467 49.7655 26.8702Z" fill="#263238"/>
<path d="M51.5014 30.6475C51.7587 30.5641 52.0282 30.5244 52.2987 30.5299C52.4308 30.5299 52.5298 30.5017 52.544 30.4311C52.5556 30.3046 52.5311 30.1773 52.4732 30.0641C52.3694 29.7348 52.2609 29.4008 52.1477 29.0526C51.8366 28.1938 51.6107 27.3067 51.4731 26.4039C51.5486 26.3804 51.9449 27.5283 52.4166 28.968L52.7185 29.9889C52.7917 30.1566 52.805 30.3442 52.7563 30.5205C52.7356 30.568 52.7038 30.6098 52.6636 30.6425C52.6234 30.6753 52.5759 30.698 52.5251 30.7087C52.4516 30.7194 52.3769 30.7194 52.3034 30.7087C52.0345 30.7342 51.7633 30.7135 51.5014 30.6475Z" fill="#263238"/>
<path d="M51.4212 36.6317C49.7854 36.5614 48.2074 36.0079 46.8877 35.0415C46.8877 35.0415 47.8312 37.6479 51.374 37.5444L51.4212 36.6317Z" fill="#7C4435"/>
<path d="M45.6093 19.9257C45.6941 20.6536 46.0175 21.3332 46.5294 21.859C47.0412 22.3847 47.7128 22.7272 48.4398 22.8332C49.3079 22.9367 50.2514 22.6968 51.0345 23.0873C51.5624 23.4351 52.0122 23.8885 52.3554 24.4187C52.5286 24.6829 52.7594 24.9048 53.0306 25.0677C53.3018 25.2306 53.6063 25.3304 53.9216 25.3596C54.224 25.3236 54.5214 25.2542 54.8084 25.1526C54.9526 25.1027 55.106 25.0852 55.2578 25.1015C55.4095 25.1178 55.5557 25.1674 55.6859 25.2467C56.1344 24.21 56.3145 23.0776 56.2095 21.9534C56.1507 21.3944 55.9367 20.8627 55.5918 20.4181C55.2468 19.9735 54.7844 19.6336 54.2565 19.4365C53.5536 19.2248 52.7941 19.3612 52.0723 19.2342C51.4827 19.0978 50.9123 18.8892 50.374 18.6131C49.4817 18.1326 48.4699 17.9171 47.4586 17.9921C46.4585 18.1427 45.4961 18.9613 45.5244 19.9681" fill="#263238"/>
<path d="M42.6278 29.5794C43.911 30.6097 45.4583 27.9469 46.1424 26.2861C46.7683 24.5734 47.1046 22.769 47.1378 20.9464C47.2337 20.3553 47.1239 19.7493 46.8264 19.2292C46.4584 18.7305 46.2933 19.3421 45.8829 18.8763C45.0951 17.9636 43.6421 18.4576 42.925 18.7681C41.7315 19.2809 40.9861 20.6123 40.7503 21.9626C40.5868 23.3263 40.6362 24.707 40.8965 26.0556C40.9861 26.6766 41.0758 27.2976 41.1607 27.9375C41.1907 28.3784 41.3179 28.8074 41.5334 29.1936C41.6353 29.3788 41.7998 29.522 41.9975 29.5978C42.1953 29.6736 42.4136 29.6771 42.6137 29.6076" fill="#263238"/>
<path d="M42.5807 26.6764C42.5796 26.539 42.5256 26.4072 42.43 26.3082C42.3343 26.2093 42.2042 26.1508 42.0665 26.1448C41.406 26.1448 40.3257 26.3894 40.2266 28.2054C40.0851 30.8024 42.5854 30.1531 42.5854 30.0873C42.5854 30.0214 42.5854 27.6879 42.5807 26.6764Z" fill="#FFBF9D"/>
<path d="M42.024 29.062C42.024 29.062 41.9768 29.0902 41.8966 29.1184C41.7873 29.1605 41.6662 29.1605 41.5569 29.1184C41.3932 29.0033 41.2631 28.8467 41.1802 28.6648C41.0973 28.4829 41.0645 28.2822 41.0852 28.0834C41.0896 27.8608 41.1444 27.6421 41.2456 27.4436C41.2752 27.3637 41.3237 27.2921 41.3869 27.2347C41.4501 27.1774 41.5262 27.1361 41.6088 27.1143C41.6618 27.1039 41.7167 27.1123 41.7641 27.1381C41.8115 27.1639 41.8484 27.2054 41.8683 27.2554C41.8966 27.3307 41.8683 27.3777 41.8919 27.3871C41.9155 27.3965 41.9532 27.3448 41.9343 27.2366C41.9259 27.1712 41.8941 27.111 41.8447 27.0672C41.775 27.0087 41.6857 26.9785 41.5947 26.9825C41.4869 26.9982 41.3848 27.0409 41.2981 27.1068C41.2115 27.1726 41.1431 27.2594 41.0993 27.3589C40.978 27.5785 40.9101 27.8235 40.9012 28.074C40.8763 28.3043 40.9198 28.5367 41.0263 28.7425C41.1328 28.9483 41.2977 29.1183 41.5003 29.2314C41.5688 29.2573 41.6424 29.267 41.7153 29.2596C41.7881 29.2523 41.8583 29.2281 41.9202 29.189C42.0145 29.1232 42.0334 29.0667 42.024 29.062Z" fill="#7C4435"/>
<path d="M50.2512 31.273C50.161 31.4281 50.1347 31.6122 50.1779 31.7863C50.2211 31.9604 50.3304 32.111 50.4829 32.2062C50.6353 32.3014 50.8188 32.3339 50.9948 32.2967C51.1707 32.2595 51.3253 32.1556 51.4259 32.0069C51.4798 31.9337 51.5187 31.8506 51.5404 31.7624C51.5621 31.6742 51.5662 31.5826 51.5524 31.4928C51.5386 31.4031 51.5072 31.3169 51.46 31.2392C51.4128 31.1615 51.3507 31.0939 51.2773 31.0401C51.2039 30.9864 51.1206 30.9476 51.0321 30.9259C50.9437 30.9043 50.8518 30.9002 50.7618 30.914C50.6718 30.9278 50.5854 30.9591 50.5075 31.0061C50.4296 31.0532 50.3618 31.1151 50.3079 31.1883" fill="#7C4435"/>
<path d="M51.8741 31.7764C51.6981 31.8486 51.5088 31.883 51.3186 31.8773C51.1284 31.8716 50.9415 31.826 50.7702 31.7435C50.1711 31.5318 49.8267 31.1131 49.8975 31.0707C49.9682 31.0284 50.3126 31.3248 50.841 31.5083C51.3693 31.6917 51.8694 31.687 51.8741 31.7764Z" fill="#263238"/>
<path d="M45.2366 17.8928C44.2695 17.7611 43.5855 16.8202 43.4204 15.8651C43.3288 14.8969 43.4446 13.9203 43.76 13C44.5548 13.5512 45.1295 14.3641 45.3832 15.2959C45.6368 16.2276 45.5532 17.2187 45.147 18.0951" fill="#318FFF"/>
<path d="M45.2272 17.7471C45.1329 17.3891 45.1605 17.0101 45.3056 16.6695C45.4508 16.3289 45.7053 16.046 46.0291 15.8652C46.6785 15.5174 47.4222 15.3855 48.152 15.4889C48.2167 15.4909 48.2798 15.5087 48.336 15.5406C48.3682 15.5682 48.3945 15.602 48.4132 15.64C48.4318 15.678 48.4425 15.7195 48.4445 15.7617C48.4703 16.1212 48.3874 16.48 48.2066 16.792C48.0258 17.104 47.7554 17.3547 47.4302 17.5119C46.7733 17.8099 46.062 17.97 45.3404 17.9823C45.2297 18.0015 45.116 17.9918 45.0102 17.9541C44.984 17.9438 44.9602 17.9283 44.9401 17.9087C44.92 17.8891 44.904 17.8657 44.893 17.8399C44.882 17.8141 44.8763 17.7863 44.8762 17.7583C44.876 17.7303 44.8815 17.7025 44.8922 17.6765" fill="#318FFF"/>
<path d="M58.106 22.4096C58.106 22.4096 58.106 22.3578 58.0446 22.2873C58.0059 22.2376 57.9575 22.1962 57.9024 22.1654C57.8473 22.1347 57.7866 22.1154 57.7238 22.1085C57.6276 22.083 57.5252 22.0952 57.4375 22.1424C57.3499 22.1896 57.2836 22.2683 57.2521 22.3625C57.2237 22.4844 57.2371 22.6123 57.2901 22.7257C57.3431 22.8391 57.4327 22.9316 57.5446 22.9883C57.688 23.0406 57.8449 23.0436 57.9903 22.9967C58.1356 22.9498 58.261 22.8557 58.3466 22.7295C58.4435 22.5764 58.5008 22.4016 58.5131 22.2209C58.5255 22.0402 58.4926 21.8593 58.4173 21.6945C58.2435 21.3013 57.9365 20.9817 57.5501 20.7916C57.1637 20.6015 56.7225 20.5531 56.3039 20.6548L56.1624 20.6971L55.5066 20.9041L56.0444 20.4854C56.2006 20.3486 56.3132 20.1693 56.3685 19.9696C56.4238 19.7698 56.4194 19.5583 56.3558 19.361C56.2907 19.1739 56.1845 19.0037 56.0449 18.8628C55.9054 18.722 55.7359 18.6141 55.5491 18.5471C55.2172 18.4394 54.8648 18.4097 54.5194 18.4603C54.1741 18.5109 53.8451 18.6404 53.5583 18.8388C53.3036 18.994 53.0865 19.1775 52.8648 19.3092C52.6778 19.4263 52.4628 19.4913 52.2421 19.4974C51.8647 19.4974 51.7232 19.2998 51.7373 19.2998C51.8896 19.3841 52.064 19.4202 52.2374 19.4033C52.4383 19.3823 52.6301 19.3093 52.7941 19.1916C52.9922 19.0646 53.1998 18.8717 53.4687 18.6976C53.7564 18.5045 54.0757 18.3629 54.4122 18.2789C54.812 18.177 55.2336 18.2 55.6198 18.3448C55.8382 18.4203 56.0366 18.5442 56.2 18.7071C56.3634 18.8701 56.4876 19.0679 56.5633 19.2857C56.6492 19.5324 56.6582 19.7993 56.5892 20.0512C56.5202 20.3031 56.3763 20.5283 56.1765 20.6971L56.0586 20.4854L56.2237 20.4336C56.6991 20.3169 57.2006 20.3731 57.6382 20.5922C58.0757 20.8112 58.4206 21.1787 58.6107 21.6286C58.6974 21.8291 58.7316 22.0482 58.7102 22.2654C58.6887 22.4827 58.6123 22.6909 58.4881 22.8706C58.373 23.0296 58.2067 23.1444 58.0169 23.1958C57.8271 23.2472 57.6254 23.232 57.4455 23.1529C57.3018 23.0762 57.1891 22.9524 57.1263 22.8024C57.0636 22.6524 57.0547 22.4854 57.1011 22.3296C57.1247 22.2661 57.1618 22.2084 57.2099 22.1605C57.2579 22.1126 57.3158 22.0756 57.3795 22.052C57.4821 22.0145 57.5932 22.0063 57.7003 22.0285C57.7732 22.0403 57.8424 22.0689 57.9022 22.1123C57.9621 22.1556 58.0108 22.2123 58.0446 22.2779C58.139 22.3578 58.106 22.4096 58.106 22.4096Z" fill="#263238"/>
<path d="M32.2069 26.6014C32.292 26.5796 32.3813 26.5796 32.4664 26.6014C32.6715 26.6646 32.8525 26.7884 32.9855 26.9564C33.1186 27.1244 33.1975 27.3287 33.2117 27.5423C33.2177 27.6534 33.2015 27.7647 33.1643 27.8696C33.1271 27.9746 33.0694 28.0712 32.9947 28.1539C32.8194 28.3424 32.5847 28.4652 32.3296 28.502C32.186 28.5258 32.0389 28.518 31.8987 28.4789C31.7585 28.4399 31.6286 28.3707 31.5182 28.2762C31.3101 28.0382 31.1718 27.7477 31.1185 27.4364C31.0652 27.1252 31.0991 26.8053 31.2162 26.512C31.3334 26.1645 31.5249 25.8465 31.7774 25.5801C32.0299 25.3136 32.3374 25.1051 32.6787 24.9688C33.0419 24.8277 33.424 24.7712 33.7826 24.663C33.9606 24.6203 34.128 24.5419 34.2748 24.4327C34.4215 24.3236 34.5446 24.1859 34.6364 24.0279C34.7951 23.6755 34.8413 23.2829 34.7685 22.9035C34.697 22.4956 34.5864 22.0954 34.4383 21.7085C34.2872 21.2994 34.2012 20.8692 34.1835 20.4336C34.1893 19.9898 34.357 19.5633 34.6553 19.2339C34.9372 18.9227 35.2995 18.6948 35.7026 18.5752C36.0844 18.4682 36.484 18.4394 36.8772 18.4905C37.6509 18.5705 38.2925 18.961 38.9058 19.0504C39.2002 19.1086 39.5056 19.0672 39.7738 18.9328C40.02 18.7925 40.2402 18.6111 40.4248 18.3964C40.735 17.9867 41.1269 17.6455 41.5759 17.3944C41.9325 17.2304 42.3269 17.1654 42.7175 17.2062C42.9624 17.2292 43.2008 17.2978 43.4204 17.4085C43.477 17.4369 43.5321 17.4684 43.5855 17.5026L43.6327 17.5449C43.3423 17.4116 43.0312 17.3289 42.7128 17.3003C42.3414 17.2765 41.9703 17.3511 41.6372 17.5167C41.2113 17.7721 40.8421 18.1115 40.5522 18.5141C40.3568 18.7467 40.124 18.9455 39.8634 19.1021C39.56 19.2581 39.2138 19.311 38.8775 19.2527C38.1887 19.1492 37.5707 18.7822 36.8536 18.7164C36.4879 18.6558 36.1129 18.686 35.7616 18.8041C35.4103 18.9223 35.0935 19.1248 34.8393 19.3938C34.5855 19.6828 34.4463 20.0542 34.4477 20.4383C34.4623 20.847 34.5435 21.2506 34.6883 21.6332C34.8422 22.0335 34.9559 22.448 35.028 22.8706C35.1076 23.3003 35.0515 23.7441 34.8676 24.1408C34.7613 24.3259 34.6182 24.4874 34.447 24.6152C34.2758 24.7431 34.0802 24.8346 33.8722 24.8842C33.4854 25.0018 33.108 25.0535 32.7777 25.1758C32.4647 25.3012 32.1823 25.4921 31.9496 25.7355C31.7168 25.979 31.5391 26.2695 31.4285 26.5872C31.309 26.8493 31.2647 27.1393 31.3005 27.425C31.3363 27.7107 31.4508 27.9809 31.6314 28.2056C31.8153 28.3486 32.0458 28.4186 32.2784 28.4021C32.511 28.3856 32.7292 28.2837 32.891 28.1163C33.0097 27.983 33.081 27.8144 33.0938 27.6366C33.1066 27.4588 33.0602 27.2818 32.9617 27.133C32.8543 26.9184 32.6712 26.7508 32.4475 26.6625C32.2965 26.6108 32.2069 26.6108 32.2069 26.6014Z" fill="#263238"/>
<path d="M73.0981 159.31L62.4554 82.4078L62.1582 77.4445L35.528 76.1836L34.4146 80.366C30.6784 93.5014 11.799 157.019 11.799 157.019L21.0217 159.922L48.4775 87.1407L61.2572 159.183L73.0981 159.31Z" fill="#263238"/>
<path d="M60.8001 76.7026C60.7291 76.7026 60.6629 76.5565 60.644 76.3632C60.6251 76.17 60.644 76.0051 60.7291 76.0004C60.8143 75.9956 60.8663 76.1465 60.8853 76.3397C60.9042 76.5329 60.8663 76.6979 60.8001 76.7026Z" fill="#455A64"/>
<path d="M61.0786 79.5008C61.0123 79.5008 60.9225 79.1996 60.8846 78.8136C60.8468 78.4276 60.8846 78.1075 60.9366 78.1028C60.9887 78.0981 61.0928 78.4041 61.1306 78.7901C61.1685 79.176 61.1448 79.4961 61.0786 79.5008Z" fill="#455A64"/>
<path d="M61.3712 82.3001C61.3002 82.3001 61.215 81.9989 61.1725 81.6129C61.1299 81.2269 61.1725 80.9068 61.2198 80.8974C61.2671 80.888 61.3759 81.1987 61.4185 81.5847C61.4611 81.9706 61.4374 82.2907 61.3712 82.3001Z" fill="#455A64"/>
<path d="M61.673 85.0948C61.6021 85.0948 61.5169 84.7936 61.4743 84.4076C61.4317 84.0216 61.4743 83.7015 61.5169 83.6968C61.5595 83.6921 61.6778 83.9981 61.7156 84.3841C61.7534 84.7701 61.7393 85.0854 61.673 85.0948Z" fill="#455A64"/>
<path d="M61.9845 87.8897C61.9182 87.8897 61.8284 87.5884 61.7858 87.2024C61.7432 86.8165 61.7574 86.5011 61.8284 86.4917C61.8993 86.4822 61.9845 86.7929 62.0271 87.1789C62.0696 87.5649 62.0507 87.8802 61.9845 87.8897Z" fill="#455A64"/>
<path d="M62.3098 90.6841C62.2389 90.6841 62.149 90.3829 62.1017 89.9969C62.0544 89.6109 62.078 89.2955 62.1443 89.2861C62.2105 89.2767 62.3051 89.5827 62.3477 89.9686C62.3903 90.3546 62.3761 90.6747 62.3098 90.6841Z" fill="#455A64"/>
<path d="M62.6402 93.4784C62.5739 93.4784 62.4793 93.1771 62.432 92.7911C62.3847 92.4052 62.4036 92.0851 62.4699 92.0804C62.5361 92.0757 62.6307 92.3769 62.678 92.7629C62.7253 93.1489 62.7064 93.469 62.6402 93.4784Z" fill="#455A64"/>
<path d="M62.9798 96.2683C62.9136 96.2683 62.819 95.9718 62.7717 95.5858C62.7244 95.1998 62.7386 94.8797 62.8095 94.8703C62.8805 94.8609 62.9704 95.1669 63.0177 95.5529C63.065 95.9388 63.0461 96.2589 62.9798 96.2683Z" fill="#455A64"/>
<path d="M63.3289 99.0581C63.258 99.0581 63.1633 98.7616 63.116 98.3756C63.0687 97.9896 63.0829 97.6696 63.1539 97.6648C63.2248 97.6601 63.3147 97.9614 63.362 98.3474C63.4094 98.7334 63.3952 99.0487 63.3289 99.0581Z" fill="#455A64"/>
<path d="M63.6828 101.848C63.6118 101.848 63.5172 101.552 63.4699 101.166C63.4226 100.78 63.4368 100.464 63.503 100.455C63.5693 100.445 63.6639 100.751 63.7159 101.137C63.768 101.523 63.768 101.839 63.6828 101.848Z" fill="#455A64"/>
<path d="M64.0413 104.638C63.975 104.638 63.8804 104.341 63.8284 103.955C63.7763 103.569 63.7905 103.254 63.8615 103.245C63.9325 103.235 64.0223 103.541 64.0744 103.927C64.1264 104.313 64.1075 104.61 64.0413 104.638Z" fill="#455A64"/>
<path d="M64.4045 107.432C64.3382 107.432 64.2436 107.136 64.1916 106.75C64.1395 106.364 64.1537 106.044 64.2247 106.039C64.2957 106.034 64.3856 106.331 64.4376 106.717C64.4896 107.103 64.4754 107.432 64.4045 107.432Z" fill="#455A64"/>
<path d="M64.7772 110.218C64.7063 110.218 64.6117 109.921 64.5596 109.536C64.5076 109.15 64.5218 108.829 64.588 108.82C64.6542 108.811 64.7536 109.117 64.8056 109.503C64.8577 109.889 64.8435 110.209 64.7772 110.218Z" fill="#455A64"/>
<path d="M65.1498 113.003C65.0789 113.003 64.9842 112.706 64.9322 112.32C64.8802 111.934 64.8944 111.619 64.9606 111.61C65.0268 111.6 65.1262 111.906 65.1782 112.292C65.2303 112.678 65.2161 112.993 65.1498 113.003Z" fill="#455A64"/>
<path d="M65.5226 115.793C65.4564 115.793 65.3618 115.496 65.305 115.11C65.2482 114.724 65.2671 114.404 65.3334 114.395C65.3996 114.385 65.499 114.691 65.551 115.077C65.6031 115.463 65.5889 115.783 65.5226 115.793Z" fill="#455A64"/>
<path d="M65.8999 118.578C65.8336 118.578 65.7343 118.281 65.6822 117.895C65.6302 117.509 65.6444 117.194 65.7106 117.185C65.7769 117.175 65.8762 117.481 65.9283 117.862C65.9803 118.244 65.9708 118.568 65.8999 118.578Z" fill="#455A64"/>
<path d="M66.2822 121.363C66.2112 121.363 66.1166 121.071 66.0645 120.685C66.0125 120.299 66.022 119.979 66.0645 119.97C66.1071 119.96 66.2301 120.266 66.2822 120.652C66.3342 121.038 66.3484 121.358 66.2822 121.363Z" fill="#455A64"/>
<path d="M66.669 124.148C66.6027 124.148 66.5034 123.852 66.4466 123.47C66.3898 123.089 66.3993 122.764 66.4466 122.755C66.4939 122.745 66.6122 123.051 66.6642 123.433C66.7163 123.814 66.7352 124.139 66.669 124.148Z" fill="#455A64"/>
<path d="M67.0701 126.929C67.0038 126.929 66.9045 126.632 66.8477 126.251C66.7909 125.87 66.7957 125.55 66.8477 125.536C66.8997 125.521 67.018 125.832 67.0748 126.213C67.1316 126.595 67.1458 126.919 67.0701 126.929Z" fill="#455A64"/>
<path d="M67.4992 129.704C67.433 129.704 67.3289 129.413 67.2721 129.027C67.2153 128.641 67.2201 128.325 67.2721 128.316C67.3242 128.306 67.4377 128.608 67.4992 128.994C67.5607 129.38 67.5654 129.695 67.4992 129.704Z" fill="#455A64"/>
<path d="M67.9192 132.485C67.8529 132.485 67.7536 132.193 67.6921 131.807C67.6306 131.421 67.64 131.106 67.6921 131.096C67.7441 131.087 67.8577 131.388 67.9192 131.774C67.9807 132.16 68.0138 132.475 67.9192 132.485Z" fill="#455A64"/>
<path d="M68.3436 135.261C68.2773 135.261 68.1733 134.969 68.1165 134.588C68.0597 134.206 68.0645 133.881 68.1165 133.872C68.1685 133.863 68.2868 134.164 68.3436 134.55C68.4004 134.936 68.4098 135.251 68.3436 135.261Z" fill="#455A64"/>
<path d="M68.7683 138.041C68.6973 138.041 68.598 137.744 68.5365 137.363C68.475 136.982 68.4892 136.662 68.5365 136.648C68.5838 136.634 68.7068 136.944 68.7636 137.325C68.8203 137.707 68.8345 138.013 68.7683 138.041Z" fill="#455A64"/>
<path d="M69.1928 140.836C69.1218 140.836 69.0225 140.544 68.961 140.158C68.8995 139.772 68.9089 139.456 68.961 139.447C69.013 139.438 69.1266 139.739 69.1881 140.125C69.2496 140.511 69.259 140.807 69.1928 140.836Z" fill="#455A64"/>
<path d="M69.6128 143.602C69.5465 143.602 69.4472 143.305 69.3857 142.924C69.3242 142.543 69.3336 142.218 69.3857 142.208C69.4377 142.199 69.556 142.5 69.6175 142.886C69.679 143.272 69.6837 143.588 69.6128 143.602Z" fill="#455A64"/>
<path d="M70.0373 146.383C69.9711 146.383 69.8717 146.086 69.8102 145.705C69.7487 145.323 69.7582 144.999 69.8102 144.989C69.8623 144.98 69.9806 145.281 70.0421 145.667C70.1036 146.053 70.1083 146.368 70.0373 146.383Z" fill="#455A64"/>
<path d="M70.4619 149.163C70.3956 149.163 70.2916 148.867 70.2348 148.485C70.178 148.104 70.1827 147.779 70.2348 147.77C70.2868 147.76 70.4051 148.062 70.4619 148.448C70.5186 148.834 70.5281 149.154 70.4619 149.163Z" fill="#455A64"/>
<path d="M70.8864 151.943C70.8155 151.943 70.7161 151.651 70.6546 151.265C70.5931 150.88 70.6073 150.559 70.6546 150.55C70.7019 150.541 70.8249 150.847 70.8817 151.228C70.9385 151.609 70.9527 151.934 70.8864 151.943Z" fill="#455A64"/>
<path d="M71.3157 154.724C71.2448 154.724 71.1454 154.432 71.0886 154.046C71.0319 153.66 71.0366 153.344 71.0886 153.335C71.1407 153.326 71.259 153.627 71.3157 154.013C71.3725 154.399 71.3725 154.714 71.3157 154.724Z" fill="#455A64"/>
<path d="M71.7214 157.509C71.6552 157.509 71.5511 157.217 71.4943 156.831C71.4376 156.445 71.447 156.125 71.4943 156.115C71.5416 156.106 71.6599 156.407 71.7214 156.793C71.7829 157.179 71.7877 157.499 71.7214 157.509Z" fill="#455A64"/>
<path d="M72.0231 159.617C71.9569 159.617 71.8812 159.476 71.8528 159.282C71.8244 159.089 71.8528 158.924 71.9238 158.915C71.9947 158.905 72.0704 159.056 72.0988 159.249C72.1272 159.443 72.0894 159.608 72.0231 159.617Z" fill="#455A64"/>
<path d="M20.3668 157.913C20.433 157.913 20.4377 158.101 20.3668 158.285C20.2958 158.469 20.2106 158.605 20.1444 158.587C20.0782 158.568 20.0734 158.398 20.1444 158.214C20.2154 158.03 20.3053 157.894 20.3668 157.913Z" fill="#455A64"/>
<path d="M21.2434 155.189C21.3048 155.212 21.2434 155.532 21.1397 155.908C21.0359 156.285 20.8708 156.572 20.8047 156.553C20.7387 156.534 20.8047 156.21 20.9085 155.833C21.0123 155.457 21.1774 155.17 21.2434 155.189Z" fill="#455A64"/>
<path d="M22.1257 152.474C22.1917 152.474 22.1257 152.813 22.0219 153.189C21.9181 153.565 21.7483 153.852 21.6822 153.829C21.6162 153.805 21.6822 153.49 21.7907 153.114C21.8992 152.737 22.0643 152.45 22.1257 152.474Z" fill="#455A64"/>
<path d="M23.0269 149.774C23.0929 149.774 23.0269 150.112 22.9184 150.489C22.8098 150.865 22.64 151.147 22.5787 151.129C22.5174 151.11 22.5787 150.785 22.6872 150.413C22.7957 150.042 22.9655 149.736 23.0269 149.774Z" fill="#455A64"/>
<path d="M23.9418 147.05C24.0078 147.05 23.9418 147.388 23.8286 147.765C23.7153 148.141 23.5455 148.423 23.4842 148.4C23.4229 148.376 23.4842 148.061 23.5974 147.685C23.7106 147.308 23.8757 147.026 23.9418 147.05Z" fill="#455A64"/>
<path d="M24.8665 144.34C24.9325 144.363 24.8665 144.683 24.7533 145.06C24.64 145.436 24.4655 145.718 24.4042 145.695C24.3428 145.671 24.4042 145.351 24.5174 144.98C24.6306 144.608 24.8051 144.321 24.8665 144.34Z" fill="#455A64"/>
<path d="M25.8052 141.639C25.8713 141.663 25.8052 141.983 25.6873 142.354C25.5694 142.726 25.3995 143.013 25.3335 142.99C25.2675 142.966 25.3335 142.646 25.4562 142.274C25.5788 141.903 25.7439 141.616 25.8052 141.639Z" fill="#455A64"/>
<path d="M26.7583 138.953C26.8197 138.953 26.7583 139.296 26.6357 139.668C26.513 140.04 26.3432 140.327 26.2819 140.303C26.2205 140.28 26.2819 139.96 26.4045 139.588C26.5272 139.216 26.6923 138.92 26.7583 138.953Z" fill="#455A64"/>
<path d="M27.716 136.243C27.782 136.267 27.716 136.587 27.5933 136.958C27.4707 137.33 27.3008 137.617 27.2348 137.593C27.1688 137.57 27.2348 137.25 27.3622 136.878C27.4895 136.507 27.6547 136.224 27.716 136.243Z" fill="#455A64"/>
<path d="M28.6876 133.552C28.7537 133.576 28.6876 133.896 28.5603 134.267C28.4329 134.639 28.2678 134.921 28.2017 134.898C28.1357 134.874 28.2017 134.554 28.3291 134.183C28.4565 133.811 28.6263 133.529 28.6876 133.552Z" fill="#455A64"/>
<path d="M29.6689 130.866C29.735 130.889 29.6689 131.204 29.5369 131.576C29.4048 131.948 29.2397 132.23 29.1783 132.206C29.117 132.183 29.1783 131.863 29.3057 131.496C29.4331 131.129 29.6076 130.842 29.6689 130.866Z" fill="#455A64"/>
<path d="M30.6596 128.179C30.721 128.179 30.6596 128.523 30.5275 128.89C30.3955 129.257 30.2256 129.544 30.1643 129.52C30.103 129.497 30.1643 129.177 30.2964 128.805C30.4285 128.433 30.5936 128.156 30.6596 128.179Z" fill="#455A64"/>
<path d="M31.655 125.493C31.7211 125.517 31.655 125.837 31.5229 126.208C31.3908 126.58 31.221 126.857 31.155 126.834C31.0889 126.81 31.155 126.495 31.2918 126.123C31.4286 125.752 31.5937 125.47 31.655 125.493Z" fill="#455A64"/>
<path d="M32.6597 122.816C32.7258 122.839 32.6597 123.155 32.5229 123.526C32.3861 123.898 32.221 124.175 32.1597 124.152C32.0983 124.128 32.1597 123.808 32.2965 123.442C32.4333 123.075 32.5984 122.792 32.6597 122.816Z" fill="#455A64"/>
<path d="M33.6741 120.134C33.7354 120.158 33.6741 120.478 33.5373 120.849C33.4005 121.221 33.2306 121.499 33.1646 121.475C33.0985 121.452 33.1646 121.132 33.3061 120.76C33.4476 120.388 33.608 120.134 33.6741 120.134Z" fill="#455A64"/>
<path d="M34.693 117.462C34.7543 117.485 34.693 117.801 34.5515 118.172C34.41 118.544 34.2448 118.822 34.1835 118.798C34.1222 118.775 34.1835 118.455 34.3203 118.083C34.4571 117.711 34.627 117.434 34.693 117.462Z" fill="#455A64"/>
<path d="M35.7166 114.785C35.7779 114.809 35.7166 115.129 35.5751 115.5C35.4336 115.872 35.2685 116.145 35.2024 116.121C35.1364 116.098 35.2024 115.778 35.3439 115.411C35.4855 115.044 35.6506 114.762 35.7166 114.785Z" fill="#455A64"/>
<path d="M36.7452 112.137C36.8065 112.16 36.7452 112.48 36.6037 112.852C36.4621 113.223 36.2923 113.496 36.231 113.473C36.1697 113.449 36.231 113.129 36.3725 112.762C36.514 112.395 36.6839 112.09 36.7452 112.137Z" fill="#455A64"/>
<path d="M37.7782 109.445C37.8395 109.469 37.7782 109.789 37.6367 110.156C37.4951 110.523 37.3253 110.805 37.2593 110.777C37.1932 110.748 37.2593 110.438 37.4055 110.066C37.5518 109.695 37.7169 109.422 37.7782 109.445Z" fill="#455A64"/>
<path d="M38.8161 106.773C38.8775 106.801 38.8161 107.117 38.6699 107.488C38.5237 107.86 38.3585 108.133 38.2972 108.109C38.2359 108.086 38.2972 107.766 38.4435 107.399C38.5897 107.032 38.7642 106.75 38.8161 106.773Z" fill="#455A64"/>
<path d="M39.854 104.111C39.9201 104.134 39.854 104.449 39.7078 104.821C39.5616 105.193 39.3964 105.466 39.3351 105.442C39.2738 105.418 39.3351 105.099 39.4814 104.732C39.6276 104.365 39.7927 104.082 39.854 104.111Z" fill="#455A64"/>
<path d="M40.8966 101.443C40.9626 101.466 40.8966 101.786 40.7503 102.153C40.6041 102.52 40.439 102.798 40.3777 102.774C40.3163 102.751 40.3777 102.431 40.5239 102.064C40.6701 101.697 40.8353 101.419 40.8966 101.443Z" fill="#455A64"/>
<path d="M41.9438 98.7755C42.0051 98.8038 41.9438 99.119 41.7976 99.4906C41.6513 99.8623 41.4815 100.135 41.4202 100.112C41.3588 100.088 41.4202 99.7682 41.5664 99.4013C41.7127 99.0343 41.8778 98.752 41.9438 98.7755Z" fill="#455A64"/>
<path d="M43.0101 96.1125C43.0761 96.1407 43.0101 96.4559 42.8638 96.8229C42.7176 97.1898 42.5525 97.4721 42.4864 97.4439C42.4204 97.4157 42.4864 97.1005 42.6374 96.7335C42.7884 96.3665 42.9252 96.089 43.0101 96.1125Z" fill="#455A64"/>
<path d="M44.0809 93.4685C44.1423 93.4967 44.0809 93.8119 43.9158 94.1742C43.7507 94.5364 43.5856 94.814 43.5243 94.7858C43.4629 94.7575 43.5243 94.447 43.6894 94.0801C43.8545 93.7131 44.0196 93.445 44.0809 93.4685Z" fill="#455A64"/>
<path d="M45.3122 90.8856C45.3735 90.9185 45.2792 91.229 45.1046 91.5818C44.9301 91.9347 44.7366 92.1934 44.6753 92.1652C44.614 92.137 44.7036 91.8265 44.8829 91.4736C45.0622 91.1208 45.2509 90.8526 45.3122 90.8856Z" fill="#455A64"/>
<path d="M46.8358 88.4674C46.8877 88.5098 46.7509 88.8014 46.5292 89.1261C46.3075 89.4507 46.0575 89.6765 46.0197 89.6436C45.982 89.6106 46.0999 89.3143 46.3264 88.9849C46.5528 88.6556 46.784 88.4251 46.8358 88.4674Z" fill="#455A64"/>
<path d="M48.4768 87.1404C48.4768 87.2063 48.3684 87.3003 48.2082 87.3849C48.048 87.4696 47.8925 87.5166 47.8501 87.4649C47.8077 87.4131 47.9113 87.2674 48.0951 87.1687C48.2789 87.0699 48.4579 87.0746 48.4768 87.1404Z" fill="#455A64"/>
<path d="M44.1658 46.8359L27.2913 46.3655H10.0866C8.98218 46.3877 7.93172 46.8461 7.16579 47.6399C6.39986 48.4337 5.98104 49.4982 6.00126 50.5997V62.2672C5.9435 70.3294 7.87118 78.2824 11.6151 85.4282C14.7947 91.3796 19.715 97.505 27.2913 101.396C34.259 98.7894 39.4577 91.8312 42.6373 85.8704C46.3812 78.7247 48.3089 70.7716 48.2511 62.7094V51.0654C48.2713 49.9644 47.8524 48.9004 47.0863 48.1074C46.3202 47.3143 45.2698 46.857 44.1658 46.8359Z" fill="#318FFF"/>
<path d="M26.7111 74.0664L20.4652 68.9148L22.5692 66.379L26.3337 69.4841L32.4901 62.4365L34.9809 64.6007L26.7111 74.0664Z" fill="white"/>
<g opacity="0.3">
<path opacity="0.3" d="M44.1658 46.8359L27.2913 46.3655H10.0866C8.98218 46.3877 7.93172 46.8461 7.16579 47.6399C6.39986 48.4337 5.98104 49.4982 6.00126 50.5997V62.2672C5.9435 70.3294 7.87118 78.2824 11.6151 85.4282C14.7947 91.3796 19.715 97.505 27.2913 101.396C34.259 98.7894 39.4577 91.8312 42.6373 85.8704C46.3812 78.7247 48.3089 70.7716 48.2511 62.7094V51.0654C48.2713 49.9644 47.8524 48.9004 47.0863 48.1074C46.3202 47.3143 45.2698 46.857 44.1658 46.8359ZM43.6091 63.5657C43.6547 69.9431 42.1287 76.2341 39.1652 81.8856C36.6508 86.5902 32.9523 91.4407 26.9564 94.5223C20.9651 91.4407 17.4034 86.5949 14.889 81.8856C11.9325 76.2321 10.4115 69.9417 10.4593 63.5657V54.3587C10.4441 53.4884 10.775 52.6475 11.3796 52.0199C11.9843 51.3922 12.8135 51.0287 13.6861 51.009H40.3871C41.2604 51.0275 42.0909 51.3904 42.6965 52.0182C43.3022 52.646 43.6337 53.4876 43.6185 54.3587L43.6091 63.5657Z" fill="black"/>
</g>
</g>
<defs>
<clipPath id="clip0_418_9710">
<rect width="304" height="168" fill="white"/>
</clipPath>
</defs>
</svg>
