<svg width="18" height="18" viewBox="0 0 18 18" fill="none" xmlns="http://www.w3.org/2000/svg">
<path d="M9 16.875C7.44248 16.875 5.91992 16.4131 4.62489 15.5478C3.32985 14.6825 2.32049 13.4526 1.72445 12.0136C1.12841 10.5747 0.972461 8.99127 1.27632 7.46367C1.58018 5.93607 2.3302 4.53288 3.43154 3.43154C4.53288 2.3302 5.93607 1.58018 7.46367 1.27632C8.99127 0.972461 10.5747 1.12841 12.0136 1.72445C13.4526 2.32049 14.6825 3.32985 15.5478 4.62489C16.4131 5.91992 16.875 7.44248 16.875 9C16.875 11.0886 16.0453 13.0916 14.5685 14.5685C13.0916 16.0453 11.0886 16.875 9 16.875ZM9 2.25C7.66498 2.25 6.35994 2.64588 5.2499 3.38758C4.13987 4.12928 3.27471 5.18349 2.76382 6.41689C2.25293 7.65029 2.11925 9.00749 2.3797 10.3169C2.64015 11.6262 3.28303 12.829 4.22703 13.773C5.17104 14.717 6.37377 15.3599 7.68314 15.6203C8.99252 15.8808 10.3497 15.7471 11.5831 15.2362C12.8165 14.7253 13.8707 13.8601 14.6124 12.7501C15.3541 11.6401 15.75 10.335 15.75 9C15.75 7.20979 15.0388 5.4929 13.773 4.22703C12.5071 2.96116 10.7902 2.25 9 2.25ZM8.24625 11.6719L13.3088 7.17188L12.5663 6.32813L7.875 10.4794L5.46188 8.03813L4.66313 8.83688L7.47563 11.6494C7.52819 11.7015 7.59052 11.7428 7.65906 11.7708C7.72759 11.7987 7.80097 11.8129 7.875 11.8125C8.01173 11.8123 8.14371 11.7623 8.24625 11.6719Z" fill="#FFAD31"/>
</svg>
