<svg width="24" height="24" viewBox="0 0 24 24" fill="none" xmlns="http://www.w3.org/2000/svg">
<rect width="24" height="24" rx="12" fill="black"/>
<path d="M15.9404 12.1705C15.9229 10.2295 17.5297 9.28521 17.6031 9.24125C16.6932 7.91453 15.2827 7.73326 14.7871 7.7188C13.6025 7.59414 12.4534 8.42763 11.85 8.42763C11.2345 8.42763 10.3053 7.73085 9.30376 7.75132C8.01498 7.7712 6.80931 8.51736 6.14806 9.67606C4.7834 12.0386 5.80117 15.5105 7.10862 17.4202C7.76265 18.3554 8.52688 19.3997 9.52719 19.363C10.5058 19.3226 10.8714 18.7391 12.0523 18.7391C13.2225 18.7391 13.5658 19.363 14.5859 19.3395C15.6362 19.3226 16.2975 18.4 16.9286 17.4563C17.6844 16.3843 17.988 15.3286 18 15.2744C17.9753 15.266 15.9602 14.4969 15.9404 12.1705Z" fill="white"/>
<path d="M14.0132 6.46253C14.5396 5.80429 14.8997 4.90877 14.7997 4C14.0379 4.03373 13.0852 4.52695 12.5365 5.17074C12.0511 5.73804 11.6175 6.66789 11.7296 7.54233C12.5853 7.60617 13.464 7.11053 14.0132 6.46253Z" fill="white"/>
</svg>
