<svg width="24" height="24" viewBox="0 0 24 24" fill="none" xmlns="http://www.w3.org/2000/svg">
<rect width="24" height="24" rx="12" fill="#EA4335"/>
<path d="M4.00501 12.0104C3.84512 7.8006 7.53255 3.91021 11.7466 3.85974C13.8944 3.67655 15.984 4.51061 17.6094 5.87094C16.9426 6.60404 16.2642 7.32868 15.5396 8.00708C14.1087 7.13773 12.3858 6.47521 10.7135 7.06361C8.01611 7.83166 6.38259 11.0165 7.38078 13.6552C8.20742 16.4112 11.5595 17.9236 14.1867 16.7659C15.547 16.2788 16.4439 15.0237 16.8374 13.675C15.2784 13.6439 13.719 13.6634 12.1599 13.6203C12.156 12.6927 12.1522 11.7686 12.156 10.841C14.756 10.8372 17.3598 10.8294 19.9636 10.8527C20.1235 13.1254 19.7882 15.5577 18.3107 17.3818C16.2875 19.9857 12.5496 20.7498 9.50881 19.7284C6.28164 18.6684 3.93477 15.4172 4.00501 12.0104Z" fill="white"/>
</svg>
