<svg width="34" height="34" viewBox="0 0 34 34" fill="none" xmlns="http://www.w3.org/2000/svg">
<path d="M17 0C7.65 0 0 7.65 0 17C0 26.35 7.65 34 17 34C26.35 34 34 26.35 34 17C34 7.65 26.35 0 17 0ZM26.69 11.39L13.09 24.99C12.75 25.33 12.41 25.5 11.9 25.5C11.9 25.5 11.9 25.5 11.73 25.5C11.22 25.5 10.71 25.16 10.54 24.82L5.44 18.02C4.93 17.34 5.1 16.15 5.78 15.64C6.46 15.13 7.65 15.3 8.16 15.98L12.07 21.25L24.31 9.01C24.99 8.33 26.01 8.33 26.69 9.01C27.37 9.69 27.37 10.71 26.69 11.39Z" fill="#149E11"/>
</svg>
