<svg width="24" height="25" viewBox="0 0 24 25" fill="none" xmlns="http://www.w3.org/2000/svg">
<path d="M18 22.4681C15.8082 22.4628 14.0267 20.6987 14 18.5071V16.4681H9.99996V18.4881C9.98892 20.6946 8.19321 22.4754 5.98669 22.4681C3.78017 22.4607 1.99635 20.668 2.00001 18.4614C2.00367 16.2549 3.79343 14.4681 5.99996 14.4681H7.99996V10.4681H5.99996C3.79343 10.468 2.00367 8.68123 2.00001 6.4747C1.99635 4.26818 3.78017 2.47544 5.98669 2.46807C8.19321 2.46075 9.98892 4.24157 9.99996 6.44807V8.46807H14V6.46807C14 4.25893 15.7908 2.46807 18 2.46807C20.2091 2.46807 22 4.25893 22 6.46807C22 8.67721 20.2091 10.4681 18 10.4681H16V14.4681H18C20.2091 14.4681 22 16.2589 22 18.4681C22 20.6772 20.2091 22.4681 18 22.4681ZM16 16.4681V18.4681C16 19.5726 16.8954 20.4681 18 20.4681C19.1045 20.4681 20 19.5726 20 18.4681C20 17.3635 19.1045 16.4681 18 16.4681H16ZM5.99996 16.4681C4.89539 16.4681 3.99996 17.3635 3.99996 18.4681C3.99996 19.5726 4.89539 20.4681 5.99996 20.4681C6.53211 20.4737 7.04412 20.2649 7.42043 19.8885C7.79674 19.5122 8.00563 19.0002 7.99996 18.4681V16.4681H5.99996ZM9.99996 10.4681V14.4681H14V10.4681H9.99996ZM18 4.46807C17.4678 4.46239 16.9558 4.67128 16.5795 5.04759C16.2032 5.4239 15.9943 5.93592 16 6.46807V8.46807H18C18.5321 8.47375 19.0441 8.26486 19.4204 7.88855C19.7967 7.51224 20.0056 7.00022 20 6.46807C20.0056 5.93592 19.7967 5.4239 19.4204 5.04759C19.0441 4.67128 18.5321 4.46239 18 4.46807ZM5.99996 4.46807C5.4678 4.46239 4.95579 4.67128 4.57948 5.04759C4.20317 5.4239 3.99428 5.93592 3.99996 6.46807C3.99428 7.00022 4.20317 7.51224 4.57948 7.88855C4.95579 8.26486 5.4678 8.47375 5.99996 8.46807H7.99996V6.46807C8.00563 5.93592 7.79674 5.4239 7.42043 5.04759C7.04412 4.67128 6.53211 4.46239 5.99996 4.46807Z" fill="#1C1C1C"/>
</svg>
