<svg width="23" height="23" viewBox="0 0 23 23" fill="none" xmlns="http://www.w3.org/2000/svg">
<g clip-path="url(#clip0_95_47)">
<path d="M18.8076 10.8226C18.7069 10.5122 18.4521 10.2802 18.1386 10.2131L13.8237 9.2908L15.1254 1.06515C15.1899 0.657427 14.9801 0.255803 14.6123 0.0837791C14.2442 -0.0885522 13.8096 0.0109322 13.5494 0.327422L5.15707 10.5207C4.96616 10.7527 4.8996 11.0665 4.97935 11.3586C5.05906 11.6506 5.2752 11.8838 5.55635 11.9812L9.74145 13.4318L8.05369 21.3547C7.96676 21.7634 8.16099 22.1803 8.52636 22.3692C8.65552 22.4359 8.79461 22.468 8.9322 22.468C9.18396 22.468 9.43155 22.36 9.60661 22.1573L18.6284 11.7197C18.8403 11.4745 18.9086 11.133 18.8076 10.8226ZM10.5459 18.2949L11.6696 13.0207C11.767 12.564 11.5132 12.1058 11.08 11.9558L7.38049 10.6735L12.831 4.05394L11.9118 9.86292C11.835 10.3472 12.1449 10.8076 12.6152 10.9083L16.2578 11.6867L10.5459 18.2949Z" fill="white"/>
</g>
<defs>
<clipPath id="clip0_95_47">
<rect width="22" height="22.4681" fill="white" transform="translate(0.899414)"/>
</clipPath>
</defs>
</svg>
