<svg width="20" height="21" viewBox="0 0 20 21" fill="none" xmlns="http://www.w3.org/2000/svg">
<g clip-path="url(#clip0_95_89)">
<path d="M18.7643 5.63348L18.6689 5.46808C16.9371 2.48224 13.7076 0.468079 10.0143 0.468079C6.32088 0.468079 3.09131 2.48224 1.35974 5.46808L1.26432 5.63348C0.596395 6.83771 0.171387 8.1935 0.0517578 9.63474V11.3014C0.171387 12.7427 0.596395 14.0984 1.26432 15.3023L1.35974 15.4681C3.09131 18.4539 6.32088 20.4681 10.0143 20.4681C13.7076 20.4681 16.9371 18.4539 18.6689 15.4681L18.7643 15.3023C19.4323 14.098 19.8573 12.7427 19.9767 11.3014V9.63474C19.8573 8.1935 19.4323 6.83771 18.7643 5.63348ZM14.9972 9.63474C14.9643 8.7593 14.88 7.9223 14.7492 7.13475H17.6468C17.9884 7.91396 18.2172 8.7534 18.3051 9.63474H14.9972ZM10.0143 18.8014C9.07214 18.8014 8.06588 17.5176 7.40792 15.4681H12.6209C11.9626 17.5176 10.9563 18.8014 10.0143 18.8014ZM6.98474 13.8014C6.83805 13.0293 6.73877 12.1901 6.70011 11.3014H13.3283C13.2897 12.1901 13.1906 13.0293 13.0439 13.8014H6.98474ZM6.70011 9.63474C6.73877 8.74607 6.83805 7.90684 6.98474 7.13475H13.0439C13.1906 7.90684 13.2897 8.74607 13.3283 9.63474H6.70011ZM10.0143 2.13475C10.9563 2.13475 11.9626 3.41892 12.6205 5.46808H7.40792C8.06588 3.41892 9.07214 2.13475 10.0143 2.13475ZM16.6651 5.46808H14.3855C14.1043 4.45144 13.7373 3.55564 13.3009 2.81264C14.6422 3.39105 15.7964 4.31553 16.6651 5.46808ZM6.72799 2.81264C6.29138 3.55564 5.92436 4.45144 5.64298 5.46808H3.36353C4.23226 4.31553 5.38643 3.39105 6.72799 2.81264ZM2.38167 7.13475H5.27922C5.1488 7.9223 5.06417 8.7593 5.03141 9.63474H1.7231C1.81099 8.7534 2.03967 7.91396 2.38167 7.13475ZM5.03141 11.3014C5.06417 12.1769 5.1484 13.0139 5.27922 13.8014H2.38167C2.04008 13.0222 1.8114 12.1828 1.72351 11.3014H5.03141ZM3.36353 15.4681H5.64298C5.92436 16.4847 6.29138 17.3805 6.72758 18.1235C5.38643 17.5451 4.23226 16.6206 3.36353 15.4681ZM13.3005 18.1235C13.7373 17.3805 14.1043 16.4847 14.385 15.4681H16.6647C15.7964 16.6206 14.6422 17.5451 13.3005 18.1235ZM17.6472 13.8014H14.7496C14.88 13.0139 14.9647 12.1769 14.9976 11.3014H18.3059C18.2177 12.1828 17.9888 13.0222 17.6472 13.8014Z" fill="#D1E3FF"/>
</g>
<defs>
<clipPath id="clip0_95_89">
<rect width="20" height="20" fill="white" transform="translate(0 0.468079)"/>
</clipPath>
</defs>
</svg>
