<svg width="38" height="40" viewBox="0 0 38 40" fill="none" xmlns="http://www.w3.org/2000/svg">
<path fill-rule="evenodd" clip-rule="evenodd" d="M19.0532 8.81798C19.0532 8.81798 22.2983 11.6045 28.626 11.7312C28.6543 14.9222 28.4883 18.2494 27.6902 21.3441C26.4507 26.1345 23.0472 27.9966 19.057 29.3747C15.0668 27.9966 11.6633 26.1345 10.4238 21.3441C9.6182 18.2494 9.45218 14.9222 9.48048 11.7312C15.8082 11.6045 19.0532 8.81798 19.0532 8.81798ZM19.0535 9.67186C19.0535 9.67186 22.0268 12.2259 27.8301 12.3431C27.8565 15.2695 27.7037 18.3188 26.9849 21.1563C25.8397 25.5497 22.7192 27.2549 19.0611 28.5196C15.3953 27.2549 12.2692 25.5497 11.1372 21.1563C10.4033 18.3188 10.2505 15.2695 10.2769 12.3431C16.0783 12.2259 19.0535 9.67186 19.0535 9.67186Z" fill="#00D7FF"/>
<path d="M17.0249 18.818V16.9275C17.0407 16.4229 17.2518 15.9441 17.6136 15.5927C17.9754 15.2413 18.4596 15.0448 18.9635 15.0448C19.4674 15.0448 19.9515 15.2413 20.3133 15.5927C20.6751 15.9441 20.8863 16.4229 20.902 16.9275V18.818H21.8566V16.9275C21.8373 16.1715 21.5241 15.4529 20.9836 14.925C20.4431 14.3971 19.7182 14.1016 18.9635 14.1016C18.2087 14.1016 17.4838 14.3971 16.9433 14.925C16.4029 15.4529 16.0896 16.1715 16.0703 16.9275V18.818H17.0249Z" fill="#316CCC"/>
<path fill-rule="evenodd" clip-rule="evenodd" d="M18.4878 21.6726H18.9387L18.9462 21.6688V21.6742H19.2752C19.2944 21.6722 19.3129 21.666 19.3295 21.656C19.346 21.646 19.3602 21.6326 19.371 21.6165C19.3818 21.6005 19.3889 21.5823 19.3919 21.5631C19.3949 21.544 19.3937 21.5245 19.3884 21.5059L19.062 19.9179C19.2102 19.861 19.334 19.7542 19.4121 19.6158C19.4902 19.4774 19.5178 19.3161 19.4902 19.1595C19.4625 19.0029 19.3813 18.8609 19.2604 18.7578C19.1396 18.6547 18.9867 18.597 18.8281 18.5946V18.5927C18.824 18.5934 18.82 18.5942 18.816 18.595C18.6667 18.6208 18.5302 18.6956 18.4278 18.8075C18.3254 18.9194 18.263 19.0622 18.2502 19.2135C18.2375 19.3648 18.2752 19.5161 18.3575 19.6436C18.4397 19.7711 18.5618 19.8677 18.7047 19.9183L18.3746 21.5044C18.3692 21.5229 18.368 21.5425 18.371 21.5616C18.374 21.5807 18.3812 21.5989 18.392 21.615C18.4028 21.631 18.4169 21.6445 18.4335 21.6544C18.45 21.6644 18.4686 21.6706 18.4878 21.6726ZM18.9519 17.5681V17.5647H15.1296C15.0834 17.5647 15.039 17.5829 15.0062 17.6155C14.9733 17.648 14.9546 17.6923 14.9541 17.7386V22.6103C14.9546 22.6566 14.9733 22.7008 15.0062 22.7334C15.039 22.7659 15.0834 22.7842 15.1296 22.7842H18.8281V22.7895H22.6353C22.6815 22.7895 22.7258 22.7713 22.7587 22.7387C22.7915 22.7061 22.8102 22.6619 22.8107 22.6156V17.742C22.8102 17.6957 22.7915 17.6515 22.7587 17.6189C22.7258 17.5864 22.6815 17.5681 22.6353 17.5681H18.9519Z" fill="#316CCC"/>
<path fill-rule="evenodd" clip-rule="evenodd" d="M18.9605 6.14594C18.9605 6.14594 23.0805 9.68383 31.1144 9.84464C31.1504 13.8962 30.9396 18.1205 29.9264 22.0496C28.3526 28.1317 24.0314 30.4959 18.9652 32.2457C13.8991 30.4959 9.57788 28.1317 8.00414 22.0496C6.98132 18.1205 6.77053 13.8962 6.80646 9.84464C14.8405 9.68383 18.9605 6.14594 18.9605 6.14594ZM18.9605 7.23129C18.9605 7.23129 22.7355 10.474 30.1036 10.6228C30.1371 14.3383 29.9431 18.2098 29.0305 21.8125C27.5765 27.3905 23.6146 29.5555 18.97 31.1612C14.3159 29.5555 10.3468 27.3905 8.90957 21.8125C7.97778 18.2098 7.78375 14.3383 7.81729 10.6228C15.183 10.474 18.9605 7.23129 18.9605 7.23129Z" fill="#00D7FF" fill-opacity="0.5"/>
<path fill-rule="evenodd" clip-rule="evenodd" d="M18.7721 2.98959C18.7721 2.98959 23.9525 7.43804 34.0542 7.64024C34.0994 12.7345 33.8344 18.0461 32.5604 22.9865C30.5816 30.6339 25.1482 33.6066 18.7782 35.8067C12.4081 33.6066 6.97474 30.6339 4.99596 22.9865C3.70991 18.0461 3.44486 12.7345 3.49004 7.64024C13.5918 7.43804 18.7721 2.98959 18.7721 2.98959ZM18.7721 4.35406C18.7721 4.35406 23.5188 8.43129 32.7832 8.6184C32.8254 13.2902 32.5814 18.1581 31.4339 22.688C29.6057 29.7017 24.6241 32.4239 18.7842 34.4429C12.9321 32.4239 7.94151 29.7017 6.1344 22.688C4.9628 18.1581 4.71884 13.2902 4.761 8.6184C14.0224 8.43129 18.7721 4.35406 18.7721 4.35406Z" fill="#00D7FF" fill-opacity="0.2"/>
<path fill-rule="evenodd" clip-rule="evenodd" d="M18.6327 0C18.6327 0 24.947 5.42211 37.2597 5.66857C37.3148 11.8779 36.9917 18.352 35.4389 24.3737C33.027 33.695 26.4044 37.3184 18.6401 40C10.8758 37.3184 4.25314 33.695 1.84125 24.3737C0.273704 18.352 -0.04935 11.8779 0.005716 5.66857C12.3185 5.42211 18.6327 0 18.6327 0ZM18.6327 1.66252C18.6327 1.66252 24.4183 6.63217 35.7105 6.86023C35.7619 12.5546 35.4645 18.488 34.0659 24.0094C31.8375 32.5582 25.7656 35.8762 18.6474 38.3372C11.5145 35.8762 5.43151 32.5582 3.22887 24.0094C1.80083 18.488 1.50347 12.5546 1.55487 6.86023C12.8434 6.63217 18.6327 1.66252 18.6327 1.66252Z" fill="#00D7FF" fill-opacity="0.1"/>
</svg>
