<svg width="122" height="32" viewBox="0 0 122 32" fill="none" xmlns="http://www.w3.org/2000/svg">
<path fill-rule="evenodd" clip-rule="evenodd" d="M37.2083 22.3726C36.7465 22.2037 36.4445 21.8474 36.4445 21.3725C36.4445 20.7965 36.9415 20.3222 37.5458 20.3222C37.7234 20.3222 37.8652 20.3558 37.9896 20.4067C38.7714 20.7458 39.6059 20.949 40.6187 20.949C42.4658 20.949 43.3363 20.1018 43.3363 18.4744V18.0337C42.5364 18.9494 41.6667 19.5081 40.2281 19.5081C38.0076 19.5081 36 17.9658 36 15.2709V15.2372C36 12.5252 38.0429 11 40.2281 11C41.702 11 42.5723 11.593 43.3004 12.3557V12.3385C43.3004 11.6438 43.9045 11.0679 44.6504 11.0679C45.3965 11.0679 46 11.6438 46 12.3557V18.2032C46 19.8307 45.5921 21.0169 44.7922 21.7795C43.9045 22.6272 42.5364 23 40.6899 23C39.4282 23 38.327 22.7968 37.2083 22.3726ZM43.3363 15.2709V15.2372C43.3363 13.9996 42.3235 13.1354 41.0093 13.1354C39.695 13.1354 38.7003 13.9996 38.7003 15.2372V15.2709C38.7003 16.525 39.695 17.3727 41.0093 17.3727C42.3235 17.3727 43.3363 16.5084 43.3363 15.2709Z" fill="#0E101A"/>
<path fill-rule="evenodd" clip-rule="evenodd" d="M37.1742 22.3656C36.7255 22.1993 36.4319 21.8486 36.4319 21.381C36.4319 20.8141 36.915 20.3472 37.5022 20.3472C37.6748 20.3472 37.8126 20.3803 37.9335 20.4304C38.6933 20.7641 39.5042 20.9641 40.4885 20.9641C42.2835 20.9641 43.1294 20.1303 43.1294 18.5282V18.0944C42.3521 18.9958 41.5069 19.5458 40.1089 19.5458C37.951 19.5458 36 18.0275 36 15.3747V15.3415C36 12.6718 37.9853 11.1704 40.1089 11.1704C41.5412 11.1704 42.387 11.7542 43.0945 12.5049V12.488C43.0945 11.8042 43.6816 11.2372 44.4065 11.2372C45.1315 11.2372 45.718 11.8042 45.718 12.5049V18.2613C45.718 19.8633 45.3216 21.031 44.5443 21.7817C43.6816 22.6162 42.3521 22.9832 40.5576 22.9832C39.3316 22.9832 38.2614 22.7831 37.1742 22.3656ZM43.1294 15.3747V15.3415C43.1294 14.1232 42.1452 13.2725 40.868 13.2725C39.5908 13.2725 38.6241 14.1232 38.6241 15.3415V15.3747C38.6241 16.6092 39.5908 17.4437 40.868 17.4437C42.1452 17.4437 43.1294 16.5929 43.1294 15.3747ZM47.2034 12.5049C47.2034 11.8042 47.7899 11.2372 48.5154 11.2372C49.2403 11.2372 49.8268 11.8042 49.8268 12.5049V12.905C50.2071 12.038 50.8279 11.2372 51.6051 11.2372C52.4167 11.2372 52.8823 11.7542 52.8823 12.4712C52.8823 13.1388 52.4336 13.5395 51.8988 13.6563C50.5692 13.9569 49.8268 14.9409 49.8268 16.743V19.112C49.8268 19.8127 49.2403 20.3803 48.5154 20.3803C47.7899 20.3803 47.2034 19.8127 47.2034 19.112V12.5049ZM52.5719 17.7106V17.6775C52.5719 15.7254 54.1077 14.824 56.3005 14.824C57.2324 14.824 57.9056 14.974 58.5619 15.1909V15.0409C58.5619 13.9901 57.8881 13.4056 56.5766 13.4056C55.8517 13.4056 55.2646 13.5063 54.7641 13.6563C54.6089 13.7063 54.5054 13.7233 54.3845 13.7233C53.7805 13.7233 53.2968 13.2725 53.2968 12.6881C53.2968 12.238 53.5898 11.8543 54.0048 11.7036C54.8333 11.4035 55.7308 11.2372 56.9562 11.2372C58.3886 11.2372 59.4245 11.6042 60.0803 12.238C60.7709 12.905 61.0819 13.8901 61.0819 15.0915V19.1621C61.0819 19.8465 60.5122 20.3803 59.8042 20.3803C59.0449 20.3803 58.5444 19.8633 58.5444 19.3289V19.312C57.9056 19.9965 57.0255 20.4466 55.7477 20.4466C54.0048 20.4466 52.5719 19.4796 52.5719 17.7106ZM58.5962 17.1268V16.6761C58.1474 16.476 57.5609 16.3423 56.9213 16.3423C55.7994 16.3423 55.1094 16.7761 55.1094 17.5774V17.6106C55.1094 18.295 55.6965 18.6951 56.5417 18.6951C57.7678 18.6951 58.5962 18.0444 58.5962 17.1268ZM62.4807 12.5049C62.4807 11.8042 63.0672 11.2372 63.7928 11.2372C64.5176 11.2372 65.1048 11.8042 65.1048 12.5049V12.6056C65.7081 11.8543 66.5029 11.1704 67.8318 11.1704C69.0397 11.1704 69.9548 11.6873 70.4378 12.5887C71.2493 11.6711 72.2161 11.1704 73.4758 11.1704C75.4268 11.1704 76.6005 12.3049 76.6005 14.4577V19.112C76.6005 19.8127 76.0133 20.3803 75.2884 20.3803C74.5635 20.3803 73.9763 19.8127 73.9763 19.112V15.2916C73.9763 14.0902 73.4241 13.4726 72.4405 13.4726C71.4563 13.4726 70.8523 14.0902 70.8523 15.2916V19.112C70.8523 19.8127 70.2658 20.3803 69.5403 20.3803C68.8153 20.3803 68.2282 19.8127 68.2282 19.112V15.2916C68.2282 14.0902 67.6765 13.4726 66.6924 13.4726C65.7081 13.4726 65.1048 14.0902 65.1048 15.2916V19.112C65.1048 19.8127 64.5176 20.3803 63.7928 20.3803C63.0672 20.3803 62.4807 19.8127 62.4807 19.112V12.5049ZM78.0166 12.5049C78.0166 11.8042 78.6031 11.2372 79.3287 11.2372C80.0536 11.2372 80.6408 11.8042 80.6408 12.5049V12.6056C81.2441 11.8543 82.0388 11.1704 83.3677 11.1704C84.5757 11.1704 85.4907 11.6873 85.9738 12.5887C86.7854 11.6711 87.7521 11.1704 89.0118 11.1704C90.9627 11.1704 92.1365 12.3049 92.1365 14.4577V19.112C92.1365 19.8127 91.5499 20.3803 90.8244 20.3803C90.0995 20.3803 89.5123 19.8127 89.5123 19.112V15.2916C89.5123 14.0902 88.9601 13.4726 87.9765 13.4726C86.9923 13.4726 86.3883 14.0902 86.3883 15.2916V19.112C86.3883 19.8127 85.8018 20.3803 85.0762 20.3803C84.3513 20.3803 83.7648 19.8127 83.7648 19.112V15.2916C83.7648 14.0902 83.2125 13.4726 82.2283 13.4726C81.2441 13.4726 80.6408 14.0902 80.6408 15.2916V19.112C80.6408 19.8127 80.0536 20.3803 79.3287 20.3803C78.6031 20.3803 78.0166 19.8127 78.0166 19.112V12.5049ZM93.0004 17.7106V17.6775C93.0004 15.7254 94.5368 14.824 96.7284 14.824C97.6608 14.824 98.3341 14.974 98.9898 15.1909V15.0409C98.9898 13.9901 98.3172 13.4056 97.0045 13.4056C96.2796 13.4056 95.6931 13.5063 95.1925 13.6563C95.0373 13.7063 94.9338 13.7233 94.8129 13.7233C94.2083 13.7233 93.7253 13.2725 93.7253 12.6881C93.7253 12.238 94.0188 11.8543 94.4327 11.7036C95.2618 11.4035 96.1593 11.2372 97.3847 11.2372C98.8177 11.2372 99.853 11.6042 100.509 12.238C101.199 12.905 101.51 13.8901 101.51 15.0915V19.1621C101.51 19.8465 100.94 20.3803 100.233 20.3803C99.4734 20.3803 98.9729 19.8633 98.9729 19.3289V19.312C98.334 19.9965 97.4533 20.4466 96.1768 20.4466C94.4327 20.4466 93.0004 19.4796 93.0004 17.7106ZM99.0246 17.1268V16.6761C98.5759 16.476 97.9888 16.3423 97.3504 16.3423C96.2279 16.3423 95.5379 16.7761 95.5379 17.5774V17.6106C95.5379 18.295 96.1244 18.6951 96.9702 18.6951C98.1956 18.6951 99.0246 18.0444 99.0246 17.1268ZM102.908 12.5049C102.908 11.8042 103.496 11.2372 104.221 11.2372C104.946 11.2372 105.532 11.8042 105.532 12.5049V12.905C105.912 12.038 106.534 11.2372 107.311 11.2372C108.122 11.2372 108.587 11.7542 108.587 12.4712C108.587 13.1388 108.139 13.5395 107.604 13.6563C106.275 13.9569 105.532 14.9409 105.532 16.743V19.112C105.532 19.8127 104.946 20.3803 104.221 20.3803C103.496 20.3803 102.908 19.8127 102.908 19.112V12.5049ZM109.382 9.26771C109.382 8.56695 109.969 8 110.694 8C111.42 8 112.006 8.56695 112.006 9.26771V19.112C112.006 19.8127 111.42 20.3803 110.694 20.3803C109.969 20.3803 109.382 19.8127 109.382 19.112V9.26771ZM114.095 22.7662C113.714 22.6331 113.266 22.3324 113.266 21.7155C113.266 21.0979 113.767 20.6804 114.302 20.6804C114.509 20.6804 114.63 20.7141 114.733 20.7472C114.958 20.8141 115.096 20.8478 115.287 20.8478C115.752 20.8478 115.976 20.7641 116.218 20.3135L116.304 20.1134L113.146 13.0387C113.077 12.8719 113.008 12.6218 113.008 12.455C113.008 11.7374 113.577 11.2372 114.302 11.2372C114.958 11.2372 115.338 11.5873 115.561 12.1874L117.564 17.3936L119.497 12.2043C119.705 11.6711 120.084 11.2372 120.758 11.2372C121.431 11.2372 122 11.7374 122 12.4049C122 12.6056 121.931 12.8888 121.88 13.0057L118.651 20.4972C117.874 22.3156 117.098 23 115.527 23C114.941 23 114.527 22.9169 114.095 22.7662Z" fill="#0E101A"/>
<path d="M14.5 2C6.49213 2 0 8.26778 0 16H29C29 8.26778 22.5084 2 14.5 2Z" fill="#0066CC"/>
<path d="M14.5 30C22.5084 30 29 23.7317 29 16H0C0 23.7317 6.49213 30 14.5 30Z" fill="#FFCC00"/>
<g filter="url(#filter0_d_100_3238)">
<path fill-rule="evenodd" clip-rule="evenodd" d="M16.8906 18.4471C16.7522 18.4471 16.6155 18.4789 16.4903 18.5403C16.3015 18.6327 16.1476 18.7877 16.0526 18.981C15.9577 19.1743 15.9272 19.3948 15.9658 19.6081C16.0477 20.0809 16.4752 20.4048 16.9373 20.4048H18.3921L19.2357 20.2817C17.8861 22.341 15.5431 23.2882 12.9811 22.8702C10.896 22.5294 9.10588 21.0625 8.34635 19.013C6.63227 14.3602 9.89953 9.91796 14.1567 9.91796C16.3759 9.91796 18.3211 11.2691 19.4369 12.9002V12.9356C19.5775 13.1507 19.7942 13.2991 20.0398 13.3484C20.2853 13.3976 20.5395 13.3438 20.747 13.1986C20.94 13.0597 21.0754 12.8499 21.1257 12.6115C21.176 12.373 21.1376 12.1236 21.0182 11.9134H21.0253C20.237 10.6293 19.1303 9.59001 17.8219 8.90495C16.5135 8.21989 15.0516 7.91439 13.5903 8.02063C9.53282 8.30492 6.24714 11.7606 6.01384 15.985C5.74263 20.9018 9.49267 24.9164 14.1567 24.9164C15.3207 24.9211 16.4719 24.664 17.5313 24.1626C18.5908 23.6612 19.5334 22.9274 20.2946 22.0115L20.1177 23.0423V23.9731C20.1177 24.4527 20.4285 24.8978 20.8837 24.983C21.0198 25.0097 21.1598 25.0049 21.2939 24.9689C21.428 24.9329 21.5528 24.8666 21.6594 24.7747C21.766 24.6827 21.8518 24.5675 21.9107 24.4372C21.9695 24.3068 22 24.1645 22 24.0205V18.4471H16.8906Z" fill="white"/>
</g>
<defs>
<filter id="filter0_d_100_3238" x="5.59901" y="8" width="16.802" height="18.1027" filterUnits="userSpaceOnUse" color-interpolation-filters="sRGB">
<feFlood flood-opacity="0" result="BackgroundImageFix"/>
<feColorMatrix in="SourceAlpha" type="matrix" values="0 0 0 0 0 0 0 0 0 0 0 0 0 0 0 0 0 0 127 0" result="hardAlpha"/>
<feOffset dy="0.701726"/>
<feGaussianBlur stdDeviation="0.200493"/>
<feColorMatrix type="matrix" values="0 0 0 0 0 0 0 0 0 0 0 0 0 0 0 0 0 0 0.15 0"/>
<feBlend mode="normal" in2="BackgroundImageFix" result="effect1_dropShadow_100_3238"/>
<feBlend mode="normal" in="SourceGraphic" in2="effect1_dropShadow_100_3238" result="shape"/>
</filter>
</defs>
</svg>
