<svg width="677" height="595" viewBox="0 0 677 595" fill="none" xmlns="http://www.w3.org/2000/svg">
<g clip-path="url(#clip0_86_5341)">
<path d="M671.838 385.556C671.155 384.495 617.106 300.66 594.876 340.282C572.522 380.154 541.529 413.833 492.396 365.504C443.264 317.175 432.071 300.408 395.339 340.282C358.606 380.154 338.04 318.856 317.269 295.862C296.497 272.867 328.011 377.116 273.021 333.77C245.834 312.344 235.322 239.097 220.284 174.392C204.909 108.218 226.386 66.0882 226.386 66.0882C246.095 71.0646 302.303 37.5585 412.371 155.079C522.439 272.599 613.864 215.356 652.887 281.865C691.912 348.374 671.838 385.556 671.838 385.556Z" fill="url(#paint0_linear_86_5341)"/>
<path d="M671.838 385.556C671.155 384.495 617.106 300.66 594.876 340.282C572.522 380.154 541.529 413.833 492.396 365.504C443.264 317.175 432.071 300.408 395.339 340.282C358.606 380.154 338.04 318.856 317.269 295.862C296.497 272.867 328.011 377.116 273.021 333.77C245.834 312.344 235.322 239.097 220.284 174.392C204.909 108.218 226.386 66.0882 226.386 66.0882C246.095 71.0646 302.303 37.5585 412.371 155.079C522.439 272.599 613.864 215.356 652.887 281.865C691.912 348.374 671.838 385.556 671.838 385.556Z" fill="#FB8627"/>
<path d="M671.833 385.544C671.152 384.482 617.101 300.647 594.871 340.269C572.517 380.143 541.524 413.823 492.392 365.493C443.259 317.164 432.066 300.397 395.334 340.269C358.602 380.143 338.036 318.846 317.265 295.851C296.492 272.857 328.006 377.105 273.016 333.757C245.829 312.333 224.091 242.923 209.052 178.218L217.183 59.034C217.183 59.034 338.108 76.2757 386.213 150.471C434.319 224.665 468.92 257.508 520.2 257.804C571.477 258.099 645.071 291.249 671.833 385.544Z" fill="url(#paint1_linear_86_5341)"/>
<path d="M524.591 539.369C524.591 539.369 526.608 560.035 517.694 574.115C513.436 580.818 513.783 592.792 527.105 593.563L545.743 543.021L553.818 521.138L524.457 512.404L524.591 539.369Z" fill="#333333"/>
<path d="M530.062 511.504L524.788 544.458C457.61 546.747 391.64 536.403 339.422 493.977C311.34 471.173 287.244 439.103 269.065 394.737C247.975 343.264 241.437 309.757 241.313 288.06C241.112 254.027 256.647 248.895 256.647 248.895L323.361 288.06C323.361 288.06 330.576 468.436 496.873 504.377L530.062 511.504Z" fill="#316CCC"/>
<path d="M339.422 493.966C311.34 471.162 287.244 439.09 269.065 394.726C247.975 343.253 241.437 309.746 241.313 288.047H323.361C323.361 288.047 283.204 404.166 339.422 493.966Z" fill="#2758A8"/>
<path d="M69.5107 244.064L95.7647 246.386V220.471L73.5455 213.451L69.5107 244.064Z" fill="url(#paint2_linear_86_5341)"/>
<path d="M220.279 185.161C220.279 185.161 189.24 238.065 100.453 224.192V248.833C100.453 248.833 196.573 283.463 248.952 231.185L220.279 185.161Z" fill="url(#paint3_linear_86_5341)"/>
<path d="M209.957 34.4478L251.735 66.7532L213.691 81.9172L188.821 50.6006L194.767 24.0703L209.957 34.4478Z" fill="url(#paint4_linear_86_5341)"/>
<path d="M175.639 61.7877L171.297 37.7094L196.842 33.2413C197.611 36.8047 198.361 40.368 199.014 43.6467C202.006 58.5482 175.639 61.7877 175.639 61.7877Z" fill="#F2994A"/>
<path d="M196.842 33.2413L171.297 37.7094L170.179 31.4818C164.708 1.15932 191.068 7.86728 191.068 7.86728C191.068 7.86728 194.087 20.5681 196.842 33.2413Z" fill="url(#paint5_linear_86_5341)"/>
<path d="M196.835 33.2413C196.528 31.9678 182.865 24.7573 184.346 9.84446C184.346 9.84446 169.425 21.2776 161.719 19.5405C154.012 17.8035 151.526 12.3299 155.996 7.11325C155.996 7.11325 157.74 12.5812 163.457 7.11325C169.173 1.64525 185.095 -3.82275 191.063 3.63362C191.063 3.63362 200.004 0.154004 201.999 9.10163C203.995 18.0493 209.958 34.4532 209.958 34.4532L194.768 24.0757L196.835 33.2413Z" fill="#263238"/>
<path d="M196.781 34.4474L191.561 17.295C191.561 17.295 198.518 12.3241 199.267 21.523C200.015 30.7221 196.781 34.4474 196.781 34.4474Z" fill="url(#paint6_linear_86_5341)"/>
<path d="M213.729 81.9168C213.729 81.9168 203.904 117.579 210.135 154.274C216.366 190.97 256.647 248.833 256.647 248.833H323.356C323.356 248.833 313.856 63.195 255.434 64.7476L213.729 81.9168Z" fill="#316CCC"/>
<path d="M255.435 111.709L291.29 247.689L323.356 248.855L314.023 125.259L255.435 111.709Z" fill="#2758A8"/>
<path d="M255.434 64.7701L245.991 61.5586L209.777 78.8059L212.992 89.5743L255.434 64.7701Z" fill="#316CCC"/>
<path d="M256.647 248.833C256.647 248.833 108.171 310.187 63.6767 464.867C43.0502 536.583 40.3623 572.439 40.3623 572.439H77.1336C77.1336 572.439 148.178 375.189 272.653 332.206C330.057 312.382 326.474 284.49 323.356 248.833H256.647Z" fill="#316CCC"/>
<path d="M50.8066 572.463C50.8066 572.463 32.08 581.511 15.8012 578.013C8.02225 576.337 -3.08741 580.807 0.802076 593.563H78.0274L73.5846 572.463H50.8066Z" fill="#333333"/>
<path d="M204.492 261.06L199.256 234.519C199.256 234.519 287.992 201.409 287.858 156.805L333.638 138.245C354.763 194.97 319.482 244.667 204.492 261.06Z" fill="url(#paint7_linear_86_5341)"/>
<path d="M333.637 138.245L287.87 156.788C287.83 142.679 278.895 127.415 255.458 111.692C255.458 111.692 235.456 77.8119 265.723 66.5183C265.723 66.5183 299.582 66.8758 329.178 127.834C330.859 131.338 332.345 134.808 333.637 138.245Z" fill="#316CCC"/>
<path d="M199.256 234.519C199.256 234.519 182.066 218.383 175.785 226.448C169.503 234.513 159.578 230.916 153.772 234.519C147.966 238.122 152.465 268.588 163.228 268.588C173.991 268.588 204.487 261.065 204.487 261.065L199.256 234.519Z" fill="url(#paint8_linear_86_5341)"/>
<path d="M82.6374 24.0703V210.519H71.6227L71.3375 203.755L64.2461 40.6476L82.6374 24.0703Z" fill="#D1E3FF"/>
<path d="M82.6382 203.755H57.0771V210.518H82.6382V203.755Z" fill="#316CCC"/>
<path d="M101.023 40.6476L93.9316 203.755L93.641 210.519H82.6377V24.0703L101.023 40.6476Z" fill="#E0E0E0"/>
<path d="M90.3277 210.519L89.0592 258.473H76.206L74.9375 210.519H90.3277Z" fill="#316CCC"/>
<path d="M108.199 203.755H82.6377V210.518H108.199V203.755Z" fill="#316CCC"/>
<path d="M73.5457 213.451C73.5457 213.451 82.2356 218.477 79.2347 231.206C76.2338 243.935 66.3815 247.963 65.4706 239.897C64.5596 231.832 68.6113 213.903 73.5457 213.451Z" fill="url(#paint9_linear_86_5341)"/>
<path d="M100.453 224.192C100.453 224.192 98.2177 206.278 91.0312 207.624C83.8446 208.97 74.4394 227.733 82.0899 224.192C89.7403 220.651 89.8688 215.713 89.8688 215.713C89.8688 215.713 84.5933 244.247 100.487 248.855L100.453 224.192Z" fill="url(#paint10_linear_86_5341)"/>
<path d="M85.5942 348.509C75.3452 315.292 76.094 281.486 87.8296 248.073C97.0112 221.884 112.916 195.985 135.107 171.103C172.308 129.381 214.17 104.917 215.936 103.895L226.403 97.835L372.332 296.549L363.39 304.714C361.887 306.093 325.982 338.673 275.011 361.635C244.604 375.334 215.116 382.735 187.364 383.635C151.939 384.785 119.46 375.363 90.8305 355.63L86.9801 352.976L85.5942 348.509Z" fill="white"/>
<path d="M98.4806 344.538L288.484 205.168L222.669 115.557C222.669 115.557 57.3449 211.256 98.4806 344.538Z" fill="#FB8627"/>
<path d="M98.4805 344.538L288.484 205.168L354.292 294.779C354.292 294.779 213.366 423.714 98.4805 344.538Z" fill="#FB8627"/>
<path d="M243.857 286.808L228.32 266.707L248.432 251.173L231.965 229.866L211.852 245.392L196.31 225.291L174.991 241.751L190.526 261.858L170.414 277.386L186.883 298.694L207.001 283.166L222.536 303.269L243.857 286.808Z" fill="white"/>
</g>
<defs>
<linearGradient id="paint0_linear_86_5341" x1="1.92037e+06" y1="277132" x2="1.90296e+06" y2="302844" gradientUnits="userSpaceOnUse">
<stop stop-color="#FF9B17"/>
<stop offset="1" stop-color="#FFDA3E"/>
</linearGradient>
<linearGradient id="paint1_linear_86_5341" x1="1.74134e+06" y1="201222" x2="1.9019e+06" y2="554394" gradientUnits="userSpaceOnUse">
<stop stop-color="#FF9B17"/>
<stop offset="1" stop-color="#FFDA3E"/>
</linearGradient>
<linearGradient id="paint2_linear_86_5341" x1="96.6421" y1="229.922" x2="122.902" y2="229.922" gradientUnits="userSpaceOnUse">
<stop stop-color="#E6ECF4"/>
<stop offset="1" stop-color="white"/>
</linearGradient>
<linearGradient id="paint3_linear_86_5341" x1="530342" y1="70654.1" x2="382190" y2="121194" gradientUnits="userSpaceOnUse">
<stop stop-color="#E6ECF4"/>
<stop offset="1" stop-color="white"/>
</linearGradient>
<linearGradient id="paint4_linear_86_5341" x1="227298" y1="36257.1" x2="234380" y2="36257.1" gradientUnits="userSpaceOnUse">
<stop stop-color="#E6ECF4"/>
<stop offset="1" stop-color="white"/>
</linearGradient>
<linearGradient id="paint5_linear_86_5341" x1="98161.8" y1="17428.5" x2="99506.5" y2="17428.5" gradientUnits="userSpaceOnUse">
<stop stop-color="#E6ECF4"/>
<stop offset="1" stop-color="white"/>
</linearGradient>
<linearGradient id="paint6_linear_86_5341" x1="28454.7" y1="10679.3" x2="28564.2" y2="10679.3" gradientUnits="userSpaceOnUse">
<stop stop-color="#E6ECF4"/>
<stop offset="1" stop-color="white"/>
</linearGradient>
<linearGradient id="paint7_linear_86_5341" x1="549949" y1="95814.8" x2="500136" y2="141894" gradientUnits="userSpaceOnUse">
<stop stop-color="#E6ECF4"/>
<stop offset="1" stop-color="white"/>
</linearGradient>
<linearGradient id="paint8_linear_86_5341" x1="207213" y1="32910.9" x2="189158" y2="50468" gradientUnits="userSpaceOnUse">
<stop stop-color="#E6ECF4"/>
<stop offset="1" stop-color="white"/>
</linearGradient>
<linearGradient id="paint9_linear_86_5341" x1="49283" y1="29025.1" x2="49660.4" y2="29025.1" gradientUnits="userSpaceOnUse">
<stop stop-color="#E6ECF4"/>
<stop offset="1" stop-color="white"/>
</linearGradient>
<linearGradient id="paint10_linear_86_5341" x1="71081.9" y1="34741.6" x2="81269.1" y2="40122.3" gradientUnits="userSpaceOnUse">
<stop stop-color="#E6ECF4"/>
<stop offset="1" stop-color="white"/>
</linearGradient>
<clipPath id="clip0_86_5341">
<rect width="677" height="595" fill="white"/>
</clipPath>
</defs>
</svg>
