<svg width="24" height="25" viewBox="0 0 24 25" fill="none" xmlns="http://www.w3.org/2000/svg">
<path fill-rule="evenodd" clip-rule="evenodd" d="M0 12.4681C0 19.0955 5.37258 24.4681 12 24.4681C18.6274 24.4681 24 19.0955 24 12.4681C24 5.84066 18.6274 0.468079 12 0.468079C5.37258 0.468079 0 5.84066 0 12.4681ZM9.80003 17.9681L10.0042 14.9092L10.004 14.9091L15.5685 9.88759C15.8127 9.67085 15.5152 9.56516 15.191 9.76175L8.32367 14.0942L5.35737 13.1684C4.71678 12.9723 4.71218 12.5321 5.50119 12.2156L17.0602 7.75852C17.5881 7.51884 18.0977 7.88532 17.8961 8.69334L15.9276 17.9696C15.7902 18.6288 15.3919 18.7865 14.84 18.482L11.8414 16.2665L10.4 17.6681C10.3955 17.6725 10.391 17.6769 10.3865 17.6813C10.2253 17.8382 10.0919 17.9681 9.80003 17.9681Z" fill="#D1E3FF"/>
</svg>
