<svg width="24" height="25" viewBox="0 0 24 25" fill="none" xmlns="http://www.w3.org/2000/svg">
<path fill-rule="evenodd" clip-rule="evenodd" d="M12 0.468079C5.37258 0.468079 0 5.84066 0 12.4681C0 19.0955 5.37258 24.4681 12 24.4681C18.6274 24.4681 24 19.0955 24 12.4681C24 5.84066 18.6274 0.468079 12 0.468079ZM11.6658 10.6371L11.6406 10.2219C11.5651 9.14568 12.2282 8.16269 13.2774 7.78136C13.6635 7.64577 14.3182 7.62883 14.7463 7.74746C14.9142 7.79831 15.2331 7.96779 15.4598 8.12032L15.8711 8.39996L16.3243 8.2559C16.5761 8.17964 16.9119 8.05253 17.063 7.96779C17.2057 7.89152 17.3316 7.84915 17.3316 7.87457C17.3316 8.01863 17.021 8.51013 16.7608 8.78129C16.4083 9.16262 16.509 9.19652 17.2224 8.9423C17.6505 8.79824 17.6589 8.79824 17.575 8.95925C17.5246 9.04399 17.2644 9.34058 16.9874 9.61175C16.5174 10.0778 16.4922 10.1287 16.4922 10.5185C16.4922 11.1201 16.2068 12.3743 15.9214 13.0607C15.3926 14.3487 14.2595 15.6791 13.1263 16.3486C11.5315 17.2892 9.40786 17.5265 7.61999 16.9757C7.02404 16.7892 6 16.3147 6 16.23C6 16.2045 6.31057 16.1706 6.68829 16.1622C7.4773 16.1452 8.26631 15.9249 8.93781 15.5351L9.39108 15.2639L8.87066 15.086C8.13201 14.8317 7.46891 14.247 7.30103 13.6962C7.25067 13.5183 7.26746 13.5098 7.73751 13.5098L8.22434 13.5013L7.81305 13.3064C7.32621 13.0607 6.88134 12.6454 6.66311 12.2217C6.50362 11.9167 6.30218 11.1455 6.36093 11.0862C6.37772 11.0608 6.55399 11.1116 6.75544 11.1794C7.33461 11.3913 7.41015 11.3404 7.0744 10.9845C6.44487 10.3405 6.25181 9.38295 6.55399 8.47623L6.69668 8.06948L7.25067 8.62029C8.38383 9.73038 9.71843 10.3914 11.2461 10.5863L11.6658 10.6371Z" fill="#D1E3FF"/>
</svg>
