<svg width="24" height="25" viewBox="0 0 24 25" fill="none" xmlns="http://www.w3.org/2000/svg">
<path d="M12.0001 22.4681C10.4882 22.4724 8.99532 22.1303 7.6361 21.4681C7.13865 21.2261 6.66203 20.9435 6.2111 20.6231L6.0741 20.5231C4.83392 19.6077 3.81997 18.4203 3.1101 17.0521C2.37584 15.636 1.99501 14.0632 2.00005 12.4681C2.00005 6.94523 6.47725 2.46808 12.0001 2.46808C17.5229 2.46808 22.0001 6.94523 22.0001 12.4681C22.0051 14.0625 21.6247 15.6345 20.8911 17.0501C20.1822 18.4175 19.1697 19.6045 17.9311 20.5201C17.4639 20.8621 16.968 21.1632 16.4491 21.4201L16.3691 21.4601C15.009 22.1258 13.5144 22.4706 12.0001 22.4681ZM12.0001 17.4681C10.5016 17.4651 9.12776 18.3021 8.4431 19.6351C10.6845 20.7453 13.3157 20.7453 15.5571 19.6351V19.6301C14.8716 18.2986 13.4977 17.4635 12.0001 17.4681ZM12.0001 15.4681C14.1662 15.4709 16.1635 16.6382 17.2291 18.5241L17.2441 18.5111L17.2581 18.4991L17.2411 18.5141L17.2311 18.5221C19.7601 16.3372 20.6644 12.8104 19.4987 9.67819C18.3331 6.54596 15.3432 4.46839 12.0011 4.46839C8.65901 4.46839 5.66909 6.54596 4.50345 9.67819C3.33781 12.8104 4.2421 16.3372 6.7711 18.5221C7.83736 16.6371 9.83446 15.4707 12.0001 15.4681ZM12.0001 14.4681C9.79096 14.4681 8.0001 12.6772 8.0001 10.4681C8.0001 8.25894 9.79096 6.46808 12.0001 6.46808C14.2092 6.46808 16.0001 8.25894 16.0001 10.4681C16.0001 11.5289 15.5787 12.5464 14.8285 13.2965C14.0784 14.0467 13.061 14.4681 12.0001 14.4681ZM12.0001 8.46808C10.8955 8.46808 10.0001 9.36351 10.0001 10.4681C10.0001 11.5726 10.8955 12.4681 12.0001 12.4681C13.1047 12.4681 14.0001 11.5726 14.0001 10.4681C14.0001 9.36351 13.1047 8.46808 12.0001 8.46808Z" fill="#1C1C1C"/>
</svg>
