<svg width="1287" height="159" viewBox="0 0 1287 159" fill="none" xmlns="http://www.w3.org/2000/svg">
<path d="M154.5 1.69971L154.5 66.6997C154.5 73.3271 149.127 78.6997 142.5 78.6997L94 78.6997M117 30.1997L63 30.1997C56.3726 30.1997 51 35.5723 51 42.1997L51 110.7" stroke="#FA3F3F"/>
<path opacity="0.3" d="M9.47396e-07 63.1997L19.5 63.1997C26.1274 63.1997 31.5 68.5723 31.5 75.1997L31.5 143.7" stroke="#FA3F3F"/>
<path opacity="0.3" d="M1160 59.1995L1179.5 59.1995C1186.13 59.1995 1191.5 64.5721 1191.5 71.1995L1191.5 158.7" stroke="#FA3F3F"/>
<path d="M1205.5 91.1997L1205.5 71.6997C1205.5 65.0723 1210.87 59.6997 1217.5 59.6997L1274 59.6997C1280.63 59.6997 1286 54.3271 1286 47.6997L1286 0.699707" stroke="#FA3F3F"/>
</svg>
