<svg width="62" height="65" viewBox="0 0 62 65" fill="none" xmlns="http://www.w3.org/2000/svg">
<path fill-rule="evenodd" clip-rule="evenodd" d="M31.9999 14C31.9999 14 36.7573 18.7967 46.9999 19C47.0457 24.1227 46.2917 29.0321 44.9999 34C42.9935 41.6901 38.4588 44.7877 31.9999 47C25.541 44.7877 20.0063 41.6901 17.9999 34C16.6959 29.0321 15.9541 24.1227 15.9999 19C26.2425 18.7967 31.9999 14 31.9999 14ZM30.9996 15C30.9996 15 35.7454 18.8134 44.9996 19C45.0016 19.2151 45.0036 19.4305 45.0057 19.6463C45.0487 24.1029 45.0929 28.692 43.9996 33C42.1734 39.993 36.8331 42.987 30.9996 45C25.1541 42.987 19.8047 39.993 17.9996 33C16.9009 28.7596 16.9467 24.247 16.9912 19.8563C16.9941 19.5703 16.997 19.2848 16.9996 19C26.2508 18.8134 30.9996 15 30.9996 15Z" fill="#002C73" fill-opacity="0.5"/>
<path d="M27.9999 30V27C28.0243 26.144 28.4371 25.5961 28.9999 25C29.5627 24.4039 31.2161 24 31.9999 24C32.7836 24 33.4371 24.4039 33.9999 25C34.5627 25.5961 34.9754 26.144 34.9999 27V30H35.9999V27C35.9699 25.7176 35.8405 23.8955 34.9999 23C34.1592 22.1045 33.1738 22 31.9999 22C30.8259 22 28.8405 22.1045 27.9999 23C27.1592 23.8955 27.0298 25.7176 26.9999 27V30H27.9999Z" fill="#002C73"/>
<path fill-rule="evenodd" clip-rule="evenodd" d="M30.9999 28H37.9999V36H31.9996V36H24.9996V28H30.9999V28ZM31.4615 29.9496C31.5078 29.9557 31.5547 29.9629 31.6011 29.97C31.7524 29.9931 31.8984 30.0154 31.9996 30V29.9998C31.9997 29.9999 31.9998 29.9999 31.9999 30C32.0486 30.2399 32.1372 30.788 31.9999 31C31.9264 31.1134 31.7199 31.3668 31.5039 31.5912C31.287 31.3627 31.0769 31.1049 30.9996 31C31.0074 30.9195 30.9881 30.7951 30.9672 30.6598C30.9279 30.4053 30.8826 30.112 30.9996 30C30.9997 29.9999 30.9998 29.9998 30.9999 29.9997V30C31.0902 30.0012 31.2045 29.9851 31.3251 29.9681C31.37 29.9617 31.4158 29.9553 31.4615 29.9496ZM31.4998 32.9997L30.9996 34H30.9999V34H31.9999L31.4998 32.9997Z" fill="#002C73"/>
<path fill-rule="evenodd" clip-rule="evenodd" d="M32.0003 10C32.0003 10 38.1145 15.7412 51.0003 16C51.058 22.5198 50.6255 29.6772 49.0003 36C46.4762 45.7874 40.126 49.1843 32.0003 52C23.8746 49.1843 16.5245 45.7874 14.0003 36C12.3598 29.6772 11.9427 22.5198 12.0003 16C24.8862 15.7412 32.0003 10 32.0003 10ZM32.0008 12C32.0008 12 38.1026 17.7575 50.0008 18C50.055 24.0554 49.4745 30.1285 48.0008 36C45.6529 45.0909 39.501 48.383 32.0008 51C24.4851 48.383 18.3217 45.0909 16.0008 36C14.4961 30.1285 13.9467 24.0554 14.0008 18C25.8951 17.7575 32.0008 12 32.0008 12Z" fill="#002C73" fill-opacity="0.35"/>
<path fill-rule="evenodd" clip-rule="evenodd" d="M31.9999 5C31.9999 5 39.81 12.6734 55.9999 13C56.0723 21.2273 56.0418 29.0212 53.9999 37C50.8286 49.3507 42.2092 54.4468 31.9999 58C21.7907 54.4468 12.1713 49.3507 8.99993 37C6.93878 29.0212 6.92753 21.2273 6.99993 13C23.1899 12.6734 31.9999 5 31.9999 5ZM30.9996 7C30.9996 7 39.1269 13.6953 53.9996 14C54.0673 21.608 53.8418 29.623 51.9996 37C49.0647 48.4219 41.3749 52.712 31.9996 56C22.605 52.712 13.9007 48.4219 10.9996 37C9.11879 29.623 8.93195 21.608 8.99965 14C23.8676 13.6953 30.9996 7 30.9996 7Z" fill="#002C73" fill-opacity="0.2"/>
<path fill-rule="evenodd" clip-rule="evenodd" d="M31 0C31 0 41.1756 8.5995 61 9C61.0886 19.0901 60.5002 30.2147 58 40C54.1167 55.1471 43.5011 60.6424 31 65C18.4989 60.6424 7.8833 55.1471 3.99998 40C1.47612 30.2147 0.911324 19.0901 0.999984 9C20.8244 8.5995 31 0 31 0ZM30 3C30 3 39.8222 11.6269 58 12C58.0827 21.3159 57.2515 30.9669 55 40C51.4129 53.986 42.4586 58.9739 31 63C19.5177 58.9739 9.54572 53.986 5.99998 40C3.70116 30.9669 2.91725 21.3159 2.99998 12C21.1719 11.6269 30 3 30 3Z" fill="#002C73" fill-opacity="0.1"/>
</svg>
