<svg width="50" height="50" viewBox="0 0 50 50" fill="none" xmlns="http://www.w3.org/2000/svg">
<path d="M33.3333 4.16406H16.6667C14.3655 4.16406 12.5 6.02954 12.5 8.33073V41.6641C12.5 43.9652 14.3655 45.8307 16.6667 45.8307H33.3333C35.6345 45.8307 37.5 43.9652 37.5 41.6641V8.33073C37.5 6.02954 35.6345 4.16406 33.3333 4.16406Z" stroke="black" stroke-width="4.16667" stroke-linecap="round" stroke-linejoin="round"/>
<path d="M24.8955 37.4961H25.1038" stroke="black" stroke-width="4.16667" stroke-linecap="round" stroke-linejoin="round"/>
<path d="M26.7356 14.7597L27.2955 13.7496C27.3027 13.7366 27.3073 13.7224 27.3089 13.7076C27.3106 13.6929 27.3094 13.678 27.3053 13.6638C27.3012 13.6495 27.2944 13.6362 27.2851 13.6246C27.2759 13.613 27.2645 13.6034 27.2515 13.5962C27.2254 13.5817 27.1945 13.5782 27.1657 13.5864C27.137 13.5946 27.1127 13.614 27.0981 13.6402L26.5321 14.6614C26.049 14.4497 25.5274 14.3404 25 14.3404C24.4726 14.3404 23.951 14.4497 23.4679 14.6614L22.9018 13.6402C22.8873 13.614 22.863 13.5946 22.8343 13.5864C22.8055 13.5782 22.7746 13.5817 22.7485 13.5962C22.7223 13.6107 22.7029 13.635 22.6947 13.6638C22.6865 13.6925 22.69 13.7234 22.7045 13.7496L23.2644 14.7597C22.7314 15.0224 22.2811 15.4268 21.9628 15.9286C21.6445 16.4304 21.4706 17.0101 21.46 17.6042H28.54C28.5294 17.0101 28.3555 16.4303 28.0372 15.9286C27.7189 15.4268 27.2686 15.0224 26.7356 14.7597ZM23.3661 16.3088C23.3077 16.3088 23.2505 16.2914 23.2019 16.2589C23.1533 16.2265 23.1154 16.1803 23.093 16.1263C23.0706 16.0722 23.0648 16.0128 23.0762 15.9555C23.0876 15.8981 23.1158 15.8454 23.1571 15.8041C23.1984 15.7627 23.2511 15.7346 23.3085 15.7232C23.3658 15.7118 23.4253 15.7176 23.4793 15.74C23.5333 15.7624 23.5795 15.8003 23.612 15.8489C23.6444 15.8975 23.6618 15.9547 23.6618 16.0131C23.6617 16.0915 23.6305 16.1667 23.5751 16.2221C23.5197 16.2775 23.4445 16.3087 23.3661 16.3088ZM26.6338 16.3088C26.5754 16.3088 26.5182 16.2914 26.4696 16.2589C26.421 16.2265 26.3831 16.1803 26.3607 16.1263C26.3383 16.0722 26.3325 16.0128 26.3439 15.9555C26.3553 15.8981 26.3835 15.8454 26.4248 15.8041C26.4661 15.7627 26.5188 15.7346 26.5762 15.7232C26.6335 15.7118 26.693 15.7176 26.747 15.74C26.801 15.7624 26.8472 15.8003 26.8797 15.8489C26.9121 15.8975 26.9295 15.9547 26.9295 16.0131C26.9294 16.0915 26.8982 16.1667 26.8428 16.2221C26.7874 16.2775 26.7122 16.3087 26.6338 16.3088ZM21.46 23.0153C21.46 23.2423 21.5502 23.46 21.7107 23.6205C21.8712 23.781 22.0888 23.8712 22.3158 23.8712H22.8838V25.6217C22.8835 25.7261 22.9038 25.8295 22.9435 25.9261C22.9833 26.0226 23.0417 26.1104 23.1154 26.1843C23.1892 26.2582 23.2767 26.3168 23.3732 26.3569C23.4696 26.3969 23.573 26.4175 23.6774 26.4175C23.7818 26.4175 23.8851 26.3969 23.9815 26.3569C24.078 26.3168 24.1656 26.2582 24.2393 26.1843C24.313 26.1104 24.3714 26.0226 24.4112 25.9261C24.4509 25.8295 24.4712 25.7261 24.471 25.6217V23.8712H25.529V25.6217C25.5288 25.7261 25.5491 25.8295 25.5888 25.9261C25.6286 26.0226 25.687 26.1104 25.7607 26.1843C25.8344 26.2582 25.922 26.3168 26.0184 26.3569C26.1149 26.3969 26.2182 26.4175 26.3226 26.4175C26.427 26.4175 26.5304 26.3969 26.6268 26.3569C26.7233 26.3168 26.8108 26.2582 26.8846 26.1843C26.9583 26.1104 27.0167 26.0226 27.0564 25.9261C27.0962 25.8295 27.1165 25.7261 27.1162 25.6217V23.8712H27.6842C27.9112 23.8712 28.1289 23.781 28.2893 23.6205C28.4498 23.46 28.54 23.2423 28.54 23.0153V17.8843H21.46V23.0153ZM20.3707 17.7481C20.1603 17.7483 19.9586 17.832 19.8099 17.9808C19.6611 18.1296 19.5774 18.3313 19.5772 18.5417V21.8483C19.5769 21.9527 19.5972 22.0561 19.6369 22.1527C19.6767 22.2492 19.7351 22.3369 19.8088 22.4109C19.8825 22.4848 19.9701 22.5434 20.0666 22.5834C20.163 22.6235 20.2664 22.6441 20.3708 22.6441C20.4751 22.6441 20.5785 22.6235 20.6749 22.5834C20.7714 22.5434 20.859 22.4848 20.9327 22.4109C21.0064 22.3369 21.0648 22.2492 21.1046 22.1527C21.1443 22.0561 21.1646 21.9527 21.1643 21.8483V18.5417C21.1641 18.3313 21.0804 18.1296 20.9316 17.9808C20.7829 17.832 20.5812 17.7483 20.3707 17.7481ZM29.6292 17.7481C29.4188 17.7483 29.2171 17.832 29.0683 17.9808C28.9196 18.1296 28.8359 18.3313 28.8356 18.5417V21.8483C28.8354 21.9527 28.8557 22.0561 28.8954 22.1527C28.9352 22.2492 28.9936 22.3369 29.0673 22.4109C29.141 22.4848 29.2286 22.5434 29.325 22.5834C29.4215 22.6235 29.5248 22.6441 29.6292 22.6441C29.7336 22.6441 29.837 22.6235 29.9334 22.5834C30.0299 22.5434 30.1174 22.4848 30.1912 22.4109C30.2649 22.3369 30.3233 22.2492 30.363 22.1527C30.4028 22.0561 30.4231 21.9527 30.4228 21.8483V18.5417C30.4226 18.3313 30.3389 18.1296 30.1901 17.9808C30.0414 17.832 29.8396 17.7483 29.6292 17.7481Z" fill="black"/>
</svg>
