<svg width="207" height="51" viewBox="0 0 207 51" fill="none" xmlns="http://www.w3.org/2000/svg">
<path d="M80.9752 18.6398H84.5133V21.4313H84.6755C85.0434 20.4143 85.6385 19.6352 86.4608 19.0943C87.3048 18.5316 88.2894 18.2503 89.4146 18.2503C91.5569 18.2503 93.2124 19.0293 94.3809 20.5874C95.5494 22.1238 96.1337 24.2878 96.1337 27.0793C96.1337 29.8708 95.5494 32.0455 94.3809 33.6036C93.2124 35.14 91.5569 35.9082 89.4146 35.9082C88.2894 35.9082 87.3048 35.6269 86.4608 35.0642C85.6385 34.5016 85.0434 33.7226 84.6755 32.7272H84.5133V42.0105H80.9752V18.6398ZM88.3435 32.857C89.5769 32.857 90.5615 32.4675 91.2973 31.6885C92.033 30.8878 92.4009 29.8383 92.4009 28.5399V25.6186C92.4009 24.3202 92.033 23.2815 91.2973 22.5025C90.5615 21.7018 89.5769 21.3015 88.3435 21.3015C87.2615 21.3015 86.3526 21.572 85.6169 22.113C84.8811 22.6323 84.5133 23.3248 84.5133 24.1904V29.9681C84.5133 30.8337 84.8811 31.537 85.6169 32.078C86.3526 32.5973 87.2615 32.857 88.3435 32.857ZM111.902 35.5187C110.972 35.5187 110.258 35.259 109.76 34.7397C109.262 34.1987 108.959 33.517 108.851 32.6947H108.689C108.364 33.7551 107.769 34.5557 106.904 35.0967C106.038 35.6377 104.988 35.9082 103.755 35.9082C102.002 35.9082 100.65 35.4538 99.6976 34.5449C98.7671 33.636 98.3019 32.4134 98.3019 30.877C98.3019 29.1891 98.9078 27.9232 100.12 27.0793C101.353 26.2353 103.149 25.8133 105.508 25.8133H108.559V24.3851C108.559 23.3464 108.278 22.5458 107.715 21.9831C107.152 21.4205 106.276 21.1392 105.086 21.1392C104.09 21.1392 103.279 21.3556 102.651 21.7884C102.024 22.2212 101.494 22.773 101.061 23.4438L98.9511 21.5287C99.5137 20.5766 100.304 19.7975 101.321 19.1916C102.338 18.5641 103.668 18.2503 105.313 18.2503C107.499 18.2503 109.176 18.7588 110.344 19.7759C111.513 20.793 112.097 22.2536 112.097 24.1579V32.6298H113.882V35.5187H111.902ZM104.761 33.2141C105.865 33.2141 106.774 32.976 107.488 32.5C108.202 32.0023 108.559 31.3422 108.559 30.5199V28.0855H105.573C103.127 28.0855 101.905 28.8429 101.905 30.3576V30.9419C101.905 31.6993 102.154 32.2727 102.651 32.6623C103.171 33.0301 103.874 33.2141 104.761 33.2141ZM116.701 35.5187V18.6398H120.239V21.8858H120.401C120.639 21.0202 121.137 20.2628 121.894 19.6136C122.652 18.9644 123.701 18.6398 125.043 18.6398H125.984V22.0481H124.588C123.182 22.0481 122.1 22.2753 121.342 22.7297C120.607 23.1841 120.239 23.855 120.239 24.7422V35.5187H116.701ZM140.591 35.5187C139.66 35.5187 138.946 35.259 138.448 34.7397C137.951 34.1987 137.648 33.517 137.54 32.6947H137.377C137.053 33.7551 136.458 34.5557 135.592 35.0967C134.726 35.6377 133.677 35.9082 132.443 35.9082C130.691 35.9082 129.338 35.4538 128.386 34.5449C127.456 33.636 126.99 32.4134 126.99 30.877C126.99 29.1891 127.596 27.9232 128.808 27.0793C130.042 26.2353 131.838 25.8133 134.196 25.8133H137.247V24.3851C137.247 23.3464 136.966 22.5458 136.404 21.9831C135.841 21.4205 134.965 21.1392 133.774 21.1392C132.779 21.1392 131.967 21.3556 131.34 21.7884C130.712 22.2212 130.182 22.773 129.749 23.4438L127.64 21.5287C128.202 20.5766 128.992 19.7975 130.009 19.1916C131.026 18.5641 132.357 18.2503 134.002 18.2503C136.187 18.2503 137.864 18.7588 139.033 19.7759C140.201 20.793 140.786 22.2536 140.786 24.1579V32.6298H142.571V35.5187H140.591ZM133.45 33.2141C134.553 33.2141 135.462 32.976 136.176 32.5C136.89 32.0023 137.247 31.3422 137.247 30.5199V28.0855H134.261C131.816 28.0855 130.593 28.8429 130.593 30.3576V30.9419C130.593 31.6993 130.842 32.2727 131.34 32.6623C131.859 33.0301 132.563 33.2141 133.45 33.2141ZM145.389 35.5187V18.6398H148.927V21.4313H149.09C149.457 20.5225 150.009 19.7651 150.745 19.1592C151.502 18.5533 152.53 18.2503 153.829 18.2503C155.56 18.2503 156.901 18.8238 157.854 19.9707C158.827 21.0959 159.314 22.7081 159.314 24.8071V35.5187H155.776V25.2615C155.776 22.6215 154.716 21.3015 152.595 21.3015C152.141 21.3015 151.686 21.3664 151.232 21.4963C150.799 21.6044 150.41 21.7776 150.063 22.0156C149.717 22.2536 149.436 22.5566 149.219 22.9245C149.025 23.2923 148.927 23.7251 148.927 24.2228V35.5187H145.389ZM170.191 35.9082C169.022 35.9082 167.951 35.7026 166.977 35.2915C166.025 34.8803 165.214 34.296 164.543 33.5387C163.872 32.7596 163.353 31.8291 162.985 30.7472C162.617 29.6435 162.433 28.4209 162.433 27.0793C162.433 25.7376 162.617 24.5258 162.985 23.4438C163.353 22.3402 163.872 21.4097 164.543 20.6523C165.214 19.8733 166.025 19.2782 166.977 18.867C167.951 18.4559 169.022 18.2503 170.191 18.2503C171.359 18.2503 172.42 18.4559 173.372 18.867C174.345 19.2782 175.168 19.8733 175.839 20.6523C176.509 21.4097 177.029 22.3402 177.397 23.4438C177.764 24.5258 177.948 25.7376 177.948 27.0793C177.948 28.4209 177.764 29.6435 177.397 30.7472C177.029 31.8291 176.509 32.7596 175.839 33.5387C175.168 34.296 174.345 34.8803 173.372 35.2915C172.42 35.7026 171.359 35.9082 170.191 35.9082ZM170.191 32.9868C171.402 32.9868 172.376 32.619 173.112 31.8832C173.848 31.1258 174.216 30.0006 174.216 28.5075V25.651C174.216 24.1579 173.848 23.0435 173.112 22.3077C172.376 21.5503 171.402 21.1717 170.191 21.1717C168.979 21.1717 168.005 21.5503 167.269 22.3077C166.534 23.0435 166.166 24.1579 166.166 25.651V28.5075C166.166 30.0006 166.534 31.1258 167.269 31.8832C168.005 32.619 168.979 32.9868 170.191 32.9868ZM183.027 15.6211C182.291 15.6211 181.75 15.448 181.404 15.1018C181.079 14.7555 180.917 14.3119 180.917 13.7709V13.2191C180.917 12.6781 181.079 12.2345 181.404 11.8883C181.75 11.5421 182.291 11.3689 183.027 11.3689C183.763 11.3689 184.293 11.5421 184.617 11.8883C184.942 12.2345 185.104 12.6781 185.104 13.2191V13.7709C185.104 14.3119 184.942 14.7555 184.617 15.1018C184.293 15.448 183.763 15.6211 183.027 15.6211ZM181.242 18.6398H184.78V35.5187H181.242V18.6398ZM199.797 32.7272H199.635C199.267 33.7226 198.661 34.5016 197.817 35.0642C196.995 35.6269 196.021 35.9082 194.895 35.9082C192.753 35.9082 191.098 35.14 189.929 33.6036C188.761 32.0455 188.176 29.8708 188.176 27.0793C188.176 24.2878 188.761 22.1238 189.929 20.5874C191.098 19.0293 192.753 18.2503 194.895 18.2503C196.021 18.2503 196.995 18.5316 197.817 19.0943C198.661 19.6352 199.267 20.4143 199.635 21.4313H199.797V11.4988H203.335V35.5187H199.797V32.7272ZM195.967 32.857C197.049 32.857 197.957 32.5973 198.693 32.078C199.429 31.537 199.797 30.8337 199.797 29.9681V24.1904C199.797 23.3248 199.429 22.6323 198.693 22.113C197.957 21.572 197.049 21.3015 195.967 21.3015C194.733 21.3015 193.749 21.7018 193.013 22.5025C192.277 23.2815 191.909 24.3202 191.909 25.6186V28.5399C191.909 29.8383 192.277 30.8878 193.013 31.6885C193.749 32.4675 194.733 32.857 195.967 32.857Z" fill="black"/>
<rect x="0.676236" y="0.676236" width="73.0335" height="45.984" rx="2.02871" stroke="#316CCC" stroke-width="1.35247"/>
<path d="M13.2271 35.1149L8.76393 16.2344H11.8746L13.7951 25.323L15.1205 31.5984H15.2017L16.7165 25.323L18.9616 16.2344H22.3698L24.5879 25.323L26.0756 31.5714H26.1567L27.5362 25.323L29.5108 16.2344H32.5133L27.8608 35.1149H24.4256L22.0182 25.35L20.6116 19.6155H20.5575L19.1239 25.35L16.6624 35.1149H13.2271ZM34.9419 35.1149V16.2344H47.033V18.9393H37.9985V24.1869H46.1944V26.8918H37.9985V32.4099H47.033V35.1149H34.9419ZM50.4351 16.2344H58.7933C60.3622 16.2344 61.5884 16.6762 62.4721 17.5598C63.3737 18.4434 63.8245 19.6246 63.8245 21.1033C63.8245 21.8065 63.7254 22.4107 63.527 22.9156C63.3286 23.4025 63.0762 23.8082 62.7696 24.1328C62.463 24.4394 62.1114 24.6738 61.7147 24.8361C61.318 24.9803 60.9302 25.0705 60.5515 25.1066V25.2689C60.9302 25.2869 61.345 25.3771 61.7958 25.5394C62.2647 25.7017 62.6975 25.9631 63.0942 26.3238C63.4909 26.6664 63.8245 27.1173 64.095 27.6763C64.3655 28.2173 64.5008 28.8845 64.5008 29.6779C64.5008 30.4353 64.3745 31.1476 64.1221 31.8148C63.8876 32.4821 63.554 33.0591 63.1212 33.546C62.6885 34.0329 62.1745 34.4206 61.5794 34.7091C60.9843 34.9796 60.3352 35.1149 59.6319 35.1149H50.4351V16.2344ZM53.4916 32.4911H58.7392C59.5327 32.4911 60.1548 32.2837 60.6056 31.8689C61.0565 31.4542 61.2819 30.8591 61.2819 30.0837V29.164C61.2819 28.3886 61.0565 27.7935 60.6056 27.3787C60.1548 26.964 59.5327 26.7566 58.7392 26.7566H53.4916V32.4911ZM53.4916 24.2139H58.2253C58.9827 24.2139 59.5688 24.0246 59.9835 23.6459C60.3983 23.2492 60.6056 22.6902 60.6056 21.9688V21.1033C60.6056 20.3819 60.3983 19.8319 59.9835 19.4532C59.5688 19.0565 58.9827 18.8582 58.2253 18.8582H53.4916V24.2139Z" fill="#316CCC"/>
<path d="M105.949 38.1568H107.276V41.8816H107.336C107.474 41.5002 107.698 41.208 108.006 41.0052C108.322 40.7942 108.692 40.6887 109.114 40.6887C109.917 40.6887 110.538 40.9808 110.976 41.5651C111.414 42.1412 111.633 42.9527 111.633 43.9995C111.633 45.0463 111.414 45.8619 110.976 46.4461C110.538 47.0223 109.917 47.3104 109.114 47.3104C108.692 47.3104 108.322 47.2049 108.006 46.9939C107.698 46.7829 107.474 46.4908 107.336 46.1175H107.276V47.1643H105.949V38.1568ZM108.712 46.1662C109.174 46.1662 109.544 46.0201 109.82 45.728C110.095 45.4277 110.233 45.0342 110.233 44.5473V43.4518C110.233 42.9649 110.095 42.5754 109.82 42.2832C109.544 41.983 109.174 41.8329 108.712 41.8329C108.306 41.8329 107.965 41.9343 107.689 42.1372C107.414 42.3319 107.276 42.5916 107.276 42.9162V45.0829C107.276 45.4074 107.414 45.6712 107.689 45.874C107.965 46.0688 108.306 46.1662 108.712 46.1662ZM112.909 47.1643V40.8347H114.236V42.052H114.296C114.386 41.7274 114.572 41.4434 114.856 41.1999C115.14 40.9565 115.534 40.8347 116.037 40.8347H116.39V42.1128H115.867C115.339 42.1128 114.933 42.198 114.649 42.3684C114.374 42.5389 114.236 42.7904 114.236 43.1231V47.1643H112.909ZM119.749 47.3104C119.311 47.3104 118.909 47.2333 118.544 47.0791C118.187 46.9249 117.882 46.7058 117.631 46.4218C117.379 46.1297 117.184 45.7807 117.047 45.375C116.909 44.9611 116.84 44.5026 116.84 43.9995C116.84 43.4964 116.909 43.042 117.047 42.6362C117.184 42.2224 117.379 41.8734 117.631 41.5894C117.882 41.2973 118.187 41.0741 118.544 40.9199C118.909 40.7658 119.311 40.6887 119.749 40.6887C120.187 40.6887 120.585 40.7658 120.942 40.9199C121.307 41.0741 121.615 41.2973 121.867 41.5894C122.118 41.8734 122.313 42.2224 122.451 42.6362C122.589 43.042 122.658 43.4964 122.658 43.9995C122.658 44.5026 122.589 44.9611 122.451 45.375C122.313 45.7807 122.118 46.1297 121.867 46.4218C121.615 46.7058 121.307 46.9249 120.942 47.0791C120.585 47.2333 120.187 47.3104 119.749 47.3104ZM119.749 46.2149C120.203 46.2149 120.568 46.0769 120.844 45.801C121.12 45.517 121.258 45.095 121.258 44.5351V43.4639C121.258 42.904 121.12 42.4861 120.844 42.2102C120.568 41.9262 120.203 41.7842 119.749 41.7842C119.294 41.7842 118.929 41.9262 118.653 42.2102C118.377 42.4861 118.239 42.904 118.239 43.4639V44.5351C118.239 45.095 118.377 45.517 118.653 45.801C118.929 46.0769 119.294 46.2149 119.749 46.2149ZM123.177 40.8347H124.467L125.112 43.4883L125.684 45.8862H125.721L126.378 43.4883L127.145 40.8347H128.338L129.117 43.4883L129.786 45.8862H129.823L130.383 43.4883L131.04 40.8347H132.269L130.565 47.1643H129.068L128.24 44.2795L127.729 42.5023H127.705L127.206 44.2795L126.366 47.1643H124.905L123.177 40.8347ZM135.263 47.3104C134.662 47.3104 134.159 47.2049 133.753 46.9939C133.347 46.7829 132.994 46.4908 132.694 46.1175L133.546 45.3385C133.782 45.6225 134.041 45.8456 134.325 46.0079C134.617 46.1621 134.954 46.2392 135.336 46.2392C135.725 46.2392 136.013 46.1662 136.2 46.0201C136.395 45.8659 136.492 45.6549 136.492 45.3872C136.492 45.1843 136.423 45.0139 136.285 44.8759C136.155 44.7299 135.924 44.6365 135.591 44.596L135.007 44.5229C134.358 44.4418 133.846 44.2551 133.473 43.963C133.108 43.6628 132.925 43.2205 132.925 42.6362C132.925 42.3279 132.982 42.056 133.096 41.8207C133.209 41.5772 133.368 41.3744 133.571 41.2121C133.782 41.0417 134.029 40.9118 134.313 40.8226C134.605 40.7333 134.926 40.6887 135.275 40.6887C135.843 40.6887 136.305 40.7779 136.662 40.9565C137.027 41.135 137.352 41.3825 137.636 41.699L136.821 42.478C136.658 42.2832 136.443 42.1169 136.175 41.9789C135.916 41.8329 135.615 41.7598 135.275 41.7598C134.91 41.7598 134.638 41.8329 134.459 41.9789C134.289 42.125 134.204 42.3157 134.204 42.551C134.204 42.7945 134.281 42.9771 134.435 43.0988C134.589 43.2205 134.836 43.3098 135.177 43.3666L135.762 43.4396C136.459 43.5451 136.967 43.752 137.283 44.0604C137.608 44.3606 137.77 44.7664 137.77 45.2776C137.77 45.586 137.709 45.8659 137.587 46.1175C137.474 46.3609 137.307 46.5719 137.088 46.7505C136.869 46.929 136.606 47.0669 136.297 47.1643C135.989 47.2617 135.644 47.3104 135.263 47.3104ZM141.509 47.3104C141.054 47.3104 140.648 47.2333 140.291 47.0791C139.934 46.9249 139.63 46.7058 139.378 46.4218C139.127 46.1297 138.932 45.7807 138.794 45.375C138.664 44.9611 138.599 44.5026 138.599 43.9995C138.599 43.4964 138.664 43.042 138.794 42.6362C138.932 42.2224 139.127 41.8734 139.378 41.5894C139.63 41.2973 139.934 41.0741 140.291 40.9199C140.648 40.7658 141.054 40.6887 141.509 40.6887C141.971 40.6887 142.377 40.7698 142.726 40.9321C143.083 41.0944 143.379 41.3216 143.614 41.6138C143.85 41.8978 144.024 42.2305 144.138 42.6119C144.26 42.9933 144.32 43.4031 144.32 43.8413V44.3403H139.975V44.5473C139.975 45.0342 140.117 45.4358 140.401 45.7523C140.693 46.0607 141.107 46.2149 141.642 46.2149C142.032 46.2149 142.361 46.1297 142.628 45.9593C142.896 45.7888 143.123 45.5576 143.31 45.2654L144.089 46.0323C143.854 46.4218 143.513 46.7342 143.067 46.9696C142.62 47.1968 142.101 47.3104 141.509 47.3104ZM141.509 41.7233C141.281 41.7233 141.07 41.7639 140.876 41.845C140.689 41.9262 140.527 42.0398 140.389 42.1859C140.259 42.3319 140.157 42.5064 140.084 42.7093C140.011 42.9121 139.975 43.1353 139.975 43.3787V43.4639H142.921V43.3422C142.921 42.8553 142.795 42.4658 142.543 42.1737C142.292 41.8734 141.947 41.7233 141.509 41.7233ZM145.546 47.1643V40.8347H146.872V42.052H146.933C147.023 41.7274 147.209 41.4434 147.493 41.1999C147.777 40.9565 148.171 40.8347 148.674 40.8347H149.027V42.1128H148.504C147.976 42.1128 147.57 42.198 147.286 42.3684C147.01 42.5389 146.872 42.7904 146.872 43.1231V47.1643H145.546ZM155.078 47.3104C154.624 47.3104 154.218 47.2333 153.861 47.0791C153.504 46.9249 153.2 46.7058 152.948 46.4218C152.697 46.1297 152.502 45.7807 152.364 45.375C152.234 44.9611 152.169 44.5026 152.169 43.9995C152.169 43.4964 152.234 43.042 152.364 42.6362C152.502 42.2224 152.697 41.8734 152.948 41.5894C153.2 41.2973 153.504 41.0741 153.861 40.9199C154.218 40.7658 154.624 40.6887 155.078 40.6887C155.541 40.6887 155.947 40.7698 156.295 40.9321C156.653 41.0944 156.949 41.3216 157.184 41.6138C157.419 41.8978 157.594 42.2305 157.707 42.6119C157.829 42.9933 157.89 43.4031 157.89 43.8413V44.3403H153.545V44.5473C153.545 45.0342 153.687 45.4358 153.971 45.7523C154.263 46.0607 154.677 46.2149 155.212 46.2149C155.602 46.2149 155.93 46.1297 156.198 45.9593C156.466 45.7888 156.693 45.5576 156.88 45.2654L157.659 46.0323C157.423 46.4218 157.083 46.7342 156.636 46.9696C156.19 47.1968 155.671 47.3104 155.078 47.3104ZM155.078 41.7233C154.851 41.7233 154.64 41.7639 154.445 41.845C154.259 41.9262 154.096 42.0398 153.958 42.1859C153.829 42.3319 153.727 42.5064 153.654 42.7093C153.581 42.9121 153.545 43.1353 153.545 43.3787V43.4639H156.49V43.3422C156.49 42.8553 156.364 42.4658 156.113 42.1737C155.861 41.8734 155.516 41.7233 155.078 41.7233ZM158.243 47.1643L160.47 43.963L158.304 40.8347H159.838L161.262 43.0379H161.298L162.759 40.8347H164.171L162.004 43.9508L164.207 47.1643H162.674L161.213 44.8638H161.176L159.655 47.1643H158.243ZM166.913 47.1643C166.45 47.1643 166.101 47.0466 165.866 46.8113C165.631 46.5679 165.513 46.227 165.513 45.7888V41.9181H164.527V40.8347H165.063C165.282 40.8347 165.432 40.786 165.513 40.6887C165.602 40.5913 165.647 40.4331 165.647 40.214V39.1063H166.84V40.8347H168.167V41.9181H166.84V46.081H168.069V47.1643H166.913ZM171.798 47.3104C171.344 47.3104 170.938 47.2333 170.581 47.0791C170.224 46.9249 169.919 46.7058 169.668 46.4218C169.416 46.1297 169.222 45.7807 169.084 45.375C168.954 44.9611 168.889 44.5026 168.889 43.9995C168.889 43.4964 168.954 43.042 169.084 42.6362C169.222 42.2224 169.416 41.8734 169.668 41.5894C169.919 41.2973 170.224 41.0741 170.581 40.9199C170.938 40.7658 171.344 40.6887 171.798 40.6887C172.261 40.6887 172.666 40.7698 173.015 40.9321C173.372 41.0944 173.668 41.3216 173.904 41.6138C174.139 41.8978 174.314 42.2305 174.427 42.6119C174.549 42.9933 174.61 43.4031 174.61 43.8413V44.3403H170.264V44.5473C170.264 45.0342 170.406 45.4358 170.69 45.7523C170.982 46.0607 171.396 46.2149 171.932 46.2149C172.321 46.2149 172.65 46.1297 172.918 45.9593C173.186 45.7888 173.413 45.5576 173.599 45.2654L174.378 46.0323C174.143 46.4218 173.802 46.7342 173.356 46.9696C172.91 47.1968 172.39 47.3104 171.798 47.3104ZM171.798 41.7233C171.571 41.7233 171.36 41.7639 171.165 41.845C170.978 41.9262 170.816 42.0398 170.678 42.1859C170.548 42.3319 170.447 42.5064 170.374 42.7093C170.301 42.9121 170.264 43.1353 170.264 43.3787V43.4639H173.21V43.3422C173.21 42.8553 173.084 42.4658 172.833 42.1737C172.581 41.8734 172.236 41.7233 171.798 41.7233ZM175.835 47.1643V40.8347H177.162V41.8816H177.223C177.361 41.5407 177.568 41.2567 177.843 41.0295C178.128 40.8023 178.513 40.6887 179 40.6887C179.649 40.6887 180.152 40.9037 180.509 41.3338C180.874 41.7558 181.057 42.3603 181.057 43.1475V47.1643H179.73V43.3179C179.73 42.3279 179.333 41.8329 178.537 41.8329C178.367 41.8329 178.196 41.8572 178.026 41.9059C177.864 41.9465 177.718 42.0114 177.588 42.1007C177.458 42.1899 177.353 42.3035 177.271 42.4415C177.198 42.5794 177.162 42.7417 177.162 42.9284V47.1643H175.835ZM184.661 47.3104C184.06 47.3104 183.557 47.2049 183.152 46.9939C182.746 46.7829 182.393 46.4908 182.093 46.1175L182.945 45.3385C183.18 45.6225 183.44 45.8456 183.724 46.0079C184.016 46.1621 184.353 46.2392 184.734 46.2392C185.123 46.2392 185.412 46.1662 185.598 46.0201C185.793 45.8659 185.89 45.6549 185.89 45.3872C185.89 45.1843 185.821 45.0139 185.683 44.8759C185.554 44.7299 185.322 44.6365 184.99 44.596L184.405 44.5229C183.756 44.4418 183.245 44.2551 182.872 43.963C182.506 43.6628 182.324 43.2205 182.324 42.6362C182.324 42.3279 182.381 42.056 182.494 41.8207C182.608 41.5772 182.766 41.3744 182.969 41.2121C183.18 41.0417 183.427 40.9118 183.711 40.8226C184.004 40.7333 184.324 40.6887 184.673 40.6887C185.241 40.6887 185.704 40.7779 186.061 40.9565C186.426 41.135 186.75 41.3825 187.034 41.699L186.219 42.478C186.057 42.2832 185.842 42.1169 185.574 41.9789C185.314 41.8329 185.014 41.7598 184.673 41.7598C184.308 41.7598 184.036 41.8329 183.858 41.9789C183.687 42.125 183.602 42.3157 183.602 42.551C183.602 42.7945 183.679 42.9771 183.833 43.0988C183.987 43.2205 184.235 43.3098 184.576 43.3666L185.16 43.4396C185.858 43.5451 186.365 43.752 186.681 44.0604C187.006 44.3606 187.168 44.7664 187.168 45.2776C187.168 45.586 187.108 45.8659 186.986 46.1175C186.872 46.3609 186.706 46.5719 186.487 46.7505C186.268 46.929 186.004 47.0669 185.696 47.1643C185.387 47.2617 185.042 47.3104 184.661 47.3104ZM189.093 39.7027C188.817 39.7027 188.615 39.6378 188.485 39.508C188.363 39.3781 188.302 39.2118 188.302 39.0089V38.802C188.302 38.5991 188.363 38.4327 188.485 38.3029C188.615 38.1731 188.817 38.1082 189.093 38.1082C189.369 38.1082 189.568 38.1731 189.69 38.3029C189.811 38.4327 189.872 38.5991 189.872 38.802V39.0089C189.872 39.2118 189.811 39.3781 189.69 39.508C189.568 39.6378 189.369 39.7027 189.093 39.7027ZM188.424 40.8347H189.751V47.1643H188.424V40.8347ZM193.885 47.3104C193.447 47.3104 193.045 47.2333 192.68 47.0791C192.323 46.9249 192.018 46.7058 191.767 46.4218C191.515 46.1297 191.321 45.7807 191.183 45.375C191.045 44.9611 190.976 44.5026 190.976 43.9995C190.976 43.4964 191.045 43.042 191.183 42.6362C191.321 42.2224 191.515 41.8734 191.767 41.5894C192.018 41.2973 192.323 41.0741 192.68 40.9199C193.045 40.7658 193.447 40.6887 193.885 40.6887C194.323 40.6887 194.721 40.7658 195.078 40.9199C195.443 41.0741 195.751 41.2973 196.003 41.5894C196.254 41.8734 196.449 42.2224 196.587 42.6362C196.725 43.042 196.794 43.4964 196.794 43.9995C196.794 44.5026 196.725 44.9611 196.587 45.375C196.449 45.7807 196.254 46.1297 196.003 46.4218C195.751 46.7058 195.443 46.9249 195.078 47.0791C194.721 47.2333 194.323 47.3104 193.885 47.3104ZM193.885 46.2149C194.339 46.2149 194.704 46.0769 194.98 45.801C195.256 45.517 195.394 45.095 195.394 44.5351V43.4639C195.394 42.904 195.256 42.4861 194.98 42.2102C194.704 41.9262 194.339 41.7842 193.885 41.7842C193.43 41.7842 193.065 41.9262 192.789 42.2102C192.513 42.4861 192.376 42.904 192.376 43.4639V44.5351C192.376 45.095 192.513 45.517 192.789 45.801C193.065 46.0769 193.43 46.2149 193.885 46.2149ZM198.029 47.1643V40.8347H199.356V41.8816H199.417C199.555 41.5407 199.761 41.2567 200.037 41.0295C200.321 40.8023 200.707 40.6887 201.194 40.6887C201.843 40.6887 202.346 40.9037 202.703 41.3338C203.068 41.7558 203.251 42.3603 203.251 43.1475V47.1643H201.924V43.3179C201.924 42.3279 201.526 41.8329 200.731 41.8329C200.561 41.8329 200.39 41.8572 200.22 41.9059C200.058 41.9465 199.912 42.0114 199.782 42.1007C199.652 42.1899 199.546 42.3035 199.465 42.4415C199.392 42.5794 199.356 42.7417 199.356 42.9284V47.1643H198.029Z" fill="#316CCC"/>
<path d="M7.11486 5.46734C7.11486 6.21429 6.50933 6.81981 5.76238 6.81981C5.01543 6.81981 4.40991 6.21429 4.40991 5.46734C4.40991 4.72039 5.01543 4.11487 5.76238 4.11487C6.50933 4.11487 7.11486 4.72039 7.11486 5.46734Z" fill="#316CCC"/>
<path d="M12.5247 5.46734C12.5247 6.21429 11.9192 6.81981 11.1723 6.81981C10.4253 6.81981 9.8198 6.21429 9.8198 5.46734C9.8198 4.72039 10.4253 4.11487 11.1723 4.11487C11.9192 4.11487 12.5247 4.72039 12.5247 5.46734Z" fill="#316CCC"/>
<path d="M17.9346 5.46734C17.9346 6.21429 17.3291 6.81981 16.5822 6.81981C15.8352 6.81981 15.2297 6.21429 15.2297 5.46734C15.2297 4.72039 15.8352 4.11487 16.5822 4.11487C17.3291 4.11487 17.9346 4.72039 17.9346 5.46734Z" fill="#316CCC"/>
</svg>
