<svg width="32" height="32" viewBox="0 0 32 32" fill="none" xmlns="http://www.w3.org/2000/svg">
<path d="M26.7733 1.77783H5.67021C3.52028 1.77783 1.77734 3.52069 1.77734 5.67067V26.7737C1.77734 28.9237 3.52021 30.6666 5.67021 30.6666H16.0782L16.0959 20.3433H13.4139C13.0653 20.3433 12.7824 20.0615 12.7811 19.7129L12.7682 16.3853C12.7669 16.0349 13.0506 15.7501 13.4011 15.7501H16.0782V12.5347C16.0782 8.80338 18.3571 6.77163 21.6858 6.77163H24.4172C24.7666 6.77163 25.05 7.05494 25.05 7.40448V10.2103C25.05 10.5597 24.7668 10.843 24.4175 10.8432L22.7413 10.844C20.9311 10.844 20.5805 11.7042 20.5805 12.9665V15.7501H24.5582C24.9372 15.7501 25.2313 16.0811 25.1866 16.4575L24.7922 19.7851C24.7545 20.1035 24.4844 20.3434 24.1638 20.3434H20.5983L20.5805 30.6667H26.7734C28.9234 30.6667 30.6662 28.9239 30.6662 26.774V5.67067C30.6662 3.52069 28.9233 1.77783 26.7733 1.77783Z" fill="#475993"/>
</svg>
