<svg width="32" height="32" viewBox="0 0 32 32" fill="none" xmlns="http://www.w3.org/2000/svg">
<path d="M21.8456 2.22217H10.5489C5.95778 2.22217 2.22266 5.90468 2.22266 10.4311V21.5688C2.22266 26.0952 5.95778 29.7777 10.5489 29.7777H21.8456C26.4367 29.7777 30.1719 26.0952 30.1719 21.5688V10.4311C30.1718 5.90468 26.4367 2.22217 21.8456 2.22217ZM27.3602 21.5688C27.3602 24.5714 24.8912 27.0056 21.8456 27.0056H10.5489C7.50331 27.0056 5.03435 24.5714 5.03435 21.5688V10.4311C5.03435 7.4284 7.50331 4.99426 10.5489 4.99426H21.8456C24.8912 4.99426 27.3602 7.4284 27.3602 10.4311V21.5688Z" fill="url(#paint0_linear_45_1596)"/>
<path d="M16.1974 8.87305C12.2115 8.87305 8.96875 12.0701 8.96875 15.9998C8.96875 19.9295 12.2115 23.1267 16.1974 23.1267C20.1833 23.1267 23.4261 19.9296 23.4261 15.9998C23.4261 12.0701 20.1833 8.87305 16.1974 8.87305ZM16.1974 20.3547C13.758 20.3547 11.7804 18.405 11.7804 15.9999C11.7804 13.5948 13.758 11.6451 16.1974 11.6451C18.6369 11.6451 20.6144 13.5948 20.6144 15.9999C20.6144 18.4049 18.6368 20.3547 16.1974 20.3547Z" fill="url(#paint1_linear_45_1596)"/>
<path d="M23.4401 10.6344C24.3968 10.6344 25.1723 9.86977 25.1723 8.92661C25.1723 7.98345 24.3968 7.21887 23.4401 7.21887C22.4835 7.21887 21.708 7.98345 21.708 8.92661C21.708 9.86977 22.4835 10.6344 23.4401 10.6344Z" fill="url(#paint2_linear_45_1596)"/>
<defs>
<linearGradient id="paint0_linear_45_1596" x1="16.1973" y1="29.6975" x2="16.1973" y2="2.4362" gradientUnits="userSpaceOnUse">
<stop stop-color="#E09B3D"/>
<stop offset="0.3" stop-color="#C74C4D"/>
<stop offset="0.6" stop-color="#C21975"/>
<stop offset="1" stop-color="#7024C4"/>
</linearGradient>
<linearGradient id="paint1_linear_45_1596" x1="16.1974" y1="29.6975" x2="16.1974" y2="2.43615" gradientUnits="userSpaceOnUse">
<stop stop-color="#E09B3D"/>
<stop offset="0.3" stop-color="#C74C4D"/>
<stop offset="0.6" stop-color="#C21975"/>
<stop offset="1" stop-color="#7024C4"/>
</linearGradient>
<linearGradient id="paint2_linear_45_1596" x1="23.4401" y1="29.6975" x2="23.4401" y2="2.4362" gradientUnits="userSpaceOnUse">
<stop stop-color="#E09B3D"/>
<stop offset="0.3" stop-color="#C74C4D"/>
<stop offset="0.6" stop-color="#C21975"/>
<stop offset="1" stop-color="#7024C4"/>
</linearGradient>
</defs>
</svg>
