<svg width="0" height="0" xmlns="http://www.w3.org/2000/svg">
  <style>
      g:not(:target) {
          display: none;
      }
  </style>
  <g fill="none" viewBox="0 0 24 24" id="facebook">
    <path fill-rule="evenodd" clip-rule="evenodd" d="M12 0C5.373 0 0 5.373 0 12s5.373 12 12 12 12-5.373 12-12S18.627 0 12 0zm1.25 12.527v6.529h-2.7v-6.529H9.2v-2.25h1.35v-1.35C10.55 7.09 11.312 6 13.477 6h1.802v2.25h-1.127c-.842 0-.898.314-.898.901l-.003 1.126h2.04l-.238 2.25h-1.802z" fill="#D1E3FF"></path>
  </g>
  <g fill="none" viewBox="0 0 20 20" id="link">
    <path d="M18.713 5.165L18.617 5c-1.732-2.986-4.961-5-8.654-5C6.269 0 3.04 2.014 1.308 5l-.095.165A9.928 9.928 0 000 9.167v1.666a9.924 9.924 0 001.213 4.001l.095.166c1.732 2.986 4.961 5 8.655 5 3.693 0 6.922-2.014 8.654-5l.096-.166a9.923 9.923 0 001.212-4V9.166a9.924 9.924 0 00-1.212-4.002zm-3.768 4.002a19.857 19.857 0 00-.248-2.5h2.898c.342.779.57 1.618.658 2.5h-3.308zm-4.982 9.166c-.943 0-1.949-1.283-2.607-3.333h5.213c-.658 2.05-1.665 3.333-2.606 3.333zm-3.03-5a17.515 17.515 0 01-.285-2.5h6.629a17.52 17.52 0 01-.285 2.5H6.933zm-.285-4.166c.039-.889.138-1.728.285-2.5h6.06c.146.772.245 1.611.284 2.5H6.648zm3.315-7.5c.942 0 1.948 1.284 2.606 3.333H7.356c.658-2.05 1.664-3.333 2.607-3.333zM16.613 5h-2.28c-.28-1.017-.648-1.912-1.084-2.655A8.375 8.375 0 0116.613 5zM6.676 2.345C6.24 3.088 5.873 3.983 5.591 5h-2.28a8.374 8.374 0 013.365-2.655zM2.33 6.667h2.897c-.13.787-.215 1.624-.247 2.5H1.67a8.246 8.246 0 01.659-2.5zm2.65 4.166c.032.876.117 1.713.247 2.5H2.33a8.26 8.26 0 01-.658-2.5H4.98zM3.312 15h2.28c.28 1.017.648 1.912 1.084 2.655A8.376 8.376 0 013.312 15zm9.937 2.655c.436-.743.803-1.638 1.084-2.655h2.28a8.37 8.37 0 01-3.364 2.655zm4.346-4.322h-2.897c.13-.787.215-1.624.248-2.5h3.308a8.272 8.272 0 01-.659 2.5z" fill="#D1E3FF"></path>
  </g>
  <g fill="none" viewBox="0 0 24 24" id="telegram">
    <path fill-rule="evenodd" clip-rule="evenodd" d="M0 12c0 6.627 5.373 12 12 12s12-5.373 12-12S18.627 0 12 0 0 5.373 0 12zm9.8 5.5l.204-3.059 5.565-5.021c.244-.217-.054-.323-.378-.126l-6.867 4.332-2.967-.926c-.64-.196-.645-.636.144-.952l11.56-4.458c.527-.24 1.037.127.835.935l-1.968 9.277c-.138.659-.536.816-1.088.512l-2.999-2.215L10.4 17.2l-.014.013c-.16.157-.294.287-.586.287z" fill="#D1E3FF"></path>
  </g>
  <g fill="none" viewBox="0 0 24 24" id="twitter">
    <path fill-rule="evenodd" clip-rule="evenodd" d="M12 0C5.373 0 0 5.373 0 12s5.373 12 12 12 12-5.373 12-12S18.627 0 12 0zm-.334 10.169l-.025-.415c-.076-1.076.587-2.06 1.636-2.44.387-.136 1.041-.153 1.47-.035.167.051.486.22.713.373l.411.28.453-.144c.252-.076.588-.204.739-.288.143-.077.269-.119.269-.094 0 .145-.311.636-.571.907-.353.382-.252.415.461.161.428-.144.437-.144.353.017-.05.085-.31.382-.588.653-.47.466-.495.517-.495.906 0 .602-.285 1.856-.57 2.543-.53 1.288-1.663 2.618-2.796 3.287-1.595.941-3.718 1.178-5.506.628-.596-.187-1.62-.661-1.62-.746 0-.026.31-.06.688-.068a4.726 4.726 0 002.25-.627l.453-.271-.52-.178c-.739-.254-1.402-.839-1.57-1.39-.05-.178-.034-.186.437-.186l.486-.009-.411-.195c-.487-.245-.932-.66-1.15-1.084-.16-.305-.36-1.076-.302-1.136.017-.025.193.026.394.093.58.212.655.161.32-.194-.63-.645-.823-1.602-.521-2.509l.143-.407.554.551c1.133 1.11 2.467 1.771 3.995 1.966l.42.051z" fill="#D1E3FF"></path>
  </g>
</svg>