<svg width="32" height="32" viewBox="0 0 32 32" fill="none" xmlns="http://www.w3.org/2000/svg">
<path d="M31.1109 6.84108C29.999 7.32455 28.8016 7.64685 27.5492 7.79607C28.8322 7.04402 29.8096 5.85625 30.2739 4.44765C29.0765 5.13405 27.7508 5.64138 26.3396 5.90997C25.2094 4.73415 23.5966 4 21.8127 4C18.3854 4 15.6118 6.70977 15.6118 10.0582C15.6118 10.5357 15.6668 10.9953 15.7707 11.437C10.6206 11.1863 6.05095 8.77493 2.99024 5.11017C2.45874 6.00547 2.15328 7.04402 2.15328 8.15419C2.15328 10.2552 3.24682 12.1114 4.90853 13.1977C3.8944 13.1679 2.93525 12.8933 2.09829 12.4397C2.09829 12.4636 2.09829 12.4874 2.09829 12.5173C2.09829 15.4539 4.23651 17.901 7.07118 18.4561C6.5519 18.5934 6.00207 18.671 5.44003 18.671C5.04293 18.671 4.65194 18.6352 4.27317 18.5635C5.06126 20.9689 7.35221 22.7237 10.0647 22.7715C7.9448 24.3949 5.26897 25.3619 2.3671 25.3619C1.86614 25.3619 1.3713 25.332 0.888672 25.2783C3.6317 26.9973 6.89402 28 10.3946 28C21.8005 28 28.038 18.7724 28.038 10.7625C28.038 10.4999 28.0319 10.2373 28.0196 9.9806C29.2293 9.12111 30.28 8.05272 31.1109 6.84108Z" fill="#5FA9DD"/>
</svg>
