<svg width="66" height="66" viewBox="0 0 66 66" fill="none" xmlns="http://www.w3.org/2000/svg">
<rect width="65.479" height="65.479" rx="24" fill="white"/>
<path d="M48.7854 25.663C48.7854 26.0211 48.7854 26.3792 48.7854 26.6861C48.7854 37.2753 40.7028 49.5014 25.9701 49.5014C21.4172 49.5014 17.2225 48.1714 13.6416 45.9205C14.2555 45.9717 14.9205 46.0228 15.5344 46.0228C19.2687 46.0228 22.7473 44.744 25.5097 42.5954C21.9799 42.5443 19.0129 40.1911 18.041 37.0195C18.5525 37.1218 19.0129 37.173 19.5756 37.173C20.2918 37.173 21.008 37.0706 21.673 36.866C17.9898 36.1498 15.2274 32.9271 15.2274 29.0392C15.2274 28.9881 15.2274 28.9881 15.2274 28.9369C16.3017 29.5508 17.5294 29.9089 18.8595 29.96C16.7109 28.5277 15.2786 26.0722 15.2786 23.2587C15.2786 21.7752 15.6878 20.394 16.3528 19.2174C20.2918 24.0772 26.2258 27.2488 32.876 27.6069C32.7226 27.0442 32.6714 26.3792 32.6714 25.7653C32.6714 21.3148 36.2523 17.7339 40.7028 17.7339C43.0048 17.7339 45.1022 18.7058 46.5346 20.2405C48.3762 19.8824 50.0643 19.2174 51.6501 18.2966C51.0362 20.1893 49.7573 21.724 48.1204 22.7471C49.7573 22.5425 51.292 22.1333 52.7244 21.4682C51.7013 23.1052 50.3712 24.5376 48.7854 25.663Z" fill="#316CCC"/>
</svg>
