<svg width="40" height="40" viewBox="0 0 40 40" fill="none" xmlns="http://www.w3.org/2000/svg">
<path d="M20 0C31.0457 0 40 8.9543 40 20C40 31.0457 31.0457 40 20 40C8.9543 40 0 31.0457 0 20C0 8.9543 8.9543 0 20 0ZM26.2119 25.5551C24.6836 27.2627 22.468 28.3333 20.0001 28.3333C17.5322 28.3333 15.3166 27.2627 13.7883 25.5551C13.1744 24.8693 12.1208 24.8109 11.4349 25.4248C10.749 26.0387 10.6906 27.0923 11.3045 27.7783C13.4384 30.1623 16.5447 31.6667 20.0001 31.6667C23.4555 31.6667 26.5618 30.1623 28.6957 27.7783C29.3097 27.0923 29.2513 26.0387 28.5653 25.4248C27.8793 24.8109 26.8257 24.8693 26.2119 25.5551ZM14.1668 14.1667C12.7861 14.1667 11.6668 15.286 11.6668 16.6667C11.6668 18.0474 12.7861 19.1667 14.1668 19.1667C15.5475 19.1667 16.6668 18.0474 16.6668 16.6667C16.6668 15.286 15.5475 14.1667 14.1668 14.1667ZM25.8334 14.1667C24.4527 14.1667 23.3334 15.286 23.3334 16.6667C23.3334 18.0474 24.4527 19.1667 25.8334 19.1667C27.214 19.1667 28.3333 18.0474 28.3333 16.6667C28.3333 15.286 27.214 14.1667 25.8334 14.1667Z" fill="#EAEAEA"/>
</svg>
