<svg width="16" height="16" viewBox="0 0 16 16" fill="none" xmlns="http://www.w3.org/2000/svg">
<path d="M11.3349 2.06526L11.4114 2.21783L11.9878 3.75081C12.0331 3.87153 12.1284 3.96679 12.2491 4.01208L13.7292 4.56735C14.3787 4.81102 14.7277 5.50506 14.5546 6.16172L14.513 6.2924L13.8244 7.81523C13.7711 7.93262 13.7711 8.06733 13.8244 8.18472L14.4783 9.62393C14.7653 10.2555 14.5213 10.9931 13.9346 11.335L13.7821 11.4114L12.2491 11.9879C12.1284 12.0332 12.0331 12.1284 11.9878 12.2491L11.4325 13.7292C11.1889 14.3787 10.4948 14.7277 9.83817 14.5547L9.70748 14.513L8.18466 13.8245C8.06727 13.7711 7.93256 13.7711 7.81517 13.8245L6.37596 14.4784C5.74439 14.7654 5.00683 14.5214 4.66489 13.9347L4.58847 13.7821L4.01202 12.2491C3.96672 12.1284 3.87147 12.0332 3.75075 11.9879L2.27067 11.4326C1.62117 11.1889 1.27215 10.4949 1.44522 9.83823L1.48686 9.70755L2.17543 8.18472C2.22877 8.06733 2.22877 7.93262 2.17543 7.81523L1.5215 6.37602C1.23453 5.74445 1.47849 5.0069 2.0652 4.66495L2.21776 4.58853L3.75075 4.01208C3.87147 3.96679 3.96672 3.87153 4.01202 3.75081L4.56729 2.27073C4.81096 1.62123 5.505 1.27221 6.16165 1.44528L6.29234 1.48692L7.81517 2.17549C7.93256 2.22883 8.06727 2.22883 8.18466 2.17549L9.62387 1.52156C10.2554 1.23459 10.993 1.47855 11.3349 2.06526ZM10.1638 5.70588L6.97816 9.34663L5.81571 8.18418C5.6413 8.00977 5.35853 8.00977 5.18412 8.18418C5.00971 8.35859 5.00971 8.64136 5.18412 8.81577L6.68412 10.3158C6.86679 10.4984 7.16589 10.4885 7.33602 10.2941L10.836 6.29406C10.9984 6.10844 10.9796 5.82629 10.794 5.66387C10.6084 5.50145 10.3262 5.52026 10.1638 5.70588Z" fill="#6FCF97"/>
</svg>
