<svg width="40" height="40" viewBox="0 0 40 40" fill="none" xmlns="http://www.w3.org/2000/svg">
<path d="M20 0C8.9543 0 0 8.9543 0 20C0 31.0457 8.9543 40 20 40C31.0457 40 40 31.0457 40 20L39.3269 14.8077C36.9841 6.06402 29.0521 0 20 0ZM20 10.0962C22.4906 12.4217 25.795 13.5665 29.1827 14.375C29.0219 21.7313 25.7934 27.8838 20 29.9038C16.9826 28.9272 14.7131 26.8345 13.1731 24.0385C11.6727 21.3146 10.8971 17.9133 10.8173 14.375C14.3786 13.8338 17.5564 12.5552 20 10.0962ZM24.0865 16.6827L18.5096 21.6346L15.9135 19.0385L14.8558 20.1442L18.4135 23.7019L25.1442 17.8846L24.0865 16.6827Z" fill="#EAEAEA"/>
</svg>
