<svg width="47" height="50" viewBox="0 0 47 50" fill="none" xmlns="http://www.w3.org/2000/svg">
<path fill-rule="evenodd" clip-rule="evenodd" d="M24.0116 11C24.0116 11 28.0814 14.8398 36.0105 15C36.046 19.036 36.0106 23.0859 35.0106 27C33.4574 33.0589 29.0116 35.2569 24.0116 37C19.0116 35.2569 14.5658 33.0589 13.0126 27C12.0031 23.0859 11.9772 19.036 12.0127 15C19.9417 14.8398 24.0116 11 24.0116 11ZM24.0117 12C24.0117 12 27.7403 14.8508 35.0107 15C35.0438 18.7264 34.9114 23.3868 34.0108 27C32.5761 32.5944 28.5948 34.3896 24.0117 36C19.4192 34.3896 15.4308 32.5944 14.0126 27C13.0932 23.3868 12.9796 18.7264 13.0127 15C20.2808 14.8508 24.0117 12 24.0117 12Z" fill="#002C73" fill-opacity="0.5"/>
<path d="M21.0117 24V22C21.0307 21.358 21.574 20.4471 22.0117 20C22.4494 19.5529 23.4021 19 24.0117 19C24.6213 19 24.574 19.5529 25.0117 20C25.4494 20.4471 25.9927 21.358 26.0117 22V24H27.0117V22C26.9884 21.0382 26.6656 19.6716 26.0117 19C25.3579 18.3284 24.9248 18 24.0117 18C23.0986 18 21.6656 18.3284 21.0117 19C20.3579 19.6716 20.035 21.0382 20.0117 22V24H21.0117Z" fill="#002C73"/>
<path fill-rule="evenodd" clip-rule="evenodd" d="M24.0078 21.9996H29.0078V28.9996H24.0078V27.9996H25.0078C25.0203 27.9982 25.0143 27.7344 25.0085 27.4782C25.0031 27.2388 24.9978 27.006 25.0078 26.9996L24.0078 24.9996C24.0861 24.9675 24.2582 24.9953 24.4386 25.0244C24.6869 25.0644 24.951 25.107 25.0078 24.9996C25.1059 24.814 25.0426 24.2095 25.0078 23.9996C24.9632 23.959 24.8757 23.8561 24.7692 23.731C24.5134 23.4306 24.1485 23.0019 24.0078 22.9996V21.9996ZM23.0069 27.9996H24.0069V28.9996H19.0069V21.9996H24.0069V22.9996C23.8292 23.0326 23.2 23.7726 23.0292 23.9734C23.0206 23.9835 23.0131 23.9923 23.0069 23.9996C23.0043 24.0329 22.9998 24.0775 22.9945 24.1297C22.9676 24.3956 22.9209 24.8566 23.0069 24.9996C23.067 25.0995 23.3373 25.0595 23.5873 25.0225C23.7651 24.9962 23.9326 24.9714 24.0069 24.9996L23.0069 26.9996C23.0169 27.006 23.0117 27.2388 23.0063 27.4782C23.0005 27.7344 22.9945 27.9982 23.0069 27.9996Z" fill="#002C73"/>
<path fill-rule="evenodd" clip-rule="evenodd" d="M23.0095 8C23.0095 8 28.0968 12.7967 38.0081 13C38.0126 13.5184 38.0187 14.0345 38.0248 14.5488C38.0792 19.1168 38.1317 23.5348 37.0082 28C35.0667 35.6901 29.2594 38.7877 23.0095 41C16.7595 38.7877 10.9522 35.6901 9.01071 28C7.88291 23.5597 7.93695 19.1662 7.99279 14.6253C7.99943 14.0857 8.00609 13.5441 8.0108 13C17.9221 12.7967 23.0095 8 23.0095 8ZM23.0131 9C23.0131 9 27.7585 12.8134 37.0119 13C37.0138 13.2151 37.0159 13.4305 37.018 13.6463C37.0609 18.103 37.1052 22.692 36.012 27C34.186 33.993 28.8461 36.987 23.0131 39C17.1681 36.987 11.8192 33.993 10.0143 27C8.91564 22.7596 8.96144 18.247 9.006 13.8563C9.00891 13.5703 9.0118 13.2848 9.01438 13C18.2647 12.8134 23.0131 9 23.0131 9Z" fill="#002C73" fill-opacity="0.35"/>
<path fill-rule="evenodd" clip-rule="evenodd" d="M23.0106 4C23.0106 4 29.4546 9.74738 42.0089 10C42.0651 16.3645 41.5924 22.8278 40.0091 29C37.5499 38.5543 30.9273 42.2513 23.0106 45C15.094 42.2513 8.47135 38.5543 6.01214 29C4.41384 22.8278 3.95617 16.3645 4.01232 10C16.5667 9.74738 23.0106 4 23.0106 4ZM23.0093 6C23.0093 6 29.441 10.7637 41.0077 11C41.0603 16.9001 40.4406 23.279 39.0079 29C36.7254 37.8578 31.3004 41.4501 24.0092 44C16.703 41.4501 10.2668 37.8578 8.01067 29C6.54792 23.279 5.95821 16.9001 6.01085 11C17.5738 10.7637 23.0093 6 23.0093 6Z" fill="#002C73" fill-opacity="0.2"/>
<path fill-rule="evenodd" clip-rule="evenodd" d="M23.011 0C23.011 0 30.8115 6.69193 46.0089 7C46.0769 14.7616 45.9258 22.4729 44.0091 30C41.0321 41.6516 32.5943 46.648 23.011 50C13.4277 46.648 4.9898 41.6516 2.01286 30C0.0780753 22.4729 -0.0549256 14.7616 0.0130411 7C15.2104 6.69193 23.011 0 23.011 0ZM23.0095 2C23.0095 2 30.1276 8.71394 44.0076 9C44.0708 16.1422 43.727 23.0746 42.0078 30C39.2688 40.7226 31.759 44.9133 23.0095 48C14.242 44.9133 6.71864 40.7226 4.01123 30C2.25593 23.0746 1.94824 16.1422 2.01141 9C15.8869 8.71394 23.0095 2 23.0095 2Z" fill="#002C73" fill-opacity="0.1"/>
</svg>
