<svg width="100" height="16" viewBox="0 0 100 16" fill="none" xmlns="http://www.w3.org/2000/svg">
<path d="M29 12.266L24.2 16L25.8 10.134L21 6.4L26.866 5.866L29 0L31.134 5.866L37 6.4L32.2 10.134L33.8 16L29 12.266Z" fill="#EDAE0E"/>
<path d="M50 12.266L45.2 16L46.8 10.134L42 6.4L47.866 5.866L50 0L52.134 5.866L58 6.4L53.2 10.134L54.8 16L50 12.266Z" fill="#EDAE0E"/>
<path d="M71 12.266L66.2 16L67.8 10.134L63 6.4L68.866 5.866L71 0L73.134 5.866L79 6.4L74.2 10.134L75.8 16L71 12.266Z" fill="#EDAE0E"/>
<path d="M92 12.266L87.2 16L88.8 10.134L84 6.4L89.866 5.866L92 0L94.134 5.866L100 6.4L95.2 10.134L96.8 16L92 12.266Z" fill="#E2E2E2"/>
<path d="M92 12.266L87.2 16L88.8 10.134L84 6.4L89.866 5.866L92 0L94.134 5.866L100 6.4L95.2 10.134L96.8 16L92 12.266Z" fill="#EDAE0E"/>
<path d="M8 12.266L3.2 16L4.8 10.134L0 6.4L5.866 5.866L8 0L10.134 5.866L16 6.4L11.2 10.134L12.8 16L8 12.266Z" fill="#EDAE0E"/>
</svg>
