<svg width="14" height="23" viewBox="0 0 14 23" fill="none" xmlns="http://www.w3.org/2000/svg">
<path d="M13.9077 10.8226C13.807 10.5122 13.5522 10.2802 13.2387 10.2131L8.92382 9.2908L10.2255 1.06515C10.29 0.657427 10.0802 0.255803 9.7124 0.0837791C9.34432 -0.0885522 8.90973 0.0109322 8.64955 0.327422L0.25717 10.5207C0.0662568 10.7527 -0.000302703 11.0665 0.0794487 11.3586C0.159157 11.6506 0.375294 11.8838 0.656443 11.9812L4.84155 13.4318L3.15379 21.3547C3.06686 21.7634 3.26108 22.1803 3.62645 22.3692C3.75562 22.4359 3.89471 22.468 4.0323 22.468C4.28406 22.468 4.53165 22.36 4.70671 22.1573L13.7285 11.7197C13.9404 11.4745 14.0087 11.133 13.9077 10.8226ZM5.64602 18.2949L6.76972 13.0207C6.86713 12.564 6.61326 12.1058 6.18013 11.9558L2.48058 10.6735L7.93114 4.05394L7.01185 9.86292C6.93511 10.3472 7.24504 10.8076 7.7153 10.9083L11.3579 11.6867L5.64602 18.2949Z" fill="white"/>
</svg>
