<svg width="640" heght="391" fill="none" viewBox="0 0 640 391" xmlns="http://www.w3.org/2000/svg" class="w-full h-auto"><rect x=".3" y=".3" width="639.5" height="390.3" rx="4.8" fill="#fff"></rect> <path d="M5 .3h630c2.6 0 4.8 2 4.8 4.7v29.8H.3V5C.3 2.4 2.3.2 5 .2z" fill="#DEE1E7"></path> <path fill="#fff" d="M0 18.5h640v16H0z"></path> <path d="M10 24.7a.5.5 0 10-.6-.7l-3 2.6a.5.5 0 000 .8l3 2.7a.5.5 0 00.7-.8l-2.2-1.8h4.5a.5.5 0 100-1H8l2-1.8zM23.6 29.3a.5.5 0 10.7.8l3.1-2.7a.5.5 0 000-.8L24.3 24a.5.5 0 00-.7.7l2.2 1.9h-4.4a.5.5 0 100 1h4.3l-2 1.7z" fill="#BABCBE"></path> <path d="M38.2 26.6h3v-3.1l-1 1c-.5-.4-1.2-.6-2-.6A3.2 3.2 0 0035 27a3.2 3.2 0 006.3.9l-1-.3c-.2 1-1 1.6-2 1.6-1.3 0-2.3-1-2.3-2.2 0-1.2 1-2.1 2.2-2.1.5 0 1 .1 1.3.4l-1.3 1.3z" fill="#C4C4C4"></path> <path fill-rule="evenodd" clip-rule="evenodd" d="M614.7 20.8H54.6a6.2 6.2 0 100 12.4h560.1a6.2 6.2 0 100-12.4z" fill="#F1F3F4"></path> <path fill-rule="evenodd" clip-rule="evenodd" d="M56.4 24c-.3 0-.8.2-1 .5-.4.4-.6 1-.6 1.6h1c0-.5.1-.7.2-.8l.4-.2v-1zm0 0c.3 0 .7.2 1 .5.4.4.6 1 .6 1.6h-1c0-.5-.2-.7-.3-.8a.5.5 0 00-.3-.2v-1z" fill="#626365"></path> <rect x="54.6" y="26.1" width="3.6" height="3.1" rx="1" fill="#626365"></rect> <g fill="#5F6369"><circle cx="629.6" cy="25" r=".7"></circle> <circle cx="629.6" cy="27.2" r=".7"></circle> <circle cx="629.6" cy="29.5" r=".7"></circle></g> <path d="M34.6 11.5a8 8 0 018-8h90.5a8 8 0 018 8V17c0 1.4 1.1 2.6 2.5 2.6H32.2c1.3 0 2.4-1.2 2.4-2.6v-5.4zM32.2 19.5H32h.2zM143.6 19.5h0z" fill="#fff"></path> <rect x="39.8" y="8.1" width="7" height="7.5" rx="2" fill="#316CCC"></rect> <path d="M136.3 9.3l-3.9 4.1M132.4 9.3l4.1 4.3" stroke="#3C4043" stroke-width=".5" stroke-linejoin="round"></path> <path d="M28.3 9.7a2.2 2.2 0 11-4.3 0 2.2 2.2 0 014.3 0z" fill="#00D641" stroke="#12B829"></path> <path d="M19.5 9.7a2.2 2.2 0 11-4.3 0 2.2 2.2 0 014.3 0z" fill="#FFBD00" stroke="#E79F13"></path> <path d="M10.6 9.7a2.2 2.2 0 11-4.3 0 2.2 2.2 0 014.3 0z" fill="#FF3B47" stroke="#EF1320"></path> <path d="M151.5 7.5v7.1M147.8 11h7.2" stroke="#3C4043" stroke-linejoin="round"></path> <path d="M5 .3h630c2.6 0 4.8 2 4.8 4.7v29.8H.3V5C.3 2.4 2.3.2 5 .2z" stroke="#A0A0A0" stroke-width=".5"></path> <rect x=".3" y=".3" width="639.5" height="390.3" rx="4.8" stroke="#A0A0A0" stroke-width=".5"></rect> <text x="62" y="29" style="font: 7px sans-serif; fill: black;">
        example.com
    </text> <text x="52" y="15" style="font: 7px sans-serif; fill: black;">
        Danger Site
    </text>
</svg>