<svg width="22" height="19" viewBox="0 0 22 19" fill="none" xmlns="http://www.w3.org/2000/svg">
<path d="M11.392 0.749956L20.918 17.25C21.0057 17.402 21.0519 17.5744 21.0519 17.75C21.052 17.9255 21.0057 18.0979 20.918 18.2499C20.8302 18.402 20.704 18.5282 20.552 18.616C20.4 18.7037 20.2275 18.75 20.052 18.75H0.999975C0.82444 18.75 0.651999 18.7037 0.499984 18.616C0.347968 18.5282 0.221734 18.402 0.133968 18.2499C0.0462029 18.0979 -1.11483e-06 17.9255 0 17.75C1.11487e-06 17.5744 0.0462074 17.402 0.133975 17.25L9.65997 0.749956C9.74775 0.597949 9.87398 0.471722 10.026 0.383962C10.178 0.296202 10.3504 0.25 10.526 0.25C10.7015 0.25 10.8739 0.296202 11.026 0.383962C11.178 0.471722 11.3042 0.597949 11.392 0.749956ZM9.52597 13.75V15.75H11.526V13.75H9.52597ZM9.52597 6.74996V11.75H11.526V6.74996H9.52597Z" fill="#FA3F3F"/>
</svg>
