<svg width="1440" height="797" viewBox="0 0 1440 797" fill="none" xmlns="http://www.w3.org/2000/svg">
<g opacity="0.1">
<path fill-rule="evenodd" clip-rule="evenodd" d="M728.829 175.697C728.829 175.697 792.837 231.217 917.653 233.74C918.212 297.321 914.937 363.614 899.195 425.274C874.745 520.72 807.611 557.822 728.903 585.28C650.195 557.822 583.061 520.72 558.611 425.274C542.72 363.614 539.446 297.321 540.004 233.74C664.82 231.217 728.829 175.697 728.829 175.697ZM728.828 192.722C728.828 192.722 787.478 243.609 901.949 245.944C902.47 304.252 899.456 365.007 885.277 421.545C862.688 509.081 801.136 543.056 728.977 568.255C656.67 543.056 595.006 509.081 572.677 421.545C558.201 365.007 555.187 304.252 555.708 245.944C670.141 243.609 728.828 192.722 728.828 192.722Z" fill="#316CCC"/>
<path d="M688.824 374.951V337.285C689.134 327.229 693.298 317.691 700.435 310.689C707.572 303.687 717.122 299.771 727.061 299.771C737.001 299.771 746.55 303.687 753.687 310.689C760.825 317.691 764.989 327.229 765.299 337.285V374.951H784.129V337.285C783.749 322.221 777.57 307.903 766.909 297.385C756.248 286.867 741.949 280.98 727.061 280.98C712.173 280.98 697.875 286.867 687.214 297.385C676.553 307.903 670.373 322.221 669.993 337.285V374.951H688.824Z" fill="white"/>
<path fill-rule="evenodd" clip-rule="evenodd" d="M717.665 431.828H726.559L726.708 431.752V431.865H733.198C733.577 431.825 733.943 431.702 734.269 431.503C734.596 431.305 734.875 431.036 735.088 430.717C735.301 430.397 735.442 430.034 735.501 429.653C735.561 429.273 735.537 428.883 735.431 428.513L728.993 396.873C731.916 395.74 734.358 393.611 735.899 390.854C737.44 388.096 737.985 384.882 737.439 381.762C736.893 378.642 735.29 375.813 732.907 373.759C730.524 371.705 727.508 370.555 724.379 370.507V370.462C724.299 370.476 724.219 370.491 724.14 370.507C721.195 371.022 718.501 372.511 716.482 374.742C714.462 376.972 713.231 379.817 712.98 382.832C712.729 385.846 713.472 388.86 715.095 391.401C716.717 393.942 719.126 395.866 721.944 396.873L715.432 428.475C715.326 428.846 715.303 429.235 715.362 429.616C715.421 429.997 715.562 430.359 715.775 430.679C715.988 430.999 716.267 431.267 716.594 431.466C716.92 431.664 717.286 431.788 717.665 431.828ZM726.819 350.054V349.979H651.423C650.512 349.979 649.637 350.342 648.989 350.991C648.341 351.64 647.972 352.521 647.962 353.444V450.51C647.972 451.433 648.341 452.314 648.989 452.963C649.637 453.612 650.512 453.975 651.423 453.975H724.379V454.088H799.477C800.388 454.088 801.263 453.725 801.911 453.076C802.559 452.427 802.928 451.546 802.938 450.623V353.519C802.928 352.597 802.559 351.715 801.911 351.067C801.263 350.418 800.388 350.054 799.477 350.054H726.819Z" fill="white"/>
<path fill-rule="evenodd" clip-rule="evenodd" d="M727.004 122.455C727.004 122.455 808.271 192.946 966.744 196.15C967.452 276.875 963.295 361.043 943.308 439.329C912.266 560.512 827.029 607.618 727.098 642.48C627.167 607.618 541.93 560.512 510.888 439.329C490.713 361.043 486.555 276.875 487.264 196.15C645.736 192.946 727.004 122.455 727.004 122.455ZM727.004 144.071C727.004 144.071 801.468 208.68 946.805 211.645C947.466 285.674 943.639 362.813 925.638 434.595C896.958 545.735 818.808 588.871 727.193 620.864C635.389 588.871 557.097 545.735 528.748 434.595C510.368 362.813 506.541 285.674 507.203 211.645C652.493 208.68 727.004 144.071 727.004 144.071Z" fill="#316CCC"/>
<path fill-rule="evenodd" clip-rule="evenodd" d="M723.283 59.569C723.283 59.569 825.467 148.202 1024.73 152.231C1025.62 253.732 1020.39 359.563 995.258 457.997C956.227 610.37 849.052 669.599 723.401 713.434C597.751 669.599 490.577 610.37 451.545 457.997C426.177 359.563 420.949 253.732 421.84 152.231C621.099 148.202 723.283 59.569 723.283 59.569ZM723.283 86.7485C723.283 86.7485 816.912 167.985 999.655 171.714C1000.49 264.796 995.675 361.788 973.04 452.045C936.979 591.789 838.715 646.028 723.521 686.255C608.089 646.028 509.647 591.789 474.002 452.045C450.892 361.788 446.08 264.796 446.911 171.714C629.595 167.985 723.283 86.7485 723.283 86.7485Z" fill="#316CCC" fill-opacity="0.2"/>
<path fill-rule="evenodd" clip-rule="evenodd" d="M720.534 0C720.534 0 845.084 108.033 1087.96 112.944C1089.04 236.661 1082.67 365.656 1052.04 485.635C1004.46 671.358 873.832 743.552 720.679 796.982C567.527 743.552 436.894 671.358 389.319 485.635C358.399 365.656 352.027 236.661 353.113 112.944C595.985 108.033 720.534 0 720.534 0ZM720.535 33.1284C720.535 33.1284 834.657 132.146 1057.4 136.691C1058.41 250.147 1052.55 368.368 1024.96 478.38C981.003 648.711 861.233 714.821 720.824 763.854C580.127 714.821 460.139 648.711 416.691 478.38C388.523 368.368 382.657 250.147 383.671 136.691C606.34 132.146 720.535 33.1284 720.535 33.1284Z" fill="#316CCC" fill-opacity="0.1"/>
</g>
<path d="M395.65 99H364V130.65H395.65V99Z" stroke="#FFE1C9" stroke-width="5" stroke-linecap="round" stroke-linejoin="round"/>
<path d="M371.84 622.92C371.84 626.069 370.906 629.147 369.156 631.766C367.407 634.384 364.92 636.424 362.01 637.629C359.1 638.834 355.899 639.148 352.81 638.533C349.722 637.918 346.885 636.401 344.659 634.174C342.433 631.946 340.918 629.109 340.305 626.02C339.692 622.931 340.008 619.73 341.215 616.821C342.421 613.912 344.463 611.426 347.083 609.678C349.702 607.93 352.781 606.998 355.93 607C360.151 607.003 364.197 608.681 367.181 611.666C370.164 614.652 371.84 618.7 371.84 622.92V622.92Z" stroke="#FFE1C9" stroke-width="5" stroke-linecap="round" stroke-linejoin="round"/>
<path d="M1175.84 146.92C1175.84 150.069 1174.91 153.147 1173.16 155.766C1171.41 158.384 1168.92 160.424 1166.01 161.629C1163.1 162.834 1159.9 163.148 1156.81 162.533C1153.72 161.918 1150.89 160.401 1148.66 158.174C1146.43 155.946 1144.92 153.109 1144.3 150.02C1143.69 146.931 1144.01 143.73 1145.21 140.821C1146.42 137.912 1148.46 135.426 1151.08 133.678C1153.7 131.93 1156.78 130.998 1159.93 131C1164.15 131.003 1168.2 132.681 1171.18 135.666C1174.16 138.652 1175.84 142.7 1175.84 146.92V146.92Z" stroke="#316CCC" stroke-opacity="0.3" stroke-width="5" stroke-linecap="round" stroke-linejoin="round"/>
<path d="M86.1 320.27L91.51 300L71.26 305.45L51 310.89L65.84 325.71L80.68 340.54L86.1 320.27Z" stroke="#FFE1C9" stroke-width="5" stroke-linecap="round" stroke-linejoin="round"/>
<path d="M1183.54 467.25C1176.63 467.25 1177.82 455 1169 455" stroke="#B0C1DE" stroke-width="5" stroke-linecap="round" stroke-linejoin="round"/>
<path d="M1212.61 467.25C1205.7 467.25 1206.89 455 1198.07 455" stroke="#B0C1DE" stroke-width="5" stroke-linecap="round" stroke-linejoin="round"/>
<path d="M1183.54 467.25C1190.45 467.25 1189.26 455 1198.07 455" stroke="#B0C1DE" stroke-width="5" stroke-linecap="round" stroke-linejoin="round"/>
<path d="M1212.61 467.25C1219.52 467.25 1218.33 455 1227.14 455" stroke="#B0C1DE" stroke-width="5" stroke-linecap="round" stroke-linejoin="round"/>
<path d="M121.945 164.595C121.945 157.685 134.195 158.875 134.195 150.055" stroke="#B0C1DE" stroke-width="5" stroke-linecap="round" stroke-linejoin="round"/>
<path d="M121.945 193.665C121.945 186.755 134.195 187.945 134.195 179.125" stroke="#B0C1DE" stroke-width="5" stroke-linecap="round" stroke-linejoin="round"/>
<path d="M121.945 164.595C121.945 171.505 134.195 170.315 134.195 179.125" stroke="#B0C1DE" stroke-width="5" stroke-linecap="round" stroke-linejoin="round"/>
<path d="M121.945 193.665C121.945 200.575 134.195 199.385 134.195 208.195" stroke="#B0C1DE" stroke-width="5" stroke-linecap="round" stroke-linejoin="round"/>
<path d="M359.584 430.593C358.532 431.248 357.309 431.576 356.071 431.537C354.832 431.497 353.632 431.092 352.624 430.371C351.616 429.65 350.844 428.647 350.405 427.488C349.967 426.328 349.882 425.065 350.161 423.858C350.44 422.65 351.071 421.552 351.974 420.703C352.877 419.854 354.011 419.291 355.233 419.086C356.456 418.881 357.711 419.043 358.842 419.552C359.972 420.06 360.926 420.892 361.584 421.943C362.022 422.641 362.317 423.42 362.454 424.233C362.59 425.047 362.565 425.879 362.379 426.682C362.193 427.486 361.851 428.245 361.371 428.916C360.891 429.587 360.284 430.157 359.584 430.593V430.593Z" stroke="#B0C1DE" stroke-width="5" stroke-linecap="round" stroke-linejoin="round"/>
<path d="M1304.58 559.593C1303.53 560.248 1302.31 560.576 1301.07 560.537C1299.83 560.497 1298.63 560.092 1297.62 559.371C1296.62 558.65 1295.84 557.647 1295.41 556.488C1294.97 555.328 1294.88 554.065 1295.16 552.858C1295.44 551.65 1296.07 550.552 1296.97 549.703C1297.88 548.854 1299.01 548.291 1300.23 548.086C1301.46 547.881 1302.71 548.043 1303.84 548.552C1304.97 549.06 1305.93 549.892 1306.58 550.943C1307.02 551.641 1307.32 552.42 1307.45 553.233C1307.59 554.047 1307.56 554.879 1307.38 555.682C1307.19 556.486 1306.85 557.245 1306.37 557.916C1305.89 558.587 1305.28 559.157 1304.58 559.593V559.593Z" stroke="#FFE1C9" stroke-width="5" stroke-linecap="round" stroke-linejoin="round"/>
<path d="M1030.25 638.77L1015 624.47" stroke="#B0C1DE" stroke-width="5" stroke-linecap="round" stroke-linejoin="round"/>
<path d="M1015.47 639.25L1029.77 624" stroke="#B0C1DE" stroke-width="5" stroke-linecap="round" stroke-linejoin="round"/>
<path d="M122.25 554.77L107 540.47" stroke="#B0C1DE" stroke-width="5" stroke-linecap="round" stroke-linejoin="round"/>
<path d="M107.47 555.25L121.77 540" stroke="#B0C1DE" stroke-width="5" stroke-linecap="round" stroke-linejoin="round"/>
<path d="M1340.84 194.68C1336.64 194.68 1332.61 193.011 1329.64 190.041C1326.67 187.07 1325 183.041 1325 178.84C1325 174.639 1326.67 170.61 1329.64 167.639C1332.61 164.669 1336.64 163 1340.84 163" stroke="#B0C1DE" stroke-width="5" stroke-linecap="round" stroke-linejoin="round"/>
<path d="M1283.19 326.45L1301.35 315.95L1283.18 305.48L1265 295L1265.02 315.98L1265.03 336.95L1283.19 326.45Z" stroke="#FFE1C9" stroke-width="5" stroke-linecap="round" stroke-linejoin="round"/>
<path d="M1364 623.36L1389.36 598" stroke="#B0C1DE" stroke-width="5" stroke-linecap="round" stroke-linejoin="round"/>
<path d="M559 679H594.87" stroke="#B0C1DE" stroke-width="5" stroke-linecap="round" stroke-linejoin="round"/>
</svg>
