<svg width="50" height="50" fill="red" xmlns="http://www.w3.org/2000/svg" xmlns:xlink="http://www.w3.org/1999/xlink">
    <style type="text/css">
        #icon-shield:target .icon-shield--alert:target{
            fill: #FB4D27 !important;
        }
    </style>
    <!-- FFC34E -->
    <g id="icon-shield" viewBox="0 0 50 50">
        <path opacity=".1" d="M48.47 8.86c-15.5-.3-24.14-6.8-24.14-6.8S15.52 8.57.01 8.87a80 80 0 002.9 22.48C6 42.49 14.54 46.79 24.32 50c9.77-3.21 18.5-7.66 21.54-18.84 1.97-7.21 2.68-14.86 2.6-22.3z" fill="#000"/>
        <path d="M46.78 6.81C31.94 6.51 24.33 0 24.33 0S16.73 6.52 1.9 6.81c-.06 7.47.32 15.25 2.21 22.49C7 40.5 15 44.86 24.34 48.08c9.36-3.22 17.34-7.58 20.24-18.78 1.87-7.24 2.26-15.02 2.2-22.49z" fill="#fff"/>
        <path class="icon-shield--alert" d="M44.91 8.25C31.31 7.97 24.33 2 24.33 2S17.36 7.97 3.76 8.25c-.06 6.84.3 13.97 2.02 20.61 2.65 10.28 9.98 14.26 18.57 17.22 8.58-2.96 15.9-6.94 18.58-17.22 1.68-6.64 2.04-13.77 1.98-20.61z"/>
        <path d="M43.1 9.64c-12.4-.25-18.77-5.7-18.77-5.7v40.2c7.82-2.7 14.49-6.34 16.92-15.7 1.57-6.06 1.9-12.56 1.84-18.8z" fill="#000" fill-opacity=".2"/>
        <path d="M26.17 25.78c0 1.37-.82 2.5-1.83 2.5-1.01 0-1.83-1.13-1.83-2.5 0-1.38.82-2.5 1.83-2.5 1 0 1.83 1.12 1.83 2.5z" fill="#20B8C4"/>
        <path d="M24.41 22.99h-.68c-1.02 0-1.86.83-1.86 1.86v5.03c0 1.02.84 1.85 1.86 1.85h.68c1.03 0 1.86-.83 1.86-1.85v-5.03c0-1.03-.83-1.86-1.86-1.86z" fill="#C0F0FF"/>
        <path opacity=".15" d="M34.13 21.54h-2.15v-1.51a6.78 6.78 0 00-13.57 0v1.51h-2.15a.41.41 0 00-.41.4v11.4a.41.41 0 00.4.41h17.88a.41.41 0 00.41-.4V21.97a.41.41 0 00-.4-.44zm-13.48 0v-1.51a4.54 4.54 0 019.09 0v1.51h-9.09zm5.87 9.2a.31.31 0 01-.27.4h-2.12a.3.3 0 01-.26-.4l.76-3.7a1.61 1.61 0 111.12 0l.77 3.7z" fill="#000"/>
        <path d="M19.58 23.39v-4.42a4.54 4.54 0 019.09 0v4.42h2.24v-4.42a6.78 6.78 0 00-13.57 0v4.42h2.24z" fill="#fff"/>
        <path d="M33 20.47h-8.92v2.4a1.6 1.6 0 01.55 3.1l.77 3.7a.31.31 0 01-.27.4h-1.05v2.61h8.93a.41.41 0 00.4-.4v-11.4a.41.41 0 00-.4-.41z" fill="#200600"/>
        <path d="M24.06 30.07h-1.05a.31.31 0 01-.27-.4l.78-3.7a1.6 1.6 0 01.58-3.12v-2.4h-8.97a.41.41 0 00-.4.42v11.39a.41.41 0 00.4.4h8.95v-2.6h-.02z" fill="#3E0B00"/>
    </g>
</svg>
