<svg width="49" height="58" viewBox="0 0 49 58" fill="none" xmlns="http://www.w3.org/2000/svg">
<path opacity="0.2" d="M14.252 2.03C18.0495 0.960625 22.085 0 24.5 0C26.915 0 30.9505 0.960625 34.748 2.03C38.633 3.1175 42.5495 4.40437 44.8525 5.18375C45.8154 5.51309 46.669 6.11706 47.3154 6.92629C47.9617 7.73552 48.3746 8.71718 48.5065 9.7585C50.5925 25.9876 45.752 38.0154 39.879 45.9723C37.3885 49.3761 34.419 52.3735 31.0695 54.8644C29.9113 55.7263 28.6842 56.4843 27.4015 57.13C26.4215 57.6085 25.368 58 24.5 58C23.632 58 22.582 57.6085 21.5985 57.13C20.3158 56.4843 19.0887 55.7263 17.9305 54.8644C14.5811 52.3734 11.6115 49.376 9.12101 45.9723C3.24802 38.0154 -1.59248 25.9876 0.493519 9.7585C0.625424 8.71718 1.03827 7.73552 1.68463 6.92629C2.33098 6.11706 3.18464 5.51309 4.14752 5.18375C7.49068 4.04843 10.8598 2.99688 14.252 2.03Z" fill="url(#paint0_linear_40_188)"/>
<defs>
<linearGradient id="paint0_linear_40_188" x1="24.5" y1="0" x2="24.5" y2="58" gradientUnits="userSpaceOnUse">
<stop stop-color="white"/>
<stop offset="1" stop-color="white" stop-opacity="0"/>
</linearGradient>
</defs>
</svg>
