        <svg width="640" height="391" viewBox="0 0 640 391" fill="none" xmlns="http://www.w3.org/2000/svg">
            <rect x="0.25" y="0.25" width="639.5" height="390.296" rx="4.75" fill="white"/>
            <path d="M5 0.25H635C637.623 0.25 639.75 2.37665 639.75 5V34.75H0.25V5C0.25 2.37665 2.37665 0.25 5 0.25Z" fill="#DEE1E7"/>
            <rect y="18.5" width="640" height="16" fill="white"/>
            <path d="M10.0895 24.7469C10.2992 24.5675 10.3236 24.2522 10.1439 24.0428C9.96427 23.8333 9.64863 23.809 9.43891 23.9884L6.33212 26.6467C6.22123 26.7415 6.15741 26.8801 6.15741 27.0259C6.15741 27.1717 6.22123 27.3103 6.33212 27.4052L9.43891 30.0634C9.64863 30.2428 9.96427 30.2185 10.1439 30.009C10.3236 29.7996 10.2992 29.4843 10.0895 29.3049L7.94378 27.469H12.371C12.6471 27.469 12.871 27.2454 12.871 26.9696C12.871 26.6938 12.6471 26.4702 12.371 26.4702H8.07543L10.0895 24.7469Z" fill="#BABCBE"/>
            <path d="M23.6414 29.3048C23.4317 29.4843 23.4073 29.7995 23.587 30.009C23.7667 30.2184 24.0823 30.2428 24.292 30.0633L27.3988 27.4051C27.5097 27.3102 27.5735 27.1717 27.5735 27.0258C27.5735 26.88 27.5097 26.7415 27.3988 26.6466L24.292 23.9884C24.0823 23.8089 23.7667 23.8333 23.587 24.0427C23.4073 24.2522 23.4317 24.5674 23.6414 24.7469L25.7872 26.5828L21.3599 26.5828C21.0838 26.5828 20.8599 26.8064 20.8599 27.0822C20.8599 27.358 21.0838 27.5816 21.3599 27.5816L25.6554 27.5816L23.6414 29.3048Z" fill="#BABCBE"/>
            <path d="M38.1692 26.5829H41.276L41.276 23.4816L40.2136 24.5422C39.6656 24.1197 38.9746 23.8683 38.2255 23.8683C36.4577 23.8683 35.0062 25.2719 35.0062 27.0259C35.0062 28.7799 36.4577 30.1835 38.2255 30.1835C39.6774 30.1835 40.9122 29.2391 41.3105 27.9307L40.3538 27.6401C40.0836 28.5278 39.2373 29.1847 38.2255 29.1847C36.9897 29.1847 36.0062 28.2081 36.0062 27.0259C36.0062 25.8437 36.9897 24.8671 38.2255 24.8671C38.6998 24.8671 39.1381 25.0114 39.4977 25.2567L38.1692 26.5829Z" fill="#C4C4C4"/>
            <path fill-rule="evenodd" clip-rule="evenodd" d="M614.702 20.8233H54.5909C51.1592 20.8233 48.3773 23.6003 48.3773 27.0258C48.3773 30.4514 51.1592 33.2284 54.5909 33.2284H614.702C618.133 33.2284 620.915 30.4514 620.915 27.0258C620.915 23.6003 618.133 20.8233 614.702 20.8233Z" fill="#F1F3F4"/>
            <text>yoursite.com</text>
            <path fill-rule="evenodd" clip-rule="evenodd" d="M56.3662 24.0892C56.0579 24.0892 55.6485 24.2126 55.3153 24.547C54.9716 24.8919 54.752 25.4166 54.752 26.1404H55.7611C55.7611 25.6268 55.9115 25.3783 56.0301 25.2592C56.1592 25.1296 56.3045 25.0983 56.3662 25.0983V24.0892ZM56.3662 24.0892C56.6744 24.0892 57.0838 24.2126 57.417 24.547C57.7607 24.8919 57.9803 25.4166 57.9803 26.1404H56.9712C56.9712 25.6268 56.8209 25.3783 56.7022 25.2592C56.5731 25.1296 56.4278 25.0983 56.3662 25.0983V24.0892Z" fill="#626365"/>
            <rect x="54.5909" y="26.1398" width="3.55061" height="3.10126" rx="1.00908" fill="#626365"/>
            <g>
                <ellipse cx="629.57" cy="25.0322" rx="0.665741" ry="0.664557" fill="#5F6369"/>
                <ellipse cx="629.57" cy="27.2474" rx="0.66571" ry="0.664557" fill="#5F6369"/>
                <ellipse cx="629.57" cy="29.4626" rx="0.66571" ry="0.664557" fill="#5F6369"/>
            </g>
            <path d="M34.6186 11.5162C34.6186 7.05785 38.2328 3.4436 42.6912 3.4436H133.065C137.523 3.4436 141.137 7.05785 141.137 11.5162L141.137 16.9084C141.137 18.3435 142.23 19.5069 143.578 19.5069H32.1775C33.5257 19.5069 34.6186 18.3435 34.6186 16.9084L34.6186 11.5162Z" fill="white"/>
            <path d="M32.1775 19.5069H31.9556V19.4963C32.0287 19.5033 32.1027 19.5069 32.1775 19.5069Z" fill="white"/>
            <path d="M143.578 19.5069H143.8V19.4963C143.727 19.5033 143.653 19.5069 143.578 19.5069Z" fill="white"/>
            <text>Chrome.com</text>
            <rect x="114.508" y="6.75073" width="13.3148" height="9.449" fill="url(#paint0_linear)"/>
            <rect x="39.8257" y="8.08728" width="7.03735" height="7.49117" rx="2" fill="#316CCC"/>
            <path d="M136.271 9.30979L132.411 13.4207" stroke="#3C4043" stroke-width="0.5" stroke-linejoin="round"/>
            <path d="M132.411 9.32027L136.5 13.5701" stroke="#3C4043" stroke-width="0.5" stroke-linejoin="round"/>
            <path d="M28.3443 9.7474C28.3443 10.936 27.3788 11.9011 26.1859 11.9011C24.9929 11.9011 24.0274 10.936 24.0274 9.7474C24.0274 8.5588 24.9929 7.59371 26.1859 7.59371C27.3788 7.59371 28.3443 8.5588 28.3443 9.7474Z" fill="#00D641" stroke="#12B829" stroke-width="1.00908"/>
            <path d="M19.4677 9.7474C19.4677 10.936 18.5022 11.9011 17.3093 11.9011C16.1164 11.9011 15.1509 10.936 15.1509 9.7474C15.1509 8.5588 16.1164 7.59371 17.3093 7.59371C18.5022 7.59371 19.4677 8.5588 19.4677 9.7474Z" fill="#FFBD00" stroke="#E79F13" stroke-width="1.00908"/>
            <path d="M10.5912 9.7474C10.5912 10.936 9.62564 11.9011 8.43273 11.9011C7.23981 11.9011 6.2743 10.936 6.2743 9.7474C6.2743 8.5588 7.23981 7.59371 8.43273 7.59371C9.62564 7.59371 10.5912 8.5588 10.5912 9.7474Z" fill="#FF3B47" stroke="#EF1320" stroke-width="1.00908"/>
            <path d="M151.467 7.49133L151.467 14.6208" stroke="#3C4043" stroke-linejoin="round"/>
            <path d="M147.795 10.9548L155 10.9548" stroke="#3C4043" stroke-linejoin="round"/>
            <path d="M5 0.25H635C637.623 0.25 639.75 2.37665 639.75 5V34.75H0.25V5C0.25 2.37665 2.37665 0.25 5 0.25Z" stroke="#A0A0A0" stroke-width="0.5"/>
            <rect x="0.25" y="0.25" width="639.5" height="390.296" rx="4.75" stroke="#A0A0A0" stroke-width="0.5"/>
        </svg>