<svg width="64" height="69" viewBox="0 0 64 69" fill="none" xmlns="http://www.w3.org/2000/svg">
<g clip-path="url(#clip0)">
<path fill-rule="evenodd" clip-rule="evenodd" d="M32.7223 15.1443C32.7223 15.1443 38.2953 19.9299 49.1626 20.1474C49.2112 25.6278 48.9261 31.3419 47.5555 36.6567C45.4268 44.8838 39.5816 48.0818 32.7287 50.4486C25.8759 48.0818 20.0307 44.8838 17.902 36.6567C16.5184 31.3419 16.2333 25.6278 16.2819 20.1474C27.1493 19.9299 32.7223 15.1443 32.7223 15.1443ZM32.7222 16.6118C32.7222 16.6118 37.8286 20.998 47.7952 21.1993C47.8406 26.2252 47.5781 31.4621 46.3437 36.3353C44.3769 43.8806 39.0178 46.8091 32.7352 48.9811C26.4396 46.8091 21.0707 43.8806 19.1267 36.3353C17.8663 31.4621 17.6038 26.2252 17.6492 21.1993C27.6125 20.998 32.7222 16.6118 32.7222 16.6118Z" fill="#00D7FF"/>
<path d="M29.2391 32.3192V29.0725C29.2661 28.2058 29.6287 27.3836 30.2501 26.7801C30.8715 26.1765 31.7029 25.839 32.5683 25.839C33.4337 25.839 34.2652 26.1765 34.8866 26.7801C35.508 27.3836 35.8706 28.2058 35.8975 29.0725V32.3192H37.537V29.0725C37.504 27.7741 36.9659 26.54 36.0377 25.6333C35.1095 24.7267 33.8646 24.2193 32.5683 24.2193C31.2721 24.2193 30.0271 24.7267 29.0989 25.6333C28.1707 26.54 27.6327 27.7741 27.5996 29.0725V32.3192H29.2391Z" fill="#316CCC"/>
<path fill-rule="evenodd" clip-rule="evenodd" d="M31.7501 37.2217H32.5245L32.5375 37.2152V37.2249H33.1026C33.1356 37.2215 33.1674 37.2108 33.1958 37.1937C33.2243 37.1766 33.2486 37.1535 33.2671 37.1259C33.2857 37.0984 33.2979 37.0671 33.3031 37.0343C33.3083 37.0014 33.3062 36.9679 33.297 36.936L32.7365 34.2087C32.991 34.111 33.2036 33.9276 33.3378 33.6899C33.4719 33.4522 33.5193 33.1751 33.4718 32.9062C33.4243 32.6373 33.2848 32.3934 33.0773 32.2164C32.8698 32.0393 32.6072 31.9402 32.3347 31.9361V31.9323C32.3278 31.9335 32.3208 31.9347 32.3139 31.9361C32.0575 31.9805 31.823 32.1089 31.6472 32.3011C31.4713 32.4934 31.3641 32.7386 31.3422 32.9984C31.3204 33.2583 31.3851 33.518 31.5264 33.7371C31.6676 33.9561 31.8774 34.122 32.1228 34.2088L31.5557 36.9327C31.5466 36.9646 31.5445 36.9982 31.5496 37.031C31.5548 37.0638 31.5671 37.0951 31.5856 37.1227C31.6041 37.1502 31.6285 37.1734 31.6569 37.1905C31.6853 37.2076 31.7172 37.2182 31.7501 37.2217ZM32.5472 30.1731V30.1667H25.9827C25.9034 30.1667 25.8272 30.198 25.7708 30.2539C25.7144 30.3099 25.6822 30.3858 25.6814 30.4653V38.832C25.6822 38.9115 25.7144 38.9875 25.7708 39.0434C25.8272 39.0994 25.9034 39.1307 25.9827 39.1307H32.3347V39.1404H38.8733C38.9526 39.1405 39.0288 39.1091 39.0852 39.0532C39.1416 38.9972 39.1737 38.9213 39.1746 38.8418V30.4718C39.1737 30.3923 39.1416 30.3163 39.0852 30.2604C39.0288 30.2045 38.9526 30.1731 38.8733 30.1731H32.5472Z" fill="#316CCC"/>
<path fill-rule="evenodd" clip-rule="evenodd" d="M32.5631 10.5551C32.5631 10.5551 39.6388 16.6311 53.4365 16.9073C53.4982 23.8654 53.1362 31.1203 51.3961 37.8682C48.6933 48.3137 41.272 52.374 32.5714 55.379C23.8707 52.374 16.4494 48.3137 13.7466 37.8682C11.9901 31.1203 11.628 23.8654 11.6898 16.9073C25.4874 16.6311 32.5631 10.5551 32.5631 10.5551ZM32.5631 12.4183C32.5631 12.4183 39.0465 17.9873 51.7005 18.2428C51.7581 24.6239 51.4249 31.2728 49.8575 37.4601C47.3605 47.0399 40.5562 50.7581 32.5796 53.5158C24.5865 50.7581 17.77 47.0399 15.3017 37.4601C13.7014 31.2728 13.3682 24.6239 13.4258 18.2428C26.0757 17.9873 32.5631 12.4183 32.5631 12.4183Z" fill="#00D7FF" fill-opacity="0.5"/>
<path fill-rule="evenodd" clip-rule="evenodd" d="M32.2393 5.13458C32.2393 5.13458 41.1361 12.7744 58.4849 13.1216C58.5625 21.8706 58.1073 30.9927 55.9193 39.4774C52.5209 52.6112 43.1896 57.7165 32.2496 61.4949C21.3096 57.7165 11.9783 52.6112 8.57993 39.4774C6.37125 30.9927 5.91606 21.8706 5.99365 13.1216C23.3424 12.7744 32.2393 5.13458 32.2393 5.13458ZM32.2393 7.47736C32.2393 7.47736 40.3913 14.4796 56.3021 14.801C56.3745 22.8243 55.9555 31.1846 53.9848 38.9643C50.845 51.0097 42.2896 55.6848 32.26 59.1522C22.2097 55.6848 13.6387 51.0097 10.5352 38.9643C8.52306 31.1846 8.10409 22.8243 8.1765 14.801C24.0822 14.4796 32.2393 7.47736 32.2393 7.47736Z" fill="#00D7FF" fill-opacity="0.2"/>
<path fill-rule="evenodd" clip-rule="evenodd" d="M32 0C32 0 42.8441 9.31198 63.9902 9.73525C64.0848 20.3992 63.5299 31.5179 60.863 41.8597C56.7208 57.8682 45.3471 64.0909 32.0126 68.6963C18.6781 64.0909 7.30439 57.8682 3.16218 41.8597C0.470062 31.5179 -0.0847542 20.3992 0.00981671 9.73525C21.1559 9.31198 32 0 32 0ZM32 2.85553C32 2.85553 41.9363 11.3904 61.3296 11.7821C61.4179 21.5616 60.9072 31.7517 58.5051 41.2343C54.6781 55.9161 44.2501 61.6145 32.0252 65.8409C19.7752 61.6145 9.32822 55.9161 5.54538 41.2343C3.09284 31.7517 2.58216 21.5616 2.67043 11.7821C22.0575 11.3904 32 2.85553 32 2.85553Z" fill="#00D7FF" fill-opacity="0.1"/>
</g>
<defs>
<clipPath id="clip0">
<rect width="64" height="68.6963" fill="white"/>
</clipPath>
</defs>
</svg>
