<svg width="373" height="328" viewBox="0 0 373 328" fill="none" xmlns="http://www.w3.org/2000/svg">
<path d="M370.156 212.542C369.78 211.957 340.001 165.742 327.753 187.584C315.437 209.564 298.361 228.13 271.291 201.488C244.221 174.846 238.054 165.603 217.816 187.584C197.578 209.564 186.247 175.773 174.803 163.097C163.358 150.421 180.721 207.889 150.424 183.994C135.445 172.183 129.653 131.805 121.368 96.1357C112.897 59.6563 124.73 36.4318 124.73 36.4318C135.589 39.1751 166.557 20.7045 227.2 85.4887C287.843 150.273 338.215 118.717 359.715 155.381C381.216 192.045 370.156 212.542 370.156 212.542Z" fill="url(#paint0_linear)"/>
<path d="M370.156 212.542C369.78 211.957 340.001 165.742 327.753 187.584C315.437 209.564 298.361 228.13 271.291 201.488C244.221 174.846 238.054 165.603 217.816 187.584C197.578 209.564 186.247 175.773 174.803 163.097C163.358 150.421 180.721 207.889 150.424 183.994C135.445 172.183 129.653 131.805 121.368 96.1357C112.897 59.6563 124.73 36.4318 124.73 36.4318C135.589 39.1751 166.557 20.7045 227.2 85.4887C287.843 150.273 338.215 118.717 359.715 155.381C381.216 192.045 370.156 212.542 370.156 212.542Z" fill="#FB8627"/>
<path d="M370.153 212.535C369.778 211.95 339.998 165.735 327.75 187.577C315.434 209.558 298.358 228.124 271.288 201.482C244.218 174.84 238.051 165.597 217.813 187.577C197.575 209.558 186.244 175.767 174.8 163.091C163.355 150.415 180.718 207.883 150.421 183.987C135.442 172.177 123.465 133.914 115.179 98.2448L119.659 32.5431C119.659 32.5431 186.284 42.0478 212.788 82.9486C239.292 123.849 258.356 141.954 286.609 142.117C314.861 142.28 355.408 160.554 370.153 212.535Z" fill="url(#paint1_linear)"/>
<path d="M289.029 297.333C289.029 297.333 290.14 308.725 285.229 316.487C282.883 320.182 283.074 326.783 290.414 327.208L300.683 299.346L305.132 287.283L288.955 282.468L289.029 297.333Z" fill="#333333"/>
<path d="M292.043 281.972L289.137 300.138C252.125 301.4 215.778 295.698 187.008 272.31C171.536 259.739 158.26 242.06 148.244 217.603C136.624 189.228 133.022 170.757 132.954 158.796C132.843 140.035 141.402 137.206 141.402 137.206L178.159 158.796C178.159 158.796 182.134 258.23 273.757 278.043L292.043 281.972Z" fill="#316CCC"/>
<path d="M187.008 272.304C171.536 259.733 158.26 242.053 148.244 217.597C136.624 189.222 133.022 170.751 132.954 158.789H178.159C178.159 158.789 156.034 222.801 187.008 272.304Z" fill="#2758A8"/>
<path d="M38.2977 134.543L52.7626 135.823V121.537L40.5207 117.667L38.2977 134.543Z" fill="url(#paint2_linear)"/>
<path d="M121.365 102.072C121.365 102.072 104.264 131.236 55.3458 123.588V137.172C55.3458 137.172 108.304 156.262 137.163 127.443L121.365 102.072Z" fill="url(#paint3_linear)"/>
<path d="M115.678 18.9897L138.696 36.7984L117.735 45.1577L104.033 27.8941L107.309 13.269L115.678 18.9897Z" fill="url(#paint4_linear)"/>
<path d="M96.77 34.0611L94.3777 20.7877L108.452 18.3246C108.876 20.289 109.289 22.2533 109.649 24.0607C111.297 32.2753 96.77 34.0611 96.77 34.0611Z" fill="#F2994A"/>
<path d="M108.452 18.3246L94.3777 20.7877L93.7619 17.3547C90.7476 0.639088 105.271 4.33692 105.271 4.33692C105.271 4.33692 106.934 11.3384 108.452 18.3246Z" fill="url(#paint5_linear)"/>
<path d="M108.448 18.3246C108.279 17.6226 100.751 13.6477 101.567 5.42686C101.567 5.42686 93.3462 11.7295 89.1003 10.7719C84.8544 9.81436 83.4843 6.79699 85.9475 3.92125C85.9475 3.92125 86.9081 6.93554 90.0578 3.92125C93.2076 0.906958 101.98 -2.10733 105.268 2.00307C105.268 2.00307 110.194 0.0848959 111.293 5.01737C112.393 9.94985 115.678 18.9927 115.678 18.9927L107.309 13.272L108.448 18.3246Z" fill="#263238"/>
<path d="M108.418 18.9895L105.542 9.53407C105.542 9.53407 109.375 6.79381 109.788 11.8648C110.2 16.9359 108.418 18.9895 108.418 18.9895Z" fill="url(#paint6_linear)"/>
<path d="M117.756 45.1575C117.756 45.1575 112.343 64.8166 115.776 85.0453C119.209 105.274 141.402 137.172 141.402 137.172H178.156C178.156 137.172 172.922 34.8369 140.734 35.6928L117.756 45.1575Z" fill="#316CCC"/>
<path d="M140.734 61.5808L160.489 136.541L178.156 137.184L173.014 69.0503L140.734 61.5808Z" fill="#2758A8"/>
<path d="M140.734 35.7052L135.531 33.9348L115.579 43.4426L117.35 49.3788L140.734 35.7052Z" fill="#316CCC"/>
<path d="M141.402 137.172C141.402 137.172 59.5978 170.994 35.0832 256.263C23.7188 295.797 22.2379 315.563 22.2379 315.563H42.4974C42.4974 315.563 81.6401 206.827 150.221 183.132C181.848 172.204 179.874 156.828 178.156 137.172H141.402Z" fill="#316CCC"/>
<path d="M27.9924 315.576C27.9924 315.576 17.6748 320.564 8.70584 318.636C4.41994 317.712 -1.70104 320.176 0.441911 327.208H42.99L40.5422 315.576H27.9924Z" fill="#333333"/>
<path d="M112.667 143.912L109.782 129.281C109.782 129.281 158.672 111.029 158.598 86.4402L183.821 76.2089C195.46 107.479 176.022 134.875 112.667 143.912Z" fill="url(#paint7_linear)"/>
<path d="M183.821 76.2088L158.605 86.4309C158.583 78.6535 153.66 70.2387 140.747 61.5715C140.747 61.5715 129.727 42.8946 146.403 36.6689C146.403 36.6689 165.058 36.866 181.364 70.4697C182.29 72.4012 183.109 74.3142 183.821 76.2088Z" fill="#316CCC"/>
<path d="M109.782 129.281C109.782 129.281 100.311 120.386 96.8501 124.832C93.3894 129.278 87.9211 127.295 84.7221 129.281C81.523 131.267 84.0017 148.062 89.9317 148.062C95.8618 148.062 112.664 143.915 112.664 143.915L109.782 129.281Z" fill="url(#paint8_linear)"/>
<path d="M45.5302 13.269V116.051H39.4615L39.3044 112.322L35.3973 22.4074L45.5302 13.269Z" fill="#D1E3FF"/>
<path d="M45.5301 112.322H31.447V116.05H45.5301V112.322Z" fill="#316CCC"/>
<path d="M55.6599 22.4074L51.7527 112.322L51.5926 116.051H45.5302V13.269L55.6599 22.4074Z" fill="#E0E0E0"/>
<path d="M49.7668 116.051L49.0679 142.486H41.9863L41.2874 116.051H49.7668Z" fill="#316CCC"/>
<path d="M59.6133 112.322H45.5302V116.05H59.6133V112.322Z" fill="#316CCC"/>
<path d="M40.5206 117.667C40.5206 117.667 45.3084 120.438 43.655 127.455C42.0016 134.472 36.5734 136.692 36.0715 132.246C35.5696 127.8 37.8019 117.916 40.5206 117.667Z" fill="url(#paint9_linear)"/>
<path d="M55.3458 123.588C55.3458 123.588 54.1142 113.713 50.1547 114.455C46.1952 115.197 41.0133 125.54 45.2284 123.588C49.4435 121.636 49.5143 118.914 49.5143 118.914C49.5143 118.914 46.6077 134.644 55.3643 137.184L55.3458 123.588Z" fill="url(#paint10_linear)"/>
<path d="M47.1588 192.119C41.512 173.808 41.9246 155.172 48.3904 136.753C53.4491 122.316 62.2118 108.039 74.4383 94.3223C94.9349 71.3225 117.999 57.8367 118.972 57.2733L124.739 53.9326L205.14 163.476L200.213 167.977C199.385 168.737 179.603 186.697 151.52 199.355C134.767 206.907 118.52 210.987 103.23 211.483C83.7121 212.117 65.8173 206.923 50.0438 196.045L47.9224 194.582L47.1588 192.119Z" fill="white"/>
<path d="M54.2589 189.93L158.943 113.101L122.682 63.7021C122.682 63.7021 31.5948 116.457 54.2589 189.93Z" fill="#FB8627"/>
<path d="M54.2589 189.93L158.943 113.101L195.201 162.5C195.201 162.5 117.556 233.577 54.2589 189.93Z" fill="#FB8627"/>
<path d="M134.355 158.106L125.795 147.025L136.876 138.462L127.803 126.716L116.722 135.275L108.159 124.194L96.4128 133.268L104.972 144.352L93.8911 152.912L102.965 164.658L114.049 156.098L122.608 167.18L134.355 158.106Z" fill="white"/>
<defs>
<linearGradient id="paint0_linear" x1="1.05805e+06" y1="152772" x2="1.04845e+06" y2="166941" gradientUnits="userSpaceOnUse">
<stop stop-color="#FF9B17"/>
<stop offset="1" stop-color="#FFDA3E"/>
</linearGradient>
<linearGradient id="paint1_linear" x1="959407" y1="110926" x2="1.04795e+06" y2="305579" gradientUnits="userSpaceOnUse">
<stop stop-color="#FF9B17"/>
<stop offset="1" stop-color="#FFDA3E"/>
</linearGradient>
<linearGradient id="paint2_linear" x1="53.246" y1="126.747" x2="67.714" y2="126.747" gradientUnits="userSpaceOnUse">
<stop stop-color="#E6ECF4"/>
<stop offset="1" stop-color="white"/>
</linearGradient>
<linearGradient id="paint3_linear" x1="292197" y1="38948.8" x2="210562" y2="66782.5" gradientUnits="userSpaceOnUse">
<stop stop-color="#E6ECF4"/>
<stop offset="1" stop-color="white"/>
</linearGradient>
<linearGradient id="paint4_linear" x1="125232" y1="19987.1" x2="129134" y2="19987.1" gradientUnits="userSpaceOnUse">
<stop stop-color="#E6ECF4"/>
<stop offset="1" stop-color="white"/>
</linearGradient>
<linearGradient id="paint5_linear" x1="54083.2" y1="9607.66" x2="54824.1" y2="9607.66" gradientUnits="userSpaceOnUse">
<stop stop-color="#E6ECF4"/>
<stop offset="1" stop-color="white"/>
</linearGradient>
<linearGradient id="paint6_linear" x1="15677.4" y1="5887.07" x2="15737.7" y2="5887.07" gradientUnits="userSpaceOnUse">
<stop stop-color="#E6ECF4"/>
<stop offset="1" stop-color="white"/>
</linearGradient>
<linearGradient id="paint7_linear" x1="303000" y1="52818.9" x2="275541" y2="78205.9" gradientUnits="userSpaceOnUse">
<stop stop-color="#E6ECF4"/>
<stop offset="1" stop-color="white"/>
</linearGradient>
<linearGradient id="paint8_linear" x1="114166" y1="18142.5" x2="104213" y2="27815.6" gradientUnits="userSpaceOnUse">
<stop stop-color="#E6ECF4"/>
<stop offset="1" stop-color="white"/>
</linearGradient>
<linearGradient id="paint9_linear" x1="27153" y1="16000.4" x2="27360.9" y2="16000.4" gradientUnits="userSpaceOnUse">
<stop stop-color="#E6ECF4"/>
<stop offset="1" stop-color="white"/>
</linearGradient>
<linearGradient id="paint10_linear" x1="39163.3" y1="19151.7" x2="44777.4" y2="22115.3" gradientUnits="userSpaceOnUse">
<stop stop-color="#E6ECF4"/>
<stop offset="1" stop-color="white"/>
</linearGradient>
</defs>
</svg>
