<svg width="254" height="195" fill="none" xmlns="http://www.w3.org/2000/svg">
  <path d="M14.62 75.97a2.37 2.37 0 110-4.74 2.37 2.37 0 010 4.74z" stroke="#00D7FF" stroke-width="1.04" stroke-miterlimit="10"/>
  <path d="M42.94 70a36.67 36.67 0 0043.85 35.97 36.7 36.7 0 0026.74-50.01 36.68 36.68 0 00-59.85-11.9 36.67 36.67 0 00-10.74 25.93z" stroke="#00D7FF" stroke-miterlimit="10"/>
  <path d="M46.09 27.2l2.11 2.12-2.11 2.11-2.12-2.11 2.12-2.12z" stroke="#00D7FF" stroke-width="1.04" stroke-miterlimit="10"/>
  <path d="M76.94 2l3.76 3.76-3.76 3.76-3.76-3.76L76.94 2z" stroke="#00D7FF" stroke-width="1.68" stroke-miterlimit="10"/>
  <path d="M183.67 11.47l-4.14 4.14m0-4.14l4.14 4.14M28.62 178.13l-4.14 4.14m0-4.14l4.14 4.14M209.7 30.94l-4.15 4.13m0-4.13l4.14 4.13" stroke="#00D7FF" stroke-width="1.04" stroke-miterlimit="10"/>
  <path d="M242.07 161.79a10.93 10.93 0 110-21.86 10.93 10.93 0 010 21.86zM44.93 192.83a5.68 5.68 0 114.34-10.5 5.68 5.68 0 01-4.34 10.5z" stroke="#00D7FF" stroke-miterlimit="10"/>
  <path d="M19.28 60.43a20.28 20.28 0 01-.09-3.4l3.7-1.2a16.6 16.6 0 011.32-4.46l-2.45-3.02c.56-1 1.21-1.94 1.94-2.82l3.7 1.23a16.42 16.42 0 013.66-2.81l-.2-3.89c1.03-.48 2.12-.87 3.23-1.17l2.28 3.16a16.98 16.98 0 014.62-.12l2.12-3.27a20 20 0 013.29.97v3.9c1.38.68 2.67 1.57 3.81 2.61l3.63-1.4a20.2 20.2 0 012.1 2.72l-2.3 3.15a16.36 16.36 0 011.55 4.36l3.76 1a20.43 20.43 0 01.08 3.4l-3.7 1.17a16.19 16.19 0 01-1.3 4.43L56.47 68c-.57 1-1.22 1.94-1.95 2.82l-3.7-1.21a16.45 16.45 0 01-3.66 2.82l.2 3.89c-1.03.48-2.12.87-3.23 1.16l-2.28-3.15a16.32 16.32 0 01-4.63.12l-2.11 3.27a19.41 19.41 0 01-3.29-.97v-3.9a16.52 16.52 0 01-3.81-2.61l-3.63 1.4a20.53 20.53 0 01-2.1-2.72l2.3-3.14a16.44 16.44 0 01-1.55-4.36l-3.76-.99zm19.82 5.58a7.83 7.83 0 10-5.52-2.3A7.82 7.82 0 0039.1 66l-.01.02z" fill="url(#paint0_linear)"/>
  <path d="M126.63 70.29a44.93 44.93 0 01-.2-7.57l8.16-2.65a35.8 35.8 0 012.91-9.79l-5.45-6.67a43.96 43.96 0 014.3-6.24l8.16 2.67a36.35 36.35 0 018.1-6.22l-.47-8.58c2.3-1.05 4.68-1.9 7.13-2.53l5.05 6.99c3.37-.57 6.8-.66 10.2-.27l4.67-7.22c2.47.5 4.9 1.22 7.25 2.15v8.6a36.14 36.14 0 018.42 5.78l8.06-3.13a44.38 44.38 0 014.61 6l-5.06 6.95a35.84 35.84 0 013.41 9.63l8.31 2.2c.18 1.65.28 3.3.28 4.95 0 .88 0 1.75-.08 2.63l-8.16 2.64a35.99 35.99 0 01-2.92 9.8l5.43 6.66a43.88 43.88 0 01-4.3 6.24l-8.16-2.67a36.15 36.15 0 01-8.1 6.24l.46 8.59a43.88 43.88 0 01-7.13 2.52l-5.05-6.99a36.29 36.29 0 01-10.2.27l-4.67 7.22a43.8 43.8 0 01-7.26-2.14v-8.6a36.14 36.14 0 01-8.4-5.79l-8.05 3.1a44.1 44.1 0 01-4.62-6l5.06-6.94a36 36 0 01-3.41-9.63l-8.28-2.2zm43.78 12.33a17.29 17.29 0 100-34.58 17.29 17.29 0 000 34.58z" fill="url(#paint1_linear)"/>
  <path d="M40.14 157.48s-23-13.2-25.85-39.19l8.72 3.12-8.96-6.41a51.3 51.3 0 01.67-10.5l5.3 2.43-4.88-4.72a79.82 79.82 0 019.9-25.3A92.97 92.97 0 0141.1 95.48l-1.16 4.37 2.8-1.7c4.05 7 7.13 15.47 6.87 24.79-.67 24.23-9.46 34.55-9.46 34.55z" fill="url(#paint2_linear)"/>
  <path d="M40.05 157.67a.23.23 0 01-.09-.07.23.23 0 01-.04-.11C35.25 120.69 25.12 78.2 25 77.78a.23.23 0 01.44-.1c.11.42 10.23 42.92 14.92 79.75a.22.22 0 01-.2.26c-.04 0-.08 0-.12-.02z" fill="#79C3F0"/>
  <path d="M28.52 92.13l-8.3-5.16a.23.23 0 01.08-.42.23.23 0 01.17.03l7.82 4.88 3.33-7.72a.23.23 0 01.42.18l-3.52 8.21zM16.05 98.3a.23.23 0 11.19-.42l14.9 6.78 7-13.3a.23.23 0 01.41.06c.02.05.02.11 0 .16l-7.2 13.67-15.3-6.96z" fill="#79C3F0"/>
  <path d="M34.02 119.86l-19.97-10.5a.24.24 0 01-.07-.29.23.23 0 01.28-.1l19.6 10.28 10.69-17.48a.23.23 0 01.14-.1c.06-.02.12 0 .18.02a.23.23 0 01.07.32l-10.92 17.85z" fill="#79C3F0"/>
  <path d="M14.94 123.16a.23.23 0 01-.07-.06.22.22 0 01-.06-.16.23.23 0 01.15-.2.22.22 0 01.08-.02.2.2 0 01.1.02l21.16 9.5 12.9-14.82a.23.23 0 01.33 0 .23.23 0 010 .32L36.4 132.82l-21.46-9.66zm23.72 23.04l-18.36-9.05a.23.23 0 11.2-.41l18.03 8.87 10.05-12.6a.23.23 0 01.25-.08l.07.04a.23.23 0 01.09.15.23.23 0 01-.05.17l-10.28 12.9z" fill="#79C3F0"/>
  <path d="M32.2 143.66a219.26 219.26 0 007.42 7 196.95 196.95 0 0013.7 11.21l1.3-1.08a200.09 200.09 0 01-5.2-4.02 183.1 183.1 0 01-7.43-6.2l-1.58-1.4a184.6 184.6 0 01-7.28-6.87l.38-.4c2.4-2.5 6.41-7.49 5.68-12.04a6.59 6.59 0 00-1.98-3.72h-.13c-.62-.06-1.24 0-1.84.17-.75.18-1.44.51-2.05.97-2.69 1.9-4.48 6.12-2.86 12.16a171.3 171.3 0 01-5.63-6.12l-.06-.07c2.2-2.2 7.13-7.94 3.67-12.24-.13-.16-.28-.31-.43-.47h-.32c-3.22-.11-6.75 3.59-5.16 10.11-2.33-2.77-4.3-5.31-5.95-7.58 1.08-1.03 3.4-3.5 4.56-6.22.18-.42.33-.84.45-1.27A5.43 5.43 0 0020.1 110c-1.86-.2-3.87.87-4.99 3.03-.2.4-.37.81-.5 1.24-.54 1.71-.58 3.9.2 6.54a104 104 0 01-4.42-6.77c0-.28-.04-.58-.07-.94-.04-.36-.1-.9-.18-1.4-.58-3.69-2.23-8.86-7.12-8.58-1.49 1.35-1.98 3.83-.78 6.3.33.68.77 1.3 1.28 1.87a13.34 13.34 0 005.4 3.5c.84 1.4 2.54 4.18 5.25 7.92-4.82-4.26-9.3-4.2-11.83-2.43a4.88 4.88 0 00-1.97 2.69c2.33 5.33 9.07 3.71 12.8 2.33 1-.37 1.8-.73 2.2-.93 1.5 2.01 3.25 4.26 5.25 6.69a13.33 13.33 0 00-3.65-1.56c-4.15-1.05-7.27.74-8.24 3.18-.11.26-.2.53-.25.8 2.47 4.63 8.05 3.34 11.77 1.81.97-.4 1.9-.85 2.82-1.36 1.92 2.2 4.04 4.53 6.37 6.94a16.09 16.09 0 00-5.4-1.88c-5.3-.79-8.9 2.18-9.32 5.48 4.5 7.05 14.7 1.02 17.47-.81z" fill="url(#paint3_linear)"/>
  <path d="M195 160.94s23.9-13.69 26.81-40.64l-9.03 3.23 9.3-6.66c.14-3.64-.09-7.28-.68-10.88l-5.5 2.54 5.06-4.9a82.85 82.85 0 00-10.27-26.22 96.36 96.36 0 00-16.64 19.23l1.22 4.54-2.91-1.75c-4.2 7.26-7.39 16.03-7.13 25.7.7 25.13 9.77 35.81 9.77 35.81z" fill="url(#paint4_linear)"/>
  <path d="M195.12 161.16a.24.24 0 00.14-.2c4.86-38.15 15.36-82.2 15.48-82.64v-.1a.23.23 0 00-.09-.15.24.24 0 00-.09-.04.24.24 0 00-.29.17c-.1.44-10.6 44.52-15.47 82.71 0 .06.01.13.05.18.04.05.1.08.16.09.04 0 .08 0 .11-.03z" fill="#79C3F0"/>
  <path d="M207.08 93.2l8.6-5.33a.24.24 0 000-.4.23.23 0 00-.25-.01l-8.13 5.04-3.45-8.01a.24.24 0 00-.44 0 .23.23 0 000 .18l3.67 8.53zm12.95 6.38a.24.24 0 00-.01-.44.24.24 0 00-.19.01l-15.5 7.05-7.23-13.8a.24.24 0 00-.44.05v.09c0 .03 0 .06.02.09l7.46 14.15 15.89-7.2z" fill="#79C3F0"/>
  <path d="M201.37 121.93l20.72-10.87a.24.24 0 00.1-.33.24.24 0 00-.14-.11.24.24 0 00-.18.01l-20.33 10.69-11.07-18.1a.23.23 0 00-.15-.1.24.24 0 00-.29.17v.1c0 .03.01.05.03.08l11.31 18.46z" fill="#79C3F0"/>
  <path d="M221.16 125.36a.23.23 0 00.14-.22l-.03-.09a.24.24 0 00-.31-.12L199 134.79l-13.38-15.37a.24.24 0 00-.26-.05.24.24 0 00-.13.13.23.23 0 00.06.25l13.58 15.61 22.28-10zm-24.6 23.89l19.05-9.37a.24.24 0 00.13-.33.25.25 0 00-.06-.08.25.25 0 00-.09-.05.23.23 0 00-.1 0 .22.22 0 00-.1.04l-18.7 9.2-10.43-13.07a.24.24 0 00-.07-.07.25.25 0 00-.2-.04.24.24 0 00-.18.22c0 .03 0 .07.02.1l.05.08 10.68 13.37z" fill="#79C3F0"/>
  <path d="M205.29 143.66a218.5 218.5 0 01-7.43 7 195.17 195.17 0 01-13.7 11.21l-1.3-1.08a196.2 196.2 0 005.2-4.02 195.4 195.4 0 007.44-6.2l1.58-1.4c2.58-2.34 5-4.62 7.25-6.84l-.39-.41c-2.4-2.49-6.4-7.48-5.67-12.04a6.59 6.59 0 011.97-3.74h.13c.62-.06 1.24 0 1.84.17.75.18 1.44.51 2.05.97 2.7 1.9 4.49 6.12 2.87 12.16a162.4 162.4 0 005.62-6.12l.06-.07c-2.2-2.2-7.12-7.94-3.67-12.24.13-.16.28-.31.43-.47h.32c3.22-.11 6.75 3.59 5.16 10.11 2.33-2.77 4.3-5.31 5.95-7.58-1.08-1.03-3.4-3.5-4.56-6.22-.18-.42-.33-.84-.45-1.27a5.45 5.45 0 011.37-5.58c1.86-.2 3.85.87 4.98 3.03.2.4.37.81.5 1.24.54 1.71.58 3.9-.2 6.54 2.21-3.14 3.66-5.5 4.42-6.77 0-.28.04-.58.08-.94.03-.36.09-.9.17-1.4.59-3.69 2.23-8.86 7.13-8.58 1.48 1.38 1.95 3.85.78 6.32a7.9 7.9 0 01-1.29 1.87 13.37 13.37 0 01-5.4 3.5c-.83 1.4-2.53 4.18-5.24 7.92 4.82-4.25 9.33-4.2 11.83-2.42a4.87 4.87 0 011.97 2.68c-2.33 5.33-9.07 3.72-12.8 2.33-1-.37-1.8-.73-2.21-.93a163.3 163.3 0 01-5.25 6.7 13.16 13.16 0 013.65-1.58c4.16-1.06 7.28.73 8.25 3.17.11.27.2.54.25.81-2.47 4.63-8.05 3.33-11.77 1.81-.97-.4-1.9-.85-2.82-1.36a184.7 184.7 0 01-6.37 6.93 16.1 16.1 0 015.4-1.88c5.3-.74 8.9 2.17 9.3 5.5-4.46 7.03-14.66 1-17.43-.83z" fill="url(#paint5_linear)"/>
  <path d="M41.62 53.47H191.5a8.53 8.53 0 018.54 8.53v94.98a8.53 8.53 0 01-8.54 8.51H41.62a8.53 8.53 0 01-8.53-8.53V61.98a8.52 8.52 0 018.53-8.51zm-1.3 101.9H192.8V60.39H40.32v94.98z" fill="#4EB8EB"/>
  <path d="M40.32 60.36h152.54v94.91H40.32v-94.9z" fill="url(#paint6_linear)"/>
  <g clip-path="url(#clip0)">
    <path fill="url(#pattern0)" d="M-477.08 60.19h670v311h-670z"/>
    <path fill="#000" fill-opacity=".7" d="M-477.08 60.19h670v311h-670z"/>
  </g>
  <path d="M192.86 60.36v94.91h-36.49l-74.7-94.9h111.19z" fill="url(#paint7_linear)"/>
  <path d="M109 108.87c0 2.42 1.44 4.39 3.22 4.39 1.78 0 3.22-1.97 3.22-4.4 0-2.42-1.44-4.37-3.22-4.37-1.78 0-3.22 1.96-3.22 4.38z" fill="#20B8C4"/>
  <path d="M12.8 160.97h207.43a.79.79 0 01.79.8v4.03c-.7 3.16-8.25 4.56-12.94 5.02H24.95c-4.7-.46-12.24-1.86-12.94-5.02v-4.04a.79.79 0 01.78-.78z" fill="url(#paint8_linear)"/>
  <path d="M208.08 170.83H24.95c-4.7-.45-12.24-1.86-12.94-5.01v-.33h209v.33c-.68 3.16-8.24 4.56-12.93 5.01z" fill="#4EB8EB"/>
  <path d="M92.28 160.97h47.67a.18.18 0 01.18.2v.97c-.16.73-1.9 1.06-2.97 1.17H95.07c-1.08-.1-2.81-.44-2.97-1.17v-.94a.19.19 0 01.03-.16.2.2 0 01.07-.05.19.19 0 01.08-.02z" fill="#fff"/>
  <path opacity=".1" d="M84.58 87.74c20.43-.4 31.82-8.95 31.82-8.95s11.61 8.56 32.06 8.95c.14 10-1.15 19.98-3.82 29.62-4.08 14.7-15.35 20.36-28.23 24.6-12.88-4.24-24.39-10.1-28.4-24.83-2.6-9.5-3.52-19.58-3.43-29.4z" fill="#000"/>
  <path d="M86.82 85.04c19.55-.39 29.58-8.98 29.58-8.98s10.02 8.59 29.57 8.98c.1 9.84-.42 20.1-2.91 29.63-3.83 14.77-14.34 20.5-26.67 24.76-12.33-4.25-22.85-10-26.68-24.76-2.46-9.54-2.98-19.8-2.89-29.63z" fill="#fff"/>
  <path d="M89.28 86.93c17.93-.36 27.12-8.24 27.12-8.24s9.19 7.88 27.11 8.24c.09 9.02-.39 18.42-2.65 27.16-3.5 13.55-13.16 18.8-24.49 22.7-11.3-3.9-20.94-9.15-24.48-22.7-2.22-8.74-2.69-18.14-2.6-27.16z" fill="#FB4D27"/>
  <path d="M91.68 88.76c16.32-.32 24.72-7.5 24.72-7.5v52.97c-10.3-3.56-19.1-8.35-22.3-20.7-2.07-7.97-2.5-16.54-2.42-24.77z" fill="#C93312"/>
  <path d="M113.98 110.03c0 1.81 1.08 3.29 2.41 3.29 1.34 0 2.41-1.47 2.41-3.29 0-1.8-1.08-3.28-2.4-3.28-1.34 0-2.42 1.47-2.42 3.28z" fill="#20B8C4"/>
  <path d="M116.3 106.36h.9c1.34 0 2.44 1.1 2.44 2.44v6.64c0 1.35-1.1 2.44-2.45 2.44h-.9a2.45 2.45 0 01-2.45-2.44v-6.64c0-1.35 1.1-2.44 2.45-2.44z" fill="#C0F0FF"/>
  <path opacity=".15" d="M103.49 104.45h2.84v-2a8.94 8.94 0 0117.87 0v2h2.84a.54.54 0 01.54.54V120a.54.54 0 01-.54.54H103.5a.55.55 0 01-.55-.54v-14.97c0-.07 0-.15.03-.22a.54.54 0 01.52-.36zm17.76 0v-2a5.99 5.99 0 00-11.97 0v2h11.97zm-7.73 12.13a.42.42 0 00.06.34c.03.05.07.1.13.13.05.03.1.05.16.05h2.8c.05 0 .11-.02.16-.05.06-.03.1-.08.13-.13.04-.05.06-.1.07-.16l-.01-.18-1-4.9a2.12 2.12 0 10-1.5 0l-1 4.9z" fill="#000"/>
  <path d="M122.66 106.89v-5.83a5.99 5.99 0 00-11.97 0v5.83h-2.95v-5.83a8.94 8.94 0 0117.87 0v5.83h-2.95z" fill="#fff"/>
  <path d="M104.97 103.03h11.76v3.17a2.1 2.1 0 00-.72 4.08l-1.01 4.9a.4.4 0 00.05.33.4.4 0 00.3.18h1.38v3.44h-11.76a.54.54 0 01-.55-.54v-15.02a.54.54 0 01.55-.53z" fill="#200600"/>
  <path d="M116.75 115.69h1.4a.4.4 0 00.3-.18c.02-.05.05-.1.06-.17l-.01-.17-1.02-4.9a2.12 2.12 0 00-.77-4.1v-3.15h11.81a.54.54 0 01.54.54v15.02a.55.55 0 01-.54.53h-11.79v-3.44l.02.02z" fill="#3E0B00"/>
  <defs>
    <linearGradient id="paint0_linear" x1="51.46" y1="65.61" x2="4.18" y2="37.19" gradientUnits="userSpaceOnUse">
      <stop stop-color="#00D7FF"/>
      <stop offset=".14" stop-color="#00B2DF"/>
      <stop offset=".45" stop-color="#0169A0"/>
      <stop offset=".71" stop-color="#013471"/>
      <stop offset=".9" stop-color="#011255"/>
      <stop offset="1" stop-color="#01064A"/>
    </linearGradient>
    <linearGradient id="paint1_linear" x1="-8193.94" y1="11927.7" x2="-23795.9" y2="2351.92" gradientUnits="userSpaceOnUse">
      <stop stop-color="#00D7FF"/>
      <stop offset=".14" stop-color="#00B2DF"/>
      <stop offset=".45" stop-color="#0169A0"/>
      <stop offset=".71" stop-color="#013471"/>
      <stop offset=".9" stop-color="#011255"/>
      <stop offset="1" stop-color="#01064A"/>
    </linearGradient>
    <linearGradient id="paint2_linear" x1="12.99" y1="83.44" x2="36.69" y2="126.95" gradientUnits="userSpaceOnUse">
      <stop offset=".05" stop-color="#00D7FF"/>
      <stop offset=".09" stop-color="#00B7E4"/>
      <stop offset=".16" stop-color="#008EC0"/>
      <stop offset=".23" stop-color="#0169A0"/>
      <stop offset=".31" stop-color="#014A85"/>
      <stop offset=".4" stop-color="#01316F"/>
      <stop offset=".49" stop-color="#011E5F"/>
      <stop offset=".6" stop-color="#011053"/>
      <stop offset=".74" stop-color="#01084C"/>
      <stop offset="1" stop-color="#01064A"/>
    </linearGradient>
    <linearGradient id="paint3_linear" x1="-23257.8" y1="11087.1" x2="-18697.9" y2="15659.7" gradientUnits="userSpaceOnUse">
      <stop offset=".05" stop-color="#00D7FF"/>
      <stop offset=".09" stop-color="#00B7E4"/>
      <stop offset=".16" stop-color="#008EC0"/>
      <stop offset=".23" stop-color="#0169A0"/>
      <stop offset=".31" stop-color="#014A85"/>
      <stop offset=".4" stop-color="#01316F"/>
      <stop offset=".49" stop-color="#011E5F"/>
      <stop offset=".6" stop-color="#011053"/>
      <stop offset=".74" stop-color="#01084C"/>
      <stop offset="1" stop-color="#01064A"/>
    </linearGradient>
    <linearGradient id="paint4_linear" x1="-1751.21" y1="16971.1" x2="-4087.69" y2="16971.1" gradientUnits="userSpaceOnUse">
      <stop offset=".05" stop-color="#00D7FF"/>
      <stop offset=".09" stop-color="#00B7E4"/>
      <stop offset=".16" stop-color="#008EC0"/>
      <stop offset=".23" stop-color="#0169A0"/>
      <stop offset=".31" stop-color="#014A85"/>
      <stop offset=".4" stop-color="#01316F"/>
      <stop offset=".49" stop-color="#011E5F"/>
      <stop offset=".6" stop-color="#011053"/>
      <stop offset=".74" stop-color="#01084C"/>
      <stop offset="1" stop-color="#01064A"/>
    </linearGradient>
    <linearGradient id="paint5_linear" x1="-1269.88" y1="13333.7" x2="-6317.32" y2="13333.7" gradientUnits="userSpaceOnUse">
      <stop offset=".05" stop-color="#00D7FF"/>
      <stop offset=".09" stop-color="#00B7E4"/>
      <stop offset=".16" stop-color="#008EC0"/>
      <stop offset=".23" stop-color="#0169A0"/>
      <stop offset=".31" stop-color="#014A85"/>
      <stop offset=".4" stop-color="#01316F"/>
      <stop offset=".49" stop-color="#011E5F"/>
      <stop offset=".6" stop-color="#011053"/>
      <stop offset=".74" stop-color="#01084C"/>
      <stop offset="1" stop-color="#01064A"/>
    </linearGradient>
    <linearGradient id="paint6_linear" x1="-56444" y1="9106.01" x2="-18295.9" y2="48308.8" gradientUnits="userSpaceOnUse">
      <stop offset=".05" stop-color="#00D7FF"/>
      <stop offset=".09" stop-color="#00B7E4"/>
      <stop offset=".16" stop-color="#008EC0"/>
      <stop offset=".23" stop-color="#0169A0"/>
      <stop offset=".31" stop-color="#014A85"/>
      <stop offset=".4" stop-color="#01316F"/>
      <stop offset=".49" stop-color="#011E5F"/>
      <stop offset=".6" stop-color="#011053"/>
      <stop offset=".74" stop-color="#01084C"/>
      <stop offset="1" stop-color="#01064A"/>
    </linearGradient>
    <linearGradient id="paint7_linear" x1="53.7" y1="30.52" x2="266.41" y2="166.57" gradientUnits="userSpaceOnUse">
      <stop stop-color="#fff" stop-opacity=".2"/>
      <stop offset="1" stop-color="#EBEAEA" stop-opacity="0"/>
    </linearGradient>
    <linearGradient id="paint8_linear" x1="-11351.5" y1="2941.19" x2="-86291.9" y2="2941.19" gradientUnits="userSpaceOnUse">
      <stop offset=".05" stop-color="#00D7FF"/>
      <stop offset=".09" stop-color="#00B7E4"/>
      <stop offset=".16" stop-color="#008EC0"/>
      <stop offset=".23" stop-color="#0169A0"/>
      <stop offset=".31" stop-color="#014A85"/>
      <stop offset=".4" stop-color="#01316F"/>
      <stop offset=".49" stop-color="#011E5F"/>
      <stop offset=".6" stop-color="#011053"/>
      <stop offset=".74" stop-color="#01084C"/>
      <stop offset="1" stop-color="#01064A"/>
    </linearGradient>
    <clipPath id="clip0">
      <path fill="#fff" transform="matrix(-1 0 0 1 192.92 60.19)" d="M0 0h152.33v95.09H0z"/>
    </clipPath>
  </defs>
</svg>
