<svg width="232" height="265" fill="none" xmlns="http://www.w3.org/2000/svg">
  <path d="M123 116.2h-.2l-1.8.5-.5.1-2.8.8-.5.1-2.4.7-.9.3-1.4.3-.3.1v1l-.1.4c0 .4 0 .8.3 1.1v1.2l.1.3.4 1.2.5 1.1v.2l.1.1a28.3 28.3 0 002.5 3.4l1.5 1.5 1 .7a35 35 0 002.3 1.4h.2l.5.2.7.2-.3-.4-.3-.6-.1-.2-.2-.4-.1-.3-.2-.4-.5-1.5c-.2-.8-.2-1.7-.3-2.5v-1.2-1.4l.1-1.1.3-1.2.2-1v-.2l.6-1.6.3-.7a11.7 11.7 0 011.4-2.2zM95.7 120.6a7.6 7.6 0 010 2.2v1.1a15 15 0 001.5-2.5v-.2l-1.5-.6zM136.7 113.9l.4.2.2.1.4.3c.2 0 .2.1.2.2l.4.2h.1l.7.7c.8.7 1.5 1.4 2 2.2v.2l.4.5.2.6.5.9v.2l.2.4v.2h.1l.1.4.1.4.1-.4a22.5 22.5 0 00.4-3.2v-.4-.7-.3-.4-.7l-.1-.4v-.1-.2-.4l-.3-1.2-.7-2.2-.5-1.4-1.1.4h-.2l-1.2.5-.5.2-1.5.6-2.8 1-.8.3a17.6 17.6 0 013.2 1.3zM83.5 112.9v-.1l-3-1.8-4.3-2.8-.3-.2v-.1l-1.4-1h-.2a39.2 39.2 0 01-2.9-2l-.1.7-.2 1.5-.1 1.1v4.9l.6 3.8c.1.7.4 1.5.7 2.3l1 2.1 1 1.6a31 31 0 002.4 2.7 7 7 0 01-.3-1.5V122.5a9.9 9.9 0 01.5-2.8v-.1c.3-1.1.8-2.2 1.5-3.1v-.1l1-1.3h.1l.7-.7.9-.5a8 8 0 012.9-.8l-.4-.2z" fill="#fff"/>
  <path d="M18.3 207.5l2.5 3 1.2 1.3a48.1 48.1 0 0015.3 10.6 45.7 45.7 0 0027 2.2 32 32 0 003.3-.9l.7-.2a46 46 0 0023-16.7l.4-.7 1.6-2.4.4-.6 1.9-3.7.4-1a38.3 38.3 0 003.2-11.2 49.7 49.7 0 00.4-8.6 44.4 44.4 0 00-9-25l-.6-.7-.9-1.2-.5-.6a35.1 35.1 0 00-6.3-6 55.2 55.2 0 00-9.7-5.8 44.9 44.9 0 00-4.1-1.5l-2-.6-1.5-.4h-.2a44.6 44.6 0 00-38 8.2l-.6.4a48.5 48.5 0 00-11.5 13.8l-.1.1a45.4 45.4 0 00-5.1 18.1l-.1 2.2v5.1l.2 1.2a47.4 47.4 0 003.2 12c.9 2.1 2 4.2 3.2 6.1l.7 1.3 1.6 2.2zM13 190.3a45.3 45.3 0 01-1.1-8.6v-.1-.1-.2-.1-.9-1.3c0-1.7.2-3.4.5-5v-.5-.2a46.6 46.6 0 016.5-16 49 49 0 016.7-8 46.2 46.2 0 0119.7-10.2 41.7 41.7 0 0114-.8h.7l.7.2a43.8 43.8 0 018.6 2.1c2.8 1 5.5 2.4 8 4l.4.3a45.7 45.7 0 0114 14.8l.6 1a42.7 42.7 0 01.8 37.8v.2l-.1.2a46.7 46.7 0 01-9.5 13 45 45 0 01-19 10.2 43.6 43.6 0 01-15.3.7c-.6 0-1.2-.2-1.7-.3a43.8 43.8 0 01-24.5-13 41.6 41.6 0 01-3.3-4.2l-.4-.6a41.3 41.3 0 01-6.3-14.4zM106 134.6l-.5-.6-.3-.2-.1-.1a6 6 0 00-.6-.5l-.2-.1-.1-.1-1.2-.7-1-.5h-.1l-.2-.2h-.2l-.3-.1-.2-.1-.7-.2h-.7l-.4.2H99l-.5.5-.2.4-.2.4v1.5l.9 2.4 1.1 1.9.4.5v-1.3l-.1-.6v-.5-.5-.3l-.1-.9v-.8-.3h.3l.1.1.6.2h.4l.6.2.5.1.4.1 1.2.3 1.1.4 1.1.3h.2v.1h.2l-.2-.2-.7-.8z" fill="#494375"/>
  <path d="M231.9 108.2a5.4 5.4 0 00-.7-1.9 9 9 0 00-1-1.4c0-.2-.3-.4-.4-.6l-1-1a22.7 22.7 0 00-3.5-3.2l-.2-.1-.8-.6-.3-.2-.9-.5-.4-.3-.7-.4-.3-.2h-.2l-.4-.3-.3-.1-.6-.3h-.1l-.1-.1-1.2-.6-1.4-.7-.1-.1-2.7-1.4-2.1-1a137.8 137.8 0 00-3.4-1.4 17 17 0 00-1.4-.5h-.2v-.1l-.9-.2-.4-.1-.8-.2-.7-.2-.6-.1-.8-.1-.5-.1-.7-.1-1.1-.1h-.4l-.2-.1-4.7-.5h-.5l-1.8-.3h-.2a89 89 0 00-2-.3l-2.8-.3a121.3 121.3 0 00-7.8 0c-1.7.1-3.3.4-4.8.7H175.5a20.4 20.4 0 001.9-3.8l.3-.8v-.1l.2-.3.2-.7v-.1l1-2.6v-.3a31.9 31.9 0 001-4.4 106 106 0 001.2-6l.1-.6.1-.5.3-2.2v-.6l.2-.9v-.7-.4-.4V61.4v-.7V60v-.8l-.1-2.6-.2-1.9v-.5l-.1-.5v-.2-.4a108.6 108.6 0 01-.4-2.5l-.3-1.7-.2-1-.1-.5v-.2l-.4-.8c-.2-.2-.4-.4-.7-.4a1 1 0 00-.8.1l-.3.3v.1l-.2.3-.2.4-.1.2-.3.6-.3.7-.2.3a210.3 210.3 0 01-5.3 10.7v-.1V57 57v-1-.3l-.1-.8-.3-1.4-.1-.8-.1-.4a40.8 40.8 0 00-2.9-9.1A150 150 0 00164 34l-2.3-4.2-2.6-4-2.8-3.9-2.6-3.3-1.2-1.6-1.5-1.6-.4-.4c-.1-.1-.3-.3-.5-.3l-.4-.2h-.1H149l-.5.4-.2.5-.2.7v1.6l.1 1.1V22l-.4 4.6c0 .7-.2 1.3-.3 2a95 95 0 00-.7 6.9V36.7l-.2.9v.2l-.2-.6V37l-.4-.7-.6-1.4-.5-1-.1-.1-.1-.2a10.6 10.6 0 00-.7-1l-.4-.8-.5-.6-.4-.6-.4-.6-.2-.2a85.4 85.4 0 00-2.8-3.4l-.3-.4-1.7-1.9-.4-.4a135.7 135.7 0 00-3-3.1 58.5 58.5 0 00-3.6-3.2l-1.7-1.3-2-1.4-.1-.2a127 127 0 01-2.4-1.7l-1.5-1.1-1.7-1.2-.3-.2-.9-.5-.3-.3-.8-.4h-.1a89.4 89.4 0 00-4.4-2.4l-.8-.4-3.4-1.7-2-1h-.2l-.8-.4-.4-.2a23 23 0 00-.8-.3l-.3-.1-3.3-1.2L101 1 98.8.2a84.8 84.8 0 00-1.1-.3l-.4.1H97l-.5.4-.4.8c0 .7.4 1.3.8 1.8l.7.8 1.7 1.6 1 1a91.7 91.7 0 014.2 4.4l.2.3.5.6.5.6.5.5 1.6 2.3 1.2 1.6.2.4h.1c0 .2.2.3.3.4l.2.3.4.6.8 1 .4.6.4.5.2.3a32.4 32.4 0 001.9 2.4l.5.6-.5-.2-.5-.2-2-.6h-.1l-.1-.1-2.3-.6-2.4-.6-4.7-.9h-.8l-.4-.1-1-.1h-.2l-1.4-.2h-.8l-1.7-.2-3-.2-1-.1a78.3 78.3 0 00-17.5.5h-.7l-2.7.4-2 .2a94 94 0 00-4.5.8l-2.5.5-1 .2h-.2l-1.2.3-2.3.7h-.2a16.3 16.3 0 00-3.2 1.5c-.4.3-.7.7-.7 1.2-.1.4 0 .8.3 1.2.3.4.7.7 1.3 1l1.9 1 .4.1.7.3.2.1 3.3 1.6 1.4.7 2.9 1.4a45.2 45.2 0 006.7 2.3l.5.1-.4.1a38 38 0 00-4.5 2l-.2.2a36.7 36.7 0 00-2.9 1.7h-.2l-1 .7-1.9 1.2-.7.3a71.4 71.4 0 00-3.3 2.2 23.6 23.6 0 00-3.1 3l-.5.5-1.3 1.4-.3.3a56.2 56.2 0 00-4.3 4.8l-.3.4-1.5 2-1.7 2.3a110.7 110.7 0 00-3.3 4.4l-.8 1.4-1 1.4L38 68l-.2.2-.1.3-1 1.5-1.4 2.2-.2.4-.5.7v.2h-.1v.1l-.2.2-.1.4v.2.9l.5.7a1.8 1.8 0 001.1.5c.6 0 1.2 0 1.8-.2h.1l.7-.2h.2l2-.5.5-.1a224.3 224.3 0 013.9-1l1.4-.2 1.4-.3a23 23 0 00-1.7 6.8 37 37 0 00-.1 4.6 29.2 29.2 0 004 11.7 7.7 7.7 0 00-2.4 1.2l-.8.7h-.1a12 12 0 00-3.1 6.6l-.1 2a16.9 16.9 0 00.5 4.2l.7 2.6.5 1.4a32.4 32.4 0 00-5.6 2l-2.2 1.6-1.6 1.3-.3.2a28 28 0 00-3.5 3.7 17.5 17.5 0 00-3 5.6 12.4 12.4 0 00-.5 2.8 58.6 58.6 0 00-11 8 55.3 55.3 0 00-15.7 26 54.4 54.4 0 0017 55.4l1.9 1.6a87.1 87.1 0 006.4 4.4 54.2 54.2 0 0024.3 7.1l-.4.6-.2.3a26.8 26.8 0 00-4 7l-.6 1.9-.2.5v.1l-.2.4-1.3.6-.8.6-.1.1-.4.3-.1.1-.8.7-.1.2a83 83 0 00-1.7 1.7l-1.2 1.3-.1.1-.4.4-.5.6-.2.2-1 1.2a19.3 19.3 0 00-2.5 3.3L34 259l-.4 1.1-.2.7V261.6l.1.8.3.6c0 .2.3.4.4.5a4 4 0 00.8.6l.7.3.6.2 1.5.2a22 22 0 005 .1 20.5 20.5 0 005.3-1l4.8-1.2 5.1-1.1 2.5-.6a29.7 29.7 0 004.7-1.4 58.4 58.4 0 007.3-3.3l1.3-.7 1-.6a19.4 19.4 0 002.4-1.8 30.2 30.2 0 002.2-2.8l1-1.6v-.1l.3-.4.3-.6A110.8 110.8 0 0185 242l1.5-2 .6-.7a60.6 60.6 0 004-5.6l1.4-2 2.2-3.4.5-.8a262.8 262.8 0 018.7-12.9l6-8.5.7-1 .4-.6.3-.4.7-1a40.3 40.3 0 002.3-3.2l.3-.5 1.2-1.8.5-.7a10 10 0 011.8-1.6l.5-.4H118.8l.5.2h.4v.1l1 .9.5.6.1.1.4.4.6.7a42.8 42.8 0 006.2 5.7l1 .7.2.3 3.6 2.6 1.6 1.1h.1a258 258 0 018 5.9c.2 0 .3.2.4.3l1.5 1.2.1.2-.2 1-.8 2-1 2v.2l-1.6 3v.2l-.6 1-2 4.3-.2.6-.1.3-1.6 3.7-.4.9v.1l-.6 1.6-.2 2 .2 1.3v.2l.4 1.9.5.8.6.7a4.4 4.4 0 00.7.5l.4.2 1.1.6.9.5.3.1 1.7 1 1.5.5.6.2.4.2h.2l1.6.6a21.7 21.7 0 004.2 1l.7.1 2.3.4h.7l1.7.3c1.2.1 2.5.5 3.7.8h.2l.6.2a63.5 63.5 0 007 1.2H168.6l1.5.1h.7l.5-.2h.1l.6-.3c.4-.3.6-.5.8-.9 0-.3.2-.7.1-1l-.1-.7-.4-.9v-.1l-.7-1.3-.6-1-.4-.9-.8-1.3v-.2l-1.2-2.1a12 12 0 01-.6-1.3l-.5-1.6-.2-1.2v-.5a18.8 18.8 0 01.5-2.8l.2-1 1.4-2h-.1l1.4-2.3.9-1.6.3-.6 2.2-4.3v-.1l.7-1.1a248 248 0 005.9-12.4 20.3 20.3 0 001-4.1V202l-.3-1.8c-.2-.7-.6-1.4-.9-2l-.7-1a30.6 30.6 0 00-4.6-5 113.3 113.3 0 01-1.6-2l-.7-.7-.2-.3-.9-.9-.2-.2-.6-.6-.3-.2-.7-.6a198 198 0 00-3.5-2.7l-2.5-1.9-2.5-2-.2-.2-1.3-1-3.4-2.8-4.5-3.5a60.4 60.4 0 01-3-2.8l-.7-.6c-.4-.4-.6-.8-.8-1.2l-.2-.4-.1-2v-.1-1-1.5h.1v-.2c.7-1.5 1.2-3 1.7-4.5v-.4l.4-1v.2l.4-1.6a35.5 35.5 0 011.7-5 87.7 87.7 0 015.3-10.7 212.4 212.4 0 015.4-7.5 82.3 82.3 0 015.8-5.7l1.4-1c.1-.2.2-.2.4-.3 1-.8 2.5-1.7 4-2.6l2.2-1.3.4-.2.3-.1.3-.2.2-.1h-.1a125 125 0 014.2-2l.8-.4 1.4-.6 2.1-.8 1.1-.4c.9-.3 1.8-.5 2.6-.9l2-.8.5-.3c.6-.3 1.2-.6 1.8-.7h.7v.1l.2.2.2 1.8a7 7 0 001.2 3.1l1 .9.7.2h.2a4.7 4.7 0 001.5 0 7.4 7.4 0 003-1.4l.4-.3a9.8 9.8 0 00-.5 2.7 7.8 7.8 0 00.3 2.9l.4.9.5.7a9.1 9.1 0 001.4 1.3l1 .6 1.8.7 1.7.3 3 .3H214.8l1.9-.4a7.7 7.7 0 003.3-2 8.9 8.9 0 002.1-3.1l.8-.2h.1a14.7 14.7 0 003.7-1.4c.5-.3 1-.7 1.4-1.2a6.7 6.7 0 001.6-2.8v-.7c0-.7 0-1.4-.2-2.1l.2-.2.7-.7a7.1 7.1 0 001.5-6zM41.3 72.5a101 101 0 01-2.7.7H38l.5-.8 1.4-2 1.2-1.8 1.5-2.1.1-.2v-.1a34.7 34.7 0 014-5.4l1.5-2 .4-.4v-.1l1-1.2.5-.6v-.2l.2-.1.8-1a29.8 29.8 0 013-3.4l.2-.3 1.5-1.5.8-.8.5-.6.8-.8.5-.5a17.1 17.1 0 013.7-2.6l2-1.3 1.7-1 .4-.3a51.8 51.8 0 016-3.3l.1-.1 1-.5 1.5-.6h.5v-.1h.2l2.5-.7h.4l1-.2h.7l.3-.1h.1l1-.1h.3l.8-.2h.2l-.5-.1H82l-1.8-.4-1.2-.3H75.5a14.5 14.5 0 00-2 .1h-.2l-.6-.4h-.1l-1-.6-.3-.2-4.2-2.5-3-1.5-1-.6-.6-.3-3.2-1.6-1.4-.7-.5-.2-.2-.1H57l-.6-.4h-.1l1.4-.5.3-.1a33.5 33.5 0 017-1.6h.1l4.4-.7h.4l.7-.1 1.4-.2 2.5-.3H75a105.3 105.3 0 014.1-.6h.3a583.1 583.1 0 004.3-.2 121.3 121.3 0 018.6.3l2.2.2h.1l1.5.1h1l.9.1h.3l3 .3h.5l4.7.9 2.5.5a73.7 73.7 0 001.4.3l.7.2 2.5.4.6.1h.5l.4.1.5.1h.4l1 .3h.3l.5.2.4.1c.3 0 .5.2.8.3h.2l.3.2h.3A13 13 0 00115 24l-.4-.1a58.3 58.3 0 00-3.7-8.5 60.5 60.5 0 00-10-11.7l-.3-.3h.2l.5.2.2.1.5.2.9.3h.2a57.8 57.8 0 018 3.8h.3l.1.1.7.4 3.8 2 1 .6h.1l.3.2.3.1 1 .7h.1l.3.2.3.1c.4.4 1 .7 1.5 1a257 257 0 013.8 2.8l2.1 1.5.2.1.7.6.3.2h.1l.6.5a60.1 60.1 0 015.3 5l1.7 1.7 3 3.4 1.6 2 1.2 1.7.1.3.2.2v.1h.1l.2.5.3.3.4.7.2.3.1.3.4.6.6 1.1 1 1.8.1.3 1 2 .2.3c.4.7.7 1.3.9 2a6.9 6.9 0 010 .7v.5a4.4 4.4 0 00.3-3c-.1-1-.3-2-.7-3 .3-.4.4-.9.6-1.3l.8-2.4a49.2 49.2 0 001.7-9.5 50.7 50.7 0 00.3-6.7v-.4-.9c1 1 1.8 2.2 2.7 3.4a132.8 132.8 0 017.7 11.5l.3.6 1.4 2.6a62.8 62.8 0 011.8 3.7l.2.6a129.8 129.8 0 012.5 6.4l.7 2 1 3.8c.4 1.5.7 3 .8 4.4v1.1l.1.5V63l-.1 1.4v.4l-.2.5V65.6c0 .4 0 .8-.2 1.3l-.2.9v.4a15.6 15.6 0 001.4-2.7l.4-1v-.2l.4-1 .1-.2.3-.3.8-1.2a50 50 0 003.8-6.1l.1-.2 1-2 1.5-2.7.1-.3.3 2 .4 4.6.1 3V65.3l-.2 1.3-.1.8v.2l-.8 4.7-.4 2.1v.2l-.5 2-.5 2.2-.5 1.9v.1l-.1.1-.1.4-.6 1.6-.2.6-.3.7-.2.6-.2.5-.2.4-.7 1.9-.2.5v.1l-.3.5c-.3 1-.8 1.8-1.1 2.6l-.4.6h-.2a9.1 9.1 0 00-3 1.5l-.8.8v.1l-.6.6-.6.7-.1.1v.1l-.1-.3-.3-2.4a152.1 152.1 0 00-1.9-10l-.7-2.2c-.5-1.6-1.2-3-1.7-4.3l-1.4-2.7.3 1.8.4 2.8v.2l.7 4.5.3 1.3.2 1a186.2 186.2 0 01.4 2.3V88.4h.1l.3 1.7v.4l.3 2.1.2 2.4.2 2.5a260.3 260.3 0 01.3 6.3V104.7c0 .8 0 1.5-.2 2.2v.3l-.2.5v.4l-.1.3-.3.9-.3.7-.2.6-.2.2-.6 1.3-.2.3-1.1 2-.1.2-.5.8-.4.6-.4.7-.1.1-.8 1.2a39.3 39.3 0 00.3-7.3v-1.1-1-.2l1.2 1.3.2.2.5.6v.1l.7.5.2.2-.5-1.3-.1-.5-.6-1.6-.8-1.7-.2-.5-.6-1.2a43.5 43.5 0 00-2.7-4.4l-.7-1-.6-.8-1.2-1.8v-.2l-.6-.9v-.1h-.1c0-.2-.1-.2-.2-.3l-.4-.8V94l-1.2-2.2-.3-.6V91l-.1-.2c0-.1 0-.2-.2-.3 0-.3-.2-.5-.3-.7l-1-2.5-.8-2-.8-2.5a120.3 120.3 0 01-1-4.8l-.4-2.2c-.2-1-.3-2.1-.3-3.1v-.2l-.2-1.3-.3-2.6-.2-1.6v-.7-.7l-.1-.5v-.6-.6l-.3-2.4v-.2l-.3.9-.4 1.5v.2l-.3 1v.3l-.3 1a24.2 24.2 0 00-.3 5v2l-.5.8-1.3 1.8-.2.4h-.1l-.4.5-.2.4a53.3 53.3 0 00-1.8 2.2l-.2.2-1 1.1c0 .2-.3.4-.4.5l-.2.2-.6.7-.4.5-.5.5-.2.2-.9 1-.6.5-.3.3c-.6.5-1.3 1-1.9 1.7a133.9 133.9 0 01-4 3.5 25.5 25.5 0 01-8.5 4.4l-1.3.5-.7.2-.6.2h-.1l-1 .2a164.2 164.2 0 00-8.6 2c-.8 0-1.5.2-2.2.4h-.3l-.7.1h-.1l1-2.1 1-2.1.3-.5v-.1l.1-.1.7-1.4 2-4.1.6-1.2h.1l1.1-2.4.4-.8a74 74 0 011.8-3.4l.1-.2.4-.8a50 50 0 002.6-5.9l.2-.3.4-1.3.1-.5.4-1.4.1-.4.4-1.5.1-.3a101 101 0 00-5.8 9.8l-.7 1.2-1.3 2.3-1.3 2.4v.1l-1 1.6-.8 1.4-.1.2v.1c-.2.1-.2.3-.3.4l-.6 1-.7.2-.6.2-.4.2h-.2a35.7 35.7 0 01-2.8 1l-.5.2-2.3.8-.2.1-.3.1-1.2.4-1.8.6h-.2l-1.6.5h-.4l-1.9.4h-.2l-1 .2-1 .2a5 5 0 00-.4 0l-1.7.2h-.5l-2.2.2H83l-1.8.1h-2l-1.7.1h-.2l1.2-2.2 1.6-3.2.5-1a32.1 32.1 0 012.4-4.3l1-1.6v-.1l1.3-2 .2-.4 1-1.7.8-1.5.3-.7.5-1.3.3-.8.1-.4.6-2 .4-1.3.3-1.5c-.1 0-.2 0-.3.2h.1l-.5 1a99.7 99.7 0 00-1 2l-.4.7-1.2 2.1-.5 1-1.4 2.2-.5.8-.2.2v.2l-.5.6-1.3 1.8-1.3.8-1.9 1.2-.2.1-1 .6h-.1l-.8.5-2 1v.1a5019 5019 0 01-5 2.5h-.3l-.7.4h-.1l-.2.1-.3.1-.7.3-.5.2-1.8.6a325.5 325.5 0 01-7.7 2.4h-.2l-3 .6-2 .1h-.6l.1-.8.4-2.5.9-4.6 1-4.7v-.1l1.2-4.6.2-.7.1-.2a104 104 0 012.5-6.6 31.3 31.3 0 013-5.6l.4-.5.2-.3.5-.7.2-.3 1.3-1.6.1-.1a93.8 93.8 0 012.3-2.5v-.1l.3-.2.6-.6.2-.2a127.2 127.2 0 013.6-3l2-1.5h.1l1.9-1.4 1.2-1h.1a151.5 151.5 0 002.3-1.8h.1l.8-.6 1.8-1.4.2-.2c-.5 0-1 .2-1.6.4h-.2l-.9.2-1.3.5h-.2l-.8.3h-.1l-2 1-2.6 1.4-1.7 1.2-.2.1-2 1.5-1.6 1.3-.3.2-1.8 1.7-.2.2h-.1l-.6.7-.5.5-.5.5a40.5 40.5 0 00-2.8 3.5l-.3.4-.6 1-.8 1.1-1 1.9-.2.2-.4.8-.3.6-.4.6-.9 2v.2c-.2.3-.3.5-.3.8l-.2.3c0 .3-.2.6-.3.8v.3l-.3.6h-.3a20 20 0 01-3.2.5l-3 .3c-1.9.3-3.7.8-5.6 1.2zm72.3 90.2v.2a13.6 13.6 0 00-.8 6 7.2 7.2 0 00.4 2.4 7 7 0 001.5 2.2 4.3 4.3 0 00.5.4l.3.3-1.6.2-.6.1-1.5.3-.3.1h-.3l-.7.2H110.2c-.4.2-.9.3-1.3.3a40.7 40.7 0 00-1.3-7.4l-.6-2.3-.2-.7a50 50 0 00-.6-1.7h.4l1.2-.3 1.2-.1h3.5l.2-.1h.9zm-1.5-2.6h-.2l-.6.3a13.2 13.2 0 00-2.7.6l-.3.1h-.1l-.8.4-.5.3h-.2l-.5.3-.3.2-.4-1v-.2l-1-2c0-.2 0-.4-.2-.6a49 49 0 00-1-2l-.5-1.1v-.2a15.4 15.4 0 003.6 1.1l.5.1 1.4.3H109.2a15.3 15.3 0 003.5 0l.7-.1h.2l.5-.1h.3l.6-.2a24 24 0 004.8-1.6l.5-.3 1.4-1 1.4-1.6.8-1 .5-.7.1-.2a16.4 16.4 0 001.3-2.2c.3-.7.5-1.6.7-2.5a5.9 5.9 0 00-.3-2.6l-.5-1-.6-.7-.7-.5-.6-.3a4.6 4.6 0 00-1.1-.2c-1.1-.2-2.3 0-3.4.4-.6.2-1.3.5-2.1 1-.3 0-.6.2-1 .4l-2 1-1.7.8-.8.5h-.1l-.5.3-1.5.7h-.1l-.4.2-.4.1c-1 .4-1.9.8-2.9 1l-1.3.2h-3.6c-.9 0-1.7 0-2.8-.2H98l-.7-.1h-.5a60.5 60.5 0 00-8.9-8.6 53.7 53.7 0 00-25.3-10.7 17.5 17.5 0 01-1-3.2v-.2l-.2-.5v-.3l-.2-.7-.2-.9v-.5l-.2-.7c-.2-1.1-.3-2.4-.3-3.8l-.2-1.9a57.5 57.5 0 010-7.8l.1-1.5v-.2l.1-.4c.2-1.5.2-3.1.1-5v-.4-.1c.4-1.5.4-3 .1-4.6V94v-.5h.3l.1-.1 1.5-.5 2.6-1c.4 0 .9-.2 1.3-.4l3-1.1 1.2-.5.7-.3h.1v-.1h.1l.2-.1 2-1 2.5-1.3.2-.2.6-.3a47.6 47.6 0 002.2-1.5l.1-.1a61 61 0 00-2.4 4.1L75.8 91l-.2.3c0 .2-.2.3-.3.5l-.2.3v.2l-.2.1-.5.9-.5.7-.1.2-.3.4c-.2.5-.3 1-.1 1.5.1.3.3.6.5.7l.4.2.5.2H76l2.2-.2 1.5-.1 3.4-.3H84l.2-.1H84.5l.7-.1 2.6-.4 2.1-.3 1-.2h.3l.1-.1 1-.2.5-.2a22 22 0 002-.5l.6-.2 1.7-.6.5-.2a46.2 46.2 0 006.3-2.7h.1a86.6 86.6 0 00-2.9 5.2l-.7 1.4-.4.7-.1.2-.3.5-.1.3-.2.4v.6a1.9 1.9 0 00.6 1.2c.3.3.7.4 1.2.5h1c.4 0 .8 0 1.3-.2h.2l1.2-.3 4-1 .3-.1h.2l.4-.2 2.1-.6 2.6-.7.8-.2c.5 0 .9-.2 1.2-.3h.4l1-.4.7-.2h.1l.3-.2h.3l.1-.1.6-.2.5-.3.9-.3 1.6-.7.6-.3a25.6 25.6 0 005.3-3.3l2.2-1.9.4-.3 1.4-1.3.3-.3.1-.1h.1l1.6-1.5.5-.5.6-.5.5-.5V85l.2-.1.8-1c.2 0 .4-.3.5-.5l.3-.3 1-1 .4-.7.2-.2.1-.1.6-.8.8-1.3 1.6-2.9.5-1.2v1l.2 1.2v1.1l.1.4v.1l.1.5v.1l.2.7.1.7.6 2.5v.3l.6 2v.4h.1l.2.8.2.5.3.8.8 2 .2.3c0 .3.2.5.3.8l.2.4.4 1 .9 1.7v.2h.1l1.2 2.3.7 1.3.5.6.2.4 1.2 1.8.5.6v.2a56.8 56.8 0 004 5.1l.2.1v.1l.5.5-.3 1.5v.3l-.2.6-.3 1.5-.6 3-.2 1.1-.2 1.3-.5 2.6-1 4.5-.7 2.6-.6 2v.1a46.1 46.1 0 01-3.8 8.7 85.1 85.1 0 01-4.5 7.2l-1.1 1.4-1 1.1-.7.5a24.3 24.3 0 01-2.7 1.9 126.3 126.3 0 01-10 5.2l-2 .9-4.6 1.6-4.3 1.1h-.1a73.3 73.3 0 00-6.6 2zm-11.5-9l.4-.1.7-.2h.1l.4-.1h.2l1.6-.5.6-.2.4-.1a110.9 110.9 0 011.1.1h.5l.2.1a13.7 13.7 0 003.4 0c.5 0 1 .1 1.4.3h.5l.3.2.6.1h.2v.1l.8.2h.2l.5.2.6.2 1 .5h.1l1.1.8h.1l-.1.1-.3.1a24.8 24.8 0 01-4 1H102l-1-1.5-.7-1.2.2-.1zM50.3 81.7l-.1-.5-.3-1.5-.6-2.6-.4-2.5-.1-1H49c.3-.2.6-.2 1-.3l.2-.1 1-.3.6-.3c.3 0 .6-.2 1-.4l-.2.6a48.9 48.9 0 00-1.5 5.3l-.3 1.2a71.6 71.6 0 00-.5 2v.4zm.8 15.2v-.7-.9h.6l.2-.1h.6l.5-.1 1-.1 1.3-.2h.2l.6-.2.6-.1.7-.2h.4l.4-.2h.3l.3-.1h.2v.1l-.2.5v.2l-.1.6-.2 1.4-.2 2v.2l-.2 1.8V101.4l-.5-1-.3-.5-.6-.8-.3-.3A8.1 8.1 0 0054 97l-.3-.1-.8-.2h-1.1a6 6 0 00-.6 0H51zm-4.5 10.7c0-1 .2-2 .4-2.8.4-1 .7-1.8 1.2-2.6a9 9 0 011-1.2l1-.7 1.5-.6 1.2-.1H53.6l.7.4h.1l.9.5a10.2 10.2 0 012.6 2.6l-.6 4.3v.4l-.7-.8-.8-.8-.1-.2-.9-.7-.1-.1-1-.5v-.1l-1-.5h-.3l-1-.4.2.2.2.2 1 1.2 1.4 2.3c.4.7.8 1.6 1 2.6l1 3a82.6 82.6 0 011 4l.1.7v.2a14 14 0 00.7 3.6l.3.9v.1l1.2 2.2.3.5.1.1h-.1-.1-.2-.1l-.2-.1h-.3l-.6-.2a15 15 0 01-3.4-1.6l-.9-.6c-.8-.5-1.5-1.1-2.3-2l-.4-.4-.3-.3-.2-.3-.4-.6-.4-.6-.2-.3-.4-.6v-.1l-.7-1.5-.7-1.6a30.4 30.4 0 01-1-3.2v-.2l-.2-1.1v-1l-.1-1.6zm-16.3 23.8c.7-1 1.5-1.8 2.3-2.7l.3-.2v-.1l.5-.4.6-.6v-.2c.6-.5 1.2-1 1.6-1.6l.2-.1.7-.8a31.4 31.4 0 011.5-1.4h.1a23.9 23.9 0 002-2l.3-.2.2-.3.2-.1.4-.5.9-.7.6-.5.8-.7.3-.3h.1l1.2-1.1.5-.4.2.4v.2l.9 1.6.4.7.2.3.1.3.3.5.1.1.2.3.2.3.2.1v.2l.3.3.5.5c0 .2.2.3.3.4l.3.4.4.3a11.3 11.3 0 004.4 2.5l.3.1.7.2h.1c-2 0-3.9 0-5.8.2H49l-1 .2c-2.7.3-5.5.9-8.4 1.7l-.5.1-.4.1a57.8 57.8 0 00-5.9 2.3h-.1l-1.6.7-.5.2-1.1.6-.2.1 1-1zm18 101.4a53.8 53.8 0 01-21.6-7.7l-.8-.6-.8-.5-1-.8-1.1-.8c-.2 0-.3-.2-.5-.3l-1.4-1.1a46.2 46.2 0 01-5-4.7l-.2-.3a52.8 52.8 0 01-4.1-5.2l-.6-.7a55 55 0 01-7.7-17.5A56.8 56.8 0 012 179a58.4 58.4 0 013.3-16.4 53.4 53.4 0 015-9.9l.7-1.1A54.9 54.9 0 0125.7 137l2.2-1.4 2.2-1.2.9-.5 1-.5 1.6-.7h.1l1.2-.5h.1l.8-.4.9-.3h.3l1-.5a48 48 0 0111.3-2.3c2.3-.2 4.7-.3 7.3-.2a57.3 57.3 0 0116.5 3.3 54.8 54.8 0 0120.2 13.5 51.5 51.5 0 0113.8 32.7v4.5c-.2 4.6-1 9.2-2.2 13.6l-.2.6a51.7 51.7 0 01-14.5 22.6l-.6.6a54.3 54.3 0 01-22.9 11.9 57.8 57.8 0 01-18.4 1zm42.1-4l-1.6 2.4-1 1.3-1.4 2-1.4 2h-.1l-3.1 4-.1.1-2.8 4.3-1.2 1.8-.5 1-1.7 2.4c-.4.5-1 1-1.5 1.3l-2 1.3-1.8.9-.5.2h-.1l-1.8.9-.3.1-2.6 1.1h-.1l-2 .7-2.6.8c-.2 0-.5 0-.7.2h-.3a70.4 70.4 0 00-2.5.6h-.2l-1 .3h-.2l-1.9.5-2.9.7-2.4.7H48l-2 .6h-.4l-.1.1a25.8 25.8 0 01-5 .5c-1 0-2 0-3-.2h-.2l-.6-.1h-.1v-.3l.4-1.2a13.3 13.3 0 011.7-2.6l2.9-3.1.3-.4a24 24 0 011.8-1.7v-.1l1.9-1.5.1-.1.4-.2v-.1l1-.5 3-.8h.7l.7-.1H54.6a42.3 42.3 0 002.8-.1h.7l.2-.1h1l2.6-.4h.1l.8-.1.3-.1h.3l-.7-.2-1.6-.5h-.2l-1.3-.5-1.2-.4-2.3-.5-2.5-.4h-.3c-.8-.1-1.5-.2-2.2-.1a10 10 0 00-1.4.1l-.6.1H49c1-1.3 1.8-2.8 2.3-4.6l.6-2.7v-.4l.1-.9a9.6 9.6 0 00.1-1.2h4.7a56 56 0 0024.7-7.1 8.7 8.7 0 001.8.6l1.2.2h.5a12.3 12.3 0 004.7-.3l.6-.2h.1zm6-9.1c-1.5 2-2.8 4.2-4.2 6.3l-1.3.2h-1.6l-1 .1-2.8.4-1.2.2h-.4a49 49 0 0012-10.4h.7l.8.1h1.2l-2.2 3zm22-27.9a17.8 17.8 0 00-4 .7c-.3 0-.6.2-1 .4-.5.2-1 .6-1.5 1h-.1 2.2l1 .2h.6l.2.1.6.2H117l.4.2h.2l-1.5.5-.3.2c-.9.4-1.6 1-2.2 1.5a31.8 31.8 0 00-5.3 6l-3 4.2c-.9 1.1-1.7 2.3-2.4 3.4l-.5.7-.6.9-2.2 3-.4.1H98a6 6 0 00-1 .3h-.2a52 52 0 007.5-12.3 55.3 55.3 0 004.7-25.2l-.1-1.8a18.3 18.3 0 002.1 1.1l2.4 1a22.8 22.8 0 002.7.7l-.2.4a15 15 0 00-.7 3.5V184a19.2 19.2 0 00.3 2.5 12.4 12.4 0 001.8 4l.5.8.4.5zm52.1 30.4v.2l-.2.2-1 1.8-.3.6-1.8 3.6-.4 1-.2.4-.2.6-.2.5-.2.7-.2.5-.2.7-.2.5a37.7 37.7 0 00-.6 2.2l-.2.9-.2.4v.1l.6-.6.2-.2.5-.5a10.3 10.3 0 00-.5 1.9v.4l-2-1.2-.8-.4a9.4 9.4 0 00-2.8-.7l-1.1-.2H158.2h.1v.1h.1l.3.2.5.5 1.6 1.4.2.1.6.6.3.2.3.3.6.6h.1l.6.5.5.6a5.1 5.1 0 00.2.2l.6.5.5.5.3.3.2.3.3.2v.2h.1v.1l.1.2.8 1.5.3.8.6 1.2v.1h.1l.8 1.6v.2l.2.3h-.8a51.8 51.8 0 01-4.1-.7h-.2l-3.3-.8-1.2-.4-2.3-.5-1.6-.3h-.6a103.1 103.1 0 01-6.1-1.3l-.5-.1-.6-.3-1.5-.5-.8-.2-1.3-.5-1.5-.7h-.2l-.3-.2-1-.5h-.3v-.1h-.1l-.2-.1a7.6 7.6 0 01-1.3-.6l-.2-.1a7.5 7.5 0 01-.5-3c0-.3 0-.8.2-1.2l.6-1.5.4-.8a140.2 140.2 0 002.8-6.7l.4-.9.1-.1v-.2l.2-.1c0-.3.2-.5.3-.8l.3-.5v-.1l.7-1.5.8-1.5.4-.7.2-.5h.1l.5-.5.1-.1.1-.1.6-.4.1-.1a16.3 16.3 0 012.7-1.4l.5-.2 1.4-.5.8-.3 2.2-.6 1.8-.4.7-.2 2.2-.4h1.1l1-.1H173.3l.5.1h.2l-3.4 6.5zm.2-29.2l.5-.4 2 2.2 1.5 1.4v.1a119.6 119.6 0 012.4 2.5 6.5 6.5 0 011.5 2.8 9 9 0 01-.2 4.5 31.2 31.2 0 01-2 4.8l-2 4.1-.1.1a8 8 0 00-2-1 15.1 15.1 0 00-3.3-.8l-2.7-.5h-.6a21.9 21.9 0 00-6.8.1l-2 .4h-.2l-.3.1-2 .5-.6.1h-.1.3l.6-.3 2-1 1.6-.8.5-.3a42 42 0 002-1.2 59.1 59.1 0 003.7-2l1-.6.3-.1.3-.2h-.4a63.6 63.6 0 01-2.9.5l-1.6.3-.9.2h-.2l-.8.2-.3.1-.4.1-.1.1-1 .3-1 .5h-.1l-1.4.7-.3.2-.3.1-2 1-.2.1-.3.2h-.1l1-1 1.3-1.5.9-1 2-2.4.3-.3.1-.2.7-.7.5-.6.2-.2h-.1l-.5.2-.4.2-.3.2h-.1l-2 1 .2-.2.5-.5.4-.3.6-.5.3-.4 1.9-1.9a63.6 63.6 0 015-4.5l.5-.4.6-.4 2.3-1.7.4-.3 2.7-1.7zm-10-64.4l-.1.1c-.5.6-1 1-1.4 1.7a70.5 70.5 0 00-4 5.5l-.2.3-1.5 2.3-1.3 2.2-2 4-.1.3a77.8 77.8 0 00-4.1 11.4 22.3 22.3 0 00-.6 5.2 20.4 20.4 0 00-.7 1.8l-.1.4-.1.3-.1.2-.1.2-.2.5-.6 1.3-.4.8v.2h-.1a44.6 44.6 0 00-1.7 4v.1l-.8 1.4v.1c.6-.2 1.4-.6 2-1.1l1.7-1.7.3-.4.2.3.1.1.4.7.9 1a37.6 37.6 0 002.8 2.5l.1.1.6.5 2.6 2 .2.2.3.3h.1v.1l.2.1 3.4 2.7.5.4.6.4 2.4 2 .1.1.8.7 3.8 3 .3.2.3.2.3.3 1.2.9.4.3.7.5.3.3.4.3.2.2a27.3 27.3 0 011.1 1l.5.5v.2a18.9 18.9 0 00-8.1 3.7 43 43 0 00-3.7 3.2l-1.1 1v.1l-.5.5-1.6 1.6-.4.3-.6.6-.3.2-.5.6-1.9 2a164.7 164.7 0 00-4.2 6l-.3.6-.4.8v.1l-.2.2a41.7 41.7 0 00-4.4-3.6l-.8-.6-1.7-1.2-1.6-1-1-.7-1-.7h-.1v-.1a52 52 0 01-1.7-1.2l-3.2-2.4-.6-.6a91.5 91.5 0 01-2.6-2.1h-.1l-.3-.3a44.2 44.2 0 00-2.5-2c-.2 0-.4-.2-.5-.3l-1.5-1h-.2.2a32.4 32.4 0 002.8 0h.4l.9-.1h.4l1-.2h.5l1-.2h.3a22.2 22.2 0 00-11-3.2l-.2-.4a18.6 18.6 0 01-1.7-4l-.5-2.4v-.2l-.1-1v-.3-.4-.6-1.3-1.3l.1-1H117.1l1.5.2h2.2a40.4 40.4 0 006.6-1.1l.2-.1a42 42 0 01-1.8-.4l-.4-.1-2.3-.5h-.2l-.5-.1h-.3l-.3-.2h-.2.4a29.5 29.5 0 004.8-1.6c.4 0 .8-.2 1.1-.4h.2l1-.4 1.6-1 .6-.4.7-.5h.1l.2-.2-.6.1-1.7.3-1.2.1-1.2.1a63.9 63.9 0 00-4.3.3h-.3l-1.9.4h-.6l-.3.1-.8.2c-.4 0-.9 0-1.4.2H117l-.7-.6-.9-1.1a8.8 8.8 0 01-1.1-3.8v-.5l-.2-1.2-.1-1.6-.1-1v-.2-.3-1h1l3.6-.8h.1v-.1l1-.2.5-.1a36.7 36.7 0 004-1.2 121.8 121.8 0 007.9-3l2.6-1.4.7-.4h.2l4.2-2.3 2-1.1 1.1-.7.7-.5.3-.2.8-.7.2-.1.6-.5.4-.5.7-.8.8-1a74.3 74.3 0 005.2-8.4 46.8 46.8 0 002.7-6.1l.1-.4a38.6 38.6 0 001.5-5.7l.5.1h.3l.3.2a23.3 23.3 0 001.8.3h.2l1 .1h1.1l-1.4 1.5zm11.7-12.8a28 28 0 01-3.3 4.2 42.9 42.9 0 01-3.2 2.3l-1.3.6a88.8 88.8 0 01-4.8 2l-2 .4h-.5-.1l.1-.5.9-4.6.2-.2 2.2-1.5 2-1.9s0-.2.2-.3l.2-.2.2-.3.9-1.3.6-1 .5-1.1a22.5 22.5 0 001.6-4.6l.6-.6.7-.8a23.3 23.3 0 012-1.9l1-.4h2.8c-.7-.6-1.3-1.1-2-1.4l-.4-.1a3.7 3.7 0 00-1-.1 5 5 0 00-1.5.1c-.4.1-.8.3-1.2.7l-.6.5-.1-1.4-.1-1.9v-.4l-.2-2.8.1-.1 1.2-1 .6-.3.2-.2.2-.1.6-.4a9 9 0 014.3-.8l.5.1h.2l.8.4.8.7.4.5.8 2.6v2.6c0 .9 0 1.7-.2 2.6v.3l-.3 1.2v.5l-.4 1.7c-1 2.5-2.2 5-4.2 8.2zm8.3-.4l-.8.4h-.1a69 69 0 00-4.6 2.2l-.3.1-.2.1a35 35 0 003.1-6.3 96.2 96.2 0 001.6-4.9l.1-.4.1-.4.1-.5a34.3 34.3 0 00.6-4.9v-.2V99c0-.7-.2-1.3-.4-2v-.3a11.3 11.3 0 00-.8-1.7c-.2-.4-.3-.7-.6-1a6.9 6.9 0 00-3.2-2 5 5 0 00-.6-.2H173.8l1.1-1.5 3 .4h.4l.3.1a123.4 123.4 0 004.8.5h3.9a15 15 0 00-1.9 1.8l-.8 1c-.3.2-.5.6-.7 1-.1 0-.2.1-.2.3l-.2.2a9 9 0 00-.8 1.6 28.1 28.1 0 00-1.9 7v.2l-.2 2 .1 2.6c.1.9.3 1.7.6 2.4v.1l.6 1.5.3.5.5 1-2 1zm4.5-1.6l-1.7.4v-.3l-.2-.4-.2-.7-.5-2.6-.1-1.4v-.8-.4-1.5l.2-1.6a36.9 36.9 0 011-4.5l.6-1.5.5-1 .3-.6.6-1.2v-.1a57.2 57.2 0 011.7-2.5l1-1.4.4-.3h.7l.7.1h.8l.7.2h.2a22.6 22.6 0 002.8.3h-.4l-1.1.5-.9.4h-.1l-1.5.9c-.6.5-1.2 1-1.8 2l-.7 1a22 22 0 00-2 5.5h-.1v.4l-.2.3v.7l-.3 1.3v2.6a12.3 12.3 0 00.4 2.9l.7 2.4.1.2v.1c-.5.3-1.2.4-1.6.6zm6.7-1.3H191.3l-.3.1H190.7l-.4.1-2.4.4h-.1v-.3c-.2-.5-.2-1-.2-1.5V109l.2-1.6v-.7l.3-2.1.2-1.3.2-.8a33.5 33.5 0 011.1-3.2l.4-.8v-.1l.2-.5.7-1.5 1.2-1.5 1.5-1.4 1.5-1 .7-.4 1.6.2h1.7l1 .2h.2a10.4 10.4 0 00-1.7.7l-.2.1-.7.5a8 8 0 00-.9.6l-.3.3v.1l-.6.6-.7.9a44.8 44.8 0 00-3.6 6.3 10.9 10.9 0 00-.6 2.5l-.3 2.4c0 1.3.1 2.4.5 3.2l.2.7a25.3 25.3 0 00.4.7l.1.3zm38 .7v.1l-.2.4v.2l-.2.4-.2.3v-.4c-.4-1-1-2.1-2-3.1a15 15 0 00-2.2-2l-.4-.2-.7-.5.3.6.7 1.3.7 1.4.2.5.2.4v.2a8 8 0 01.7 3 19.1 19.1 0 010 1.7l-.6 1.3-1.5 1.6-2 1.6-.2.2v-.4c.1-.5.2-1 .1-1.6v-1.5l-.4-1.5v-.2a18.4 18.4 0 00-.4-1.4c0-.4-.2-.7-.3-1l-.2-.5v-.3a62 62 0 00-.4 2.2l-.2 1.4v.1l-.7 3c0 .3-.3.7-.4 1l-.4.8-1.4 1.6-1.2 1c-.4 0-.7.2-1 .3a15.2 15.2 0 01-4.6 0 21.3 21.3 0 01-2.5-.4c-.6-.1-1-.3-1.5-.6l-.7-.6-.4-.5-.3-.9a12.7 12.7 0 01.3-6.1l1.3-1.3c.7.5 1.3 1 1.8 1.6l.2.1.2.3.5.4.3.3.7.6c0-1-.2-1.9-.4-2.6-.3-1-.8-1.9-1.5-2.7a10 10 0 00-4.4-3c-.8-.3-1.6-.6-2.3-.7l-.6-.1h-.3-.6H200.2v.1h.2l1.2 1v.1l.2.1.2.2a56.5 56.5 0 002.7 2.3l.4.3.7.7h.1l.1.1-.6.6h-.1l-.4.5-.3.2-1.6.5-1.5.4-.8.2a21.4 21.4 0 01-2.2.5l-.6-.8-1-2.3-.6-1.2-.4-1h-.1a9.4 9.4 0 00-1-1.5c0-.2-.2-.3-.3-.4l-.3-.3-.1-.2v.7a11.2 11.2 0 01.4 2.9 3.3 3.3 0 00-1-.3h-1V112l-.1-2c0-1.2.3-2.4.6-3.5v-.2l.2-.6v-.3a23 23 0 015.6-9.7l.7-.6 1-.8c.6-.5 1.3-.9 1.9-1.2l.8-.4h.4l.8.1h.1l.4.1 2.3.5.3.1.7.3h.4a9.6 9.6 0 01.7.4h.2l2 1h.1l1.2.5A72.4 72.4 0 01219 99l1.7.9 1 .6h.2l.2.2.5.3.2.1.6.4v.1l1.5 1.2.1.1 1.3 1.1.1.1.1.1.5.5.1.1.4.4v.1a14 14 0 011.9 2.7 7.1 7.1 0 01.4 5.2zm-22.8 1.6z" fill="#494375"/>
  <path d="M108.2 46.7h.2l.2.1.2.1.3.1.7.3.2.1a93.3 93.3 0 013.6 1.5l.7.4h.2l1.6.7 1.4.6 2.2 1 3.3 1.2h.1l.2.1.7.3c.3 0 .6.2.8.3l.7.3.8.4 1.2.7-.4-.7-.4-.5-.7-.8-.5-.5a22.5 22.5 0 00-6.2-4 24.9 24.9 0 00-11.3-2.5H106.3c.3 0 .5.2.8.3l1 .5zM92 48.3h.3a46 46 0 015.6 1.4h.5l1 .4 1 .2.9.2a71.5 71.5 0 016.7 2c2.7.7 5 1.2 7.3 1.6l-3-2-.5-.4a150.4 150.4 0 00-2.6-1.4 21.6 21.6 0 00-4.1-1.7l-.8-.2-2-.5-3.1-.6h-.4a23.5 23.5 0 00-5.6 0l-1 .2H91.9a41.5 41.5 0 00-2.2.5h.4l1.8.3zM86 52.7l-1.3.5-2.4 1.2h2.1l1.2.1h.8l1 .1 3.2.2h1.3l1.3-.1c1.5 0 3-.2 4.5-.5l-1.2-.6-.3-.2a11.3 11.3 0 00-3.3-1.2l-.4-.1h-.6a16.7 16.7 0 00-4.5.3H87a8.7 8.7 0 00-1 .3zM123 136h.3l1.6.2.7.1.6.1 1.9.2H130l.4-.1a14.3 14.3 0 003.8-1l.3-.1h.1l.2-.2.4-.1.1-.1 1-.5.3-.2.3-.1h.1v-.1l.2-.1.4-.2.2-.1c1.2-.5 2.4-1.1 3.7-1.9l.4-.2.3-.3.7-.5.8-.6a85.6 85.6 0 004.4-4.4l.6-.8a23 23 0 001.5-2.2l.3-.7.4-.8.3-.5v-.2l.4-.8v-.2l.3-.7v-.4a12 12 0 00.4-2v-.3-.2-.4-.8-.3l-.2-1.2v-.2a10.1 10.1 0 00-1-2.5 15 15 0 00-1.4-2.4c0-.2-.2-.3-.3-.4l-.8-.9-.3-.3-.2-.2.1-.1h.1l.8-.6.4-.2.2-.3.5-.4h.1c0-.2.2-.2.2-.3h.1l.2-.2-.7.2h-.2l-.5.2-.5.2-2.1.5-1.2.3-1.1.3-.3.1-2.1.7h-.3v.1l-2 .6-4 1.5h-.1l-.1.2H135.3l-1.2.5-.9.3-1.5.5-.3.1-.4.2-1 .3-1.9.6-.2.1h-.1v.1h-.1l-.8.3h-.3l-.1.1-.3.1-1.9.7h-.4v.1l-.5.1-.3.1-1.3.4a35.4 35.4 0 01-1.3.3h-.1l-.6.2h-.1l-1.4.4-1 .2-1.6.5a36 36 0 00-3.9 1.5l-2.8 1.6-.3.3 1.3-2.9.3-1v-.2l.3-1.1v-.3l.1-.4-.2.3-.3.4-.2.4-.2.3-.5.7-.1.2-.1.1-.5.6-.6.8-.2.1-.9 1v.1l-.1.1-.1.1-.4.4-.6.7v.1h-.1l-.4.6h-.1l-.4-.7v-.1l-.1-.2-1-2-.8-2.2-1.2-2.8-.6-1.4v-.1.6c0 3 0 6.1 1.1 9l.3.5v.2l.3.4h-.3l-.1-.1-.5-.4a13 13 0 01-.7-.9l-.2-.3-.5-.7v-.2c-.2-.1-.2-.3-.3-.4v-.1h-.1l-.1-.2-.2-.4a16.4 16.4 0 00-.6-1l-1.2-2v-.1l-.7-1.2-.3-.5-1.1-1.8h-.1v-.1l-.1-.1-.1-.2v-.1a8 8 0 01-.5-.7v.9l.2 1.4a23 23 0 00.9 4c0 .3.2.6.3.8v.2l.3.6a29.2 29.2 0 00-4.5-2.5l-1-.4-.1-.1c-1-.8-2.2-1.5-3.3-2.2h-.1l-.3-.3-.4-.2-.1-.1-1.4-.9-1.4-.9-.1-.1h-.1l-.1-.1-1-.7-1-.6h-.1l-.5-.4-1-.7a27 27 0 01-1.3-.8l-.3-.2-1.2-1-1.7-1.1-1-.7a40.4 40.4 0 00-5.1-2.7h-.2l-.7-.3-.2-.1h-.2l-.3-.2h-.2l-.8-.4-.6-.2H66l-.4-.2-.3-.1h.1a41 41 0 002.4 2.5l.6.6h.1l.2.2v.1h.1l-.3.1-1 .4a8.3 8.3 0 00-3.7 3l-.8 1.3-.2.4a9.5 9.5 0 00-.7 5v1.1l.4 1.3v.2a9.7 9.7 0 00.8 2.1 13 13 0 001.3 2.3l1.3 1.7.2.2 1 1 .7.8a46.4 46.4 0 003.7 3.2 26 26 0 002.7 1.7l.2.1.2.1.3.3 1.2.9h.2l.4.3.6.3.3.2a7.5 7.5 0 00.8.3c.3 0 .5.2.8.3l.5.1h.2a34.4 34.4 0 003 .8l1.4.1h3c.8 0 1.5-.2 2.1-.4l.5-.1a14 14 0 005.1-2.7v-.1h.1l.7-.2h.2l.1-.1h.4a286 286 0 012.5-.4h.2l.6-.1h3l1.1.3 1.4.2.7.2.3.1h.2l.2.1.5.2 1.2.5.2.1.4.2h.2l.2.2h.1l.8.5.5.2.6.4a30.9 30.9 0 003.2 1.5l2.4.6.3.2.3.2 1.6 1h.4l.5.2.2.1h.2l.2.1.2.1h.2l.8.3H122.4l.2.1.4.1zm19.2-26.6v.2-.2zm-7.9 3l2.8-1 1.5-.7.6-.2 1.1-.4h.2l1.1-.5.5 1.4.7 2.3.2 1.2v.5l.1.1v.4l.1.8V118l-.1 1.5-.3 1.8v.4l-.2-.5v-.3h-.1v-.2l-.1-.1-.1-.4-.1-.2c-.2-.2-.3-.6-.4-.9l-.3-.5-.4-.6v-.2a9.6 9.6 0 00-2.7-2.8 4 4 0 00-.4-.3l-.2-.1-.5-.3-.2-.1-.4-.3-1-.5-2.2-.7.8-.3zm-51.5.9a8 8 0 00-2.6 1l-.7.7-1.1 1.4c-.7 1-1.2 2-1.5 3.2l-.4 1.7-.1 1.2V124l.2 1.5a26.3 26.3 0 01-2.4-2.7l-1-1.6A17.8 17.8 0 0171 113v-1l-.1-3V108.1l.1-1.1.2-1.5.2-.8a16.8 16.8 0 002.9 2l.1.1 1.4 1 .4.2a80.9 80.9 0 007.2 4.7h.1l.4.3-1.1.2zm13.8 9.3l-1 1.3.2-1.1v-1l-.1-1.2 1.6.6v.2a9 9 0 01-.7 1.2zm15.4-3.3v-.1.1zm9.7-.9l-.4.7-.5 1.6v.1l-.3 1-.2 1.3-.1 1v2.7c0 .8 0 1.7.3 2.5l.5 1.5v.4l.2.3.2.4.1.2.3.6.3.4-.6-.2c-.2 0-.4 0-.6-.2h-.1l-.5-.2a9.7 9.7 0 01-1.9-1.2 21 21 0 01-2.5-2.2 14.8 14.8 0 01-2.4-3.4l-.1-.1v-.2c-.3-.3-.4-.7-.6-1.1l-.3-1.2a21.6 21.6 0 01-.1-.9V121.8l-.1-.2a1.5 1.5 0 01-.1-1.6v-.8-.2h.2l1.4-.4 1-.3 2.3-.7.6-.1 2.8-.8h.4v-.1a32 32 0 001.9-.4h.2l-.6.8-.7 1.3z" fill="#494375"/>
  <path d="M230.3 111a7 7 0 00-.7-3 16.4 16.4 0 00-1.9-2.6v-.1l-.4-.4-.2-.2-.4-.4h-.1v-.1l-.1-.1-1.3-1.2h-.1l-1.5-1.2v-.1l-.7-.4-.1-.1-.5-.4h-.2l-.2-.2-1-.6-1.7-.8-3.2-1.7-3.2-1.5-1.1-.6-2-.9H209.3l-.3-.2-.5-.2-.4-.1-.7-.2-.2-.1-2.3-.5-.4-.1h-.1l-.8-.1h-.2l-.3-.1-.7.4-2 1.2-.9.8-.6.6h-.1A16 16 0 00197 98a34 34 0 00-2.8 4.8l-1 2.7v.3l-.2.6v.2c-.3 1.1-.6 2.3-.6 3.5l.1 2V112.5a6.1 6.1 0 011.5.1l.4.2v-1.3l-.3-1.5-.1-.8.1.2.3.3a13.7 13.7 0 011 1.1l.4.8v.1a22.3 22.3 0 011 2.1 58.8 58.8 0 001.7 3.2 8 8 0 002.1-.5l.9-.3a75.6 75.6 0 013.1-.8l.3-.3.4-.4.7-.7-.2-.1-.7-.6-.4-.4-1.4-1.1-1.3-1.2-.2-.1-.2-.2-1.3-1-.2-.2h1.5l.7.1 2.3.7a10 10 0 014.4 3c.7.8 1.2 1.7 1.5 2.7.2.7.4 1.6.5 2.7h-.1l-.7-.7-.3-.2-.5-.5-.2-.2-.2-.2-1.8-1.6-1.3 1.3-.3 1.7-.2 1.8c0 1 0 1.8.2 2.7l.3.8.4.6.7.5 1.4.7h.5a21.4 21.4 0 002 .4h.1l1.9.2c.8 0 1.7 0 2.6-.3.4 0 .7-.2 1-.4a7 7 0 001.3-.8l1.4-1.7.3-.7v-.1l.5-1 .6-3 .3-1.5.3-2.1.1.2.2.5.3 1 .1.4a14 14 0 01.6 2.7l.1 1.5a6 6 0 01-.1 1.6l-.1.4c.1 0 .2 0 .3-.2l2-1.6 1.5-1.6.6-1.2v-.7-1.1c0-.7 0-1.2-.2-1.7l-.4-1.2-.1-.3-.2-.3-.2-.5v-.1l-.7-1.4-.7-1.2-.4-.7.8.5.4.3a10.2 10.2 0 012.2 2c1 1 1.6 2 2 3v.4l.1-.2.2-.5.1-.2.1-.3v-.2l.4-2.2zM108.2 161.2l.1-.1.3-.1 1.2-.3 1.5-.3.6-.2h.2a73.3 73.3 0 016.5-2h.1l4.4-1.2a134.8 134.8 0 008.7-3.5l4-2.1a93.8 93.8 0 007.2-4.5 21 21 0 002.1-2.5 52.7 52.7 0 008.3-15.8v-.1l.7-2.1a160 160 0 001.6-7.1l.6-2.6.2-1.2.2-1.2.6-3 .3-1.5v-.6l.1-.3.3-1.5-.4-.5-.2-.2a39 39 0 01-3-3.7l-1-1.4v-.2l-.5-.6-1.3-1.8-.1-.3-.5-.7-.7-1.3c-.5-.7-.9-1.5-1.2-2.3l-.1-.1v-.1l-1-1.7-.4-1-.2-.4c0-.3-.2-.5-.3-.7l-.1-.4-.8-2-.3-.8-.2-.5-.2-.8-.2-.4-.5-2v-.3c-.3-.8-.5-1.6-.6-2.5l-.2-.7v-.7h-.1v-.6l-.1-.1v-.4l-.2-.7V77 76l-.1-1.1-.6 1.2-1.5 2.9-.9 1.3-.5.7v.1l-.2.1-.1.2-.5.6-1 1.1s0 .2-.2.3l-.5.6-.9.9h-.1v.2l-.6.4-.5.6-.6.5-1.5 1.4h-.1l-.1.2-.3.3-1.4 1.3-.4.3-2.3 2a26.8 26.8 0 01-5.3 3.2l-.5.2-1.7.8-.8.3-.6.3-.5.2h-.1l-.4.1-.2.1h-.1l-.7.3-1 .3-.4.1-1.2.3-.8.2-2.6.7-2.1.6-.4.1h-.3l-.2.2-4 1-1.2.3h-.2a8.5 8.5 0 01-2.4.2 2 2 0 01-1.1-.5l-.3-.4c-.2-.2-.3-.5-.3-.8v-.6l.1-.4.2-.3.2-.5.1-.2.5-.7.6-1.4a62.3 62.3 0 013-5.3h-.1l-.8.5-.2.1-1 .6-4.3 1.6-.5.2-1.7.6-.6.2-2 .5-.5.2-1 .2h-.4l-1 .3-2.1.3-2.6.4H84l-.2.1H83l-3.5.4h-1.4L76 97h-.4H74.8l-.6-.2-.3-.2c-.3-.2-.5-.4-.6-.7-.1-.5-.1-1 .1-1.5l.3-.4.1-.2.5-.7.6-.9v-.1l.2-.2v-.2l.1-.1.4-.5.1-.2 1.1-1.9.6-1 .6-1 1.2-2-.3.2-.7.5a23.6 23.6 0 01-1.8 1.1l-.2.1h-.1a77.9 77.9 0 01-4.4 2.4h-.2l-.1.1h-.1l-.8.4-1.2.5c-1 .4-2 .8-2.9 1a7309.8 7309.8 0 01-4 1.5l-1.4.5h-.1l-.4.1v.7a12 12 0 010 4.7v.3a38.8 38.8 0 01-.2 5.5v.2l-.2 1.5-.1 2.2a48 48 0 00.2 5.6l.1 2c0 1.3.2 2.6.3 3.7l.2.7v.5l.2 1 .2.6v.3l.2.5v.2l.3 1.3.7 1.9a56.4 56.4 0 0116.8 5.3 54.2 54.2 0 0117.4 14H98l.2.1 2.7.3H101.4a58.1 58.1 0 002.7 0h.1v-.1h.2l1.4-.2c1-.2 2-.6 2.8-1l.4-.1.4-.2h.1a15 15 0 002-1h.1a17.6 17.6 0 012.5-1.3l2.1-1 1-.5 2-1a7.2 7.2 0 014.2-.2l.4.1.5.3a3.4 3.4 0 011.3 1.2 5.4 5.4 0 01.8 1.9v1.7a10.4 10.4 0 01-1.2 3.5l-.7 1.3h-.1l-.6.9-.8 1a12.7 12.7 0 01-2.8 2.5l-.5.3-2.4 1-2.3.6-.7.2h-.8l-.2.1h-.6v.1h-.7c-1 .2-1.9.2-3 0h-.7c-.5 0-1-.2-1.4-.3h-.6a23.6 23.6 0 01-3.6-1.2v.2a40.8 40.8 0 011.6 3.1l.2.6.9 2v.2l.4 1c.2 0 .2-.1.3-.2l.5-.2.2-.1.5-.3.9-.2zm-1.2-25.5h-.2v-.1h-.2l-1.1-.4-1.1-.4-1.2-.3h-.5l-.4-.2-.6-.1h-.2l-.2-.2-.6-.1h-.2l-.2-.1a15.8 15.8 0 000 1.1v2.8l.1 1.3-.3-.5a15.4 15.4 0 01-2-4.3v-.5-.3-.7l.1-.4.3-.4.4-.4.3-.2h1.8l.2.2h.3l.2.1.1.1h.2l1 .6 1.1.7h.1l.2.2.6.5h.2l.2.3.6.5a29.5 29.5 0 011 1.2zm16.3.3h-.4l-.3-.1h-.2l-.2-.1h-.1l-.8-.3h-.2l-.3-.1h-.1l-.1-.1h-.2l-.1-.1-.6-.2-.3-.1a12 12 0 01-1.7-1l-.2-.2-.4-.2a18.5 18.5 0 01-5.6-2l-.5-.4h-.1l-.4-.3-.8-.4h-.2l-.2-.2h-.1l-.4-.2-.3-.2-1.1-.5a6 6 0 00-.8-.2h-.1l-.3-.1a12.6 12.6 0 00-2.1-.5l-1.1-.2h-.2l-1.1-.1h-2.5l-1 .2h-.6l-.9.3h-.5l-.2.1-.7.2-.2.1c-.3.4-.8.7-1.2 1l-1.6.9-2.2.8-.5.1-2.2.4H86.4 83.1l-.7-.2-2.4-.6h-.2l-.5-.2-.8-.3h-.2l-.6-.3-.3-.2-.6-.3-.3-.2-.2-.1a13.4 13.4 0 01-1.6-1.2h-.2l-.2-.1-.3-.2a26 26 0 01-5-3.7l-1.1-1-.7-.8-1-1-.1-.2a17 17 0 01-3.2-5.2v-.2l-.3-.8v-.1a14.2 14.2 0 01-.4-2v-.6a13.2 13.2 0 01.3-3.8l.4-1.1.2-.4a19.1 19.1 0 011.6-2.4 11.6 11.6 0 011.5-1.1 8.3 8.3 0 012.5-1.2h.2v-.1h-.1l-.2-.2-.7-.7-1-.9-.3-.3c-.4-.4-.8-.8-1-1.2l-.1-.1h.2l.4.2.2.1.7.3.8.2.2.1.3.1h.1l.1.1h.1c.3.2.5.3.8.3l.1.1a25 25 0 015.2 2.7l1 .7a44.2 44.2 0 012.9 2l.4.3 1.2.8 1 .7.5.3.2.1 1 .6.9.7h.1l.2.2 1.4.9 1.4.9h.2l.3.3.2.2h.2l3.2 2.2.2.2a23 23 0 013.4 1.5l2 1.3c0-.2 0-.3-.2-.5v-.2c-.2-.3-.3-.5-.3-.8l-.3-.7-.2-.8-.5-2.5-.1-1.5V109.6l.4.6v.2l.1.1.1.2.1.1 1.1 1.8.3.5.7 1.1a47 47 0 011.4 2.4l.5.8c0 .1 0 .2.2.3v.2h.1v.2l.3.4v.1a8.9 8.9 0 001.4 1.9l.5.4.2.1.2.1-.2-.4v-.2l-.3-.6c-1-2.8-1.1-6-1.2-8.9v-.7.1l.7 1.5 1.1 2.7v.1l1 2.2.8 2 .1.1.1.2.3.6c.2 0 .4-.3.5-.4l.1-.1.7-.8.4-.4v-.1l.1-.1 1-1v-.2h.1l.1-.1.6-.8.5-.5v-.1l.2-.2v-.1l.4-.6.3-.4.2-.3.3-.4.2-.3v.3l-.1.3-.3 1.1v.2l-.3 1c-.3 1-.8 1.9-1.4 3l.4-.3a24 24 0 012.8-1.7l1-.4.9-.4a28.7 28.7 0 014.6-1.4l1.3-.4h.2l.5-.1h.1a19.5 19.5 0 01.8-.2l.6-.2 1.3-.3.3-.1.4-.2h.1l.4-.1 1.9-.7h.3l.4-.2.8-.3h.2l.2-.1 1.8-.7c.4 0 .7-.2 1-.3l.5-.1.3-.1 1.5-.6.9-.3 1-.4H135.5l.1-.1h.2l.1-.1 4-1.5 2-.7h.3l2-.8h.4l1-.4c.5 0 .9-.2 1.3-.3a62 62 0 012.6-.7h.5v-.1h.2l.6-.2h-.1v.1l-.3.2v.1l-.5.5-.3.2-.3.2-.9.6-.3.1.3.2.3.3.8.9.4.4.9 1.5.5 1 .4 1 .2.3.2 1.1.1.2.2 1.2v2.1a7.8 7.8 0 01-.3 2v.3l-.3.7-.1.3-.3.8v.1l-.3.5-.4.9-.4.7a13.7 13.7 0 01-1.4 2.1l-.7.9a29.2 29.2 0 01-2.5 2.6l-1.9 1.7a38.4 38.4 0 01-1.4 1.2l-.4.2-.4.3c-1.2.7-2.5 1.4-3.7 1.8l-.1.1h-.1l-.3.2-.2.1h-.1c-.1.2-.3.2-.4.3l-.2.1-1 .5-.2.1-.4.2h-.1l-.1.1-.4.2c-.3 0-.7.2-1.1.4l-2.6.5h-.1a34 34 0 01-1 .1h-.1H128l-1.8-.1-.7-.1-.6-.1-1.7-.2zM157.8 125.3a72 72 0 003.5-.8l1.5-.7 1.8-.9 1.3-.6 1.6-1a43 43 0 003.4-3.3l1.5-2.2c2-3.2 3.3-5.7 4.1-8.3l.4-1.6v-.2-.4l.3-1v-.4l.3-2.6v-.1-.8-1.8c-.3-.8-.5-1.7-.9-2.5l-.4-.5-.8-.7-.8-.4h-.2l-.4-.1h-.4l-2 .1-2 .7-.5.4-.2.1-.2.1-.6.4-1.2 1h-.1l.1 2.8v.5l.1 1.9v1.4h.1l.6-.5c.5-.4.9-.6 1.3-.7a5 5 0 012.5 0h.3l2 1.5h.1H172.1a4.7 4.7 0 00-2.2.4l-.6.4-1.3 1.4-.1.1-.7.8-.6.6-.5 2v.1a15 15 0 01-1 2.5l-.6 1.1-.6 1a25.7 25.7 0 01-1.1 1.6l-.1.1-.1.1-.2.3a21.6 21.6 0 01-4.2 3.4l-.2.1a246 246 0 01-.9 4.6v.7l.6-.1zM46.7 110.2l.2 1v.3l.4 1.4a28.3 28.3 0 001.2 3.3v.1l.7 1.5.1.1.4.6c0 .1 0 .2.2.3l.3.6.4.5.1.1.2.3.3.3.3.4c.9.9 1.6 1.5 2.4 2l.9.6a13.8 13.8 0 003.4 1.6 16 16 0 001.2.3h.4v-.1l-.4-.5a13 13 0 01-1.1-2.2v-.1l-.4-1a38.7 38.7 0 01-.7-3.5v-.1-.7l-.3-1.2-.8-3-1-3a16.7 16.7 0 00-3.4-6l-.1-.2-.2-.2 1 .3.2.1 1 .5 1 .6.1.1.9.7.2.1.7.8.7 1v-.4l.6-4.4a13.6 13.6 0 00-2.6-2.7l-.8-.4h-.2a14 14 0 00-.7-.3l-.4-.1H53a6.7 6.7 0 00-2.7.7 7 7 0 00-1 .7c-.4.3-.8.8-1 1.2-.5.8-1 1.6-1.2 2.5a12.8 12.8 0 00-.4 4.5v1z" fill="#FFB390"/>
  <path d="M101.1 152.4l.9 1.5H110.9a16.5 16.5 0 002.2 0h.1l2.1-.4 1.9-.6h.3l.1-.1-1.2-.8-.1-.1-1-.5-.6-.2-.5-.1-.2-.1-.7-.2h-.1l-.2-.1-.6-.2h-.3l-.5-.2-1.4-.2a14.1 14.1 0 01-3.5 0H106.4l-.3-.1h-.4l-.6-.1h-.6l-.5.2-1.6.5h-.2l-.4.2h-.1l-.7.2h-.4l-.3.1.8 1.3z" fill="#B91452"/>
  <path d="M41.3 72.5a59 59 0 015.6-1.2l3-.3 1.8-.2 1.4-.2h.3l.2-.7.1-.3.3-.8.2-.3.2-.8.1-.2 1-2 .2-.6.4-.6c0-.3.2-.5.4-.7l.1-.3 1.1-1.9.7-1.1.7-1 .3-.4a23.4 23.4 0 012.8-3.5l.5-.5.5-.5.6-.6v-.1l.2-.2 2-1.7.2-.2 1.6-1.3 2-1.5.2-.1 1.7-1.2a37 37 0 014.6-2.3l.1-.1.8-.3h.2l1.3-.5.8-.2H79.8c.6-.2 1.1-.4 1.6-.4 0 0-.2 0-.2.2l-1.9 1.3-.7.6-.8.6-1.6 1.2-1.3 1L73 50h-.1a132 132 0 00-3.7 2.9l-1.8 1.6-.3.2-.6.6-.2.3h-.1l-.6.7-1.7 1.9-1.4 1.7-.1.2h-.1l-.5.8-.2.3-.3.5a104.7 104.7 0 00-3.2 5.6l-.9 2.2-1.5 4.4v.1l-.3.8-1.2 4.6-1 4.8-.9 4.6-.4 2.4-.2 1h.7a68.6 68.6 0 005-.8h.1l3.7-1 4-1.4 2-.7.4-.1.6-.3h.1l.3-.1.2-.1h.1l.7-.3.3-.2a41.9 41.9 0 004-1.9l1-.5a161.5 161.5 0 012.7-1.6h.1l1-.6.3-.2 2-1.2 1.2-.7 1.3-1.8.4-.7.1-.1.1-.2.6-.9 1.4-2.2.5-.9 1.2-2.1.3-.7.5-.9.6-1.1.5-1v-.1h-.2v.1h.1l.2-.3h.1l-.3 1.5-.4 1.3-.6 2-.1.4-.3.9-.5 1.3-.4.7a71.3 71.3 0 01-1.7 3.1l-.2.4-1.3 2v.1l-1 1.7a105.6 105.6 0 00-2.4 4.2l-.5 1c-.5 1-1 2.2-1.7 3.3l-1.1 2.2h1.8l1.6-.1h.5l1.7-.1h.4l2.2-.1h.4l1.8-.3h.5l.8-.1 1-.2h.3l1.9-.4h.2l.2-.1 1.7-.5h.2l1.7-.6 1.2-.5h.4v-.1h.2l2.3-.8.5-.2.7-.2 1.3-.5.7-.3h.2l.4-.2.7-.2.7-.3.5-1 .3-.3v-.2l.1-.1a71.1 71.1 0 001.8-3v-.1l1.4-2.5 1.3-2.3.6-1v-.1l.5-1a149.6 149.6 0 015.4-9l-.1.4a54.2 54.2 0 01-.5 2l-.4 1.4-.2.4-.4 1.3-.1.4a27.8 27.8 0 01-1.5 3.7l-1.1 2.1-.4.8-.2.2a75 75 0 00-1.7 3.4l-.4.7v.1l-1.2 2.3h.1l-.1.1-.6 1.2-2 4.1-.7 1.3-.1.2-.3.6a44.1 44.1 0 00-2 4.3l.7-.1.3-.1 2.2-.4 4-.9 4.7-1 .9-.3h.2c.1 0 .4 0 .6-.2l.6-.2 1.3-.4 4.9-2.1 3.6-2.4 1.8-1.5 2.3-2 1.8-1.7.3-.3.6-.6 1-1h.1l.5-.6.5-.5.5-.6.2-.3.5-.5.9-1 .2-.3.4-.5 1-1.1c0-.2.2-.4.4-.6l.3-.4.3-.4v-.1l.4-.4 1.2-1.8.6-.8v-1.9a50.5 50.5 0 01.5-6.3l.2-1 .1-.2.4-1.6.3-.9v.3l.3 2.4v.5a129.5 129.5 0 010 1l.1.8v.7l.2 1.6.3 2.7.2 1.2v.2l.3 3v.1l.4 2.2a200.5 200.5 0 001 4.8l.9 2.5.7 2a73 73 0 001.4 3.2l.1.3.1.2v.1l.3.6 1.2 2.2v.1l.4.8.2.3.1.1.5 1 .2.1 1.2 1.8.5.8.7 1 1.4 2.2 1.3 2.2.6 1.2.3.5.7 1.7.6 1.6.2.5c.1.4.2.9.5 1.3l-.3-.2-.6-.5-.6-.6-.2-.2a51.3 51.3 0 01-1.2-1.2v1a268.4 268.4 0 010 6l-.4 2.5.1-.1.8-1v-.1l.1-.2.5-.7.4-.6.4-.8.1-.2 1.1-2 .2-.3.7-1.3v-.2l.3-.6.3-.7.3-1v-.1l.2-.5v-.5l.1-.3c.2-.7.2-1.4.2-2.2v-.7-1.4a274.4 274.4 0 00-1-12V90l-.3-1.7V88l-.1-.4-.3-1.6-.1-.7-.2-.9c0-.5-.2-1-.3-1.4l-.6-4.4v-.2l-.5-2.9c0-.7-.2-1.2-.3-1.8a73.6 73.6 0 013.8 9.2 55.7 55.7 0 011.6 7.5l.3 2.5.3 2.4v.4l.1-.2.1-.1.6-.7.5-.5.1-.2a6.3 6.3 0 012.4-1.6 7.2 7.2 0 011.7-.6c0-.3.2-.5.3-.7l1.2-2.5.1-.5.1-.1.2-.6.7-1.8.2-.4.2-.5.3-.7.2-.6.3-.7.5-1.5.1-.5a47.2 47.2 0 001-4v-.1l.5-2v-.1l.4-2.1.8-4.8v-.2l.1-.8.2-1.2v-.3l.1-1.6v-1.1-.9-1.1-.6a91.4 91.4 0 00-.8-9.6l-.2.3-1.4 2.8-1 2h-.1v.1l-1.2 2.1a59.8 59.8 0 01-3.5 5.2l-.2.4h-.1l-.4 1.1v.3l-.4 1a13.3 13.3 0 01-1.6 2.6l.1-.3.3-1 .1-1.3v-.2l.1-.5v-.1-.4l.2-1.3v-.5l.1-1v-1.2-.3-.2-.8-.6-.5l-.1-1.1-.8-4.4a48 48 0 00-1-3.8v-.2l-.7-2-.8-2-1.7-4.4-.3-.5a35.6 35.6 0 00-3.2-6.4l-.2-.4v-.1l-2.3-3.6a135 135 0 00-5.4-7.9l-2.8-3.5V20.8a119.6 119.6 0 01-.3 5 57.1 57.1 0 01-2.4 11.8L147 39l.7 3c0 .6.2 1.1.1 1.6 0 .5-.1 1-.4 1.4v-.5-.1-.6c-.2-.7-.6-1.3-.9-2l-.2-.4a75 75 0 00-1-2l-.2-.2a127.8 127.8 0 01-1.6-3l-.3-.5-.2-.3-.1-.2-.5-.8-.2-.4-.2-.3v-.1h-.1v-.1l-.2-.3-.2-.2-1.2-1.7a87.6 87.6 0 00-4.5-5.4L134 24a64.9 64.9 0 00-3.4-3.3l-1.8-1.6-.6-.5h-.1l-.3-.3-.7-.5-.2-.2-2.1-1.4L123 15l-2.2-1.5-1.4-1-.4-.2-.2-.1V12l-1.1-.6-.3-.2-.3-.2-1.2-.6-3.7-2-.7-.3V8l-.3-.1-3.9-2-4.2-1.7-.2-.1-.9-.3-.5-.2h-.2l-.5-.3h-.2l.3.4a106.5 106.5 0 0110 11.7 49.2 49.2 0 013.7 8.4l.4.1a13.2 13.2 0 014.6 2.9l-.6-.3h-.2l-.8-.3a10 10 0 00-.9-.2l-.3-.1-1-.2h-.4a19.7 19.7 0 01-.8-.2h-.6l-.6-.2-2.4-.4-.8-.2-.7-.1-.7-.2-2.5-.5-4.7-.8-.5-.1-3-.2H98l-.8-.1-1-.1-1.5-.1h-.2a71.1 71.1 0 00-6.6-.5h-4.2c-1.2 0-2.5 0-3.9.2H79.1a105.3 105.3 0 00-4.1.5H74.6l-.1.1-2.5.3-1.4.2H70h-.2l-.2.1-4.3.7h-.1a154.5 154.5 0 00-7 1.6h-.3v.1l-1.5.5.7.3.3.2.5.2 1.4.7 3.2 1.6.6.3 1 .5a112.5 112.5 0 017.2 4l.2.2h.1v.1l1 .6.7.4h.7a11.8 11.8 0 012.2-.2H79l.2.1 1.2.3 1.7.4h.3l.4.1h-.1l-.9.2h-.2l-1 .1h-1.1l-1 .2h-.2l-.3.1-2.4.7h-.2a9.7 9.7 0 00-2 .7l-1 .5h-.2L69.8 40l-3.6 2.2-.4.3-1.6 1a98.8 98.8 0 01-4 2.5c-.7.4-1.3.9-1.8 1.4l-.5.5-.8.8-.5.5-.8 1-1.5 1.4-.2.3-1.6 1.7L51 55l-.9 1.1v.1l-.2.2-.4.6-1 1.2v.1l-.4.5-1.4 1.9c-1 1.1-2 2.4-3 3.8l-1 1.6-.2.3-1.4 2.1-1.2 1.7a142.3 142.3 0 00-2 3h.5l.1-.1.5-.1 2.2-.6zm128.2 8.2l1.3-4.6a25.5 25.5 0 012.4-4.7l.8-1.5 1-1.7v.1l.3-.6.5-.9a23.2 23.2 0 01.6 7.7l-.1.8-.6 2-.8 1.7a12.7 12.7 0 01-3.7 4.4l-2.8 1.7c.2-1.5.7-3 1-4.4zm-17.8-37.5a29.8 29.8 0 018.6 7.3l-.8-3-.4-2.4-.5-2.4-.5-2.1-.4-1.3-1-3.3-1.4-3.7 4 3.1c1.1 1.1 2.3 2.4 3.2 3.7a34.3 34.3 0 012.6 5.1 30.1 30.1 0 011.8 11.9 20.2 20.2 0 01-1.3 5.4l-.8 1.6-.9 1.2a7.7 7.7 0 01-.8 2.2 6 6 0 01-.9 1.3l-1.3 1h-1.3.1l.6-.4.4-.6.2-.6.2-1.3a14 14 0 00-.6-3.2c-.4-1.6-1-3-1.7-4.5l-2.1-4.4-3-6.4-2-4.2zm-33.2 17.2a41 41 0 00-3.7 2.7l-2 1.5-1.7 1.6-1.1 1.1-1 1a98 98 0 01-6.4 6.3l.5-1.8c.4-1.5.8-3 1.4-4.5.6-1.6 1.3-3.2 2.2-4.7l.7-1 .5-.8-.7.4-1.8 1-1.6 1-1.5 1-1.7 1.1-4 2.8-4.2 2.4a125.2 125.2 0 002.5-4.6 29.6 29.6 0 012.8-4.3L94 64.1c-2.7 1.2-5.4 2.3-8 3.6l-2 1-2.2 1.3-4.2 2.2a47.5 47.5 0 015.2-7.6 25.7 25.7 0 017.9-5.8l3-1.4a27.6 27.6 0 0112-1.4l.8.1 2.5-.8 2.3-.4a72.9 72.9 0 012.9-.2 31 31 0 015.8.7h3l.6.1c1 .2 2.1.6 3.1 1-2 .7-3.9 1.5-5.7 2.5l-2.5 1.4zm-31-8.1a17.1 17.1 0 014.4-.3h.6l.4.2a11 11 0 013.3 1.2l.3.2 1.2.6a26.8 26.8 0 01-5.8.5 25 25 0 01-4.5 0l-1-.1h-.2-.4-.2l-1.2-.2h-2.1a23.2 23.2 0 013.7-1.7l.4-.1.6-.2.4-.1zm2.3-4.3l.5-.1 1.6-.3H92.2l1-.2a23.5 23.5 0 015.6 0h.4a33.2 33.2 0 015.1 1 23.2 23.2 0 016.3 2.7l1.2.7.6.4c.9.5 1.8 1.1 2.9 2a193.6 193.6 0 01-14.8-3.8h-.1l-.9-.3-1.1-.3-.5-.1-2.2-.6-3.3-.7H92a42.2 42.2 0 00-2.2-.4zm16.5-2.1a21.1 21.1 0 011.7 0 90.1 90.1 0 013.9.4 26.4 26.4 0 0110.9 4l2.7 2.1.5.5.7.8.4.6.5.6-1.3-.7-.8-.4a8 8 0 00-.6-.3l-.9-.3-.7-.3h-.1l-.2-.1-3.3-1.3-2.2-.9-1.4-.6-1.6-.7h-.2a2279.2 2279.2 0 00-3.2-1.4l-1-.4-.2-.1h-.1l-.6-.3-.4-.2h-.1l-.3-.1h-.1v-.1a26.3 26.3 0 00-2-.8zm34 25a14.8 14.8 0 01-1.9 4.4 26.9 26.9 0 01-5 6.4l-.8.6-1 .7-1.1.8-1.2.8c-.7.4-1.4.8-2.1 1l-1.3.5-1.8.5h-3 .2a22 22 0 002.7-1.9c1-.7 1.8-1.6 2.7-2.4l1-1 1-1.1 1-1.2 2.3-2.3a45.5 45.5 0 013-3l1.6-1.6a42.5 42.5 0 004.2-4.9 22 22 0 01-.6 3.7zm-21.5-51l-3-3.6a6192.6 6192.6 0 017 2.8l2.4 1.3a44.7 44.7 0 014.2 2.9c.7.5 1.3 1 1.8 1.6l2.3 2.2 1.6 1.7a19.4 19.4 0 013.2 4.6c1.2 2 2 4.2 2.4 6.5l1 1.4a17 17 0 012.3 13 12.3 12.3 0 01-2 4.7c-.2-1.3-.3-2.7-.7-4a39 39 0 00-17-22.2h.4a46.5 46.5 0 017.1 1.1l.4.1-3-3.2-1.3-1.4-.8-.7a29.8 29.8 0 01-2.5-2.5l-.3-.3.2.3a69.8 69.8 0 01-5.7-6.3zm-36.5 9L78 27.5l3.7-1 4.5-.6a52.1 52.1 0 0110 .6l5.3 1.2h-.5.5l.3.1h-.3l1.8.4c2.2.6 4.5 1.2 6.5 2.2a23.8 23.8 0 016.3 4.7c1.6 1.6 2.9 3.4 4 5.2l-2.6-.9-3.9-.3c-.9 0-1.7-.2-2.6-.3l-4.7-.6-2.3-.1-1.3-.1h-1.3.1-.8a41.8 41.8 0 00-8.4 1h-.4l-1.9.8-1.8.7-1.9.8-1.9.6 1.1-1.3c.4-.5.6-1 1-1.3a18.6 18.6 0 013.2-3.7l.8-.7a23.1 23.1 0 014.8-2.3l-.6-.1-2.3-.5-5.6-1.6-2-.7-2.5-.8z" fill="#6F65DD"/>
  <path d="M167.5 195l-2.2 1.7-.6.4-.5.3a38.7 38.7 0 00-3.7 3.2l-1.3 1.4-2 2-.3.2-.6.6-.3.3-.5.5-.2.2a33.2 33.2 0 012-1l.4-.2.4-.2c.1 0 .3 0 .4-.2h.2l-.3.2-.5.6-.6.7-.2.2-.2.3a112.5 112.5 0 01-5.3 6l.4-.3h.2a35 35 0 012-1l.3-.3h.3l1.4-.8h.2l1-.5.9-.3h.1l.4-.2h.3l.8-.3h.2a16 16 0 012.5-.5 111 111 0 002.9-.4l.4-.1c-.2 0-.3.2-.5.3l-1 .6-1.6.9-2.1 1.1a21.4 21.4 0 00-2 1.2c-.3 0-.4.2-.6.3l-1.5.8-2 1-.7.2-.3.2h.2l.6-.2 1.9-.5h.5l2-.5a36 36 0 017.5 0c.9 0 1.8.3 2.6.4l2.4.6c.4 0 .7.2 1 .3l1.2.5.7.4a166.3 166.3 0 004.1-9c.3-.8.4-1.7.5-2.6a9 9 0 00-.2-2 6.2 6.2 0 00-1.5-2.7l-1.1-1.3-1.3-1.2-1.5-1.5-2-2.2-.6.4-2.6 1.7-.5.3zM88.2 226.3h1.1a39.5 39.5 0 002.9-.3l4.2-6.3c.7-1.2 1.5-2.3 2.2-3.1h-1-.2a17.4 17.4 0 01-1.3-.1H96A54 54 0 0184 227a55.8 55.8 0 014.2-.7z" fill="#FC5968"/>
  <path d="M19.2 204.7l.4.6A43.2 43.2 0 0033.8 218a43.9 43.9 0 0035.7 2.7 45.2 45.2 0 0013.9-8.6 40 40 0 009.4-13l.1-.2.1-.2a44.1 44.1 0 004-16.4 46 46 0 00-4.9-21.5l-.5-1a38.4 38.4 0 00-5.7-7.7c-2.5-2.7-5.3-5-8.3-7l-.4-.3c-2.5-1.6-5.2-3-8-4l-1.4-.5-.4-.1-.3-.1c-2-.6-3.6-1-5.3-1.3l-1.2-.2a12.4 12.4 0 00-1.4-.1 50.7 50.7 0 00-8.6-.1 41.2 41.2 0 00-16.2 4.9 44.4 44.4 0 00-14.2 12 49 49 0 00-6.6 13 40.8 40.8 0 00-1.3 5.3v.5a42 42 0 00-.5 5V181.8a52.7 52.7 0 001 8.6 45.7 45.7 0 006.4 14.3z" fill="#E4FBFF"/>
  <path fill-rule="evenodd" clip-rule="evenodd" d="M54 164s5.4 4.6 15.7 4.8c0 5.3-.2 10.7-1.5 15.8-2 7.8-7.6 10.8-14.1 13-6.5-2.2-12-5.2-14.1-13a61 61 0 01-1.5-15.8c10.3-.2 15.6-4.7 15.6-4.7zm0 1.5s5 4.2 14.4 4.3c0 4.8-.2 9.8-1.4 14.5-1.8 7.1-7 10-12.9 12-6-2-11-4.9-13-12a56.1 56.1 0 01-1.3-14.5c9.4-.2 14.3-4.3 14.3-4.3z" fill="#00D7FF"/>
  <path d="M50.8 180.4v-3a3.2 3.2 0 013.1-3.1 3.2 3.2 0 013.2 3v3.1h1.6v-3a4.7 4.7 0 00-4.8-4.7 4.7 4.7 0 00-4.7 4.6v3.1h1.6z" fill="#040C2F"/>
  <path fill-rule="evenodd" clip-rule="evenodd" d="M53.2 185.1H54.5a.2.2 0 00.1-.3l-.5-2.6a1.1 1.1 0 00-.4-2.1 1.1 1.1 0 00-1 1 1.1 1.1 0 00.8 1.1l-.5 2.6a.2.2 0 000 .2l.2.1zm.7-6.7h-6.2a.3.3 0 00-.3.3v8.1l.3.1h12.2a.3.3 0 00.3-.3v-8a.3.3 0 00-.3-.2h-6z" fill="#040C2F"/>
  <path fill-rule="evenodd" clip-rule="evenodd" d="M54 159.7s6.7 5.8 19.8 6a78 78 0 01-2 20c-2.5 10-9.6 13.8-17.8 16.7-8.3-2.9-15.4-6.7-18-16.7-1.6-6.4-2-13.3-2-20 13.2-.2 20-6 20-6zm0 1.8S60 166.8 72 167c.1 6.1-.2 12.4-1.7 18.3-2.4 9.1-8.9 12.7-16.4 15.3-7.6-2.6-14.1-6.2-16.5-15.3a71.3 71.3 0 01-1.8-18.3c12-.2 18.2-5.5 18.2-5.5z" fill="#00D7FF" fill-opacity=".5"/>
  <path fill-rule="evenodd" clip-rule="evenodd" d="M53.6 154.5s8.5 7.3 25 7.7c0 8.3-.4 17-2.4 25-3.3 12.5-12.2 17.4-22.6 21-10.4-3.6-19.2-8.5-22.5-21-2-8-2.5-16.7-2.4-25 16.5-.4 25-7.7 25-7.7zm0 2.3s7.8 6.6 23 7c0 7.6-.4 15.5-2.3 23-3 11.4-11.1 15.9-20.6 19.2-9.6-3.3-17.8-7.8-20.7-19.2-2-7.5-2.3-15.4-2.3-23 15.2-.4 23-7 23-7z" fill="#00D7FF" fill-opacity=".2"/>
  <path fill-rule="evenodd" clip-rule="evenodd" d="M53.4 149.7s10.3 8.8 30.4 9.2c.1 10.2-.4 20.8-3 30.6-3.9 15.3-14.7 21.2-27.4 25.6-12.7-4.4-23.5-10.3-27.4-25.6-2.6-9.8-3.1-20.4-3-30.6a50.3 50.3 0 0030.4-9.2zm0 2.7s9.5 8.1 27.9 8.5c0 9.3-.4 19-2.7 28-3.6 14-13.5 19.4-25.2 23.4-11.6-4-21.6-9.4-25.2-23.4-2.3-9-2.8-18.7-2.7-28 18.4-.4 28-8.5 28-8.5z" fill="#00D7FF" fill-opacity=".1"/>
  <path d="M191.8 112.2l-.3-.6v-.2l-.3-.6c-.4-1-.5-2-.5-3.3a22.8 22.8 0 01.5-3.5 27.4 27.4 0 014-7.6v-.1l.6-.8.6-.7h.1l.3-.3 1-.7.6-.5h.1l.4-.2 1.4-.6h-1.2l-.2-.1-1-.1h-.4l-1.6-.2-.8.4-1.5 1-1.5 1.4a8 8 0 00-1.8 3l-.3.5-.4 1-.5 1.5-.5 1.6-.2.8-.3 1.2-.2 2.1v.8a22 22 0 00-.3 3.8l.1 1.6v.4h.2a88 88 0 012.4-.5h.5l.2-.1h.5l.4-.1v-.3z" fill="#FC5968"/>
  <path d="M186.9 113.3v-.1l-.2-.2-.7-2.5a13.6 13.6 0 01-.4-2.8V105l.2-1.2v-.5h.1v-.2l.1-.4.1-.3.3-1 .4-1.3a20.7 20.7 0 011.4-3.2l.7-1.1a7.6 7.6 0 013.3-2.8h.1l.9-.5a21 21 0 011.5-.5l-1.9-.2h-.9l-.1-.1h-.8l-.4-.1h-.4l-.7-.1h-.7a7 7 0 00-1.4 1.7l-.5.7-1.1 1.7-.1.2-.6 1.2-.3.5-.5 1a22.5 22.5 0 00-1.6 6l-.2 1.6a27 27 0 000 1.9 18.2 18.2 0 000 2.3l.6 2.5.2.7.1.4.1.4 1.7-.5 1.7-.5z" fill="#FC5968"/>
  <path d="M140.6 172.7l.6-1.2.1-.2a22.9 22.9 0 00.9-2.1l.8-2 .1-.1.4-.8.6-1.3.2-.5.1-.2v-.2l.2-.3.1-.4.3-.7.4-1.1v-.2a28.2 28.2 0 012.9-12.2c.5-1.5 1.2-2.8 1.8-4.2v-.2a50 50 0 012.1-4.1l1.3-2.2 1.5-2.3.2-.4a114.7 114.7 0 015.4-7v-.2l1.6-1.6h-1l-.2.1h-1l-.6-.2c-.4 0-.9-.1-1.3-.3h-.4l-.2-.1-.5-.1a62.7 62.7 0 01-1.5 5.7l-.1.4-.7 1.8a46.8 46.8 0 01-6 10.8l-1.2 1.8v.1l-.8.9v.1l-.7.7-.5.5-.5.5-.2.2a7 7 0 01-.9.7l-.3.2-.6.4-1.2.8-2 1-4.1 2.3h-.1l-.2.1-.7.4-2.6 1.4a38 38 0 01-10 3.7l-1.9.4-.4.1-1 .3h-.1c-1.2.3-2.5.7-3.7.8l-1 .1V164l.1 1.1.2 1.5.1 1.3v.2l.1.3.4 2c.2.7.5 1.2.8 1.8a6.2 6.2 0 001.6 1.7h.8a46 46 0 012.2-.4h.3l.5-.1h.1l1.8-.4h.4l1.9-.2 2.3-.1h1.3l1.2-.2c.6 0 1.1-.2 1.6-.3h.1l.6-.1-.3.2-.7.5-.6.4-1.7 1-.9.3-.1.1-1.1.4a63.8 63.8 0 01-5 1.5h-.3a4.9 4.9 0 01.6.2h.2l.5.1h.2l2.3.6h.4l1.8.5h-.2a27 27 0 01-6.6 1.1h-2.2a18.4 18.4 0 01-1.6 0l-.2-.1v1.1l-.2 1.2v1.3a10.6 10.6 0 010 1v.2l.2 1v.3l.6 2.4a21.6 21.6 0 002 4.4h1l1.2.1a21 21 0 015.9 1.6l2.7 1.4h-.2l-1.1.2-.6.1-.8.1h-.5l-1 .1h-.3a21.6 21.6 0 01-2.8 0h-.1l1.6 1 .5.4 1.7 1.3.8.7.3.2a91.5 91.5 0 002.6 2.1l.7.6a139.8 139.8 0 004.8 3.7h.2v.1l1 .7 1 .6 1.6 1.1 1.7 1.2.8.6a46 46 0 014.5 3.4v-.1l.4-.8.4-.7a33.5 33.5 0 014.2-5.9c.6-.8 1.3-1.4 1.9-2l.6-.6.3-.3.6-.5.3-.3 1.6-1.6.5-.5 1.1-1.2 1.9-1.7 1.8-1.5 2.3-1.4a24.2 24.2 0 014.4-2c.6 0 1-.2 1.5-.3l-.6-.6-.2-.2-.8-.8-.2-.2h-.1l-.4-.4-.3-.2-.7-.6-.4-.3-1.2-.9-.2-.2h-.1l-.3-.3-.3-.1-3.8-3-.8-.7-2.5-2-.6-.5-.5-.4-3.4-2.7-.1-.1-.2-.2-.3-.2-.2-.1-2.6-2.1-.6-.5a32 32 0 01-2-1.7l-.9-1-.9-1-.4-.6v-.1a3 3 0 01-.3-.4c0 .2-.2.3-.3.4-.4.5-1 1.2-1.7 1.7-.6.6-1.4 1-2 1.2-.1 0 0-.1 0-.2zM175 118.1l.2-.1a54.2 54.2 0 014.6-2.2h.1l.8-.4 2-.8-.5-1-.3-.6-.6-1.5a12.5 12.5 0 01-.7-5c0-.7 0-1.4.2-2v-.3a28.4 28.4 0 011.9-7 21.8 21.8 0 01.8-1.5l.1-.2v-.1a59.9 59.9 0 001-1.3 29 29 0 012.7-2.7h-1.6l-2.3-.1h-1l-2-.3-1.7-.2H177.7l-2.9-.5-1.1 1.5a14.2 14.2 0 011.5.1l1 .4c.8.4 1.6 1 2.2 1.7.3.3.4.6.6 1l.4.7.3 1v.3l.1.1c.2.6.4 1.3.4 2v1.8a26.2 26.2 0 01-.6 4.8l-.1.6v.3l-.2.5-.7 2.5a77 77 0 01-3 6.6 48.2 48.2 0 01-.9 2h.1zM169 225l.4-.6.9-1.8.1-.2.1-.2 3.4-6.4h-.1l-.6-.1h-.6l-1.2-.1H169.5a69.6 69.6 0 01-3.8 0h-.1H160.4l-.2.1h-.4l-2.2.5-.7.1-1.7.4a19 19 0 00-3 1l-1.5.4a9.2 9.2 0 01-.8.4l-.6.2-1.8 1-.1.1-.5.4-.1.1-.1.1-.5.4-.2.1-.2.5-.3.7-.9 1.6-.6 1.4-.1.1-.2.5-.4.8v.1l-.2.2v.2l-.4.8a71.9 71.9 0 00-2.9 6.8l-.3.7-.7 1.5-.2 1.3a10.4 10.4 0 00.6 3h.1l.9.5.4.1.2.1h.1l.3.2a47 47 0 011.4.6h.1a20.8 20.8 0 002.9 1.2l.8.3a54 54 0 002 .7l.5.1 1.4.4 4.7.9h.6a33.9 33.9 0 015.1 1.2l3.4.8h.1l2.3.4 1.8.3H169.2l-.3-.5-.7-1.5-.1-.1-.6-1.3-.4-.7-.7-1.5-.1-.2v-.2l-.2-.2-.2-.2-.3-.3a78.6 78.6 0 01-.8-.8l-.5-.5h-.2v-.2l-.6-.5-.5-.5h-.1l-.7-.7-.2-.2-.3-.2-.7-.6-.1-.2a67.2 67.2 0 00-2.2-1.8l-.2-.2-.1-.1h-.1v-.1h.2l1.1.2a18.4 18.4 0 012.8.8l.8.3 2 1.3v-.2-.2-.1l.1-.2.5-1.7-.5.5-.2.3-.7.6.2-.6.3-.9.1-.7.5-1.5.1-.5.2-.6.2-.6.2-.6.2-.5.3-.7.1-.4.4-.9v-.1l1.8-3.6z" fill="#39D2EC"/>
  <path d="M118 191.3a15 15 0 01-2.4-4.8 12.2 12.2 0 01-.3-3v-.2-.5a12.6 12.6 0 011-4h-.1l-1.9-.4-.8-.3-2.3-.8-.9-.4-1.3-.8a95.4 95.4 0 01.1 7 48.8 48.8 0 01-4.7 20 56.4 56.4 0 01-7.6 12.4h.2l.1-.1a6 6 0 011-.2h1.1l.4-.1 2.2-3 .6-1 .4-.6 2.4-3.5 3-4.1a40.6 40.6 0 015.4-6c.6-.6 1.3-1.2 2.2-1.6h.2v-.1c.6-.3 1.1-.4 1.6-.5h-.2v-.1h-.4l-.3-.2h-.2l-.7-.1h-.2l-.7-.2-1-.1h-2.1l.1-.2 1.6-.9a7.5 7.5 0 012.8-.9l2-.2-.4-.5zM90.4 228.7h-.1l-.6.3a12.4 12.4 0 01-4.8.3h-.4l-1.2-.3a22 22 0 01-1.8-.6 54.7 54.7 0 01-24.7 7l-.2.1H52a15.3 15.3 0 010 1.3l-.2.8a38.4 38.4 0 01-.6 3.2c-.5 1.7-1.2 3.2-2.2 4.5l-.1.1.7-.1h.4l1-.2a15.1 15.1 0 012.5.2c.8 0 1.5.2 2.5.4l2.3.5 1.2.4 1.3.4h.1a59 59 0 002.3.7h-.2l-.3.1-.8.2h-.1l-2.6.3h-1.2l-.7.1h-.6l-2.3.2H53.2h-1.7a13 13 0 00-1.5.1 17 17 0 00-3.8 1.2l-.2.1-.3.2-.2.1-1.7 1.5-.2.1-1.7 1.7-.4.4-2.8 3.2a34.7 34.7 0 00-1.7 2.6l-.4 1.1v.3h.1l.6.2h.2a23.4 23.4 0 008-.3l.4-.1a30 30 0 002-.6h.2l2.4-.7 2.8-.7a137.8 137.8 0 002.1-.5c.4 0 .7-.2 1-.3H56.8l1-.3 1.5-.3h.2l.8-.3a49.1 49.1 0 004.5-1.4h.2l2.6-1.1.3-.1 1.7-.9h.2l.4-.3 1.8-.9 2-1.2 1.6-1.4c.7-.8 1.2-1.7 1.7-2.4l.5-1 1.1-1.8 2.8-4.2.1-.1 3.1-4 .1-.1 1.5-1.9 1.4-2 1-1.4a31 31 0 001.6-2.4zM29.6 132.4l1.2-.5.5-.3 1.5-.7h.1l.7-.3 1.8-.8 3.5-1.1.3-.1.5-.2a54.4 54.4 0 0116-2v-.1l-.8-.2h-.3a11.5 11.5 0 01-4.8-3l-.3-.3-.3-.3-.4-.5v-.1l-.3-.3-.1-.2-.2-.1c0-.2-.1-.2-.2-.3 0-.1 0-.2-.2-.3v-.2a4 4 0 01-.3-.4l-.2-.3-.2-.3-.4-.8a40 40 0 01-.8-1.6v-.1l-.3-.5-.4.4c-.4.4-.8.8-1.2 1l-.1.2-.3.2-.8.7h-.1l-.6.6-.9.7-.4.4-.1.1-.1.1-.2.2-.3.3-.5.5a34 34 0 01-1.5 1.5l-.2.1-1.4 1.2-.7.8-.1.1-1.6 1.7-.1.1-.6.6-.4.4-.1.1-.3.3a47.3 47.3 0 00-3 3.6zM113.6 162.7h-.1l-.8.1h-.1l-1 .1h-1-1.6l-1.2.1a6 6 0 01-1.6.2l.6 1.8.2.7a53.9 53.9 0 011.6 7.1l.1 1.1.2 1.5 1.3-.2h.3l.7-.2h.3l.3-.2 1.5-.3h.6c.5-.2 1-.2 1.6-.3l-.3-.2-.2-.1a5.6 5.6 0 01-1.4-1.6v-.1l-.3-.8v-.1a7.4 7.4 0 01-.6-2.3 17.6 17.6 0 01.5-5c0-.4.2-.8.4-1v-.3z" fill="#39D2EC"/>
  <path d="M39.3 230.9a53.7 53.7 0 0013.4 2.3h2.4a50.9 50.9 0 0024.2-6c3.7-2 7.1-4.4 10.3-7.3l.7-.5a54 54 0 0014.4-22.6l.2-.7a55.9 55.9 0 002.3-15v-1.3-.7-1a53.4 53.4 0 00-6-21.6 55.3 55.3 0 00-18.3-19.7 45.3 45.3 0 00-9.8-4.9 57.8 57.8 0 00-12-3 51.3 51.3 0 00-23 2.2l-1.1.4-.3.1-.9.3-.8.3H35l-1.1.5h-.2A45.6 45.6 0 0031 134l-1 .5a57.4 57.4 0 00-4.3 2.6 54.5 54.5 0 00-14.5 14.4l-.8 1.1a59 59 0 00-5.9 12.6 54.1 54.1 0 00-2.3 13.6 50 50 0 001.3 13.8 52.1 52.1 0 007.7 17.5l.5.8a51 51 0 003.8 4.6c0 .2.2.4.4.5l.3.3a57.4 57.4 0 005 4.6l1.3 1.2c.2 0 .3.2.5.3l1 .8 1.1.8.8.5.8.5a52.9 52.9 0 0012.6 5.9zm-22.6-25.6L16 204A44.3 44.3 0 019.6 186l-.1-1.2v-1l-.1-.3v-.7-1-.3-.3-.5-1-2.2l.5-4.2.5-2.6a45.9 45.9 0 014.2-11.3 57.1 57.1 0 016.1-8.6c1.7-2 3.6-3.7 5.5-5.3l.5-.4a45.7 45.7 0 0117.7-8.4l1.2-.3a45.8 45.8 0 0119.2.4h.2l1.6.5a60.4 60.4 0 016 2.1 43.7 43.7 0 0113.6 9.3l.6.6 1.8 1.9.5.6 1 1.2a31.8 31.8 0 011.5 2.2 48.4 48.4 0 018 23.5 49.3 49.3 0 01-2.5 17l-1.1 2.9-.4 1-2 3.6-.3.7-1.6 2.3-.5.7a43.4 43.4 0 01-8.5 8.9 48 48 0 01-15.1 8 47 47 0 01-30.3-1.3 38.5 38.5 0 01-9.2-5.2 44.2 44.2 0 01-5-4.3l-1.1-1.1a104.8 104.8 0 01-5.3-6.5z" fill="#FC5968"/>
  <path d="M124.5 26.1l1.7 1.7 1 1 .7.6 1.4 1.4 3 3.2-.5-.1-1.4-.4-1-.2-1.2-.2-3.5-.3h-.5l3.5 2.5 1.8 1.5a47.3 47.3 0 014 4.1l1 1.3a47.6 47.6 0 013.4 4.6 36.4 36.4 0 013.4 8.2c.4 1.3.5 2.7.8 4l1.5-3 .4-1.7a17 17 0 00.3-5.5 18.1 18.1 0 00-2.6-7.5l-1-1.4a21.2 21.2 0 00-4.6-10l-1-1c-.6-.7-1-1.3-1.6-1.8l-2.3-2.2a31.8 31.8 0 00-6-4.4 57.6 57.6 0 00-6.7-3c-.8-.5-1.7-.9-2.6-1.2l3 3.5a121.6 121.6 0 005.6 6.3zM124.6 26.2l-.3-.3.3.3zM101 27.6l.5.1h-.5z" fill="#9A93E8"/>
  <path d="M86.8 30.4l5.5 1.6 2.3.5.6.1a19 19 0 00-4.7 2.3l-.9.7-1.2 1.2c-.8.7-1.4 1.6-2 2.5l-.9 1.3-1.1 1.3 1.9-.6a26.5 26.5 0 003.7-1.5l1.9-.7.3-.1a58.8 58.8 0 018.5-1h3.2l2.3.2 4.8.6 2.6.4 3.9.2 2.6 1a34.3 34.3 0 00-7-7.9c-1-.8-2.2-1.4-3.3-2-2-1.1-4.3-1.7-6.5-2.3l-1.9-.4a137.1 137.1 0 00-7.3-1.6 38.5 38.5 0 00-12.4.4l-3.7.9 4.3 1.4 2.4.8 2 .7zM171.2 83.4c1-.7 1.9-1.6 2.6-2.6l1.1-1.8.8-1.6.6-2.1.1-.8a16 16 0 000-5.2c-.2-.8-.3-1.7-.6-2.5l-.5 1v-.1l-.3.6v-.1l-1 1.7a47.8 47.8 0 00-3.2 6.2c-.5 1.5-1 3-1.3 4.5-.4 1.5-.8 3-1 4.5.9-.5 1.8-1 2.7-1.7zM156.7 53.8l2.1 4.4c.7 1.4 1.3 3 1.7 4.4l.6 3.3c0 .4 0 .9-.2 1.3a2.7 2.7 0 01-.6 1.1 4 4 0 01-.6.5h1.2c.5-.3 1-.6 1.3-1l1-1.3a8 8 0 00.7-2.2 17.5 17.5 0 001.7-2.8l.7-2a20 20 0 00.5-7.6 24 24 0 00-1.7-7.7 24.2 24.2 0 00-9.8-12l1.3 3.7 1.1 3.4.4 1.3.5 2 .5 2.5a176 176 0 001.2 5.4 30.7 30.7 0 00-8.6-7.3l2 4.2 3 6.4zM126.8 56.5a13.8 13.8 0 00-3.7-1.1h-3.5l.2-.1a45 45 0 00-6.9-.6c-.5 0-1 0-1.6.2-.8 0-1.5.2-2.3.4l-2.5.8-.9-.1h-1.8a65.4 65.4 0 00-6 .3l-4 1-3.1 1.4a24 24 0 00-9.2 7.5 35.9 35.9 0 00-3.9 6l4.2-2.3 2.2-1.1 2.1-1.1a180.5 180.5 0 0111.6-5 35.7 35.7 0 00-4 6.3l-1.2 2.5a49 49 0 004.1-2.4l4-2.8 1.8-1.2 1.4-.9 1.7-1 1.7-1 .8-.4-.6.7-.7 1c-.9 1.6-1.6 3.1-2.2 4.8-.5 1.4-1 3-1.3 4.5l-.5 1.8c2.2-2 4.3-4 6.3-6.3l1-1a103.1 103.1 0 003-2.7l1.8-1.5c1.2-1 2.4-1.9 3.7-2.7l2.6-1.4c1.8-1 3.7-1.8 5.7-2.5zM140.8 67.2l-1.6 2a45.8 45.8 0 01-5.7 6l-1.5 1.5-2.3 2.4-1 1-1 1.2-1 1-2.7 2.4a22.1 22.1 0 01-2.9 2h2.4l.7-.1 1.7-.4 1.3-.5a15 15 0 002.1-1.1l1.2-.7 1.2-.8 1-.8.7-.6 2-2 1.5-2a29.8 29.8 0 002.3-3.8 25.1 25.1 0 001.6-6.7z" fill="#9A93E8"/>
  <path d="M50.4 81.2l.5-1.9.3-1.2.9-3.3.6-2 .1-.6-1 .5-.5.2a15.2 15.2 0 01-1.3.4l-.9.2-.2.1h-.1l.1 1 .4 2.5.6 2.6.3 1.5v.5l.2-.3v-.2zM51.8 96.8h1.1c.3 0 .5 0 .8.2h.3l1.5 1 .8.8.4.3a7.3 7.3 0 01.9 1.4l.5 1v-.3-.4l.1-1.8v-.3a58.7 58.7 0 01.5-3.3 4.2 4.2 0 010-.8l.2-.5V94h-.4l-.3.1-.4.1-.5.1-.6.2-.6.1-.6.1h-.2L54 95h-1l-.5.1h-.7l-.7.2v1.5h.7z" fill="#6F65DD"/>
</svg>
