<svg width="538" height="401" fill="none" xmlns="http://www.w3.org/2000/svg">
  <g clip-path="url(#clip0)">
    <path d="M538 352.4H0v.27h538v-.27zM423.06 360.58h-18.14v.27h18.14v-.27zM482.65 360.44H434.7v.27h47.95v-.27zM345.1 362.25h-59.68v.26h59.69v-.26zM279.22 362.25h-22.3v.26h22.3v-.26zM163.08 360.17h-9.8v.27h9.8v-.27zM185.23 360.17h-16.18v.27h16.18v-.27zM143.6 365.03H71.96v.27h71.62v-.27zM255.01 304.4H47.25a6.14 6.14 0 01-6.14-6.14V6.14A6.15 6.15 0 0147.25.05H255a6.14 6.14 0 016.15 6.15v292.06a6.14 6.14 0 01-6.15 6.14zM47.25.27a5.87 5.87 0 00-5.87 5.87v292.12a5.88 5.88 0 005.87 5.87H255a5.89 5.89 0 005.88-5.87V6.14A5.89 5.89 0 00255 .27H47.25zM487.76 304.4H280a6.15 6.15 0 01-6.15-6.14V6.14A6.15 6.15 0 01280 .05h207.77a6.14 6.14 0 016.12 6.1v292.1a6.14 6.14 0 01-6.12 6.15zM280 .27a5.89 5.89 0 00-5.88 5.87v292.12a5.9 5.9 0 005.88 5.87h207.77a5.89 5.89 0 005.88-5.87V6.14a5.89 5.89 0 00-5.88-5.87H280z" fill="#D1E3FF"/>
    <path d="M341.94 221.24h-50.96V352.4h50.96V221.24z" fill="#D1E3FF"/>
    <path d="M332.26 352.4h9.68v-27.54h-19.83l10.15 27.54z" fill="#EEF9FF"/>
    <path d="M151.49 221.24h-50.96V352.4h50.96V221.24z" fill="#D1E3FF"/>
    <path d="M341.93 221.24H143.04V335.5h198.9V221.24z" fill="#EEF9FF"/>
    <path d="M245.74 229.55v71.52h88.7v-71.52h-88.7zM150.55 229.55v71.52h88.7v-71.52h-88.7zM334.43 324.86v-5.26h-88.7v5.26h88.7zM239.25 324.86v-5.26h-88.7v5.26h88.7zM334.42 314.69v-5.26h-88.7v5.26h88.7zM239.24 314.69v-5.26h-88.7v5.26h88.7z" fill="#D1E3FF"/>
    <path d="M203.68 237.26h-17.53a27.75 27.75 0 01-20.16-8.67h57.82a27.76 27.76 0 01-20.13 8.67zM299.75 237.26h-17.54a27.75 27.75 0 01-20.15-8.67h57.85a27.77 27.77 0 01-20.16 8.67zM152.73 352.4h-9.69v-27.54h19.83l-10.14 27.54z" fill="#EEF9FF"/>
    <path d="M340.85 20.5H73.55v152.7h267.3V20.5zM355.63 15.78H64.56a1.37 1.37 0 00-1.27 1.89 1.37 1.37 0 001.27.85h291.07a1.36 1.36 0 001.37-1.38 1.37 1.37 0 00-1.37-1.36z" fill="#D1E3FF"/>
    <path d="M346.7 20.5H76.28v152.7H346.7V20.5z" fill="#E3EEFF"/>
    <path d="M340.85 173.2H73.55v10.87h267.3V173.2z" fill="#D1E3FF"/>
    <path d="M356.45 173.2H86.03v10.87h270.42V173.2z" fill="#E3EEFF"/>
    <path d="M338.49 165V28.7H84.47V165h254.02z" fill="#F5FCFF"/>
    <path d="M210.19 165l48.1-136.3H281L232.9 165h-22.7zM237.77 165l48.11-136.3h8.85L246.63 165h-8.86z" fill="#fff"/>
    <path d="M338.49 165V28.67h-1.05v136.31h1.05z" fill="#D1E3FF"/>
    <path d="M84.56 13.32h-14.1v131.53h14.1V13.32z" fill="#EBF3FF"/>
    <path d="M90.06 13.32H79.08v131.53h10.98V13.32z" fill="#D1E3FF"/>
    <path d="M98.67 13.32h-14.1v131.53h14.1V13.32z" fill="#EBF3FF"/>
    <path d="M104.17 13.32H93.18v131.53h10.99V13.32z" fill="#D1E3FF"/>
    <path d="M112.78 13.32H98.67v131.53h14.1V13.32zM333.24 13.32h-8.13v131.53h8.13V13.32z" fill="#EBF3FF"/>
    <path d="M336.42 13.32h-6.34v131.53h6.34V13.32z" fill="#D1E3FF"/>
    <path d="M341.37 13.32h-8.12v131.53h8.12V13.32z" fill="#EBF3FF"/>
    <path d="M344.55 13.32h-6.34v131.53h6.34V13.32z" fill="#D1E3FF"/>
    <path d="M349.5 13.32h-8.13v131.53h8.13V13.32z" fill="#EBF3FF"/>
    <path d="M423.44 70.38H405.4v49.22h18.04V70.38z" fill="#E3EEFF"/>
    <path d="M398.55 127.8l-4.18 11.38h4.18l25.53-11.38h-25.53z" fill="#F3F8FF"/>
    <path d="M394.38 127.8v11.38l25.54-11.38h-25.55z" fill="#D1E3FF"/>
    <path d="M442.23 127.8l-4.18 11.38h4.18l25.53-11.38h-25.53z" fill="#F3F8FF"/>
    <path d="M438.05 127.8v11.38l25.55-11.38h-25.55zM375.64 128.34h27.77v-8.67h-27.77v8.67z" fill="#D1E3FF"/>
    <path d="M482.65 119.67H403.4v8.67h79.25v-8.67z" fill="#F3F8FF"/>
    <path d="M453.48 119.6h-43.89l-5.43-59.65h43.89l5.43 59.65z" fill="#D1E3FF"/>
    <path d="M455.75 119.6h-43.89l-5.42-59.65h43.89l5.42 59.65z" fill="#EEF9FF"/>
    <path d="M417.87 112.99l-4.23-46.43h30.68l4.23 46.43h-30.69z" fill="#fff"/>
    <path d="M169.37 202.1s-18.92-32.61 7.33-58.58c0 0 6.86 4.47 6.75 10.47-.11 6-7.34 7.54-5.78 12.53 1.56 5 8.38 9.93 3.9 14.08-4.5 4.14.72 7.82.41 12.91-.3 5.1-12.6 8.6-12.6 8.6z" fill="#D1E3FF"/>
    <path d="M170.8 205.09s7.68-36.92-25.42-53.3c0 0-5.1 6.41-3.1 12.07 1.99 5.66 9.33 4.83 9.44 10.07.1 5.25-4.82 12.07.73 14.59 5.55 2.51 1.78 7.66 3.68 12.37 1.9 4.72 14.67 4.2 14.67 4.2z" fill="#D1E3FF"/>
    <path d="M141.82 196.91s.62 24.34 24.75 24.34c24.12 0 24.74-24.34 24.74-24.34h-49.5z" fill="#EEF9FF"/>
    <path d="M426.47 352.4h2.47l7.01-34.61 1.24-6.06 7.65-37.67h29.36l15.92 78.34h2.46l-16.21-79.83a1.2 1.2 0 00-1.19-.96h-31.32a1.19 1.19 0 00-1.17.96l-6.73 33.12-1.26 6.06-8.23 40.65z" fill="#EBF3FF"/>
    <path d="M379.33 352.4h2.47l15.91-78.38h29.37l7.62 37.73 1.23 6.04 7.03 34.6h2.5l-8.25-40.66-1.25-6.04-6.72-33.12a1.2 1.2 0 00-1.19-.96h-31.32a1.2 1.2 0 00-1.18.96l-16.22 79.83z" fill="#EBF3FF"/>
    <path d="M451.72 272.81h-53.96a18.93 18.93 0 01-18.91-18.54l-2.01-82.03a13.79 13.79 0 0113.75-13.99h33.82a13.78 13.78 0 0113.7 12.23l13.6 102.34z" fill="#E3EEFF"/>
    <path d="M422.29 262.47h52.8a7.39 7.39 0 017.39 7.4v.25a2.7 2.7 0 01-2.7 2.7h-57.5v-10.35z" fill="#E3EEFF"/>
    <path d="M269 401c115.22 0 208.63-5.45 208.63-12.18 0-6.73-93.4-12.19-208.63-12.19-115.22 0-208.63 5.46-208.63 12.19 0 6.73 93.4 12.18 208.63 12.18z" fill="#F0F6FF"/>
    <path d="M200.73 78.92a37.67 37.67 0 00-37.25-37.52h-.33a37.47 37.47 0 00-30.4 15.6c-.57.8-1.08 1.6-1.6 2.4a37.3 37.3 0 00-5.49 19.54v.08a37.54 37.54 0 0075.07-.1zm-73.46-.85a35.53 35.53 0 014.98-17.44H144a59.3 59.3 0 00-2.79 17.44h-13.93zm18.37-17.44h16.74v17.44h-19.56c.03-5.92.98-11.8 2.82-17.44zm18.35-1.61V42.96c2.33.21 4.56 1.04 6.46 2.4 4 2.73 7.34 7.53 9.68 13.66H164zm16.72 1.61c1.33 4.03 2.2 8.2 2.59 12.43.16 1.68.23 3.35.25 5H164V60.64h16.72zm-20.7-17.22c.77-.22 1.57-.35 2.37-.4v16.04h-16.14c3.01-8.11 7.9-14.01 13.77-15.67v.03zm2.37 36.3v17.44h-16.71a55.12 55.12 0 01-2.56-12.46 65.05 65.05 0 01-.26-5l19.53.02zm0 19.05v16.06a13.16 13.16 0 01-6.46-2.4c-3.98-2.73-7.32-7.53-9.68-13.66h16.14zm3.98 15.64c-.77.22-1.57.36-2.37.4V98.74h16.14c-3.01 8.08-7.9 13.99-13.77 15.64v.03zm-2.37-17.22V79.69h19.56a57.17 57.17 0 01-2.81 17.44l-16.75.05zm21.18-17.49h13.99a35.65 35.65 0 01-4.98 17.44h-11.8a59.3 59.3 0 002.79-17.44zm13.99-1.61h-14c0-1.7-.1-3.42-.26-5.16a56.94 56.94 0 00-2.46-12.28h11.71a35.94 35.94 0 014.96 17.43h.05zm-14.93-28.34a36.13 36.13 0 018.96 9.29h-11.35c-2.4-6.66-6.03-11.94-10.48-15l-.34-.22a35.98 35.98 0 0113.17 5.92l.04.01zm-28.9-5.9c-4.54 2.97-8.26 8.4-10.77 15.19h-11.3l.79-1.15a35.71 35.71 0 0121.23-14.06l.04.01zm-27.99 35.85h13.94c0 1.7.1 3.42.27 5.16.37 4.17 1.2 8.29 2.46 12.28h-11.78a35.74 35.74 0 01-4.96-17.44h.08zm5.97 19.05h11.25c2.41 6.66 6.04 11.94 10.48 15l.36.22a36.17 36.17 0 01-22.1-15.22zm37.77 15.19c4.52-2.98 8.25-8.4 10.76-15.2h11.28l-.78 1.15a35.67 35.67 0 01-21.26 14.05z" fill="#318FFF" opacity=".2"/>
    <path d="M445.78 96.8h-338.3v81.99h338.3V96.8z" fill="#9FC6FF"/>
    <path d="M438.15 104.43H99.85v81.99h338.3v-81.99z" fill="#0053CC"/>
    <path d="M430.52 112.05H92.22v81.99h338.3v-81.99z" fill="#318FFF"/>
    <path d="M414.38 177.9v-49.7H108.36v49.7h306.02z" fill="#fff"/>
    <path d="M362.9 128.2v49.7h1.8v-49.7h-1.8zM116 135.06v35.99h1.79v-35.99h-1.8zM387.82 159.33a7.94 7.94 0 110-15.87 7.94 7.94 0 010 15.87zm0-13.72a5.78 5.78 0 104.1 1.69 5.76 5.76 0 00-4.1-1.75v.06z" fill="#9FC6FF"/>
    <path d="M398.12 162.7a1.05 1.05 0 01-.76-.31l-5.44-5.44a1.08 1.08 0 111.52-1.52l5.43 5.44a1.07 1.07 0 010 1.52c-.2.2-.47.32-.75.32zM314.83 47.24H281v.84h33.83v-.84zM314.83 50.8H281v.85h33.83v-.84zM314.83 54.37H281v.84h33.83v-.84zM314.83 57.94H281v.84h33.83v-.84zM314.83 61.5H281v.84h33.83v-.84zM303.06 65.08H281v.84h22.06v-.84zM111.2 201.12H75.16v.54h36.05v-.54zM111.2 203.41H75.16v.54h36.05v-.54zM111.2 205.7H75.16v.53h36.05v-.54zM111.2 207.97H75.16v.54h36.05v-.54zM111.2 210.26H75.16v.53h36.05v-.53zM97.82 212.54H75.16v.53h22.66v-.53z" fill="#9FC6FF"/>
    <path d="M229.67 52.53a6.8 6.8 0 00-6.8 6.8v22.44a6.8 6.8 0 1013.6 0V59.33a6.8 6.8 0 00-6.8-6.8z" fill="#318FFF"/>
    <path d="M246.72 39.15a6.8 6.8 0 00-6.77 6.8v35.82a6.8 6.8 0 1013.6 0V45.95a6.8 6.8 0 00-6.83-6.8z" fill="#0053CC"/>
    <path d="M263.75 65.9a6.8 6.8 0 00-6.8 6.8v9.07a6.8 6.8 0 1013.61 0V72.7a6.81 6.81 0 00-6.81-6.8z" fill="#9FC6FF"/>
    <path d="M407.38 219.73h27.5l-46.94-48.7 19.44 48.7z" fill="#197BDD"/>
    <path d="M380.96 194.04l6.98-23 3.96 23h-10.94z" fill="#9FC6FF"/>
    <path d="M387.94 171.04v68.13l4.87-4.86 14.57-14.58-19.44-48.7z" fill="#4EA4F9"/>
    <path d="M436.56 24.92H376.3a11.58 11.58 0 00-11.54 11.53v31.12A11.58 11.58 0 00376.3 79.1h44.21l-.32 10.88 11.16-10.88h5.2a11.58 11.58 0 0011.53-11.53V36.45a11.58 11.58 0 00-11.51-11.53zm-61.62 13.26a3.23 3.23 0 013.23-3.23h13.87a3.23 3.23 0 110 6.46h-13.88a3.23 3.23 0 01-3.22-3.23zm58.2 30.14h-23.98a3.23 3.23 0 110-6.36h23.97a3.23 3.23 0 110 6.36zm0-13.47h-51.75a3.23 3.23 0 110-6.36h51.74a3.23 3.23 0 110 6.36zm0-13.46H402.5a3.23 3.23 0 110-6.46h30.63a3.23 3.23 0 010 6.46z" fill="#197BDD"/>
    <path d="M342.32 123.58a57.81 57.81 0 00-11.57-19.14H245.2a57.8 57.8 0 00-11.57 19.14l11.84 58.93a57.8 57.8 0 0096.84-58.93z" fill="#318FFF"/>
    <path d="M345.73 146a57.63 57.63 0 01-15.24 36.51h-85a57.91 57.91 0 01-11.84-58.93h108.68a57.51 57.51 0 013.4 22.42z" fill="#fff"/>
    <path opacity=".4" d="M345.73 146a57.7 57.7 0 01-94.06 42.02A57.7 57.7 0 11345.73 146z" fill="#D4E8FF"/>
    <path opacity=".4" d="M320.56 95.58l-83.13 75.83a57.05 57.05 0 01-6.47-18.47l71.8-65.5a57.47 57.47 0 0117.8 8.14zM342.8 124.97l-78.1 71.28a57.75 57.75 0 01-20.96-15.75l85.34-77.85a57.86 57.86 0 0113.72 22.32z" fill="#D4E8FF"/>
    <path d="M345.7 109.99a66.72 66.72 0 10-115.6 66.65A66.72 66.72 0 00345.7 110zm-103.29 59.66a52.63 52.63 0 0159.17-77.13 52.6 52.6 0 0133.57 74.09 52.6 52.6 0 01-92.73 3.04z" fill="#197BDD"/>
    <path d="M134.56 211.94l8.25 1.92-6.84 5.1s-4.9-2.22-5.12-5.7l3.72-1.31zM147.22 219.35l-5.94 3.96-5.3-4.35 6.83-5.1 4.4 5.49z" fill="#FF8B7B"/>
    <path d="M240.45 178.47a665.16 665.16 0 01-26.77 18.58c-9.03 6-18.17 11.84-27.36 17.57a1168.46 1168.46 0 01-27.77 16.81c-4.65 2.78-9.34 5.47-13.99 8.2a27.26 27.26 0 01-7.47 3.31c-1.4.37-2.85.62-4.3.72-1.61.13-3.24.05-4.83-.25a8.82 8.82 0 01-6.64-11.46 17.79 17.79 0 012.15-4.3c.81-1.2 1.73-2.32 2.76-3.34a27.5 27.5 0 016.6-4.82c4.7-2.68 9.36-5.38 14.1-8.04 9.42-5.33 18.94-10.51 28.47-15.64 9.53-5.12 19.18-10.08 28.89-14.92a624.7 624.7 0 0129.47-13.9 6.69 6.69 0 016.65 11.5l.04-.03z" fill="#197BDD"/>
    <path d="M146.5 160.97c-.53.87-1.14 1.92-1.72 2.91-.59 1-1.16 2.03-1.7 3.07a555.7 555.7 0 00-3.22 6.26c-1.08 2.12-1.95 4.3-2.83 6.46-.43 1.08-.88 2.15-1.28 3.23l-.6 1.64c-.12.32-.14.45-.22.67-.08.23-.1.44-.17.66a33.57 33.57 0 00-.64 6.46c-.05 2.31 0 4.67.13 7.04.13 2.38.26 4.77.48 7.16l.65 7.2-4.15.84a114.15 114.15 0 01-3.3-14.54c-.41-2.47-.7-4.96-.88-7.53-.22-2.7-.15-5.4.2-8.08.07-.38.13-.74.22-1.08.1-.34.2-.83.28-1.08l.53-1.83a97.08 97.08 0 013.9-10.7c1-2.32 2.08-4.59 3.22-6.83.6-1.07 1.22-2.22 1.85-3.33.64-1.11 1.27-2.16 2.07-3.33l7.19 4.73z" fill="#FF8B7B"/>
    <path d="M141.91 383.18a10.15 10.15 0 01-2.25-.35.18.18 0 01-.05-.1.2.2 0 01.09-.2c.29-.2 2.83-1.84 3.8-1.4a.67.67 0 01.4.56 1.07 1.07 0 01-.33 1.08c-.48.33-1.07.48-1.66.4zm-1.64-.58c1.46.29 2.56.23 2.98-.15a.73.73 0 00.2-.7.29.29 0 00-.17-.26c-.5-.23-1.98.48-3.01 1.1z" fill="#0053CC"/>
    <path d="M139.75 382.89h-.1a.2.2 0 01-.07-.07.19.19 0 01-.02-.1c0-.1 0-2.51.91-3.32a1.08 1.08 0 01.84-.27.69.69 0 01.67.56c.2.94-1.34 2.75-2.15 3.23a.19.19 0 01-.08-.03zm1.43-3.4a.67.67 0 00-.44.17 4.5 4.5 0 00-.77 2.65c.8-.65 1.74-2 1.62-2.58 0-.1-.07-.2-.32-.23l-.09-.01zM180.03 383.18c-.9-.01-1.77-.12-2.64-.3a.18.18 0 01-.16-.17c0-.04 0-.08.02-.11a.2.2 0 01.09-.09c.37-.2 3.7-1.9 4.73-1.33a.64.64 0 01.34.52 1.07 1.07 0 01-.36.96c-.6.4-1.31.58-2.02.52zm-1.98-.58c1.86.3 3.22.22 3.74-.23a.74.74 0 00.23-.63.25.25 0 00-.13-.21c-.56-.31-2.48.41-3.84 1.07z" fill="#0053CC"/>
    <path d="M177.42 382.89a.14.14 0 01-.05 0h-.06a.16.16 0 01-.07-.07.16.16 0 01-.01-.1c0-.1.2-2.36 1.25-3.23.3-.25.68-.38 1.07-.35.55.06.7.34.74.56.16.95-1.81 2.76-2.81 3.23l-.06-.04zm2-3.4c-.25 0-.5.1-.69.25-.61.73-.99 1.64-1.07 2.59 1.01-.62 2.35-2.04 2.26-2.6 0 0 0-.2-.39-.23l-.1-.01z" fill="#0053CC"/>
    <path d="M159.25 128.65c.65 5.02 2.15 15.22-1.49 18.3 0 0 1.08 5.12 10.25 5.7 10.13.66 5.16-4.7 5.16-4.7-5.44-1.69-5.03-5.78-3.82-9.57l-10.1-9.73z" fill="#FF8B7B"/>
    <path d="M178.05 118.44a.36.36 0 01-.19-.06.39.39 0 01-.2-.39c0-.05.02-.1.04-.15a3.93 3.93 0 012.94-2.15.4.4 0 01.38.36.4.4 0 01-.3.43 3.23 3.23 0 00-2.32 1.7.43.43 0 01-.36.26z" fill="#0F264C"/>
    <path d="M180.94 122.85a18.02 18.02 0 002.8 4.07 2.9 2.9 0 01-2.36.67l-.44-4.74z" fill="#FF5652"/>
    <path d="M180.23 121.75c.06.68.47 1.18.9 1.14.43-.04.76-.61.7-1.3-.07-.67-.48-1.17-.92-1.13-.44.04-.75.62-.68 1.29z" fill="#0F264C"/>
    <path d="M180.77 120.51l1.57-.61s-.75 1.33-1.57.61z" fill="#0F264C"/>
    <path d="M168.21 382.68h8.38l.56-19.4h-8.38l-.56 19.4zM130.15 382.68h8.38l2.7-19.4h-8.38l-2.7 19.4z" fill="#FF8B7B"/>
    <path d="M139.05 381.71h-9.41a.66.66 0 00-.67.58l-1.08 7.44a1.36 1.36 0 00.79 1.38c.17.08.36.12.55.12 3.23-.06 4.86-.25 9-.25 2.54 0 6.27.26 9.78.26 3.52 0 3.7-3.48 2.24-3.79-6.56-1.4-7.6-3.36-9.81-5.22a2.15 2.15 0 00-1.39-.52zM176.87 381.71h-9.4a.66.66 0 00-.67.58l-1.07 7.44a1.35 1.35 0 00.8 1.38c.16.08.35.12.54.12 3.23-.06 4.86-.25 9-.25 2.55 0 7.8.26 11.33.26 3.51 0 3.7-3.48 2.23-3.79-6.56-1.4-9.14-3.36-11.36-5.22a2.15 2.15 0 00-1.4-.52z" fill="#14365B"/>
    <path d="M177.14 363.29l-.28 10h-8.38l.3-10h8.36zM132.84 363.29h8.38l-1.38 10h-8.38l1.38-10z" fill="#EA7063"/>
    <path d="M150.08 162.26a42.97 42.97 0 01-5.5 6.9l-.96-.63-10.6-7.05s5.78-12.91 10.14-13.57c4.17-.66 7.2 3.64 8.61 8.25.54 1.66-.36 3.92-1.69 6.1z" fill="#9FC6FF"/>
    <path d="M150.08 162.26a42.97 42.97 0 01-5.5 6.9l-.96-.63c.48-3.87 1.98-7.72 3.7-8.93 1.06.1 2 1.23 2.76 2.66z" fill="#77B3FC"/>
    <path d="M186.37 168.7c-.5 3.23-1.16 7.03-2.04 11.54a533.55 533.55 0 01-4.49 20.97l-33.94-2.16c1.46-13.78 2.03-22.3-2.74-51.1 4.82-.67 9.68-.99 14.55-.95 5.15-.04 10.3.3 15.4 1a169.47 169.47 0 0114 3.05s1.89.75-.74 17.65z" fill="#9FC6FF"/>
    <path d="M186.37 168.7c-.5 3.23-1.16 7.03-2.04 11.54a83.33 83.33 0 01-4.64-12.3h6.3l.38.76z" fill="#77B3FC"/>
    <path d="M157.4 121.58c1.28 8.2 1.65 11.72 6.23 15.56 6.87 5.79 16.68 2.41 17.87-6.03 1.08-7.59-1.2-19.75-9.6-22.26a11.33 11.33 0 00-14.5 12.73z" fill="#FF8B7B"/>
    <path d="M170.87 200.62s-.54 14.95-1.83 33.8c-1.08 15.83-2.7 34.38-4.97 49.17l-.07.4c-4.07 26.18-22.14 87.35-22.14 87.35h-11.43s9.42-59.08 11.48-85.02c5.24-65.5-7.88-72.92 3.99-87.36l24.97 1.66z" fill="#0053CC"/>
    <path d="M169.04 234.43c-1.08 15.82-2.7 34.37-4.97 49.16-3.86-19.21-10.21-47.27-1.7-65.65 2.04 5.22 4.41 11.12 6.67 16.49z" fill="#004DAA"/>
    <path d="M179.84 201.22s9.69 57.4 9.1 82.95c-.56 26.58-10.3 87.17-10.3 87.17h-11.32s1.78-59.05.78-85.15c-1.07-28.45-13.12-86.6-13.12-86.6l24.86 1.63z" fill="#0053CC"/>
    <path d="M165.38 371.88h15.18l1.19-5.1-16.9.12.53 4.98zM128.78 371.88h15.18l1.18-5.1-16.26.12-.1 4.98zM145.5 197l-1.71 2.95c-.14.22.13.48.51.5l35.6 2.31c.3 0 .58-.1.61-.3l.5-3.02c0-.2-.22-.4-.55-.42l-34.44-2.24a.65.65 0 00-.52.22z" fill="#0F264C"/>
    <path d="M149.88 201.13l-.92-.06c-.18 0-.32-.12-.3-.23l.69-3.93c0-.1.18-.2.37-.18l.92.05c.18 0 .31.12.3.24l-.69 3.92c-.02.11-.2.2-.37.19zM172.16 202.57l-.91-.05c-.19 0-.33-.12-.3-.24l.68-3.92c0-.12.19-.19.38-.18l.91.06c.19 0 .33.11.3.23l-.68 3.92c0 .12-.16.2-.38.18z" fill="#0053CC"/>
    <path d="M189.03 159.66c1.3 4.3 2.52 8.67 3.71 13.02l3.6 13 .46 1.62.12.4.05.2v.11l.14.42a6.9 6.9 0 001.08 1.8 17.95 17.95 0 004.41 3.4 56.9 56.9 0 0011.84 4.79l-.63 4.2a44.76 44.76 0 01-14.07-3.05 22.29 22.29 0 01-6.77-4.18 13.41 13.41 0 01-3.3-4.83l-.12-.29-.08-.2-.14-.4-.57-1.63a442.24 442.24 0 01-8.04-26.04l8.31-2.34z" fill="#FF8B7B"/>
    <path d="M187.1 151.01c4.31 1.41 8.83 15.49 8.83 15.49l-15.54 6.7s-6.45-15.8-3.6-19.38c2.87-3.57 5.38-4.42 10.32-2.8z" fill="#9FC6FF"/>
    <path d="M178.8 108.37c-2.75-3.39-23.94-5.8-25.07 3.42-7.53 5.28-.39 18.9.69 22.37-5.2 1.44-21.94 7.17-9.69 18.3 12.26 11.12 30.64 9.23 34.23-2.29 2.52-8.05-5.48-21.52-5.3-26.24.17-4.7 9.84-9.8 5.14-15.56z" fill="#0F264C"/>
    <path d="M155.9 135.86c-.04 0-.08 0-.11-.03a.25.25 0 01-.1-.07c-1.94-2.37-8.72-14.8-6.34-20.73a5.15 5.15 0 014.65-3.22l.1.05.06.08c.02.03.03.07.03.1.01.07 0 .14-.05.2-.04.06-.1.1-.17.1a4.65 4.65 0 00-4.13 2.87c-2.29 5.72 4.36 17.87 6.27 20.2a.26.26 0 01-.2.43v.02z" fill="#0F264C"/>
    <path d="M171.98 123.43c.24 1.57 1 3.02 2.15 4.1 1.53 1.47 2.97.47 3.1-1.39.14-1.67-.5-4.43-2.31-5.2-1.81-.78-3.17.63-2.94 2.49zM209.16 197.25l6.12-2.07-.96 7.35s-2.41 1.07-5.53-1.64l-2.98-1.9 2.34-1.28c.32-.19.66-.34 1.01-.46z" fill="#FF8B7B"/>
    <path d="M219.55 195.16l-1.88 6.42-3.35.94.96-7.34 4.27-.02z" fill="#FF8B7B"/>
  </g>
  <defs>
    <clipPath id="clip0">
      <path fill="#fff" d="M0 0h538v401H0z"/>
    </clipPath>
  </defs>
</svg>
