<svg width="540" height="338" fill="none" xmlns="http://www.w3.org/2000/svg">
  <g clip-path="url(#clip0)">
    <path d="M25.52 144.43s-6.6-.48-6 14.34c.62 14.82 2.16 22.7 2.16 22.7s-.2 3.3-2.74 2.65c-2.54-.64-7.33-3.84-9.69-1.45-2.36 2.38-1.58 6.28 1.67 10.76 3.25 4.48 9.97 14.55 10.6 15.46.62.9.82 2.58-.98 2.42-1.8-.16-13.97-4.3-15.58 1.58-1.62 5.88 9.48 16.88 10.69 18.1 1.2 1.23 1.24 2 .79 2.74-.46.74-4.45-1.03-7.96-2.06-3.5-1.04-7.75-1.59-8.4 1.86-.65 3.45 4.2 13.7 22.55 24.4l8.8 4.39 8.34-5.32c17.17-12.48 21.02-23.1 20.03-26.5-.99-3.39-5.16-2.37-8.55-1.02-3.4 1.36-7.16 3.55-7.71 2.86-.56-.7-.57-1.47.5-2.81 1.06-1.34 11-13.38 8.82-19.08-2.2-5.7-13.9-.38-15.67-.04-1.78.34-1.7-1.35-1.2-2.3.5-.95 6.23-11.68 9.02-16.45 2.79-4.78 3.27-8.65.58-10.88-2.69-2.22-7.03 1.52-9.48 2.41-2.46.9-3-2.37-3-2.37s.72-8-.16-22.8-7.56-13.62-7.56-13.62" fill="#EBEBEB"/>
    <path d="M26.04 157.7v.3c0 .21.04.53.07.92l.23 3.5c.2 3.04.47 7.43.8 12.87.6 10.87 1.3 25.9 2.02 42.5s1.4 31.64 1.94 42.52l.66 12.88.17 3.5c0 .4 0 .7.04.91v.31s0-.1-.04-.3c-.04-.21 0-.53-.06-.92l-.24-3.49c-.2-3.04-.47-7.44-.79-12.88-.6-10.87-1.31-25.9-2.03-42.51-.72-16.6-1.4-31.63-1.94-42.5l-.65-12.89-.18-3.5V158v-.31z" fill="#E0E0E0"/>
    <path d="M15.72 187.41c.2.12.4.28.56.45.34.31.79.8 1.4 1.35a154.4 154.4 0 014.42 4.62l4.3 4.75 1.32 1.42c.17.16.32.35.46.55-.2-.13-.4-.28-.56-.46-.34-.3-.79-.78-1.39-1.35a190.3 190.3 0 01-4.39-4.65l-4.34-4.69-1.32-1.41a3.32 3.32 0 01-.46-.58zM29.05 200.24c-.07-.07 3.17-3.45 7.2-7.55s7.37-7.37 7.44-7.3c.06.06-3.16 3.44-7.2 7.54s-7.37 7.36-7.44 7.3zM29.01 225.77c.2-.15.4-.28.62-.38l1.72-.98c1.46-.79 3.46-1.95 5.63-3.28 2.16-1.33 4.1-2.6 5.48-3.53l1.65-1.1c.2-.14.4-.27.62-.37 0 0-.18.2-.54.49a84.8 84.8 0 01-7.02 4.8 93.02 93.02 0 01-5.7 3.2c-.74.39-1.35.69-1.78.88-.2.12-.44.21-.68.27zM14.41 216.84a39.29 39.29 0 012.19 1.17c1.35.8 3.16 1.84 5.21 3.04a147.1 147.1 0 015.16 3.17l1.58.98c.2.1.38.24.54.4a2.32 2.32 0 01-.6-.3l-1.59-.88-5.2-3.04c-2.05-1.2-3.85-2.31-5.16-3.13l-1.58-.98c-.2-.12-.38-.26-.55-.43zM11.52 239.38c.28.1.54.22.79.38l2.05 1.13a490.24 490.24 0 0113.36 7.8l2 1.22c.25.14.48.3.7.49-.27-.1-.54-.22-.79-.37l-2.05-1.13a591.34 591.34 0 01-13.36-7.8l-2.03-1.23c-.24-.13-.47-.3-.67-.49zM30.03 249.99c.24-.2.5-.37.79-.52l2.14-1.3a258.1 258.1 0 0013.86-9.02l2.06-1.44c.25-.19.51-.35.8-.5-.23.22-.46.43-.71.6a150.19 150.19 0 01-8.8 6.26 129.56 129.56 0 01-9.27 5.54c-.28.15-.57.28-.87.38zM43.28 265.2H18.89l7.96 60.26h8.47l7.96-60.26z" fill="#E0E0E0"/>
    <path d="M20.16 272.61s0 .08.13.22c.16.18.36.32.59.42a2.95 2.95 0 002.57-.32c.99-.55 1.84-1.58 3.16-2.08a6.9 6.9 0 014.5.09c1.46.51 2.86 1.2 4.17 2.05 1.08.69 2.22 1.3 3.39 1.82.8.36 1.64.6 2.5.73.24.03.47.05.7.05h.26a12.46 12.46 0 01-3.34-1 32.02 32.02 0 01-3.32-1.89 18.18 18.18 0 00-4.26-2.09 7.19 7.19 0 00-4.74-.05c-.65.26-1.26.64-1.78 1.1-.44.4-.91.75-1.4 1.08a2.89 2.89 0 01-2.37.42 2.65 2.65 0 01-.76-.55zM21.05 283.71s.2-.25.57-.65a5.41 5.41 0 011.95-1.23 8.8 8.8 0 013.39-.52c1.42.11 2.84.3 4.24.58 1.43.28 2.9.35 4.34.18a11.84 11.84 0 005.48-2.2c.25-.16.47-.35.65-.58-.9.6-1.84 1.12-2.81 1.58-1.07.45-2.2.74-3.35.87-1.42.14-2.85.07-4.24-.2a31.48 31.48 0 00-4.3-.56c-1.2-.04-2.4.17-3.5.62-.76.3-1.43.78-1.96 1.39a3.15 3.15 0 00-.46.72zM40.52 289.65c-.2-.15-.43-.27-.67-.35a7.16 7.16 0 00-2.03-.43 13.5 13.5 0 00-3.05.17c-1.14.19-2.37.5-3.64.8-1.19.27-2.4.4-3.63.4a7.9 7.9 0 01-2.88-.62 6.66 6.66 0 01-2.15-1.65c.09.24.23.45.41.63.46.53 1.03.96 1.66 1.25.93.44 1.95.7 2.98.74 1.26.03 2.51-.1 3.73-.39 1.3-.27 2.5-.6 3.61-.79.99-.19 1.99-.27 2.99-.25.9.05 1.8.22 2.67.49zM23.2 298a3.9 3.9 0 012.38-.23c.86.21 1.69.52 2.48.93a9.5 9.5 0 0010.5-1.59c.29-.31.44-.5.42-.52a21 21 0 01-2.02 1.4 10 10 0 01-5.65 1.2c-2.32-.1-4.1-1.51-5.68-1.68a3.57 3.57 0 00-1.83.16c-.44.14-.61.32-.6.34zM24.56 309.58c.7.01 1.4-.13 2.04-.41 1.22-.4 2.74-1.35 4.5-2.05a7.4 7.4 0 012.6-.55c.72 0 1.43.17 2.08.48.6.32 1.1.76 1.51 1.3a1.11 1.11 0 00-.24-.51 3.3 3.3 0 00-1.14-1.04 4.74 4.74 0 00-2.22-.6 7.2 7.2 0 00-2.73.55c-1.83.72-3.3 1.7-4.48 2.15-1.17.46-1.92.61-1.92.68zM25.76 314.95c.5.25 1.03.42 1.58.5a27.39 27.39 0 007.8.77c.54 0 1.07-.06 1.59-.19 0-.12-2.47 0-5.49-.32-3.02-.31-5.45-.87-5.48-.75zM519.89 16.12L475 0l-44.46 15.9c-5.68 2.68-10.65 4.29-10.65 9.56v26.35a99.57 99.57 0 0014.64 52.4 91.16 91.16 0 0040.93 36.12c18.19-5.9 31.74-21.64 40.02-35.1a99.46 99.46 0 0014.65-52.4V29.17c-.03-7.55-4.03-11.22-10.25-13.04z" fill="#F5F5F5"/>
    <path d="M475.47 125.05c-15.64-6.96-25.8-18.19-32.36-28.81a78.73 78.73 0 01-11.58-41.46V36.31c0-4.18 2.52-8.1 7.54-10.44l35.98-13.45V0l-44.5 15.9c-4.66 2.04-10.65 4.29-10.65 9.58v26.33a99.57 99.57 0 0014.64 52.4 91.16 91.16 0 0040.93 36.12v-15.28z" fill="#EBEBEB"/>
    <path d="M475.47 140.33c3.05-1 6-2.26 8.82-3.78a79.32 79.32 0 0018.66-14.68c4.95-5.33 9.3-11.18 12.98-17.45a95.85 95.85 0 0014.24-52.9V29.78c0-10.82-5.54-11.62-10.28-13.66L475 0v12.42l36.36 13.67c5.01 2.37 7.54 6.25 7.54 10.44v18.46a78.72 78.72 0 01-11.6 41.46c-6.54 10.65-16.23 21.64-31.84 28.6v15.28z" fill="#E0E0E0"/>
    <path d="M486.91 53.6l.05-3.56a11.66 11.66 0 00-23.3 0l-.05 3.62a6.52 6.52 0 00-5.54 6.44v20.96a6.53 6.53 0 006.52 6.52h21.76a6.52 6.52 0 006.52-6.52V60.1a6.53 6.53 0 00-5.96-6.5zm-8.5 22.23h-5.68l.88-4.11a3.46 3.46 0 113.77-.06l1.03 4.17zm5.99-22.27h-18.28l.05-3.52a9.15 9.15 0 0118.28 0l-.05 3.52z" fill="#E0E0E0"/>
    <path d="M438.77 53.34a14.5 14.5 0 01-.67-3.64 62.88 62.88 0 01-.04-13.87c.07-1.37.41-2.71 1-3.95a4.6 4.6 0 011.97-1.98c.6-.28.99-.27 1-.23a5.13 5.13 0 00-2.47 2.45c-.5 1.21-.76 2.5-.8 3.8a101.95 101.95 0 00-.13 13.74c.14 2.27.26 3.67.14 3.68zM439.44 64.8c-.22 0-.42-1.08-.44-2.42-.03-1.34.12-2.43.33-2.43.22 0 .42 1.08.45 2.38.02 1.3-.13 2.46-.34 2.47z" fill="#fff"/>
    <path d="M540 325.51c0 .12-120.68.2-269.51.2-148.83 0-269.53-.08-269.53-.2 0-.12 120.66-.2 269.53-.2 148.88 0 269.51.1 269.51.2z" fill="#263238"/>
    <path d="M443.85 22.35H100.74a10.71 10.71 0 00-10.7 10.7v242.39a10.72 10.72 0 0010.7 10.71h131.68s8.38 25.91-17.59 39.31h123.12s-29.29-10.05-21.78-39.3h127.68a10.71 10.71 0 0010.7-10.72V33.06a10.71 10.71 0 00-10.7-10.71z" fill="#455A64"/>
    <path d="M276.87 260.66c4.67 6.67-2.64 13.98-9.31 9.31a2.33 2.33 0 01-.57-.57c-4.66-6.67 2.64-13.97 9.3-9.31.22.15.42.35.58.57z" fill="#263238"/>
    <path d="M103.62 26.79h337.33a7.67 7.67 0 017.67 7.67V241.8H95.95V34.46a7.67 7.67 0 017.67-7.67z" fill="#fff"/>
    <path d="M103.2 26.79h339.47a5.94 5.94 0 015.95 5.94v11.93H95.95V34a7.24 7.24 0 017.24-7.22z" fill="#EBEBEB"/>
    <path d="M107.19 38.57a2.48 2.48 0 100-4.95 2.48 2.48 0 000 4.95zM114.57 38.57a2.48 2.48 0 100-4.95 2.48 2.48 0 000 4.95zM121.6 38.57a2.47 2.47 0 10-.01-4.95 2.47 2.47 0 000 4.95z" fill="#E0E0E0"/>
    <path d="M382.48 286.19c0 .11-48.81.2-109.02.2-60.2 0-109.03-.09-109.03-.2 0-.12 48.8-.21 109.03-.21 60.23 0 109.02.1 109.02.2z" fill="#263238"/>
    <path d="M326.76 74.9L273 55.1l-53.25 19.55C212.95 77.94 207 79.9 207 86.4v32.37a124.7 124.7 0 0017.54 64.4c9.93 16.53 25.3 33.55 49.02 44.38 21.76-7.25 38.01-26.59 47.94-43.13a124.65 124.65 0 0017.54-64.38V90.93c-.04-9.27-4.82-13.8-12.27-16.02z" fill="#316CCC"/>
    <path opacity=".8" d="M326.76 74.9L273 55.1l-53.25 19.55C212.95 77.94 207 79.9 207 86.4v32.37a124.7 124.7 0 0017.54 64.4c9.93 16.53 25.3 33.55 49.02 44.38 21.76-7.25 38.01-26.59 47.94-43.13a124.65 124.65 0 0017.54-64.38V90.93c-.04-9.27-4.82-13.8-12.27-16.02z" fill="#fff"/>
    <path d="M305.82 156.8h-9.88v-53.77a22.96 22.96 0 10-45.91 0v53.78h-9.88v-53.78a32.85 32.85 0 1165.67 0v53.78z" fill="#316CCC"/>
    <path opacity=".4" d="M305.82 156.8h-9.88v-53.77a22.96 22.96 0 10-45.91 0v53.78h-9.88v-53.78a32.85 32.85 0 1165.67 0v53.78z" fill="#000"/>
    <path d="M312.64 132.88h-79.31a4.6 4.6 0 00-4.6 4.6v47.6a4.6 4.6 0 004.6 4.6h79.31a4.6 4.6 0 004.6-4.6v-47.6a4.6 4.6 0 00-4.6-4.6z" fill="#316CCC"/>
    <path opacity=".5" d="M280.38 153.88a7.4 7.4 0 10-9.42 7.12v11.07H275V161a7.37 7.37 0 005.38-7.12z" fill="#000"/>
    <path d="M233.45 184.29c-.2 0-.36-9.5-.36-21.16s.16-21.15.36-21.15c.2 0 .37 9.49.37 21.15 0 11.67-.16 21.16-.37 21.16zM267.2 163.36s-.35-.1-.88-.49a10.38 10.38 0 014.39-18.39c.33-.09.66-.1 1-.05 0 .14-1.4.28-3.32 1.4a10.28 10.28 0 00-3.5 14.8c.69.97 1.46 1.89 2.3 2.73z" fill="#FAFAFA"/>
    <path d="M339.5 215s.2-.3.63-.87l.36-.47c.13-.18.24-.4.36-.63.32-.51.58-1.05.8-1.62.12-.32.27-.65.4-1.02.12-.36.2-.79.32-1.17.13-.42.22-.86.27-1.3.1-.48.16-.96.2-1.44.2-2.32.09-4.65-.31-6.94-.8-5.2-3-11.3-6.37-17.94a139.8 139.8 0 00-13.68-21.28 217.69 217.69 0 00-20.4-22.93 249.1 249.1 0 00-26.77-22.86c-5-3.67-10.27-7.24-15.8-10.6a154.02 154.02 0 00-17.6-9.22 82.21 82.21 0 00-19.55-6.13 34.7 34.7 0 00-10.44-.26c-1.73.26-3.43.75-5.03 1.46a12.56 12.56 0 00-6.86 7.65 19.5 19.5 0 00-.87 5.17c-.05 3.5.43 6.99 1.43 10.35a82.06 82.06 0 008.31 18.74c3.37 5.71 7.1 11.2 11.17 16.43 3.95 5.14 8.1 9.97 12.32 14.52 8.01 8.6 16.62 16.63 25.76 24.02a218.9 218.9 0 0025.08 17.66c7.21 4.4 14.8 8.14 22.69 11.17 6.98 2.59 13.3 4.08 18.54 4.28 2.32.14 4.65-.02 6.93-.47.47-.1.94-.22 1.4-.36.43-.1.86-.25 1.27-.42l1.12-.46c.35-.16.67-.35.97-.51.54-.29 1.05-.62 1.52-1 .21-.16.41-.28.58-.43l.43-.4.79-.74-.75.79-.43.43-.58.44c-.47.38-.98.72-1.51 1.01-.3.17-.62.36-.97.53l-1.13.47c-.41.18-.84.32-1.27.42-.46.16-.93.28-1.41.39-2.29.46-4.63.63-6.96.5-5.27-.17-11.61-1.65-18.61-4.22a139.36 139.36 0 01-22.76-11.15 215.39 215.39 0 01-25.15-17.64 248.76 248.76 0 01-25.82-24.02c-4.23-4.55-8.38-9.4-12.35-14.54a154.6 154.6 0 01-11.2-16.46 82.79 82.79 0 01-8.37-18.84c-1-3.4-1.49-6.94-1.43-10.49.05-1.8.36-3.57.9-5.29a12.91 12.91 0 017.04-7.9 19.68 19.68 0 015.15-1.5c3.51-.45 7.08-.36 10.56.26a82.13 82.13 0 0119.66 6.17c6.05 2.7 11.92 5.8 17.56 9.27a211.17 211.17 0 0115.81 10.63c9.47 7 18.42 14.66 26.8 22.93a217.82 217.82 0 0120.38 22.98 139.74 139.74 0 0113.65 21.35c3.36 6.67 5.54 12.8 6.33 18.02.39 2.3.48 4.65.27 6.97-.04.49-.1.97-.2 1.45-.06.44-.16.88-.29 1.31l-.33 1.18c-.1.39-.3.7-.42 1.02-.22.57-.5 1.11-.83 1.62-.14.23-.25.45-.38.63l-.37.46-.57.84z" fill="#316CCC"/>
    <path d="M364.8 153.89s-.05-.37-.1-1.07c0-.18-.02-.38-.05-.6 0-.22-.1-.44-.14-.7-.1-.6-.27-1.2-.48-1.76-.12-.32-.23-.67-.37-1.03-.14-.35-.36-.7-.55-1.09-.2-.41-.43-.8-.7-1.18-.25-.38-.47-.79-.78-1.2a27.34 27.34 0 00-4.86-4.97c-4.05-3.33-9.76-6.43-16.69-9.15a140.08 140.08 0 00-24.36-6.77 217.5 217.5 0 00-30.47-3.52c-11.74-.56-23.5-.3-35.2.8-6.17.58-12.48 1.43-18.86 2.63a153.31 153.31 0 00-19.26 4.82 82.37 82.37 0 00-18.7 8.45 34.8 34.8 0 00-7.9 6.75 19.34 19.34 0 00-2.78 4.45 12.54 12.54 0 000 10.28c.72 1.6 1.66 3.1 2.78 4.44a34.55 34.55 0 007.9 6.72 82.17 82.17 0 0018.7 8.45c6.3 2.02 12.73 3.64 19.25 4.82 6.38 1.2 12.7 2.05 18.87 2.64 11.7 1.1 23.46 1.36 35.2.79 10.22-.46 20.4-1.63 30.46-3.52 8.31-1.52 16.47-3.78 24.37-6.77 6.93-2.71 12.65-5.81 16.69-9.15a27.08 27.08 0 004.85-4.97c.29-.38.55-.78.8-1.2.25-.36.47-.75.65-1.15l.55-1.1c.14-.35.25-.7.37-1.02.21-.57.37-1.16.48-1.76l.14-.7c.03-.22 0-.42.05-.6.05-.7.1-1.06.1-1.06s0 .36-.06 1.07v.6c0 .22-.1.45-.14.7-.1.6-.25 1.2-.46 1.77-.12.33-.22.68-.37 1.04l-.53 1.1c-.19.4-.41.8-.66 1.17-.26.38-.48.83-.8 1.22a27.13 27.13 0 01-4.86 5.02c-4.05 3.36-9.77 6.5-16.7 9.23-7.91 3-16.08 5.29-24.4 6.82a217.83 217.83 0 01-30.51 3.58c-11.76.59-23.54.34-35.26-.73-6.18-.59-12.5-1.43-18.9-2.63a154.3 154.3 0 01-19.3-4.82 82.6 82.6 0 01-18.79-8.5 35.26 35.26 0 01-8.05-6.84 19.75 19.75 0 01-2.84-4.55 12.96 12.96 0 010-10.57c.74-1.64 1.7-3.17 2.84-4.55a34.92 34.92 0 018.06-6.84 82.2 82.2 0 0118.78-8.48 153.03 153.03 0 0119.3-4.83 211.5 211.5 0 0118.9-2.63 249.16 249.16 0 0135.25-.73c10.24.48 20.44 1.68 30.51 3.6a139.71 139.71 0 0124.4 6.84c6.94 2.75 12.64 5.87 16.7 9.24a27.41 27.41 0 014.85 5.02c.29.4.55.8.8 1.22.24.37.47.76.66 1.16l.53 1.1c.15.37.25.72.37 1.05.2.57.36 1.16.46 1.77l.13.7c.03.23 0 .43 0 .6.12.71.12 1.08.12 1.08z" fill="#316CCC"/>
    <path d="M331.24 77.82l-.9-.58-.5-.32c-.19-.11-.42-.21-.65-.33-.54-.28-1.1-.51-1.68-.7-.33-.1-.67-.23-1.04-.33l-1.2-.27c-.44-.1-.88-.16-1.33-.19-.46 0-.94-.11-1.44-.1-2.33-.03-4.65.24-6.9.8-5.12 1.15-11.08 3.77-17.46 7.59a139.57 139.57 0 00-20.27 15.1 217.72 217.72 0 00-21.45 21.94 249.83 249.83 0 00-20.96 28.3 213.1 213.1 0 00-9.49 16.52 154.37 154.37 0 00-7.98 18.2c-2.41 6.42-4 13.12-4.75 19.94-.37 3.48-.21 7 .47 10.43a19.3 19.3 0 001.8 4.92 12.52 12.52 0 008.1 6.29c1.7.41 3.46.59 5.22.52 3.49-.2 6.93-.91 10.21-2.14a82.2 82.2 0 0018.13-9.6 153.1 153.1 0 0015.61-12.27c4.86-4.3 9.4-8.78 13.64-13.3a249.04 249.04 0 0022.14-27.35 217.55 217.55 0 0015.91-26.23c3.9-7.5 7.1-15.33 9.57-23.4 2.1-7.12 3.17-13.55 3-18.8a27.06 27.06 0 00-.95-6.88c-.13-.47-.28-.93-.46-1.38-.13-.42-.3-.84-.5-1.23-.18-.38-.36-.8-.52-1.1-.17-.3-.4-.64-.59-.92-.32-.52-.69-1-1.1-1.46-.16-.2-.31-.38-.46-.54l-.45-.4-.79-.73.8.7.44.39.48.54c.42.45.8.93 1.11 1.45.2.3.4.6.6.93l.54 1.09c.21.4.38.81.52 1.24.15.44.36.89.47 1.38a27.5 27.5 0 011 6.9c.18 5.28-.86 11.71-2.94 18.88a139.79 139.79 0 01-9.54 23.48 217.77 217.77 0 01-15.87 26.3 249.38 249.38 0 01-22.13 27.43c-4.26 4.53-8.8 9.01-13.66 13.34a153.26 153.26 0 01-15.65 12.3 82.05 82.05 0 01-18.18 9.64 34.64 34.64 0 01-10.4 2.18c-1.8.06-3.59-.12-5.34-.54a12.94 12.94 0 01-8.35-6.48 19.7 19.7 0 01-1.84-5.04 35.07 35.07 0 01-.48-10.55 82.62 82.62 0 014.8-20.05c2.28-6.23 4.96-12.3 8.02-18.19 2.97-5.79 6.17-11.3 9.48-16.55a249.54 249.54 0 0121.02-28.31 218.04 218.04 0 0121.52-21.93 139.15 139.15 0 0120.4-15.15c6.42-3.82 12.39-6.42 17.54-7.56 2.26-.56 4.6-.83 6.93-.79.49.01.97.05 1.45.11.45.03.9.1 1.33.2l1.2.25c.38.1.72.23 1.05.34.58.19 1.14.43 1.67.72.24.12.46.22.65.34l.5.33.88.68zM177.8 197.6a3.4 3.4 0 100-6.82 3.4 3.4 0 000 6.82zM372.52 86.12a3.42 3.42 0 11-6.83-.02 3.42 3.42 0 016.83.02zM201.72 202.99a.87.87 0 11-1.73 0 .87.87 0 011.73 0zM220.22 107.44a.87.87 0 01-1.04.86.87.87 0 01-.64-1.2.87.87 0 011.42-.27c.16.16.26.38.26.61zM355.4 153.89a.87.87 0 01-1.04.85.88.88 0 01-.69-.69.88.88 0 01.87-1.03.86.86 0 01.86.87zM367.44 113.48a.86.86 0 01-.53.81.86.86 0 01-.96-.18.88.88 0 01-.18-.95.87.87 0 01.8-.54.86.86 0 01.87.86zM506.72 242.86a29.57 29.57 0 0112.65-4.34c2.05-.21 4.3-.15 5.97 1.1a1.23 1.23 0 01.6 1.1c-.1.3-.3.57-.58.74-5.13 3.91-12.9 4.4-18.61 1.4M507.04 242.5a61.72 61.72 0 008.15-7.16c2.5-2.65 4.27-5.91 5.1-9.46a3.84 3.84 0 00-.4-3.16c-6.5 5.08-11.6 11.64-12.85 19.77" fill="#316CCC"/>
    <path d="M506.79 242.82c.6-3.55.54-7.18-.16-10.7a14.47 14.47 0 00-5.7-8.84c-1.12 2.63-.63 5.65.16 8.4a40.78 40.78 0 005.64 11.9M500.42 254.23c3.86.47 7.23 2.5 10.12 5.12 2.9 2.64 4.92 6.11 5.78 9.94-3.8-.23-7-2.9-9.34-5.91-2.34-3-3.96-6.29-6.5-9.09M499.03 256.05a24.98 24.98 0 00-2.88-23.61c-2.2 7.84-1.39 16.69 2.88 23.61zM490.62 266.07a18.05 18.05 0 0117.27 9.94c.21.42.4.97.12 1.35a1.29 1.29 0 01-1.15.34c-3.4-.22-6.41-2.27-8.9-4.6-2.48-2.32-4.65-5.02-7.4-7.03M490.89 265.53a32.17 32.17 0 00.32-17.95c-.63-2.32-1.7-4.75-3.83-5.83a.75.75 0 00-.59-.1c-.17.09-.3.24-.37.42a10.82 10.82 0 00-.9 5.15c.12 1.76.39 3.5.8 5.22.66 3.16 1.02 6.61 2.77 9.36.4.66.78 1.34 1.11 2.05.33.7.33.95.63 1.5M468.62 268.85c1.65-6.28-.1-13.89-4.06-19.04-.28-.38-.67-.79-1.14-.74-.74.07-.92 1.04-.89 1.77a34.4 34.4 0 006.09 18.01zM466.61 270.22c-7.62 1.98-16.37.05-22.7-4.62a18.36 18.36 0 0112.29-1.51c4.1.94 7.86 2.78 10.41 6.13zM464.92 266.04c-4.27-6.97-12.45-11.51-20.61-11.92.94 3.32 3.67 5.9 6.74 7.45 3.08 1.56 6.5 2.24 9.9 2.9 1.31.25 3.15.54 3.94 1.58M468.2 245.76c-1.15-3.96-2.32-7.96-2.64-12.08-.32-4.12.27-8.41 2.37-11.94 3.95 7.72 4.4 16.74.36 24.43M454.77 238.99c-4.67-8.49-14.19-15.26-23.81-16.2 3.71 9.25 13.85 16.4 23.8 16.2zM457.7 240.63c-6.96 1.06-12.88 5.54-19.38 8.2a8.7 8.7 0 01-4.38.84 3.43 3.43 0 01-2.15-6.07 9.31 9.31 0 013.16-1.93c7.11-2.95 14.67-3.02 22.13-1.23" fill="#316CCC"/>
    <path d="M461.73 245.51c-1.58.45-2.12 1.27-3.37 2.33a36.18 36.18 0 01-14.7 7.55c-.55.14-1.29.2-1.57-.3-.29-.51.06-.99.38-1.38a20.2 20.2 0 018.88-6.02c3.4-1.27 6.33-2.79 10.38-2.46M466.27 216.05a27.82 27.82 0 01-21.35 7.26c-.35.01-.7-.11-.96-.34-.54-.59.1-1.5.73-1.97 6.27-4.9 13.86-6.92 21.56-4.95" fill="#316CCC"/>
    <path d="M460.89 214.06a29.71 29.71 0 00-26.62-4.39c3.36 3.3 8 5.08 12.66 5.54 4.67.43 9.39.03 13.93-1.18M463.03 200.51c.62-6.25.21-11.2.65-17.49 0-.5.14-1.1.6-1.29.66-.24 1.2.56 1.42 1.23a20.07 20.07 0 01-2.66 17.4" fill="#316CCC"/>
    <path d="M463.48 201.21a36.71 36.71 0 01-10.37-10.08c-2.05-2.8-3.77-6.16-3.3-9.6a9.95 9.95 0 017.48 3.68 20.93 20.93 0 013.81 7.67c.83 2.75 1.4 5.59 2.37 8.3M453.29 198.38a83.8 83.8 0 01-25.51-15.03c3.04-1.22 6.54-.5 9.58.74 6.96 2.8 12.65 7.55 16.06 14.23M460.61 204.63c-4.74.52-9.49.85-14.17.08-4.68-.78-8.93-2.6-13.22-4.4-.38-.1-.7-.35-.9-.69a1.03 1.03 0 01.32-1.13c.33-.26.72-.44 1.13-.53 4.66-1.3 9.7-.69 14.3.85a66.23 66.23 0 0112.54 5.82zM487.5 216.24c3.22-6.48 3-14.05.24-20.74-1.96 2.98-2.2 6.77-1.84 10.28.36 3.51 1.44 7.2 1.5 10.76M500.34 209.78a28.91 28.91 0 0121.5 9.15c-4 .63-8.13-.4-11.77-2.18-3.65-1.78-6.88-4.28-10.09-6.75M508.98 206.88c3.95-.32 7.7-.79 11.47.36 3.77 1.14 7.2 3.78 8.74 7.41-3.7.3-7.41-.4-10.75-2.03a61.52 61.52 0 01-9.49-5.74M496.2 207.01c3.53-2.31 7.1-4.67 11.26-5.63 4.15-.95 8.88-.24 11.75 2.86-3.33 1.95-7.37 2.18-11.23 2.17-3.86 0-8.58-.04-12.23 1.25" fill="#316CCC"/>
    <path d="M496.18 207.2c6.03-5.93 8.32-16.6 5.89-24.69a37.6 37.6 0 00-5.9 24.7zM479.58 190.4c-1.14-2.64-1.94-5.43-2.96-8.11a23.41 23.41 0 00-4.22-7.5 11.07 11.07 0 00-7.48-3.87 30.16 30.16 0 0014.5 19.53M482.59 193.91c1.88-2.6 4.06-6.11 6.62-8.05 2.55-1.94 5.88-3.1 9-2.37a20.97 20.97 0 01-15.62 10.42zM481.98 190.62a45.3 45.3 0 002.98-9.65c.5-3.33.19-6.9-1.51-9.8-3.31 6.26-4.38 12.98-1.64 19.52M479.54 171.17c-1.87-6.22-7.55-10.79-13.7-12.9a5.12 5.12 0 00-2.37-.35 2.1 2.1 0 00-1.77 1.48c-.22 1.05.65 2 1.47 2.7a46.82 46.82 0 0016.4 9.07M479.48 166.08c-.24-4-.49-8.07-1.8-11.86-1.3-3.8-3.8-7.35-7.46-9.02-.61 4.05 1.16 8.08 3.32 11.56 2.15 3.48 4.74 6.76 6.04 10.64M479.58 168.84c1.58-4.53 1.71-10.28 4.42-14.23 1.9-2.76 4.93-4.64 6.56-7.56.98 2.8.84 5.88-.38 8.58a25.06 25.06 0 01-5.01 7.18c-2.01 2.14-3.73 3.75-5.6 6.02" fill="#316CCC"/>
    <path d="M479.54 302.14c.12 0 .23-30.19.24-67.43 0-37.24-.09-67.45-.2-67.45-.12 0-.23 30.2-.23 67.45-.01 37.26.08 67.43.2 67.43z" fill="#316CCC"/>
    <path d="M453.16 211.69c.37.18.75.32 1.14.43l3.12 1.05c2.64.9 6.26 2.2 10.19 3.81 3.93 1.61 7.55 3.02 9.63 4.83.84.7 1.5 1.57 1.94 2.56.3.72.36 1.15.4 1.14a.89.89 0 000-.31c-.05-.3-.12-.6-.23-.89a6.74 6.74 0 00-1.9-2.72 16.96 16.96 0 00-4.18-2.6 139.9 139.9 0 00-15.81-6.07 85.44 85.44 0 00-3.17-.92 7.47 7.47 0 00-1.13-.31z" fill="#316CCC"/>
    <path d="M444.52 190.45l.32.34.96.9 3.62 3.29 12.04 10.72c4.74 4.19 8.75 8.18 11.57 11.2 1.4 1.5 2.52 2.74 3.27 3.6l.88 1.01c.1.12.2.23.32.33 0 0-.07-.14-.25-.38l-.79-1.06c-.72-.9-1.8-2.19-3.16-3.72a153.04 153.04 0 00-11.51-11.3c-4.75-4.18-9-7.91-12.12-10.63l-3.71-3.16-1.03-.86c-.29-.2-.4-.3-.4-.28z" fill="#316CCC"/>
    <path d="M466.53 209.96c.12-.06-.86-2.33-1.83-5.2-.98-2.85-1.46-5.28-1.58-5.26.1 1.85.5 3.67 1.16 5.4.42 1.24.9 2.45 1.46 3.63.2.51.46 1 .8 1.43zM479.52 228.23c.27-.25.5-.53.72-.83l1.86-2.38c1.58-2.01 3.7-4.8 6.13-7.84 2.41-3.03 4.63-5.77 6.23-7.75a66.6 66.6 0 002.56-3.26c-.3.23-.56.5-.8.79a189.09 189.09 0 00-8.33 9.93 347.14 347.14 0 00-6.03 7.91c-.79 1.04-1.34 1.88-1.75 2.47-.23.3-.43.62-.59.96z" fill="#316CCC"/>
    <path d="M485.3 220.8c1.17-1.3 2-2.85 2.43-4.54.45-1.48.64-3.03.54-4.58h-.19c.09.35.15.54.18.53.04 0 .04-.2 0-.56h-.19c-.1 1.5-.36 3-.79 4.45a33.57 33.57 0 01-1.98 4.7zM492.77 211.4c.52-.39 1.1-.72 1.7-.98 1.51-.45 3.11-.57 4.69-.37 1.6.13 3.19.4 4.74.8.64.2 1.3.35 1.96.47a6.61 6.61 0 00-1.87-.8 21.88 21.88 0 00-4.75-.9c-1.63-.21-3.3-.03-4.84.53-.68.2-1.25.66-1.63 1.25zM494.54 209.13c0 .07.98-.4 2.6-.94 4.2-1.44 8.69-1.78 13.06-1 1.66.3 2.68.62 2.7.54a2.96 2.96 0 00-.69-.3 22.9 22.9 0 00-17.04 1.3c-.42.2-.64.37-.63.4zM479.58 199.5c.77-2.15 1.4-4.34 1.88-6.57.64-2.2 1.13-4.42 1.48-6.67a52.57 52.57 0 00-1.9 6.57 52.3 52.3 0 00-1.46 6.67z" fill="#316CCC"/>
    <path d="M479.43 199.5a30.5 30.5 0 012.1-3.95 17.26 17.26 0 013.07-3.17c-.44.11-.85.32-1.19.62a9.54 9.54 0 00-2.25 2.32 8.6 8.6 0 00-1.73 4.18zM479.54 286.05c.05 0 .14-.73.48-2 .5-1.81 1.18-3.56 2.02-5.24 2.08-4.27 5.88-9.67 10.7-15.08 2.37-2.73 4.74-5.31 6.68-7.78a54.68 54.68 0 004.74-6.89 32.75 32.75 0 002.85-6.57c.06-.17.1-.34.13-.52 0 0-.26.7-.8 1.92a37.6 37.6 0 01-2.5 5.02 58.1 58.1 0 01-4.83 6.79c-1.98 2.44-4.3 5-6.69 7.74-4.84 5.43-8.63 10.9-10.66 15.24a25.8 25.8 0 00-1.9 5.31c-.11.5-.2 1.01-.26 1.52 0 .18 0 .36.04.54z" fill="#316CCC"/>
    <path d="M455.7 259.12c.41.25.83.49 1.26.7 1.13.63 2.21 1.35 3.24 2.14a36.29 36.29 0 014.25 3.89c1.5 1.58 3.04 3.4 4.6 5.36 3.16 3.96 6.08 7.43 7.84 10.21.9 1.39 1.58 2.55 1.97 3.37.2.43.43.85.68 1.26a1.03 1.03 0 00-.1-.36c-.1-.23-.23-.56-.43-.98a30.42 30.42 0 00-1.86-3.44c-1.7-2.86-4.62-6.4-7.76-10.28a92.4 92.4 0 00-4.65-5.39c-1.34-1.4-2.8-2.7-4.36-3.85a22.6 22.6 0 00-3.34-2.04c-.42-.22-.75-.34-.98-.44-.22-.1-.35-.17-.35-.15z" fill="#316CCC"/>
    <path d="M455.24 267.85c.87.2 1.75.32 2.64.38 2.12.22 4.22.64 6.26 1.24 2.02.66 3.92 1.65 5.6 2.94 1.3 1 1.91 1.83 1.98 1.78-.1-.22-.24-.43-.4-.61-.42-.5-.88-.96-1.38-1.38a17 17 0 00-5.67-3.11c-2.07-.62-4.2-1-6.36-1.13-.89-.12-1.78-.15-2.67-.1z" fill="#316CCC"/>
    <path d="M470.94 273.23c.14-.08-1.05-1.9-1.97-4.34-.93-2.44-1.07-4.63-1.23-4.61-.06.47-.04.95.05 1.42a15.15 15.15 0 002.32 6.4c.22.42.5.8.83 1.13zM447.98 235.66c.14.08.28.16.43.22l1.24.56c.55.24 1.2.53 1.95.93.74.4 1.62.79 2.52 1.33l1.44.79c.5.29 1 .63 1.52.95 1.06.65 2.13 1.44 3.26 2.26a55.96 55.96 0 0114.7 16.34c.3.53.63 1.04.9 1.58l.8 1.47c.51.92.88 1.8 1.23 2.56.36.76.64 1.43.85 1.98l.53 1.26c.05.15.12.3.21.43a1.87 1.87 0 00-.13-.46l-.45-1.29a20.5 20.5 0 00-.79-2.01c-.34-.8-.69-1.67-1.18-2.61l-.75-1.5c-.27-.5-.59-1.03-.89-1.57-.6-1.1-1.35-2.2-2.12-3.39a53.92 53.92 0 00-12.65-13.1c-1.15-.78-2.23-1.57-3.3-2.22-.53-.33-1.04-.67-1.58-.95l-1.47-.8c-.92-.52-1.8-.9-2.57-1.27-.64-.32-1.3-.6-1.98-.85l-1.27-.5a1.62 1.62 0 00-.45-.14z" fill="#316CCC"/>
    <path d="M466.86 248.3a3.04 3.04 0 00-1.04-1.58 6.55 6.55 0 00-4.18-1.58c-1.51 0-3 .29-4.4.86-.59.19-1.15.45-1.67.8.6-.12 1.2-.3 1.77-.52 1.38-.47 2.82-.71 4.28-.72 1.44.04 2.82.53 3.95 1.4.46.42.9.87 1.29 1.34zM469.67 251.21c.13-.07-.94-1.63-1.19-3.86-.08-1.35.01-2.7.27-4.04-.25.34-.42.72-.49 1.13-.5 1.95-.26 4.01.67 5.79.17.38.42.72.74.98z" fill="#316CCC"/>
    <path d="M500.4 290.4c-.66 11.53-4.13 23.27-9.5 35.13h-23.23c-5.1-11.74-8.34-23.46-8.91-35.14h41.63z" fill="#263238"/>
    <path d="M462.52 309.05c0 .12 7.66.22 17.1.22 9.44 0 17.1-.1 17.1-.22s-7.65-.22-17.1-.22c-9.44 0-17.1.1-17.1.22zM463.05 313.23c0 .12 7.17.21 16.03.21 8.85 0 16.02-.09 16.02-.2 0-.13-7.17-.23-16.02-.23-8.86 0-16.03.1-16.03.22zM490.55 297.95c-.3 3.57-.3 7.15 0 10.72.28-3.57.28-7.15 0-10.72z" fill="#FAFAFA"/>
    <path d="M478.09 297.95a69.6 69.6 0 000 11.07c.28-3.68.28-7.38 0-11.07zM466.39 297.86a75 75 0 000 11.31c.3-3.76.3-7.55 0-11.31z" fill="#FAFAFA"/>
    <path d="M459.5 297.95c0 .12 8.98.22 20.05.22 11.08 0 20.05-.1 20.05-.22s-8.97-.22-20.05-.22c-11.07 0-20.06.1-20.06.22z" fill="#FAFAFA"/>
    <path d="M58.54 299.72l-3.75 19.24-7.36 14.34a2.01 2.01 0 002.83 2.64c3.53-2.16 16.49-10.17 16.69-11.6.22-1.64 5.3-20.01 5.3-20.01l-13.7-4.6z" fill="#316CCC"/>
    <path d="M48.42 336.06l18.81-13-.18.78a3 3 0 01-1.12 1.77c-1.56 1.16-5.81 4.32-15.62 10.34a2 2 0 01-1.89.11z" fill="#263238"/>
    <path d="M64.64 317.4a1.21 1.21 0 00-.67 1.47 1.16 1.16 0 001.46.67 1.27 1.27 0 00.7-1.58 1.22 1.22 0 00-1.59-.54" fill="#EBEBEB"/>
    <path d="M54.63 328.66a6.16 6.16 0 00-1.33-1.89 6.24 6.24 0 00-2.11-.9c0-.05.27-.14.74-.11a3.16 3.16 0 012.67 2.13c.12.46.08.77.03.77zM52.7 330.92c-.1.06-.58-.69-1.51-1.2a16.6 16.6 0 00-1.81-.64 2.2 2.2 0 012.02.28c1.06.57 1.42 1.54 1.3 1.56zM57.89 325.93a20.74 20.74 0 00-2.22-2c-.86-.5-1.76-.92-2.69-1.28 1.06-.05 2.1.28 2.93.93a4.48 4.48 0 011.98 2.35zM59.52 320.18c-.08.1-1.04-.57-2.38-.92-1.33-.34-2.53-.26-2.54-.38a3.8 3.8 0 012.65 0 3.9 3.9 0 012.27 1.3zM60.76 314.57c-.77-.46-1.6-.8-2.47-1.03a9.6 9.6 0 00-2.68.09c0-.05.24-.25.73-.4a4.39 4.39 0 013.88.7c.4.33.58.6.54.64zM58.56 312.48c-.01-.25.03-.5.13-.73.21-.65.55-1.25 1-1.77.28-.4.7-.7 1.18-.85a.78.78 0 01.85.37c.15.28.19.61.11.92a2.83 2.83 0 01-3 2.04 3.29 3.29 0 01-2.79-2.38 1.16 1.16 0 01.15-.94.8.8 0 01.9-.23c.45.21.84.53 1.12.94.43.52.76 1.12.98 1.77.1.23.15.48.15.73-.34-.83-.8-1.61-1.36-2.3-.26-.35-.6-.62-1-.8a.41.41 0 00-.48.13.79.79 0 00-.07.63 2.93 2.93 0 002.44 2.02 2.46 2.46 0 002.57-1.68.96.96 0 00-.05-.66.43.43 0 00-.47-.2c-.4.11-.76.36-1.02.7a7.57 7.57 0 00-1.34 2.29z" fill="#263238"/>
    <path d="M122.6 301.22l3.2 19.33 6.94 14.56a2 2 0 01-1.07 2.72 2 2 0 01-1.82-.18c-3.47-2.26-16.2-10.63-16.35-12.07-.19-1.65-4.75-20.16-4.75-20.16l13.85-4.2z" fill="#316CCC"/>
    <path d="M131.67 337.84l-18.42-13.54.15.79c.14.7.51 1.33 1.07 1.78 1.5 1.21 5.7 4.45 15.31 10.78a2.04 2.04 0 001.9.17v.02z" fill="#263238"/>
    <path d="M116 318.7a1.22 1.22 0 01.63 1.5 1.17 1.17 0 01-1.48.63 1.27 1.27 0 01-.65-1.58 1.2 1.2 0 011.58-.48" fill="#EBEBEB"/>
    <path d="M125.68 330.26c.35-.7.83-1.3 1.4-1.82.66-.42 1.38-.7 2.14-.84 0-.06-.27-.16-.73-.13a3.16 3.16 0 00-2.73 2.05c-.15.41-.13.73-.08.74zM127.54 332.57c.1.07.6-.67 1.58-1.14.6-.24 1.2-.44 1.83-.6a2.22 2.22 0 00-2.03.21c-1.1.55-1.5 1.5-1.38 1.53zM122.5 327.44c.71-.7 1.47-1.35 2.27-1.94a20 20 0 012.73-1.2 5.47 5.47 0 00-5 3.16v-.02zM121.04 321.65c.07.1 1.05-.55 2.42-.86 1.38-.3 2.54-.19 2.56-.31a3.96 3.96 0 00-2.65-.1c-.9.13-1.73.58-2.33 1.27zM119.95 316a9.82 9.82 0 012.51-.96 9.7 9.7 0 012.67.16c0-.05-.23-.25-.72-.43a4.36 4.36 0 00-3.88.63c-.42.3-.61.56-.58.6zM122.22 313.98c.02-.26-.02-.5-.11-.74a5.1 5.1 0 00-.94-1.8c-.28-.42-.69-.73-1.17-.89a.8.8 0 00-.85.35c-.16.28-.21.6-.14.92a2.85 2.85 0 002.93 2.12 3.3 3.3 0 002.85-2.29 1.15 1.15 0 00-.12-.94.78.78 0 00-.9-.26c-.45.19-.84.5-1.13.9-.45.51-.8 1.1-1.04 1.74-.1.23-.16.47-.17.72.37-.82.85-1.58 1.43-2.26.27-.34.62-.62 1.02-.8a.42.42 0 01.48.14.8.8 0 01.05.63 2.93 2.93 0 01-2.5 1.96 2.46 2.46 0 01-2.52-1.74.95.95 0 01.08-.65.46.46 0 01.47-.2c.4.14.74.4 1 .74.56.7 1 1.5 1.28 2.35z" fill="#263238"/>
    <path d="M60.42 173.85c-1.79-2.72-9.2 145.01-8.7 145.87l19.51.27 10.62-78.94 5.78-60.36 9.27 56.72 11.43 83.12 21.34.3-13.2-150.64-27.6-15.82-28.45 19.48z" fill="#263238"/>
    <path d="M79.01 74.6s-5.94 1.03-8.26 3.06c-2.32 2.02-4.6 6.58-4.6 6.58l-11.37 7.65 10 39.9-8.38 55.12 1.68 4.75 62.7-1.05 1.2-4.32-6.48-50.1 2.84-33.63 2.62-13.51-11.35-5.09s5.2-1.58 5.44-2.51c.23-.94-11.73-7.04-11.73-7.04s-18.86-3.23-24.3.18z" fill="#316CCC"/>
    <path opacity=".3" d="M59.98 161.05c7.12 9.17 16.74 15.93 26.25 22.54 2 1.4 4.09 2.82 6.48 3.3a9.08 9.08 0 009.13-3.84c1.37-2.1 1.84-4.74 3.47-6.64 1.1-1.29 2.64-2.12 3.83-3.34a16.5 16.5 0 002.46-3.63l3.89-7.02c-4.74 0-9.1 2.31-13.36 4.34-4.27 2.03-9 3.89-13.6 2.83-6.39-1.46-10.45-7.95-16.61-10.24a13.85 13.85 0 00-11.86 1.13" fill="#000"/>
    <path d="M54.78 91.9s-2.37 2.98-2.85 9.24c-.49 6.26-4.56 39.13-3.17 43.85 1.4 4.72 18.92 24.44 24.77 23.95l2.18-.79 2.1 1.63 9.34-7.01-20.6-25.93 1.1-37.33s-6.36-9.06-12.87-7.62z" fill="#316CCC"/>
    <path d="M70.75 77.66s-.19.13-.51.43c-.47.45-.9.94-1.26 1.48-.5.7-1.01 1.58-1.64 2.7-.62 1.12-1.43 2.26-2.28 3.62l-.14-.16a5.79 5.79 0 013.85 0c1.4.49 2.72 1.2 3.88 2.12a36.61 36.61 0 017 7.52 154.96 154.96 0 0112.84 21.68v.1l-.3 10.15-1.28 45.2-.43 13.69-.13 3.72c0 .41 0 .73-.05.96v0-.96c0-.88.04-2.13.06-3.72l.3-13.7c.27-11.57.64-27.55 1.17-45.2l.29-10.15v.1a158.32 158.32 0 00-12.73-21.7 36.8 36.8 0 00-6.89-7.5 13.49 13.49 0 00-3.77-2.12 5.53 5.53 0 00-3.7 0l-.32.12.18-.27 2.33-3.6c.67-1.05 1.17-1.99 1.69-2.68.38-.53.82-1.02 1.31-1.45.16-.15.34-.28.53-.38zM112.89 82.4c0 .07-1.2.42-3.1 1.18a29.54 29.54 0 00-6.94 3.86 45.83 45.83 0 00-5.79 5.49l-1.64 1.8c-.19.23-.4.44-.64.62a30.9 30.9 0 012.1-2.61 38.3 38.3 0 015.75-5.62 26.47 26.47 0 017.12-3.8c.97-.36 1.77-.6 2.33-.74.26-.1.53-.15.8-.18z" fill="#263238"/>
    <path d="M92.45 117.2c-.01-.4.01-.79.08-1.18.09-.75.24-1.83.5-3.16a108.02 108.02 0 016.05-20.24 35.5 35.5 0 011.38-2.9c.18-.34.39-.68.62-.99-.13.37-.29.73-.48 1.08-.31.68-.79 1.67-1.26 2.92-1 2.5-2.2 6.03-3.39 9.97A134.62 134.62 0 0092.7 116c-.05.4-.13.8-.24 1.2zM94.41 95.1c.95-2.42 2.02-4.8 3.2-7.11a74.06 74.06 0 013.58-6.95 75.87 75.87 0 01-3.2 7.12 73.04 73.04 0 01-3.58 6.95z" fill="#263238"/>
    <path d="M96.35 109.9l.18-.39c.22.16.48.24.74.25.32 0 .45-.1.45-.24 0-.42-1.32-.15-1.3-1 0-.37.32-.7.96-.68.27 0 .55.07.79.21l-.17.4a1.3 1.3 0 00-.62-.2c-.31 0-.44.12-.44.26 0 .42 1.32.15 1.3.98 0 .38-.32.7-.97.69-.33 0-.65-.1-.92-.28zM100.35 109.77v.42h-1.76l.04-2.27h1.71v.42h-1.19v.5h1.06v.4h-1.05v.53h1.19zM100.63 109.06a1.18 1.18 0 011.25-1.16 1.14 1.14 0 01.92.42l-.34.3a.72.72 0 00-.56-.27.74.74 0 00-.56.18.74.74 0 00-.25.55.74.74 0 00.5.69c.1.03.2.04.3.03a.71.71 0 00.58-.26l.33.31a1.14 1.14 0 01-.94.4 1.15 1.15 0 01-1.15-.72c-.06-.15-.09-.31-.08-.47zM104.82 109.57l-.1-.33c0-.07-.05-.15-.08-.22v.2c0 .44-.2.62-.51.61-.32 0-.5-.18-.5-.62v-1.25h-.52v1.28a.95.95 0 00.6.99c.13.05.27.07.41.06a1 1 0 00.85-.37 1.33 1.33 0 01-.15-.35zM104.93 108.5V109.37l.07.18.07.29c.05.24.07.5.05.74a1.07 1.07 0 00.3-.79v-1.27l-.49-.02zM107.38 110.87l-.43-.63h-.48v.63h-.52v-2.27h.98c.6 0 .98.33.97.84a.73.73 0 01-.48.7l.5.74h-.54zm-.47-1.84h-.43v.8h.43c.32 0 .48-.15.5-.4 0-.24-.17-.44-.5-.44v.04zM108.35 108.58h.52v2.27h-.52v-2.27zM109.88 109.03h-.73v-.43h1.97v.43h-.73v1.84h-.53l.02-1.84z" fill="#fff"/>
    <path d="M112.44 110.08v.8h-.52v-.8l-.86-1.47h.56l.59 1.02.62-1h.52l-.91 1.45z" fill="#fff"/>
    <path d="M106.78 116.01a2.14 2.14 0 01-.32-.59c-.17-.39-.4-.97-.66-1.7a30.66 30.66 0 01-1.5-11.88c.06-.79.14-1.39.2-1.82.02-.22.07-.44.17-.64.06 0 0 .94-.08 2.47a37.4 37.4 0 001.49 11.78c.27.79.5 1.58.7 2.38z" fill="#263238"/>
    <path opacity=".3" d="M94 109.72c-.34 2.81-1.24 4.2-1.29 7.04 0 .6-.97 10.2-.4 10.41.57.22 3.16-6.72 3.75-10.2.44-2.73 1.2-6.33 1.66-9.04 1.33-7.95 4.28-12.22 8.42-19.14.79-1.3 3.7-4.88 3.7-4.88-.28-.18-1.44.38-2.25.74-2.33 1.05-6.5 4.38-6.5 4.38a79.2 79.2 0 00-3.36 7.2c-1.6 4.56-2.86 9.22-3.8 13.95M67.89 85.57s-2.55 1.39-2.53 2.51a3.28 3.28 0 001.85 2.62c1.02.46 2.08.85 3.16 1.17a18.48 18.48 0 016.4 4.56 54.22 54.22 0 017.96 10.22c1.86 3.08 3.56 6.52 6.67 8.34-2.1-3.76-4.29-7.4-6.39-11.17a72.2 72.2 0 00-7.26-10.64c-2.74-3.32-7.2-7.34-9.85-7.61" fill="#000"/>
    <path d="M58.84 141.14v-.2c-.02-.2-.02-.41 0-.62.08-.77.35-1.51.79-2.15a4.74 4.74 0 015.14-2.09c.76.17 1.47.51 2.07 1l-.3.15c-.11-2.66.04-5.33.47-7.96.4-2.6.88-5.06 1.15-7.3.25-2 .4-4 .46-6.01.05-1.72 0-3.1 0-4.07v-1.1a1.23 1.23 0 010-.39c.04.12.06.25.06.38 0 .3.05.67.08 1.1a54.98 54.98 0 01-.26 10.13c-.26 2.27-.72 4.74-1.13 7.32a41.5 41.5 0 00-.5 7.91v.42l-.33-.27a4.75 4.75 0 00-4.06-.96 4.54 4.54 0 00-2.73 1.89 4.92 4.92 0 00-.79 2.04c-.12.5-.12.78-.12.78z" fill="#263238"/>
    <path d="M60.8 160.41c.1.06.18.13.26.22l.68.68c.62.57 1.52 1.43 2.74 2.41a40.6 40.6 0 004.6 3.25c.98.62 2 1.13 3.07 1.55.56.22 1.16.3 1.76.26.61-.04 1.19-.3 1.63-.71l.12-.13.13.1a62.9 62.9 0 002.1 1.58h-.23L87 162.6l-.04.3-.17-.21c-2.81-3.51-5.33-6.98-7.66-10.08-2.33-3.11-4.44-5.92-6.27-8.22-1.83-2.3-3.37-4.12-4.47-5.33-.55-.61-1-1.07-1.3-1.38a3.29 3.29 0 01-.44-.49 23.04 23.04 0 011.86 1.76 82.95 82.95 0 014.58 5.26c1.86 2.3 4 5.06 6.32 8.17 2.33 3.1 4.88 6.55 7.69 10.05l.16.2.13.17-.16.13-9.36 7-.12.08-.11-.08-2.1-1.63h.27c-.51.47-1.18.75-1.88.79-.65.04-1.3-.06-1.9-.3a18.75 18.75 0 01-3.11-1.58 38.4 38.4 0 01-7.23-5.86l-.66-.7a1.38 1.38 0 01-.23-.24zM68.32 102.26c-.07 0-.37-.9-1.14-2.28a16.03 16.03 0 00-3.9-4.7 17 17 0 00-5.31-2.98c-1.5-.5-2.48-.63-2.46-.7.23-.04.46-.04.7 0 .62.07 1.24.2 1.84.38a15.07 15.07 0 015.49 2.94c.87.75 1.67 1.59 2.37 2.5a14.54 14.54 0 012.21 4.12c.1.23.17.47.2.72z" fill="#263238"/>
    <path opacity=".3" d="M106.05 114.04c.26.56 1.19.21 1.3-.23a1.9 1.9 0 00-.29-1.35 23.72 23.72 0 01-2.6-9.15c-.35 3.65.2 7.33 1.59 10.73zM58.48 140.3a5.2 5.2 0 012.37-5.95c.51-.3 1.1-.45 1.7-.43 1.27.1 2.2 1.23 2.94 2.27a5.32 5.32 0 00-6.76 4.08" fill="#000"/>
    <path d="M120.24 92.49c-.32.69-.68 1.37-1.07 2.02a32.14 32.14 0 00-3.39 10.44 20.4 20.4 0 01-.33 2.27c-.1-.77-.1-1.54 0-2.3a25.63 25.63 0 013.47-10.55c.36-.68.8-1.31 1.32-1.88z" fill="#263238"/>
    <path opacity=".3" d="M115.01 112.57c-.42.43-.53 4.12-.53 4.12 0 4.45.28 6.4.29 10.85a20.5 20.5 0 01-.5 5.47 20 20 0 01-1.03 2.73 17.19 17.19 0 01-1.73 3.26c-.63.82-1.33 1.58-2.08 2.28a83.98 83.98 0 00-9.56 11.36l-1.74 2.52 17.25-16.19.84-2.13.05-.26-1.26-24.01z" fill="#000"/>
    <path d="M120.96 89.02s2.72 1.02 4.13 7.11c1.64 7.01 3.78 18.65 4.12 23.06.27 3.71 3.95 17.27 1.1 23.24-2.86 5.97-16.43 24.4-21.81 24.99l-2.25-.57-2.37.4-6.6-7.6.58-2.18a2.18 2.18 0 010-2.3c.79-1.08 17.63-16.9 17.63-16.9s-.65-.09-.8-1.18c-.23-1.88 1.4-1.82 1.4-1.82l-1.08-16.57 5.95-29.68z" fill="#316CCC"/>
    <path d="M121.98 140.2c-.07.1-1.31-.8-3.08-1.35-1.76-.55-3.29-.57-3.29-.7a6.32 6.32 0 013.42.3c1.13.3 2.15.9 2.95 1.75zM125.39 137.72a12.25 12.25 0 00-9.24-2.48c.45-.22.93-.34 1.43-.36 2.4-.27 4.8.38 6.75 1.8.42.27.78.62 1.06 1.03z" fill="#263238"/>
    <path d="M115.61 138.15s-.27 0-.62-.24c-.2-.16-.36-.38-.44-.63-.09-.3-.09-.63 0-.94.05-.2.13-.4.24-.58v.04a1.2 1.2 0 011.05-.7c.32 0 .49.07.48.12 0 .04-.17.04-.43.13a1.06 1.06 0 00-.72.58 2.6 2.6 0 00-.19.47 1.33 1.33 0 00.25 1.26c.2.3.42.43.38.49z" fill="#263238"/>
    <path d="M114.85 111.76c.09.3.14.6.15.92.07.59.15 1.45.23 2.51.17 2.13.34 5.07.48 8.32l.36 8.33.09 2.52c.03.3.03.62 0 .93-.09-.3-.14-.61-.15-.92-.07-.6-.15-1.45-.23-2.52-.17-2.12-.33-5.06-.47-8.31l-.36-8.33-.1-2.52a4.2 4.2 0 010-.93zM115.9 138.04a3.7 3.7 0 01-.43.41l-1.25 1.12-4.62 4.2a297.27 297.27 0 00-10.76 10.41c-.34.33-.62.71-.85 1.13-.2.42-.25.9-.14 1.35.14.52.22 1.05.25 1.59a1.58 1.58 0 01-.85 1.47l.08-.33 3.4 3.9 3.36 3.84-.2-.1 2.38-.41c1.03.13 1.89.6 2.78.45a5.23 5.23 0 002.38-1.1 37.57 37.57 0 003.77-3.53c2.27-2.37 4.11-4.64 5.64-6.53 1.53-1.89 2.71-3.45 3.53-4.5l.95-1.2c.1-.15.22-.29.35-.41-.08.16-.17.3-.28.44l-.9 1.25c-.79 1.08-1.94 2.66-3.44 4.58a92.92 92.92 0 01-5.6 6.61 37 37 0 01-3.8 3.6 5.6 5.6 0 01-2.58 1.18c-1.03.16-1.98-.35-2.87-.45h.07l-2.37.4h-.12l-.07-.08-3.35-3.83-3.41-3.9-.2-.22.28-.1a1.15 1.15 0 00.6-1.1c-.04-.5-.12-1-.25-1.48a2.53 2.53 0 01.19-1.58 5 5 0 01.92-1.22 265.6 265.6 0 0110.89-10.35c1.97-1.78 3.59-3.17 4.74-4.11l1.3-1.07c.14-.12.3-.24.47-.33zM115.49 128.54c0 .12-10.78.06-24.07-.13-13.29-.2-24.06-.45-24.06-.56 0-.1 10.77-.05 24.07.15s24.06.43 24.06.54zM103.1 135.07a4.32 4.32 0 01-.14 1.17 18.98 18.98 0 01-20.59 14.82c-.37-.04-.66-.1-.85-.14-.1-.01-.2-.04-.3-.08 1.45.1 2.9.1 4.35 0a19.36 19.36 0 0016.18-11.65 36.1 36.1 0 001.36-4.12zM80.05 168.11c-.07.1-.52-.16-.93-.64-.41-.47-.58-.94-.49-1 .1-.07.42.3.8.74.36.44.7.82.62.9zM83.07 165.76c-.09.07-.43-.23-.8-.67-.36-.45-.52-.87-.42-.93.1-.06.43.24.79.68.36.44.52.85.43.92z" fill="#263238"/>
    <path d="M100.55 159.42c.06.1-.4.43-.96.8-.57.36-1.04.67-1.11.58-.08-.09.3-.53.88-.93.59-.4 1.15-.55 1.2-.45zM102.8 161.62c.1.06-.18.67-.8 1.23-.6.56-1.17.83-1.22.73-.06-.1.4-.5.94-1.03.53-.53.98-1 1.08-.93zM104.95 164.25c.08.08-.27.59-.85 1.05-.59.46-1.16.69-1.21.6-.06-.1.4-.48.95-.93.56-.44 1.02-.8 1.11-.72zM74.28 80.09c.11-.05 1.05 2.37 2.67 5.02 1.61 2.65 3.24 4.66 3.16 4.74a6.4 6.4 0 01-1.17-1.2 27.32 27.32 0 01-4.13-6.96 5.92 5.92 0 01-.53-1.6zM121.98 186.33h-2.59l-7.04.06c-5.94.07-14.16.3-23.23.57-9.07.28-17.3.46-23.24.45-2.98 0-5.38 0-7.04-.06l-1.93-.06a3.6 3.6 0 01-.66-.05c.22-.03.44-.04.66-.03h1.93l7.03-.08c5.95-.07 14.16-.29 23.24-.57 9.07-.27 17.29-.45 23.24-.45 2.97 0 5.38 0 7.04.07l1.92.06c.22 0 .45.04.67.09z" fill="#263238"/>
    <path d="M105.6 81.38c-.1.1-1.06-1.02-2.58-1.95-1.52-.93-2.92-1.32-2.9-1.44a7.65 7.65 0 015.48 3.4z" fill="#316CCC"/>
    <path d="M100.47 168.77a1.75 1.75 0 001.67.8c.64 0 1.27-.25 1.9-.28a1.77 1.77 0 011.7.71 1.52 1.52 0 01-.05 1.47c-.27.43-.66.78-1.11 1.03a6 6 0 01-6.83-.66" fill="#FFBE9D"/>
    <path d="M85.98 178.6a38.33 38.33 0 006.12 4.95c.44.36 1 .56 1.58.55.57-.1 1.02-.85.64-1.28a1.78 1.78 0 002.1.05 1.8 1.8 0 00.65-1.91v-.03c0-.01 0-.02.02-.03h.05a1.99 1.99 0 001.74-.13 1.49 1.49 0 00.65-1.66c.58.79 1.99.48 2.44-.4a2.7 2.7 0 00-.46-2.77 13.8 13.8 0 00-2.19-1.97 4.36 4.36 0 01-1.64-2.38" fill="#FFBE9D"/>
    <path d="M94.6 183.15a4.23 4.23 0 01-2.08-1.35 4.15 4.15 0 01-1.32-2.1c.1-.05.67.88 1.58 1.82.91.94 1.88 1.52 1.82 1.63zM97.57 181.31a4.39 4.39 0 01-1.87-1.3 4.47 4.47 0 01-1.32-1.86c.1-.07.74.7 1.58 1.58.85.88 1.66 1.48 1.61 1.58zM100.14 179.49a3.95 3.95 0 01-1.8-1.2c-.57-.47-1-1.08-1.26-1.77.1-.07.72.66 1.58 1.47.87.8 1.55 1.4 1.48 1.5z" fill="#EB996E"/>
    <path d="M80.8 160.7s-.24-1.02 2.37-.7c2.2.4 4.44.54 6.67.44 2.92-.16 7.65-.98 7.65-.98l7.62 6.7s-7.79 6.84-10.12 8.06c-2.33 1.22-7.07 4.25-9.77 4.11-2.05-.1-2.23-1.13-2.23-1.13s-2.01-1.38-1.71-2.05c0 0-2.37-.13-1.93-1.95 0 0-1.7-.32-1.98-1.28-.27-.97 1-2.1 1.5-2.6.8-.79 7.72-5.86 7.75-6-.01.03-5.93-.57-5.82-2.62z" fill="#FFBE9D"/>
    <path d="M85.72 168.12a20.2 20.2 0 01-3.12 2.66c-1.04.9-2.16 1.7-3.36 2.37.94-1 1.99-1.88 3.12-2.66 1.04-.9 2.16-1.69 3.36-2.37zM89.38 168.83c-.24.46-.55.88-.91 1.25a20.25 20.25 0 01-5.83 4.55c-.44.27-.92.46-1.42.58-.07-.11 2.04-1.15 4.29-2.91 2.25-1.77 3.77-3.55 3.87-3.47zM92.65 171.18c-.26.52-.61 1-1.03 1.4a14.75 14.75 0 01-7.11 4.27c-.56.19-1.14.28-1.72.26 1.87-.55 3.67-1.3 5.37-2.24a26.48 26.48 0 004.49-3.69zM101.95 169c-.17.22-.37.42-.58.6a49.68 49.68 0 01-11.38 7.58c-1 .53-2.07.92-3.17 1.17-.74.17-1.52.17-2.27 0a1.84 1.84 0 01-.79-.34c.97.28 2 .28 2.97 0 1.05-.28 2.07-.7 3.03-1.22a63.65 63.65 0 009.67-6.01c1.57-1.08 2.47-1.83 2.52-1.78z" fill="#EB996E"/>
    <path d="M88 36.04a13.66 13.66 0 00-14.88 12.58 298.6 298.6 0 00-.93 16.66c0 7.42 7.39 8.7 7.39 8.7l-.46 4.93a9.78 9.78 0 1019.49 1.44l1.77-29.88A13.67 13.67 0 0088 36.05v-.01z" fill="#FFBE9D"/>
    <path d="M79.57 73.86c3.43.11 6.8-.8 9.71-2.61 0 0-2.48 5.36-9.87 4.58l.16-1.97z" fill="#EB996E"/>
    <path d="M99.66 53c.13-.05 5.12-1.44 4.89 3.64-.24 5.08-5.28 3.79-5.28 3.64-.01-.15.4-7.28.4-7.28z" fill="#FFBE9D"/>
    <path d="M100.9 58.43s.09.07.24.14a.85.85 0 00.66.05 2.2 2.2 0 001.1-1.92c.03-.43-.03-.87-.19-1.27a1.05 1.05 0 00-.63-.71.46.46 0 00-.54.22c-.07.13-.05.24-.07.24-.02.01-.1-.08-.05-.3.03-.12.1-.23.2-.3.16-.1.33-.14.5-.1a1.25 1.25 0 01.9.78c.19.45.27.94.23 1.43a2.31 2.31 0 01-1.4 2.13.96.96 0 01-.78-.17c-.16-.1-.18-.2-.17-.22z" fill="#EB996E"/>
    <path d="M76 52.67A1.07 1.07 0 0077 53.75a1 1 0 001.1-.94 1.05 1.05 0 00-1-1.08 1.02 1.02 0 00-1.11.94zM75 51.3c.12.14.94-.45 2.07-.43 1.14.03 1.97.6 2.1.46.13-.14-.07-.3-.44-.57a2.84 2.84 0 00-1.66-.55 2.8 2.8 0 00-1.66.5c-.36.27-.48.52-.42.58zM87.42 52.98a1.06 1.06 0 001 1.08 1.01 1.01 0 001.11-.93 1.06 1.06 0 00-1-1.1 1.02 1.02 0 00-1.1.95zM86.2 51.66c.12.15.94-.44 2.08-.41 1.14.02 1.97.6 2.1.46.12-.13-.08-.31-.44-.58a2.88 2.88 0 00-3.33-.03c-.36.26-.48.5-.41.56zM81.94 60.06c-.6-.2-1.22-.31-1.85-.35-.29 0-.57-.1-.61-.3-.02-.3.05-.6.2-.86l.9-2.2c1.24-3.17 2.14-5.73 2.01-5.78-.12-.04-1.23 2.45-2.47 5.6l-.86 2.22c-.19.34-.25.75-.17 1.14a.79.79 0 00.47.43 6.84 6.84 0 002.37.1zM84.88 47.54c.13.3 1.26.08 2.6.15 1.35.08 2.46.37 2.61.08.08-.14-.14-.42-.59-.7a4.42 4.42 0 00-1.97-.54c-.68-.03-1.37.1-2 .37-.48.23-.7.5-.65.64zM74.57 47.1c.2.25.98 0 1.93 0s1.74.2 1.93-.07c.07-.13-.04-.4-.4-.64a2.78 2.78 0 00-3.1.05c-.34.26-.45.53-.36.65z" fill="#263238"/>
    <path d="M100.25 52.77c.06.82 0 1.64-.16 2.44a2.68 2.68 0 01-1.33 1.83c-1.28.62-2.86-.38-3.42-1.69-.55-1.31-.37-2.8-.22-4.22a20.4 20.4 0 000-5.8 8.32 8.32 0 00-2.7-5.03 5.3 5.3 0 00-5.46-.86c-1.09.51-1.9 1.45-2.92 2.09-.9.6-2 .87-3.08.72-1.06-.18-2.5-.93-2.32-1.99.42-2.47-1.3-.4-1.19-.79.2-.7 1.62-1.9 2.22-2.37a7.9 7.9 0 013.4-1.35c3.26-.55 6.62-.17 9.68 1.1a12.56 12.56 0 016.9 6.59c1.42 3.5 1.2 5.62.71 9.38M84.35 63.42c0 .23-.94.46-2.11.53-1.18.06-2.15-.07-2.17-.3-.02-.23.94-.46 2.12-.53 1.18-.06 2.15.1 2.16.3z" fill="#263238"/>
    <path d="M100.23 53.22a5.32 5.32 0 01-1.58-.34c-.94-.28-2.2-.79-3.59-1.31l-3.53-1.42c-.5-.15-1-.36-1.46-.62.54.04 1.07.15 1.58.34.94.28 2.2.8 3.6 1.31l3.52 1.43c.5.14 1 .35 1.46.61zM79.14 48.84a1.52 1.52 0 011.33 1.26 6.33 6.33 0 01-4.62 7.08 3.68 3.68 0 01-2.9-.28c-1.17-.74-1.58-2.29-1.64-3.68a4.75 4.75 0 01.5-2.95 4.26 4.26 0 013.42-1.59c1.3-.01 2.6.04 3.9.16z" fill="#263238"/>
    <path d="M85.1 49.02a1.53 1.53 0 00-1.38 1.24 6.38 6.38 0 004.46 7.29 3.74 3.74 0 002.93-.2c1.22-.72 1.63-2.27 1.78-3.67.19-1.02.04-2.08-.43-3a4.3 4.3 0 00-3.4-1.7c-1.32-.1-3.96.04-3.96.04z" fill="#263238"/>
    <path d="M86.3 49.23c-1.44.18-2.9.23-4.35.13-1.45.03-2.9-.07-4.35-.3 1.45-.18 2.9-.22 4.36-.12 1.45-.04 2.9.06 4.34.29z" fill="#263238"/>
    <path d="M99.95 82.89v-.12a1.57 1.57 0 010-.37c.08-.47.25-.91.49-1.32a9.3 9.3 0 00.89-1.97c.25-.92.36-1.88.33-2.84 0-1.07-.13-2.22-.21-3.51a1.8 1.8 0 01.24-1.03.97.97 0 011.04-.48.79.79 0 01.5.4.62.62 0 010 .67 1 1 0 01-1.19.23 1.77 1.77 0 01-.94-2.06c.1-.42.36-.78.7-1.03.18-.14.4-.22.62-.25a.79.79 0 01.7.24.72.72 0 01.17.75.73.73 0 01-.66.4 1.63 1.63 0 01-1.65-1.8 1.65 1.65 0 011.93-1.33c.2.06.4.17.54.32a.7.7 0 01.18.66.7.7 0 01-.48.47c-.2.06-.4.08-.59.05-.36-.06-.7-.2-1-.44a1.77 1.77 0 01-.64-1.95 1.59 1.59 0 011.7-1 .94.94 0 01.8.79.7.7 0 01-.22.56.91.91 0 01-.51.22c-.34 0-.67-.12-.93-.34-.24-.2-.45-.44-.59-.72a1.34 1.34 0 01.37-1.7.95.95 0 011.48.6v.1l-.1.05a1.39 1.39 0 01-1.92-.69 1.18 1.18 0 01.1-1.02c.15-.28.4-.5.7-.63.3-.12.62-.12.9 0a.67.67 0 01.44.73.48.48 0 01-.28.35.6.6 0 01-.42 0 .79.79 0 01-.42-.57 6.13 6.13 0 01.13-2.51c-.08.82-.06 1.65.06 2.47.02.09.06.17.12.25.05.07.13.13.2.17a.27.27 0 00.4-.19c.1-.4-.57-.65-1-.42a1.05 1.05 0 00-.63 1.3 1.1 1.1 0 001.48.52l-.08.15a.64.64 0 00-.97-.34.98.98 0 00-.23 1.25 1.48 1.48 0 001.16.85c.21 0 .4-.2.38-.37a.58.58 0 00-.47-.43 1.15 1.15 0 00-1.25.8 1.36 1.36 0 00.53 1.48c.23.18.5.3.8.35.26 0 .58-.05.6-.23.04-.17-.16-.4-.42-.45a1.1 1.1 0 00-.79.15 1.2 1.2 0 00-.58.8 1.15 1.15 0 00.32.94 1.16 1.16 0 00.9.4c.33 0 .4-.25.21-.48-.19-.23-.53-.14-.79.05-.26.2-.46.48-.55.8a1.4 1.4 0 00.71 1.57c.26.12.63.1.74-.08.1-.18 0-.45-.28-.52a.62.62 0 00-.65.33c-.14.24-.2.51-.2.79.07 1.24.19 2.44.17 3.53 0 .98-.13 1.96-.41 2.9-.23.7-.56 1.37-.97 1.98-.25.39-.44.81-.55 1.25-.16.35-.16.52-.16.52z" fill="#E0E0E0"/>
    <path d="M102.86 58.62a2.78 2.78 0 00-.34-1.1 1.3 1.3 0 00-.91-.62 1 1 0 00-1 .64 1.03 1.03 0 00.36 1.12l.09.07c.13.08.32.1.45.17a.91.91 0 01.35.85c-.04.31-.06.63-.07.95 0 .23.15.5.38.51.23 0 .34-.2.42-.38.3-.7.39-1.47.27-2.21z" fill="#E0E0E0"/>
    <path d="M79.47 75.16s-1.58 2.33-1.72 3.84c-.1 1 .58 4.9 1.04 7.43a10.6 10.6 0 001.66 4.04l1.03 1.51a35.22 35.22 0 013.7 6.97l5.53 14.02c.45 1.02.95 2.01 1.5 2.98l1.78-21.31 5.38-10.66c.47-.93.74-1.94.79-2.98l.13-3.42a4.83 4.83 0 00-1.25-3.4l-.27 3.08-8.91 8.1-10.35-6.97-.04-3.23z" fill="#fff"/>
    <path d="M89.34 85.43a5.37 5.37 0 00-1.87 1.75 19.94 19.94 0 00-2.16 5.9l-.17.7-.08.31-.25-.21a39.75 39.75 0 01-4.19-4.18c-.56-.57-1.07-1.19-1.54-1.85.63.5 1.22 1.06 1.75 1.66a58.42 58.42 0 004.24 4.05l-.34.11.18-.7c.6-2.4 1.33-4.6 2.32-5.96.37-.54.86-1 1.43-1.34.2-.13.44-.22.68-.24zM95.7 91.17a24.28 24.28 0 01-2 3.26l-.33.5v-.6c-.07-1-.25-1.96-.56-2.9-.3-1.57-.83-3.08-1.58-4.5a12.3 12.3 0 00-1.26-1.5s.18.07.47.27c.4.3.75.66 1.04 1.07a13.9 13.9 0 011.74 4.55c.31.97.49 1.99.52 3.01l-.33-.11c.68-1.08 1.45-2.1 2.29-3.05zM91.62 114.5c-.11 0-.62-6.46-1.13-14.44-.51-7.98-.84-14.44-.73-14.45.11-.01.63 6.45 1.14 14.43.52 7.98.83 14.45.72 14.46z" fill="#263238"/>
    <path d="M71.7 53.23a2.03 2.03 0 01-.1-1.86c.34-1.03 1.14-1.52 1.19-1.43.05.1-.5.66-.8 1.58-.28.93-.17 1.69-.3 1.71zM84.74 53.67c-.08.07-.6-.6-.6-1.58.01-.98.52-1.67.6-1.58.09.1-.2.73-.19 1.58.01.86.3 1.53.2 1.58z" fill="#E0E0E0"/>
    <path d="M431.65 125H400v31.65h31.65V125z" stroke="#FFE1C9" stroke-width="5" stroke-linecap="round" stroke-linejoin="round"/>
    <path d="M148.25 72.77L133 58.47M133.47 73.25L147.77 58" stroke="#B0C1DE" stroke-width="5" stroke-linecap="round" stroke-linejoin="round"/>
  </g>
  <defs>
    <clipPath id="clip0">
      <path fill="#fff" d="M0 0h540v338H0z"/>
    </clipPath>
  </defs>
</svg>
