<svg width="20" height="34" viewBox="0 0 20 34" fill="none" xmlns="http://www.w3.org/2000/svg">
<path d="M19.211 9.69996C18.9865 9.32729 18.5836 9.09978 18.1484 9.09978H13.8645L15.7535 1.54202C15.8465 1.17141 15.763 0.77848 15.5276 0.477328C15.2927 0.176176 14.9321 0 14.5499 0H4.95375C4.35231 0 3.83779 0.430977 3.73234 1.02292L0.63017 18.3952C0.565623 18.7567 0.664502 19.1281 0.900244 19.4098C1.13599 19.6911 1.48429 19.8541 1.85158 19.8541H5.79299L5.07952 32.6905C5.04725 33.2729 5.4249 33.799 5.98703 33.9549C6.09707 33.9855 6.20876 34 6.31873 34C6.76996 34 7.19728 33.753 7.41609 33.3386L19.2458 10.9197C19.4484 10.5354 19.4356 10.0726 19.211 9.69996ZM7.8723 27.1549L8.34339 18.6818C8.36238 18.341 8.24039 18.008 8.00585 17.7602C7.77176 17.5129 7.44578 17.3722 7.10458 17.3722H3.33357L5.99274 2.48167H12.9603L11.0712 10.0394C10.9782 10.41 11.0617 10.803 11.2971 11.1041C11.532 11.4053 11.8927 11.5814 12.2749 11.5814H16.0906L7.8723 27.1549Z" fill="#1FD147"/>
</svg>
