<svg width="151" height="533" viewBox="0 0 151 533" fill="none" xmlns="http://www.w3.org/2000/svg">
<path d="M19.9659 465.333L13.3516 499.205L0.387456 524.47C0.167001 524.902 0.0375112 525.374 0.00701519 525.857C-0.0234808 526.341 0.0456707 526.826 0.210176 527.281C0.374681 527.737 0.631036 528.154 0.963345 528.507C1.29565 528.859 1.69683 529.14 2.142 529.331C2.65852 529.557 3.22211 529.655 3.78465 529.616C4.3472 529.577 4.89201 529.403 5.37258 529.108C11.597 525.306 34.42 511.197 34.7681 508.69C35.158 505.793 44.1117 473.439 44.1117 473.439L19.9659 465.333Z" fill="#316CCC"/>
<path d="M2.14157 529.33L35.269 506.419L34.9487 507.812C34.6861 509.048 33.9896 510.15 32.9853 510.918C30.2281 512.965 22.7365 518.536 5.46963 529.135C4.97411 529.44 4.41085 529.617 3.83012 529.651C3.24939 529.685 2.66928 529.575 2.14157 529.33Z" fill="#263238"/>
<path d="M30.7026 496.447C30.22 496.66 29.8332 497.044 29.6172 497.525C29.4011 498.006 29.3711 498.55 29.5329 499.052C29.7265 499.54 30.1005 499.936 30.5774 500.156C31.0543 500.377 31.5977 500.405 32.0951 500.236C32.6122 500.011 33.0255 499.599 33.2526 499.083C33.4797 498.566 33.5039 497.984 33.3205 497.45C33.0645 496.967 32.6336 496.6 32.116 496.424C31.5983 496.248 31.033 496.276 30.5355 496.503" fill="#EBEBEB"/>
<path d="M13.0729 516.294C12.5103 515.047 11.7165 513.918 10.7335 512.966C9.60292 512.211 8.34232 511.673 7.01558 511.378C7.01558 511.294 7.48902 511.127 8.31059 511.183C9.37301 511.293 10.3815 511.705 11.216 512.372C12.0505 513.039 12.6757 513.931 13.0172 514.944C13.2261 515.751 13.1565 516.294 13.0729 516.294Z" fill="#263238"/>
<path d="M9.68908 520.277C9.49413 520.389 8.64471 519.066 7.0155 518.174C5.97551 517.732 4.91079 517.351 3.82668 517.032C4.41614 516.82 5.04818 516.754 5.66889 516.839C6.28961 516.923 6.8806 517.157 7.39146 517.52C9.24348 518.537 9.88403 520.236 9.68908 520.277Z" fill="#263238"/>
<path d="M18.8101 511.489C17.5971 510.222 16.294 509.045 14.9111 507.966C13.3919 507.095 11.8093 506.341 10.1766 505.709C12.0335 505.62 13.8611 506.198 15.3289 507.339C16.9431 508.267 18.1764 509.738 18.8101 511.489Z" fill="#263238"/>
<path d="M21.6786 501.363C21.5393 501.544 19.8544 500.36 17.5011 499.747C15.1477 499.135 13.0451 499.288 13.0172 499.065C14.5222 498.507 16.1771 498.507 17.6821 499.065C19.2396 499.346 20.6518 500.158 21.6786 501.363Z" fill="#263238"/>
<path d="M23.8784 491.476C22.5147 490.677 21.0484 490.067 19.5199 489.665C17.947 489.495 16.358 489.547 14.7994 489.818C14.7994 489.735 15.231 489.387 16.0944 489.108C17.2507 488.771 18.4698 488.708 19.6545 488.926C20.8392 489.144 21.9566 489.635 22.9176 490.362C23.6278 490.933 23.9341 491.42 23.8784 491.476Z" fill="#263238"/>
<path d="M19.9938 487.798C19.9705 487.359 20.0467 486.921 20.2166 486.516C20.5944 485.373 21.1902 484.313 21.9711 483.396C22.4847 482.681 23.2182 482.152 24.0599 481.892C24.3476 481.828 24.6482 481.857 24.9184 481.975C25.1887 482.092 25.4146 482.293 25.5638 482.547C25.8271 483.048 25.8965 483.628 25.7587 484.176C25.4357 485.296 24.731 486.267 23.7669 486.92C22.8029 487.574 21.6404 487.87 20.4812 487.756C19.34 487.625 18.2634 487.158 17.3881 486.414C16.5129 485.67 15.8785 484.683 15.5657 483.577C15.4893 483.298 15.4734 483.006 15.519 482.72C15.5646 482.434 15.6708 482.162 15.8303 481.92C16.0182 481.694 16.2731 481.533 16.5583 481.46C16.8435 481.387 17.1444 481.407 17.4177 481.516C18.2037 481.884 18.8804 482.451 19.3811 483.16C20.1397 484.087 20.7246 485.144 21.1078 486.279C21.2836 486.684 21.3737 487.12 21.3724 487.561C20.7776 486.099 19.9705 484.734 18.9773 483.508C18.5197 482.903 17.916 482.423 17.2227 482.115C17.0746 482.051 16.9091 482.037 16.7527 482.078C16.5963 482.118 16.4578 482.21 16.3594 482.338C16.2667 482.504 16.209 482.687 16.1898 482.877C16.1707 483.066 16.1905 483.257 16.248 483.438C16.5479 484.383 17.113 485.221 17.8759 485.853C18.6388 486.485 19.5673 486.885 20.5508 487.004C21.5276 487.093 22.5058 486.849 23.3255 486.31C24.1451 485.771 24.7575 484.97 25.0625 484.037C25.1721 483.654 25.1425 483.244 24.9789 482.881C24.8991 482.74 24.7761 482.629 24.6281 482.564C24.4801 482.499 24.315 482.483 24.1574 482.519C23.4412 482.729 22.8115 483.163 22.361 483.759C21.3401 484.955 20.5387 486.322 19.9938 487.798Z" fill="#263238"/>
<path d="M132.8 467.965L138.44 502.004L150.652 527.645C150.862 528.081 150.979 528.556 150.998 529.04C151.016 529.524 150.934 530.006 150.758 530.457C150.581 530.908 150.314 531.317 149.972 531.66C149.631 532.003 149.222 532.272 148.772 532.45C148.249 532.658 147.684 532.738 147.124 532.682C146.565 532.627 146.026 532.437 145.555 532.13C139.442 528.146 117.023 513.397 116.758 510.876C116.438 507.965 108.403 475.36 108.403 475.36L132.8 467.965Z" fill="#316CCC"/>
<path d="M148.771 532.465L116.326 508.606L116.591 509.999C116.828 511.237 117.494 512.351 118.471 513.147C121.103 515.278 128.497 520.974 145.443 532.13C145.933 532.446 146.491 532.638 147.071 532.689C147.651 532.74 148.235 532.648 148.771 532.423V532.465Z" fill="#263238"/>
<path d="M121.172 498.759C121.646 498.987 122.02 499.381 122.223 499.866C122.426 500.351 122.443 500.894 122.272 501.392C122.06 501.873 121.673 502.256 121.189 502.462C120.706 502.669 120.162 502.685 119.668 502.506C119.166 502.266 118.771 501.848 118.56 501.333C118.349 500.819 118.337 500.244 118.526 499.72C118.793 499.249 119.231 498.899 119.749 498.741C120.267 498.582 120.826 498.629 121.311 498.871" fill="#EBEBEB"/>
<path d="M138.216 519.107C138.832 517.892 139.673 516.805 140.695 515.904C141.84 515.172 143.117 514.671 144.454 514.427C144.454 514.33 143.981 514.149 143.173 514.191C142.108 514.268 141.087 514.651 140.232 515.293C139.378 515.935 138.726 516.81 138.355 517.812C138.091 518.536 138.133 519.093 138.216 519.107Z" fill="#263238"/>
<path d="M141.488 523.188C141.683 523.3 142.56 522.005 144.273 521.169C145.328 520.752 146.407 520.399 147.504 520.11C146.921 519.883 146.291 519.799 145.669 519.864C145.046 519.93 144.448 520.143 143.925 520.486C141.99 521.447 141.293 523.133 141.488 523.188Z" fill="#263238"/>
<path d="M132.618 514.136C133.871 512.908 135.206 511.768 136.615 510.724C138.161 509.9 139.767 509.192 141.419 508.607C139.573 508.594 137.762 509.113 136.201 510.101C134.641 511.088 133.398 512.503 132.618 514.178V514.136Z" fill="#263238"/>
<path d="M130.043 503.941C130.168 504.122 131.895 502.98 134.318 502.436C136.741 501.893 138.774 502.102 138.815 501.879C137.328 501.284 135.68 501.22 134.151 501.698C132.56 501.939 131.106 502.733 130.043 503.941Z" fill="#263238"/>
<path d="M128.135 493.982C129.523 493.225 131.008 492.663 132.549 492.311C134.124 492.185 135.708 492.279 137.256 492.589C137.256 492.506 136.838 492.143 135.975 491.837C134.828 491.472 133.613 491.377 132.424 491.559C131.234 491.758 130.108 492.235 129.138 492.951C128.4 493.467 128.066 493.926 128.135 493.982Z" fill="#263238"/>
<path d="M132.132 490.431C132.157 489.989 132.086 489.547 131.923 489.135C131.593 487.982 131.034 486.907 130.28 485.974C129.787 485.235 129.062 484.681 128.219 484.4C127.936 484.332 127.638 484.354 127.368 484.464C127.099 484.574 126.87 484.766 126.715 485.013C126.429 485.505 126.339 486.087 126.464 486.642C126.759 487.767 127.436 488.755 128.378 489.435C129.32 490.116 130.47 490.449 131.63 490.375C132.774 490.274 133.861 489.836 134.756 489.118C135.651 488.399 136.312 487.431 136.657 486.336C136.742 486.06 136.765 485.769 136.727 485.483C136.688 485.197 136.589 484.922 136.434 484.679C136.254 484.445 136.005 484.275 135.722 484.193C135.44 484.11 135.138 484.119 134.861 484.219C134.062 484.558 133.369 485.107 132.856 485.807C132.074 486.714 131.457 487.751 131.032 488.871C130.85 489.269 130.751 489.7 130.739 490.138C131.38 488.697 132.224 487.356 133.246 486.155C133.725 485.554 134.341 485.077 135.042 484.762C135.192 484.706 135.355 484.701 135.508 484.746C135.662 484.791 135.796 484.885 135.891 485.013C135.98 485.181 136.032 485.365 136.047 485.554C136.061 485.744 136.037 485.934 135.975 486.113C135.65 487.049 135.062 487.871 134.281 488.481C133.501 489.091 132.561 489.464 131.575 489.553C130.601 489.618 129.634 489.352 128.83 488.799C128.026 488.245 127.433 487.436 127.147 486.503C127.049 486.115 127.093 485.705 127.272 485.347C127.36 485.212 127.487 485.107 127.636 485.045C127.785 484.983 127.949 484.967 128.107 484.999C128.808 485.247 129.418 485.698 129.862 486.294C130.854 487.53 131.622 488.93 132.132 490.431Z" fill="#263238"/>
<path d="M23.2667 243.645C20.1197 238.854 7.07199 499.037 7.94926 500.541L42.316 501.029L61.0172 362.002L71.1963 255.692L87.5302 355.582L107.652 501.976L145.249 502.505L121.994 237.196L73.3964 209.341L23.2667 243.645Z" fill="#263238"/>
<path d="M56.0176 68.8395C56.0176 68.8395 45.5461 70.678 41.4661 74.2435C37.3861 77.809 33.3618 85.8313 33.3618 85.8313L13.3377 99.3133L30.9667 169.565L16.1923 266.655L19.1444 275.011L129.597 273.173L131.7 265.554L120.281 177.308L125.294 118.088L129.903 94.2994L109.907 85.3439C109.907 85.3439 119.07 82.5583 119.487 80.9148C119.905 79.2714 98.8368 68.5192 98.8368 68.5192C98.8368 68.5192 65.6119 62.8367 56.0176 68.8395Z" fill="#316CCC"/>
<g opacity="0.3">
<path opacity="0.3" d="M22.5004 221.111C35.0329 237.253 51.9795 249.161 68.7312 260.805C72.2681 263.256 75.9304 265.777 80.1497 266.598C83.193 267.148 86.3304 266.804 89.1823 265.608C92.0342 264.412 94.4784 262.414 96.219 259.857C98.6419 256.167 99.4635 251.501 102.332 248.158C104.282 245.888 106.997 244.426 109.086 242.281C110.807 240.352 112.264 238.202 113.416 235.888L120.267 223.52C111.912 223.52 104.254 227.587 96.7342 231.166C89.2148 234.746 80.8737 238.005 72.7694 236.153C61.532 233.576 54.3746 222.141 43.5271 218.116C40.1165 216.874 36.4718 216.408 32.8585 216.753C29.2452 217.097 25.7542 218.243 22.6397 220.108" fill="black"/>
</g>
<path d="M13.3377 99.3128C13.3377 99.3128 9.1602 104.564 8.31078 115.594C7.46136 126.625 0.290024 184.508 2.74081 192.823C5.1916 201.138 36.0631 235.86 46.3676 235.01L50.2109 233.617L53.8871 236.473L70.3463 224.133L34.0719 178.464L36.0214 112.725C36.0214 112.725 24.8118 96.7641 13.3377 99.3128Z" fill="#316CCC"/>
<path d="M41.466 74.2432C41.466 74.2432 41.1318 74.466 40.5609 74.9953C39.7328 75.7877 38.9906 76.6653 38.3468 77.6137C37.4556 78.8393 36.5644 80.3992 35.4644 82.363C34.3643 84.3268 32.9439 86.3463 31.44 88.7419L31.2033 88.4494C33.3975 87.6753 35.7905 87.6753 37.9848 88.4494C40.454 89.3143 42.764 90.5801 44.8219 92.196C49.5268 96.0108 53.6707 100.47 57.1316 105.441C65.698 117.531 73.2657 130.298 79.7596 143.617V143.701V143.798C79.5925 149.536 79.4254 155.539 79.2444 161.667C78.3532 192.74 77.5595 220.86 76.9746 241.264C76.6543 251.417 76.4037 259.649 76.2226 265.373C76.1252 268.158 76.0416 270.401 75.9859 271.933C75.9859 272.657 75.9859 273.214 75.9024 273.632C75.9176 273.827 75.9176 274.022 75.9024 274.217C75.887 274.022 75.887 273.827 75.9024 273.632V271.933C75.9024 270.387 75.972 268.186 76.0138 265.373C76.1391 259.635 76.3062 251.445 76.529 241.25C77.0164 220.874 77.6569 192.74 78.5899 161.653C78.7709 155.525 78.938 149.508 79.1051 143.77V143.937C72.6578 130.623 65.1611 117.844 56.686 105.72C53.2741 100.778 49.1922 96.3342 44.5573 92.5163C42.5533 90.9264 40.3056 89.6707 37.9012 88.7976C35.7933 88.0498 33.4923 88.0498 31.3843 88.7976L30.8273 89.0065L31.1476 88.519C32.6794 86.1513 34.0579 84.0343 35.2415 82.1819C36.4252 80.3296 37.3024 78.6861 38.2215 77.4744C38.8872 76.5312 39.6632 75.6708 40.533 74.9117C40.8146 74.6504 41.1281 74.4258 41.466 74.2432Z" fill="#263238"/>
<path d="M115.686 82.5996C115.686 82.711 113.57 83.3378 110.228 84.6748C105.865 86.3798 101.752 88.666 98.0015 91.4715C94.3296 94.3913 90.919 97.6255 87.8084 101.137L84.926 104.299C84.5928 104.707 84.2144 105.076 83.798 105.399C84.0522 104.937 84.3608 104.507 84.7171 104.118C85.3298 103.31 86.2628 102.182 87.5021 100.803C90.52 97.1563 93.9131 93.8371 97.6255 90.9005C101.436 88.0402 105.663 85.7809 110.158 84.2013C111.871 83.5745 113.277 83.1706 114.266 82.906C114.724 82.7432 115.201 82.6402 115.686 82.5996Z" fill="#263238"/>
<path d="M79.6897 143.881C79.6674 143.186 79.714 142.491 79.829 141.806C79.9821 140.483 80.2606 138.574 80.7062 136.235C81.5696 131.555 83.1153 125.092 85.1622 118.129C86.8878 112.169 88.9567 106.314 91.3588 100.594C92.3057 98.3931 93.1551 96.666 93.7957 95.4961C94.1075 94.8785 94.4758 94.291 94.8958 93.7412C94.6682 94.3961 94.3839 95.0299 94.0463 95.6354C93.4893 96.8332 92.6539 98.588 91.8323 100.789C90.0499 105.176 87.9333 111.402 85.8585 118.338C83.7837 125.274 82.1962 131.638 81.2075 136.29C80.7062 138.602 80.3442 140.469 80.1075 141.792C80.026 142.498 79.8863 143.197 79.6897 143.881Z" fill="#263238"/>
<path d="M83.1428 104.968C84.8084 100.696 86.6907 96.5123 88.7824 92.4326C90.6686 88.2483 92.7742 84.1665 95.0904 80.2041C93.4221 84.4766 91.5351 88.6605 89.4369 92.739C87.5584 96.9246 85.4573 101.007 83.1428 104.968Z" fill="#263238"/>
<path d="M86.5551 131.027L86.8754 130.345C87.2604 130.613 87.7153 130.763 88.1843 130.776C88.7413 130.776 88.9641 130.609 88.9641 130.358C88.9641 129.606 86.6526 130.094 86.6665 128.604C86.6665 127.935 87.2375 127.378 88.3654 127.392C88.8556 127.384 89.338 127.515 89.7578 127.768L89.4654 128.464C89.1332 128.261 88.7545 128.146 88.3654 128.13C87.8223 128.13 87.5995 128.325 87.5995 128.576C87.5995 129.314 89.9249 128.84 89.8971 130.303C89.8971 130.971 89.3262 131.528 88.1843 131.514C87.6037 131.526 87.0341 131.355 86.5551 131.027Z" fill="white"/>
<path d="M93.6012 130.789V131.528H90.5098L90.5795 127.53H93.5873V128.268H91.4985V129.146H93.3505V129.87H91.4985V130.789H93.6012Z" fill="white"/>
<path d="M94.0881 129.536C94.0932 129.256 94.1549 128.98 94.2694 128.725C94.3839 128.47 94.5489 128.24 94.7545 128.05C94.96 127.86 95.2019 127.714 95.4654 127.62C95.729 127.526 96.0089 127.486 96.2883 127.503C96.5983 127.492 96.9065 127.554 97.189 127.682C97.4716 127.81 97.7208 128.001 97.9175 128.241L97.3187 128.77C97.1999 128.622 97.0493 128.503 96.8782 128.421C96.7071 128.339 96.5198 128.297 96.33 128.297C96.1515 128.278 95.9711 128.297 95.8004 128.353C95.6297 128.408 95.4726 128.499 95.3392 128.619C95.2059 128.739 95.0992 128.886 95.0263 129.05C94.9533 129.214 94.9156 129.392 94.9156 129.571C94.9156 129.751 94.9533 129.928 95.0263 130.092C95.0992 130.256 95.2059 130.403 95.3392 130.523C95.4726 130.643 95.6297 130.734 95.8004 130.79C95.9711 130.845 96.1515 130.864 96.33 130.846C96.521 130.849 96.7103 130.81 96.8839 130.731C97.0576 130.651 97.2109 130.533 97.3326 130.386L97.9175 130.943C97.7124 131.177 97.4562 131.36 97.1688 131.478C96.8814 131.597 96.5705 131.647 96.2604 131.625C95.9777 131.643 95.6944 131.601 95.4286 131.504C95.1627 131.406 94.92 131.254 94.7158 131.058C94.5116 130.861 94.3504 130.625 94.2424 130.363C94.1343 130.101 94.0818 129.82 94.0881 129.536Z" fill="white"/>
<path d="M101.468 130.442C101.4 130.25 101.344 130.055 101.301 129.857C101.301 129.731 101.204 129.592 101.162 129.467V129.843C101.162 130.609 100.814 130.915 100.257 130.901C99.6999 130.887 99.3657 130.581 99.3797 129.815V127.614H98.4606V129.857C98.4334 130.1 98.4602 130.347 98.5391 130.58C98.618 130.812 98.7472 131.024 98.9173 131.201C99.0874 131.378 99.2944 131.515 99.5235 131.603C99.7527 131.691 99.9983 131.727 100.243 131.709C100.524 131.729 100.807 131.681 101.066 131.57C101.325 131.458 101.554 131.286 101.733 131.068C101.615 130.873 101.526 130.662 101.468 130.442Z" fill="white"/>
<path d="M101.677 128.562V129.954V130.094C101.721 130.198 101.758 130.305 101.789 130.414L101.914 130.915C102.009 131.345 102.037 131.786 101.998 132.225C102.18 132.043 102.322 131.825 102.416 131.585C102.509 131.346 102.552 131.089 102.541 130.832V128.589L101.677 128.562Z" fill="white"/>
<path d="M105.981 132.739L105.229 131.625H104.379V132.739H103.46V128.742H105.187C106.245 128.742 106.914 129.313 106.9 130.219C106.907 130.488 106.828 130.753 106.676 130.976C106.523 131.198 106.304 131.367 106.05 131.458L106.928 132.753L105.981 132.739ZM105.159 129.494H104.407V130.887H105.159C105.716 130.887 106.009 130.636 106.022 130.205C106.036 129.773 105.73 129.425 105.159 129.425V129.494Z" fill="white"/>
<path d="M107.693 128.7H108.612V132.697H107.693V128.7Z" fill="white"/>
<path d="M110.38 129.494H109.099V128.742H112.567V129.494H111.286V132.739H110.353L110.38 129.494Z" fill="white"/>
<path d="M114.892 131.346V132.739H113.973V131.346L112.47 128.756H113.458L114.489 130.553L115.589 128.798H116.494L114.892 131.346Z" fill="white"/>
<path d="M104.922 141.792C104.682 141.475 104.494 141.123 104.365 140.748C104.058 140.065 103.655 139.034 103.209 137.753C102.083 134.394 101.29 130.933 100.842 127.419C100.392 123.909 100.294 120.363 100.549 116.834C100.661 115.441 100.8 114.382 100.925 113.63C100.948 113.236 101.042 112.849 101.204 112.488C101.315 112.488 101.204 114.16 101.064 116.848C100.83 123.861 101.719 130.867 103.696 137.6C104.176 138.975 104.585 140.375 104.922 141.792Z" fill="#263238"/>
<g opacity="0.3">
<path opacity="0.3" d="M82.4053 130.706C81.8204 135.664 80.233 138.116 80.1494 143.102C80.1494 144.174 78.4367 161.069 79.4392 161.445C80.4418 161.821 85.0092 149.606 86.0536 143.478C86.8195 138.673 88.1702 132.336 88.9778 127.559C91.3172 113.561 96.5112 106.026 103.794 93.8397C105.186 91.5416 110.311 85.2602 110.311 85.2602C109.823 84.9399 107.776 85.9148 106.356 86.5555C102.248 88.4078 94.8959 94.2714 94.8959 94.2714C92.7168 98.3993 90.7463 102.634 88.9917 106.96C86.1863 114.977 83.9481 123.182 82.2939 131.514" fill="black"/>
</g>
<g opacity="0.3">
<path opacity="0.3" d="M36.4254 88.1709C36.4254 88.1709 31.9416 90.6222 31.9694 92.5999C32.0718 93.5833 32.4253 94.5238 32.9959 95.3311C33.5666 96.1384 34.3351 96.7854 35.2279 97.21C37.0346 98.0252 38.8957 98.7139 40.7978 99.2713C45.0853 101.112 48.9271 103.852 52.0631 107.308C57.4443 112.723 62.1568 118.764 66.0994 125.302C69.3718 130.734 72.3657 136.792 77.8382 139.996C74.1341 133.366 70.2908 126.946 66.5868 120.316C62.8878 113.703 58.6051 107.434 53.7898 101.583C48.9718 95.7336 41.1181 88.6444 36.4393 88.1709" fill="black"/>
</g>
<path d="M20.4809 186.041C20.4652 185.921 20.4652 185.799 20.4809 185.679C20.4465 185.322 20.4465 184.963 20.4809 184.607C20.6264 183.244 21.1046 181.938 21.8734 180.804C23.0166 179.003 24.8051 177.708 26.8725 177.183C28.2034 176.855 29.5921 176.839 30.9303 177.136C32.2684 177.433 33.5198 178.036 34.5869 178.896L34.0438 179.161C33.8497 174.47 34.1297 169.771 34.8793 165.136C35.5756 160.554 36.425 156.236 36.8984 152.281C37.351 148.768 37.6252 145.235 37.72 141.695C37.8035 138.673 37.72 136.222 37.72 134.537C37.72 133.757 37.72 133.144 37.72 132.587C37.6841 132.361 37.6841 132.13 37.72 131.904C37.7852 132.121 37.8181 132.346 37.8175 132.573C37.8175 133.102 37.9149 133.757 37.9706 134.523C38.096 136.222 38.1795 138.701 38.1656 141.709C38.1432 145.266 37.92 148.819 37.4972 152.35C37.0516 156.347 36.23 160.707 35.5199 165.247C34.779 169.851 34.4806 174.515 34.6287 179.175V179.913L34.0577 179.44C33.0723 178.631 31.9149 178.059 30.6744 177.767C29.4338 177.475 28.1428 177.471 26.9003 177.754C24.9385 178.214 23.2226 179.398 22.0962 181.069C21.3663 182.151 20.8902 183.384 20.7037 184.676C20.4809 185.54 20.4809 186.041 20.4809 186.041Z" fill="#263238"/>
<path d="M23.9485 219.982C24.111 220.09 24.2605 220.217 24.3941 220.359C24.7005 220.679 25.1043 221.069 25.6056 221.556C26.6918 222.573 28.2792 224.077 30.4236 225.818C32.9941 227.912 35.7067 229.824 38.5419 231.542C40.2487 232.615 42.053 233.525 43.9308 234.258C44.9174 234.646 45.9795 234.803 47.0361 234.718C48.1095 234.649 49.1246 234.205 49.9046 233.464L50.1135 233.242L50.3502 233.409C51.506 234.314 52.7592 235.275 54.0403 236.194H53.6365L70.0818 223.84L70.0122 224.356L69.7198 223.994C64.7625 217.81 60.3344 211.709 56.2265 206.236C52.1187 200.762 48.4007 195.818 45.1841 191.765C41.9674 187.712 39.252 184.509 37.3026 182.378C36.3417 181.305 35.548 180.498 35.0189 179.954C34.7308 179.693 34.4696 179.404 34.2391 179.091C34.5535 179.32 34.8471 179.576 35.1163 179.857C35.6873 180.358 36.5088 181.138 37.5114 182.183C39.5305 184.272 42.3155 187.406 45.5879 191.445C48.8602 195.484 52.6339 200.358 56.7278 205.832C60.8217 211.306 65.3195 217.378 70.2628 223.534L70.5413 223.896L70.7781 224.189L70.4857 224.411L54.0125 236.737L53.8036 236.891L53.5947 236.737L49.9185 233.868H50.3781C49.4736 234.711 48.2989 235.205 47.0639 235.261C45.9195 235.345 44.7712 235.163 43.708 234.732C41.8013 233.975 39.9692 233.043 38.2355 231.946C35.4258 230.182 32.7496 228.212 30.2287 226.055C28.5818 224.664 27.0063 223.19 25.5081 221.64L24.3524 220.386C24.2025 220.268 24.067 220.132 23.9485 219.982Z" fill="#263238"/>
<path d="M37.1915 117.573C37.0662 117.573 36.537 115.971 35.1863 113.548C34.4029 112.131 33.4991 110.784 32.4849 109.523C31.2273 107.98 29.8288 106.558 28.3074 105.275C26.7712 104.025 25.1261 102.916 23.3919 101.96C21.9659 101.196 20.4804 100.548 18.9498 100.024C16.318 99.1465 14.5913 98.9237 14.6192 98.7844C15.0253 98.7229 15.4384 98.7229 15.8446 98.7844C16.9488 98.9147 18.0393 99.1431 19.103 99.4669C20.6934 99.9344 22.2365 100.55 23.7121 101.305C25.506 102.245 27.1997 103.365 28.7669 104.648C30.3029 105.967 31.7025 107.436 32.9444 109.035C33.9541 110.34 34.8354 111.739 35.5762 113.214C36.082 114.208 36.5058 115.242 36.8434 116.305C37.0236 116.708 37.141 117.135 37.1915 117.573Z" fill="#263238"/>
<g opacity="0.3">
<path opacity="0.3" d="M103.641 138.311C104.1 139.3 105.729 138.687 105.924 137.907C106.061 137.078 105.882 136.229 105.423 135.526C102.824 130.518 101.265 125.037 100.842 119.411C100.228 125.845 101.189 132.331 103.641 138.311Z" fill="black"/>
</g>
<g opacity="0.3">
<path opacity="0.3" d="M19.8546 184.578C19.2806 182.614 19.3801 180.515 20.1371 178.615C20.8942 176.714 22.2653 175.121 24.0321 174.091C24.9292 173.549 25.9652 173.283 27.012 173.324C29.2679 173.492 30.8832 175.497 32.206 177.322C30.9514 176.948 29.6325 176.84 28.3338 177.005C27.0352 177.171 25.7854 177.606 24.6645 178.282C23.5437 178.959 22.5765 179.862 21.8249 180.934C21.0734 182.007 20.5541 183.224 20.3002 184.508" fill="black"/>
</g>
<path d="M128.637 100.357C128.072 101.577 127.444 102.767 126.757 103.923C125.241 106.785 123.974 109.772 122.969 112.851C121.975 115.935 121.243 119.099 120.783 122.307C120.664 123.65 120.469 124.984 120.198 126.305C120.031 124.954 120.031 123.588 120.198 122.238C120.856 115.677 122.943 109.34 126.311 103.672C126.943 102.473 127.725 101.359 128.637 100.357Z" fill="#263238"/>
<g opacity="0.3">
<path opacity="0.3" d="M119.431 135.72C118.693 136.486 118.484 142.976 118.484 142.976C118.484 150.817 118.986 154.258 119 162.085C119.146 165.322 118.856 168.564 118.136 171.723C117.642 173.367 117.027 174.973 116.298 176.528C115.496 178.549 114.478 180.477 113.262 182.28C112.149 183.712 110.925 185.053 109.6 186.291C103.405 192.448 97.7668 199.141 92.7511 206.291L89.6876 210.734L120.072 182.224L121.562 178.464L121.645 178.018L119.431 135.72Z" fill="black"/>
</g>
<path d="M129.903 94.2432C129.903 94.2432 134.693 96.0538 137.186 106.778C140.068 119.118 143.842 139.62 144.427 147.391C144.914 153.923 151.389 177.795 146.362 188.311C141.336 198.826 117.427 231.278 107.958 232.322L104.003 231.32L99.8254 232.03L88.1981 218.631L89.2146 214.801C88.8384 214.195 88.6391 213.495 88.6391 212.782C88.6391 212.068 88.8384 211.369 89.2146 210.762C90.6071 208.854 120.267 180.971 120.267 180.971C120.267 180.971 119.125 180.832 118.875 178.91C118.457 175.595 121.339 175.706 121.339 175.706L119.418 146.528L129.903 94.2432Z" fill="#316CCC"/>
<path d="M131.7 184.383C131.575 184.564 129.388 182.991 126.283 182.016C123.178 181.041 120.49 180.999 120.49 180.776C122.507 180.4 124.589 180.588 126.506 181.319C128.491 181.83 130.292 182.893 131.7 184.383Z" fill="#263238"/>
<path d="M137.701 180.01C135.42 178.23 132.805 176.927 130.011 176.178C127.217 175.429 124.301 175.25 121.437 175.65C122.221 175.273 123.073 175.055 123.943 175.01C128.171 174.54 132.421 175.679 135.849 178.199C136.583 178.671 137.213 179.287 137.701 180.01Z" fill="#263238"/>
<path d="M120.49 180.776C120.49 180.776 120.003 180.776 119.39 180.358C119.026 180.071 118.755 179.684 118.61 179.243C118.457 178.702 118.457 178.128 118.61 177.586C118.702 177.227 118.847 176.884 119.042 176.569V176.639C119.205 176.281 119.464 175.975 119.792 175.756C120.119 175.537 120.501 175.413 120.894 175.399C121.451 175.399 121.743 175.525 121.729 175.608C121.716 175.692 121.423 175.692 120.978 175.845C120.703 175.908 120.447 176.032 120.228 176.208C120.008 176.384 119.831 176.608 119.71 176.862C119.572 177.129 119.46 177.409 119.376 177.697C119.258 178.074 119.236 178.475 119.314 178.862C119.392 179.249 119.567 179.61 119.822 179.912C120.156 180.455 120.546 180.678 120.49 180.776Z" fill="#263238"/>
<path d="M119.139 134.3C119.293 134.826 119.381 135.368 119.403 135.915C119.529 136.96 119.668 138.478 119.807 140.344C120.114 144.091 120.406 149.272 120.657 154.996C120.907 160.721 121.116 165.749 121.283 169.662C121.353 171.417 121.409 172.907 121.45 174.105C121.51 174.647 121.51 175.193 121.45 175.735C121.297 175.209 121.208 174.666 121.186 174.119C121.06 173.075 120.921 171.57 120.782 169.69C120.476 165.944 120.197 160.762 119.946 155.038C119.696 149.314 119.487 144.286 119.32 140.372C119.25 138.617 119.181 137.141 119.139 135.929C119.079 135.388 119.079 134.841 119.139 134.3Z" fill="#263238"/>
<path d="M120.978 180.581C120.752 180.842 120.505 181.084 120.24 181.305L118.04 183.283L109.894 190.679C106.468 193.84 102.388 197.642 97.9043 202.044C95.6624 204.216 93.2952 206.556 90.9419 209.007C90.3465 209.591 89.8441 210.263 89.4519 210.999C89.1028 211.742 89.0145 212.581 89.2012 213.381C89.4432 214.291 89.5879 215.225 89.6329 216.166C89.6563 216.695 89.5286 217.22 89.2647 217.678C89.0008 218.137 88.6117 218.511 88.1429 218.757L88.2822 218.186C90.2038 220.4 92.2369 222.698 94.2838 225.052L100.188 231.807L99.8538 231.626L104.031 230.916C105.842 231.139 107.359 231.974 108.933 231.71C110.468 231.424 111.905 230.753 113.11 229.76C115.463 227.848 117.683 225.777 119.753 223.562C123.749 219.384 127.007 215.386 129.695 212.058C132.382 208.729 134.471 205.985 135.919 204.133C136.63 203.241 137.173 202.531 137.59 202.002C137.773 201.747 137.978 201.509 138.203 201.292C138.065 201.569 137.897 201.831 137.702 202.072L136.128 204.272C134.736 206.18 132.703 208.952 130.057 212.336C127.411 215.721 124.181 219.746 120.198 223.98C118.122 226.243 115.889 228.356 113.514 230.303C112.202 231.38 110.633 232.1 108.961 232.392C107.15 232.685 105.479 231.779 103.906 231.612H104.031L99.8538 232.322H99.6449L99.5196 232.169L93.6154 225.428L87.6138 218.548L87.2796 218.158L87.753 217.977C88.0944 217.788 88.3744 217.506 88.5596 217.162C88.7447 216.819 88.8273 216.43 88.7974 216.041C88.7471 215.165 88.6071 214.297 88.3797 213.45C88.184 212.512 88.2963 211.535 88.6999 210.665C89.1286 209.866 89.6781 209.137 90.3292 208.506C92.7707 206.055 95.124 203.734 97.3891 201.542C101.915 197.183 106.023 193.395 109.504 190.275C112.985 187.155 115.826 184.704 117.859 183.046L120.142 181.166C120.402 180.945 120.682 180.749 120.978 180.581Z" fill="#263238"/>
<path d="M120.267 163.854C120.267 164.063 101.288 163.951 77.8797 163.617C54.4719 163.283 35.4922 162.837 35.4922 162.642C35.4922 162.447 54.4719 162.545 77.8936 162.893C101.315 163.241 120.267 163.659 120.267 163.854Z" fill="#263238"/>
<path d="M98.4605 175.345C98.4793 175.525 98.4793 175.707 98.4605 175.888C98.4605 176.236 98.3631 176.751 98.2099 177.406C97.8204 179.259 97.261 181.073 96.5389 182.824C94.173 188.67 90.2018 193.728 85.084 197.412C79.9662 201.097 73.9106 203.258 67.6168 203.646C65.7273 203.769 63.8305 203.722 61.9493 203.506C61.2809 203.437 60.7796 203.325 60.4315 203.27C60.2536 203.25 60.0799 203.203 59.9163 203.13C62.4667 203.29 65.0246 203.29 67.575 203.13C73.7374 202.616 79.6438 200.435 84.6623 196.821C89.6808 193.207 93.6225 188.297 96.0654 182.615C97.0089 180.242 97.8088 177.814 98.4605 175.345Z" fill="#263238"/>
<path d="M57.8557 233.549C57.7304 233.702 56.9367 233.256 56.2126 232.42C55.4885 231.585 55.1822 230.749 55.3493 230.638C55.5164 230.526 56.0873 231.167 56.7418 231.947C57.3962 232.727 57.9811 233.395 57.8557 233.549Z" fill="#263238"/>
<path d="M63.1612 229.398C63.008 229.523 62.4092 228.994 61.7687 228.214C61.1281 227.434 60.8497 226.696 61.0168 226.584C61.1839 226.473 61.7826 227.002 62.4092 227.782C63.0359 228.562 63.3283 229.286 63.1612 229.398Z" fill="#263238"/>
<path d="M93.9624 218.241C94.0599 218.422 93.2661 218.993 92.2635 219.634C91.2609 220.275 90.4254 220.818 90.3001 220.665C90.1748 220.512 90.8293 219.732 91.8597 219.035C92.8902 218.339 93.8788 218.06 93.9624 218.241Z" fill="#263238"/>
<path d="M97.9179 222.114C98.085 222.225 97.5977 223.284 96.5254 224.272C95.4532 225.261 94.4506 225.735 94.3532 225.568C94.2557 225.401 95.0773 224.69 96.0102 223.757C96.9432 222.824 97.7508 222.002 97.9179 222.114Z" fill="#263238"/>
<path d="M101.706 226.752C101.845 226.891 101.232 227.783 100.202 228.59C99.1712 229.398 98.1686 229.802 98.0711 229.635C97.9736 229.468 98.7674 228.799 99.756 228.019C100.745 227.239 101.552 226.613 101.706 226.752Z" fill="#263238"/>
<path d="M47.6768 78.5188C47.8857 78.4352 49.5428 82.6971 52.3834 87.3628C55.2241 92.0286 58.0927 95.5662 57.9534 95.7195C57.1756 95.103 56.4826 94.3865 55.8925 93.5885C54.3848 91.7428 53.0164 89.7875 51.7986 87.7389C50.5708 85.6943 49.5046 83.5569 48.6098 81.3461C48.1652 80.4531 47.8511 79.501 47.6768 78.5188Z" fill="#263238"/>
<path d="M131.7 265.624C131.305 265.648 130.91 265.648 130.516 265.624H127.146L114.739 265.735C104.268 265.861 89.7995 266.251 73.8276 266.738C57.8557 267.226 43.3599 267.546 32.8884 267.532C27.6387 267.532 23.4055 267.532 20.4812 267.421L17.0975 267.323C16.7058 267.331 16.3143 267.303 15.9278 267.24C16.3153 267.187 16.7064 267.163 17.0975 267.17H20.4812L32.8744 267.045C43.3599 266.919 57.814 266.529 73.7998 266.042C89.7856 265.554 104.254 265.248 114.739 265.248C119.975 265.248 124.222 265.248 127.146 265.359L130.516 265.471C130.914 265.486 131.311 265.537 131.7 265.624Z" fill="#263238"/>
<path d="M102.847 80.8031C102.68 80.9563 100.981 79.0065 98.3079 77.363C95.6343 75.7195 93.1557 75.037 93.2114 74.8281C95.155 75.0643 97.0239 75.7212 98.688 76.753C100.352 77.7849 101.771 79.167 102.847 80.8031Z" fill="#316CCC"/>
<path d="M93.8237 234.704C94.1335 235.185 94.5712 235.57 95.0878 235.816C95.6043 236.062 96.1792 236.16 96.7479 236.097C97.8898 236.097 98.9898 235.679 100.118 235.623C100.681 235.542 101.257 235.615 101.782 235.836C102.307 236.057 102.762 236.417 103.098 236.877C103.303 237.278 103.403 237.725 103.389 238.176C103.374 238.627 103.245 239.066 103.014 239.453C102.527 240.217 101.851 240.84 101.051 241.264C99.1666 242.321 97.0045 242.776 94.8542 242.57C92.7039 242.363 90.6681 241.504 89.0196 240.108" fill="#FFBE9D"/>
<path d="M68.2989 252.017C71.5783 255.285 75.1853 258.206 79.0629 260.735C79.8498 261.372 80.8356 261.713 81.8479 261.696C82.8644 261.529 83.6581 260.206 82.9897 259.44C83.5165 259.848 84.1596 260.078 84.8257 260.095C85.4918 260.113 86.1462 259.917 86.6937 259.538C87.1963 259.152 87.5723 258.626 87.7733 258.025C87.9743 257.424 87.9911 256.777 87.8216 256.167C87.8184 256.151 87.8196 256.133 87.825 256.117C87.8304 256.101 87.8399 256.087 87.8526 256.076C87.8652 256.064 87.8806 256.057 87.8971 256.053C87.9137 256.05 87.9308 256.051 87.947 256.056C88.4402 256.254 88.9721 256.339 89.5026 256.303C90.0332 256.266 90.5487 256.111 91.0104 255.847C91.4924 255.546 91.8641 255.097 92.0699 254.567C92.2757 254.038 92.3046 253.456 92.1523 252.908C93.1827 254.301 95.6614 253.758 96.4551 252.212C96.779 251.403 96.875 250.521 96.7326 249.661C96.5902 248.802 96.2149 247.998 95.6474 247.337C94.4907 246.041 93.1975 244.874 91.7902 243.855C90.379 242.831 89.3576 241.358 88.8939 239.677" fill="#FFBE9D"/>
<path d="M83.4772 260.025C82.0477 259.618 80.7722 258.794 79.8149 257.657C78.6823 256.692 77.8711 255.404 77.4894 253.966C77.6705 253.869 78.6731 255.498 80.2744 257.155C81.8758 258.813 83.5886 259.83 83.4772 260.025Z" fill="#EB996E"/>
<path d="M88.7136 256.794C87.4303 256.332 86.2919 255.539 85.4134 254.496C84.3688 253.624 83.5676 252.496 83.0879 251.223C83.2689 251.098 84.3829 252.462 85.8729 254.008C87.3629 255.554 88.7971 256.613 88.7136 256.794Z" fill="#EB996E"/>
<path d="M93.2256 253.576C91.9959 253.178 90.9014 252.445 90.0646 251.459C89.0604 250.642 88.2954 249.569 87.8506 248.353C88.0177 248.228 89.1038 249.523 90.6355 250.944C92.1673 252.364 93.3509 253.409 93.2256 253.576Z" fill="#EB996E"/>
<path d="M59.1646 220.484C59.1646 220.484 58.7468 218.701 63.3421 219.272C67.219 219.963 71.1614 220.215 75.0947 220.024C80.233 219.759 88.574 218.297 88.574 218.297L101.984 230.108C101.984 230.108 88.2677 242.155 84.1598 244.3C80.052 246.445 71.7109 251.793 66.9486 251.542C63.3421 251.347 63.0218 249.551 63.0218 249.551C63.0218 249.551 59.4849 247.127 60.014 245.943C60.014 245.943 55.8365 245.707 56.6163 242.503C56.6163 242.503 53.6225 241.946 53.1351 240.247C52.6477 238.548 54.9036 236.542 55.7808 235.679C57.1733 234.286 69.3716 225.344 69.4273 225.094C69.3994 225.149 58.9696 224.105 59.1646 220.484Z" fill="#FFBE9D"/>
<path d="M67.8258 233.562C66.1602 235.303 64.3219 236.871 62.3393 238.241C60.5113 239.828 58.5286 241.228 56.4212 242.42C58.0842 240.671 59.9227 239.098 61.9077 237.726C63.741 236.15 65.723 234.755 67.8258 233.562Z" fill="#EB996E"/>
<path d="M74.2726 234.816C73.8588 235.626 73.3182 236.364 72.6712 237.003C69.7721 240.285 66.2932 243.004 62.4085 245.025C61.6331 245.496 60.7868 245.84 59.9021 246.042C59.7907 245.847 63.4947 244.022 67.4633 240.916C71.4319 237.81 74.1055 234.663 74.2726 234.816Z" fill="#EB996E"/>
<path d="M80.0386 238.952C79.5751 239.864 78.9633 240.692 78.2283 241.403C74.8581 245.063 70.5084 247.678 65.6959 248.938C64.7226 249.264 63.7003 249.42 62.6742 249.398C65.9603 248.427 69.1307 247.101 72.1292 245.442C74.9961 243.576 77.6485 241.4 80.0386 238.952Z" fill="#EB996E"/>
<path d="M96.4137 235.108C96.1183 235.496 95.777 235.847 95.3972 236.153C94.7149 236.794 93.6983 237.685 92.4033 238.729C89.0179 241.462 85.4339 243.938 81.6811 246.139C79.481 247.42 77.3365 248.562 75.3453 249.51C73.5889 250.442 71.7156 251.135 69.7753 251.571C68.4605 251.875 67.0936 251.875 65.7788 251.571C65.2751 251.488 64.798 251.288 64.3863 250.986C66.0946 251.461 67.9 251.461 69.6082 250.986C71.4684 250.476 73.2628 249.752 74.9554 248.827C76.9049 247.852 79.0354 246.696 81.2077 245.429C84.9327 243.238 88.5311 240.839 91.9856 238.242C94.7567 236.334 96.3302 235.025 96.4137 235.108Z" fill="#EB996E"/>
<path d="M71.8503 0.941782C68.6696 0.648045 65.4623 0.990656 62.4153 1.94965C59.3684 2.90864 56.5428 4.46481 54.1035 6.52741C51.6641 8.59 49.6598 11.1177 48.2073 13.9632C46.7548 16.8086 45.8833 19.9149 45.6436 23.1007C44.8081 34.2429 44.0144 46.3461 44.0004 52.4464C44.0004 65.5106 57.0203 67.7669 57.0203 67.7669C57.0203 67.7669 56.6443 71.6388 56.2126 76.4438C56.0112 78.7356 56.2711 81.0445 56.977 83.2341C57.6828 85.4236 58.8203 87.4495 60.3223 89.1919C61.8242 90.9344 63.6601 92.358 65.7214 93.3787C67.7828 94.3995 70.0278 94.9966 72.3238 95.1348C74.5812 95.2742 76.844 94.9666 78.9823 94.2295C81.1206 93.4924 83.0924 92.3403 84.7845 90.8393C86.4767 89.3383 87.856 87.5179 88.8432 85.4826C89.8304 83.4473 90.4062 81.237 90.5376 78.9786L93.6568 26.3598C94.0303 20.1224 91.9638 13.9843 87.8942 9.24331C83.8247 4.50236 78.0712 1.53032 71.8503 0.955702V0.941782Z" fill="#FFBE9D"/>
<path d="M57.0063 67.5434C63.0363 67.7459 68.9898 66.1457 74.1061 62.9473C74.1061 62.9473 69.7337 72.3903 56.7139 71.0254L57.0063 67.5434Z" fill="#EB996E"/>
<path d="M92.3896 30.8164C92.6124 30.7189 101.413 28.2815 100.995 37.2231C100.577 46.1647 91.7073 43.8945 91.6934 43.6299C91.6794 43.3652 92.3896 30.8164 92.3896 30.8164Z" fill="#FFBE9D"/>
<path d="M94.5753 40.385C94.5753 40.385 94.7284 40.4964 94.993 40.6218C95.1703 40.7122 95.364 40.7662 95.5625 40.7805C95.761 40.7949 95.9603 40.7693 96.1488 40.7053C96.7415 40.3647 97.2338 39.8737 97.5761 39.2819C97.9184 38.6902 98.0985 38.0185 98.0983 37.3348C98.1493 36.572 98.0353 35.8072 97.7641 35.0925C97.6901 34.8106 97.5506 34.5502 97.3571 34.3324C97.1635 34.1146 96.9213 33.9455 96.6501 33.839C96.4715 33.7845 96.2796 33.7936 96.107 33.8647C95.9343 33.9358 95.7917 34.0645 95.7032 34.229C95.5779 34.4657 95.6196 34.6468 95.5779 34.6607C95.5361 34.6746 95.3969 34.5075 95.4804 34.1315C95.5398 33.9126 95.6725 33.7209 95.8564 33.5883C96.1149 33.418 96.4288 33.3533 96.7336 33.4072C97.0882 33.4929 97.4161 33.6649 97.6882 33.9079C97.9603 34.1509 98.1681 34.4573 98.2933 34.8C98.6351 35.589 98.7785 36.4497 98.711 37.307C98.7165 38.1052 98.4871 38.8874 98.0513 39.556C97.6155 40.2247 96.9926 40.7504 96.2602 41.0675C96.0198 41.1203 95.7707 41.1203 95.5303 41.0674C95.2898 41.0145 95.0638 40.91 94.8677 40.761C94.5892 40.5939 94.5474 40.3989 94.5753 40.385Z" fill="#EB996E"/>
<path d="M50.7125 30.2317C50.7046 30.7188 50.886 31.1898 51.2185 31.5457C51.5509 31.9017 52.0085 32.1146 52.4948 32.1398C52.7316 32.1627 52.9706 32.1376 53.1974 32.0659C53.4243 31.9943 53.6343 31.8776 53.815 31.7229C53.9957 31.5681 54.1434 31.3785 54.2491 31.1654C54.3549 30.9523 54.4165 30.72 54.4304 30.4824C54.4455 29.9957 54.2684 29.5227 53.9375 29.1656C53.6065 28.8085 53.1483 28.5961 52.6619 28.5744C52.4248 28.5534 52.1859 28.5798 51.959 28.652C51.7322 28.7243 51.5219 28.8409 51.3405 28.9951C51.1591 29.1493 51.0102 29.3381 50.9024 29.5504C50.7946 29.7627 50.73 29.9943 50.7125 30.2317Z" fill="#263238"/>
<path d="M48.9436 27.8084C49.1664 28.0591 50.6006 27.0285 52.6058 27.0703C54.611 27.1121 56.0732 28.1288 56.296 27.8781C56.5188 27.6274 56.1706 27.3349 55.5301 26.8614C54.6768 26.2386 53.6482 25.9022 52.5919 25.9003C51.5473 25.88 50.5234 26.1922 49.6677 26.7917C49.041 27.2653 48.8322 27.697 48.9436 27.8084Z" fill="#263238"/>
<path d="M70.833 30.7747C70.8215 31.2604 70.9998 31.7315 71.33 32.0878C71.6603 32.4441 72.1164 32.6576 72.6015 32.6828C72.8379 32.7057 73.0766 32.6811 73.3033 32.6105C73.5301 32.5399 73.7405 32.4246 73.9221 32.2715C74.1038 32.1184 74.253 31.9305 74.361 31.7189C74.469 31.5073 74.5336 31.2763 74.551 31.0393C74.5663 30.5513 74.3896 30.0766 74.059 29.7173C73.7284 29.358 73.2701 29.1426 72.7825 29.1173C72.5454 29.0964 72.3064 29.1228 72.0796 29.195C71.8527 29.2672 71.6425 29.3838 71.4611 29.5381C71.2797 29.6923 71.1308 29.881 71.0229 30.0933C70.9151 30.3056 70.8506 30.5372 70.833 30.7747Z" fill="#263238"/>
<path d="M68.675 28.463C68.8978 28.7137 70.332 27.683 72.3372 27.7248C74.3424 27.7666 75.8045 28.7833 76.0273 28.5466C76.2501 28.3098 75.902 27.9894 75.2615 27.5159C74.406 26.8974 73.3788 26.5614 72.3233 26.5549C71.2762 26.5317 70.25 26.8494 69.3991 27.4602C68.7725 27.9198 68.5636 28.3516 68.675 28.463Z" fill="#263238"/>
<path d="M61.1696 43.2535C60.114 42.9087 59.0193 42.6982 57.9112 42.6267C57.4099 42.6267 56.9225 42.4596 56.839 42.0975C56.808 41.5713 56.934 41.0477 57.201 40.5933L58.7745 36.7075C60.9607 31.1364 62.5482 26.6238 62.3254 26.5402C62.1026 26.4567 60.1531 30.8578 57.9669 36.3871L56.463 40.3008C56.1261 40.9118 56.0175 41.6227 56.1566 42.3064C56.2344 42.4855 56.349 42.6463 56.4929 42.7783C56.6369 42.9102 56.807 43.0105 56.9921 43.0724C57.2778 43.1543 57.5724 43.201 57.8694 43.2117C58.9624 43.3768 60.0728 43.3909 61.1696 43.2535Z" fill="#263238"/>
<path d="M66.3497 21.1926C66.5864 21.7219 68.5777 21.3319 70.9449 21.4711C73.3122 21.6104 75.2616 22.1118 75.5401 21.5965C75.6655 21.3597 75.2895 20.8723 74.4958 20.3848C73.4309 19.798 72.2434 19.4689 71.0285 19.4238C69.8189 19.3597 68.6114 19.5841 67.5055 20.0784C66.6561 20.4823 66.2522 20.9419 66.3497 21.1926Z" fill="#263238"/>
<path d="M48.1912 20.4133C48.5393 20.873 49.9179 20.4133 51.5889 20.4133C53.2599 20.4133 54.6524 20.7755 54.9866 20.3019C55.1258 20.0652 54.917 19.6055 54.3043 19.1738C53.4872 18.6418 52.5301 18.3656 51.5553 18.3805C50.5804 18.3953 49.6322 18.7006 48.8318 19.2573C48.233 19.717 48.038 20.1905 48.1912 20.4133Z" fill="#263238"/>
<path d="M93.4196 30.4128C93.5288 31.8487 93.435 33.2928 93.1411 34.7025C93.0106 35.3792 92.7335 36.0192 92.3294 36.5774C91.9252 37.1356 91.4038 37.5986 90.8017 37.9337C88.5459 39.0201 85.7609 37.2652 84.7861 34.9532C83.8114 32.6412 84.1316 30.0228 84.3962 27.5158C84.8835 24.1256 84.8835 20.6831 84.3962 17.2929C83.8966 13.8738 82.2049 10.7413 79.62 8.44882C78.313 7.33636 76.7245 6.60604 75.0293 6.3382C73.3342 6.07036 71.598 6.27537 70.0118 6.93069C68.1041 7.83599 66.6559 9.47946 64.8735 10.6076C63.2854 11.683 61.3582 12.1389 59.4567 11.889C57.5768 11.5686 55.0425 10.2455 55.3627 8.37917C56.1008 4.01981 53.0791 7.68279 53.274 6.9864C53.6082 5.76077 56.1286 3.62983 57.173 2.8081C58.9553 1.55689 61.0061 0.74117 63.1607 0.426462C68.9159 -0.534535 74.8251 0.136117 80.2187 2.36241C85.6358 4.48685 89.9982 8.65997 92.3613 13.9781C94.8678 20.1342 94.4779 23.8668 93.6285 30.4963" fill="#263238"/>
<path d="M55 55.4999C56.6667 52.6665 61.6 48.5999 68 54.9999" stroke="black" stroke-linecap="round" stroke-linejoin="round"/>
<path d="M93.3925 31.2064C92.4391 31.1499 91.4999 30.9479 90.6075 30.6075C88.9504 30.1061 86.7225 29.2147 84.2856 28.2955L78.0751 25.7885C77.1774 25.5269 76.3129 25.1624 75.499 24.7021C76.4512 24.767 77.3892 24.9687 78.2839 25.301C79.941 25.8024 82.169 26.6938 84.6059 27.613L90.8164 30.12C91.7152 30.3785 92.58 30.7431 93.3925 31.2064Z" fill="#263238"/>
<path d="M56.2406 23.491C56.8182 23.5556 57.359 23.8067 57.7811 24.2063C58.2033 24.6059 58.4837 25.1322 58.58 25.7055C58.9993 28.4205 58.4011 31.1947 56.9001 33.4955C55.3992 35.7962 53.1013 37.4612 50.4478 38.1707C49.6098 38.4403 48.7256 38.536 47.8494 38.4522C46.9731 38.3684 46.1231 38.1068 45.3513 37.6833C43.2765 36.3741 42.5663 33.6582 42.4549 31.2069C42.1808 29.4199 42.4935 27.5921 43.3461 25.9979C44.0686 25.104 44.9868 24.3879 46.0298 23.9049C47.0728 23.422 48.2127 23.185 49.3617 23.2124C51.6579 23.1894 53.9538 23.2824 56.2406 23.491Z" fill="#263238"/>
<path d="M66.7396 23.811C66.1519 23.8591 65.5962 24.0992 65.1583 24.4943C64.7205 24.8895 64.4247 25.4177 64.3167 25.9976C63.8098 28.7285 64.3318 31.5503 65.7821 33.919C67.2323 36.2876 69.508 38.0353 72.1704 38.825C73.0094 39.1212 73.8998 39.2443 74.7877 39.1868C75.6756 39.1294 76.5426 38.8926 77.3365 38.4908C79.481 37.2094 80.2051 34.4796 80.4557 32.0144C80.7912 30.2154 80.527 28.3561 79.7038 26.7219C79.0004 25.7954 78.0931 25.0434 77.0523 24.5241C76.0116 24.0048 74.8652 23.7322 73.7021 23.7274C71.3906 23.5463 66.7396 23.811 66.7396 23.811Z" fill="#263238"/>
<path d="M68.8559 24.174C66.3164 24.4973 63.7513 24.5719 61.1972 24.3969C58.634 24.4546 56.0709 24.2821 53.5385 23.8815C56.0827 23.558 58.6524 23.4834 61.2111 23.6587C63.7697 23.6014 66.3282 23.7739 68.8559 24.174Z" fill="#263238"/>
<path d="M92.891 83.4489C92.891 83.4489 92.891 83.3792 92.891 83.24C92.8653 83.0225 92.8653 82.8028 92.891 82.5854C93.0417 81.7702 93.3339 80.9877 93.7543 80.2734C94.4127 79.1829 94.9408 78.0189 95.3278 76.8054C95.7613 75.1706 95.9582 73.4821 95.9127 71.7914C95.9127 69.9112 95.676 67.8777 95.5367 65.6075C95.4974 64.9745 95.6477 64.3441 95.9684 63.7969C96.1444 63.4819 96.416 63.2312 96.744 63.0809C97.0719 62.9307 97.4392 62.8888 97.7925 62.9612C97.9803 63.0069 98.1565 63.0912 98.3099 63.2087C98.4634 63.3262 98.5907 63.4743 98.6837 63.6437C98.7994 63.822 98.861 64.03 98.861 64.2426C98.861 64.4551 98.7994 64.6632 98.6837 64.8415C98.427 65.1315 98.0815 65.3283 97.7011 65.4014C97.3208 65.4745 96.927 65.4196 96.5811 65.2454C95.9251 64.927 95.4008 64.3897 95.0983 63.7262C94.7958 63.0626 94.7342 62.3144 94.924 61.6102C95.1111 60.8796 95.55 60.2384 96.1633 59.7996C96.4802 59.561 96.8553 59.4119 97.2495 59.3679C97.4723 59.3331 97.7002 59.3529 97.9137 59.4257C98.1271 59.4985 98.3197 59.622 98.4749 59.7857C98.6462 59.9545 98.7659 60.1685 98.8202 60.4028C98.8744 60.6371 98.8609 60.882 98.7812 61.1089C98.672 61.3247 98.5045 61.5056 98.2978 61.6311C98.0911 61.7567 97.8534 61.8218 97.6115 61.8192C97.2053 61.8254 96.8023 61.7453 96.4293 61.5841C96.0564 61.4229 95.7219 61.1843 95.4481 60.8841C95.1742 60.5838 94.9673 60.2289 94.8409 59.8426C94.7146 59.4564 94.6717 59.0477 94.7151 58.6437C94.7902 58.2328 94.9535 57.8431 95.194 57.5016C95.4344 57.1602 95.7462 56.875 96.1076 56.6659C96.7063 56.2962 97.4227 56.1668 98.1128 56.3038C98.4744 56.397 98.8025 56.5901 99.0597 56.8609C99.2088 57.0092 99.3167 57.1938 99.3729 57.3965C99.429 57.5992 99.4315 57.813 99.38 58.0169C99.32 58.2164 99.2107 58.3975 99.0623 58.5435C98.9138 58.6896 98.7309 58.7959 98.5306 58.8526C98.1973 58.9556 97.8456 58.9841 97.5001 58.9361C96.8554 58.8402 96.2489 58.5706 95.7456 58.1562C95.2219 57.7754 94.8303 57.2405 94.6256 56.6261C94.4209 56.0118 94.4132 55.3488 94.6037 54.73C94.8286 54.1365 95.2494 53.6377 95.7964 53.3161C96.3433 52.9944 96.9837 52.8692 97.6115 52.9612C97.962 53.0138 98.2864 53.1775 98.537 53.4282C98.7877 53.6789 98.9513 54.0033 99.004 54.3539C99.0182 54.5363 98.9918 54.7195 98.9268 54.8905C98.8618 55.0615 98.7598 55.2159 98.628 55.3428C98.3748 55.5647 98.0581 55.7012 97.7229 55.7328C97.1248 55.7399 96.5449 55.5267 96.0937 55.1339C95.6581 54.7919 95.3017 54.3595 95.0493 53.8665C94.7867 53.3729 94.7083 52.8019 94.8283 52.2557C94.9482 51.7096 95.2586 51.224 95.7038 50.8859C95.9317 50.7286 96.1948 50.6299 96.4698 50.5985C96.7449 50.5671 97.0235 50.604 97.2809 50.7059C97.5384 50.8077 97.7667 50.9715 97.9458 51.1827C98.1249 51.3939 98.2492 51.6459 98.3078 51.9166V52.1116L98.1407 52.1951C97.8413 52.3507 97.513 52.4429 97.1764 52.4657C96.8398 52.4885 96.5021 52.4416 96.1844 52.3279C95.8668 52.2141 95.576 52.036 95.3304 51.8047C95.0848 51.5733 94.8895 51.2937 94.7569 50.9834C94.6457 50.6917 94.6017 50.3787 94.6282 50.0676C94.6547 49.7565 94.7511 49.4554 94.9101 49.1868C95.1911 48.6853 95.6325 48.2928 96.1633 48.0725C96.6719 47.8636 97.2423 47.8636 97.7508 48.0725C98.0061 48.1657 98.2216 48.3439 98.3611 48.5772C98.5005 48.8106 98.5555 49.0848 98.5166 49.3539C98.4902 49.4895 98.4306 49.6165 98.3432 49.7234C98.2557 49.8304 98.143 49.914 98.0153 49.9667C97.7815 50.0519 97.5251 50.0519 97.2913 49.9667C97.0979 49.8713 96.9294 49.7324 96.7989 49.5608C96.6684 49.3892 96.5796 49.1896 96.5393 48.9778C96.371 47.884 96.371 46.7708 96.5393 45.677C96.5711 45.2926 96.6507 44.9136 96.776 44.5488C96.625 45.996 96.6624 47.4567 96.8874 48.8943C96.9167 49.054 96.9839 49.2043 97.0832 49.3327C97.1825 49.4612 97.3112 49.5639 97.4583 49.6324C97.5235 49.6691 97.5964 49.6897 97.6711 49.6927C97.7458 49.6958 97.8202 49.6811 97.8881 49.6498C97.956 49.6186 98.0156 49.5717 98.0619 49.513C98.1082 49.4543 98.14 49.3854 98.1546 49.3121C98.3078 48.6018 97.1381 48.1561 96.3722 48.56C95.9308 48.7267 95.5703 49.0569 95.3656 49.4821C95.1608 49.9073 95.1273 50.395 95.2722 50.8441C95.3795 51.0784 95.5328 51.2886 95.723 51.4623C95.9133 51.6361 96.1365 51.7698 96.3794 51.8556C96.6223 51.9413 96.88 51.9774 97.1371 51.9615C97.3942 51.9457 97.6455 51.8783 97.8761 51.7634L97.7368 52.0419C97.6866 51.8736 97.5972 51.7196 97.4761 51.5924C97.3549 51.4652 97.2054 51.3685 97.0398 51.3101C96.8741 51.2517 96.6971 51.2333 96.523 51.2564C96.3489 51.2795 96.1827 51.3435 96.038 51.443C95.7206 51.7022 95.5056 52.0659 95.4317 52.4691C95.3577 52.8722 95.4295 53.2885 95.6342 53.6436C95.8192 54.0438 96.1028 54.3905 96.4584 54.6512C96.814 54.9118 97.2299 55.0779 97.6672 55.1339C98.0432 55.1339 98.3913 54.7857 98.3356 54.4793C98.2867 54.2875 98.1829 54.1143 98.037 53.9807C97.891 53.8471 97.7093 53.759 97.5141 53.7272C97.0423 53.6651 96.5638 53.7706 96.1618 54.0251C95.7598 54.2795 95.4598 54.667 95.3139 55.1199C95.1758 55.5991 95.1915 56.1096 95.3589 56.5794C95.5263 57.0492 95.8369 57.4546 96.2469 57.7384C96.6491 58.0641 97.1289 58.2801 97.6394 58.3651C98.1128 58.3651 98.6698 58.2676 98.7255 57.9612C98.7812 57.6548 98.4331 57.2509 97.9736 57.1534C97.4909 57.0678 96.9937 57.1673 96.5811 57.4319C96.3229 57.5791 96.0988 57.7793 95.9235 58.0193C95.7483 58.2594 95.626 58.5339 95.5646 58.8247C95.5263 59.1251 95.5565 59.4303 95.653 59.7173C95.7494 60.0044 95.9097 60.2658 96.1216 60.4821C96.3182 60.7047 96.5606 60.8822 96.8322 61.0024C97.1038 61.1226 97.3981 61.1827 97.6951 61.1785C98.2938 61.1785 98.4192 60.7467 98.085 60.3428C97.7508 59.9389 97.1381 60.1061 96.6925 60.4403C96.2209 60.7825 95.8777 61.2728 95.7177 61.8331C95.5857 62.3707 95.6374 62.937 95.8645 63.4418C96.0916 63.9467 96.4811 64.3609 96.971 64.6186C97.4305 64.8275 98.071 64.7718 98.266 64.4654C98.4609 64.159 98.266 63.6715 97.7786 63.5601C97.5525 63.5247 97.3211 63.5607 97.1164 63.663C96.9117 63.7654 96.7441 63.929 96.6368 64.1312C96.3882 64.5519 96.2673 65.0357 96.2887 65.5239C96.4001 67.7106 96.6089 69.8276 96.5811 71.7357C96.5911 73.4658 96.3472 75.1879 95.857 76.8471C95.4507 78.0861 94.8742 79.2627 94.1442 80.343C93.7082 81.0203 93.3838 81.7633 93.1834 82.5436C92.891 83.1564 92.891 83.4489 92.891 83.4489Z" fill="#E0E0E0"/>
<path d="M98.0144 40.7057C97.9542 40.0315 97.7551 39.3771 97.4296 38.7837C97.2585 38.4921 97.0249 38.2422 96.7456 38.052C96.4662 37.8617 96.1482 37.7358 95.8143 37.6834C95.4374 37.6558 95.0616 37.7508 94.743 37.954C94.4243 38.1573 94.1798 38.458 94.0458 38.8115C93.9401 39.1686 93.9461 39.5495 94.0631 39.903C94.1801 40.2565 94.4025 40.5658 94.7003 40.7893L94.8535 40.9007C95.0902 41.0399 95.4244 41.0678 95.6472 41.2071C95.8719 41.3792 96.0469 41.6078 96.1546 41.8695C96.2622 42.1313 96.2985 42.4169 96.2599 42.6973C96.19 43.2566 96.1481 43.8191 96.1346 44.3826C96.1346 44.7865 96.3992 45.26 96.803 45.274C97.2068 45.2879 97.4157 44.9258 97.5549 44.6054C98.0707 43.3743 98.2299 42.023 98.0144 40.7057Z" fill="#E0E0E0"/>
<path d="M56.8254 69.8415C56.8254 69.8415 54.0404 73.9363 53.7898 76.6104C53.6366 78.3792 54.8202 85.2456 55.6279 89.6885C56.0982 92.2381 57.094 94.6619 58.5521 96.8056L60.3623 99.4657C62.9872 103.299 65.1732 107.415 66.8792 111.736C70.4162 120.678 76.3482 135.72 76.6267 136.43C77.4121 138.225 78.2906 139.977 79.2585 141.681L82.4055 104.145L91.8745 85.3709C92.7101 83.741 93.185 81.9501 93.2669 80.1202L93.4897 74.1034C93.5643 71.8925 92.7752 69.7394 91.2896 68.1006L90.8161 73.5324L75.1228 87.7943L56.895 75.538L56.8254 69.8415Z" fill="white"/>
<path d="M74.2035 87.9209C72.8747 88.6712 71.7472 89.732 70.9173 91.0128C69.1091 94.2535 67.826 97.7604 67.1158 101.403C67.0044 101.821 66.9069 102.239 66.8094 102.629L66.6701 103.186L66.2246 102.81C63.5901 100.545 61.1278 98.0865 58.8583 95.4558C57.8674 94.4438 56.9594 93.354 56.1429 92.1967C57.2523 93.0797 58.2821 94.0584 59.2203 95.1215C61.5874 97.6219 64.0784 100.002 66.6841 102.252L66.0992 102.447L66.4056 101.222C67.4499 96.9739 68.745 93.102 70.4995 90.7204C71.1537 89.7539 72.0146 88.9452 73.0199 88.3527C73.3763 88.1202 73.7812 87.9725 74.2035 87.9209Z" fill="#263238"/>
<path d="M85.4132 98.0312C84.3877 100.039 83.205 101.962 81.8763 103.783L81.3054 104.647V103.588C81.1879 101.856 80.8606 100.144 80.3306 98.4908C79.8007 95.73 78.862 93.0637 77.5456 90.5798C76.8747 89.6397 76.1297 88.7548 75.3176 87.9336C75.3176 87.9336 75.6379 88.045 76.1531 88.4071C76.8562 88.934 77.4719 89.5686 77.9773 90.2874C79.4617 92.7557 80.4988 95.4668 81.0408 98.2958C81.5944 100.013 81.9038 101.799 81.9598 103.602L81.375 103.407C82.5797 101.513 83.9299 99.7158 85.4132 98.0312Z" fill="#263238"/>
<path d="M78.2282 139.119C78.0332 139.119 77.142 127.754 76.2369 113.701C75.3318 99.648 74.7609 88.2552 74.9558 88.2412C75.1508 88.2273 76.0559 99.6062 76.961 113.659C77.8661 127.712 78.4231 139.105 78.2282 139.119Z" fill="#263238"/>
<path d="M43.1372 31.2205C42.8508 30.7277 42.6862 30.1736 42.6572 29.6043C42.6281 29.035 42.7354 28.467 42.9701 27.9475C43.5689 26.123 44.9753 25.2595 45.0589 25.4266C45.1424 25.5937 44.1677 26.5826 43.6664 28.2122C43.1651 29.8417 43.3461 31.1788 43.1372 31.2205Z" fill="#E0E0E0"/>
<path d="M66.1128 32.0004C65.9596 32.1257 65.0406 30.9419 65.0545 29.2148C65.0684 27.4878 65.9596 26.2622 66.1128 26.4293C66.266 26.5964 65.7647 27.7106 65.7786 29.2148C65.7925 30.719 66.2938 31.9029 66.1128 32.0004Z" fill="#E0E0E0"/>
</svg>
